<svg width="48" height="48" xmlns="http://www.w3.org/2000/svg"><path style="opacity:1;fill:#fff;fill-opacity:.36000001;stroke-width:1.45454538;stroke-linecap:round;stroke-linejoin:round" d="M48 980.362c-13.255 0-24 10.745-24 24s10.745 24 24 24 24-10.745 24-24-10.745-24-24-24zm0 12a12 12 0 0 1 12 12 12 12 0 0 1-12 12 12 12 0 0 1-12-12 12 12 0 0 1 12-12z" transform="translate(-24 -980.362)"/><path style="fill:#fff;stroke-width:1.41421;stroke-linecap:round;stroke-linejoin:round" d="M60 1004.362a12 12 0 0 1-12 12 12 12 0 0 1-12-12 12 12 0 0 1 12-12 12 12 0 0 1 12 12z" transform="translate(-24 -980.362)"/></svg>