<?xml version="1.0" encoding="UTF-8" standalone="no"?>
<!-- Created with Inkscape (http://www.inkscape.org/) -->

<svg
   xmlns:dc="http://purl.org/dc/elements/1.1/"
   xmlns:cc="http://creativecommons.org/ns#"
   xmlns:rdf="http://www.w3.org/1999/02/22-rdf-syntax-ns#"
   xmlns:svg="http://www.w3.org/2000/svg"
   xmlns="http://www.w3.org/2000/svg"
   xmlns:sodipodi="http://sodipodi.sourceforge.net/DTD/sodipodi-0.dtd"
   xmlns:inkscape="http://www.inkscape.org/namespaces/inkscape"
   width="512"
   height="512"
   id="svg1901"
   sodipodi:version="0.32"
   inkscape:version="0.92.2 5c3e80d, 2017-08-06"
   sodipodi:docname="cover.svg"
   version="1.1"
   inkscape:export-xdpi="90"
   inkscape:export-ydpi="90">
  <defs
     id="defs1903" />
  <sodipodi:namedview
     id="base"
     pagecolor="#cccccc"
     bordercolor="#666666"
     borderopacity="1.0"
     inkscape:pageopacity="0"
     inkscape:pageshadow="2"
     inkscape:zoom="1.7851562"
     inkscape:cx="135.56236"
     inkscape:cy="256"
     inkscape:document-units="px"
     inkscape:current-layer="layer1"
     inkscape:window-width="1920"
     inkscape:window-height="1016"
     inkscape:window-x="0"
     inkscape:window-y="27"
     showgrid="true"
     inkscape:window-maximized="1"
     inkscape:showpageshadow="false"
     inkscape:document-rotation="0"
     inkscape:pagecheckerboard="false">
    <inkscape:grid
       type="xygrid"
       id="grid10137"
       empspacing="5"
       visible="true"
       enabled="true"
       snapvisiblegridlinesonly="true"
       spacingx="16"
       spacingy="16"
       originx="0"
       originy="0" />
  </sodipodi:namedview>
  <metadata
     id="metadata1906">
    <rdf:RDF>
      <cc:Work
         rdf:about="">
        <dc:format>image/svg+xml</dc:format>
        <dc:type
           rdf:resource="http://purl.org/dc/dcmitype/StillImage" />
        <dc:title />
      </cc:Work>
    </rdf:RDF>
  </metadata>
  <g
     inkscape:label="Taso 1"
     inkscape:groupmode="layer"
     id="layer1"
     transform="translate(0,-540.3622)">
    <g
       id="g10914"
       style="fill:#ffffff;fill-opacity:1"
       transform="matrix(10.624998,0,0,10.624998,1.000048,-10129.984)">
      <path
         inkscape:connector-curvature="0"
         id="path10143"
         d="m 24,1004.3622 c -13.254834,0 -24,10.7452 -24,24 0,13.2548 10.745166,24 24,24 13.254834,0 24,-10.7452 24,-24 0,-13.2548 -10.745166,-24 -24,-24 z m 0,7.5 c 9.112698,0 16.5,7.3873 16.5,16.5 0,9.1127 -7.387302,16.5 -16.5,16.5 -9.112699,0 -16.5,-7.3873 -16.5,-16.5 0,-9.1127 7.387301,-16.5 16.5,-16.5 z"
         style="fill:#ffffff;fill-opacity:1;stroke:#ffffff;stroke-width:0;stroke-linecap:square;stroke-miterlimit:4;stroke-dasharray:none;stroke-opacity:0" />
      <ellipse
         transform="matrix(2.25,0,0,2.5714286,-9.75,991.07655)"
         id="path10139"
         style="fill:#ffffff;fill-opacity:1;stroke:#ffffff;stroke-width:0;stroke-linecap:square;stroke-miterlimit:4;stroke-dasharray:none;stroke-opacity:0"
         cx="15"
         cy="14.5"
         rx="4"
         ry="3.5" />
    </g>
    <path
       inkscape:connector-curvature="0"
       d="m 300.576,669.6934 c -26.5824,0 -47.9232,21.3408 -47.9232,47.9232 0,17.5968 9.7344,32.9472 23.9616,41.184 v 6.7392 c 0,23.9616 -23.9616,47.9232 -47.9232,47.9232 -19.8432,0 -35.568,4.1184 -47.9232,10.8576 V 710.8774 c 14.2272,-8.2368 23.9616,-23.5872 23.9616,-41.184 0,-26.5824 -21.3408,-47.9232 -47.9232,-47.9232 -26.5824,0 -47.9232,21.3408 -47.9232,47.9232 0,17.5968 9.7344,32.9472 23.9616,41.184 V 867.751 c -14.2272,8.2368 -23.9616,23.5872 -23.9616,41.184 0,26.5824 21.3408,47.9232 47.9232,47.9232 26.5824,0 47.9232,-21.3408 47.9232,-47.9232 0,-12.7296 -4.8672,-23.9616 -12.7296,-32.5728 7.1136,-8.6112 18.3456,-15.3504 36.6912,-15.3504 47.9232,0 95.8464,-47.9232 95.8464,-95.8464 v -6.7392 c 14.2272,-8.2368 23.9616,-23.5872 23.9616,-41.184 0,-26.5824 -21.3408,-47.9232 -47.9232,-47.9232 z M 156.8064,645.7318 c 13.104,0 23.9616,10.8576 23.9616,23.9616 0,13.104 -10.8576,23.9616 -23.9616,23.9616 -13.104,0 -23.9616,-10.8576 -23.9616,-23.9616 0,-13.104 10.8576,-23.9616 23.9616,-23.9616 z m 0,287.5392 c -13.104,0 -23.9616,-10.8576 -23.9616,-23.9616 0,-13.104 10.8576,-23.9616 23.9616,-23.9616 13.104,0 23.9616,10.8576 23.9616,23.9616 0,13.104 -10.8576,23.9616 -23.9616,23.9616 z M 300.576,741.5782 c -13.104,0 -23.9616,-10.8576 -23.9616,-23.9616 0,-13.104 10.8576,-23.9616 23.9616,-23.9616 13.104,0 23.9616,10.8576 23.9616,23.9616 0,13.104 -10.8576,23.9616 -23.9616,23.9616 z"
       id="path2"
       style="stroke-width:3;stroke:#000000;stroke-opacity:1;fill:#ffffff;fill-opacity:1;stroke-miterlimit:4;stroke-dasharray:none" />
  </g>
</svg>
