<svg width="24" height="24" xmlns="http://www.w3.org/2000/svg"><defs><filter style="color-interpolation-filters:sRGB" id="b" x="-.36" width="1.72" y="-.36" height="1.72"><feGaussianBlur stdDeviation="1.237"/></filter><filter style="color-interpolation-filters:sRGB" id="a" x="-.096" width="1.192" y="-.096" height="1.192"><feGaussianBlur stdDeviation=".8"/></filter></defs><path style="fill:#4a0;stroke-width:1.17849;stroke-linecap:round;stroke-linejoin:round;filter:url(#a)" d="M46 1016.365a10 10 0 0 1-10 10 10 10 0 0 1-10-10 10 10 0 0 1 10-10 10 10 0 0 1 10 10z" transform="translate(-24 -1004.362)"/><path style="fill:#4a0;stroke-width:1.17849;stroke-linecap:round;stroke-linejoin:round" d="M46 1016.365a10 10 0 0 1-10 10 10 10 0 0 1-10-10 10 10 0 0 1 10-10 10 10 0 0 1 10 10z" transform="translate(-24 -1004.362)"/><path style="fill:#7fff2a;stroke-width:.485846;stroke-linecap:round;stroke-linejoin:round;filter:url(#b)" transform="translate(-108.094 -1448.05) scale(1.50155)" d="M84.102 972.362a4.123 4.123 0 0 1-4.122 4.123 4.123 4.123 0 0 1-4.123-4.123 4.123 4.123 0 0 1 4.123-4.122 4.123 4.123 0 0 1 4.122 4.122z"/></svg>