<svg xmlns="http://www.w3.org/2000/svg" width="64" height="64"><path style="opacity:1;fill:#000;fill-opacity:.18000001;stroke:none;stroke-width:0;stroke-linecap:butt;stroke-linejoin:miter;stroke-miterlimit:4;stroke-dasharray:none;stroke-opacity:1;paint-order:stroke markers fill" d="m7.215 38.945-3.473 1.953h-.006c-4.988 2.806-4.986 7.357.006 10.164l9.61 5.403 9.61 5.418h.003c4.988 2.805 13.08 2.804 18.072-.012h.002l9.592-5.394h.004l9.615-5.407h.006c4.988-2.805 4.987-7.356-.004-10.164h-.002l-3.469-1.955-6.146 3.457h-.004l-1.313.738 2.649 1.483c.755.423 1.147.97 1.174 1.525.028.595-.362 1.197-1.172 1.65l-.028-.011.022.012-8.502 4.761.01.012-8.49 4.752h-.002c-1.567.877-4.103.878-5.668 0l.021-.014-.023.012-8.502-4.766-8.496-4.755c-1.567-.877-1.567-2.298-.002-3.174l.029.012-.024-.016 2.51-1.404-1.472-.83-6.137-3.45z"/><path style="opacity:1;fill:#000;fill-opacity:1;stroke:none;stroke-width:0;stroke-linecap:butt;stroke-linejoin:miter;stroke-miterlimit:4;stroke-dasharray:none;stroke-opacity:1;paint-order:stroke markers fill" d="M31.992 0v.004c-3.27 0-6.54.704-9.037 2.107h-.002l-9.605 5.403-9.606 5.404h-.006c-4.988 2.806-4.986 7.356.006 10.164l9.61 5.402 9.61 5.418h.003c4.988 2.806 13.08 2.805 18.072-.011h.002l9.592-5.395h.004l9.615-5.406h.006c4.988-2.805 4.987-7.356-.004-10.164h-.002l-9.605-5.412-9.616-5.409-.002-.001C38.533.7 35.263-.001 31.992 0zm.143 6.322c1.026 0 2.051.22 2.834.658l-.022.014.024-.012 8.5 4.762h.004l8.492 4.756c.755.423 1.147.973 1.174 1.527.028.595-.362 1.195-1.172 1.649l-.028-.012.022.012-8.502 4.762.01.011-8.49 4.754c-1.567.877-4.105.878-5.67 0l.021-.015-.023.011-8.502-4.765-8.496-4.758c-1.567-.877-1.567-2.296-.002-3.172l.029.01-.024-.016 8.502-4.76h-.007l8.488-4.754c.783-.438 1.812-.658 2.838-.658v-.004z"/><path style="opacity:1;fill:#000;fill-opacity:.36000001;stroke:none;stroke-width:0;stroke-linecap:butt;stroke-linejoin:miter;stroke-miterlimit:4;stroke-dasharray:none;stroke-opacity:1;paint-order:stroke markers fill" d="m7.074 24.955-3.332 1.873h-.006c-4.988 2.806-4.986 7.355.006 10.164l9.61 5.403 9.61 5.42h.003c4.988 2.805 13.08 2.802 18.072-.014h.002l9.592-5.393h.004L60.25 37h.006c4.988-2.807 4.987-7.356-.004-10.164h-.002l-3.328-1.875-6.287 3.535h-.004l-1.178.662 2.51 1.406c.755.423 1.145.972 1.172 1.526.029.595-.362 1.195-1.172 1.648l-.026-.01.022.01-8.5 4.762.01.012-8.489 4.752h-.001c-1.566.877-4.104.877-5.668 0l.021-.016-.021.014-8.502-4.764-8.495-4.76c-1.566-.876-1.566-2.296-.002-3.172l.03.012-.024-.015 2.37-1.327-1.336-.752-6.278-3.529z"/></svg>