<svg width="64" height="64" xmlns="http://www.w3.org/2000/svg"><g style="fill:#fff;fill-opacity:.9"><path d="M41.333 32A9.333 9.333 0 0 1 32 41.333 9.333 9.333 0 0 1 22.667 32 9.333 9.333 0 0 1 32 22.667 9.333 9.333 0 0 1 41.333 32ZM18.667 32a9.333 9.333 0 0 1-9.334 9.333A9.333 9.333 0 0 1 0 32a9.333 9.333 0 0 1 9.333-9.333A9.333 9.333 0 0 1 18.667 32ZM64 32a9.333 9.333 0 0 1-9.333 9.333A9.333 9.333 0 0 1 45.333 32a9.333 9.333 0 0 1 9.334-9.333A9.333 9.333 0 0 1 64 32ZM41.333 9.333A9.333 9.333 0 0 1 32 18.667a9.333 9.333 0 0 1-9.333-9.334A9.333 9.333 0 0 1 32 0a9.333 9.333 0 0 1 9.333 9.333ZM18.667 9.333a9.333 9.333 0 0 1-9.334 9.334A9.333 9.333 0 0 1 0 9.333 9.333 9.333 0 0 1 9.333 0a9.333 9.333 0 0 1 9.334 9.333ZM64 9.333a9.333 9.333 0 0 1-9.333 9.334 9.333 9.333 0 0 1-9.334-9.334A9.333 9.333 0 0 1 54.667 0 9.333 9.333 0 0 1 64 9.333ZM18.667 54.667A9.333 9.333 0 0 1 9.333 64 9.333 9.333 0 0 1 0 54.667a9.333 9.333 0 0 1 9.333-9.334 9.333 9.333 0 0 1 9.334 9.334ZM41.333 54.667A9.333 9.333 0 0 1 32 64a9.333 9.333 0 0 1-9.333-9.333A9.333 9.333 0 0 1 32 45.333a9.333 9.333 0 0 1 9.333 9.334ZM64 54.667A9.333 9.333 0 0 1 54.667 64a9.333 9.333 0 0 1-9.334-9.333 9.333 9.333 0 0 1 9.334-9.334A9.333 9.333 0 0 1 64 54.667Z"/></g></svg>