<svg width="64" height="64" xmlns="http://www.w3.org/2000/svg"><g style="fill:#000;fill-opacity:1"><path style="stroke-width:1.17501" d="M48.012 1011.112a6.75 6.75 0 0 1-6.75 6.75 6.75 6.75 0 0 1-6.75-6.75 6.75 6.75 0 0 1 6.75-6.75 6.75 6.75 0 0 1 6.75 6.75zM13.502 1011.1a6.75 6.75 0 0 1-6.75 6.75 6.75 6.75 0 0 1-6.75-6.75 6.75 6.75 0 0 1 6.75-6.75 6.75 6.75 0 0 1 6.75 6.75zM30.74 1011.111a6.75 6.75 0 0 1-6.75 6.75 6.75 6.75 0 0 1-6.75-6.75 6.75 6.75 0 0 1 6.75-6.75 6.75 6.75 0 0 1 6.75 6.75zM48.017 1028.373a6.75 6.75 0 0 1-6.75 6.75 6.75 6.75 0 0 1-6.75-6.75 6.75 6.75 0 0 1 6.75-6.75 6.75 6.75 0 0 1 6.75 6.75zM13.507 1028.362a6.75 6.75 0 0 1-6.75 6.75 6.75 6.75 0 0 1-6.75-6.75 6.75 6.75 0 0 1 6.75-6.75 6.75 6.75 0 0 1 6.75 6.75zM30.746 1028.372a6.75 6.75 0 0 1-6.75 6.75 6.75 6.75 0 0 1-6.75-6.75 6.75 6.75 0 0 1 6.75-6.75 6.75 6.75 0 0 1 6.75 6.75zM48.012 1045.611a6.75 6.75 0 0 1-6.75 6.75 6.75 6.75 0 0 1-6.75-6.75 6.75 6.75 0 0 1 6.75-6.75 6.75 6.75 0 0 1 6.75 6.75zM13.502 1045.621a6.75 6.75 0 0 1-6.75 6.75 6.75 6.75 0 0 1-6.75-6.75 6.75 6.75 0 0 1 6.75-6.75 6.75 6.75 0 0 1 6.75 6.75zM30.74 1045.61a6.75 6.75 0 0 1-6.75 6.75 6.75 6.75 0 0 1-6.75-6.75 6.75 6.75 0 0 1 6.75-6.75 6.75 6.75 0 0 1 6.75 6.75z" transform="matrix(1.33333 0 0 1.33333 0 -1339.15)"/></g></svg>