<?xml version="1.0" encoding="UTF-8" standalone="no"?>
<!-- Created with Inkscape (http://www.inkscape.org/) -->

<svg
   xmlns:dc="http://purl.org/dc/elements/1.1/"
   xmlns:cc="http://creativecommons.org/ns#"
   xmlns:rdf="http://www.w3.org/1999/02/22-rdf-syntax-ns#"
   xmlns:svg="http://www.w3.org/2000/svg"
   xmlns="http://www.w3.org/2000/svg"
   xmlns:sodipodi="http://sodipodi.sourceforge.net/DTD/sodipodi-0.dtd"
   xmlns:inkscape="http://www.inkscape.org/namespaces/inkscape"
   width="86"
   height="86"
   id="svg1901"
   sodipodi:version="0.32"
   inkscape:version="0.48.4 r9939"
   sodipodi:docname="menu.svg"
   version="1.1"
   inkscape:export-xdpi="90"
   inkscape:export-ydpi="90">
  <defs
     id="defs1903" />
  <sodipodi:namedview
     id="base"
     pagecolor="#ffffff"
     bordercolor="#666666"
     borderopacity="1.0"
     inkscape:pageopacity="0.0"
     inkscape:pageshadow="2"
     inkscape:zoom="9.0647158"
     inkscape:cx="36"
     inkscape:cy="36"
     inkscape:document-units="px"
     inkscape:current-layer="layer1"
     inkscape:window-width="1920"
     inkscape:window-height="1143"
     inkscape:window-x="0"
     inkscape:window-y="27"
     showgrid="true"
     inkscape:window-maximized="1">
    <inkscape:grid
       type="xygrid"
       id="grid10137"
       empspacing="5"
       visible="true"
       enabled="true"
       snapvisiblegridlinesonly="true" />
  </sodipodi:namedview>
  <metadata
     id="metadata1906">
    <rdf:RDF>
      <cc:Work
         rdf:about="">
        <dc:format>image/svg+xml</dc:format>
        <dc:type
           rdf:resource="http://purl.org/dc/dcmitype/StillImage" />
        <dc:title />
      </cc:Work>
    </rdf:RDF>
  </metadata>
  <g
     inkscape:label="Taso 1"
     inkscape:groupmode="layer"
     id="layer1"
     transform="translate(0,-966.3622)">
    <g
       id="g10147"
       style="fill:#000000;fill-opacity:0.62745098"
       transform="matrix(1.1666667,0,0,1.1666667,10,-185.39368)">
      <path
         transform="matrix(1.1666667,0,0,1.2727273,28.666667,1008.6349)"
         d="m 2,15.5 c 0,3.037566 -2.6862915,5.5 -6,5.5 -3.3137085,0 -6,-2.462434 -6,-5.5 0,-3.037566 2.6862915,-5.5 6,-5.5 3.3137085,0 6,2.462434 6,5.5 z"
         sodipodi:ry="5.5"
         sodipodi:rx="6"
         sodipodi:cy="15.5"
         sodipodi:cx="-4"
         id="path10142"
         style="fill:#000000;fill-opacity:0.62745098;stroke:none"
         sodipodi:type="arc" />
      <path
         transform="matrix(1.1666667,0,0,1.2727273,11.666667,1008.6349)"
         d="m 2,15.5 c 0,3.037566 -2.6862915,5.5 -6,5.5 -3.3137085,0 -6,-2.462434 -6,-5.5 0,-3.037566 2.6862915,-5.5 6,-5.5 3.3137085,0 6,2.462434 6,5.5 z"
         sodipodi:ry="5.5"
         sodipodi:rx="6"
         sodipodi:cy="15.5"
         sodipodi:cx="-4"
         id="path10142-7"
         style="fill:#000000;fill-opacity:0.62745098;stroke:none"
         sodipodi:type="arc" />
      <path
         transform="matrix(1.1666667,0,0,1.2727273,45.666667,1008.6349)"
         d="m 2,15.5 c 0,3.037566 -2.6862915,5.5 -6,5.5 -3.3137085,0 -6,-2.462434 -6,-5.5 0,-3.037566 2.6862915,-5.5 6,-5.5 3.3137085,0 6,2.462434 6,5.5 z"
         sodipodi:ry="5.5"
         sodipodi:rx="6"
         sodipodi:cy="15.5"
         sodipodi:cx="-4"
         id="path10142-77"
         style="fill:#000000;fill-opacity:0.62745098;stroke:none"
         sodipodi:type="arc" />
      <path
         transform="matrix(1.1666667,0,0,1.2727273,28.666667,991.63493)"
         d="m 2,15.5 c 0,3.037566 -2.6862915,5.5 -6,5.5 -3.3137085,0 -6,-2.462434 -6,-5.5 0,-3.037566 2.6862915,-5.5 6,-5.5 3.3137085,0 6,2.462434 6,5.5 z"
         sodipodi:ry="5.5"
         sodipodi:rx="6"
         sodipodi:cy="15.5"
         sodipodi:cx="-4"
         id="path10142-3"
         style="fill:#000000;fill-opacity:0.62745098;stroke:none"
         sodipodi:type="arc" />
      <path
         transform="matrix(1.1666667,0,0,1.2727273,11.666667,991.63493)"
         d="m 2,15.5 c 0,3.037566 -2.6862915,5.5 -6,5.5 -3.3137085,0 -6,-2.462434 -6,-5.5 0,-3.037566 2.6862915,-5.5 6,-5.5 3.3137085,0 6,2.462434 6,5.5 z"
         sodipodi:ry="5.5"
         sodipodi:rx="6"
         sodipodi:cy="15.5"
         sodipodi:cx="-4"
         id="path10142-31"
         style="fill:#000000;fill-opacity:0.62745098;stroke:none"
         sodipodi:type="arc" />
      <path
         transform="matrix(1.1666667,0,0,1.2727273,45.666667,991.63493)"
         d="m 2,15.5 c 0,3.037566 -2.6862915,5.5 -6,5.5 -3.3137085,0 -6,-2.462434 -6,-5.5 0,-3.037566 2.6862915,-5.5 6,-5.5 3.3137085,0 6,2.462434 6,5.5 z"
         sodipodi:ry="5.5"
         sodipodi:rx="6"
         sodipodi:cy="15.5"
         sodipodi:cx="-4"
         id="path10142-6"
         style="fill:#000000;fill-opacity:0.62745098;stroke:none"
         sodipodi:type="arc" />
      <path
         transform="matrix(1.1666667,0,0,1.2727273,11.666667,1025.6349)"
         d="m 2,15.5 c 0,3.037566 -2.6862915,5.5 -6,5.5 -3.3137085,0 -6,-2.462434 -6,-5.5 0,-3.037566 2.6862915,-5.5 6,-5.5 3.3137085,0 6,2.462434 6,5.5 z"
         sodipodi:ry="5.5"
         sodipodi:rx="6"
         sodipodi:cy="15.5"
         sodipodi:cx="-4"
         id="path10142-9"
         style="fill:#000000;fill-opacity:0.62745098;stroke:none"
         sodipodi:type="arc" />
      <path
         transform="matrix(1.1666667,0,0,1.2727273,28.666667,1025.6349)"
         d="m 2,15.5 c 0,3.037566 -2.6862915,5.5 -6,5.5 -3.3137085,0 -6,-2.462434 -6,-5.5 0,-3.037566 2.6862915,-5.5 6,-5.5 3.3137085,0 6,2.462434 6,5.5 z"
         sodipodi:ry="5.5"
         sodipodi:rx="6"
         sodipodi:cy="15.5"
         sodipodi:cx="-4"
         id="path10142-1"
         style="fill:#000000;fill-opacity:0.62745098;stroke:none"
         sodipodi:type="arc" />
      <path
         transform="matrix(1.1666667,0,0,1.2727273,45.666667,1025.6349)"
         d="m 2,15.5 c 0,3.037566 -2.6862915,5.5 -6,5.5 -3.3137085,0 -6,-2.462434 -6,-5.5 0,-3.037566 2.6862915,-5.5 6,-5.5 3.3137085,0 6,2.462434 6,5.5 z"
         sodipodi:ry="5.5"
         sodipodi:rx="6"
         sodipodi:cy="15.5"
         sodipodi:cx="-4"
         id="path10142-69"
         style="fill:#000000;fill-opacity:0.62745098;stroke:none"
         sodipodi:type="arc" />
    </g>
  </g>
</svg>
