<svg width="48" height="48" version="1.0" xmlns="http://www.w3.org/2000/svg"><path style="fill-opacity:.686275;stroke-width:4;stroke-linecap:round;stroke-linejoin:round" d="M46 24a22 22 0 0 1-22 22A22 22 0 0 1 2 24 22 22 0 0 1 24 2a22 22 0 0 1 22 22Z"/><path style="color:#000;fill:#fff;fill-rule:evenodd;stroke-linecap:round;-inkscape-stroke:none" d="M16.223 13.223a3 3 0 0 0-2.123.877 3 3 0 0 0 0 4.244L29.656 33.9a3 3 0 0 0 4.244 0 3 3 0 0 0 0-4.244L18.344 14.1a3 3 0 0 0-2.121-.877z"/><path style="color:#000;fill:#fff;fill-rule:evenodd;stroke-linecap:round;-inkscape-stroke:none" d="M31.777 13.223a3 3 0 0 0-2.12.877L14.1 29.656a3 3 0 0 0 0 4.244 3 3 0 0 0 4.244 0L33.9 18.344a3 3 0 0 0 0-4.244 3 3 0 0 0-2.123-.877z"/><path style="fill:none;stroke-width:6;stroke-linecap:round;stroke-linejoin:round" d="M0 0h48v48H0Z"/></svg>