<?xml version="1.0" encoding="UTF-8" standalone="no"?>
<!-- Created with Inkscape (http://www.inkscape.org/) -->

<svg
   xmlns:dc="http://purl.org/dc/elements/1.1/"
   xmlns:cc="http://creativecommons.org/ns#"
   xmlns:rdf="http://www.w3.org/1999/02/22-rdf-syntax-ns#"
   xmlns:svg="http://www.w3.org/2000/svg"
   xmlns="http://www.w3.org/2000/svg"
   xmlns:sodipodi="http://sodipodi.sourceforge.net/DTD/sodipodi-0.dtd"
   xmlns:inkscape="http://www.inkscape.org/namespaces/inkscape"
   width="64"
   height="64"
   id="svg1901"
   sodipodi:version="0.32"
   inkscape:version="0.48.5 r10040"
   sodipodi:docname="nearby.svg"
   version="1.1"
   inkscape:export-xdpi="90"
   inkscape:export-ydpi="90">
  <defs
     id="defs1903" />
  <sodipodi:namedview
     id="base"
     pagecolor="#000000"
     bordercolor="#666666"
     borderopacity="1.0"
     inkscape:pageopacity="0"
     inkscape:pageshadow="2"
     inkscape:zoom="10.717087"
     inkscape:cx="32"
     inkscape:cy="32"
     inkscape:document-units="px"
     inkscape:current-layer="layer1"
     inkscape:window-width="1920"
     inkscape:window-height="1136"
     inkscape:window-x="0"
     inkscape:window-y="27"
     showgrid="true"
     inkscape:window-maximized="1"
     inkscape:showpageshadow="false"
     inkscape:snap-global="true">
    <inkscape:grid
       type="xygrid"
       id="grid10137"
       empspacing="8"
       visible="true"
       enabled="true"
       snapvisiblegridlinesonly="true"
       spacingx="1px"
       spacingy="1px" />
  </sodipodi:namedview>
  <metadata
     id="metadata1906">
    <rdf:RDF>
      <cc:Work
         rdf:about="">
        <dc:format>image/svg+xml</dc:format>
        <dc:type
           rdf:resource="http://purl.org/dc/dcmitype/StillImage" />
        <dc:title />
      </cc:Work>
    </rdf:RDF>
  </metadata>
  <g
     inkscape:label="Taso 1"
     inkscape:groupmode="layer"
     id="layer1"
     transform="translate(0,-988.3622)">
    <path
       sodipodi:type="arc"
       style="fill:none;stroke:#ffffff;stroke-width:1.01927997;stroke-linecap:butt;stroke-linejoin:miter;stroke-miterlimit:4;stroke-opacity:0.60000001999999997;stroke-dasharray:none"
       id="path10139"
       sodipodi:cx="-1"
       sodipodi:cy="16"
       sodipodi:rx="15"
       sodipodi:ry="17"
       d="m 14,16 c 0,9.388841 -6.7157288,17 -15,17 -8.2842712,0 -15,-7.611159 -15,-17 0,-9.3888407 6.7157288,-17 15,-17 8.2842712,0 15,7.6111593 15,17 z"
       transform="matrix(1.5666667,0,0,1.3823529,33.566667,998.24455)" />
    <path
       sodipodi:type="arc"
       style="fill:none;stroke:#ffffff;stroke-width:1.54535997;stroke-linecap:butt;stroke-linejoin:miter;stroke-miterlimit:4;stroke-opacity:0.60000001999999997;stroke-dasharray:none"
       id="path10139-4"
       sodipodi:cx="-1"
       sodipodi:cy="16"
       sodipodi:rx="15"
       sodipodi:ry="17"
       d="m 14,16 c 0,9.388841 -6.7157288,17 -15,17 -8.2842712,0 -15,-7.611159 -15,-17 0,-9.3888407 6.7157288,-17 15,-17 8.2842712,0 15,7.6111593 15,17 z"
       transform="matrix(1.0333333,0,0,0.91176471,33.033333,1005.774)" />
    <path
       sodipodi:type="arc"
       style="fill:none;stroke:#ffffff;stroke-width:3.19374389;stroke-linecap:butt;stroke-linejoin:miter;stroke-miterlimit:4;stroke-opacity:0.60000001999999997;stroke-dasharray:none"
       id="path10139-4-0"
       sodipodi:cx="-1"
       sodipodi:cy="16"
       sodipodi:rx="15"
       sodipodi:ry="17"
       d="m 14,16 c 0,9.388841 -6.7157288,17 -15,17 -8.2842712,0 -15,-7.611159 -15,-17 0,-9.3888407 6.7157288,-17 15,-17 8.2842712,0 15,7.6111593 15,17 z"
       transform="matrix(0.5,0,0,0.44117647,32.5,1013.3034)" />
  </g>
</svg>
