<?xml version="1.0" encoding="UTF-8" standalone="no"?>
<!-- Created with Inkscape (http://www.inkscape.org/) -->

<svg
   xmlns:dc="http://purl.org/dc/elements/1.1/"
   xmlns:cc="http://creativecommons.org/ns#"
   xmlns:rdf="http://www.w3.org/1999/02/22-rdf-syntax-ns#"
   xmlns:svg="http://www.w3.org/2000/svg"
   xmlns="http://www.w3.org/2000/svg"
   xmlns:sodipodi="http://sodipodi.sourceforge.net/DTD/sodipodi-0.dtd"
   xmlns:inkscape="http://www.inkscape.org/namespaces/inkscape"
   width="32"
   height="32"
   id="svg1901"
   sodipodi:version="0.32"
   inkscape:version="0.48.4 r9939"
   sodipodi:docname="position.svg"
   version="1.1"
   inkscape:export-xdpi="90"
   inkscape:export-ydpi="90">
  <defs
     id="defs1903" />
  <sodipodi:namedview
     id="base"
     pagecolor="#ffffff"
     bordercolor="#666666"
     borderopacity="1.0"
     inkscape:pageopacity="0.0"
     inkscape:pageshadow="2"
     inkscape:zoom="28.84375"
     inkscape:cx="5.1484291"
     inkscape:cy="16"
     inkscape:document-units="px"
     inkscape:current-layer="layer1"
     inkscape:window-width="1920"
     inkscape:window-height="1143"
     inkscape:window-x="0"
     inkscape:window-y="27"
     showgrid="true"
     inkscape:window-maximized="1">
    <inkscape:grid
       type="xygrid"
       id="grid10137"
       empspacing="5"
       visible="true"
       enabled="true"
       snapvisiblegridlinesonly="true" />
  </sodipodi:namedview>
  <metadata
     id="metadata1906">
    <rdf:RDF>
      <cc:Work
         rdf:about="">
        <dc:format>image/svg+xml</dc:format>
        <dc:type
           rdf:resource="http://purl.org/dc/dcmitype/StillImage" />
        <dc:title />
      </cc:Work>
    </rdf:RDF>
  </metadata>
  <g
     inkscape:label="Taso 1"
     inkscape:groupmode="layer"
     id="layer1"
     transform="translate(0,-1020.3622)">
    <path
       style="fill:#0540ff;fill-opacity:0.47058824;stroke:#ffffff;stroke-width:0;stroke-linecap:square;stroke-miterlimit:4;stroke-opacity:0;stroke-dasharray:none"
       d="M 16 0 C 7.1634441 0 0 7.1634442 0 16 C 0 24.836556 7.1634441 32 16 32 C 24.836556 32 32 24.836556 32 16 C 32 7.1634442 24.836556 -3.5527137e-15 16 0 z M 16 5 C 22.075132 5 27 9.9248676 27 16 C 27 22.075132 22.075132 27 16 27 C 9.9248676 27 5 22.075132 5 16 C 5 9.9248676 9.9248676 5 16 5 z "
       transform="translate(0,1020.3622)"
       id="path10143" />
    <path
       sodipodi:type="arc"
       style="fill:#0540ff;fill-opacity:0.47058824;stroke:#ffffff;stroke-width:0;stroke-linecap:square;stroke-miterlimit:4;stroke-opacity:0;stroke-dasharray:none"
       id="path10139"
       sodipodi:cx="15"
       sodipodi:cy="14.5"
       sodipodi:rx="4"
       sodipodi:ry="3.5"
       d="m 19,14.5 a 4,3.5 0 1 1 -8,0 4,3.5 0 1 1 8,0 z"
       transform="matrix(1.5,0,0,1.7142857,-6.5,1011.5051)" />
  </g>
</svg>
