<svg width="86" height="86" xmlns:xlink="http://www.w3.org/1999/xlink" xmlns="http://www.w3.org/2000/svg"><defs><linearGradient id="b"><stop style="stop-color:#0559ff;stop-opacity:1" offset="0"/><stop style="stop-color:#0533ff;stop-opacity:1" offset="1"/></linearGradient><linearGradient id="a"><stop style="stop-color:#b3b3b3;stop-opacity:1" offset="0"/><stop style="stop-color:#e6e6e6;stop-opacity:1" offset="1"/></linearGradient><linearGradient gradientTransform="translate(0 4)" y2="0" x2="86" y1="73" x1="12" gradientUnits="userSpaceOnUse" id="c" xlink:href="#a"/><linearGradient xlink:href="#b" id="d" x1="10" y1="80" x2="77" y2="13" gradientUnits="userSpaceOnUse"/></defs><g style="display:inline"><path style="fill:url(#c);fill-opacity:1" d="M85.699 5.723c0-.786-.637-1.423-1.423-1.423H43C19.417 4.3.3 23.417.3 47 .3 70.582 19.417 89.7 43 89.7c23.583 0 42.7-19.118 42.7-42.7l-.001-41.277z" transform="translate(0 -4)"/><path style="color:#000;fill:url(#d);stroke-width:0;stroke-linecap:square;-inkscape-stroke:none" d="M76.889 12.835c-27.711.956-44.668-1.2-57.333 11.467-12.666 12.665-12.666 33.2 0 45.866 12.665 12.666 33.2 12.666 45.866 0C78.088 57.503 75.933 40.546 76.89 12.835ZM58.256 31.468c8.707 8.708 8.707 22.826 0 31.534-8.708 8.707-22.826 8.707-31.534 0-8.707-8.708-8.707-22.826 0-31.534 8.708-8.707 22.826-8.707 31.534 0z" transform="translate(0 -4)"/><path style="color:#000;fill:#fff;fill-opacity:0;stroke-linecap:square;-inkscape-stroke:none" d="M76.889 12.835c-27.711.956-44.668-1.199-57.333 11.467-12.666 12.665-12.666 33.2 0 45.866 12.665 12.666 33.2 12.666 45.866 0C78.088 57.503 75.933 40.546 76.89 12.835ZM58.256 31.468c8.707 8.708 8.707 22.826 0 31.534-8.708 8.707-22.826 8.707-31.534 0-8.707-8.708-8.707-22.826 0-31.534 8.708-8.707 22.826-8.707 31.534 0z" fill="none" transform="translate(0 -4)"/><path style="color:#000;fill:#fff;stroke-width:0;stroke-linecap:square;-inkscape-stroke:none" d="M42.49 24.937a22.228 22.228 0 0 0-15.767 6.532c-8.708 8.707-8.708 22.825 0 31.533 8.708 8.707 22.825 8.707 31.533 0 8.707-8.708 8.707-22.826 0-31.533a22.228 22.228 0 0 0-15.767-6.532z" transform="translate(0 -4)"/><path style="color:#000;fill:#fff;fill-opacity:0;stroke-linecap:square;-inkscape-stroke:none" d="M42.49 24.937a22.228 22.228 0 0 0-15.767 6.532c-8.708 8.707-8.708 22.825 0 31.533 8.708 8.707 22.825 8.707 31.533 0 8.707-8.708 8.707-22.826 0-31.533a22.228 22.228 0 0 0-15.767-6.532Z" fill="none" transform="translate(0 -4)"/><path style="color:#000;fill:#0540ff;stroke-width:0;stroke-linecap:square;-inkscape-stroke:none" d="M51.089 55.835a12.162 12.162 0 0 1-17.2 0 12.162 12.162 0 0 1 0-17.2 12.162 12.162 0 0 1 17.2 0 12.162 12.162 0 0 1 0 17.2z" transform="translate(0 -4)"/><path style="color:#000;fill:#fff;fill-opacity:0;stroke-linecap:square;-inkscape-stroke:none" d="M51.089 55.835c-4.75 4.75-12.45 4.75-17.2 0s-4.75-12.45 0-17.2 12.45-4.75 17.2 0 4.75 12.45 0 17.2z" fill="none" transform="translate(0 -4)"/></g></svg>