<?xml version="1.0" encoding="UTF-8" standalone="no"?>
<svg
   xmlns:dc="http://purl.org/dc/elements/1.1/"
   xmlns:cc="http://creativecommons.org/ns#"
   xmlns:rdf="http://www.w3.org/1999/02/22-rdf-syntax-ns#"
   xmlns:svg="http://www.w3.org/2000/svg"
   xmlns="http://www.w3.org/2000/svg"
   xmlns:sodipodi="http://sodipodi.sourceforge.net/DTD/sodipodi-0.dtd"
   xmlns:inkscape="http://www.inkscape.org/namespaces/inkscape"
   id="WORKING_ICONS"
   data-name="WORKING ICONS"
   width="13.909812"
   height="15"
   viewBox="0 0 13.909812 15"
   version="1.1"
   sodipodi:docname="route-white.svg"
   inkscape:version="0.92.2 2405546, 2018-03-11">
  <metadata
     id="metadata11">
    <rdf:RDF>
      <cc:Work
         rdf:about="">
        <dc:format>image/svg+xml</dc:format>
        <dc:type
           rdf:resource="http://purl.org/dc/dcmitype/StillImage" />
        <dc:title>direction</dc:title>
      </cc:Work>
    </rdf:RDF>
  </metadata>
  <defs
     id="defs9" />
  <sodipodi:namedview
     pagecolor="#ffffff"
     bordercolor="#666666"
     borderopacity="1"
     objecttolerance="10"
     gridtolerance="10"
     guidetolerance="10"
     inkscape:pageopacity="0"
     inkscape:pageshadow="2"
     inkscape:window-width="806"
     inkscape:window-height="480"
     id="namedview7"
     showgrid="false"
     inkscape:pagecheckerboard="true"
     fit-margin-top="0"
     fit-margin-left="0"
     fit-margin-right="0"
     fit-margin-bottom="0"
     inkscape:zoom="11.8"
     inkscape:cx="7"
     inkscape:cy="8"
     inkscape:window-x="0"
     inkscape:window-y="27"
     inkscape:window-maximized="0"
     inkscape:current-layer="WORKING_ICONS" />
  <title
     id="title2">direction</title>
  <path
     d="m 12.75607,3.57682 a 0.30471,0.30471 0 0 1 0.23035,0.10507 l 0.649,0.74859 a 0.30457,0.30457 0 0 1 -0.03369,0.43226 l -2.06044,1.73845 a 5.4089,5.4089 0 0 0 -1.73306,4.29459 l 0.0047,3.60769 A 0.29613,0.29613 0 0 1 9.51679,14.80001 H 8.51031 A 0.29657,0.29657 0 0 1 8.21408,14.50379 L 8.2135,11.02754 a 6.99129,6.99129 0 0 1 2.26944,-5.62616 l 2.077,-1.75275 a 0.30461,0.30461 0 0 1 0.19617,-0.07182 m 0,-0.2 a 0.50263,0.50263 0 0 0 -0.32516,0.119 l -2.077,1.75275 A 7.25157,7.25157 0 0 0 8.0141,11.043 v 3.46082 A 0.49622,0.49622 0 0 0 8.51031,15 h 1.00647 a 0.49616,0.49616 0 0 0 0.49615,-0.49681 l -0.0047,-3.60767 a 5.2182,5.2182 0 0 1 1.665,-4.14405 L 13.73065,5.0156 A 0.50458,0.50458 0 0 0 13.7865,4.29947 L 13.1375,3.55088 A 0.50345,0.50345 0 0 0 12.75603,3.37682 v 0 z M 7.64611,5.24852 5.18859,3.17468 A 0.3576,0.3576 0 0 1 5.25878,2.51758 L 8.2077,1.16742 A 0.38658,0.38658 0 0 0 8.00476,0.44965 L 0,0 1.58044,7.86 A 0.38663,0.38663 0 0 0 2.31982,7.95912 L 3.238,4.84851 A 0.35758,0.35758 0 0 1 3.8785,4.68585 l 2.44822,2.06561 a 5.21819,5.21819 0 0 1 1.665,4.144 l -0.0047,3.60767 A 0.49614,0.49614 0 0 0 8.48321,15 H 9.48974 A 0.49621,0.49621 0 0 0 9.98589,14.50378 V 11.043 A 7.25158,7.25158 0 0 0 7.64605,5.24854 Z"
     id="path4"
     inkscape:connector-curvature="0"
     style="fill:#ffffff" />
</svg>
