<svg width="64" height="64" xmlns="http://www.w3.org/2000/svg"><path style="color:#000;fill:#000;stroke-width:0;stroke-linecap:square;-inkscape-stroke:none" d="M36.998 995.88c-7.579 8.12-12.993 12.314-12.993 19.49 0 7.176 5.817 12.993 12.993 12.993 7.177 0 12.994-5.817 12.994-12.993s-5.414-11.37-12.994-19.49zm0 10.557a8.933 8.933 0 1 1 0 17.866 8.933 8.933 0 0 1 0-17.866z" transform="translate(-24 -964.362)"/><path style="color:#000;fill:#fff;fill-opacity:0;stroke-linecap:square;-inkscape-stroke:none" d="M36.998 995.88c-7.579 8.12-12.993 12.314-12.993 19.49 0 7.176 5.817 12.993 12.993 12.993 7.177 0 12.994-5.817 12.994-12.993s-5.414-11.37-12.994-19.49zm0 10.557a8.933 8.933 0 1 1 0 17.866 8.933 8.933 0 0 1 0-17.866z" fill="none" transform="translate(-24 -964.362)"/><path style="color:#000;fill:#000;stroke-width:0;stroke-linecap:square;-inkscape-stroke:none" d="M41.871 1015.37a4.873 4.873 0 0 1-4.873 4.872 4.873 4.873 0 0 1-4.872-4.872 4.873 4.873 0 0 1 4.872-4.873 4.873 4.873 0 0 1 4.873 4.873z" transform="translate(-24 -964.362)"/><path style="color:#000;fill:#fff;fill-opacity:0;stroke-linecap:square;-inkscape-stroke:none" d="M41.871 1015.37a4.873 4.873 0 1 1-9.745 0 4.873 4.873 0 0 1 9.745 0z" fill="none" transform="translate(-24 -964.362)"/><path style="fill:#000;fill-opacity:1;stroke:none;stroke-width:1.5666858" d="M55 0a9 9 0 0 0-9 9 9 9 0 0 0 9 9 9 9 0 0 0 9-9 9 9 0 0 0-9-9z"/><path style="opacity:1;fill:#000;fill-opacity:.36000001;stroke:none;stroke-width:0;stroke-linecap:butt;stroke-linejoin:miter;stroke-miterlimit:4;stroke-dasharray:none;stroke-opacity:1;paint-order:stroke markers fill" d="M23.5 0A15.5 15.5 0 0 0 8 15.5h-.002V39h10V15.5H18a5.5 5.5 0 0 1 5.5-5.5 5.5 5.5 0 0 1 5.5 5.5v33A15.5 15.5 0 0 0 44.5 64 15.5 15.5 0 0 0 60 48.5V16.012H50V48.5a5.5 5.5 0 0 1-5.5 5.5 5.5 5.5 0 0 1-5.5-5.5v-33A15.5 15.5 0 0 0 23.5 0z"/></svg>