<svg xmlns="http://www.w3.org/2000/svg" width="64" height="64"><path style="opacity:1;fill:#000;fill-opacity:.36000001;stroke:none;stroke-width:0;stroke-linecap:butt;stroke-linejoin:miter;stroke-miterlimit:4;stroke-dasharray:none;stroke-opacity:1;paint-order:stroke markers fill" d="M25.5 0C11.417 0 0 11.417 0 25.5S11.417 51 25.5 51 51 39.583 51 25.5 39.583 0 25.5 0Zm-.004 8.992C34.566 8.992 42 16.425 42 25.494c0 9.07-7.434 16.5-16.504 16.5s-16.502-7.43-16.502-16.5S16.426 8.992 25.496 8.992z"/><path style="fill:#000;fill-opacity:1;stroke:none;stroke-width:1.56872988" d="M47.566 1027.815a25.5 25.5 0 0 1-7.064 7.078l17.287 17.288a9.012 9.012 0 0 0 4.61-2.461 9.008 9.008 0 0 0 2.46-4.612z" transform="translate(-.857 -988.19)"/></svg>