<?xml version="1.0" encoding="UTF-8" standalone="no"?>
<!-- Created with Inkscape (http://www.inkscape.org/) -->

<svg
   xmlns:dc="http://purl.org/dc/elements/1.1/"
   xmlns:cc="http://creativecommons.org/ns#"
   xmlns:rdf="http://www.w3.org/1999/02/22-rdf-syntax-ns#"
   xmlns:svg="http://www.w3.org/2000/svg"
   xmlns="http://www.w3.org/2000/svg"
   xmlns:sodipodi="http://sodipodi.sourceforge.net/DTD/sodipodi-0.dtd"
   xmlns:inkscape="http://www.inkscape.org/namespaces/inkscape"
   id="svg2"
   version="1.1"
   inkscape:version="0.91 r13725"
   xml:space="preserve"
   width="400"
   height="400"
   viewBox="0 0 400 400"
   sodipodi:docname="uline.svg"><metadata
     id="metadata8"><rdf:RDF><cc:Work
         rdf:about=""><dc:format>image/svg+xml</dc:format><dc:type
           rdf:resource="http://purl.org/dc/dcmitype/StillImage" /><dc:title></dc:title></cc:Work></rdf:RDF></metadata><defs
     id="defs6"><clipPath
       clipPathUnits="userSpaceOnUse"
       id="clipPath16"><path
         d="m 0,283.46 283.46,0 L 283.46,0 0,0 0,283.46 Z"
         id="path18"
         inkscape:connector-curvature="0" /></clipPath></defs><sodipodi:namedview
     pagecolor="#ffffff"
     bordercolor="#666666"
     borderopacity="1"
     objecttolerance="10"
     gridtolerance="10"
     guidetolerance="10"
     inkscape:pageopacity="0"
     inkscape:pageshadow="2"
     inkscape:window-width="640"
     inkscape:window-height="480"
     id="namedview4"
     showgrid="false"
     inkscape:zoom="2.35"
     inkscape:cx="200"
     inkscape:cy="200"
     inkscape:current-layer="g10" /><g
     id="g10"
     inkscape:groupmode="layer"
     inkscape:label="uline"
     transform="matrix(1.25,0,0,-1.25,0,399.99999)"><path
       inkscape:connector-curvature="0"
       id="path22"
       style="fill:#0f85d1;fill-opacity:1;fill-rule:nonzero;stroke:none"
       d="M 0,40.001969 C 0,18.002293 18.000106,-7e-6 40.000988,-7e-6 l 239.998022,0 C 301.99989,-7e-6 320,18.002293 320,40.001969 l 0,239.998301 c 0,21.99855 -18.00011,39.99972 -40.00099,39.99972 l -239.998022,0 C 18.000106,319.99999 0,301.99882 0,280.00027 L 0,40.001969 Z" /><path
       inkscape:connector-curvature="0"
       id="path26"
       style="fill:#ffffff;fill-opacity:1;fill-rule:nonzero;stroke:none"
       d="m 69.1626,143.78759 0,105.25 c 0,10.313 8.189,18.502 18.805,18.502 10.313,0 18.503,-8.189 18.503,-18.502 l 0,-103.733 c 0,-39.431 20.321,-60.36 53.686,-60.36 33.062,0 53.384,19.716 53.384,58.843 l 0,105.25 c 0,10.313 8.189,18.502 18.805,18.502 10.313,0 18.503,-8.189 18.503,-18.502 l 0,-103.43 c 0,-63.392 -35.792,-95.241 -91.298,-95.241 -55.203,0 -90.388,31.849 -90.388,93.421" /></g></svg>