<svg xmlns="http://www.w3.org/2000/svg" width="64" height="64"><path style="opacity:1;fill:gray;fill-opacity:1;stroke:none;stroke-width:0;stroke-linecap:butt;stroke-linejoin:miter;stroke-miterlimit:4;stroke-dasharray:none;stroke-opacity:1;paint-order:stroke markers fill" d="M31.963.02c-1.558 0-3.115.343-4.309 1.03L1.801 15.946c-2.387 1.376-2.387 3.59 0 4.965l7.51 4.326-7.51 4.326c-2.387 1.376-2.387 3.59 0 4.965l7.472 4.305-7.472 4.305c-2.387 1.375-2.387 3.59 0 4.965l25.853 14.894c2.387 1.375 6.23 1.375 8.617 0l25.852-14.894c2.387-1.376 2.387-3.59 0-4.965l-7.47-4.305 7.47-4.305c2.387-1.375 2.387-3.59 0-4.965l-7.508-4.326 7.508-4.326c2.387-1.375 2.387-3.59 0-4.965L36.271 1.051C35.078.363 33.521.02 31.963.02zm0 7.98c.882 0 1.765.194 2.441.584l14.645 8.437c1.352.78 1.352 2.034 0 2.813l-14.645 8.437c-1.352.78-3.532.78-4.884 0l-14.645-8.437c-1.352-.78-1.352-2.033 0-2.813L29.52 8.584c.676-.39 1.56-.584 2.443-.584zM16.78 29.541l10.873 6.264c2.387 1.375 6.23 1.375 8.617 0l10.872-6.264 1.906 1.098c1.352.779 1.352 2.033 0 2.812L34.404 41.89c-1.352.779-3.532.779-4.884 0l-14.645-8.44c-1.352-.779-1.352-2.033 0-2.812l1.906-1.098zm-.037 13.596 10.91 6.285c2.387 1.375 6.23 1.375 8.617 0l10.909-6.285 1.869 1.076c1.352.779 1.352 2.033 0 2.812l-14.645 8.438c-1.352.779-3.532.779-4.884 0l-14.645-8.438c-1.352-.779-1.352-2.033 0-2.812l1.87-1.076z"/></svg>