<svg height="16" width="16" xmlns="http://www.w3.org/2000/svg"><path style="color:gray;display:inline;overflow:visible;fill:gray;stroke-width:2.0945;marker:none;enable-background:accumulate" d="M12.343 14.715c-.811.585-3.324-1.968-4.324-1.972-1-.004-3.534 2.53-4.34 1.938-.807-.59.843-3.769.537-4.721C3.912 9.007.72 7.38 1.033 6.43c.312-.95 3.844-.361 4.656-.947.812-.585 1.372-4.123 2.373-4.12 1 .004 1.533 3.546 2.34 4.137.806.59 4.344.031 4.65.984.306.952-2.898 2.553-3.21 3.503-.313.95 1.313 4.143.501 4.728z"/></svg>