<?xml version="1.0" encoding="UTF-8" standalone="no"?>
<svg
   xmlns:dc="http://purl.org/dc/elements/1.1/"
   xmlns:cc="http://creativecommons.org/ns#"
   xmlns:rdf="http://www.w3.org/1999/02/22-rdf-syntax-ns#"
   xmlns:svg="http://www.w3.org/2000/svg"
   xmlns="http://www.w3.org/2000/svg"
   version="1.1"
   id="svg2"
   xml:space="preserve"
   width="400"
   height="400"
   viewBox="0 0 400 400"><metadata
     id="metadata8"><rdf:RDF><cc:Work
         rdf:about=""><dc:format>image/svg+xml</dc:format><dc:type
           rdf:resource="http://purl.org/dc/dcmitype/StillImage" /><dc:title></dc:title></cc:Work></rdf:RDF></metadata><defs
     id="defs6"><clipPath
       clipPathUnits="userSpaceOnUse"
       id="clipPath18"><path
         d="M 0,283.46 H 283.46 V 0 H 0 Z"
         id="path16" /></clipPath></defs><g
     id="g10"
     transform="matrix(1.3333333,0,0,-1.3333333,0,400.00001)"><path
       style="fill:#f9b00b;fill-opacity:1;fill-rule:nonzero;stroke:none;stroke-width:1.05832803"
       d="M 6.5000007e-7,37.502786 C 6.5000007e-7,16.873929 16.877218,6.9000002e-6 37.511512,6.9000002e-6 H 262.5012 C 283.12809,6.9000002e-6 300.00001,16.873929 300.00001,37.502786 V 262.49724 c 0,20.62251 -16.87192,37.50278 -37.49881,37.50278 H 37.511512 C 16.877218,300.00002 6.5000007e-7,283.11975 6.5000007e-7,262.49724 Z"
       id="path55" /><g
       id="g62"
       style="fill:#ffffff;fill-opacity:1;stroke:none"
       transform="translate(8.2698038,8.2699113)"><path
         id="path53"
         d="m 186.4957,126.9516 c -4.271,-5.697 -6.88,-12.814 -6.88,-20.643 0,-18.983 15.186,-34.171 34.173,-34.171 18.745,0 34.171,15.188 34.171,34.171 0,18.749 -15.426,34.171 -34.171,34.171 -1.425,0 -2.855,0 -4.036,-0.238 l -3.797,9.969 c 2.371,0.473 4.978,0.708 7.833,0.708 24.674,0 44.615,-19.931 44.615,-44.61 0,-24.678 -19.941,-44.613 -44.615,-44.613 -24.682,0 -44.852,19.935 -44.852,44.613 0,12.339 5.221,23.729 13.288,31.795 z"
         style="fill:#ffffff;fill-opacity:1;fill-rule:nonzero;stroke:none" /><path
         id="path51"
         d="m 41.7437,123.8676 c -3.563,-5.692 -5.218,-11.629 -5.218,-17.559 0,-18.983 15.422,-34.171 34.409,-34.171 10.439,0 19.695,4.507 25.388,12.102 l 12.579,-1.423 c -7.833,-12.815 -22.069,-21.121 -37.967,-21.121 -24.682,0 -44.85,19.935 -44.85,44.613 0,7.593 2.135,15.661 6.167,22.304 3.082,-1.185 6.643,-2.847 9.492,-4.745"
         style="fill:#ffffff;fill-opacity:1;fill-rule:nonzero;stroke:none" /><path
         id="path22"
         transform="matrix(0.75000002,0,0,-0.75000002,0,283.46001)"
         d="m 229.06836,76.771484 c -10.56133,0.176 -18.70032,8.636042 -19.59766,9.609375 -2.57066,2.768 -2.41024,7.101735 0.3711,9.677735 2.79333,2.564 6.91816,2.282672 9.6875,-0.361328 1.57466,-1.525334 5.72938,-5.46875 9.74804,-5.46875 5.53867,0 8.64063,3.742635 8.64063,7.667968 0,5.195996 -1.92557,9.214356 -6.24024,14.179686 -3.788,4.35867 -5.18537,9.75188 -3.10937,15.17188 l 10.5293,27.47461 c -21.36,14.32266 -37.23481,35.12552 -43.24414,61.99218 -4.24134,-2.268 -8.96522,-2.94508 -14.5879,-2.34375 l -3.42187,0.32618 -37.18555,-96.97266 c 3.50267,-0.952 7.51783,-1.75903 12.45118,-2.06836 l 4.11718,-0.31641 c 4.108,-0.31733 7.27735,-2.84791 7.27735,-6.64257 0,-3.8 -2.85407,-6.96485 -7.91407,-6.96485 h -20.25586 c -14.86133,0 -17.3975,-0.22851 -25.9375,-0.22851 -5.06266,0 -8.22265,1.80608 -8.22265,5.60742 0,7.912 10.43614,15.18945 20.24414,15.18945 1.68,0 3.28433,-0.21025 4.875,-0.54492 l 13.08008,34.04102 -13.20703,19.65429 c -13.292,-9.804 -29.112052,-15.18359 -45.248051,-15.18359 -18.686666,0 -36.190771,6.82059 -48.773438,17.30859 -0.408,0.34534 -3.059359,2.85056 -3.443359,3.22656 -3.668,3.668 -2.488333,10.22792 2.625,11.14258 0.481333,0.0813 3.079307,0.8105 3.55664,0.92383 19.428001,4.68267 37.858875,16.60616 52.546876,32.41016 -4.028001,2.68266 -6.511719,6.97397 -6.511719,11.55664 0,8.23066 5.38126,13.92123 14.558593,14.86523 l 82.576168,8.86719 c 15.50667,1.57733 28.15974,-5.06483 29.42774,-24.04883 l 0.31445,-4.42773 c 1.508,-24.48 14.29778,-48.06639 35.56446,-63.65039 l 13.47851,35.16797 c 5.38133,14.24399 14.23829,27.84735 20.87695,35.44335 6.96667,8.22667 16.7723,-0.3201 10.76563,-7.91211 -6.648,-8.22933 -13.91976,-20.5651 -18.98242,-33.5371 l -24.44336,-64.54883 h 19.65429 l 10.75391,27.21289 c 1.57867,3.79466 3.79725,5.3789 7.28125,5.3789 h 26.25977 c 3.79866,0 6.32987,-1.89921 7.2832,-5.06054 l 13.28516,-38.60742 c 3.16133,-8.85067 -7.60151,-12.65255 -11.07618,-5.06055 -10.444,23.09866 -31.95537,19.93648 -39.85937,10.75781 -3.17333,-3.79467 -5.38071,-5.69726 -9.49805,-5.69726 l -28.01562,-0.19922 -0.79297,-1.67383 c 4.30133,-5.08267 8.62295,-12.6885 9.62695,-17.58985 1.37733,-6.697323 0.008,-12.936 -3.87695,-17.638667 -4.19734,-5.069333 -10.41039,-8.260135 -18.01172,-8.105469 z m -82.69727,94.640626 17.1543,44.66406 -50.44531,4.86133 z m 38.37696,54.03516 c 6.64266,0 12.01953,5.37686 12.01953,12.01953 0,6.64533 -5.37687,12.02734 -12.01953,12.02734 -6.32267,0 -12.01953,-5.38201 -12.01953,-12.02734 0,-6.64267 5.69686,-12.01953 12.01953,-12.01953 z"
         style="fill:#ffffff;fill-opacity:1;fill-rule:nonzero;stroke:none;stroke-width:1.33333325" /></g></g></svg>
