<?xml version="1.0" encoding="UTF-8" standalone="no"?>
<svg
   xmlns:dc="http://purl.org/dc/elements/1.1/"
   xmlns:cc="http://creativecommons.org/ns#"
   xmlns:rdf="http://www.w3.org/1999/02/22-rdf-syntax-ns#"
   xmlns:svg="http://www.w3.org/2000/svg"
   xmlns="http://www.w3.org/2000/svg"
   viewBox="0 0 400 400"
   height="400"
   width="400"
   xml:space="preserve"
   version="1.1"
   id="svg2"><metadata
     id="metadata8"><rdf:RDF><cc:Work
         rdf:about=""><dc:format>image/svg+xml</dc:format><dc:type
           rdf:resource="http://purl.org/dc/dcmitype/StillImage" /><dc:title></dc:title></cc:Work></rdf:RDF></metadata><defs
     id="defs6"><clipPath
       id="clipPath16"
       clipPathUnits="userSpaceOnUse"><path
         id="path18"
         d="m 0,283.46 283.46,0 L 283.46,0 0,0 0,283.46 Z" /></clipPath></defs><g
     transform="matrix(1.25,0,0,-1.25,0,399.99999)"
     id="g10"><g
       transform="matrix(1.1288832,0,0,1.1288911,-2.5856e-6,40.001126)"
       id="g20"><path
         id="path22"
         style="fill:#3dc0ea;fill-opacity:1;fill-rule:nonzero;stroke:none"
         d="m 0,0 c 0,-19.488 15.945,-35.434 35.434,-35.434 l 212.598,0 c 19.489,0 35.434,15.946 35.434,35.434 l 0,212.598 c 0,19.488 -15.945,35.432 -35.434,35.432 l -212.598,0 C 15.945,248.03 0,232.086 0,212.598 L 0,0 Z" /></g><g
       transform="translate(258.9712,62.270492)"
       id="g24"><path
         id="path26"
         style="fill:#ffffff;fill-opacity:1;fill-rule:nonzero;stroke:none"
         d="m 0,0 -197.937,0 c -3.768,0 -6.833,-3.055 -6.833,-6.831 0,-3.768 3.065,-6.827 6.833,-6.827 l 197.937,0 c 3.77,0 6.826,3.059 6.826,6.827 C 6.826,-3.055 3.77,0 0,0 m -99.764,11.06 c 38.293,-0.005 76.455,-0.007 78.598,-0.017 l 7.646,67.088 c 0,0 -28.308,7.598 -47.628,11.743 -16.76,3.586 -37.186,6.039 -38.579,6.204 l 0,0.007 c 0,0 -0.011,0 -0.037,-0.002 -0.025,0.002 -0.039,0.002 -0.039,0.002 l 0,-0.007 c -1.388,-0.165 -21.818,-2.618 -38.572,-6.204 -19.32,-4.145 -47.629,-11.743 -47.629,-11.743 l 7.647,-67.088 c 2.138,0.01 40.3,0.012 78.593,0.017 m -35.15,136.897 c 7.293,0 13.225,-5.921 13.225,-13.219 0,-7.303 -5.932,-13.222 -13.225,-13.222 -7.303,0 -13.213,5.919 -13.213,13.222 0,7.298 5.91,13.219 13.213,13.219 m 35.152,0 c 7.291,0 13.215,-5.921 13.215,-13.219 0,-7.303 -5.924,-13.222 -13.215,-13.222 -7.297,0 -13.226,5.919 -13.226,13.222 0,7.298 5.929,13.219 13.226,13.219 m 35.131,0 c 7.307,0 13.235,-5.921 13.235,-13.219 0,-7.303 -5.928,-13.222 -13.235,-13.222 -7.285,0 -13.221,5.919 -13.221,13.222 0,7.298 5.936,13.219 13.221,13.219 M -168.594,96.289 c 9.76,2.543 17.199,4.441 30.233,7.234 16.929,3.626 37.597,6.094 38.597,6.214 0.998,-0.12 21.67,-2.588 38.598,-6.214 13.035,-2.793 20.475,-4.691 30.236,-7.234 l 0,49.4 c 0,6.448 1.799,14.844 -14.988,14.844 l -30.82,0 0,46.595 c -0.18,2.499 -2.11,4.52 -4.569,4.832 l -36.916,0 c -2.457,-0.312 -4.386,-2.333 -4.57,-4.832 l 0,-46.595 -30.812,0 c -16.791,0 -14.989,-8.396 -14.989,-14.844 l 0,-49.4 z" /></g></g></svg>
