<?xml version="1.0" encoding="UTF-8" standalone="no"?>
<svg
   xmlns:dc="http://purl.org/dc/elements/1.1/"
   xmlns:cc="http://creativecommons.org/ns#"
   xmlns:rdf="http://www.w3.org/1999/02/22-rdf-syntax-ns#"
   xmlns:svg="http://www.w3.org/2000/svg"
   xmlns="http://www.w3.org/2000/svg"
   viewBox="0 0 400 400"
   height="400"
   width="400"
   xml:space="preserve"
   version="1.1"
   id="svg2"><metadata
     id="metadata8"><rdf:RDF><cc:Work
         rdf:about=""><dc:format>image/svg+xml</dc:format><dc:type
           rdf:resource="http://purl.org/dc/dcmitype/StillImage" /><dc:title></dc:title></cc:Work></rdf:RDF></metadata><defs
     id="defs6"><clipPath
       id="clipPath16"
       clipPathUnits="userSpaceOnUse"><path
         id="path18"
         d="m 0,283.46 283.46,0 L 283.46,0 0,0 0,283.46 Z" /></clipPath></defs><g
     transform="matrix(1.25,0,0,-1.25,0,399.99999)"
     id="g10"><g
       transform="matrix(1.1288832,0,0,1.1288911,-2.5856e-6,40.001126)"
       id="g20"><path
         id="path22"
         style="fill:#f14b1c;fill-opacity:1;fill-rule:nonzero;stroke:none"
         d="m 0,0 c 0,-19.488 15.945,-35.434 35.434,-35.434 l 212.598,0 c 19.489,0 35.434,15.946 35.434,35.434 l 0,212.598 c 0,19.488 -15.945,35.432 -35.434,35.432 l -212.598,0 C 15.945,248.03 0,232.086 0,212.598 L 0,0 Z" /></g><g
       transform="translate(238.3408,104.83489)"
       id="g24"><path
         id="path26"
         style="fill:#ffffff;fill-opacity:1;fill-rule:nonzero;stroke:none"
         d="m 0,0 c -5.224,0.371 -9.323,4.477 -9.323,9.326 0.371,4.853 4.476,8.952 9.323,8.952 4.847,0 8.953,-4.099 8.953,-8.952 C 8.953,4.106 4.847,0 0,0 m -156.312,33.576 c -4.478,0 -7.834,3.728 -7.834,8.205 l 0,89.911 c 0,4.848 2.615,8.205 7.091,8.205 l 157.055,0 c 4.477,0 7.835,-3.728 7.835,-8.205 l 0,-89.911 c 0,-4.848 -2.61,-8.205 -7.085,-8.205 l -157.062,0 z m 0,-33.576 c -5.219,0.371 -9.324,4.477 -9.324,9.326 0.37,4.853 4.476,8.952 9.324,8.952 4.854,0 8.954,-4.099 8.954,-8.952 0,-5.22 -4.1,-9.326 -8.954,-9.326 M 6.717,156.314 c -23.132,4.099 -51.113,7.457 -85.059,7.457 -33.945,0 -61.924,-2.98 -85.056,-7.457 -9.324,-1.119 -15.668,-8.212 -15.668,-18.285 l 0,-139.147 c 0,-10.073 5.966,-17.907 15.668,-19.026 23.132,-4.106 51.111,-7.463 85.056,-7.463 33.946,0 61.927,2.986 85.059,7.463 9.323,1.119 15.668,8.205 15.668,18.278 l 0,139.155 c 0,10.072 -5.968,17.906 -15.668,19.025 M -39.541,-41.78 c 3.728,0 7.086,-3.735 7.086,-7.463 0,-3.728 -3.358,-7.086 -7.086,-7.086 l -76.48,0 c -3.729,0 -7.087,3.358 -7.087,7.086 0,3.728 3.358,7.463 7.087,7.463 l 76.48,0 z" /></g></g></svg>
