<svg data-name="Layer 1" width="36" height="36" xmlns="http://www.w3.org/2000/svg"><path style="color:#000;fill:#fff;stroke-width:2.48;stroke-linecap:round;stroke-linejoin:round;-inkscape-stroke:none" d="M34 18a16 16 0 0 1-16 16A16 16 0 0 1 2 18 16 16 0 0 1 18 2a16 16 0 0 1 16 16Z"/><path style="color:#000;fill:#0540ff;stroke-linecap:round;stroke-linejoin:round;-inkscape-stroke:none" d="M18 .76C8.493.76.76 8.493.76 18c0 9.507 7.733 17.24 17.24 17.24 9.507 0 17.24-7.733 17.24-17.24C35.24 8.493 27.507.76 18 .76Zm0 2.48A14.74 14.74 0 0 1 32.76 18 14.74 14.74 0 0 1 18 32.76 14.74 14.74 0 0 1 3.24 18 14.74 14.74 0 0 1 18 3.24Z"/><path style="color:#000;fill:#0540ff;fill-rule:evenodd;stroke-width:2.48;stroke-linejoin:round;-inkscape-stroke:none" d="M14.28 6.84a1.24 1.24 0 0 0-1.24 1.24v18.6h-3.1a1.24 1.24 0 0 0-1.24 1.24 1.24 1.24 0 0 0 1.24 1.24h8.68a1.24 1.24 0 0 0 1.24-1.24 1.24 1.24 0 0 0-1.24-1.24h-3.1v-7.44h10.54A1.24 1.24 0 0 0 27.3 18V8.08a1.24 1.24 0 0 0-1.24-1.24H14.28z"/></svg>