<svg data-name="Layer 1" width="36" height="36" xmlns="http://www.w3.org/2000/svg"><path style="color:#000;fill:#000;stroke-width:4;stroke-linecap:round;stroke-linejoin:round;-inkscape-stroke:none" d="M2 2h32v32H2Z"/><path style="color:#000;fill:#fff;stroke-linecap:round;stroke-linejoin:round;-inkscape-stroke:none" d="M2 0a2 2 0 0 0-2 2v32a2 2 0 0 0 2 2h32a2 2 0 0 0 2-2V2a2 2 0 0 0-2-2Zm2 4h28v28H4Z"/><path style="color:#000;fill:#fff;fill-rule:evenodd;stroke-width:2.48;stroke-linejoin:round;-inkscape-stroke:none" d="M14.227 6.842a1.24 1.24 0 0 0-1.188 1.238v18.6h-3.1a1.24 1.24 0 0 0-1.24 1.24 1.24 1.24 0 0 0 1.24 1.24h8.68a1.24 1.24 0 0 0 1.24-1.24 1.24 1.24 0 0 0-1.24-1.24h-3.1v-5.907l12.897-4.605a1.24 1.24 0 0 0 .143-2.275l-13.721-6.92a1.24 1.24 0 0 0-.611-.131z"/></svg>