<svg data-name="Layer 1" width="36" height="36" xmlns="http://www.w3.org/2000/svg"><path style="color:#000;fill:#000;stroke-width:4;stroke-linecap:round;stroke-linejoin:round;-inkscape-stroke:none" d="M2 2h32v32H2Z"/><path style="color:#000;fill:#ff0;stroke-linecap:round;stroke-linejoin:round;-inkscape-stroke:none" d="M2 0a2 2 0 0 0-2 2v32a2 2 0 0 0 2 2h32a2 2 0 0 0 2-2V2a2 2 0 0 0-2-2Zm2 4h28v28H4Z"/><path style="color:#000;fill:#ff0;fill-rule:evenodd;stroke-width:2.48;stroke-linejoin:round;-inkscape-stroke:none" d="M14.28 6.84a1.24 1.24 0 0 0-1.24 1.24v18.6h-3.1a1.24 1.24 0 0 0-1.24 1.24 1.24 1.24 0 0 0 1.24 1.24h8.68a1.24 1.24 0 0 0 1.24-1.24 1.24 1.24 0 0 0-1.24-1.24h-3.1v-7.44h10.54A1.24 1.24 0 0 0 27.3 18V8.08a1.24 1.24 0 0 0-1.24-1.24H14.28z"/></svg>