<?xml version="1.0" encoding="UTF-8" standalone="no"?>
<svg
   xmlns:dc="http://purl.org/dc/elements/1.1/"
   xmlns:cc="http://creativecommons.org/ns#"
   xmlns:rdf="http://www.w3.org/1999/02/22-rdf-syntax-ns#"
   xmlns:svg="http://www.w3.org/2000/svg"
   xmlns="http://www.w3.org/2000/svg"
   xmlns:sodipodi="http://sodipodi.sourceforge.net/DTD/sodipodi-0.dtd"
   xmlns:inkscape="http://www.inkscape.org/namespaces/inkscape"
   id="Layer_1"
   data-name="Layer 1"
   width="36"
   height="36"
   viewBox="0 0 36 36"
   version="1.1"
   sodipodi:docname="marker-stroked.svg"
   inkscape:version="0.92.2 5c3e80d, 2017-08-06">
  <metadata
     id="metadata10">
    <rdf:RDF>
      <cc:Work
         rdf:about="">
        <dc:format>image/svg+xml</dc:format>
        <dc:type
           rdf:resource="http://purl.org/dc/dcmitype/StillImage" />
        <dc:title>marker-stroked-15</dc:title>
      </cc:Work>
    </rdf:RDF>
  </metadata>
  <defs
     id="defs8" />
  <sodipodi:namedview
     pagecolor="#ffffff"
     bordercolor="#666666"
     borderopacity="1"
     objecttolerance="10"
     gridtolerance="10"
     guidetolerance="10"
     inkscape:pageopacity="0"
     inkscape:pageshadow="2"
     inkscape:window-width="1920"
     inkscape:window-height="1016"
     id="namedview6"
     showgrid="false"
     inkscape:zoom="15.733333"
     inkscape:cx="-7.2121982"
     inkscape:cy="15.041537"
     inkscape:window-x="0"
     inkscape:window-y="27"
     inkscape:window-maximized="1"
     inkscape:current-layer="Layer_1" />
  <title
     id="title2">marker-stroked-15</title>
  <path
     id="Layer_7"
     data-name="Layer 7"
     d="m 18.039593,36 -0.9576,-1.185032 C 14.752631,31.968502 5.3513926,19.119904 5.3513926,12.885928 A 12.128004,12.128004 0 0 1 16.928777,0.231244 q 0.531468,-0.02394 1.06533,0 a 12.128004,12.128004 0 0 1 12.654684,11.577384 q 0.02394,0.53865 0,1.0773 c 0,5.297922 -6.389586,14.629734 -11.199132,21.189294 z M 17.994103,2.591728 a 9.760338,9.760338 0 0 0 -10.2942004,10.2942 c 0,4.385808 6.6050464,14.454972 10.2606844,19.233396 2.9925,-4.09374 10.33011,-14.337666 10.33011,-19.233396 a 9.760338,9.760338 0 0 0 -10.2942,-10.2942 z"
     style="opacity:1;fill:#ffff00;fill-opacity:0.75294119;stroke:none;stroke-width:1.04999995;stroke-miterlimit:4;stroke-dasharray:none;stroke-dashoffset:0;stroke-opacity:0.50196081"
     inkscape:connector-curvature="0" />
</svg>
