<svg xmlns="http://www.w3.org/2000/svg" data-name="Layer 1" width="36" height="36"><path data-name="Layer 7" d="m18.04 36-.958-1.185c-2.33-2.846-11.73-15.695-11.73-21.93A12.128 12.128 0 0 1 16.928.232q.531-.024 1.065 0A12.128 12.128 0 0 1 30.65 11.81q.024.538 0 1.077c0 5.298-6.39 14.63-11.2 21.19zm-.046-33.408A9.76 9.76 0 0 0 7.7 12.886c0 4.386 6.605 14.455 10.26 19.233 2.993-4.093 10.33-14.337 10.33-19.233A9.76 9.76 0 0 0 17.997 2.592z" style="opacity:1;fill:#fff;fill-opacity:.75294119;stroke:none;stroke-width:1.04999995;stroke-miterlimit:4;stroke-dasharray:none;stroke-dashoffset:0;stroke-opacity:.50196081"/></svg>