<?xml version="1.0" encoding="UTF-8" standalone="no"?>
<!-- Created with Inkscape (http://www.inkscape.org/) -->

<svg
   xmlns:dc="http://purl.org/dc/elements/1.1/"
   xmlns:cc="http://creativecommons.org/ns#"
   xmlns:rdf="http://www.w3.org/1999/02/22-rdf-syntax-ns#"
   xmlns:svg="http://www.w3.org/2000/svg"
   xmlns="http://www.w3.org/2000/svg"
   xmlns:sodipodi="http://sodipodi.sourceforge.net/DTD/sodipodi-0.dtd"
   xmlns:inkscape="http://www.inkscape.org/namespaces/inkscape"
   id="svg2"
   version="1.1"
   inkscape:version="0.91 r13725"
   xml:space="preserve"
   width="400"
   height="400"
   viewBox="0 0 400 400"
   sodipodi:docname="bus.svg"><metadata
     id="metadata8"><rdf:RDF><cc:Work
         rdf:about=""><dc:format>image/svg+xml</dc:format><dc:type
           rdf:resource="http://purl.org/dc/dcmitype/StillImage" /><dc:title /></cc:Work></rdf:RDF></metadata><defs
     id="defs6"><clipPath
       clipPathUnits="userSpaceOnUse"
       id="clipPath16"><path
         d="m 0,283.46 283.46,0 L 283.46,0 0,0 0,283.46 Z"
         id="path18"
         inkscape:connector-curvature="0" /></clipPath></defs><sodipodi:namedview
     pagecolor="#ffffff"
     bordercolor="#666666"
     borderopacity="1"
     objecttolerance="10"
     gridtolerance="10"
     guidetolerance="10"
     inkscape:pageopacity="0"
     inkscape:pageshadow="2"
     inkscape:window-width="640"
     inkscape:window-height="480"
     id="namedview4"
     showgrid="false"
     inkscape:zoom="2.35"
     inkscape:cx="200"
     inkscape:cy="199.14894"
     inkscape:current-layer="g10" /><g
     id="g10"
     inkscape:groupmode="layer"
     inkscape:label="bus"
     transform="matrix(1.25,0,0,-1.25,0,399.99999)"><rect
       style="fill:#0f85d1;fill-opacity:1;stroke:none;stroke-width:2;stroke-linecap:round;stroke-linejoin:miter;stroke-miterlimit:4;stroke-dasharray:none;stroke-opacity:1"
       id="rect11198"
       width="320"
       height="320"
       x="0"
       y="-320"
       transform="scale(1,-1)" /><path
       inkscape:connector-curvature="0"
       id="path26"
       style="fill:#ffffff;fill-opacity:1;fill-rule:nonzero;stroke:none"
       d="m 241.264,139.94999 0,-0.758 c 0,-4.536 -1.894,-7.179 -7.562,-7.936 -20.41,-3.403 -46.865,-6.804 -72.944,-6.804 -27.21,0 -52.914,3.026 -73.7,7.561 -5.669,1.133 -7.562,3.402 -7.562,7.937 l 0,103.557 c 0,4.535 1.893,7.937 7.562,7.937 l 146.644,-0.751 c 5.668,0 7.562,-3.402 7.562,-7.937 l 0,-102.806 z M 224.255,93.462992 c -5.294,0.375 -9.453,4.535 -9.453,9.445998 0.383,4.917 4.534,9.07 9.453,9.07 4.911,0 9.072,-4.153 9.072,-9.07 0,-5.286998 -4.161,-9.445998 -9.072,-9.445998 m -129.641,0 c -5.287,0.375 -9.448,4.535 -9.448,9.445998 0.376,4.917 4.536,9.07 9.448,9.07 4.917,0 9.069,-4.153 9.069,-9.07 0,-5.286998 -4.152,-9.445998 -9.069,-9.445998 M 242.773,267.69999 c -28.347,3.402 -54.05,5.287 -82.397,5.287 -29.48,0 -55.175,-1.51 -83.147,-5.287 -8.694,-1.133 -13.607,-6.051 -13.607,-13.606 l 0,-165.924998 c 0,-5.286 4.161,-9.071 7.562,-9.823 l 10.58,-1.892 0,-22.301 c 0,-2.643 2.269,-4.153 4.912,-4.153 l 17.007,0 c 2.269,0 4.537,1.51 4.537,4.153 l 0,19.658 c 13.606,-1.516 32.505,-2.268 51.405,-2.268 18.894,0 38.551,0.752 52.159,2.268 l 0,-19.658 c 0,-2.643 2.266,-4.153 4.535,-4.153 l 17.008,0 c 2.642,0 4.91,1.51 4.91,4.153 l 0,22.301 10.581,1.892 c 4.16,0.752 7.56,4.153 7.56,9.823 l 0,165.924998 c 0,7.555 -4.911,12.473 -13.605,13.606" /></g></svg>