<?xml version="1.0" encoding="UTF-8" standalone="no"?>
<svg
   xmlns:dc="http://purl.org/dc/elements/1.1/"
   xmlns:cc="http://creativecommons.org/ns#"
   xmlns:rdf="http://www.w3.org/1999/02/22-rdf-syntax-ns#"
   xmlns:svg="http://www.w3.org/2000/svg"
   xmlns="http://www.w3.org/2000/svg"
   viewBox="0 0 400 400"
   height="400"
   width="400"
   xml:space="preserve"
   version="1.1"
   id="svg2"><metadata
     id="metadata8"><rdf:RDF><cc:Work
         rdf:about=""><dc:format>image/svg+xml</dc:format><dc:type
           rdf:resource="http://purl.org/dc/dcmitype/StillImage" /><dc:title></dc:title></cc:Work></rdf:RDF></metadata><defs
     id="defs6"><clipPath
       id="clipPath16"
       clipPathUnits="userSpaceOnUse"><path
         id="path18"
         d="m 0,283.46 283.46,0 L 283.46,0 0,0 0,283.46 Z" /></clipPath></defs><g
     transform="matrix(1.25,0,0,-1.25,0,399.99999)"
     id="g10"><path
       d="M 0,40.103993 C 0,17.920075 17.919955,-7e-6 40.103717,-7e-6 l 240.214773,0 C 302.07892,-7e-6 320,17.920075 320,40.103993 l 0,240.216467 c 0,21.75946 -17.92108,39.67953 -39.68151,39.67953 l -240.214773,0 C 17.919955,319.99999 0,302.07992 0,280.32046 L 0,40.103993 Z"
       style="fill:#0f85d1;fill-opacity:1;fill-rule:nonzero;stroke:none"
       id="path22" /><path
       d="m 241.2632,138.45649 0,-0.758 c 0,-4.536 -1.894,-7.179 -7.562,-7.936 -20.41,-3.403 -46.865,-6.804 -72.944,-6.804 -27.21,0 -52.914,3.026 -73.7,7.561 -5.669,1.133 -7.562,3.402 -7.562,7.937 l 0,103.557 c 0,4.535 1.893,7.937 7.562,7.937 l 146.644,-0.751 c 5.668,0 7.562,-3.402 7.562,-7.937 l 0,-102.806 z m -17.009,-46.487 c -5.294,0.375 -9.453,4.535 -9.453,9.446 0.383,4.917 4.534,9.07 9.453,9.07 4.911,0 9.072,-4.153 9.072,-9.07 0,-5.287 -4.161,-9.446 -9.072,-9.446 m -129.641,0 c -5.287,0.375 -9.448,4.535 -9.448,9.446 0.376,4.917 4.536,9.07 9.448,9.07 4.917,0 9.069,-4.153 9.069,-9.07 0,-5.287 -4.152,-9.446 -9.069,-9.446 m 148.159,174.237 c -28.347,3.402 -54.05,5.287 -82.397,5.287 -29.48,0 -55.175,-1.51 -83.147,-5.287 -8.694,-1.133 -13.607,-6.051 -13.607,-13.606 l 0,-165.925 c 0,-5.286 4.161,-9.071 7.562,-9.823 l 10.58,-1.892 0,-22.301 c 0,-2.643 2.269,-4.153 4.912,-4.153 l 17.007,0 c 2.269,0 4.537,1.51 4.537,4.153 l 0,19.658 c 13.606,-1.516 32.505,-2.268 51.405,-2.268 18.894,0 38.551,0.752 52.159,2.268 l 0,-19.658 c 0,-2.643 2.266,-4.153 4.535,-4.153 l 17.008,0 c 2.642,0 4.91,1.51 4.91,4.153 l 0,22.301 10.581,1.892 c 4.16,0.752 7.56,4.153 7.56,9.823 l 0,165.925 c 0,7.555 -4.911,12.473 -13.605,13.606"
       style="fill:#ffffff;fill-opacity:1;fill-rule:nonzero;stroke:none"
       id="path26" /></g></svg>
