<?xml version="1.0" encoding="UTF-8" standalone="no"?>
<svg
   xmlns:dc="http://purl.org/dc/elements/1.1/"
   xmlns:cc="http://creativecommons.org/ns#"
   xmlns:rdf="http://www.w3.org/1999/02/22-rdf-syntax-ns#"
   xmlns:svg="http://www.w3.org/2000/svg"
   xmlns="http://www.w3.org/2000/svg"
   viewBox="0 0 400 400"
   height="400"
   width="400"
   xml:space="preserve"
   version="1.1"
   id="svg2"><metadata
     id="metadata8"><rdf:RDF><cc:Work
         rdf:about=""><dc:format>image/svg+xml</dc:format><dc:type
           rdf:resource="http://purl.org/dc/dcmitype/StillImage" /><dc:title></dc:title></cc:Work></rdf:RDF></metadata><defs
     id="defs6"><clipPath
       id="clipPath16"
       clipPathUnits="userSpaceOnUse"><path
         id="path18"
         d="m 0,283.46 283.46,0 L 283.46,0 0,0 0,283.46 Z" /></clipPath></defs><g
     transform="matrix(1.25,0,0,-1.25,0,399.99999)"
     id="g10"><g
       transform="matrix(1.1288832,0,0,1.1288911,-2.5856e-6,40.001126)"
       id="g20"><path
         id="path22"
         style="fill:#8c258a;fill-opacity:1;fill-rule:nonzero;stroke:none"
         d="m 0,0 c 0,-19.488 15.945,-35.434 35.434,-35.434 l 212.598,0 c 19.489,0 35.434,15.946 35.434,35.434 l 0,212.598 c 0,19.488 -15.945,35.432 -35.434,35.432 l -212.598,0 C 15.945,248.03 0,232.086 0,212.598 L 0,0 Z" /></g><g
       transform="translate(235.0224,211.02389)"
       id="g24"><path
         id="path26"
         style="fill:#ffffff;fill-opacity:1;fill-rule:nonzero;stroke:none"
         d="m 0,0 -16.25,-70.299 c -1.133,-6.046 -7.185,-10.964 -13.229,-10.964 l -90.709,0 c -6.045,0 -12.098,4.918 -13.232,10.964 L -150.045,0 c -1.134,6.044 3.02,10.962 9.071,10.962 l 132.279,0 C -2.643,10.962 1.51,6.044 0,0 m -29.479,-114.896 c -4.912,0 -8.696,3.777 -8.696,8.688 0,4.918 3.784,8.696 8.696,8.696 4.91,0 9.07,-3.778 9.07,-8.696 0,-4.911 -4.16,-8.688 -9.07,-8.688 m -90.709,-1.134 c -4.912,0 -8.696,3.777 -8.696,8.689 0,4.917 3.784,8.695 8.696,8.695 4.911,0 9.07,-3.778 9.07,-8.695 0,-4.912 -4.159,-8.689 -9.07,-8.689 m -8.696,158.358 107.717,0 0,-6.045 c 0,-4.535 -3.777,-8.312 -8.312,-8.312 l -90.709,0 c -4.536,0 -8.696,3.777 -8.696,8.312 l 0,6.045 z M 17.384,26.078 C 10.964,39.685 6.045,50.265 0.759,54.801 c -7.938,7.185 -41.577,15.122 -75.969,15.122 -33.264,0 -67.656,-7.937 -75.218,-15.122 -5.286,-4.536 -10.58,-15.116 -17.008,-28.723 -5.286,-11.714 -9.446,-22.677 -9.446,-29.104 l 0,-102.424 c 0,-8.312 2.643,-11.714 13.607,-20.408 8.312,-6.429 11.713,-9.072 24.186,-9.072 l 23.436,0 0,-15.498 82.013,0 0,15.498 23.06,0 c 12.474,0 15.874,2.643 23.811,9.072 10.956,9.07 13.606,12.096 13.606,20.408 l 0,102.424 c 0,6.427 -4.534,17.39 -9.453,29.104 M 7.937,-161.009 c 3.777,0 6.804,-3.025 6.804,-6.803 0,-3.777 -3.027,-6.803 -6.804,-6.803 l -165.542,0 c -3.779,0 -6.804,3.026 -6.804,6.803 0,3.778 3.025,6.803 6.804,6.803 l 16.631,0 0,15.116 13.223,0 0,-15.116 105.832,0 0,15.116 13.224,0 0,-15.116 16.632,0 z" /></g></g></svg>
