<?xml version="1.0" encoding="UTF-8" standalone="no"?>
<!-- Created with Inkscape (http://www.inkscape.org/) -->

<svg
   xmlns:dc="http://purl.org/dc/elements/1.1/"
   xmlns:cc="http://creativecommons.org/ns#"
   xmlns:rdf="http://www.w3.org/1999/02/22-rdf-syntax-ns#"
   xmlns:svg="http://www.w3.org/2000/svg"
   xmlns="http://www.w3.org/2000/svg"
   xmlns:sodipodi="http://sodipodi.sourceforge.net/DTD/sodipodi-0.dtd"
   xmlns:inkscape="http://www.inkscape.org/namespaces/inkscape"
   id="svg2"
   version="1.1"
   inkscape:version="0.91 r13725"
   xml:space="preserve"
   width="400"
   height="400"
   viewBox="0 0 400 400"
   sodipodi:docname="train.svg"><metadata
     id="metadata8"><rdf:RDF><cc:Work
         rdf:about=""><dc:format>image/svg+xml</dc:format><dc:type
           rdf:resource="http://purl.org/dc/dcmitype/StillImage" /><dc:title /></cc:Work></rdf:RDF></metadata><defs
     id="defs6"><clipPath
       clipPathUnits="userSpaceOnUse"
       id="clipPath16"><path
         d="m 0,283.46 283.46,0 L 283.46,0 0,0 0,283.46 Z"
         id="path18"
         inkscape:connector-curvature="0" /></clipPath></defs><sodipodi:namedview
     pagecolor="#ffffff"
     bordercolor="#666666"
     borderopacity="1"
     objecttolerance="10"
     gridtolerance="10"
     guidetolerance="10"
     inkscape:pageopacity="0"
     inkscape:pageshadow="2"
     inkscape:window-width="640"
     inkscape:window-height="480"
     id="namedview4"
     showgrid="false"
     inkscape:zoom="2.35"
     inkscape:cx="200"
     inkscape:cy="200"
     inkscape:current-layer="g10" /><g
     id="g10"
     inkscape:groupmode="layer"
     inkscape:label="train"
     transform="matrix(1.25,0,0,-1.25,0,399.99999)"><rect
       style="fill:#8c258a;fill-opacity:1;stroke:none;stroke-width:2;stroke-linecap:round;stroke-linejoin:miter;stroke-miterlimit:4;stroke-dasharray:none;stroke-opacity:1"
       id="rect10398"
       width="320"
       height="320"
       x="0"
       y="-320"
       transform="scale(1,-1)" /><g
       id="g24"
       transform="translate(235.0225,211.01499)"><path
         d="m 0,0 -16.25,-70.299 c -1.133,-6.046 -7.185,-10.964 -13.229,-10.964 l -90.709,0 c -6.045,0 -12.098,4.918 -13.232,10.964 L -150.045,0 c -1.134,6.044 3.02,10.962 9.071,10.962 l 132.279,0 C -2.643,10.962 1.51,6.044 0,0 m -29.479,-114.896 c -4.912,0 -8.696,3.777 -8.696,8.688 0,4.918 3.784,8.696 8.696,8.696 4.91,0 9.07,-3.778 9.07,-8.696 0,-4.911 -4.16,-8.688 -9.07,-8.688 m -90.709,-1.134 c -4.912,0 -8.696,3.777 -8.696,8.689 0,4.917 3.784,8.695 8.696,8.695 4.911,0 9.07,-3.778 9.07,-8.695 0,-4.912 -4.159,-8.689 -9.07,-8.689 m -8.696,158.358 107.717,0 0,-6.045 c 0,-4.535 -3.777,-8.312 -8.312,-8.312 l -90.709,0 c -4.536,0 -8.696,3.777 -8.696,8.312 l 0,6.045 z M 17.384,26.078 C 10.964,39.685 6.045,50.265 0.759,54.801 c -7.938,7.185 -41.577,15.122 -75.969,15.122 -33.264,0 -67.656,-7.937 -75.218,-15.122 -5.286,-4.536 -10.58,-15.116 -17.008,-28.723 -5.286,-11.714 -9.446,-22.677 -9.446,-29.104 l 0,-102.424 c 0,-8.312 2.643,-11.714 13.607,-20.408 8.312,-6.429 11.713,-9.072 24.186,-9.072 l 23.436,0 0,-15.498 82.013,0 0,15.498 23.06,0 c 12.474,0 15.874,2.643 23.811,9.072 10.956,9.07 13.606,12.096 13.606,20.408 l 0,102.424 c 0,6.427 -4.534,17.39 -9.453,29.104 M 7.937,-161.009 c 3.777,0 6.804,-3.025 6.804,-6.803 0,-3.777 -3.027,-6.803 -6.804,-6.803 l -165.542,0 c -3.779,0 -6.804,3.026 -6.804,6.803 0,3.778 3.025,6.803 6.804,6.803 l 16.631,0 0,15.116 13.223,0 0,-15.116 105.832,0 0,15.116 13.224,0 0,-15.116 16.632,0 z"
         style="fill:#ffffff;fill-opacity:1;fill-rule:nonzero;stroke:none"
         id="path26"
         inkscape:connector-curvature="0" /></g></g></svg>