<?xml version="1.0" encoding="UTF-8" standalone="no"?>
<svg
   xmlns:dc="http://purl.org/dc/elements/1.1/"
   xmlns:cc="http://creativecommons.org/ns#"
   xmlns:rdf="http://www.w3.org/1999/02/22-rdf-syntax-ns#"
   xmlns:svg="http://www.w3.org/2000/svg"
   xmlns="http://www.w3.org/2000/svg"
   viewBox="0 0 400 400"
   height="400"
   width="400"
   xml:space="preserve"
   version="1.1"
   id="svg2"><metadata
     id="metadata8"><rdf:RDF><cc:Work
         rdf:about=""><dc:format>image/svg+xml</dc:format><dc:type
           rdf:resource="http://purl.org/dc/dcmitype/StillImage" /><dc:title></dc:title></cc:Work></rdf:RDF></metadata><defs
     id="defs6"><clipPath
       id="clipPath16"
       clipPathUnits="userSpaceOnUse"><path
         id="path18"
         d="m 0,283.46 283.46,0 L 283.46,0 0,0 0,283.46 Z" /></clipPath><clipPath
       id="clipPath28"
       clipPathUnits="userSpaceOnUse"><path
         id="path30"
         d="m 0,283.46 283.46,0 L 283.46,0 0,0 0,283.46 Z" /></clipPath></defs><g
     transform="matrix(1.25,0,0,-1.25,0,399.99999)"
     id="g10"><g
       transform="matrix(1.1289071,0,0,1.1289071,-3.283e-6,-1.1283e-5)"
       id="g14"
       clip-path="url(#clipPath16)"><g
         id="g20"
         transform="translate(-0.0029,35.4316)"><path
           d="m 0,0 c 0,-19.488 15.945,-35.434 35.434,-35.434 l 212.598,0 c 19.489,0 35.434,15.946 35.434,35.434 l 0,212.598 c 0,19.488 -15.945,35.432 -35.434,35.432 l -212.598,0 C 15.945,248.03 0,232.086 0,212.598 L 0,0 Z"
           style="fill:#00a768;fill-opacity:1;fill-rule:nonzero;stroke:none"
           id="path22" /></g></g><g
       transform="translate(18.27,18.269992)"
       id="g26"
       clip-path="url(#clipPath28)"><g
         id="g32"
         transform="translate(186.7065,78.6084)"><path
           d="m 0,0 c -4.537,0 -7.937,3.402 -7.937,7.937 0,4.918 3.4,8.697 7.937,8.697 4.917,0 8.695,-3.779 8.695,-8.697 C 8.695,3.402 4.917,0 0,0 m -96.755,31.749 0,86.181 103.182,0 0,-86.181 c -13.606,-4.153 -32.883,-6.421 -51.399,-6.421 -18.525,0 -37.8,2.645 -51.783,6.421 M -89.193,0 c -4.536,0 -7.937,3.402 -7.937,7.937 0,4.918 3.401,8.697 7.937,8.697 4.91,0 8.689,-3.779 8.689,-8.697 C -80.504,3.402 -84.283,0 -89.193,0 M 17.39,130.026 11.338,144.385 c -1.885,4.16 -4.151,6.426 -8.688,7.56 -15.123,3.778 -26.079,5.295 -40.444,5.67 l 0,12.473 26.455,0 c 3.402,0 6.427,3.026 6.427,6.802 0,4.16 -3.025,7.178 -6.427,7.178 l -66.898,0 c -4.153,0 -7.179,-3.018 -7.179,-7.178 0,-3.776 3.026,-6.802 7.179,-6.802 l 26.078,0 0,-12.473 c -14.739,-0.375 -26.454,-1.892 -40.435,-5.67 -4.918,-1.509 -7.562,-3.4 -9.454,-7.56 l -6.045,-14.359 c -1.893,-4.534 -1.893,-10.588 -1.893,-15.123 l 0,-127.656 c 0,-6.42 4.16,-10.205 10.589,-11.339 19.275,-3.778 35.9,-5.286 54.425,-5.286 17.759,0 34.767,1.508 54.425,5.286 6.045,1.134 10.58,4.919 10.58,11.339 l 0,127.656 c 0,4.535 -0.758,10.589 -2.643,15.123 M 4.16,-46.862 c 3.401,0 6.802,-3.028 6.802,-6.429 0,-4.534 -3.401,-7.179 -6.802,-7.179 l -98.272,0 c -3.776,0 -6.42,2.645 -6.42,7.179 0,3.401 2.644,6.429 6.42,6.429 l 10.589,0 0,10.58 13.223,-1.511 0,-9.069 50.648,0 0,9.069 13.23,1.511 0,-10.58 10.582,0 z"
           style="fill:#ffffff;fill-opacity:1;fill-rule:nonzero;stroke:none"
           id="path34" /></g></g></g></svg>
