<svg data-name="WORKING ICONS" width="20" height="20" xmlns="http://www.w3.org/2000/svg"><path style="color:#000;fill:#000;fill-rule:evenodd;-inkscape-stroke:none" d="m10.412 3.666-.994.11 1.393 12.622.994-.109ZM6.809 14.08v2.264h1V14.08zm0-5.127v3.483h1V8.953Zm0-4.869v3.482h1V4.084ZM4.03 3.666 2.636 16.289l.994.11L5.023 3.774Z"/><path d="M18.585 8.02c0 1.558-1.251 3.035-2.568 5.538-1.272-2.42-2.567-3.98-2.567-5.537S14.6 5.2 16.017 5.2c1.418 0 2.568 1.263 2.568 2.82z" style="fill:#000;fill-opacity:1;fill-rule:evenodd;stroke:none;stroke-width:1.10378;stroke-linecap:square;stroke-linejoin:miter;stroke-miterlimit:4;stroke-dasharray:none;stroke-dashoffset:0;stroke-opacity:1"/><path style="fill:#fff;fill-rule:evenodd;stroke-width:1.10378;stroke-linecap:square" d="M17.347 8.02a1.33 1.46 0 0 1-1.33 1.46 1.33 1.46 0 0 1-1.33-1.46 1.33 1.46 0 0 1 1.33-1.46 1.33 1.46 0 0 1 1.33 1.46Z"/></svg>