<svg data-name="WORKING ICONS" xmlns="http://www.w3.org/2000/svg" width="20" height="20"><path fill="#fff" d="m17.356 4.059-5.59 5.59a.497.497 0 0 0 0 .702l5.59 5.59a.497.497 0 0 1 0 .703l-.711.711a.497.497 0 0 1-.703 0l-5.59-5.59a.497.497 0 0 0-.703 0l-5.59 5.59a.497.497 0 0 1-.703 0l-.711-.71a.497.497 0 0 1 0-.703l5.59-5.59a.497.497 0 0 0 0-.703l-5.59-5.59a.497.497 0 0 1 0-.703l.71-.711a.497.497 0 0 1 .703 0l5.59 5.59a.497.497 0 0 0 .703 0l5.59-5.59a.497.497 0 0 1 .703 0l.711.71a.497.497 0 0 1 0 .704Z"/></svg>