<svg data-name="WORKING ICONS" width="20" height="20" xmlns="http://www.w3.org/2000/svg"><path fill="#fff" d="M7.4 14.185c.808.01 1.589.293 2.217.803l.311.275h.06l.372-.335a3.463 3.463 0 0 1 4.122-.216l2.708-5.32-1.797-1.2V3.94a1.846 1.846 0 0 0-1.798-1.74h-.6a1.127 1.127 0 0 0-1.049-1.198H8.202c-.847 0-1.202.526-1.198 1.198h-.6a1.846 1.846 0 0 0-1.797 1.738v4.254L2.81 9.39l2.696 5.429a3.511 3.511 0 0 1 1.894-.635ZM5.806 3.939a.563.563 0 0 1 .585-.54h7.204c.31-.02.579.215.6.525v3.67L10 5.197 5.806 7.534ZM17.789 16.58v1.199c-.314.023-.607.17-.814.407-.326.346-.74.595-1.199.72a2.289 2.289 0 0 1-2.12-.444l-.468-.42a.935.935 0 0 0-1.319 0c-.167.144-.323.3-.503.444a2.3 2.3 0 0 1-2.972-.084l-.467-.42a.91.91 0 0 0-1.199 0c-.227.18-.431.384-.659.564a2.289 2.289 0 0 1-2.816-.072l-.371-.324a1.126 1.126 0 0 0-.671-.371V16.58c.31-.038.623.02.898.168.334.207.65.439.947.695.246.268.617.383.97.3.136-.04.262-.105.372-.192.192-.144.348-.311.54-.467a2.3 2.3 0 0 1 2.936 0c.191.156.371.335.563.491.343.3.855.3 1.198 0 .192-.156.372-.335.563-.491a2.3 2.3 0 0 1 2.948 0c.18.156.348.323.528.467.343.3.855.3 1.198 0l.563-.491c.383-.31.861-.48 1.354-.48z" style="fill:#000"/></svg>