<svg data-name="WORKING ICONS" xmlns="http://www.w3.org/2000/svg" width="20" height="20"><path d="m19 3-1.58 7.86a.387.387 0 0 1-.74.1l-.918-3.111a.358.358 0 0 0-.64-.163L12.673 9.75a5.218 5.218 0 0 0-1.665 4.144l.005 3.608a.496.496 0 0 1-.496.497H9.483a.496.496 0 0 1-.496-.497l.005-3.607A5.218 5.218 0 0 0 7.327 9.75L4.879 7.687a.358.358 0 0 0-.641.163l-.918 3.11a.387.387 0 0 1-.74-.099L1 3l8.005.45a.387.387 0 0 1 .203.717l-2.95 1.35a.358.358 0 0 0-.07.658l2.458 2.074A6.64 6.64 0 0 1 10 9.89a6.64 6.64 0 0 1 1.354-1.642l2.457-2.074a.358.358 0 0 0-.07-.657l-2.949-1.35a.387.387 0 0 1 .203-.718Z"/></svg>