<svg data-name="WORKING ICONS" xmlns="http://www.w3.org/2000/svg" width="20" height="20"><path d="M2.274 6.577a.305.305 0 0 1 .196.072l2.074 1.75a7.002 7.002 0 0 1 2.272 5.644v3.46a.297.297 0 0 1-.296.297H5.513a.296.296 0 0 1-.296-.297l.004-3.588a5.42 5.42 0 0 0-1.735-4.316L1.428 7.863a.305.305 0 0 1-.033-.433l.649-.748a.305.305 0 0 1 .23-.105m0-.2a.503.503 0 0 0-.382.174l-.649.748a.505.505 0 0 0 .056.717L3.357 9.75a5.218 5.218 0 0 1 1.665 4.145l-.005 3.607a.496.496 0 0 0 .496.497H6.52a.496.496 0 0 0 .496-.496v-3.461a7.252 7.252 0 0 0-2.34-5.794L2.599 6.496a.503.503 0 0 0-.325-.12Zm8.734 1.605h1.988a.358.358 0 0 1 .377.542l-1.344 2.952a.387.387 0 0 0 .624.41L19 7l-6.347-4.922a.387.387 0 0 0-.624.41l1.344 2.951a.358.358 0 0 1-.377.543h-1.988V5.98l-.01.002a6.06 6.06 0 0 0-5.99 6.073V16h.003l-.002 1.503a.496.496 0 0 0 .497.497h1.006a.496.496 0 0 0 .496-.496v-5.45a4.058 4.058 0 0 1 3.99-4.072h.01Z"/></svg>