<svg data-name="WORKING ICONS" xmlns="http://www.w3.org/2000/svg" width="20" height="20"><path fill="#fff" d="M4.269 6.577a.305.305 0 0 1 .196.072l2.074 1.75a7.002 7.002 0 0 1 2.272 5.644v3.46a.297.297 0 0 1-.297.297H7.508a.296.296 0 0 1-.296-.297l.004-3.588A5.42 5.42 0 0 0 5.48 9.599L3.423 7.863a.305.305 0 0 1-.034-.433l.65-.748a.305.305 0 0 1 .23-.105m0-.2a.503.503 0 0 0-.382.174l-.649.748a.505.505 0 0 0 .056.717L5.351 9.75a5.218 5.218 0 0 1 1.665 4.145l-.004 3.607a.496.496 0 0 0 .496.497h1.006a.496.496 0 0 0 .497-.496v-3.461a7.252 7.252 0 0 0-2.34-5.794L4.594 6.496a.503.503 0 0 0-.325-.12Zm2.745 7.666v3.46A.496.496 0 0 0 7.51 18h1.007a.496.496 0 0 0 .496-.497l-.005-3.607a5.218 5.218 0 0 1 1.665-4.145l2.448-2.065a.358.358 0 0 1 .64.163l.92 3.11a.387.387 0 0 0 .739-.099L17 3l-8.005.45a.387.387 0 0 0-.203.717l2.95 1.35a.358.358 0 0 1 .07.658L9.353 8.249a7.252 7.252 0 0 0-2.34 5.794Z"/></svg>