<svg data-name="WORKING ICONS" xmlns="http://www.w3.org/2000/svg" width="20" height="20"><path d="M17.756 6.598a.305.305 0 0 1 .23.105l.65.748a.305.305 0 0 1-.034.433l-2.06 1.738a5.409 5.409 0 0 0-1.734 4.295l.005 3.607a.296.296 0 0 1-.296.297H13.51a.297.297 0 0 1-.296-.296v-3.477a6.991 6.991 0 0 1 2.269-5.626L17.56 6.67a.305.305 0 0 1 .196-.071m0-.2a.503.503 0 0 0-.325.119L15.354 8.27a7.252 7.252 0 0 0-2.34 5.795v3.46a.496.496 0 0 0 .496.497h1.007a.496.496 0 0 0 .496-.497l-.005-3.608a5.218 5.218 0 0 1 1.665-4.144l2.058-1.736a.505.505 0 0 0 .055-.716l-.649-.748a.503.503 0 0 0-.381-.174Zm-15.512.179a.305.305 0 0 1 .196.072L4.514 8.4a7.002 7.002 0 0 1 2.272 5.644v3.46a.297.297 0 0 1-.296.297H5.483a.296.296 0 0 1-.296-.297l.004-3.588A5.42 5.42 0 0 0 3.456 9.6L1.398 7.863a.305.305 0 0 1-.033-.433l.649-.748a.305.305 0 0 1 .23-.105m0-.2a.503.503 0 0 0-.381.174l-.65.748a.505.505 0 0 0 .056.717L3.327 9.75a5.218 5.218 0 0 1 1.665 4.145l-.005 3.607a.496.496 0 0 0 .496.497H6.49a.496.496 0 0 0 .496-.496v-3.461a7.252 7.252 0 0 0-2.34-5.794L2.57 6.496a.503.503 0 0 0-.325-.12Zm12.669 1.966L10.009 2 5.105 8.343a.387.387 0 0 0 .41.623l2.952-1.343A.358.358 0 0 1 9.009 8v9.497a.503.503 0 0 0 .504.503h.993a.503.503 0 0 0 .503-.503V8a.358.358 0 0 1 .543-.377l2.951 1.343a.387.387 0 0 0 .41-.623Z"/></svg>