<svg data-name="WORKING ICONS" xmlns="http://www.w3.org/2000/svg" width="20" height="20"><path fill="#fff" d="M15.756 6.577a.305.305 0 0 1 .23.105l.65.748a.305.305 0 0 1-.034.433L14.542 9.6a5.409 5.409 0 0 0-1.734 4.295l.005 3.607a.296.296 0 0 1-.296.297H11.51a.297.297 0 0 1-.296-.296v-3.476A6.991 6.991 0 0 1 13.482 8.4l2.078-1.75a.305.305 0 0 1 .196-.072m0-.2a.503.503 0 0 0-.325.119L13.354 8.25a7.252 7.252 0 0 0-2.34 5.794v3.46a.496.496 0 0 0 .496.497h1.007a.496.496 0 0 0 .496-.497l-.005-3.607a5.218 5.218 0 0 1 1.665-4.145l2.058-1.735a.505.505 0 0 0 .055-.717l-.649-.748a.503.503 0 0 0-.381-.174Zm-5.11 1.872L8.19 6.175a.358.358 0 0 1 .07-.657l2.949-1.35a.387.387 0 0 0-.203-.718L3 3l1.58 7.86a.387.387 0 0 0 .74.1l.918-3.111a.358.358 0 0 1 .64-.163l2.45 2.064a5.218 5.218 0 0 1 1.665 4.144l-.005 3.608a.496.496 0 0 0 .496.497h1.007a.496.496 0 0 0 .496-.496v-3.461a7.252 7.252 0 0 0-2.34-5.794Z"/></svg>