<svg data-name="WORKING ICONS" xmlns="http://www.w3.org/2000/svg" width="20" height="20"><path fill="#fff" d="M17.736 6.577a.305.305 0 0 1 .23.105l.65.748a.305.305 0 0 1-.034.433L16.522 9.6a5.409 5.409 0 0 0-1.734 4.295l.005 3.607a.296.296 0 0 1-.296.297H13.49a.297.297 0 0 1-.296-.296v-3.476A6.991 6.991 0 0 1 15.463 8.4l2.077-1.75a.305.305 0 0 1 .196-.072m0-.2a.503.503 0 0 0-.325.119L15.334 8.25a7.252 7.252 0 0 0-2.34 5.794v3.46a.496.496 0 0 0 .496.497h1.007a.496.496 0 0 0 .496-.497l-.005-3.607a5.218 5.218 0 0 1 1.665-4.145l2.058-1.735a.505.505 0 0 0 .056-.717l-.65-.748a.503.503 0 0 0-.381-.174Zm-8.735-.395H7.013a.358.358 0 0 1-.377-.543L7.98 2.487a.387.387 0 0 0-.624-.409L1.01 7l6.347 4.885a.387.387 0 0 0 .624-.409L6.636 8.524a.358.358 0 0 1 .377-.542h1.999a4.058 4.058 0 0 1 3.989 4.073v5.449a.496.496 0 0 0 .496.496h1.006a.496.496 0 0 0 .497-.497L14.998 16H15v-3.945a6.06 6.06 0 0 0-5.99-6.073L9 5.98"/></svg>