<svg data-name="WORKING ICONS" width="20" height="20" xmlns="http://www.w3.org/2000/svg"><path style="color:#000;fill:#000;fill-rule:evenodd;-inkscape-stroke:none" d="M9.516 15.643v1.212h1v-1.212zm0-2.75v1.867h1v-1.867zm0-2.612v1.867h1v-1.867ZM6.594 8.992l-3.278 7.832.922.387 3.278-7.832Z"/><path style="opacity:1;fill:#000;fill-opacity:1;fill-rule:evenodd;stroke:none;stroke-width:2;stroke-linecap:square;stroke-linejoin:miter;stroke-miterlimit:4;stroke-dasharray:none;stroke-dashoffset:0;stroke-opacity:1" d="M4.559 1.006v6.572c1.265-.778 1.572-.986 3.324-2.01v2.01c1.276-.785 1.592-.998 3.385-2.045v2.045c1.684-1.036 1.667-1.06 5.625-3.346-4.543-2.622-2.727-1.553-5.625-3.226v1.937c-1.662-.953-1.166-.656-3.385-1.937v1.902c-1.612-.924-1.124-.632-3.324-1.902z"/><path style="color:#000;fill:#000;fill-rule:evenodd;-inkscape-stroke:none" d="m13.842 8.992-.922.387 3.275 7.832.922-.387z"/></svg>