<svg data-name="WORKING ICONS" xmlns="http://www.w3.org/2000/svg" width="20" height="20"><path fill="#fff" d="M8.503 2.2a.297.297 0 0 1 .297.297v15.006a.297.297 0 0 1-.297.297H7.497a.297.297 0 0 1-.297-.297V2.497a.297.297 0 0 1 .297-.297h1.006m0-.2H7.497A.497.497 0 0 0 7 2.497v15.006a.497.497 0 0 0 .497.497h1.006A.497.497 0 0 0 9 17.503V2.497A.497.497 0 0 0 8.503 2ZM7.014 14.043v3.46A.496.496 0 0 0 7.51 18h1.007a.496.496 0 0 0 .496-.497l-.005-3.607a5.218 5.218 0 0 1 1.665-4.145l2.448-2.065a.358.358 0 0 1 .64.163l.92 3.11a.387.387 0 0 0 .739-.099L17 3l-8.005.45a.387.387 0 0 0-.203.717l2.95 1.35a.358.358 0 0 1 .07.658L9.353 8.249a7.252 7.252 0 0 0-2.34 5.794Z"/></svg>