<svg data-name="WORKING ICONS" xmlns="http://www.w3.org/2000/svg" width="20" height="20"><path d="M14.503 2.2a.297.297 0 0 1 .297.297v15.006a.297.297 0 0 1-.297.297h-1.006a.297.297 0 0 1-.297-.297V2.497a.297.297 0 0 1 .297-.297h1.006m0-.2h-1.006a.497.497 0 0 0-.497.497v15.006a.497.497 0 0 0 .497.497h1.006a.497.497 0 0 0 .497-.497V2.497A.497.497 0 0 0 14.503 2ZM9 5.982H7.013a.358.358 0 0 1-.377-.543L7.98 2.487a.387.387 0 0 0-.624-.409L1.01 7l6.347 4.885a.387.387 0 0 0 .624-.409L6.636 8.524a.358.358 0 0 1 .377-.542h1.999a4.058 4.058 0 0 1 3.989 4.073v5.449a.496.496 0 0 0 .496.496h1.006a.496.496 0 0 0 .497-.497L14.998 16H15v-3.945a6.06 6.06 0 0 0-5.99-6.073L9 5.98"/></svg>