<svg data-name="WORKING ICONS" xmlns="http://www.w3.org/2000/svg" width="20" height="20"><path fill="#fff" d="M14.503 2.2a.297.297 0 0 1 .297.297v15.006a.297.297 0 0 1-.297.297h-1.006a.297.297 0 0 1-.297-.297V2.497a.297.297 0 0 1 .297-.297h1.006m0-.2h-1.006a.497.497 0 0 0-.497.497v15.006a.497.497 0 0 0 .497.497h1.006a.497.497 0 0 0 .497-.497V2.497A.497.497 0 0 0 14.503 2Zm-1.857 6.249L10.19 6.175a.358.358 0 0 1 .07-.657l2.949-1.35a.387.387 0 0 0-.203-.718L5 3l1.58 7.86a.387.387 0 0 0 .74.1l.918-3.111a.358.358 0 0 1 .64-.163l2.449 2.065a5.218 5.218 0 0 1 1.665 4.144l-.005 3.608a.496.496 0 0 0 .496.497h1.007a.496.496 0 0 0 .496-.496v-3.461a7.252 7.252 0 0 0-2.34-5.794Z"/></svg>