<svg data-name="WORKING ICONS" xmlns="http://www.w3.org/2000/svg" width="20" height="20"><path fill="#fff" d="M6.503 2.2a.297.297 0 0 1 .297.297v15.006a.297.297 0 0 1-.297.297H5.497a.297.297 0 0 1-.297-.297V2.497a.297.297 0 0 1 .297-.297h1.006m0-.2H5.497A.497.497 0 0 0 5 2.497v15.006a.497.497 0 0 0 .497.497h1.006A.497.497 0 0 0 7 17.503V2.497A.497.497 0 0 0 6.503 2Zm4.505 5.982h1.988a.358.358 0 0 1 .377.542l-1.344 2.952a.387.387 0 0 0 .624.41L19 7l-6.347-4.922a.387.387 0 0 0-.624.41l1.344 2.951a.358.358 0 0 1-.377.543h-1.988V5.98l-.01.002a6.06 6.06 0 0 0-5.99 6.073V16h.003l-.002 1.503a.496.496 0 0 0 .497.497h1.006a.496.496 0 0 0 .496-.496v-5.45a4.058 4.058 0 0 1 3.99-4.072h.01Z"/></svg>