<?xml version="1.0" encoding="UTF-8" standalone="no"?>
<svg
   xmlns:dc="http://purl.org/dc/elements/1.1/"
   xmlns:cc="http://creativecommons.org/ns#"
   xmlns:rdf="http://www.w3.org/1999/02/22-rdf-syntax-ns#"
   xmlns:svg="http://www.w3.org/2000/svg"
   xmlns="http://www.w3.org/2000/svg"
   xmlns:sodipodi="http://sodipodi.sourceforge.net/DTD/sodipodi-0.dtd"
   xmlns:inkscape="http://www.inkscape.org/namespaces/inkscape"
   id="WORKING_ICONS"
   data-name="WORKING ICONS"
   width="20"
   height="20"
   viewBox="0 0 20 20"
   version="1.1"
   inkscape:version="0.91 r13725"
   sodipodi:docname="position-unknown-low-signal.svg">
  <metadata
     id="metadata4194">
    <rdf:RDF>
      <cc:Work
         rdf:about="">
        <dc:format>image/svg+xml</dc:format>
        <dc:type
           rdf:resource="http://purl.org/dc/dcmitype/StillImage" />
        <dc:title>direction</dc:title>
      </cc:Work>
    </rdf:RDF>
  </metadata>
  <defs
     id="defs4192" />
  <sodipodi:namedview
     pagecolor="#ffffff"
     bordercolor="#666666"
     borderopacity="1"
     objecttolerance="10"
     gridtolerance="10"
     guidetolerance="10"
     inkscape:pageopacity="0"
     inkscape:pageshadow="2"
     inkscape:window-width="1855"
     inkscape:window-height="1056"
     id="namedview4190"
     showgrid="false"
     inkscape:zoom="5.74375"
     inkscape:cx="-6.8847819"
     inkscape:cy="26.786702"
     inkscape:window-x="65"
     inkscape:window-y="24"
     inkscape:window-maximized="1"
     inkscape:current-layer="WORKING_ICONS" />
  <title
     id="title4186">direction</title>
  <path
     style="opacity:1;fill:#ffffff;fill-opacity:1;fill-rule:evenodd;stroke:none;stroke-width:2;stroke-linecap:square;stroke-linejoin:miter;stroke-miterlimit:4;stroke-dasharray:none;stroke-dashoffset:0;stroke-opacity:1"
     clip-path="none"
     d="m 16.432522,10.154111 c -0.725731,0.08002 -1.581782,0.04283 -2.53714,-0.126979 C 12.661947,9.807889 11.363987,9.3897467 10.130365,8.8300526 8.8967429,8.2703588 7.727264,7.569024 6.7499568,6.7852536 6.0481127,6.2223942 5.4887201,5.6476768 5.0772753,5.0896419 4.733439,5.8889799 4.6499305,6.7694854 4.8230663,7.6495547 c 0.1784673,0.9071657 0.6232298,1.8127602 1.3144415,2.6198973 0.6912123,0.807137 1.5772617,1.454714 2.5559096,1.898727 0.9786484,0.444014 2.0494956,0.684277 3.1120946,0.672844 1.062596,-0.01139 2.036974,-0.273167 2.837155,-0.73632 0.800182,-0.463155 1.426265,-1.128483 1.79765,-1.947055 z"
     id="path4196"
     inkscape:connector-curvature="0"
     sodipodi:nodetypes="cssscssssscc" />
  <path
     sodipodi:nodetypes="cssscssssscc"
     inkscape:connector-curvature="0"
     id="path4209"
     d="M 16.100731,6.9657094 C 15.594844,6.9573006 14.98826,6.87183 14.301702,6.7027646 13.415302,6.4844877 12.468494,6.147163 11.556465,5.7333754 10.644434,5.3195878 9.7670374,4.8292705 9.0190106,4.3060098 8.4818218,3.9302339 8.0442202,3.5583183 7.71222,3.2070635 c -0.1826485,0.4332474 -0.1756002,0.932602 0.012438,1.4509283 0.1938238,0.534285 0.5753559,1.0876132 1.1233413,1.6028636 0.5479859,0.51525 1.2214451,0.9534707 1.9449711,1.2817339 0.723525,0.3282627 1.49682,0.5464344 2.245447,0.6194564 0.748622,0.073021 1.416278,-0.00429 1.945978,-0.2103138 0.529701,-0.2060223 0.921465,-0.5411785 1.122104,-0.9834072 z"
     clip-path="none"
     style="opacity:0.46;fill:#ffffff;fill-opacity:1;fill-rule:evenodd;stroke:none;stroke-width:2;stroke-linecap:square;stroke-linejoin:miter;stroke-miterlimit:4;stroke-dasharray:none;stroke-dashoffset:0;stroke-opacity:1" />
  <path
     style="opacity:0.44;fill:#ffffff;fill-opacity:1;fill-rule:evenodd;stroke:none;stroke-width:2;stroke-linecap:square;stroke-linejoin:miter;stroke-miterlimit:4;stroke-dasharray:none;stroke-dashoffset:0;stroke-opacity:1"
     clip-path="none"
     d="M 15.436522,4.3335797 C 15.117045,4.3282693 14.733975,4.2742934 14.3004,4.167525 13.740622,4.0296787 13.142694,3.8166515 12.566729,3.5553365 11.990765,3.2940217 11.436671,2.9843764 10.964277,2.6539275 10.625033,2.4166177 10.348678,2.1817457 10.139013,1.9599214 c -0.115349,0.2736028 -0.110894,0.5889563 0.0079,0.9162897 0.122402,0.3374115 0.363348,0.6868488 0.709412,1.0122398 0.346064,0.3253904 0.771368,0.6021352 1.228288,0.8094399 0.45692,0.2073045 0.945271,0.345084 1.418042,0.3911986 0.47277,0.046114 0.894408,-0.00271 1.228924,-0.1328178 0.334517,-0.1301069 0.581923,-0.3417645 0.708632,-0.6210406 z"
     id="path4211"
     inkscape:connector-curvature="0"
     sodipodi:nodetypes="cssscssssscc" />
  <path
     style="opacity:1;fill:#ffffff;fill-opacity:1;fill-rule:evenodd;stroke:none;stroke-width:2;stroke-linecap:square;stroke-linejoin:miter;stroke-miterlimit:4;stroke-dasharray:none;stroke-dashoffset:0;stroke-opacity:1"
     d="m 8.9777863,10.347779 c 3.2936787,3.561679 4.4609857,4.980372 6.4391617,7.536204 l -12.8783231,0 c 2.4290752,-3.161241 2.404749,-3.17352 6.4391614,-7.536204 z"
     id="rect4213"
     inkscape:connector-curvature="0"
     sodipodi:nodetypes="cccc" />
</svg>
