<svg data-name="WORKING ICONS" width="20" height="20" xmlns="http://www.w3.org/2000/svg"><path d="M6.991 1.657a.392.392 0 0 1 0 .554L5.738 3.465a.39.39 0 0 1-.554-.001l-.094-.095-.257.257.095.095a.392.392 0 0 1 0 .554l-.615.615a.39.39 0 0 1-.553-.001l-.095-.095-.266.267.094.094a.392.392 0 0 1 0 .554L2.217 6.985a.39.39 0 0 1-.553 0l-.546-.546a.39.39 0 0 1 0-.554L2.392 4.61a.392.392 0 0 1 .555 0l.094.095.267-.267-.095-.094a.39.39 0 0 1-.001-.553l.615-.615a.392.392 0 0 1 .554 0l.095.095.256-.257-.094-.095a.39.39 0 0 1-.001-.553L5.89 1.111a.392.392 0 0 1 .555 0z" style="fill:#fff;stroke-width:.777778"/><path style="opacity:.2;fill:#fff;stroke-width:4.84997" d="M18.5 4A14.5 14.5 0 0 1 4 18.5v-.498A14.001 14.001 0 0 0 18.002 4Z"/><path style="opacity:.25;fill:#fff;stroke-width:4.51434" d="M17.496 4A13.497 13.497 0 0 1 4 17.496v-.494A13.002 13.002 0 0 0 17.002 4Z"/><path style="opacity:.3;fill:#fff;stroke-width:4.18105" d="M16.5 4A12.5 12.5 0 0 1 4 16.5v-.49A12.01 12.01 0 0 0 16.01 4Z"/><path style="opacity:.35;fill:#fff;stroke-width:3.84695" d="M15.502 4A11.502 11.502 0 0 1 4 15.502v-.5A11.002 11.002 0 0 0 15.002 4Z"/><path style="opacity:.4;fill:#fff;stroke-width:3.511" d="M14.498 4A10.497 10.497 0 0 1 4 14.498v-.496A10.001 10.001 0 0 0 14.002 4Z"/><path style="opacity:.45;fill:#fff;stroke-width:3.17727" d="M13.5 4A9.5 9.5 0 0 1 4 13.5v-.504A8.997 8.997 0 0 0 12.996 4Z"/><path style="opacity:.5;fill:#fff;stroke-width:2.84174" d="M12.496 4A8.496 8.496 0 0 1 4 12.496v-.498A7.999 7.999 0 0 0 11.998 4Z"/><path style="opacity:.55;fill:#fff;stroke-width:2.50727" d="M11.496 4A7.496 7.496 0 0 1 4 11.496v-.488A7.007 7.007 0 0 0 11.008 4Z"/><path style="opacity:.6;fill:#fff;stroke-width:2.17425" d="M10.5 4A6.5 6.5 0 0 1 4 10.5v-.498A6.002 6.002 0 0 0 10.002 4Z"/><path style="opacity:.65;fill:#fff;stroke-width:1.83761" d="M9.494 4A5.494 5.494 0 0 1 4 9.494v-.492A5.003 5.003 0 0 0 9.002 4Z"/><path style="opacity:.7;fill:#fff;stroke-width:1.5041" d="M8.496 4A4.497 4.497 0 0 1 4 8.496v-.492A4.005 4.005 0 0 0 8.004 4Z"/><path style="opacity:.75;fill:#fff;stroke-width:1.17131" d="M7.502 4A3.502 3.502 0 0 1 4 7.502v-.508A2.994 2.994 0 0 0 6.994 4Z"/><path style="opacity:.8;fill:#fff;stroke-width:.837016" d="M6.502 4A2.502 2.502 0 0 1 4 6.502v-.496A2.005 2.005 0 0 0 6.006 4Z"/></svg>