<svg data-name="WORKING ICONS" width="20" height="20" xmlns="http://www.w3.org/2000/svg"><path d="M6.991 1.657a.392.392 0 0 1 0 .554L5.738 3.465a.39.39 0 0 1-.554-.001l-.094-.095-.257.257.095.095a.392.392 0 0 1 0 .554l-.615.615a.39.39 0 0 1-.553-.001l-.095-.095-.266.267.094.094a.392.392 0 0 1 0 .554L2.217 6.985a.39.39 0 0 1-.553 0l-.546-.546a.39.39 0 0 1 0-.554L2.392 4.61a.392.392 0 0 1 .555 0l.094.095.267-.267-.095-.094a.39.39 0 0 1-.001-.553l.615-.615a.392.392 0 0 1 .554 0l.095.095.256-.257-.094-.095a.39.39 0 0 1-.001-.553L5.89 1.111a.392.392 0 0 1 .555 0z" style="fill:#fff;stroke-width:.777778"/><path style="opacity:.9;fill:red;fill-opacity:1" d="M13.182 6.818a4.5 4.5 0 0 0-6.364 0 4.5 4.5 0 0 0 0 6.364 4.5 4.5 0 0 0 6.364 0 4.5 4.5 0 0 0 0-6.364zm-1.41.709.701.701a.504.504 0 0 1 0 .713L11.414 10l1.06 1.06a.503.503 0 0 1-.002.71l-.7.7a.504.504 0 0 1-.713.004L10 11.414l-1.06 1.06a.503.503 0 0 1-.71-.002l-.702-.701a.503.503 0 0 1-.002-.712L8.586 10l-1.06-1.06a.506.506 0 0 1 .002-.713l.7-.7a.504.504 0 0 1 .713 0L10 8.586l1.06-1.06a.504.504 0 0 1 .712 0z"/><path style="opacity:.2;fill:#fff;stroke-width:4.18105" d="M16.01 4a12.01 12.01 0 0 1-1.514 5.822 4.5 4.5 0 0 1-.09 1.086A12.5 12.5 0 0 0 16.5 4h-.49zm-5.067 10.385a4.5 4.5 0 0 1-1.095.097A12.01 12.01 0 0 1 4 16.01v.49a12.5 12.5 0 0 0 6.943-2.115z"/><path style="opacity:.25;fill:#fff;stroke-width:3.84695" d="M15.002 4a11.002 11.002 0 0 1-.86 4.24 4.5 4.5 0 0 1 .233.711A11.502 11.502 0 0 0 15.502 4h-.5zM8.258 14.135A11.006 11.006 0 0 1 4 15.002v.5a11.5 11.5 0 0 0 4.969-1.137 4.5 4.5 0 0 1-.674-.217l-.037-.013z"/><path style="opacity:.3;fill:#fff;stroke-width:3.511" d="M14.002 4a10 10 0 0 1-.52 3.152 4.5 4.5 0 0 1 .35.493c.436-1.166.662-2.4.666-3.645h-.496zm-6.836 9.479A10 10 0 0 1 4 14.002v.496a10.497 10.497 0 0 0 3.658-.672 4.5 4.5 0 0 1-.492-.347z"/><path style="opacity:.35;fill:#fff;stroke-width:3.17727" d="M12.996 4a8.997 8.997 0 0 1-.332 2.375l.006.006a4.5 4.5 0 0 1 .098.078c.11.088.218.18.32.28a4.5 4.5 0 0 1 .008.005A9.5 9.5 0 0 0 13.5 4h-.504zm-6.623 8.664A8.998 8.998 0 0 1 4 12.996v.504a9.5 9.5 0 0 0 2.738-.402 4.498 4.498 0 0 1-.33-.391 4.5 4.5 0 0 1-.013-.016l-.022-.027z"/><path style="opacity:.4;fill:#fff;stroke-width:2.84174" d="M11.998 4a7.999 7.999 0 0 1-.228 1.873c.09.038.18.079.27.123a4.5 4.5 0 0 1 .183.098c.178-.684.27-1.387.273-2.094h-.498zm-6.135 7.773A8 8 0 0 1 4 11.998v.498a8.496 8.496 0 0 0 2.09-.271l-.024-.045a4.5 4.5 0 0 1-.03-.057 4.5 4.5 0 0 1-.173-.35z"/><path style="opacity:.45;fill:#fff;stroke-width:2.50727" d="M11.008 4c0 .533-.063 1.065-.184 1.584.069.013.137.027.205.043l.035.008a4.5 4.5 0 0 1 .221.06l.016.004c.13-.557.195-1.127.195-1.699h-.488zm-5.432 6.826A7.008 7.008 0 0 1 4 11.008v.488c.57 0 1.137-.066 1.691-.195l-.037-.137a4.488 4.488 0 0 1-.078-.338z"/><path style="opacity:.5;fill:#fff;stroke-width:2.17425" d="M10.002 4a6 6 0 0 1-.195 1.506 4.25 4.25 0 0 1 .357 0 4.5 4.5 0 0 1 .05.002 4.5 4.5 0 0 1 .083.004 4.5 4.5 0 0 1 .02 0 4.5 4.5 0 0 0 .001 0A6.5 6.5 0 0 0 10.5 4h-.498zM5.504 9.807A6.004 6.004 0 0 1 4 10.002v.498a6.5 6.5 0 0 0 1.51-.182l-.002-.033a4.5 4.5 0 0 1 0-.014 4.5 4.5 0 0 1-.008-.209 4.5 4.5 0 0 1 .004-.253 4.5 4.5 0 0 0 0-.002z"/><path style="opacity:.55;fill:#fff;stroke-width:1.83761" d="M9.002 4a5.003 5.003 0 0 1-.309 1.7l.063-.018a4.5 4.5 0 0 1 .015-.004 4.5 4.5 0 0 1 .47-.106 4.5 4.5 0 0 1 .013-.004 4.5 4.5 0 0 1 .004 0A5.494 5.494 0 0 0 9.494 4h-.492zm-3.31 4.697A5.003 5.003 0 0 1 4 9.002v.492a5.494 5.494 0 0 0 1.559-.234 4.5 4.5 0 0 1 .132-.563z"/><path style="opacity:.6;fill:#fff;stroke-width:1.5041" d="M8.004 4a4.005 4.005 0 0 1-1.076 2.717 4.5 4.5 0 0 1 .045-.037 4.5 4.5 0 0 1 .285-.244 4.5 4.5 0 0 1 .074-.053 4.5 4.5 0 0 1 .28-.192 4.5 4.5 0 0 1 .17-.1 4.5 4.5 0 0 1 .226-.124 4.5 4.5 0 0 1 .037-.02A4.497 4.497 0 0 0 8.496 4h-.492zm-1.32 2.955A4.005 4.005 0 0 1 4 8.004v.492a4.497 4.497 0 0 0 1.943-.45 4.5 4.5 0 0 1 .03-.052 4.5 4.5 0 0 1 .273-.473 4.5 4.5 0 0 1 .108-.148 4.5 4.5 0 0 1 .253-.322 4.5 4.5 0 0 1 .077-.096z"/></svg>