<svg data-name="WORKING ICONS" xmlns="http://www.w3.org/2000/svg" width="20" height="20"><path fill="#fff" d="M10.975 7.2a3.8 3.8 0 1 1-3.8 3.8 3.804 3.804 0 0 1 3.8-3.8m0 7a3.2 3.2 0 1 0-3.2-3.2 3.204 3.204 0 0 0 3.2 3.2m0-7.2a4 4 0 1 0 4 4 4.005 4.005 0 0 0-4-4Zm0 7a3 3 0 1 1 3-3 3.003 3.003 0 0 1-3 3Zm2.828-5.828a4.032 4.032 0 0 0-.542-.455 4.077 4.077 0 0 0-4.74.123L5.474 4.795a.178.178 0 0 1 .061-.322l1.519-.569a.193.193 0 0 0-.076-.365L3.001 3.03l.509 3.977a.193.193 0 0 0 .365.075l.568-1.518a.179.179 0 0 1 .326-.059L8.5 9.232l.353-.354a3.06 3.06 0 0 1 3.835-.34 3.022 3.022 0 0 1 .407.34A3 3 0 0 1 10.975 14h-.5v4h1v-3.03a4 4 0 0 0 2.328-6.798Z"/></svg>