<svg data-name="WORKING ICONS" xmlns="http://www.w3.org/2000/svg" width="20" height="20"><path fill="#fff" d="M13 6.2A3.8 3.8 0 1 1 9.2 10 3.804 3.804 0 0 1 13 6.2m0 7A3.2 3.2 0 1 0 9.8 10a3.204 3.204 0 0 0 3.2 3.2M13 6a4 4 0 1 0 4 4 4.005 4.005 0 0 0-4-4Zm0 7a3 3 0 1 1 3-3 3.003 3.003 0 0 1-3 3Zm2.829-5.828a4.032 4.032 0 0 0-.542-.455 4.078 4.078 0 0 0-5.115.454A3.968 3.968 0 0 0 9.03 9.5H5a.179.179 0 0 1-.189-.271l.672-1.476a.193.193 0 0 0-.312-.205L2 10l3.171 2.452a.193.193 0 0 0 .312-.205l-.672-1.476A.179.179 0 0 1 5 10.5h5V10a2.98 2.98 0 0 1 .879-2.122 3.06 3.06 0 0 1 3.835-.34 3.022 3.022 0 0 1 .408.34A3 3 0 0 1 13 13h-.5v4h1v-3.03a4 4 0 0 0 2.329-6.798Z"/></svg>