<svg data-name="WORKING ICONS" xmlns="http://www.w3.org/2000/svg" width="20" height="20"><path fill="#fff" d="M5.5 10.002a.179.179 0 0 0 .271.189l1.476-.672a.193.193 0 0 1 .205.312L5 13.002 2.548 9.831a.193.193 0 0 1 .205-.312l1.476.672a.179.179 0 0 0 .271-.189V10a5.519 5.519 0 0 1 2.753-4.766l.5.866A4.519 4.519 0 0 0 5.5 10v.002Zm6.751-3.9A4.52 4.52 0 0 1 14.5 10h1a5.522 5.522 0 0 0-2.748-4.763h-.001a.179.179 0 0 1-.028-.329l1.32-.942a.193.193 0 0 0-.168-.333l-3.972.537 1.52 3.71a.193.193 0 0 0 .373-.022l.156-1.614a.18.18 0 0 1 .3-.141Zm.496 8.664a.179.179 0 0 1 .299.14l.156 1.615a.193.193 0 0 0 .372.021l1.521-3.709-3.972-.538a.193.193 0 0 0-.168.334l1.32.942a.179.179 0 0 1-.028.329l.004-.003a4.577 4.577 0 0 1-4.502 0l-.501.866a5.504 5.504 0 0 0 5.503 0Z"/></svg>