<svg data-name="WORKING ICONS" xmlns="http://www.w3.org/2000/svg" width="20" height="20"><path d="M10.994 5.2a3.8 3.8 0 1 1-3.8 3.8 3.804 3.804 0 0 1 3.8-3.8m0 7a3.2 3.2 0 1 0-3.2-3.2 3.204 3.204 0 0 0 3.2 3.2m0-7.2a4 4 0 1 0 4 4 4.005 4.005 0 0 0-4-4Zm0 7a3 3 0 1 1 3-3 3.003 3.003 0 0 1-3 3Zm2.83-5.828a4.036 4.036 0 0 0-.543-.455 4.08 4.08 0 0 0-5.115.454 4 4 0 0 0-.333 5.281l-3.065 3.066a.179.179 0 0 1-.325-.059l-.569-1.518a.193.193 0 0 0-.365.075L3 16.993l3.976-.51a.193.193 0 0 0 .076-.364l-1.519-.569a.179.179 0 0 1-.058-.325l3.403-3.406.339-.353-.346-.346a3 3 0 0 1 .002-4.242 3.06 3.06 0 0 1 3.835-.34 3.027 3.027 0 0 1 .408.34A3 3 0 0 1 10.994 12h-.5v4h1v-3.03a4 4 0 0 0 2.33-6.798Z"/></svg>