<svg data-name="WORKING ICONS" xmlns="http://www.w3.org/2000/svg" width="20" height="20"><path d="M8.972 5.2a3.8 3.8 0 1 1-3.8 3.8 3.804 3.804 0 0 1 3.8-3.8m0 7a3.2 3.2 0 1 0-3.2-3.2 3.204 3.204 0 0 0 3.2 3.2m0-7.2a4 4 0 1 0 4 4 4.005 4.005 0 0 0-4-4Zm0 7a3 3 0 1 1 3-3 3.003 3.003 0 0 1-3 3Zm7.491 1.024a.193.193 0 0 0-.365-.076l-.569 1.519a.179.179 0 0 1-.325.058l-3.757-3.757-.354.354a2.98 2.98 0 0 1-2.12.878h-.5v4h1v-3.03a3.956 3.956 0 0 0 1.952-.81l3.073 3.073a.178.178 0 0 1-.06.324l-1.518.569a.193.193 0 0 0 .076.365l3.976.509Z"/></svg>