<svg width="72" height="72" xmlns="http://www.w3.org/2000/svg"><path style="color:#000;fill:#fff;fill-opacity:.75;stroke-width:0;stroke-linecap:square;-inkscape-stroke:none" d="M36 998.362c9.941 0 18 8.06 18 18 0 9.941-8.059 18-18 18s-18-8.059-18-18c0-9.94 8.059-18 18-18z" transform="translate(0 -980.362)"/><path style="color:#000;fill:#fff;fill-opacity:0;stroke-linecap:square;-inkscape-stroke:none" d="M36 998.362c9.941 0 18 8.06 18 18 0 9.941-8.059 18-18 18s-18-8.059-18-18c0-9.94 8.059-18 18-18z" fill="none" transform="translate(0 -980.362)"/><g style="fill:#0540ff"><path style="color:#000;stroke-width:0;stroke-linecap:square;-inkscape-stroke:none" d="M24 992.362c-14 15-24 22.745-24 36 0 13.255 10.745 24 24 24s24-10.745 24-24-10-21-24-36zm0 19.5c9.113 0 16.5 7.388 16.5 16.5 0 9.113-7.387 16.5-16.5 16.5s-16.5-7.387-16.5-16.5 7.387-16.5 16.5-16.5z" transform="translate(12 -992.362)"/><path style="color:#000;fill:#fff;fill-opacity:0;stroke-linecap:square;-inkscape-stroke:none" d="M24 992.362c-14 15-24 22.745-24 36 0 13.255 10.745 24 24 24s24-10.745 24-24-10-21-24-36zm0 19.5c9.113 0 16.5 7.388 16.5 16.5 0 9.113-7.387 16.5-16.5 16.5s-16.5-7.387-16.5-16.5 7.387-16.5 16.5-16.5z" fill="none" transform="translate(12 -992.362)"/><path style="color:#000;stroke-width:0;stroke-linecap:square;-inkscape-stroke:none" d="M19 14.5a4 3.5 0 0 1-4 3.5 4 3.5 0 0 1-4-3.5 4 3.5 0 0 1 4-3.5 4 3.5 0 0 1 4 3.5Z" transform="matrix(2.25 0 0 2.57143 2.25 -1.286)"/><path style="color:#000;fill:#fff;fill-opacity:0;stroke-linecap:square;-inkscape-stroke:none" d="M19 14.5c0 1.933-1.79 3.5-4 3.5s-4-1.567-4-3.5 1.79-3.5 4-3.5 4 1.567 4 3.5z" fill="none" transform="matrix(2.25 0 0 2.57143 2.25 -1.286)"/></g></svg>