<svg width="72" height="72" xmlns="http://www.w3.org/2000/svg"><g style="fill:#fff;fill-opacity:.7519685"><path style="color:#000;fill-opacity:.751969;stroke-width:0;stroke-linecap:square;-inkscape-stroke:none" d="M24 1004.362c-13.255 0-24 10.745-24 24s10.745 24 24 24 24-10.745 24-24-10.745-24-24-24zm0 7.5c9.113 0 16.5 7.388 16.5 16.5 0 9.113-7.387 16.5-16.5 16.5s-16.5-7.387-16.5-16.5 7.387-16.5 16.5-16.5z" transform="translate(12 -992.362)"/><path style="color:#000;fill-opacity:0;stroke-linecap:square;-inkscape-stroke:none" d="M24 1004.362c-13.255 0-24 10.745-24 24s10.745 24 24 24 24-10.745 24-24-10.745-24-24-24zm0 7.5c9.113 0 16.5 7.388 16.5 16.5 0 9.113-7.387 16.5-16.5 16.5s-16.5-7.387-16.5-16.5 7.387-16.5 16.5-16.5z" fill="none" transform="translate(12 -992.362)"/><path style="color:#000;fill-opacity:.751969;stroke-width:0;stroke-linecap:square;-inkscape-stroke:none" d="M19 14.5a4 3.5 0 0 1-4 3.5 4 3.5 0 0 1-4-3.5 4 3.5 0 0 1 4-3.5 4 3.5 0 0 1 4 3.5Z" transform="matrix(2.25 0 0 2.57143 2.25 -1.286)"/><path style="color:#000;fill-opacity:0;stroke-linecap:square;-inkscape-stroke:none" d="M19 14.5c0 1.933-1.79 3.5-4 3.5s-4-1.567-4-3.5 1.79-3.5 4-3.5 4 1.567 4 3.5z" fill="none" transform="matrix(2.25 0 0 2.57143 2.25 -1.286)"/></g></svg>