<svg xmlns="http://www.w3.org/2000/svg" width="64" height="64"><path style="opacity:1;fill:#000;fill-opacity:1;stroke:none;stroke-width:0;stroke-linecap:butt;stroke-linejoin:miter;stroke-miterlimit:4;stroke-dasharray:none;stroke-opacity:1;paint-order:stroke markers fill" d="M25.5 0C11.417 0 0 11.417 0 25.5S11.417 51 25.5 51c4.994 0 9.643-1.452 13.576-3.934l16.93 16.93a10.238 10.238 0 0 0 5.236-2.795 10.233 10.233 0 0 0 2.795-5.238l-16.94-16.94A25.352 25.352 0 0 0 51 25.5C51 11.417 39.583 0 25.5 0zm-.004 9.639c8.715 0 15.858 7.141 15.858 15.855S34.21 41.348 25.496 41.348 9.641 34.208 9.641 25.494c0-8.714 7.14-15.855 15.855-15.855z"/></svg>