<svg height="16" xmlns="http://www.w3.org/2000/svg" width="16"><path d="M48 519.031A6.963 6.963 0 0 0 41.031 526 6.963 6.963 0 0 0 48 532.969 6.963 6.963 0 0 0 54.969 526 6.963 6.963 0 0 0 48 519.031zM45 523h1.031c.255.011.51.129.688.313l1.281 1.28 1.313-1.28c.265-.231.446-.306.687-.313h1v1c0 .286-.034.55-.25.75l-1.281 1.281 1.25 1.25c.188.188.281.454.281.719v1h-1c-.265 0-.53-.093-.719-.281L48 527.437l-1.281 1.282A1.015 1.015 0 0 1 46 529h-1v-1c0-.265.093-.53.281-.719l1.282-1.25-1.282-1.281A.909.909 0 0 1 45 524v-1z" style="font-size:medium;font-style:normal;font-variant:normal;font-weight:400;font-stretch:normal;text-indent:0;text-align:start;text-decoration:none;line-height:normal;letter-spacing:normal;word-spacing:normal;text-transform:none;direction:ltr;block-progression:tb;writing-mode:lr-tb;text-anchor:start;color:#000;fill:#000;fill-opacity:1;fill-rule:nonzero;stroke:none;stroke-width:1.78124988;marker:none;visibility:visible;display:inline;overflow:visible;enable-background:new;font-family:Andale Mono;-inkscape-font-specification:Andale Mono" transform="translate(-40 -518)"/></svg>