<svg height="16" xmlns="http://www.w3.org/2000/svg" width="16"><g style="display:inline"><path transform="translate(-120 -538)" d="m126 540-6 6 6 6h9.035a1.03 1.03 0 0 0 .965-1v-10c0-.53-.346-1-1.009-1H126zm1 3h1.031c.255.011.51.129.688.313l1.281 1.28 1.313-1.28c.265-.231.446-.306.687-.313h1v1c0 .286-.034.55-.25.75l-1.281 1.281 1.25 1.25c.188.188.281.454.281.719v1h-1c-.265 0-.53-.093-.719-.281L130 547.437l-1.281 1.282A1.015 1.015 0 0 1 128 549h-1v-1c0-.265.093-.53.281-.719l1.281-1.25-1.28-1.281A.909.909 0 0 1 127 544v-1z" style="color:#000;fill:#000;fill-opacity:1;fill-rule:nonzero;stroke:none;stroke-width:1;marker:none;visibility:visible;display:inline;overflow:visible;enable-background:accumulate"/></g></svg>