<svg height="16" width="16" xmlns="http://www.w3.org/2000/svg"><g style="display:inline"><path d="M291 178.031a1.969 1.969 0 1 1-3.938 0 1.969 1.969 0 1 1 3.938 0z" style="color:#000;fill:#000;fill-opacity:1;fill-rule:nonzero;stroke:none;stroke-width:.99999994;marker:none;visibility:visible;display:inline;overflow:visible;enable-background:new" transform="matrix(1.50794 0 0 1.50794 -432.84 -260.491)"/><path d="M291 178.031a1.969 1.969 0 1 1-3.938 0 1.969 1.969 0 1 1 3.938 0z" style="color:#000;fill:#000;fill-opacity:1;fill-rule:nonzero;stroke:none;stroke-width:.99999994;marker:none;visibility:visible;display:inline;overflow:visible;enable-background:new" transform="matrix(1.50794 0 0 1.50794 -422.872 -255.491)"/><path d="M291 178.031a1.969 1.969 0 1 1-3.938 0 1.969 1.969 0 1 1 3.938 0z" style="color:#000;fill:#000;fill-opacity:1;fill-rule:nonzero;stroke:none;stroke-width:.99999994;marker:none;visibility:visible;display:inline;overflow:visible;enable-background:new" transform="matrix(1.50794 0 0 1.50794 -422.872 -265.491)"/><path d="m533.625 383.156-10.063 4.875-1.812.906 1.813.907 10.03 5.062.907-1.812-8.219-4.156 8.219-4-.875-1.782z" style="font-size:medium;font-style:normal;font-variant:normal;font-weight:400;font-stretch:normal;text-indent:0;text-align:start;text-decoration:none;line-height:normal;letter-spacing:normal;word-spacing:normal;text-transform:none;direction:ltr;block-progression:tb;writing-mode:lr-tb;text-anchor:start;baseline-shift:baseline;color:#000;fill:#000;fill-opacity:1;stroke:none;stroke-width:2;marker:none;visibility:visible;display:inline;overflow:visible;enable-background:accumulate;font-family:Sans;-inkscape-font-specification:Sans" transform="translate(-521 -381)"/></g></svg>