<svg height="16" width="15.974" xmlns="http://www.w3.org/2000/svg"><g style="display:inline"><path d="M188 807v1.031a6.514 6.514 0 0 0-5.937 5.969H181v1h1.063a6.513 6.513 0 0 0 5.937 5.969V822h1v-1.031c3.188-.234 5.724-2.78 5.969-5.969H196v-1h-1.031c-.245-3.189-2.78-5.767-5.969-6v-1h-1zm.531 2.813a4.665 4.665 0 0 1 4.688 4.687 4.665 4.665 0 0 1-4.688 4.688c-2.606 0-4.75-2.082-4.75-4.688s2.144-4.688 4.75-4.688zm-.03 1.187a3.5 3.5 0 1 0 0 7 3.5 3.5 0 0 0 0-7z" style="color:#000;fill:#000;fill-opacity:1;fill-rule:nonzero;stroke:none;stroke-width:1.70000005;marker:none;visibility:visible;display:inline;overflow:visible;enable-background:accumulate" transform="translate(-181 -807)"/></g></svg>