<svg xmlns="http://www.w3.org/2000/svg" width="64" height="64"><path style="opacity:1;fill:#000;fill-opacity:1;stroke:none;stroke-width:0;stroke-linecap:butt;stroke-linejoin:miter;stroke-miterlimit:4;stroke-dasharray:none;stroke-opacity:1;paint-order:stroke markers fill" d="M17.764 33.691C6.895 36.391.016 41.932 0 48c0 8.837 14.327 16 32 16 17.673 0 32-7.163 32-16 .001-6.019-6.753-11.529-17.48-14.26-1.302 2.112-2.728 4.214-4.188 6.3C47.73 41.787 50.992 44.783 51 48c0 5.247-8.507 9.5-19 9.5S13 53.247 13 48c.001-3.22 3.264-6.22 8.668-7.97a143.26 143.26 0 0 1-3.904-6.339Z"/><path style="opacity:1;fill:#000;fill-opacity:1;stroke:none;stroke-width:1.27363765;stroke-miterlimit:4;stroke-dasharray:none;stroke-dashoffset:0;stroke-opacity:.50196078" d="M32 0C21.868 0 14.777 7.094 14.777 17.225c0 8.473 12.754 25.927 15.92 29.796L32 48.633l1.918-2.617c6.537-8.916 15.497-20.137 15.305-28.791C49.223 7.094 42.132 0 32 0zm.012 9.299c4.783 0 8.13 3.5 8.13 8.498.091 4.269-4.14 9.805-7.226 14.203l-.904 1.291-.616-.795c-1.494-1.909-7.515-10.52-7.515-14.7 0-4.997 3.348-8.497 8.13-8.497z"/></svg>