<?xml version="1.0" encoding="UTF-8" standalone="no"?>
<!-- Created with Inkscape (http://www.inkscape.org/) -->

<svg
   xmlns:dc="http://purl.org/dc/elements/1.1/"
   xmlns:cc="http://creativecommons.org/ns#"
   xmlns:rdf="http://www.w3.org/1999/02/22-rdf-syntax-ns#"
   xmlns:svg="http://www.w3.org/2000/svg"
   xmlns="http://www.w3.org/2000/svg"
   xmlns:sodipodi="http://sodipodi.sourceforge.net/DTD/sodipodi-0.dtd"
   xmlns:inkscape="http://www.inkscape.org/namespaces/inkscape"
   width="64"
   height="64"
   id="svg1901"
   sodipodi:version="0.32"
   inkscape:version="0.92.4 5da689c313, 2019-01-14"
   sodipodi:docname="nearby_search.svg"
   version="1.1"
   inkscape:export-xdpi="132"
   inkscape:export-ydpi="132"
   inkscape:export-filename="/home/mo/Dokumente/Pure Maps/all/nearby_search.png">
  <defs
     id="defs1903" />
  <sodipodi:namedview
     id="base"
     pagecolor="#ffffff"
     bordercolor="#666666"
     borderopacity="1.0"
     inkscape:pageopacity="0.0"
     inkscape:pageshadow="2"
     inkscape:zoom="20.905504"
     inkscape:cx="41.336574"
     inkscape:cy="25.893748"
     inkscape:document-units="px"
     inkscape:current-layer="g825"
     inkscape:window-width="2880"
     inkscape:window-height="1506"
     inkscape:window-x="0"
     inkscape:window-y="0"
     showgrid="true"
     inkscape:window-maximized="1"
     inkscape:showpageshadow="false"
     showguides="true"
     inkscape:snap-grids="true"
     inkscape:snap-global="true"
     inkscape:snap-intersection-paths="true"
     inkscape:object-nodes="true"
     inkscape:snap-smooth-nodes="true"
     inkscape:snap-midpoints="true"
     inkscape:object-paths="true"
     inkscape:document-rotation="0"
     inkscape:guide-bbox="true">
    <inkscape:grid
       type="xygrid"
       id="grid10137"
       empspacing="16"
       visible="true"
       enabled="true"
       snapvisiblegridlinesonly="true" />
    <sodipodi:guide
       position="10,35"
       orientation="1,0"
       id="guide866"
       inkscape:locked="false" />
    <sodipodi:guide
       position="5,38"
       orientation="1,0"
       id="guide868"
       inkscape:locked="false" />
    <sodipodi:guide
       position="36,54"
       orientation="0,1"
       id="guide879"
       inkscape:locked="false" />
  </sodipodi:namedview>
  <metadata
     id="metadata1906">
    <rdf:RDF>
      <cc:Work
         rdf:about="">
        <dc:format>image/svg+xml</dc:format>
        <dc:type
           rdf:resource="http://purl.org/dc/dcmitype/StillImage" />
        <dc:title></dc:title>
      </cc:Work>
    </rdf:RDF>
  </metadata>
  <g
     inkscape:label="Taso 1"
     inkscape:groupmode="layer"
     id="layer1"
     transform="translate(0,-988.3622)">
    <g
       id="g825"
       transform="translate(-0.8572132,0.17178455)">
      <path
         style="opacity:1;fill:#000000;fill-opacity:1;stroke:none;stroke-width:1.40858102;stroke-miterlimit:4;stroke-dasharray:none;stroke-dashoffset:0;stroke-opacity:0.50196078"
         d="M 33.091797 0.005859375 A 16.269788 16.269788 0 0 0 31.939453 0.015625 C 31.462001 -0.0058416667 30.985078 -0.0058416667 30.509766 0.015625 A 16.269788 16.269788 0 0 0 14.978516 16.992188 C 14.978516 25.355087 27.589991 42.591456 30.714844 46.410156 L 32 48 L 33.892578 45.417969 C 40.344614 36.618269 48.916016 24.099488 48.916016 16.992188 C 48.937422 16.510454 48.937422 16.028608 48.916016 15.546875 A 16.269788 16.269788 0 0 0 33.091797 0.005859375 z M 32.695312 9.6445312 A 9.0218935 9.0218935 0 0 1 41.458984 19.169922 C 41.458984 23.695222 34.678206 33.165119 31.912109 36.949219 C 28.533049 32.532219 22.427734 23.223922 22.427734 19.169922 A 9.0218935 9.0218935 0 0 1 31.939453 9.6582031 L 31.943359 9.6582031 A 9.0218935 9.0218935 0 0 1 32.695312 9.6445312 z "
         transform="translate(0.8572132,988.19042)"
         id="Layer_7" />
      <path
         style="opacity:0.3;fill:#000000;fill-opacity:1;stroke:none;stroke-width:0;stroke-linecap:butt;stroke-linejoin:miter;stroke-miterlimit:4;stroke-dasharray:none;stroke-opacity:1;paint-order:stroke markers fill"
         d="M 44.880859 33.375 C 44.428319 34.079895 43.969571 34.780599 43.507812 35.480469 C 42.913896 36.428403 42.293938 37.363686 41.675781 38.304688 C 49.155226 40.143483 53.926993 43.94609 53.9375 48.128906 C 53.937492 54.186706 44.115741 59.097656 32 59.097656 C 19.884259 59.097656 10.062509 54.186706 10.0625 48.128906 C 10.071752 43.991628 14.742345 40.224917 22.089844 38.363281 C 21.197935 36.984895 20.30877 35.560495 19.439453 34.103516 C 19.288336 33.866405 19.137824 33.636822 18.986328 33.396484 C 7.4485464 35.964509 0.01077048 41.685345 0 48 C 8.8365477e-06 56.836558 14.326895 64.000002 32 64 C 49.673105 64.000002 63.999991 56.836558 64 48 C 63.98293 41.661876 56.484808 35.926261 44.880859 33.375 z "
         transform="translate(0.8572132,988.19042)"
         id="path847" />
      <path
         style="opacity:0.6;fill:#000000;fill-opacity:1;stroke:none;stroke-width:0;stroke-linecap:butt;stroke-linejoin:miter;stroke-miterlimit:4;stroke-dasharray:none;stroke-opacity:1;paint-order:stroke markers fill"
         d="M 39.935547 40.935547 C 38.857001 42.519692 37.776647 44.056973 36.708984 45.550781 C 38.309995 46.233575 39.273011 47.23463 39.273438 48.310547 C 39.273435 50.308463 36.048512 51.926641 32.060547 51.943359 L 32.009766 52.013672 L 31.955078 51.945312 C 27.959693 51.932899 24.726566 50.311151 24.726562 48.310547 C 24.729558 47.282128 25.612111 46.321746 27.091797 45.642578 C 26.08857 44.262768 25.011719 42.727075 23.845703 41.001953 C 18.725903 42.462262 15.507383 45.173611 15.5 48.142578 C 15.500007 52.698878 22.887306 56.392578 32 56.392578 C 41.112694 56.392578 48.499993 52.698878 48.5 48.142578 C 48.496351 45.127521 45.184319 42.379699 39.935547 40.935547 z "
         transform="translate(0.8572132,988.19042)"
         id="ellipse855" />
    </g>
  </g>
</svg>
