<svg height="16" xmlns="http://www.w3.org/2000/svg" width="16"><g style="display:inline"><path d="M445.55 462.09a3.5 3.5 0 0 0-1.144.216l1.885 1.88c.387.386.387 1 0 1.387l-.711.708a.98.98 0 0 1-1.39 0l-1.885-1.88a3.473 3.473 0 0 0-.217 1.14 3.456 3.456 0 0 0 3.461 3.452 3.5 3.5 0 0 0 1.143-.216l1.175 1.171a2.472 2.465 0 0 1 .061 0l2.07-2.064-1.204-1.202c.124-.356.216-.742.216-1.14a3.456 3.456 0 0 0-3.46-3.451zm6.55 7.89-2.07 2.064a2.472 2.465 0 0 1 .03.092l1.144 1.14a3.474 3.474 0 0 0-.217 1.14 3.456 3.456 0 0 0 3.461 3.452c.434 0 .854-.102 1.236-.247l-2.008-2.003a1.01 1.01 0 0 1 0-1.417l.68-.678c.193-.193.457-.308.71-.308.253 0 .517.115.71.308l1.948 1.941c.104-.33.185-.683.185-1.047a3.456 3.456 0 0 0-3.46-3.452 3.5 3.5 0 0 0-1.144.216l-1.205-1.202z" style="font-size:medium;font-style:normal;font-variant:normal;font-weight:400;font-stretch:normal;text-indent:0;text-align:start;text-decoration:none;line-height:normal;letter-spacing:normal;word-spacing:normal;text-transform:none;direction:ltr;block-progression:tb;writing-mode:lr-tb;text-anchor:start;color:#000;fill:#000;fill-opacity:1;fill-rule:nonzero;stroke:none;stroke-width:3;marker:none;visibility:visible;display:inline;overflow:visible;enable-background:accumulate;font-family:Sans;-inkscape-font-specification:Sans" transform="translate(-442 -462)"/><path d="m455.858 462-1.542 1.438c-.452.42-.53 1.148-.267 1.706l-5.888 5.996a1.492 1.488 0 0 0-.03 0 1.492 1.488 0 0 0-.841-.148 1.492 1.488 0 0 0-.867.44l-3.946 3.998a1.494 1.49 0 1 0 2.13 2.09l3.946-3.997a1.492 1.488 0 0 0 .297-1.738l5.888-5.965c.558.249 1.274.147 1.707-.292l1.417-1.56-2.004-1.968z" style="font-size:medium;font-style:normal;font-variant:normal;font-weight:400;font-stretch:normal;text-indent:0;text-align:start;text-decoration:none;line-height:normal;letter-spacing:normal;word-spacing:normal;text-transform:none;direction:ltr;block-progression:tb;writing-mode:lr-tb;text-anchor:start;color:#000;fill:#000;fill-opacity:1;fill-rule:nonzero;stroke:none;stroke-width:3;marker:none;visibility:visible;display:inline;overflow:visible;enable-background:accumulate;font-family:Sans;-inkscape-font-specification:Sans" transform="translate(-442 -462)"/></g></svg>