<svg xmlns="http://www.w3.org/2000/svg" width="64" height="64"><g transform="rotate(180 63.007 498.423)"><path d="M75.007 996.846C82.587 988.725 88 984.532 88 977.356c0-7.176-5.817-12.994-12.993-12.994s-12.994 5.818-12.994 12.994 5.414 11.369 12.994 19.49zm0-10.557a8.933 8.933 0 1 1 0-17.866 8.933 8.933 0 0 1 0 17.866z" style="opacity:1;fill:#000;fill-opacity:1;stroke:#fff;stroke-width:0;stroke-linecap:square;stroke-miterlimit:4;stroke-dasharray:none;stroke-opacity:0"/><circle transform="scale(-1)" style="opacity:1;fill:#000;fill-opacity:1;stroke:#fff;stroke-width:0;stroke-linecap:square;stroke-miterlimit:4;stroke-dasharray:none;stroke-opacity:0" cx="-75.007" cy="-977.355" r="4.873"/></g><path style="opacity:1;fill:#000;fill-opacity:1;stroke:none;stroke-width:1.5666858" d="M33.005 1028.363a9 9 0 0 0 9-9 9 9 0 0 0-9-9 9 9 0 0 0-9 9 9 9 0 0 0 9 9z" transform="translate(-24 -964.362)"/><path style="opacity:1;fill:#000;fill-opacity:1;stroke:none;stroke-width:0;stroke-linecap:butt;stroke-linejoin:miter;stroke-miterlimit:4;stroke-dasharray:none;stroke-opacity:1;paint-order:stroke markers fill" d="M64.505 1028.363c8.56 0 15.5-6.94 15.5-15.5h.002l-.007-13.5c-2 .626-3.315 1-5 1-1.72 0-3-.397-5-1l.007 13.5h-.002a5.5 5.5 0 1 1-11 0v-33c0-8.56-6.94-15.5-15.5-15.5-8.56 0-15.5 6.94-15.5 15.5v28.5a9 9 0 0 1 5-1.521 8.98 8.98 0 0 1 5 1.525v-28.504a5.5 5.5 0 1 1 11 0v33c0 8.56 6.94 15.5 15.5 15.5z" transform="translate(-24 -964.362)"/></svg>