<svg xmlns="http://www.w3.org/2000/svg" width="64" height="64"><g transform="translate(-24 -964.362)"><path style="fill:#000;fill-opacity:1;stroke:#fff;stroke-width:0;stroke-linecap:square;stroke-miterlimit:4;stroke-dasharray:none;stroke-opacity:0;opacity:1" d="M36.998 995.88c-7.579 8.12-12.993 12.314-12.993 19.49 0 7.176 5.817 12.993 12.993 12.993 7.177 0 12.994-5.817 12.994-12.993s-5.414-11.37-12.994-19.49zm0 10.557a8.933 8.933 0 1 1 0 17.866 8.933 8.933 0 0 1 0-17.866z"/><circle r="4.873" cy="1015.37" cx="36.998" style="fill:#000;fill-opacity:1;stroke:#fff;stroke-width:0;stroke-linecap:square;stroke-miterlimit:4;stroke-dasharray:none;stroke-opacity:0;opacity:1"/><path style="fill:#000;fill-opacity:1;stroke:none;stroke-width:1.5666858;opacity:1" d="M55 0a9 9 0 0 0-9 9 9 9 0 0 0 9 9 9 9 0 0 0 9-9 9 9 0 0 0-9-9z" transform="translate(24 964.362)"/><path style="opacity:1;fill:#000;fill-opacity:1;stroke:none;stroke-width:0;stroke-linecap:butt;stroke-linejoin:miter;stroke-miterlimit:4;stroke-dasharray:none;stroke-opacity:1;paint-order:stroke markers fill" d="M23.5 0A15.5 15.5 0 0 0 8 15.5h-.002v15.79c1.518-1.586 3.191-3.291 5-5.23 1.808 1.938 3.482 3.643 5 5.227V15.5H18a5.5 5.5 0 0 1 5.5-5.5 5.5 5.5 0 0 1 5.5 5.5v33A15.5 15.5 0 0 0 44.5 64 15.5 15.5 0 0 0 60 48.5V20a9 9 0 0 1-5 1.521 9 9 0 0 1-5-1.525V48.5a5.5 5.5 0 0 1-5.5 5.5 5.5 5.5 0 0 1-5.5-5.5v-33A15.5 15.5 0 0 0 23.5 0z" transform="translate(24 964.362)"/></g></svg>