<svg xmlns="http://www.w3.org/2000/svg" width="64" height="64" style="enable-background:new 0 0 64 64" xml:space="preserve"><path style="opacity:1;fill:#000;fill-opacity:1;stroke:none;stroke-width:0;stroke-linecap:butt;stroke-linejoin:miter;stroke-miterlimit:4;stroke-dasharray:none;stroke-opacity:1;paint-order:stroke markers fill" d="M19 4v.025C10.673 4.292 4 11.108 4 19.5h-.002v20.402h.022c.21 8.208 6.792 14.815 14.988 15.073v.03h25.414L60 64V19h-.025C59.707 10.674 52.89 4.002 44.5 4.002V4H19zm.5 10h25v.002a5.5 5.5 0 0 1 5.5 5.5v25.504H35.283l.004-.004H19.5V45a5.5 5.5 0 0 1-5.5-5.5h-.002v-20H14a5.5 5.5 0 0 1 5.5-5.5z"/><path style="opacity:1;fill:#000;fill-opacity:1;stroke:none;stroke-width:0;stroke-linecap:butt;stroke-linejoin:miter;stroke-miterlimit:4;stroke-dasharray:none;stroke-opacity:1;paint-order:stroke markers fill" d="M20.521 26h23v7h-23z"/><path style="opacity:1;fill:#000;fill-opacity:1;stroke:none;stroke-width:0;stroke-linecap:butt;stroke-linejoin:miter;stroke-miterlimit:4;stroke-dasharray:none;stroke-opacity:1;paint-order:stroke markers fill" transform="rotate(-90)" d="M-41 28.521h23v7h-23z"/></svg>