<svg height="16" xmlns="http://www.w3.org/2000/svg" width="16"><path transform="rotate(-.493 -21539.393 65431.326) scale(1.04725)" d="M530.949 186.709c-.78.552-3.158-1.906-4.113-1.918-.955-.012-3.395 2.386-4.16 1.815-.766-.57.836-3.592.552-4.504-.283-.912-3.318-2.491-3.011-3.396.306-.905 3.674-.314 4.454-.866.78-.552 1.344-3.926 2.3-3.914.954.011 1.434 3.398 2.2 3.969.765.57 4.148.065 4.432.977.284.912-2.788 2.414-3.094 3.319-.307.905 1.22 3.966.44 4.518z" style="color:#000;fill:#000;fill-opacity:1;fill-rule:nonzero;stroke:none;stroke-width:2;marker:none;visibility:visible;display:inline;overflow:visible;enable-background:accumulate"/></svg>