<svg height="16" width="16" xmlns="http://www.w3.org/2000/svg"><g style="display:inline"><path d="M247.719 749c-.192.009-.372.035-.563.063a6.03 6.03 0 0 0-3.968 2.343c-1.981 2.642-1.423 6.425 1.218 8.407 2.642 1.98 6.425 1.422 8.407-1.22.122-.17.189-.382.187-.593v-1h-1a1.024 1.024 0 0 0-.812.406c-1.333 1.777-3.817 2.114-5.594.782-1.777-1.333-2.114-3.817-.781-5.594 1.332-1.777 3.817-2.114 5.593-.782.43.323.77.733 1.032 1.188H250a1 1 0 0 0-1 1v1h6v-6h-1a1 1 0 0 0-1 1v1.688A5.966 5.966 0 0 0 247.72 749z" style="font-size:medium;font-style:normal;font-variant:normal;font-weight:400;font-stretch:normal;text-indent:0;text-align:start;text-decoration:none;line-height:normal;letter-spacing:normal;word-spacing:normal;text-transform:none;direction:ltr;block-progression:tb;writing-mode:lr-tb;text-anchor:start;baseline-shift:baseline;color:#000;fill:#000;fill-opacity:1;stroke:none;stroke-width:2;marker:none;visibility:visible;display:inline;overflow:visible;enable-background:accumulate;font-family:Sans;-inkscape-font-specification:Sans" transform="translate(-241 -747)"/></g></svg>