<svg width="16" xmlns="http://www.w3.org/2000/svg" height="16.004"><path style="color:#000;fill:#000;fill-opacity:1;fill-rule:nonzero;stroke:none;stroke-width:1;marker:none;visibility:visible;display:block;overflow:visible;enable-background:accumulate" d="M191 533.846v10.38l-2.344-2.288-1.34 2.734c-.327.74-2.033.145-1.548-.844l1.326-2.839h-2.958l6.864-7.143z" transform="translate(-183 -529)"/><path style="font-size:medium;font-style:normal;font-variant:normal;font-weight:400;font-stretch:normal;text-indent:0;text-align:start;text-decoration:none;line-height:normal;letter-spacing:normal;word-spacing:normal;text-transform:none;direction:ltr;block-progression:tb;writing-mode:lr-tb;text-anchor:start;baseline-shift:baseline;color:#000;fill:#000;fill-opacity:1;stroke:none;stroke-width:2;marker:none;visibility:visible;display:inline;overflow:visible;enable-background:accumulate;font-family:Sans;-inkscape-font-specification:Sans" d="M190.156 530.063c-3.826.46-6.578 3.957-6.093 7.78.131 1.035.293 1.383.293 1.383l1.675-1.632a4.992 4.992 0 0 1 4.375-5.563 4.992 4.992 0 0 1 5.563 4.375c.314 2.608-1.391 5.025-3.969 5.532l.031 2s.521-.106.624-.131c3.416-.834 5.706-4.128 5.283-7.65-.46-3.827-3.955-6.555-7.782-6.095z" transform="translate(-183 -529)"/><path style="opacity:.3;color:#000;fill:#000;fill-opacity:1;fill-rule:nonzero;stroke:none;stroke-width:1;marker:none;visibility:visible;display:inline;overflow:visible;enable-background:accumulate" d="M187.113 536.815v-.206l-.198.019.05-.393h-.117l-.115.15-.116.056-.165-.093-.017-.206.033-.225.248-.186h.199l.033-.113.247.056.182.225.033-.374.314-.262.116-.28.231-.094.133-.187.297-.056.149-.225h-.446l.28-.13h.199l.28-.094.034-.112-.1-.094-.115-.037.033-.112-.083-.169-.198.075.033-.15-.231-.13-.182.317.017.113-.182.075-.116.243-.05-.225-.313-.13-.05-.169.413-.243.182-.168.016-.206-.099-.056-.132-.019-.082.206s-.139.027-.174.036c-.454.418-1.37 1.32-1.584 3.024.008.04.155.268.155.268l.347.206.347.093m3.966-4.3-.43-.168-.496.056-.611.168-.116.112.38.262v.15l-.149.15.199.392.132-.075.165-.262c.256-.078.485-.168.727-.28l.199-.505m2.529.342-.375.094-.219.156v.125l-.375.25.094.344.219-.157.125.157.156.093.094-.28-.063-.157.063-.094.218-.187h.094l-.094.218v.188c.09-.024.16-.051.25-.063l-.25.188v.125l-.312.219-.281-.063v-.156l-.125.062.062.157h-.219l-.125.218-.156.157-.094.03v.188l.032.157h-.032v.53l.063-.03.094-.22.187-.124.031-.094.282-.062.156.187.187.094-.093.187.156-.03.062-.22-.187-.218h.062l.22.156.03.219.157.218.062-.312.094-.031c.096.1.169.231.25.344h.281l.188.125-.094.093-.156.156h-.25l-.344-.093h-.188l-.125.156-.343-.375-.25-.062-.375.062-.157.094V538l.031.031.25-.156.094.094h.281l.125.156-.093.312.187.188V539l.125.25-.093.25c-.01.161 0 .307 0 .469.079.219.143.435.218.656l.063.344v.187h.125l.219-.125h.25l.375-.437-.032-.157.25-.218-.187-.188.219-.187.218-.125.094-.125-.062-.25v-.594l.187-.375.188-.25.25-.563v-.156c-.117.015-.23.023-.344.031-.072.005-.145 0-.219 0a7.442 7.442 0 0 1-.312-.78l-.157-.188-.093-.313.062-.062.219.25.25.562.156.156-.062.22.156.155.25-.25.312-.218.157-.188v-.219c-.04-.073-.055-.145-.094-.218l-.156.187-.125-.156-.188-.125v-.281l.219.218.219-.03c.101.091.192.207.28.312l.157-.188c0-.174-.2-1.02-.625-1.75s-1.156-1.406-1.156-1.406l-.063.094-.218.218-.25-.25h.25l.125-.125-.47-.093-.25-.094z" transform="translate(-183 -529)"/></svg>