<svg width="15.982" height="16" xmlns="http://www.w3.org/2000/svg"><g style="display:inline"><path d="M164.188 669c-.663 0-1.188.549-1.188 1.219v9.562c0 .67.525 1.219 1.188 1.219h9.625c.662 0 1.187-.549 1.187-1.219v-9.562c0-.67-.525-1.219-1.187-1.219zm.812 2h3v2h-1v1h-2zm5 0h3v3h-2v-1h-1zm-5 5h2v1h1v2h-3zm6 0h2v3h-3v-2h1z" style="color:#000;fill:#000;fill-opacity:1;stroke:none;stroke-width:2;marker:none;visibility:visible;display:inline;overflow:visible" transform="translate(-161 -667)"/></g></svg>