<?xml version="1.0" encoding="UTF-8" standalone="no"?>
<!-- Generator: Adobe Illustrator 17.0.1, SVG Export Plug-In . SVG Version: 6.00 Build 0)  -->

<svg
   xmlns:dc="http://purl.org/dc/elements/1.1/"
   xmlns:cc="http://creativecommons.org/ns#"
   xmlns:rdf="http://www.w3.org/1999/02/22-rdf-syntax-ns#"
   xmlns:svg="http://www.w3.org/2000/svg"
   xmlns="http://www.w3.org/2000/svg"
   xmlns:xlink="http://www.w3.org/1999/xlink"
   xmlns:sodipodi="http://sodipodi.sourceforge.net/DTD/sodipodi-0.dtd"
   xmlns:inkscape="http://www.inkscape.org/namespaces/inkscape"
   version="1.1"
   x="0px"
   y="0px"
   width="86px"
   height="86px"
   viewBox="0 0 86 86"
   enable-background="new 0 0 86 86"
   xml:space="preserve"
   id="svg2"
   inkscape:version="0.48.4 r9939"
   sodipodi:docname="poor-maps.svg"><metadata
     id="metadata49"><rdf:RDF><cc:Work
         rdf:about=""><dc:format>image/svg+xml</dc:format><dc:type
           rdf:resource="http://purl.org/dc/dcmitype/StillImage" /><dc:title /></cc:Work></rdf:RDF></metadata><defs
     id="defs47"><radialGradient
       inkscape:collect="always"
       xlink:href="#SVGID_1_"
       id="radialGradient11002"
       gradientUnits="userSpaceOnUse"
       gradientTransform="matrix(1.0021,0,0,1.0021,2.506,-0.5573)"
       cx="40.4091"
       cy="43.466"
       r="42.6105" /><radialGradient
       id="SVGID_1_"
       cx="40.4091"
       cy="43.466"
       r="42.6105"
       gradientTransform="matrix(1.0021,0,0,1.0021,2.506,-0.5573)"
       gradientUnits="userSpaceOnUse"><stop
         offset="0"
         style="stop-color:#eeeeee;stop-opacity:1;"
         id="stop9" /><stop
         offset="1"
         style="stop-color:#DADADA"
         id="stop11" /></radialGradient><radialGradient
       inkscape:collect="always"
       xlink:href="#SVGID_1_"
       id="radialGradient11008"
       gradientUnits="userSpaceOnUse"
       gradientTransform="matrix(1.0021,0,0,1.0021,2.506,-0.5573)"
       cx="40.4091"
       cy="43.466"
       r="42.6105" /></defs><sodipodi:namedview
     pagecolor="#ffffff"
     bordercolor="#666666"
     borderopacity="1"
     objecttolerance="10"
     gridtolerance="10"
     guidetolerance="10"
     inkscape:pageopacity="0"
     inkscape:pageshadow="2"
     inkscape:window-width="1920"
     inkscape:window-height="1136"
     id="namedview45"
     showgrid="false"
     inkscape:zoom="9.0813953"
     inkscape:cx="43"
     inkscape:cy="43"
     inkscape:window-x="0"
     inkscape:window-y="27"
     inkscape:window-maximized="1"
     inkscape:current-layer="svg2" /><g
     id="Layer_2"
     display="none" /><circle
     cx="43"
     cy="43"
     r="42.700001"
     id="circle13"
     style="fill:url(#radialGradient11008)"
     sodipodi:cx="43"
     sodipodi:cy="43"
     sodipodi:rx="42.700001"
     sodipodi:ry="42.700001" /><g
     transform="matrix(1.8978125,0,0,1.8978125,12.635,-1923.8211)"
     id="layer1"
     inkscape:label="Taso 1"
     style="fill:#0540ff;fill-opacity:0.66666669"><path
       id="path10143"
       transform="translate(0,1020.3622)"
       d="M 16,0 C 7.1634441,0 0,7.1634442 0,16 0,24.836556 7.1634441,32 16,32 24.836556,32 32,24.836556 32,16 32,7.1634442 24.836556,0 16,0 z m 0,5 C 22.075132,5 27,9.9248676 27,16 27,22.075132 22.075132,27 16,27 9.9248676,27 5,22.075132 5,16 5,9.9248676 9.9248676,5 16,5 z"
       style="fill:#0540ff;fill-opacity:0.66666669;stroke:#ffffff;stroke-width:0;stroke-linecap:square;stroke-miterlimit:4;stroke-opacity:0;stroke-dasharray:none"
       inkscape:connector-curvature="0" /><path
       transform="matrix(1.5,0,0,1.7142857,-6.5,1011.5051)"
       d="m 19,14.5 c 0,1.932997 -1.790861,3.5 -4,3.5 -2.209139,0 -4,-1.567003 -4,-3.5 0,-1.932997 1.790861,-3.5 4,-3.5 2.209139,0 4,1.567003 4,3.5 z"
       sodipodi:ry="3.5"
       sodipodi:rx="4"
       sodipodi:cy="14.5"
       sodipodi:cx="15"
       id="path10139"
       style="fill:#0540ff;fill-opacity:0.66666669;stroke:#ffffff;stroke-width:0;stroke-linecap:square;stroke-miterlimit:4;stroke-opacity:0;stroke-dasharray:none"
       sodipodi:type="arc" /></g></svg>
