<?xml version="1.0" encoding="UTF-8" standalone="no"?>
<!-- Generator: Adobe Illustrator 17.0.1, SVG Export Plug-In . SVG Version: 6.00 Build 0)  -->

<svg
   xmlns:dc="http://purl.org/dc/elements/1.1/"
   xmlns:cc="http://creativecommons.org/ns#"
   xmlns:rdf="http://www.w3.org/1999/02/22-rdf-syntax-ns#"
   xmlns:svg="http://www.w3.org/2000/svg"
   xmlns="http://www.w3.org/2000/svg"
   xmlns:xlink="http://www.w3.org/1999/xlink"
   xmlns:sodipodi="http://sodipodi.sourceforge.net/DTD/sodipodi-0.dtd"
   xmlns:inkscape="http://www.inkscape.org/namespaces/inkscape"
   version="1.1"
   x="0px"
   y="0px"
   width="86px"
   height="86px"
   viewBox="0 0 86 86"
   enable-background="new 0 0 86 86"
   xml:space="preserve"
   id="svg2"
   inkscape:version="0.48.4 r9939"
   sodipodi:docname="poor-maps.svg"><metadata
     id="metadata25"><rdf:RDF><cc:Work
         rdf:about=""><dc:format>image/svg+xml</dc:format><dc:type
           rdf:resource="http://purl.org/dc/dcmitype/StillImage" /><dc:title /></cc:Work></rdf:RDF></metadata><defs
     id="defs23"><radialGradient
       gradientUnits="userSpaceOnUse"
       gradientTransform="matrix(0.9977,0,0,0.9977,-0.1211,-0.1227)"
       r="42.7984"
       cy="43.2221"
       cx="43.2205"
       id="SVGID_1_"><stop
         id="stop7"
         style="stop-color:#62ba52;stop-opacity:1;"
         offset="0" /><stop
         id="stop9"
         style="stop-color:#8acc7d;stop-opacity:1;"
         offset="1" /></radialGradient><radialGradient
       inkscape:collect="always"
       xlink:href="#SVGID_1_"
       id="radialGradient10165"
       gradientUnits="userSpaceOnUse"
       gradientTransform="matrix(0.9977,0,0,0.9977,-0.1211,-0.1227)"
       cx="43.220501"
       cy="43.222099"
       r="42.798401" /><linearGradient
       id="linearGradient12438"><stop
         id="stop12440"
         offset="0"
         style="stop-color:#eeeeee;stop-opacity:1;" /><stop
         id="stop12442"
         offset="1"
         style="stop-color:#ffffff;stop-opacity:1;" /></linearGradient></defs><sodipodi:namedview
     pagecolor="#ffffff"
     bordercolor="#666666"
     borderopacity="1"
     objecttolerance="10"
     gridtolerance="10"
     guidetolerance="10"
     inkscape:pageopacity="0"
     inkscape:pageshadow="2"
     inkscape:window-width="1920"
     inkscape:window-height="1143"
     id="namedview21"
     showgrid="false"
     inkscape:zoom="4.5406977"
     inkscape:cx="-25.271447"
     inkscape:cy="43"
     inkscape:window-x="0"
     inkscape:window-y="27"
     inkscape:window-maximized="1"
     inkscape:current-layer="svg2" /><g
     id="Layer_2"
     display="none" /><path
     inkscape:connector-curvature="0"
     style="fill:url(#radialGradient10165);fill-opacity:1.0"
     id="path11"
     d="m 85.7,84.277 c 0,0.786 -0.637,1.423 -1.423,1.423 H 1.723 C 0.937,85.7 0.3,85.063 0.3,84.277 V 1.723 C 0.3,0.937 0.937,0.3 1.723,0.3 h 82.553 c 0.786,0 1.423,0.637 1.423,1.423 v 82.554 z" /><g
     style="display:none"
     id="Layer_2-8"
     display="none"
     transform="translate(-70.74904,25.822023)" /><path
     inkscape:connector-curvature="0"
     style="fill:url(#radialGradient12444);fill-opacity:1"
     id="path11-1"
     d="m 14.95096,110.09902 c 0,0.786 -0.637,1.423 -1.423,1.423 h -82.554 c -0.786,0 -1.423,-0.637 -1.423,-1.423 V 27.545023 c 0,-0.786 0.637,-1.423 1.423,-1.423 h 82.553 c 0.786,0 1.423,0.637 1.423,1.423 v 82.553997 z" /><g
     transform="matrix(7.1111111,0,0,7.1111111,11,-7408.4645)"
     id="layer1"
     inkscape:label="Taso 1"
     style="fill:#ffffff;fill-opacity:1;stroke:none"><path
       inkscape:connector-curvature="0"
       id="path11600"
       transform="translate(0,1043.3622)"
       style="fill:#ffffff;fill-opacity:1;stroke:none"
       d="M 2,0 9,0 9,9 8,9 8,1 3,1 3,2 5,2 5,3 2,3 z M 2,7 3,7 3,5 7,5 7,2 6,2 6,4 2,4 z M 0,0 0,9 7,9 7,6 4,6 4,7 6,7 6,8 1,8 1,0 z" /></g></svg>
