<?xml version="1.0" encoding="UTF-8" standalone="no"?>
<!-- Generator: Adobe Illustrator 17.0.1, SVG Export Plug-In . SVG Version: 6.00 Build 0)  -->

<svg
   xmlns:dc="http://purl.org/dc/elements/1.1/"
   xmlns:cc="http://creativecommons.org/ns#"
   xmlns:rdf="http://www.w3.org/1999/02/22-rdf-syntax-ns#"
   xmlns:svg="http://www.w3.org/2000/svg"
   xmlns="http://www.w3.org/2000/svg"
   xmlns:xlink="http://www.w3.org/1999/xlink"
   xmlns:sodipodi="http://sodipodi.sourceforge.net/DTD/sodipodi-0.dtd"
   xmlns:inkscape="http://www.inkscape.org/namespaces/inkscape"
   version="1.1"
   x="0px"
   y="0px"
   width="86px"
   height="86px"
   viewBox="0 0 86 86"
   enable-background="new 0 0 86 86"
   xml:space="preserve"
   id="svg2"
   inkscape:version="0.48.4 r9939"
   sodipodi:docname="poor-maps.svg"
   inkscape:export-xdpi="90"
   inkscape:export-ydpi="90"><metadata
     id="metadata31"><rdf:RDF><cc:Work
         rdf:about=""><dc:format>image/svg+xml</dc:format><dc:type
           rdf:resource="http://purl.org/dc/dcmitype/StillImage" /><dc:title /></cc:Work></rdf:RDF></metadata><defs
     id="defs29"><radialGradient
       spreadMethod="pad"
       gradientUnits="userSpaceOnUse"
       gradientTransform="matrix(1,0,0,0.944618,0,35.19316)"
       r="514.64319"
       fy="635.46252"
       fx="753.26636"
       cy="635.46252"
       cx="753.26636"
       id="radialGradient2782"
       xlink:href="#linearGradient2776"
       inkscape:collect="always" /><linearGradient
       y2="73.1937"
       x2="73.1935"
       y1="12.8066"
       x1="12.8064"
       gradientUnits="userSpaceOnUse"
       id="SVGID_1_"><stop
         id="stop7"
         style="stop-color:#e3e3e3;stop-opacity:1;"
         offset="0.0054" /><stop
         id="stop9"
         style="stop-color:#c5c5c5;stop-opacity:1;"
         offset="1" /></linearGradient><linearGradient
       inkscape:collect="always"
       xlink:href="#SVGID_1_"
       id="linearGradient11029"
       gradientUnits="userSpaceOnUse"
       x1="12.8064"
       y1="12.8066"
       x2="73.193497"
       y2="73.193703" /></defs><sodipodi:namedview
     pagecolor="#ffffff"
     bordercolor="#666666"
     borderopacity="1"
     objecttolerance="10"
     gridtolerance="10"
     guidetolerance="10"
     inkscape:pageopacity="0"
     inkscape:pageshadow="2"
     inkscape:window-width="1920"
     inkscape:window-height="1143"
     id="namedview27"
     showgrid="false"
     inkscape:zoom="10.807962"
     inkscape:cx="43"
     inkscape:cy="43"
     inkscape:window-x="0"
     inkscape:window-y="27"
     inkscape:window-maximized="1"
     inkscape:current-layer="svg2"
     inkscape:snap-global="false"><inkscape:grid
       type="xygrid"
       id="grid10914" /></sodipodi:namedview><g
     id="Layer_2"
     display="none" /><circle
     sodipodi:ry="42.700001"
     sodipodi:rx="42.700001"
     sodipodi:cy="43"
     sodipodi:cx="43"
     style="fill:url(#linearGradient11029);fill-opacity:1.0"
     id="circle11"
     r="42.700001"
     cy="43"
     cx="43" /><path
     sodipodi:type="arc"
     style="fill:#ffffff;fill-opacity:1;stroke:none"
     id="path11039"
     sodipodi:cx="3.4059784"
     sodipodi:cy="25.547655"
     sodipodi:rx="21.594021"
     sodipodi:ry="22.636917"
     d="m 24.999999,25.547655 a 21.594021,22.636917 0 1 1 -43.188041,0 21.594021,22.636917 0 1 1 43.188041,0 z"
     transform="matrix(1.4818917,0,0,1.4136201,37.952709,6.8853212)" /><path
     style="fill:#88ca7b;fill-opacity:1;stroke:none"
     d="m 43,11 c -7.929806,0 -15.190726,2.879431 -20.78125,7.65625 L 30.0625,26.5 C 33.633056,23.693189 38.105982,22 43,22 c 4.903157,0 9.395017,1.683711 12.96875,4.5 l 7.8125,-7.8125 C 58.18869,13.902947 50.936967,11 43,11 z"
     id="path11049" /><path
     style="fill:#88817f;fill-opacity:1;stroke:none"
     d="M 18.65625,22.21875 C 13.879431,27.809274 11,35.070194 11,43 c 0,7.936967 2.902947,15.18869 7.6875,20.78125 L 26.5,55.96875 C 23.683711,52.395017 22,47.903157 22,43 c 0,-4.894018 1.693189,-9.366944 4.5,-12.9375 l -7.84375,-7.84375 z"
     id="path11047" /><path
     style="fill:#88817f;fill-opacity:1;stroke:none"
     d="M 67.3125,22.21875 59.5,30.03125 C 62.316289,33.604983 64,38.096843 64,43 c 0,4.894018 -1.693189,9.366944 -4.5,12.9375 l 7.84375,7.84375 C 72.120569,58.190726 75,50.929806 75,43 75,35.063033 72.097053,27.81131 67.3125,22.21875 z"
     id="path11045" /><path
     style="fill:#88817f;fill-opacity:1;stroke:none"
     d="m 30.03125,59.5 -7.8125,7.8125 C 27.81131,72.097053 35.063033,75 43,75 50.929806,75 58.190726,72.120569 63.78125,67.34375 L 55.9375,59.5 C 52.366944,62.306811 47.894018,64 43,64 38.096843,64 33.604983,62.316289 30.03125,59.5 z"
     id="path10152" /><path
     style="fill:#88817f;fill-opacity:1;stroke:none"
     d="m 43,27 c -3.510322,0 -6.736921,1.145792 -9.375,3.0625 l 7.3125,7.3125 C 41.580777,37.139465 42.275126,37 43,37 c 0.724874,0 1.419223,0.139465 2.0625,0.375 l 7.34375,-7.3125 C 49.764602,28.137001 46.519158,27 43,27 z"
     id="path11057" /><path
     style="fill:#ffffff;fill-opacity:1;stroke:none"
     d="M 55.9375,33.59375 48.625,40.9375 C 48.860535,41.580777 49,42.275126 49,43 c 0,0.724874 -0.139465,1.419223 -0.375,2.0625 l 7.3125,7.3125 C 57.854208,49.736921 59,46.510322 59,43 59,39.480842 57.862999,36.235398 55.9375,33.59375 z"
     id="path11055" /><path
     style="fill:#3ed9eb;fill-opacity:1;stroke:none"
     d="M 30.0625,33.625 C 28.145792,36.263079 27,39.489678 27,43 c 0,3.510322 1.145792,6.736921 3.0625,9.375 L 37.375,45.0625 C 37.139465,44.419223 37,43.724874 37,43 c 0,-0.724874 0.139465,-1.419223 0.375,-2.0625 L 30.0625,33.625 z"
     id="path11053" /><path
     style="fill:#88817f;fill-opacity:1;stroke:none"
     d="M 40.9375,48.625 33.625,55.9375 C 36.263079,57.854208 39.489678,59 43,59 c 3.510322,0 6.736921,-1.145792 9.375,-3.0625 L 45.0625,48.625 C 44.419223,48.860535 43.724874,49 43,49 42.275126,49 41.580777,48.860535 40.9375,48.625 z"
     id="path10154-9" /></svg>