<?xml version="1.0" encoding="UTF-8" standalone="no"?>
<!-- Generator: Adobe Illustrator 17.0.1, SVG Export Plug-In . SVG Version: 6.00 Build 0)  -->

<svg
   xmlns:dc="http://purl.org/dc/elements/1.1/"
   xmlns:cc="http://creativecommons.org/ns#"
   xmlns:rdf="http://www.w3.org/1999/02/22-rdf-syntax-ns#"
   xmlns:svg="http://www.w3.org/2000/svg"
   xmlns="http://www.w3.org/2000/svg"
   xmlns:xlink="http://www.w3.org/1999/xlink"
   xmlns:sodipodi="http://sodipodi.sourceforge.net/DTD/sodipodi-0.dtd"
   xmlns:inkscape="http://www.inkscape.org/namespaces/inkscape"
   version="1.1"
   x="0px"
   y="0px"
   width="86px"
   height="86px"
   viewBox="0 0 86 86"
   enable-background="new 0 0 86 86"
   xml:space="preserve"
   id="svg2"
   inkscape:version="0.92+devel (177a8e8, 2017-12-08)"
   sodipodi:docname="pure-maps.svg">
  <metadata
   id="metadata49">
    <rdf:RDF>
      <cc:Work
   rdf:about="">
        <dc:format>image/svg+xml</dc:format>
        <dc:type
   rdf:resource="http://purl.org/dc/dcmitype/StillImage" />
        <dc:title />
      </cc:Work>
    </rdf:RDF>
  </metadata>
  <defs
   id="defs47">
    <radialGradient
   id="SVGID_1_"
   cx="40.4091"
   cy="43.466"
   r="42.6105"
   gradientTransform="matrix(1.0021,0,0,1.0021,2.506,-0.5573)"
   gradientUnits="userSpaceOnUse">
      <stop
   offset="0"
   style="stop-color:#eeeeee;stop-opacity:1;"
   id="stop9" />
      <stop
   offset="1"
   style="stop-color:#dadada"
   id="stop11" />
    </radialGradient>
    <radialGradient
   inkscape:collect="always"
   xlink:href="#SVGID_1_"
   id="radialGradient946"
   cx="43"
   cy="43"
   fx="43"
   fy="43"
   r="42.700001"
   gradientUnits="userSpaceOnUse" />
  </defs>
  <sodipodi:namedview
   pagecolor="#ffffff"
   bordercolor="#666666"
   borderopacity="1"
   objecttolerance="10"
   gridtolerance="10"
   guidetolerance="10"
   inkscape:pageopacity="0"
   inkscape:pageshadow="2"
   inkscape:window-width="1920"
   inkscape:window-height="1136"
   id="namedview45"
   showgrid="true"
   inkscape:zoom="10.627907"
   inkscape:cx="43"
   inkscape:cy="43"
   inkscape:window-x="0"
   inkscape:window-y="27"
   inkscape:window-maximized="1"
   inkscape:current-layer="svg2"
   inkscape:showpageshadow="false"
   inkscape:document-rotation="0">
    <inkscape:grid
   type="xygrid"
   id="grid10146"
   empspacing="10"
   visible="true"
   enabled="true"
   snapvisiblegridlinesonly="true" />
  </sodipodi:namedview>
  <g
   id="Layer_2"
   display="none" />
  <path
   style="fill:url(#radialGradient946);fill-opacity:1.0;stroke:none"
   id="path25"
   d="m 85.699,1.723 c 0,-0.786 -0.637,-1.423 -1.423,-1.423 0,0 -40.641,0 -41.276,0 C 19.417,0.3 0.3,19.417 0.3,43 0.3,66.582 19.417,85.7 43,85.7 66.583,85.7 85.7,66.582 85.7,43 85.7,42.364 85.699,1.723 85.699,1.723 Z"
   fill="url(#SVGID_1_)"
   inkscape:connector-curvature="0" />
  <g
   id="g10914"
   style="fill:#0540ff;fill-opacity:0.62745098"
   transform="matrix(0.89463737,0.89463737,-0.89463737,0.89463737,941.53994,-898.48254)">
    <path
   inkscape:connector-curvature="0"
   id="path10143-5"
   d="M 24.000003,993.71127 C 9.4689762,1008.2423 0,1015.1074 0,1028.3622 c 0,13.2548 10.745166,24 24,24 13.254834,0 24,-10.7452 24,-24 0,-13.2548 -9.468969,-20.1199 -23.999997,-34.65093 z M 24,1011.8622 c 9.112698,0 16.5,7.3873 16.5,16.5 0,9.1127 -7.387302,16.5 -16.5,16.5 -9.112699,0 -16.5,-7.3873 -16.5,-16.5 0,-9.1127 7.387301,-16.5 16.5,-16.5 z"
   style="fill:#0540ff;fill-opacity:0.62745098;stroke:#ffffff;stroke-width:0;stroke-linecap:square;stroke-miterlimit:4;stroke-dasharray:none;stroke-opacity:0"
   sodipodi:nodetypes="cssscsssss" />
    <ellipse
   transform="matrix(2.25,0,0,2.5714286,-9.75,991.07655)"
   id="path10139-3"
   style="fill:#0540ff;fill-opacity:0.62745098;stroke:#ffffff;stroke-width:0;stroke-linecap:square;stroke-miterlimit:4;stroke-dasharray:none;stroke-opacity:0"
   cx="15"
   cy="14.5"
   rx="4"
   ry="3.5" />
  </g>
  <g
   id="Layer_2-3"
   display="none">
  </g>
</svg>
