<?xml version="1.0" encoding="UTF-8" standalone="no"?>
<!-- Created with Inkscape (http://www.inkscape.org/) -->

<svg
   xmlns:dc="http://purl.org/dc/elements/1.1/"
   xmlns:cc="http://creativecommons.org/ns#"
   xmlns:rdf="http://www.w3.org/1999/02/22-rdf-syntax-ns#"
   xmlns:svg="http://www.w3.org/2000/svg"
   xmlns="http://www.w3.org/2000/svg"
   xmlns:xlink="http://www.w3.org/1999/xlink"
   xmlns:sodipodi="http://sodipodi.sourceforge.net/DTD/sodipodi-0.dtd"
   xmlns:inkscape="http://www.inkscape.org/namespaces/inkscape"
   width="86"
   height="86"
   id="svg2"
   version="1.1"
   inkscape:version="0.92.4 5da689c313, 2019-01-14"
   sodipodi:docname="icon-puremaps.svg"
   inkscape:export-filename="/home/mo/Dokumente/Pure Maps/new/icon-puremaps.png"
   inkscape:export-xdpi="334.88373"
   inkscape:export-ydpi="334.88373">
  <defs
     id="defs4">
    <linearGradient
       inkscape:collect="always"
       id="linearGradient870">
      <stop
         style="stop-color:#0559ff;stop-opacity:1"
         offset="0"
         id="stop866" />
      <stop
         style="stop-color:#0533ff;stop-opacity:1"
         offset="1"
         id="stop868" />
    </linearGradient>
    <linearGradient
       id="linearGradient3789-6">
      <stop
         id="stop851"
         offset="0"
         style="stop-color:#1e9bff;stop-opacity:1;" />
      <stop
         id="stop853"
         offset="1"
         style="stop-color:#00c8de;stop-opacity:1;" />
    </linearGradient>
    <linearGradient
       id="linearGradient3789-6-3">
      <stop
         style="stop-color:#b3b3b3;stop-opacity:1"
         offset="0"
         id="stop3791-0" />
      <stop
         style="stop-color:#e6e6e6;stop-opacity:1"
         offset="1"
         id="stop3793-4" />
    </linearGradient>
    <linearGradient
       gradientTransform="translate(0,4)"
       y2="0"
       x2="86"
       y1="73"
       x1="12"
       gradientUnits="userSpaceOnUse"
       id="linearGradient3830"
       xlink:href="#linearGradient3789-6-3"
       inkscape:collect="always" />
    <linearGradient
       inkscape:collect="always"
       xlink:href="#linearGradient870"
       id="linearGradient874"
       x1="10"
       y1="80"
       x2="77"
       y2="13"
       gradientUnits="userSpaceOnUse" />
  </defs>
  <sodipodi:namedview
     id="base"
     pagecolor="#ffffff"
     bordercolor="#666666"
     borderopacity="1.0"
     inkscape:pageopacity="0.0"
     inkscape:pageshadow="2"
     inkscape:zoom="9.4031007"
     inkscape:cx="41.822776"
     inkscape:cy="43.954322"
     inkscape:document-units="px"
     inkscape:current-layer="layer2"
     showgrid="true"
     inkscape:window-width="2880"
     inkscape:window-height="1506"
     inkscape:window-x="0"
     inkscape:window-y="1050"
     inkscape:window-maximized="1"
     inkscape:snap-bbox="true"
     inkscape:snap-global="true">
    <inkscape:grid
       type="xygrid"
       id="grid2985"
       empspacing="5"
       visible="true"
       enabled="true"
       snapvisiblegridlinesonly="true" />
  </sodipodi:namedview>
  <metadata
     id="metadata7">
    <rdf:RDF>
      <cc:Work
         rdf:about="">
        <dc:format>image/svg+xml</dc:format>
        <dc:type
           rdf:resource="http://purl.org/dc/dcmitype/StillImage" />
        <dc:title></dc:title>
      </cc:Work>
    </rdf:RDF>
  </metadata>
  <g
     inkscape:groupmode="layer"
     id="layer2"
     inkscape:label="Ebene"
     style="display:inline"
     transform="translate(0,-4)">
    <path
       inkscape:connector-curvature="0"
       style="fill:url(#linearGradient3830);fill-opacity:1"
       id="path13"
       d="m 85.699,5.723 c 0,-0.786 -0.637,-1.423 -1.423,-1.423 0,0 -40.641,0 -41.276,0 C 19.417,4.3 0.3,23.417 0.3,47 0.3,70.582 19.417,89.7 43,89.7 66.583,89.7 85.7,70.582 85.7,47 85.7,46.364 85.699,5.723 85.699,5.723 z" />
    <path
       sodipodi:nodetypes="cssscsssss"
       style="display:inline;fill:url(#linearGradient874);fill-opacity:1;stroke:#ffffff;stroke-width:0;stroke-linecap:square;stroke-miterlimit:4;stroke-dasharray:none;stroke-opacity:0"
       d="M 76.888856,12.83497 C 49.17781,13.790523 32.221322,11.635942 19.555654,24.301613 c -12.66567,12.665668 -12.6657019,33.200862 0,45.866562 12.6657,12.665702 33.200892,12.665671 45.866561,0 C 78.087886,57.502506 75.933303,40.546021 76.888856,12.83497 Z M 58.255565,31.468261 c 8.707669,8.707666 8.707672,22.825591 0,31.533263 -8.707672,8.707674 -22.825593,8.707665 -31.533261,0 -8.707672,-8.707671 -8.707673,-22.825589 0,-31.533262 8.707669,-8.707671 22.825591,-8.70767 31.533261,-1e-6 z"
       id="path10143"
       inkscape:connector-curvature="0"
       inkscape:transform-center-x="-0.86776733"
       inkscape:transform-center-y="-1.157023" />
    <path
       style="display:inline;opacity:1;fill:#ffffff;fill-opacity:1;stroke:#ffffff;stroke-width:0;stroke-linecap:square;stroke-miterlimit:4;stroke-dasharray:none;stroke-opacity:0"
       d="m 42.489298,24.937168 c -5.706396,0 -11.412576,2.177683 -15.766411,6.531518 -8.707673,8.707669 -8.707671,22.825159 0,31.532822 8.707669,8.707674 22.825151,8.707674 31.532825,0 8.707669,-8.707663 8.707668,-22.825153 0,-31.532822 -4.353836,-4.353835 -10.060015,-6.531518 -15.766414,-6.531518 z"
       id="path10143-6"
       inkscape:connector-curvature="0"
       inkscape:transform-center-x="0.11555738"
       inkscape:transform-center-y="-0.17351223" />
    <path
       style="display:inline;fill:#0540ff;fill-opacity:1;stroke:#ffffff;stroke-width:0;stroke-linecap:square;stroke-miterlimit:4;stroke-dasharray:none;stroke-opacity:0"
       d="m 51.088817,55.83497 a 12.162209,12.162209 0 0 1 -17.199961,0 12.162209,12.162209 0 0 1 0,-17.19996 12.162209,12.162209 0 0 1 17.199961,0 12.162209,12.162209 0 0 1 0,17.19996 z"
       id="path10139"
       inkscape:connector-curvature="0"
       inkscape:transform-center-x="0.11601907"
       inkscape:transform-center-y="-0.17323798" />
  </g>
</svg>
