<svg xmlns="http://www.w3.org/2000/svg" width="64" height="64" style="enable-background:new 0 0 64 64" xml:space="preserve"><path style="opacity:.6;fill:#000;fill-opacity:1;stroke:none;stroke-width:0;stroke-linecap:butt;stroke-linejoin:miter;stroke-miterlimit:4;stroke-dasharray:none;stroke-opacity:1;paint-order:stroke markers fill" d="M32 5A27 27 0 0 0 5 32a27 27 0 0 0 27 27 27 27 0 0 0 27-27A27 27 0 0 0 32 5zm0 1.934A25.065 25.065 0 0 1 57.066 32 25.065 25.065 0 0 1 32 57.066 25.065 25.065 0 0 1 6.934 32 25.065 25.065 0 0 1 32 6.934z"/><path style="fill:#000;fill-opacity:1;stroke-width:1.5909903;stroke-linecap:round;stroke-linejoin:round" d="M32 18.5A13.5 13.5 0 0 0 18.5 32 13.5 13.5 0 0 0 32 45.5 13.5 13.5 0 0 0 45.5 32 13.5 13.5 0 0 0 32 18.5zm0 2.006A11.494 11.494 0 0 1 43.494 32 11.494 11.494 0 0 1 32 43.494 11.494 11.494 0 0 1 20.506 32 11.494 11.494 0 0 1 32 20.506z"/></svg>