<svg xmlns="http://www.w3.org/2000/svg" width="64" height="64" style="enable-background:new 0 0 64 64" xml:space="preserve"><path style="opacity:.6;fill:#000;fill-opacity:1;stroke:none;stroke-width:0;stroke-linecap:butt;stroke-linejoin:miter;stroke-miterlimit:4;stroke-dasharray:none;stroke-opacity:1;paint-order:stroke markers fill" d="M37.813 41.613c-.391.537-.76 1.035-1.149 1.563 3.597.714 5.877 2.188 5.883 3.803.001 2.345-4.721 4.247-10.547 4.248-5.826 0-10.548-1.903-10.547-4.248.002-1.594 2.22-3.054 5.744-3.78-.364-.515-.71-1-1.095-1.562-4.497 1.013-7.343 3.09-7.35 5.365 0 3.315 5.931 6.002 13.248 6.002 7.317 0 13.248-2.687 13.248-6.002-.004-2.292-2.889-4.383-7.435-5.389z"/><path style="opacity:1;fill:#000;fill-opacity:1;stroke:none;stroke-width:1.30650985;stroke-miterlimit:4;stroke-dasharray:none;stroke-dashoffset:0;stroke-opacity:.50196078" d="M32.006 5c-9.276 0-15.77 6.492-15.77 15.768 0 7.183 10.014 21.417 13.797 26.296l.072.092c1.185 1.423 3.106.875 3.606.037l.049-.066c5.984-8.162 14.19-18.437 14.013-26.36C47.773 11.493 41.281 5 32.006 5Zm.015 2.19c7.921 0 13.448 6.077 13.448 13.997.15 6.766-6.853 15.538-11.963 22.508l-.586.8c-.578.816-1.381.816-1.934-.013-2.475-3.024-12.445-16.67-12.445-23.294 0-7.921 5.56-13.999 13.48-13.999z"/><path style="opacity:.6;fill:#000;fill-opacity:1;stroke:none;stroke-width:0;stroke-linecap:butt;stroke-linejoin:miter;stroke-miterlimit:4;stroke-dasharray:none;stroke-opacity:1;paint-order:stroke markers fill" d="M22.637 36.271c-8.438 1.817-14.358 6-14.362 10.885v.004c.005 6.551 10.628 11.861 23.73 11.861 13.104 0 23.725-5.31 23.73-11.86v-.005c-.004-4.856-5.856-9.016-14.215-10.85-.356.541-.724 1.076-1.092 1.614 7.399 1.539 12.579 5.03 12.582 9.105v.004c-.004 5.498-9.406 9.955-21.004 9.955-11.599 0-21.002-4.457-21.006-9.955v-.004c.003-4.087 5.21-7.589 12.643-9.12-.34-.534-.671-1.085-1.006-1.634z"/></svg>