<svg width="64" height="64" xmlns="http://www.w3.org/2000/svg"><path style="opacity:.6;fill:#000;fill-opacity:1;stroke:none;stroke-width:0;stroke-linecap:butt;stroke-linejoin:miter;stroke-miterlimit:4;stroke-dasharray:none;stroke-opacity:1;paint-order:stroke markers fill" d="M24.508 16.5a8.542 8.542 0 0 0-7.375 4.252A8.425 8.425 0 0 0 16.003 25H16v9.645l1-1.065 1 1.065V25a6.447 6.447 0 0 1 .867-3.248 6.533 6.533 0 0 1 5.64-3.252c1.136 0 2.255.3 3.243.871a6.457 6.457 0 0 1 3.031 3.947c.15.557.216 1.12.218 1.401L31 40c.006 2.933 1.522 5.786 4.242 7.355a8.512 8.512 0 0 0 4.246 1.141 8.538 8.538 0 0 0 7.375-4.25A8.44 8.44 0 0 0 48 40V25.455c-.33.026-.663.045-1 .045-.335 0-.669-.017-1-.043V40a6.459 6.459 0 0 1-.871 3.246 6.53 6.53 0 0 1-5.64 3.25A6.495 6.495 0 0 1 32.997 40H33V25a8.44 8.44 0 0 0-4.25-7.36 8.492 8.492 0 0 0-4.242-1.14Z"/><path style="color:#000;fill:#000;stroke-width:0;stroke-linecap:square;-inkscape-stroke:none" d="M44.66 1012.585a3.66 3.66 0 0 1-3.66 3.66 3.66 3.66 0 0 1-3.66-3.66 3.66 3.66 0 0 1 3.66-3.66 3.66 3.66 0 0 1 3.66 3.66z" transform="translate(-24 -964.362)"/><path style="color:#000;fill:#fff;fill-opacity:0;stroke-linecap:square;-inkscape-stroke:none" d="M44.66 1012.585a3.66 3.66 0 1 1-7.32 0 3.66 3.66 0 0 1 7.32 0z" fill="none" transform="translate(-24 -964.362)"/><path style="color:#000;fill:#000;stroke-width:0;stroke-linecap:square;-inkscape-stroke:none" d="M41 997.941c-5.695 6.102-9.762 9.252-9.762 14.644 0 5.391 4.37 9.762 9.762 9.762s9.762-4.37 9.762-9.762-4.067-8.542-9.762-14.644zm0 7.932a6.712 6.712 0 1 1 0 13.424 6.712 6.712 0 0 1 0-13.424z" transform="translate(-24 -964.362)"/><path style="color:#000;fill:#fff;fill-opacity:0;stroke-linecap:square;-inkscape-stroke:none" d="M41 997.941c-5.695 6.102-9.762 9.252-9.762 14.644 0 5.391 4.37 9.762 9.762 9.762s9.762-4.37 9.762-9.762-4.067-8.542-9.762-14.644zm0 7.932a6.712 6.712 0 1 1 0 13.424 6.712 6.712 0 0 1 0-13.424z" fill="none" transform="translate(-24 -964.362)"/><path d="M71 989.885a8.497 8.497 0 0 1-4.242-1.14c-4.058-2.343-5.453-7.55-3.11-11.609a8.528 8.528 0 0 1 7.366-4.25c1.484 0 2.951.394 4.242 1.14a8.435 8.435 0 0 1 3.961 5.16 8.442 8.442 0 0 1-.85 6.45 8.527 8.527 0 0 1-7.367 4.25zm.014-15a6.523 6.523 0 0 0-5.634 3.251 6.505 6.505 0 0 0 2.378 8.877 6.488 6.488 0 0 0 3.242.872 6.522 6.522 0 0 0 5.635-3.25 6.455 6.455 0 0 0 .65-4.932 6.454 6.454 0 0 0-3.029-3.946 6.483 6.483 0 0 0-3.242-.872z" style="opacity:1;fill:#000" transform="translate(-24 -964.362)"/></svg>