<svg width="64" height="64" xmlns="http://www.w3.org/2000/svg"><path style="opacity:.6;fill:#000;fill-opacity:1;stroke:none;stroke-width:0;stroke-linecap:butt;stroke-linejoin:miter;stroke-miterlimit:4;stroke-dasharray:none;stroke-opacity:1;paint-order:stroke markers fill" d="M62.24 1014.37c3.032 0 5.86-1.63 7.375-4.252a8.425 8.425 0 0 0 1.129-4.248h.004v-9.644l-1 1.064-1-1.064v9.644a6.447 6.447 0 0 1-.867 3.248 6.534 6.534 0 0 1-5.641 3.252c-1.135 0-2.254-.3-3.242-.87a6.457 6.457 0 0 1-3.031-3.948 6.318 6.318 0 0 1-.218-1.401l-.001-15.28c-.006-2.933-1.522-5.787-4.242-7.356a8.512 8.512 0 0 0-4.246-1.14 8.538 8.538 0 0 0-7.375 4.25 8.44 8.44 0 0 0-1.137 4.245v14.545c.33-.026.663-.045 1-.045.335 0 .669.017 1 .043V990.87a6.457 6.457 0 0 1 .871-3.246 6.53 6.53 0 0 1 5.64-3.25 6.495 6.495 0 0 1 6.49 6.496h-.001v15a8.44 8.44 0 0 0 4.25 7.36 8.492 8.492 0 0 0 4.242 1.14z" transform="translate(-24 -964.362)"/><path style="color:#000;fill:#000;stroke-width:0;stroke-linecap:square;-inkscape-stroke:none" d="M73.409 987.529a3.66 3.66 0 0 1-3.661 3.66 3.66 3.66 0 0 1-3.661-3.66 3.66 3.66 0 0 1 3.66-3.661 3.66 3.66 0 0 1 3.662 3.66z" transform="translate(-24 -964.362)"/><path style="color:#000;fill:#fff;fill-opacity:0;stroke-linecap:square;-inkscape-stroke:none" d="M73.409 987.529a3.66 3.66 0 1 1-7.322 0 3.66 3.66 0 0 1 7.322 0z" fill="none" transform="translate(-24 -964.362)"/><path style="color:#000;fill:#000;stroke-width:0;stroke-linecap:square;-inkscape-stroke:none" d="M69.748 972.885c-5.695 6.102-9.762 9.252-9.762 14.644 0 5.391 4.37 9.762 9.762 9.762 5.391 0 9.762-4.37 9.762-9.762s-4.067-8.542-9.762-14.644zm0 7.932a6.712 6.712 0 1 1 0 13.424 6.712 6.712 0 0 1 0-13.424z" transform="translate(-24 -964.362)"/><path style="color:#000;fill:#fff;fill-opacity:0;stroke-linecap:square;-inkscape-stroke:none" d="M69.748 972.885c-5.695 6.102-9.762 9.252-9.762 14.644 0 5.391 4.37 9.762 9.762 9.762 5.391 0 9.762-4.37 9.762-9.762s-4.067-8.542-9.762-14.644zm0 7.932a6.712 6.712 0 1 1 0 13.424 6.712 6.712 0 0 1 0-13.424z" fill="none" transform="translate(-24 -964.362)"/><path d="M39.748 1005.347c1.483 0 2.95.394 4.242 1.14 4.058 2.343 5.453 7.551 3.11 11.61a8.528 8.528 0 0 1-7.366 4.25 8.492 8.492 0 0 1-4.242-1.14 8.435 8.435 0 0 1-3.961-5.16 8.442 8.442 0 0 1 .85-6.45 8.527 8.527 0 0 1 7.367-4.25zm-.014 15a6.523 6.523 0 0 0 5.634-3.25 6.505 6.505 0 0 0-2.378-8.878 6.488 6.488 0 0 0-3.242-.872 6.522 6.522 0 0 0-5.635 3.25 6.455 6.455 0 0 0-.65 4.932 6.454 6.454 0 0 0 3.029 3.946 6.483 6.483 0 0 0 3.242.872z" style="opacity:1;fill:#000" transform="translate(-24 -964.362)"/></svg>