<?xml version="1.0" encoding="UTF-8" standalone="no"?>
<svg
   xmlns:dc="http://purl.org/dc/elements/1.1/"
   xmlns:cc="http://creativecommons.org/ns#"
   xmlns:rdf="http://www.w3.org/1999/02/22-rdf-syntax-ns#"
   xmlns:svg="http://www.w3.org/2000/svg"
   xmlns="http://www.w3.org/2000/svg"
   xmlns:sodipodi="http://sodipodi.sourceforge.net/DTD/sodipodi-0.dtd"
   xmlns:inkscape="http://www.inkscape.org/namespaces/inkscape"
   viewBox="0 0 53 52.999977"
   id="svg2"
   version="1.1"
   inkscape:version="0.91 r13725"
   sodipodi:docname="attrib.svg"
   width="53"
   height="52.999977">
  <metadata
     id="metadata10">
    <rdf:RDF>
      <cc:Work
         rdf:about="">
        <dc:format>image/svg+xml</dc:format>
        <dc:type
           rdf:resource="http://purl.org/dc/dcmitype/StillImage" />
        <dc:title></dc:title>
      </cc:Work>
    </rdf:RDF>
  </metadata>
  <defs
     id="defs8" />
  <sodipodi:namedview
     pagecolor="#ffffff"
     bordercolor="#666666"
     borderopacity="1"
     objecttolerance="10"
     gridtolerance="10"
     guidetolerance="10"
     inkscape:pageopacity="0"
     inkscape:pageshadow="2"
     inkscape:window-width="1920"
     inkscape:window-height="1016"
     id="namedview6"
     showgrid="false"
     fit-margin-top="0"
     fit-margin-left="0"
     fit-margin-right="0"
     fit-margin-bottom="0"
     inkscape:zoom="5.7747053"
     inkscape:cx="18.115159"
     inkscape:cy="12.593285"
     inkscape:window-x="0"
     inkscape:window-y="27"
     inkscape:window-maximized="1"
     inkscape:current-layer="svg2" />
  <path
     d="m 2.5,26.49999 c 0,13.254843 10.745166,23.999989 24,23.999989 13.254833,0 24,-10.745146 24,-23.999989 C 50.5,13.245147 39.754833,2.5 26.5,2.5 13.245166,2.5 2.5,13.245147 2.5,26.49999 m 20,-12 c 0,2.20914 1.790861,3.999998 4,3.999998 2.209139,0 4,-1.790858 4,-3.999998 0,-2.209141 -1.790861,-3.999999 -4,-3.999999 -2.209139,0 -4,1.790858 -4,3.999999 m 0,12 c 0,-2.209141 1.790861,-3.999999 4,-3.999999 2.209139,0 4,1.790858 4,3.999999 l 0,12 c 0,2.20914 -1.790861,3.999998 -4,3.999998 -2.209139,0 -4,-1.790858 -4,-3.999998 z"
     id="path4"
     inkscape:connector-curvature="0"
     style="fill:#ffffff;fill-opacity:0.7824859;fill-rule:evenodd;stroke:#000000;stroke-width:5;stroke-miterlimit:4;stroke-dasharray:none;stroke-opacity:0.35294118"
     sodipodi:nodetypes="csssccsssccsssscc" />
</svg>
