<svg xmlns="http://www.w3.org/2000/svg" xml:space="preserve" width="38" height="48"><g style="fill:#000;fill-opacity:.37647059;stroke:none" transform="matrix(.17998 0 0 .17998 -.9 7.802)"><g style="font-style:normal;font-variant:normal;font-weight:400;font-stretch:normal;font-size:125.015625px;line-height:125%;font-family:'DejaVu Sans Mono';-inkscape-font-specification:'DejaVu Sans Mono, Normal';font-variant-ligatures:normal;font-variant-caps:normal;font-variant-numeric:normal;font-feature-settings:normal;text-align:start;letter-spacing:0;word-spacing:0;writing-mode:lr-tb;text-anchor:start;fill:#fff;fill-opacity:.39215686;fill-rule:nonzero;stroke:none;stroke-width:5.5562501px;stroke-linecap:butt;stroke-linejoin:miter;stroke-opacity:1"><path d="M139.328 53.195c8.356 0 15.113-5.867 15.113-14.046 0-8.356-6.757-14.224-15.113-14.224-8.357 0-15.113 5.868-15.113 14.224 0 8.179 6.756 14.046 15.113 14.046zm23.47 101.88v-8.357l-8.89-1.778c-.178-8.712-.178-19.736-.178-27.203V94.089l.533-25.78-3.022-1.956-37.338 11.912V85.2l11.023 1.6c.356 7.113.534 12.624.534 22.403v8.535c0 7.467 0 18.313-.178 26.848l-9.601 2.133v8.357z" style="font-style:normal;font-variant:normal;font-weight:700;font-stretch:normal;font-size:177.80000305px;font-family:'Source Serif Pro';-inkscape-font-specification:'Source Serif Pro, Bold';font-variant-ligatures:normal;font-variant-caps:normal;font-variant-numeric:normal;font-feature-settings:normal;text-align:start;writing-mode:lr-tb;text-anchor:start;fill:#fff;fill-opacity:.39215686;fill-rule:nonzero;stroke-width:5.5562501px" transform="translate(-27.781)" aria-label="i"/></g><circle style="opacity:1;fill:none;fill-opacity:1;fill-rule:nonzero;stroke:#fff;stroke-width:19.73098183;stroke-linecap:round;stroke-linejoin:round;stroke-miterlimit:4;stroke-dasharray:none;stroke-opacity:.39215686" cx="110.569" cy="90" r="95.703"/></g></svg>