<?xml version="1.0" encoding="utf-8"?>
<!-- Generator: Adobe Illustrator 23.0.2, SVG Export Plug-In . SVG Version: 6.00 Build 0)  -->
<svg version="1.1" id="Vrstva_1" xmlns="http://www.w3.org/2000/svg" xmlns:xlink="http://www.w3.org/1999/xlink" x="0px" y="0px"
	 viewBox="0 0 812 212" style="enable-background:new 0 0 812 212;" xml:space="preserve">
<style type="text/css">
	.st0{fill:#3A1888;}
	.st1{fill:#03A1C4;}
	.st2{fill:#05D0DF;}
	.st3{fill:#761FE8;}
	.st4{fill:#FFAA01;}
	.st5{fill:#F1175D;}
	.st6{fill:#FB3A1B;}
	.st7{fill:#FBC935;}
	.st8{fill:#333359;}
</style>
<path class="st0" d="M94.3,164.2c9.2,9.2,33.8,34.3,33.8,34.3c-0.1,0.2,24.4-24.5,34.2-34.2l-34.1-34.1L94.3,164.2z"/>
<path class="st1" d="M128.3,130.2l34.1,34.1c0.1-0.1,0.1-0.1,0.2-0.2l34-34L162.5,96L128.3,130.2z"/>
<path class="st2" d="M196.6,130.1L196.6,130.1c18.9-18.9,18.9-49.4,0.1-68.3L162.5,96L196.6,130.1z"/>
<path class="st3" d="M94.1,96l-34,34c0,0,0,0,0,0l34.1,34.1c0,0,0,0,0.1,0.1l34-34L94.1,96z"/>
<path class="st4" d="M128.3,61.8L162.5,96l34.2-34.2c0,0,0,0-0.1-0.1l-34.1-34.1c0,0,0,0,0,0L128.3,61.8z"/>
<path class="st5" d="M60,61.9c-18.7,18.9-18.6,49.3,0.1,68.1l34-34L60,61.9z"/>
<path class="st6" d="M128.3,61.8L94.2,27.7l-34,34c-0.1,0.1-0.1,0.1-0.2,0.2L94.1,96L128.3,61.8z"/>
<path class="st7" d="M162.5,27.6c-18.9-18.8-49.4-18.8-68.2,0l-0.1,0.1l34.1,34.1L162.5,27.6z"/>
<path class="st8" d="M303.7,138.6v-34.9c0-8.6-4.5-16.4-13.3-16.4c-8.7,0-13.9,7.8-13.9,16.4v34.9h-16.1V73.4h14.9l1.2,7.9
	c3.4-6.6,11-9,17.2-9c7.8,0,15.6,3.2,19.3,12.2c5.8-9.2,13.3-11.9,21.8-11.9c18.5,0,27.6,11.4,27.6,30.9v35.1h-16.1v-35.1
	c0-8.6-3.6-15.9-12.3-15.9c-8.7,0-14.1,7.5-14.1,16.1v34.9H303.7z"/>
<path class="st8" d="M430.3,73.5h15.5v65.1h-15.2l-0.8-9.5c-3.7,7.7-13.9,11.4-21.1,11.5c-19.3,0.1-33.6-11.8-33.6-34.6
	c0-22.5,14.9-34.2,34-34.1c8.7,0,17,4.1,20.7,10.6L430.3,73.5z M391.2,106c0,12.4,8.6,19.8,19.3,19.8c25.4,0,25.4-39.5,0-39.5
	C399.8,86.3,391.2,93.6,391.2,106z"/>
<path class="st8" d="M459.4,165.8V73.5h15.1l1.1,9c5-7.3,13.7-10.4,21.1-10.4c20.1,0,33.4,14.9,33.4,34.1c0,19-12,34.1-32.9,34.1
	c-6.9,0-17-2.1-21.7-9.3v34.9H459.4z M514,106.1c0-10.2-6.9-18.5-18.5-18.5c-11.6,0-18.5,8.3-18.5,18.5c0,10.2,7.5,18.5,18.5,18.5
	C506.4,124.6,514,116.3,514,106.1z"/>
<path class="st8" d="M558.9,53.7v19.7h22.2v5.4h-22.2v39.8c0,8.8,1.9,15.1,12,15.1c3.2,0,6.7-1.1,10-2.6l2.2,5.3
	c-4.1,2-8.2,3.3-12.3,3.3c-13.9,0-18.4-8.2-18.4-21V78.8h-13.9v-5.4h13.9v-19L558.9,53.7z"/>
<path class="st8" d="M604.6,52.1c0,6.9-10.4,6.9-10.4,0C594.1,45.2,604.6,45.2,604.6,52.1z M596,73.1v65.5h6.5V73.1H596z"/>
<path class="st8" d="M627.4,46.2v92.5H621V46.2H627.4z"/>
<path class="st8" d="M730.1,73.4l0.3,11.6c4.1-8.9,13.3-12.3,21.7-12.3c4.9-0.1,9.6,1.2,14,3.8l-2.9,5.3c-3.4-2.1-7.3-3-11.1-3
	c-12.2,0.1-21.5,9.9-21.5,21.8v38H724V73.4H730.1z"/>
<g>
	<path class="st8" d="M674.9,134.7c-11.5,0-21.4-7.2-25.5-17.4l0,0l0,0c0,0,0,0,0,0l52.8-14c0,0,0,0,0,0.1l5.6-1.5
		c-2.3-16.5-16.2-29.3-33-29.3c-18.4,0-33.3,15.2-33.3,34c0,18.8,14.9,34,33.3,34c13.8,0,25.6-8.5,30.6-20.7l-5.3-2.3
		C696.1,127.6,686.3,134.7,674.9,134.7z M647.4,106.6c0-15.5,12.3-28.1,27.5-28.1c11.9,0,22,7.7,25.9,18.5L647.7,111
		C647.5,109.5,647.4,108.1,647.4,106.6z"/>
</g>
</svg>
