<svg version="1.1" id="Vrstva_1" xmlns="http://www.w3.org/2000/svg" x="0" y="0" viewBox="0 0 812 212" style="enable-background:new 0 0 812 212" xml:space="preserve"><style>.st8{fill:#333359}</style><path d="M94.3 164.2c9.2 9.2 33.8 34.3 33.8 34.3-.1.2 24.4-24.5 34.2-34.2l-34.1-34.1-33.9 34z" style="fill:#3a1888"/><path d="m128.3 130.2 34.1 34.1.2-.2 34-34L162.5 96l-34.2 34.2z" style="fill:#03a1c4"/><path d="M196.6 130.1c18.9-18.9 18.9-49.4.1-68.3L162.5 96l34.1 34.1z" style="fill:#05d0df"/><path d="m94.1 96-34 34 34.1 34.1.1.1 34-34L94.1 96z" style="fill:#761fe8"/><path d="M128.3 61.8 162.5 96l34.2-34.2-.1-.1-34.1-34.1-34.2 34.2z" style="fill:#ffaa01"/><path d="M60 61.9c-18.7 18.9-18.6 49.3.1 68.1l34-34L60 61.9z" style="fill:#f1175d"/><path d="M128.3 61.8 94.2 27.7l-34 34-.2.2L94.1 96l34.2-34.2z" style="fill:#fb3a1b"/><path d="M162.5 27.6c-18.9-18.8-49.4-18.8-68.2 0l-.1.1 34.1 34.1 34.2-34.2z" style="fill:#fbc935"/><path class="st8" d="M303.7 138.6v-34.9c0-8.6-4.5-16.4-13.3-16.4-8.7 0-13.9 7.8-13.9 16.4v34.9h-16.1V73.4h14.9l1.2 7.9c3.4-6.6 11-9 17.2-9 7.8 0 15.6 3.2 19.3 12.2 5.8-9.2 13.3-11.9 21.8-11.9 18.5 0 27.6 11.4 27.6 30.9v35.1h-16.1v-35.1c0-8.6-3.6-15.9-12.3-15.9-8.7 0-14.1 7.5-14.1 16.1v34.9h-16.2zM430.3 73.5h15.5v65.1h-15.2l-.8-9.5c-3.7 7.7-13.9 11.4-21.1 11.5-19.3.1-33.6-11.8-33.6-34.6 0-22.5 14.9-34.2 34-34.1 8.7 0 17 4.1 20.7 10.6l.5-9zM391.2 106c0 12.4 8.6 19.8 19.3 19.8 25.4 0 25.4-39.5 0-39.5-10.7 0-19.3 7.3-19.3 19.7zM459.4 165.8V73.5h15.1l1.1 9c5-7.3 13.7-10.4 21.1-10.4 20.1 0 33.4 14.9 33.4 34.1 0 19-12 34.1-32.9 34.1-6.9 0-17-2.1-21.7-9.3v34.9h-16.1zm54.6-59.7c0-10.2-6.9-18.5-18.5-18.5S477 95.9 477 106.1s7.5 18.5 18.5 18.5c10.9 0 18.5-8.3 18.5-18.5zM558.9 53.7v19.7h22.2v5.4h-22.2v39.8c0 8.8 1.9 15.1 12 15.1 3.2 0 6.7-1.1 10-2.6l2.2 5.3c-4.1 2-8.2 3.3-12.3 3.3-13.9 0-18.4-8.2-18.4-21V78.8h-13.9v-5.4h13.9v-19l6.5-.7zM604.6 52.1c0 6.9-10.4 6.9-10.4 0-.1-6.9 10.4-6.9 10.4 0zm-8.6 21v65.5h6.5V73.1H596zM627.4 46.2v92.5H621V46.2h6.4zM730.1 73.4l.3 11.6c4.1-8.9 13.3-12.3 21.7-12.3 4.9-.1 9.6 1.2 14 3.8l-2.9 5.3c-3.4-2.1-7.3-3-11.1-3-12.2.1-21.5 9.9-21.5 21.8v38H724V73.4h6.1zM674.9 134.7c-11.5 0-21.4-7.2-25.5-17.4l52.8-14v.1l5.6-1.5c-2.3-16.5-16.2-29.3-33-29.3-18.4 0-33.3 15.2-33.3 34s14.9 34 33.3 34c13.8 0 25.6-8.5 30.6-20.7l-5.3-2.3c-4 10-13.8 17.1-25.2 17.1zm-27.5-28.1c0-15.5 12.3-28.1 27.5-28.1 11.9 0 22 7.7 25.9 18.5l-53.1 14c-.2-1.5-.3-2.9-.3-4.4z"/></svg>