<svg viewBox="0 0 64 64" xmlns="http://www.w3.org/2000/svg"><path d="m10.964 23.312 9.756-.714-3.331 8.09zm12.374 29.7-.714-9.757 8.09 3.332zM11 40.712l6.394-7.404 3.365 8.077zm29.662-29.75.714 9.756-8.091-3.331zM53 23.212l-6.395 7.404-3.365-8.077zm-12.25 29.8-7.404-6.395 8.077-3.365zm12.287-12.3-9.757.714 3.332-8.091zM23.25 11.002l7.404 6.394-8.077 3.365z" fill="#fea"/><path d="m32 6.002 5 10H27zM6 32.012l10-5v10zm7.615-18.4 10.607 3.535-7.071 7.071zM58 32.012l-10 5v-10zm-7.615 18.4-10.607-3.536 7.07-7.07zm-36.77 0 3.535-10.607 7.071 7.07zM32 58.012l-5-10h10zm18.385-44.4-3.536 10.607-7.07-7.071z" fill="#ffe680"/><path d="M32.853 1003.2c-9.345 0-17.002 7.658-17.002 17.002 0 9.344 7.657 17 17.002 17 9.345 0 17.004-7.656 17.004-17 0-9.344-7.66-17.002-17.004-17.002z" fill="#fc0" style="paint-order:stroke markers fill" transform="translate(-.857 -988.188)"/></svg>