<?xml version="1.0" encoding="UTF-8"?>
<svg version="1.1" viewBox="0 0 64 64" xmlns="http://www.w3.org/2000/svg" xmlns:cc="http://creativecommons.org/ns#" xmlns:dc="http://purl.org/dc/elements/1.1/" xmlns:rdf="http://www.w3.org/1999/02/22-rdf-syntax-ns#">
<metadata>
<rdf:RDF>
<cc:Work rdf:about="">
<dc:format>image/svg+xml</dc:format>
<dc:type rdf:resource="http://purl.org/dc/dcmitype/StillImage"/>
<dc:title/>
</cc:Work>
</rdf:RDF>
</metadata>
<g transform="translate(0 -988.36)">
<g transform="translate(-.85721 .17178)">
<path d="m11.821 1011.5 9.7567-0.714-3.3316 8.091z" fill="#fea"/>
<path d="m24.195 1041.2-0.7139-9.7567 8.0909 3.3316z" fill="#fea"/>
<path d="m11.857 1028.9 6.3943-7.4038 3.3653 8.0768z" fill="#fea"/>
<path d="m41.519 999.15 0.71389 9.7567-8.0909-3.3316z" fill="#fea"/>
<path d="m53.857 1011.4-6.3943 7.4038-3.3653-8.0768z" fill="#fea"/>
<path d="m41.607 1041.2-7.4038-6.3943 8.0769-3.3653z" fill="#fea"/>
<path d="m53.894 1028.9-9.7567 0.714 3.3316-8.091z" fill="#fea"/>
<path d="m24.107 999.19 7.4038 6.3943-8.0769 3.3654z" fill="#fea"/>
<path d="m32.857 994.19 5 10h-10z" fill="#ffe680"/>
<path d="m6.8572 1020.2 10-5v10z" fill="#ffe680"/>
<path d="m14.472 1001.8 10.607 3.5356-7.071 7.071z" fill="#ffe680"/>
<path d="m58.857 1020.2-10 5v-10z" fill="#ffe680"/>
<path d="m51.242 1038.6-10.607-3.5356 7.071-7.071z" fill="#ffe680"/>
<path d="m14.472 1038.6 3.5355-10.607 7.0711 7.071z" fill="#ffe680"/>
<path d="m32.857 1046.2-5-10h10z" fill="#ffe680"/>
<path d="m51.242 1001.8-3.5355 10.607-7.0711-7.071z" fill="#ffe680"/>
<path d="m32.853 1003.2c-9.3448 0-17.002 7.6581-17.002 17.002 0 9.3437 7.6571 17 17.002 17 9.3448 0 17.004-7.6562 17.004-17 0-9.3439-7.6591-17.002-17.004-17.002z" fill="#fc0" style="paint-order:stroke markers fill"/>
</g>
</g>
</svg>
