<svg viewBox="0 0 64 64" xmlns="http://www.w3.org/2000/svg"><path style="paint-order:stroke markers fill" d="M.857 988.19h64v64h-64z" transform="translate(-.857 -988.188)"/><path d="M37.369 1003.5a17.014 17.014 0 0 0-9.885.562c.151.163.297.332.44.5.03.029.053.065.082.092.003 0 .011.01.016.016.145.171.284.347.42.524.023.02.038.049.059.072.002 0 .01.01.013.012.14.184.276.372.41.562.017.017.027.04.042.058 0 .014.003.017.007.02.134.192.262.387.387.584.009.023.025.038.037.056.001.015.012.012.011.024.133.211.26.425.383.642.001 0 0 .015.01.01v.013a17.862 17.862 0 0 1 .71 1.399 17.011 17.011 0 0 1 1.04 11.044 17.01 17.01 0 0 1-5.354 8.842h-.001c-.197.172-.398.34-.603.503h-.002a17.206 17.206 0 0 1-1.267.917l-.008.01c-.008.012-.013.013-.02.014-.207.135-.416.266-.629.392-.007.011-.011.012-.019.013-.015.012-.033.017-.049.027a17.721 17.721 0 0 1-1.334.711c-.001 0-.002 0-.007.011-.011.012-.022.013-.033.014a15.39 15.39 0 0 1-.67.3c-.008.012-.012.013-.016.013-.034.015-.069.024-.103.04-.21.087-.42.17-.633.249a17.017 17.017 0 0 0 8.539 5.012c9.178 2.216 18.415-3.428 20.632-12.606 2.216-9.179-3.428-18.415-12.606-20.632z" fill="#1a1a1a" style="paint-order:stroke markers fill" transform="translate(-.857 -988.188)"/><path d="M41.8 1034.9a17.014 17.014 0 0 0 6.774-7.22 16.353 16.353 0 0 1-.664-.06c-.04 0-.082-.01-.122-.01h-.023a16.51 16.51 0 0 1-.666-.09c-.03 0-.06-.01-.09-.012h-.019a15.807 15.807 0 0 1-.684-.125c-.024 0-.048-.01-.071-.012-.01-.01-.014-.01-.02-.01a16.95 16.95 0 0 1-.681-.156c-.023-.01-.045-.01-.067-.015-.01-.01-.016 0-.024-.01-.242-.062-.482-.13-.72-.202-.003 0-.011-.01-.013 0-.001 0-.003 0-.01-.01a17.9 17.9 0 0 1-1.478-.524 17.012 17.012 0 0 1-8.365-7.284 17.012 17.012 0 0 1-2.218-10.096l.001-.001c.024-.26.054-.52.09-.78l.002-.001a17.307 17.307 0 0 1 .285-1.538c.002 0-.002-.012 0-.013 0-.012.004-.015.007-.022.056-.24.117-.48.184-.718 0-.012.003-.014.006-.022l.017-.053a17.011 17.011 0 0 1 .476-1.435c.002 0 .003 0 0-.012.002-.014.009-.022.013-.033.088-.228.18-.455.279-.68-.002-.012.002-.014.006-.017.014-.034.032-.065.046-.1a16.4 16.4 0 0 1 .288-.617 17.018 17.018 0 0 0-9.641 2.255c-8.177 4.721-10.98 15.177-6.258 23.354 4.721 8.177 15.177 10.98 23.354 6.258z" fill="#e9ddaf" style="paint-order:stroke markers fill" transform="translate(-.857 -988.188)"/><path d="M47.316 9.662 44 11.32V8.004z" fill="#f9f9f9"/><path d="M47.316 9.662 44 11.32V8.004zm-6.632 0L44 11.32V8.004z" fill="#f9f9f9"/><path d="m44.016 13.012-1.658-3.316h3.316zm.027-6.65-1.658 3.315H45.7zm12.316 31.95-2.573 1.286v-2.572z" fill="#f9f9f9"/><path d="m56.359 38.312-2.573 1.286v-2.572zm-5.145 0 2.572 1.286v-2.572z" fill="#f9f9f9"/><path d="m53.799 40.912-1.286-2.573h2.572z" fill="#f9f9f9"/><path d="m53.82 35.812-1.286 2.572h2.572zm-35.082-22L15.6 15.38v-3.137z" fill="#f9f9f9"/><path d="M18.738 13.812 15.6 15.38v-3.137zm-6.274 0L15.6 15.38v-3.137z" fill="#f9f9f9"/><path d="m15.616 17.012-1.569-3.137h3.137zm.024-6.35-1.568 3.137h3.137zm5.089 42.05-.979.49v-.98z" fill="#f9f9f9"/><path d="m20.729 52.712-.979.49v-.98zm-1.957 0 .978.49v-.98z" fill="#f9f9f9"/><path d="m19.756 53.712-.49-.979h.98z" fill="#f9f9f9"/><path d="m19.763 51.812-.49.978h.98zm31.585-31.7-.979.49v-.98z" fill="#f9f9f9"/><path d="m51.348 20.112-.979.49v-.98z" fill="#f9f9f9"/><path d="m49.39 20.112.98.49v-.98z" fill="#f9f9f9"/><path d="m50.374 21.112-.49-.979h.98zm.008-2-.49.978h.98zm-38.537 27.4-.979.49v-.98z" fill="#f9f9f9"/><path d="m11.845 46.512-.979.49v-.98zm-1.957 0 .978.49v-.98z" fill="#f9f9f9"/><path d="m10.87 47.512-.489-.979h.98z" fill="#f9f9f9"/><path d="m10.879 45.612-.49.978h.98zm41.85-32.9-.979.49v-.98z" fill="#f9f9f9"/><path d="m52.729 12.712-.979.49v-.98zm-1.957 0 .978.49v-.98z" fill="#f9f9f9"/><path d="m51.756 13.712-.49-.979h.98z" fill="#f9f9f9"/><path d="m51.763 11.762-.49.978h.98zm.966 36.95-.979.49v-.98z" fill="#f9f9f9"/><path d="m52.729 48.712-.979.49v-.98zm-1.957 0 .978.49v-.98z" fill="#f9f9f9"/><path d="m51.756 49.712-.49-.979h.98z" fill="#f9f9f9"/><path d="m51.763 47.812-.49.978h.98zM21.348 8.122l-.979.49v-.98z" fill="#f9f9f9"/><path d="m21.348 8.122-.979.49v-.98z" fill="#f9f9f9"/><path d="m19.39 8.122.98.49v-.98z" fill="#f9f9f9"/><path d="m20.374 9.112-.49-.979h.98zm.008-1.97-.49.978h.98z" fill="#f9f9f9"/></svg>