<?xml version="1.0" encoding="UTF-8"?>
<svg version="1.1" viewBox="0 0 64 64" xmlns="http://www.w3.org/2000/svg" xmlns:cc="http://creativecommons.org/ns#" xmlns:dc="http://purl.org/dc/elements/1.1/" xmlns:rdf="http://www.w3.org/1999/02/22-rdf-syntax-ns#">
<metadata>
<rdf:RDF>
<cc:Work rdf:about="">
<dc:format>image/svg+xml</dc:format>
<dc:type rdf:resource="http://purl.org/dc/dcmitype/StillImage"/>
<dc:title/>
</cc:Work>
</rdf:RDF>
</metadata>
<g transform="translate(0 -988.36)">
<g transform="translate(-.85721 .17178)">
<rect x=".85721" y="988.19" width="64" height="64" style="paint-order:stroke markers fill"/>
<path d="m37.369 1003.5c-3.4079-0.8229-6.8231-0.5608-9.8848 0.5621 0.15108 0.1631 0.29635 0.3317 0.44045 0.5005 0.02946 0.028 0.05203 0.064 0.08131 0.091 0.0033-4e-4 0.01143 0.011 0.0164 0.016 0.14418 0.1718 0.2835 0.3471 0.42039 0.5242 0.02202 0.021 0.03741 0.049 0.05795 0.072 0.0026-4e-4 0.0099 0.01 0.01288 0.012 0.14136 0.1842 0.27673 0.3724 0.40981 0.5626 0.01719 0.017 0.02734 0.04 0.04306 0.058 2.03e-4 0.014 0.0028 0.017 7e-3 0.02 0.13313 0.1915 0.26115 0.3865 0.3863 0.5835 0.0092 0.023 0.02523 0.038 0.03772 0.056 9.32e-4 0.015 0.01186 0.012 0.0108 0.024 0.13225 0.2114 0.25947 0.4255 0.38266 0.642 0.0015-2e-4 9.33e-4 0.015 0.0096 0.01 0.0011 3e-4 0.0014-2e-4 -4.28e-4 0.013 0.12832 0.227 0.25174 0.4567 0.37 0.6891 0.11848 0.2342 0.23182 0.4705 0.33996 0.7097 0.10814 0.2395 0.211 0.4813 0.30825 0.7258 1.2618 3.1711 1.593 6.7481 0.73098 10.318-0.86134 3.5673-2.7856 6.5971-5.3523 8.8424-5.38e-4 0-7.24e-4 -1e-4 -0.0012-2e-4 -0.19713 0.1725-0.39787 0.3404-0.60236 0.5031-4.87e-4 6e-4 -9.22e-4 -2e-4 -0.0012-2e-4 -5.68e-4 -1e-4 -6.61e-4 -2e-4 -0.0013-4e-4 -0.20477 0.1631-0.41387 0.3205-0.62574 0.474-0.21053 0.1525-0.42384 0.301-0.6409 0.4437-0.0011 1e-4 -0.0068 0.011-0.0087 0.011-0.0075 0.011-0.01292 0.012-0.0197 0.013-0.20682 0.1354-0.41616 0.2663-0.62856 0.3926-0.0075 0.011-0.01134 0.012-0.01895 0.013-0.01568 0.012-0.03294 0.017-0.04889 0.027-0.21027 0.1234-0.42222 0.2441-0.63756 0.3588-0.22973 0.1221-0.46156 0.2405-0.69677 0.3522-0.0016-4e-4 -0.0019 3e-4 -0.0073 0.011-0.01103 0.012-0.02149 0.013-0.03252 0.014-0.2215 0.1049-0.44494 0.2051-0.67102 0.3004-0.0072 0.011-0.01103 0.012-0.01565 0.012-0.03393 0.015-0.06822 0.024-0.10256 0.04-0.20957 0.087-0.42025 0.1705-0.63348 0.2487 2.2121 2.3962 5.1311 4.1891 8.5389 5.012 9.1783 2.2162 18.415-3.4278 20.632-12.606 2.2162-9.1783-3.4276-18.415-12.606-20.632z" fill="#1a1a1a" style="paint-order:stroke markers fill"/>
<path d="m41.8 1034.9c3.0361-1.7529 5.3298-4.2969 6.7738-7.2209-0.22187-0.014-0.44331-0.036-0.66409-0.059-0.04062 0-0.08129-0.01-0.12176-0.01h-0.02256c-0.22279-0.025-0.4446-0.056-0.66591-0.09-0.03034 0-0.06115-0.01-0.09139-0.012h-0.01774c-0.22937-0.036-0.45713-0.079-0.6847-0.1251-0.02361 0-0.04728-0.01-0.07082-0.012-0.0098-0.01-0.01338-0.01-0.01924-0.01-0.22849-0.047-0.45562-0.1-0.68202-0.1564-0.02213-0.01-0.04431-0.01-0.06638-0.015-0.0107-0.01-0.01632 0-0.02456-0.01-0.24154-0.062-0.48127-0.1294-0.71982-0.2014-0.0024 0-0.01078-0.01-0.01329 0-1e-3 6e-4 -0.0023 0-0.0089-0.01-0.24945-0.076-0.49724-0.1574-0.74306-0.2442-0.24728-0.088-0.49229-0.1811-0.73548-0.2798-0.24347-0.099-0.48468-0.2033-0.72367-0.3134-3.0999-1.4276-5.8055-3.7907-7.6417-6.9711-1.8349-3.1781-2.5294-6.6996-2.2176-10.096 4.72e-4 -3e-4 6.26e-4 -4e-4 0.0011-7e-4 0.02397-0.2608 0.05367-0.5208 0.0896-0.7797 1.9e-5 -7e-4 7.99e-4 -5e-4 0.0011-7e-4 4.99e-4 -3e-4 6.27e-4 -3e-4 0.0011-6e-4 0.03594-0.2593 0.07899-0.5174 0.12663-0.7747 0.0474-0.2556 0.0996-0.5102 0.15849-0.7632 0.0017 0-0.0018-0.012-4.4e-5 -0.013-8.24e-4 -0.012 0.0043-0.015 0.0065-0.022 0.05645-0.2407 0.11791-0.4798 0.18474-0.7177-8.24e-4 -0.012 3e-3 -0.014 0.0053-0.022 5e-3 -0.018 0.01209-0.035 0.01709-0.053 0.06697-0.2346 0.13761-0.4679 0.2146-0.6994 0.08215-0.2469 0.16861-0.4924 0.26196-0.7355 0.0014-8e-4 3e-3 0-0.0011-0.012 0.0025-0.014 0.0094-0.022 0.01347-0.033 0.08825-0.2286 0.18095-0.4553 0.27904-0.6802-0.0013-0.012 0.0025-0.014 0.0062-0.017 0.01449-0.034 0.03224-0.065 0.04636-0.1 0.09223-0.2072 0.18694-0.4132 0.28745-0.6169-3.2543-0.2111-6.6049 0.502-9.641 2.2549-8.1771 4.7211-10.979 15.177-6.2577 23.354 4.721 8.177 15.177 10.979 23.354 6.2577z" fill="#e9ddaf" style="paint-order:stroke markers fill"/>
<path d="m48.173 997.85-3.3158 1.6579v-3.3158z" fill="#f9f9f9"/>
<path d="m48.173 997.85-3.3158 1.6579v-3.3158z" fill="#f9f9f9"/>
<path d="m41.541 997.85 3.3158 1.6579v-3.3158z" fill="#f9f9f9"/>
<path d="m44.873 1001.2-1.6579-3.3158h3.3158z" fill="#f9f9f9"/>
<path d="m44.9 994.55-1.6579 3.3157h3.3158z" fill="#f9f9f9"/>
<path d="m57.216 1026.5-2.5725 1.2863v-2.5725z" fill="#f9f9f9"/>
<path d="m57.216 1026.5-2.5725 1.2863v-2.5725z" fill="#f9f9f9"/>
<path d="m52.071 1026.5 2.5725 1.2863v-2.5725z" fill="#f9f9f9"/>
<path d="m54.656 1029.1-1.2862-2.5724h2.5725z" fill="#f9f9f9"/>
<path d="m54.677 1024-1.2862 2.5725h2.5725z" fill="#f9f9f9"/>
<path d="m19.595 1002-3.137 1.5686v-3.137z" fill="#f9f9f9"/>
<path d="m19.595 1002-3.137 1.5686v-3.137z" fill="#f9f9f9"/>
<path d="m13.321 1002 3.137 1.5686v-3.137z" fill="#f9f9f9"/>
<path d="m16.473 1005.2-1.5685-3.1369h3.137z" fill="#f9f9f9"/>
<path d="m16.498 998.85-1.5685 3.1369h3.137z" fill="#f9f9f9"/>
<path d="m21.586 1040.9-0.97869 0.4894v-0.9787z" fill="#f9f9f9"/>
<path d="m21.586 1040.9-0.97869 0.4894v-0.9787z" fill="#f9f9f9"/>
<path d="m19.629 1040.9 0.97869 0.4894v-0.9787z" fill="#f9f9f9"/>
<path d="m20.613 1041.9-0.48934-0.9786h0.97869z" fill="#f9f9f9"/>
<path d="m20.62 1040-0.48934 0.9787h0.97869z" fill="#f9f9f9"/>
<path d="m52.205 1008.3-0.97869 0.4894v-0.9787z" fill="#f9f9f9"/>
<path d="m52.205 1008.3-0.97869 0.4894v-0.9787z" fill="#f9f9f9"/>
<path d="m50.248 1008.3 0.97869 0.4894v-0.9787z" fill="#f9f9f9"/>
<path d="m51.231 1009.3-0.48934-0.9786h0.97869z" fill="#f9f9f9"/>
<path d="m51.239 1007.3-0.48934 0.9787h0.97869z" fill="#f9f9f9"/>
<path d="m12.702 1034.7-0.97869 0.4894v-0.9787z" fill="#f9f9f9"/>
<path d="m12.702 1034.7-0.97869 0.4894v-0.9787z" fill="#f9f9f9"/>
<path d="m10.745 1034.7 0.97869 0.4894v-0.9787z" fill="#f9f9f9"/>
<path d="m11.728 1035.7-0.48934-0.9786h0.97869z" fill="#f9f9f9"/>
<path d="m11.736 1033.8-0.48934 0.9787h0.97869z" fill="#f9f9f9"/>
<path d="m53.586 1000.9-0.97869 0.4894v-0.9787z" fill="#f9f9f9"/>
<path d="m53.586 1000.9-0.97869 0.4894v-0.9787z" fill="#f9f9f9"/>
<path d="m51.629 1000.9 0.97869 0.4894v-0.9787z" fill="#f9f9f9"/>
<path d="m52.613 1001.9-0.48934-0.9786h0.97869z" fill="#f9f9f9"/>
<path d="m52.62 999.95-0.48934 0.9787h0.97869z" fill="#f9f9f9"/>
<path d="m53.586 1036.9-0.97869 0.4894v-0.9787z" fill="#f9f9f9"/>
<path d="m53.586 1036.9-0.97869 0.4894v-0.9787z" fill="#f9f9f9"/>
<path d="m51.629 1036.9 0.97869 0.4894v-0.9787z" fill="#f9f9f9"/>
<path d="m52.613 1037.9-0.48934-0.9786h0.97869z" fill="#f9f9f9"/>
<path d="m52.62 1036-0.48934 0.9787h0.97869z" fill="#f9f9f9"/>
<path d="m22.205 996.31-0.97869 0.4894v-0.9787z" fill="#f9f9f9"/>
<path d="m22.205 996.31-0.97869 0.4894v-0.9787z" fill="#f9f9f9"/>
<path d="m20.248 996.31 0.97869 0.4894v-0.9787z" fill="#f9f9f9"/>
<path d="m21.231 997.3-0.48934-0.9786h0.97869z" fill="#f9f9f9"/>
<path d="m21.239 995.33-0.48934 0.9787h0.97869z" fill="#f9f9f9"/>
</g>
</g>
</svg>
