<svg xmlns="http://www.w3.org/2000/svg" width="600" height="600" xml:space="preserve"><path d="M475.95 121.5c-5.101-15.3-20.4-25.5-35.7-25.5h-280.5c-17.85 0-30.6 10.2-35.7 25.5l-53.55 153v204c0 15.3 10.2 25.5 25.5 25.5h25.5c15.3 0 25.5-10.2 25.5-25.5V453h306v25.5c0 15.3 10.2 25.5 25.5 25.5H504c15.3 0 25.5-10.2 25.5-25.5v-204Zm-316.2 255c-20.4 0-38.25-17.85-38.25-38.25S139.35 300 159.75 300 198 317.85 198 338.25s-17.85 38.25-38.25 38.25zm280.5 0c-20.4 0-38.25-17.85-38.25-38.25S419.85 300 440.25 300s38.25 17.85 38.25 38.25-17.85 38.25-38.25 38.25zM121.5 249l38.25-114.75h280.5L478.5 249Z"/></svg>