<svg xmlns="http://www.w3.org/2000/svg" width="600" height="600" xml:space="preserve"><path d="M405.45 51c-5.101-15.3-20.4-25.5-35.7-25.5H89.25c-17.85 0-30.6 10.2-35.7 25.5L0 204v204c0 15.3 10.2 25.5 25.5 25.5H51c15.3 0 25.5-10.2 25.5-25.5v-25.5h306V408c0 15.3 10.2 25.5 25.5 25.5h25.5c15.3 0 25.5-10.2 25.5-25.5V204ZM89.25 306C68.85 306 51 288.15 51 267.75s17.85-38.25 38.25-38.25 38.25 17.85 38.25 38.25S109.65 306 89.25 306zm280.5 0c-20.4 0-38.25-17.85-38.25-38.25s17.85-38.25 38.25-38.25S408 247.35 408 267.75 390.15 306 369.75 306zM51 178.5 89.25 63.75h280.5L408 178.5Z" style="fill:#fff;fill-opacity:1" transform="translate(70.5 70.5)"/></svg>