<svg xmlns="http://www.w3.org/2000/svg" width="600" height="600" xml:space="preserve"><path d="M96 414.75c0 22.95 10.2 43.35 25.5 56.1v45.9c0 15.3 10.2 25.5 25.5 25.5h25.5c15.3 0 25.5-10.2 25.5-25.5v-25.5h204v25.5c0 15.3 10.2 25.5 25.5 25.5H453c15.3 0 25.5-10.2 25.5-25.5v-45.9c15.3-12.75 25.5-33.149 25.5-56.1v-255c0-89.25-91.8-102-204-102S96 70.5 96 159.75zm89.25 25.5c-20.4 0-38.25-17.85-38.25-38.25s17.85-38.25 38.25-38.25S223.5 381.6 223.5 402s-17.85 38.25-38.25 38.25zm229.5 0c-20.4 0-38.25-17.85-38.25-38.25s17.85-38.25 38.25-38.25S453 381.6 453 402s-17.85 38.25-38.25 38.25zm38.25-153H147v-127.5h306z"/></svg>