<?xml version="1.0" encoding="UTF-8" standalone="no"?>
<!-- Generator: Adobe Illustrator 16.0.0, SVG Export Plug-In . SVG Version: 6.00 Build 0)  -->

<svg
   xmlns:dc="http://purl.org/dc/elements/1.1/"
   xmlns:cc="http://creativecommons.org/ns#"
   xmlns:rdf="http://www.w3.org/1999/02/22-rdf-syntax-ns#"
   xmlns:svg="http://www.w3.org/2000/svg"
   xmlns="http://www.w3.org/2000/svg"
   xmlns:sodipodi="http://sodipodi.sourceforge.net/DTD/sodipodi-0.dtd"
   xmlns:inkscape="http://www.inkscape.org/namespaces/inkscape"
   version="1.1"
   id="Capa_1"
   x="0px"
   y="0px"
   width="600"
   height="600"
   viewBox="0 0 600 600"
   xml:space="preserve"
   sodipodi:docname="transport-transit.svg"
   inkscape:version="0.92.4 5da689c313, 2019-01-14"><metadata
   id="metadata42"><rdf:RDF><cc:Work
       rdf:about=""><dc:format>image/svg+xml</dc:format><dc:type
         rdf:resource="http://purl.org/dc/dcmitype/StillImage" /><dc:title></dc:title></cc:Work></rdf:RDF></metadata><defs
   id="defs40" /><sodipodi:namedview
   pagecolor="#ffffff"
   bordercolor="#666666"
   borderopacity="1"
   objecttolerance="10"
   gridtolerance="10"
   guidetolerance="10"
   inkscape:pageopacity="0"
   inkscape:pageshadow="2"
   inkscape:window-width="2560"
   inkscape:window-height="1376"
   id="namedview38"
   showgrid="false"
   inkscape:zoom="0.4871001"
   inkscape:cx="246.35593"
   inkscape:cy="242.25"
   inkscape:window-x="0"
   inkscape:window-y="27"
   inkscape:window-maximized="1"
   inkscape:current-layer="Capa_1" />
<g
   id="g5"
   transform="translate(57.75,57.75)">
	<g
   id="directions-bus">
		<path
   d="m 38.25,357 c 0,22.95 10.2,43.35 25.5,56.1 V 459 c 0,15.3 10.2,25.5 25.5,25.5 h 25.5 c 15.3,0 25.5,-10.2 25.5,-25.5 v -25.5 h 204 V 459 c 0,15.3 10.2,25.5 25.5,25.5 h 25.5 c 15.3,0 25.5,-10.2 25.5,-25.5 v -45.9 c 15.3,-12.75 25.5,-33.149 25.5,-56.1 V 102 c 0,-89.25 -91.8,-102 -204,-102 -112.2,0 -204,12.75 -204,102 z m 89.25,25.5 c -20.4,0 -38.25,-17.85 -38.25,-38.25 0,-20.4 17.85,-38.25 38.25,-38.25 20.4,0 38.25,17.85 38.25,38.25 0,20.4 -17.85,38.25 -38.25,38.25 z m 229.5,0 c -20.4,0 -38.25,-17.85 -38.25,-38.25 0,-20.4 17.85,-38.25 38.25,-38.25 20.4,0 38.25,17.85 38.25,38.25 0,20.4 -17.85,38.25 -38.25,38.25 z m 38.25,-153 h -306 V 102 h 306 z"
   id="path2"
   inkscape:connector-curvature="0" />
	</g>
</g>
<g
   id="g7"
   transform="translate(0,115.5)">
</g>
<g
   id="g9"
   transform="translate(0,115.5)">
</g>
<g
   id="g11"
   transform="translate(0,115.5)">
</g>
<g
   id="g13"
   transform="translate(0,115.5)">
</g>
<g
   id="g15"
   transform="translate(0,115.5)">
</g>
<g
   id="g17"
   transform="translate(0,115.5)">
</g>
<g
   id="g19"
   transform="translate(0,115.5)">
</g>
<g
   id="g21"
   transform="translate(0,115.5)">
</g>
<g
   id="g23"
   transform="translate(0,115.5)">
</g>
<g
   id="g25"
   transform="translate(0,115.5)">
</g>
<g
   id="g27"
   transform="translate(0,115.5)">
</g>
<g
   id="g29"
   transform="translate(0,115.5)">
</g>
<g
   id="g31"
   transform="translate(0,115.5)">
</g>
<g
   id="g33"
   transform="translate(0,115.5)">
</g>
<g
   id="g35"
   transform="translate(0,115.5)">
</g>
</svg>