<?xml version="1.0" encoding="UTF-8" standalone="no"?>
<!-- Generator: Adobe Illustrator 16.0.0, SVG Export Plug-In . SVG Version: 6.00 Build 0)  -->

<svg
   xmlns:dc="http://purl.org/dc/elements/1.1/"
   xmlns:cc="http://creativecommons.org/ns#"
   xmlns:rdf="http://www.w3.org/1999/02/22-rdf-syntax-ns#"
   xmlns:svg="http://www.w3.org/2000/svg"
   xmlns="http://www.w3.org/2000/svg"
   xmlns:sodipodi="http://sodipodi.sourceforge.net/DTD/sodipodi-0.dtd"
   xmlns:inkscape="http://www.inkscape.org/namespaces/inkscape"
   version="1.1"
   id="Capa_1"
   x="0px"
   y="0px"
   width="484.5px"
   height="484.5px"
   viewBox="0 0 484.5 484.5"
   style="enable-background:new 0 0 484.5 484.5;"
   xml:space="preserve"
   sodipodi:docname="transport-transit-white.svg"
   inkscape:version="0.92.4 5da689c313, 2019-01-14"><metadata
   id="metadata42"><rdf:RDF><cc:Work
       rdf:about=""><dc:format>image/svg+xml</dc:format><dc:type
         rdf:resource="http://purl.org/dc/dcmitype/StillImage" /><dc:title /></cc:Work></rdf:RDF></metadata><defs
   id="defs40" /><sodipodi:namedview
   pagecolor="#ffffff"
   bordercolor="#666666"
   borderopacity="1"
   objecttolerance="10"
   gridtolerance="10"
   guidetolerance="10"
   inkscape:pageopacity="0"
   inkscape:pageshadow="2"
   inkscape:window-width="1476"
   inkscape:window-height="1142"
   id="namedview38"
   showgrid="false"
   inkscape:pagecheckerboard="true"
   inkscape:zoom="0.4871001"
   inkscape:cx="-162.18432"
   inkscape:cy="242.25"
   inkscape:window-x="0"
   inkscape:window-y="27"
   inkscape:window-maximized="0"
   inkscape:current-layer="Capa_1" />
<g
   id="g5"
   style="fill:#ffffff;fill-opacity:1">
	<g
   id="directions-bus"
   style="fill:#ffffff;fill-opacity:1">
		<path
   d="M38.25,357c0,22.95,10.2,43.35,25.5,56.1V459c0,15.3,10.2,25.5,25.5,25.5h25.5c15.3,0,25.5-10.2,25.5-25.5v-25.5h204V459    c0,15.3,10.2,25.5,25.5,25.5h25.5c15.3,0,25.5-10.2,25.5-25.5v-45.9c15.3-12.75,25.5-33.149,25.5-56.1V102    c0-89.25-91.8-102-204-102s-204,12.75-204,102V357z M127.5,382.5c-20.4,0-38.25-17.85-38.25-38.25S107.1,306,127.5,306    s38.25,17.85,38.25,38.25S147.9,382.5,127.5,382.5z M357,382.5c-20.4,0-38.25-17.85-38.25-38.25S336.6,306,357,306    s38.25,17.85,38.25,38.25S377.4,382.5,357,382.5z M395.25,229.5h-306V102h306V229.5z"
   id="path2"
   style="fill:#ffffff;fill-opacity:1" />
	</g>
</g>
<g
   id="g7">
</g>
<g
   id="g9">
</g>
<g
   id="g11">
</g>
<g
   id="g13">
</g>
<g
   id="g15">
</g>
<g
   id="g17">
</g>
<g
   id="g19">
</g>
<g
   id="g21">
</g>
<g
   id="g23">
</g>
<g
   id="g25">
</g>
<g
   id="g27">
</g>
<g
   id="g29">
</g>
<g
   id="g31">
</g>
<g
   id="g33">
</g>
<g
   id="g35">
</g>
</svg>