<svg xmlns="http://www.w3.org/2000/svg" xml:space="preserve" width="600" height="600"><path d="M193.557 468.827c-11.752 9.038-26.278 14.631-42.217 14.631-38.411 0-69.667-31.256-69.667-69.667 0-38.419 31.256-69.676 69.667-69.676 28.99 0 53.853 17.825 64.336 43.067l21.816-22.626c-17.18-29.986-49.118-50.427-86.152-50.427-55.046 0-99.654 44.618-99.654 99.662 0 55.036 44.608 99.654 99.654 99.654 25.898 0 49.265-10.122 66.991-26.326-6.803-2.283-13.256-5.905-18.77-11.215-2.275-2.198-4.238-4.599-6.004-7.077z"/><path d="m344.877 314.89-52.769-30.65c23.533-14.729 14.807-9.274 38.341-24.004l-.741 7.497c-1.27 12.76 8.133 24.435 19.971 26.834.283.058 92.635 15.755 96.003 15.755 11.997 0 22.589-8.668 24.617-20.899 2.265-13.617-6.939-26.484-20.556-28.737l-67.989-11.295 3.233-32.445c3.259-20.733 4.674-27.234-3.067-39.603l-9.732-15.559c-12.573-20.08-39.084-26.22-59.212-13.618l-106.515 66.69c-26.161 16.38-38.919 50.916-17.561 76.322 8.344 9.928 89.47 59.781 89.47 59.781l-65.703 68.153c-11.499 11.918-11.157 30.905.771 42.394a29.879 29.879 0 0 0 20.811 8.403c7.859 0 15.707-3.064 21.583-9.176l95.564-99.105c13.482-13.95 10.32-36.958-6.519-46.738zM456.82 178.758c23.36-14.632 30.437-45.42 15.813-68.769-14.621-23.369-45.41-30.446-68.767-15.823-23.35 14.623-30.427 45.4-15.813 68.75 14.62 23.37 45.409 30.456 68.767 15.842z"/><path d="M448.659 314.13c-55.619 0-99.654 45.887-99.654 99.661 0 55.036 44.61 99.654 99.654 99.654 55.034 0 99.655-44.618 99.655-99.654 0-55.044-44.621-99.662-99.655-99.662zm0 169.328c-38.411 0-69.667-31.256-69.667-69.667 0-38.419 31.257-69.676 69.667-69.676 38.412 0 69.668 31.257 69.668 69.676.001 38.411-31.256 69.667-69.668 69.667z"/></svg>