<?xml version="1.0" encoding="UTF-8" standalone="no"?>
<!-- Generator: Adobe Illustrator 18.0.0, SVG Export Plug-In . SVG Version: 6.00 Build 0)  -->

<svg
   xmlns:dc="http://purl.org/dc/elements/1.1/"
   xmlns:cc="http://creativecommons.org/ns#"
   xmlns:rdf="http://www.w3.org/1999/02/22-rdf-syntax-ns#"
   xmlns:svg="http://www.w3.org/2000/svg"
   xmlns="http://www.w3.org/2000/svg"
   xmlns:sodipodi="http://sodipodi.sourceforge.net/DTD/sodipodi-0.dtd"
   xmlns:inkscape="http://www.inkscape.org/namespaces/inkscape"
   version="1.1"
   id="Capa_1"
   x="0px"
   y="0px"
   viewBox="0 0 600.00001 600.00001"
   xml:space="preserve"
   sodipodi:docname="transport-bicycle.svg"
   width="600"
   height="600"
   inkscape:version="0.92.4 5da689c313, 2019-01-14"><metadata
   id="metadata42"><rdf:RDF><cc:Work
       rdf:about=""><dc:format>image/svg+xml</dc:format><dc:type
         rdf:resource="http://purl.org/dc/dcmitype/StillImage" /><dc:title></dc:title></cc:Work></rdf:RDF></metadata><defs
   id="defs40" /><sodipodi:namedview
   pagecolor="#ffffff"
   bordercolor="#666666"
   borderopacity="1"
   objecttolerance="10"
   gridtolerance="10"
   guidetolerance="10"
   inkscape:pageopacity="0"
   inkscape:pageshadow="2"
   inkscape:window-width="2560"
   inkscape:window-height="1376"
   id="namedview38"
   showgrid="false"
   inkscape:zoom="0.47520479"
   inkscape:cx="260.94013"
   inkscape:cy="248.314"
   inkscape:window-x="0"
   inkscape:window-y="27"
   inkscape:window-maximized="1"
   inkscape:current-layer="Capa_1" />
<g
   id="XMLID_511_"
   transform="translate(51.686,51.686307)">
	<path
   id="XMLID_512_"
   d="m 141.871,417.141 c -11.752,9.038 -26.278,14.631 -42.217,14.631 -38.411,0 -69.667,-31.256 -69.667,-69.667 0,-38.419 31.256,-69.676 69.667,-69.676 28.99,0 53.853,17.825 64.336,43.067 L 185.806,312.87 C 168.626,282.884 136.688,262.443 99.654,262.443 44.608,262.443 0,307.061 0,362.105 c 0,55.036 44.608,99.654 99.654,99.654 25.898,0 49.265,-10.122 66.991,-26.326 -6.803,-2.283 -13.256,-5.905 -18.77,-11.215 -2.275,-2.198 -4.238,-4.599 -6.004,-7.077 z"
   inkscape:connector-curvature="0" />
	<path
   id="XMLID_513_"
   d="m 293.191,263.204 -52.769,-30.65 c 23.533,-14.729 14.807,-9.274 38.341,-24.004 l -0.741,7.497 c -1.27,12.759 8.133,24.435 19.971,26.834 0.283,0.058 92.635,15.755 96.003,15.755 11.997,0 22.589,-8.668 24.617,-20.899 2.265,-13.617 -6.939,-26.484 -20.556,-28.737 l -67.989,-11.295 3.233,-32.445 c 3.259,-20.733 4.674,-27.234 -3.067,-39.603 l -9.732,-15.559 C 307.929,90.018 281.418,83.878 261.29,96.48 l -106.515,66.689 c -26.161,16.38 -38.919,50.917 -17.561,76.323 8.344,9.928 89.47,59.781 89.47,59.781 l -65.703,68.153 c -11.499,11.918 -11.157,30.905 0.771,42.394 5.818,5.611 13.315,8.403 20.811,8.403 7.859,0 15.707,-3.064 21.583,-9.176 l 95.564,-99.105 c 13.482,-13.95 10.32,-36.958 -6.519,-46.738 z"
   inkscape:connector-curvature="0" />
	<path
   id="XMLID_514_"
   d="m 405.134,127.072 c 23.36,-14.632 30.437,-45.42 15.813,-68.769 -14.621,-23.369 -45.41,-30.446 -68.767,-15.823 -23.35,14.623 -30.427,45.4 -15.813,68.749 14.62,23.37 45.409,30.457 68.767,15.843 z"
   inkscape:connector-curvature="0" />
	<path
   id="XMLID_515_"
   d="m 396.973,262.443 c -55.619,0 -99.654,45.888 -99.654,99.662 0,55.036 44.61,99.654 99.654,99.654 55.034,0 99.655,-44.618 99.655,-99.654 0,-55.044 -44.621,-99.662 -99.655,-99.662 z m 0,169.329 c -38.411,0 -69.667,-31.256 -69.667,-69.667 0,-38.419 31.257,-69.676 69.667,-69.676 38.412,0 69.668,31.257 69.668,69.676 10e-4,38.411 -31.256,69.667 -69.668,69.667 z"
   inkscape:connector-curvature="0" />
</g>
<g
   id="g7"
   transform="translate(0,103.37201)">
</g>
<g
   id="g9"
   transform="translate(0,103.37201)">
</g>
<g
   id="g11"
   transform="translate(0,103.37201)">
</g>
<g
   id="g13"
   transform="translate(0,103.37201)">
</g>
<g
   id="g15"
   transform="translate(0,103.37201)">
</g>
<g
   id="g17"
   transform="translate(0,103.37201)">
</g>
<g
   id="g19"
   transform="translate(0,103.37201)">
</g>
<g
   id="g21"
   transform="translate(0,103.37201)">
</g>
<g
   id="g23"
   transform="translate(0,103.37201)">
</g>
<g
   id="g25"
   transform="translate(0,103.37201)">
</g>
<g
   id="g27"
   transform="translate(0,103.37201)">
</g>
<g
   id="g29"
   transform="translate(0,103.37201)">
</g>
<g
   id="g31"
   transform="translate(0,103.37201)">
</g>
<g
   id="g33"
   transform="translate(0,103.37201)">
</g>
<g
   id="g35"
   transform="translate(0,103.37201)">
</g>
</svg>