<?xml version="1.0" encoding="UTF-8"?>
<svg version="1.1" viewBox="0 0 64 64" xmlns="http://www.w3.org/2000/svg" xmlns:cc="http://creativecommons.org/ns#" xmlns:dc="http://purl.org/dc/elements/1.1/" xmlns:rdf="http://www.w3.org/1999/02/22-rdf-syntax-ns#">
<metadata>
<rdf:RDF>
<cc:Work rdf:about="">
<dc:format>image/svg+xml</dc:format>
<dc:type rdf:resource="http://purl.org/dc/dcmitype/StillImage"/>
<dc:title/>
</cc:Work>
</rdf:RDF>
</metadata>
<g transform="translate(0 -988.36)">
<g transform="translate(-.85721 .17178)">
<g stroke-width=".32">
<path d="m0.85719 1020.2v-32h64v64h-64z" fill="#b3b3b3"/>
<path d="m26.857 988.19h16l16 5e-5h6c-4 17-26 17-38-5e-5z" fill="#ffc1ae"/>
<path d="m0.81994 1025.7s29.267 5.9364 39.398 12.044c1.3495 0.7413 6.3736 3.793 2.9826 1.1243-7.1523-4.5608-14.855-8.4146-23.016-10.824-3.9754-1.0252-8.0105-1.7814-11.961-2.9055-1.4143-0.642-4.7582 0.071-6.4027-0.4889-0.8725-0.2972-1.2666-0.9529-0.64023-2.3598 0.13201-0.096 0.26772-0.1849 0.40661-0.2688 2.5888-1.5648 6.2839-1.2567 7.7627-4.4502 2.3073-3.6969 3.8951-8.076 7.6575-10.614 2.1502-2.1015 5.3319-3.5927 5.1873-7.046 0.83835-3.3099 0.31789-6.9416-1.0513-9.9644 0.36579 4.4561 1.859 9.5958-1.1448 13.509-3.1516 3.1343-7.0913 5.7059-8.9438 9.9091-1.5808 3.2298-3.162 6.5459-7.1969 6.8325-2.5335 1.387-3 0-3-2.4512v-29.549c6.9395 0.0168 14 3.9e-4 21 3.9e-4 3 0 5.257 1.3218 5.4626 4.4298 2.3049 7.9371 4.0549 16.053 7.0361 23.78 1.5563 0.7279-1.1359-3.3012-1.0655-4.3254-0.90671-3.9132 1.2877-9.1496 5.8444-9.1669 4.0172-0.4497 7.5851 4.3637 5.7693 8.0411-0.04836 2.8504-5.2798 5.495-5.1211 6.2322 3.5875-1.063 5.4828-4.5068 6.2934-7.9099 0.12039-3.3997-3.0915-7.2611-6.7351-6.9305-3.6928-0.9078-5.836 4.1772-7.1794 5.1497-1.5453-3.7248-2.11-7.7799-3.3205-11.622-0.26287-2.5495-3.9842-7.678 1.0158-7.678 2.4361 1.5612 1.8389 6.17 5.6386 6.9251 2.4655 0.60927 4.6597-1.4129 7.3919-0.6753 1.4778-0.11322 1.6031-2.2196 1.8439-3.8387 0.18032-1.2123 0.42545-2.1514 1.3518-1.7759-0.25702 2.4442-2.5558 7.1333-1.1696 8.3224 3.338-0.87428 6.5159 1.9054 9.6842 2.1703 1.0017-2.4954 2.0404-5.0738 2.8215-7.7326 0.49032-1.8162 1.4378-3.3953 3.1287-3.3957h4.3091c-0.08188 19.017 0.20647 38.042-0.25073 57.053-2.4812 0.8057-5.2187-3.3002-7.8226-4.3082-4.0678-2.7421-8.3527-5.3812-11.447-9.2696 3.2957 0.261 7.5717-0.5266 8.6331-4.1806 1.3545-3.8902-1.4435-9.1563-5.8825-8.9539-2.2741-0.7016-8.2447 0.035-8.0064 1.2031 3.8415-0.9397 8.7972-2.0086 11.913 1.1578 2.769 2.7608 2.2761 8.3491-1.7679 9.6534-4.3431 1.7824-8.5723-1.8079-10.775-5.2701-0.89254-1.4195-2.8754-5.1267-1.6128-1.5101 1.6749 2.7789 3.7152 5.2852 5.983 7.583 3.1239 3.1653 6.6794 5.9348 10.306 8.4756 3.3985 2.4144 6.8709 4.7283 10.17 7.28 0.90869 2.2012 0.56001 5.0871-2.0225 5.0695-7.3164 0.013-61.418 0.018-61.418 0.018zm24.666 15.152c0.58208-3.0743-2.1827 1.1592 0 0zm-9.7484-9.7741c-1.8277-1.3867-1.7373 1.4248 0 0zm5.6-5.7942c-2.2448-1.4868-1.645 1.8414 0 0zm-1.76-3.8058c-3.4644-1.0984-6.5604-4.7668-5.0738-8.5238 1.2474-3.4421 5.932-5.2032 8.8849-2.7383 2.3867 1.2784 3.9727 6.7289 5.0079 6.838-0.93098-3.8938-3.8456-8.2495-8.2113-8.4519-3.938-0.2855-7.4487 3.6673-6.4234 7.5538 0.40605 2.3824 2.9537 6.4409 5.8158 5.3222zm-9.9017-19.334c1.3172-2.2848-2.2808 1.5941 0 0zm3.1914-3.6431c-1.6465 0.29295-0.71571 1.8545 0 0zm-7.4039-3.4492c1.5942-2.2195-3.2052-3.667-1.1973-0.56024 0.13849 0.50736 0.8402 1.6911 1.1973 0.56024zm36.707-2.9867c0.20857-1.6935 2.3049-3.3134 1.0771-0.6084 0.03349 0.60363-0.5841 1.2434-1.0771 0.6084zm-5.9935-1.1373c0.21856-2.4135 2.1176 1.6724 0 0zm7.7205-2.4098c0.94132-1.1215 0.11618 1.132 0 0zm3.84 0c0.94132-1.1215 0.11618 1.132 0 0z" fill="#cec5b4"/>
<path transform="translate(.85721 988.19)" d="m20 0s2.4842 7.9356 1.6758 10.807c0.003995 0.15194-0.00753 0.29764-0.013672 0.44531-1.0737 2.0053-2.4328 4.239-3.9766 6.5098-0.84811 0.72515-1.7264 1.4084-2.5371 2.0684-2.4721 2.0895-3.7691 5.0468-5.3633 7.7793-2.4999 2.5916-5.0694 4.7552-7.4863 6.0332 0.018247 0.002319 0.03644 0.003581 0.054688 0.00586-0.35045 0.13684-0.68974 0.28141-0.98633 0.45898-0.69218 0.009626-1.0268 0.46517-0.99219 0.93359-0.23067 0.36975-0.375 0.81133-0.375 1.3711 3.8237 0.1356 7.6329 0.60665 11.381 1.373 0.36007 0.060987 0.71546 0.14411 1.0742 0.21094 2.0185 0.46138 4.0483 0.8887 6.0547 1.4023 4.0957 1.1502 8.084 2.668 11.938 4.4785 1.3723 0.66109 2.7323 1.3518 4.0879 2.0488 0.91308 0.49036 1.8198 0.99189 2.7148 1.5137 1.0432 0.6882 2.2804 1.3149 3.416 2.0273 1.189 0.7459 2.2658 1.5868 2.8945 2.6934 0.092371 0.069721 0.42267 0.30629 0.54688 0.39844-6.3169-3.87-12.829-7.4052-19.699-10.195-6.9748-2.5562-14.408-4.3637-21.732-4.8008-6.6988-0.17858 35.609 13.89 46.254 18.461 4.9605 3.5216 11.398 7.9766 12.07 7.9766h3v-4c-0.24254-0.1819-0.30598-0.23948-0.50977-0.39453-0.25208-0.64529-0.7292-1.2042-1.6035-1.5742-0.54367-0.40426-1.0989-0.79791-1.6504-1.1953-0.17865-0.16091-0.32639-0.30032-0.66992-0.57422-1.5054-1.0259-3.0244-2.0622-4.5391-3.1113-2.0221-1.4168-4.0272-2.8583-5.9746-4.3652-2.7643-2.1555-5.4017-4.453-7.7285-7.0371-0.083991-0.094306-0.16681-0.19-0.25-0.28516-0.25522-0.28835-0.50443-0.5836-0.75195-0.87891-0.3442-0.41748-0.68369-0.83886-1.0117-1.2734-0.30807-0.62886-1.0815-1.5634-1.7871-2.4961-0.30271-0.46669-0.60048-0.93756-0.88281-1.4219-0.2159-0.4497-0.34632-0.77555-0.42969-1.0312-0.002452-0.21535 0.061981-0.39882 0.2168-0.54102 0.25061 0.14755 0.61329 0.49848 0.99805 0.94922 0.57384 0.96557 1.1613 1.931 1.8145 2.8516 0.80823 1.3793 1.9817 2.6154 3.3477 3.5078 1.157 0.85753 2.6179 1.3424 4.0703 1.4023 0.062652 0.002966 0.12475 0.008552 0.1875 0.009766 0.22694 0.003583 0.45324-0.005652 0.67774-0.023438 0.034937-0.002768 0.070624-6.14e-4 0.10547-0.003906 0.002637-2.67e-4 0.005176-0.001683 0.007813-0.001953 0.8686-0.083062 1.6994-0.33855 2.4355-0.76172 0.002521-0.001449 0.005293-0.002453 0.007812-0.003906 0.005629-0.00291 0.010016-0.00684 0.015625-0.009766 0.13567-0.07892 0.27023-0.1589 0.39844-0.25 1.0688-0.69756 1.7206-1.726 2.002-2.877 0.52844-1.6282 0.17597-3.2972-0.70898-4.666-0.56201-0.98137-1.3693-1.8106-2.4043-2.2969-0.21452-0.098068-0.43174-0.18578-0.64844-0.26367-0.002547-9.15e-4 -0.005265-0.00104-0.007813-0.001953-0.54405-0.22335-1.1212-0.36164-1.7129-0.41797-1.0557-0.15376-2.1261-0.13013-3.1992-0.013672-1.7001 0.15966-3.3869 0.54671-5.0762 0.9043 0.23057-0.89629 2.8669-1.7807 5.3848-2.002 0.69331 0.2034 1.7217 0.28409 2.3086 0.18164 0.24997-0.029014 0.49461-0.028061 0.73828-0.025391 0.087838 0.023855 0.18146 0.042195 0.26367 0.070313 0.75392 0.011896 1.4596 0.18851 2.1152 0.46875 1.6635 0.75799 2.9835 2.2311 3.6738 3.9531 0.032875 0.084086 0.073624 0.16487 0.10352 0.25 0.03626 0.1007 0.059904 0.2046 0.091797 0.30664 0.061496 0.20171 0.12567 0.40388 0.16992 0.60938 6.94e-4 0.003226 0.001262 0.006538 0.001953 0.009765 0.003225 0.014756 0.002727 0.030149 0.005859 0.044922 0.11841 0.57046 0.1719 1.151 0.14648 1.7266-0.01246 0.28215-0.045838 0.56251-0.095704 0.83984-0.017918 0.097031-0.047588 0.19268-0.070312 0.28906-0.04307 0.18635-0.085176 0.37273-0.14648 0.55469-0.042483 0.12484-0.10104 0.24622-0.15234 0.36914-0.1846 0.44319-0.41256 0.87217-0.71875 1.2695-0.077236 0.15067-0.16471 0.28851-0.25586 0.42188-0.70249 0.83831-1.6233 1.4-2.6465 1.7754-1.0387 0.3276-2.1514 0.48219-3.1504 0.63672-0.63237 0.051035-1.2619 0.078079-1.8652 0.076172 0.087554 0.087225 0.17923 0.16956 0.26758 0.25586-0.001113 3.56e-4 -0.002794-3.57e-4 -0.003906 0 0.017543 0.015659 0.035178 0.031231 0.052734 0.046875 2.7423 2.6693 5.8492 4.9078 8.9609 7.127 0.15233 0.11031 0.30627 0.21831 0.45898 0.32812 0.55465 0.39564 1.1108 0.79094 1.6621 1.1895l0.085938 0.058594c0.095453 0.051996 0.18535 0.115 0.2793 0.16992 0.74119 0.51882 1.4762 1.0457 2.2227 1.5566 1.2262 0.95843 2.438 1.9416 3.8203 2.5801 0.46025 0.3084 0.91883 0.62209 1.3789 0.92969 0.040928-3.0038 0.058377-5.2756 0.082031-7.748 0.014109-1.0872 0.022641-2.1745 0.033203-3.2617 0.005597-0.72881 0.013224-1.5531 0.017578-2.25 0.031827-4.2044 0.04724-8.4087 0.035157-12.613-0.00143-4.3358-0.003183-9.2794 0.003906-15.031 1.7e-5 -0.003481 0.001953-0.014176 0.001953-0.017578-4.19e-4 2.89e-4 -0.001534-2.89e-4 -0.001953 0 0.001896-1.5314-0.002543-2.2809 0.001953-4-2.4657 1.7612-5.5825 4.0311-8.8691 6.3125 1.4316-5.8022-25.365-9.8986-29.131-19.312 0.42764 1.7786 4.4952 20.64 6.6641 17.398 1.5875-3.7925 6.974-4.5646 10.004-2.0957 3.1597 2.3129 3.2511 6.8581 1.127 9.8965-0.20133 0.51619-0.6551 0.99702-0.58398 1.584-1.3159 0.68762-2.5667 1.2747-3.709 1.709 0.23312-0.21244 0.41076-0.48392 0.53906-0.80078 1.7909-1.3957 3.2781-3.1436 3.9863-5.3105 1.4656-4.0696-2.7793-8.6348-6.9414-7.2812-4.2201 0.942-5.1453 6.0373-4.0762 9.6348 0.002272 0.007645 0.003569 0.015806 0.005859 0.023437 0.01863 0.70375 1.1725 2.7426 1.4648 3.793 0.083278 0.35713 0.055868 0.59448-0.15625 0.62695-0.14505-0.00782-0.37067-0.10695-0.69922-0.32617-0.65419-1.525-1.2286-3.0776-1.7676-4.6426-1.0667-3.1731-1.9821-6.4034-2.8613-9.6426-0.62186-2.3293-1.2362-4.6609-1.8887-6.9785-0.028384-0.10392-0.05551-0.20863-0.083984-0.3125-0.008819-0.019432-0.016577-0.046572-0.025391-0.066406-0.23633-0.83208-0.47467-1.6637-0.72656-2.4902-0.11657-0.4738-0.44267-1.667-0.81445-2.6855-0.21793-0.9553-0.45703-2.0332-0.45703-2.0332h-5zm-1.3164 20.48c1.5699 0.10963 3.6328 0.97377 6.3262 2.9082 1.3572 1.7881 2.2456 4.0506 2.6895 6.1328-0.48505 0.42899-1.8646-2.7156-2.8398-4.3906-0.22638-0.48799-0.48551-0.92501-0.77734-1.3008-2.1256-3.2064-7.1447-3.638-9.4492-0.50781 0.68936-1.7654 1.9198-2.9906 4.0508-2.8418zm-4.0059 1.4238c-0.4418 0.57199-0.89092 1.1366-1.3477 1.6953 0.35799-0.62832 0.81625-1.2011 1.3477-1.6953zm-0.84375 6.5977c0.7834 2.0838 2.7388 3.8465 4.8184 4.6172-1.8354 0.97632-3.6114-0.39728-4.7715-2.1641-0.041799-0.75216-0.05986-1.578-0.046875-2.4531zm25.301 5.2422c0.046649-6.31e-4 0.1317 0.024793 0.26562 0.089843 0.91627 1.2477-0.59217-0.085431-0.26562-0.089843zm9.4492 2.4336c0.0348 0.003421 0.071676 0.015283 0.11133 0.03711 0.079306 0.043652 0.16937 0.12764 0.26563 0.26562-0.13128 0.1566-0.24264 0.25684-0.33398 0.31445-0.18269 0.11522-0.28938 0.060335-0.33203-0.054688-0.021327-0.057511-0.026336-0.13143-0.017578-0.20508 0.017515-0.14729 0.09279-0.29762 0.21094-0.34375 0.029537-0.011532 0.060903-0.017092 0.095703-0.013672zm-28.924 0.12109c0.070966 0.016307 0.14616 0.050924 0.22656 0.10742 0.1608 0.113 0.34023 0.31393 0.5332 0.63086-0.13604 0.14849-0.26045 0.26813-0.375 0.36328s-0.2185 0.16583-0.3125 0.21484c-0.18799 0.098033-0.33595 0.10976-0.44727 0.066407-0.11132-0.043357-0.18645-0.14234-0.22852-0.26953-0.10516-0.31798-0.006342-0.80902 0.24023-1.0215 0.049315-0.042494 0.10541-0.073153 0.16602-0.089844 0.060603-0.01669 0.1263-0.018259 0.19726-0.001953zm4.6719 8.9512c0.10699 0.011916 0.25472 0.061322 0.45117 0.16211 0.015278 1.4888-1.2001-0.24552-0.45117-0.16211zm-1.1074 2.8281c-0.9939 0.7434 0.63535 3.657 0 0zm18.115 8.4883c-0.34784 0.071471-0.039017 1.2056 0.58008 0.39453-0.27444-0.32353-0.46413-0.41836-0.58008-0.39453zm10.092 0.66211c1.0713 0.55135 3.7582 1.9835 6.1582 3.3164 1.0526 0.68718 2.1039 1.3744 3.1543 2.0625-0.47699-0.14891-1.5304-0.58115-3.4355-1.4375-1.9455-1.3275-3.9066-2.6406-5.877-3.9414z" fill="#b3b3b3"/>
<path d="m2.8572 1037.2c-2-10 17.924-8.3909 25.749-5.1433 11.54 5.073 22.774 13.245 33.251 20.143-2 0-5.0082-0.6984-6.3171 0-2.6829 0-4.5255-2.5202-6.6829 0-3.7781-0.651-6 0-11.985-1.0631-1.7607-0.6275-3.7012 0.3434-1.0153 1.0631-2.1923-0.3411-6.6189-0.019-8 0h-9c-2.7143-0.5382-9 0-9.0912-1.6511 0.26448-3.1567 0.4915-6.3214 1.0744-9.4355 0.71489-1.3471-0.26326-6.1122-0.8221-2.5716 0.14382 2.634-1.148 5.393-1.5723 7.5598 2.1439 2.2711-0.55222 6.5613-3.579 4.5473-6.4248 5.722-3.2554-12.656-2.0097-13.449zm16.88 13.899c-0.61662-1.1663-0.8756 0.593 0 0zm-2.021-1.3465c-1.0813-0.7917-3.776-4.2376-3.089-0.7998 0.79608 0.6921 2.0531 1.1989 3.089 0.7998zm14.117-0.6724c-1.7913 0-4.0191-3.1145-4.7732-0.9877 1.0258 0.7159 4.1493 1.8396 4.7732 0.9877zm7.5008 0.3529c0.34381-2.9182-6.8149-1.4233-2.6849 0.023 0.88681 0.1185 1.81 0.234 2.6849-0.023zm-15.756-1.2021c0.08595-1.8257-2.9917-1.1105-0.83809-0.131-0.05443 0.6575 0.86783 1.1457 0.83809 0.131zm-17.44-0.213c-1.5442-2.2457-1.0466 2.1457 0 0zm14.88-0.8512c-1.2784-0.7386-0.5314 1.9036 0 0zm-2.24 0.092c-0.61662-1.1663-0.8756 0.593 0 0zm21.579-0.7853c-0.97316-2.0871-1.6424 1.1409 0 0zm-33.8-0.9136c-1.5846-2.0644-1.0852 2.1919 0 0zm25.341-0.4c-0.82001-1.358-0.78992 1.3081 0 0zm11.2 0.044c-0.93099-0.7304-5.9495-1.9524-2.6844-0.5443 0.83018 0.1617 1.8614 1.2612 2.6844 0.5443zm-27.282-1.5571c-1.8946-2.7249-1.8734 1.7241 0 0zm5.8212 0.2328c1.904-2.6029-2.6393-5.008-2.1495-1.0059 0.2677 0.8684 1.306 1.3736 2.1495 1.0059zm16.165-0.5979c-1.1035-1.2065-5.4238-1.4202-1.8372-0.2488 0.41818 0.024 1.7357 0.9622 1.8372 0.2488zm-7.024-0.6821c-0.15687-1.2989-0.947 1.257 0 0zm-22.674-0.7138c-0.78121-2.4933-3.8482 1.1831-0.55862 0.3785 0.24757-0.013 0.37275-0.2524 0.55862-0.3785zm7.154 0.1091c-2.4372-1.9165-2.0662 1.2184 0 0zm10.721-0.676c1.5809-3.5791-4.4606-1.2354-0.99653 0.6105l0.56889-0.2103zm14.239 0.3113c-0.60425-1.8242-3.1631 0.9368-0.61418 0.1793zm-35.421-0.6078c-1.9267-2.9493-1.0696 2.1514 0 0zm27.901 0.2978c-1.306-1.2149-0.75064 0.7677 0 0zm4-0.9788c-2.063-1.5597-1.0253 1.8591 0 0zm-7.1504-0.2464c-1.6804-1.9177 1.0934-1.577 1.7211-1.4121-0.62731-2.605-5.8865-1.7169-3.3781 1.0741 0.10917 0.3557 3.0123 1.598 1.6571 0.338zm4.2704-0.7074c-2.1523-2.3937-1.8516 1.753 0 0zm-24.96-0.9285c-1.4096-3.4421-2.4171 2.6679 0 0zm11.361 0.2989c-0.8812-2.2114-1.7467 1.3061 0 0zm4.2558-1.5016c-0.29392-3.2797-1.8429 2.1629-0.07255 0.445 0.02418-0.1483 0.04837-0.2967 0.07255-0.445zm-8.2572-1.1017c-1.1317-1.9371-0.32992 2.5979 0 0zm2.9136-0.1945c-0.68172-2.6159-2.4578 2.9233 0 0zm-4.8882-0.8327c-0.96912-1.7735-1.6815 2.4046 0 0zm-2.7152-1.8873c-2.6083-1.3458 0.17234 3.9063-0.0063 0.2686l0.0043-0.1822zm14.29 0.56c-1.23-2.037-1.1849 1.9622 0 0zm-8.0565-1.9592c-0.39117-2.2878-6.3598-1.254-2.798 0.2567 0.84146 0.086 2.2669 0.7677 2.798-0.2567zm-9.0338-1.2449c0.56842-3.0945-3.7184-0.4571-0.82491 0.7125 0.43391 0.1739 0.90805-0.2661 0.82491-0.7125zm-3.2462-0.129c0.50577-4.0212-3.4016 0.2844 0 0zm4.9766-0.6669c-0.48863-1.0162-0.48659 1.1244 0 0zm-6.08 22.071c1.1448-0.6893 5.5897 0.2819 2.403 0.2819-0.76439-0.073-1.7117 0.1519-2.403-0.2819zm51.014-5.3911c-5.8822-4.0529-12.174-7.8268-16.517-13.649-2.4297-2.9078-4.4592-6.1199-6.406-9.3628-2.4717-1.1671 0.74466 3.5274 1.2975 4.4446 1.8486 3.028 4.4069 5.5374 6.3398 8.506-6.8413-3.4998-13.678-7.2291-21.222-9.0078-2.0843-0.9126-7.0784-0.8671-7.4902-2.348 9.2114-1.1499 18.491-2.1528 27.444-4.7193 4.1124-1.0229 9.1467-2.3804 12.806 0.5218 2.9651 2.6879 2.1757 8.5374-1.9776 9.5599-4.3513 1.2959-8.3505-2.3063-10.303-5.8696-0.20348-1.3911-3.458-4.4436-2.0083-1.2533 4.2029 7.5799 11.273 13.029 18.248 17.922 3.0524 2.1021 6.1491 4.1489 9.0529 6.4566-2.4848 0.074-5.0997-3.3385-7.6505-4.5299-5.8708-4.1521-12.494-7.6909-16.678-13.737-1.7476-2.288-3.3384-4.6904-4.8829-7.1186-1.4717-0.083 0.61272 3.0695-1.5052 0.8308-1.7126 0.3268 1.7778 3.7021 2.379 4.9632 5.1752 8.3723 13.915 13.468 21.744 19.038 1.817 1.4023 6.1411 4.0531 6.2583 4.7919-3.3162-1.1603-5.9208-3.6946-8.9307-5.439zm-33.894-21.16c-1.216-2.249-3.0046 1.612-0.54559 0.3326zm22.56-0.8c-0.84705-1.6675-0.5621 1.5522 0 0zm5.76 0.16c-1.1189-1.3883-1.2551 1.3574 0 0zm-8-0.6217c0.29341-1.7251-3.1524-3.3396-1.4634-0.7399 0.29599 0.2516 1.1271 1.5927 1.4634 0.7399zm4.16-1.3171c-0.96774-1.0478-0.46625 1.542 0 0zm13.6 24.119c-3.9448-2.9097-8.1408-5.4648-12.028-8.455 3.2264 0.9915 5.5232 3.7008 8.4159 5.3365 2.9919 2.0701 6.0743 4.0168 8.9356 6.2697-2.0814-0.4142-3.536-2.1451-5.3238-3.1512zm-2.72-6.1882c-3.6472-2.6572-7.5211-5.0677-10.698-8.3073 2.5417-0.8238 5.87-0.4097 7.3584-3.2901 2.9051-4.16-0.25934-11.149-5.5827-10.845-1.3069 0.2362-3.9353-1.0484-1.2006-1.5429 6.5361-2.8829 12.175-7.3429 17.963-11.449 0.49844 3.0069-0.75738 5.7052 0.14561 8.5769-0.09835 5.6098 0.15404 11.241-0.23555 16.834 0.46928 4.3379 0.12815 8.6796 0.0024 13.018 0.5417 1.8851-0.17863 3.0641-1.693 1.1733-2.0628-1.3171-4.0334-2.7906-6.0594-4.1684zm-16.225-8.3932c-1.2121-0.9331-1.4063-2.992-0.0829-0.864 0.70956 0.4122 1.0908 2.2845 0.0829 0.864zm-34.265-9.5198c1.978 0.4143 4.748-0.3917 6.2268 0.8696-3.6849 1.8312-17.721-1.8024-6.2268-0.8696zm-2.1272-1.242c3.3873-0.9138 5.8324-3.5986 7.0595-6.7958 1.7603-3.4441 4.2076-6.4997 7.3249-8.8035 2.7238-1.5987 3.5537-4.7726 4.4264-7.3084 1.538 3.0786 1.9861 6.6913 3.0127 9.9994 0.26683 1.451 1.5535 5.774-0.29456 2.5589-2.5772-3.4777-8.3217-3.9324-11.043-0.4014-2.4508 2.8024-1.5271 7.0697 0.91726 9.5579 2.3919 2.3782-3.5616 1.104-5.1996 1.5004-2.071-0.01-4.143-0.1103-6.2038-0.3075zm14.545-0.684c-3.7443-1.2269-6.1311-6.6925-2.8612-9.6425 2.9737-3.343 8.3021-1.5521 9.8692 2.2664 1.2015 1.3832 1.9083 5.8567 3.8058 5.1777 0.19407-1.3347-0.71423-4.3369 0.63769-1.6346 0.4509 2.9633 4.6259 0.4461 2.1967-1.474-2.7826-8.7396-5.0542-17.652-7.2089-26.554 0.7342-0.99688 1.6679 3.4895 2.0593 4.6445 2.295 7.7908 4.0055 15.773 7.0065 23.341 2.2138 2.2716 0.22678-2.9746-0.28964-3.8384-1.3693-3.8294-0.02163-9.5895 4.7731-9.8673 4.0331-0.7049 7.4382 3.8375 5.9384 7.5482-1.5141 4.3027-5.9845 6.8036-10.123 8.0587-5.2019 0.9984-10.443 2.7913-15.804 1.974zm18.55-5.353c-0.38575-2.0179-2.3426-2.5137-0.92792-0.1727 0.08108 0.5929 0.93018 1.1498 0.92792 0.1727zm-14.558-2.876c0.61544-2.8519-7.4931-2.037-3.1408 0.2711 0.91763 0.8175 2.2012 0.1224 3.1408-0.2711zm-21.92-24.404c6.5536 0.127 13.445-0.0274 20 0 0.63561 4.6454 1.5459 9.7062-0.24675 14.243-3.2626 3.5023-7.713 6.1467-9.7283 10.697-1.6763 3.2291-3.7145 6.9574-7.7773 7.2842-2.2477-2.2244-2.2178-30.065-2.2477-32.224zm3.36 20.107c1.5748-3.4972 5.4504-5.1105 7.6696-8.1227 1.4259-0.48279 3.3083-4.5297 0.7357-2.2824-3.2019 2.8489-5.9702 6.1885-9.4705 8.696-4.1285-0.5813 0.19978 4.4871 1.0652 1.7091zm-0.66759-6.9425c-0.42969-1.8489-1.7732 1.3844 0 0zm-0.77242-3.4047c-1.6727-1.7064-1.8441 2.0192 0 0zm2.6095-2.2999c2.6409-1.9625-2.1179-5.9102-2.086-1.9934-0.53733 1.6888 0.074552 4.0284 2.086 1.9934zm8.9105 0.39876c-0.61646-1.1664-0.87587 0.5928 0 0zm-5.92-5.0056c-1.4589-2.0454-1.4455 1.5943 0 0zm22.152 23.931c-2.8309-8.3007-4.7241-16.889-6.8847-25.371-0.16132-3.0972 1.1558 2.675 1.4864 3.6627 2.1456 7.7523 4.1716 15.538 6.3834 23.272-0.52824-0.3745-0.65901-1.043-0.98509-1.5631zm13.848-0.8002c2.0383-3.0644 2.7812-7.4883-0.24703-10.213-2.4477-2.5404-7.3327-2.6942-9.658 0.018-0.76968 1.2793-2.6729 4.5917-2.8448 1.1338-1.4974-5.5465-3.3606-11.353-4.7702-16.923 3 0 4.258 0.39966 4.2043 2.8923 1.0328 2.8469 4.4329 5.9168 7.5365 4.0822 2.4275-1.2473 5.2938 0.0673 5.4493 2.7043 3.2839-1.0192 7.1022 0.74327 10.141 2.0046 2.1361 1.3437 1.3102-3.7029 2.5678-4.8709 1.5889-2.3698 1.3841-6.8126 5.1012-6.8126h3s-0.02092 9.7137-0.02789 12.959c-6.4484 4.6659-12.532 10.115-19.93 13.236-0.18028 0.088-0.49557 0.023-0.5225-0.2121zm6.1352-1.1512c4.9382-3.1137 9.4578-6.8229 14.129-10.31-0.77596 3.1099-4.6275 3.7705-6.7063 5.8487-3.069 2.1137-5.986 4.5932-9.5549 5.8326 0.60068-0.6151 1.4293-0.9023 2.1319-1.3714zm-28.798-24.277c0.15686-1.2989 0.947 1.257 0 0z" fill="#767462"/>
<path d="m1.4972 1051.9c-0.74935-2.3401-0.317-5.5204-0.31775-8.5772-0.32223-1.084-0.32223-6.084 0.95775-3.8317 1.7726 3.0052 1.5097 6.548 1.9609 9.8094 0.23006 1.509-0.24083 2.9383-2.6009 2.5995zm6.6443-0.1148c1.425-0.4551-0.053897 0.6725 0 0zm1.889 0.245c-1.4564-1.6944 1.9581-4.2878 2.8412-2.0718-2.2325-0.3763 1.8481 1.8244-1.0145 1.2804-0.39687 0.028-1.4795 1.0228-1.8267 0.7914zm3.5902-0.388c-0.26459-1.9273 2.8971-2.2661 1.0836-0.329-0.11416 1.4867 2.3537 0.4825-0.26436 0.8834-0.4506 0.034-1.5828 0.042-0.81928-0.5544zm3.9873 0.2384c2.1659-0.7193-1.1253 0.5256-0.75082-0.6418zm1.7292 0.151c1.2475-0.3192 0.93157 0.5442 0 0zm6.8529-0.1832c-1.4525-2.7852 3.0699-0.1237 0 0zm1.7471 0.1399c4.39e-4 -2.3317 1.8934 0.7156 0 0zm1.56 0.01c1.6164-1.5598-4.51-3.2475-0.86185-2.8328 2.8041 0.032 3.8213 2.7862 0.86185 2.8328zm4.36-0.7595c0.69784-0.9255 2.6455 1.1466 0 0zm4.5143 0.3645c-3.0529-2.0477 2.6764-0.8454 3.4066-0.5457 0.053-1.1502-0.84169-2.4148 1.1056-2.5869 1.6449-1.6636-3.9515-3.1202-0.06622-2.7737 0.47589-2.083-4.5663-1.9972-6.1591-3.4229-3.1401-1.2046 0.61131-1.2624 1.5412-0.062 1.6932 1.2776 3.9224-0.6278 1.1838-1.383-3.4232-0.4056-6.0286-2.935-9.2641-3.7325-1.437-0.742-4.2865-0.2131-2.7968 1.9027-3.0822 0.5928-2.4566-5.2466-6.1912-3.9361-1.4805 0.049-4.734-1.648-1.3265-1.2045 0.88592 0.3545 4.5526 1.4341 2.5391-0.4075 3.1098-1.1432-4.0708-0.6386-4.9035-2.3671-1.5096-1.6301-5.7546-1.4354-4.5213 1.2498-1.5411 0.8425-1.9264-0.2061-1.0156-0.9045-0.91509-3.9776-5.2453-1.753-7.1555-2.9649-1.8791 0.7648-4.7169 0.6176-2.8907-2.2257 3.1777-0.8019 6.0304 0.818 9.3085 0.9568 8.2675 1.3706 16.284 4.0652 23.63 8.1078 9.1199 4.8809 18.375 11.395 27.062 16.935-3 0-6.6234-0.279-9.3462-0.5173-1.5555-1.1609-2.7153-1.631-3.6538 0.5173-4 0 2.4591-4.9341-0.21408-4.3363-1.9343 2.5507-6.0038 3.4252-8.7859 4.3363-1 0-1 0-1.4857-0.6357zm7.3904-2.1313c-1.1847-2.6499-2.6657 0.7268 0 0zm1.4954-2.5275c-0.97824-1.4474-0.34152 2.0256 0 0zm-3.04-3.3412c-0.68053-1.1668-1.0179 1.1117 0 0zm-17.911-9.294c0.01669-2.8698-3.5263 0.7059-0.37525 0.236 0.12508-0.079 0.25016-0.1573 0.37525-0.236zm37.047 17.48c-6.9829-5.391-14.922-9.5094-21.391-15.567-1.1812-2.377 2.4718 1.3602 3.185 1.8531 5.94 4.7646 12.27 9.0092 18.565 13.283 1.6553 0.306 0.14552 0.8798-0.35858 0.4306zm-39.616-0.094c-2.1672-0.6383 0.90329-3.1433 0.82387-0.7454 1.6054 0.914 0.15128 1.0489-0.82387 0.7454zm-3.6-1.3112c-3.2453-1.972 4.6273-2.6529 1.6588 0.3642-0.52674 0.4561-1.1516-0.2371-1.6588-0.3642zm-13.52-0.1984c2.0054-2.4583 1.8672 1.947 0 0zm57.787 0.1807c-0.46292-1.6025 1.0666 0.438 0 0zm-40.335-1.702c0.89426-2.4808 3.3443 1.9005 0.32737 0.678-0.43124 0.1813-0.53285-0.4459-0.32737-0.678zm8.7885 0.068c0.48532-1.6045 1.4583 0.7127 0 0zm7.1801-0.041c0.65111-3.7237 2.7154 1.1321 0 0zm24.18-0.7678c0.84705-1.6675 0.5621 1.5522 0 0zm-51.371-0.1781c0.40943-1.6202-0.47338-2.1792-1.4317-1.0551-1.7922-0.3551 0.85327-2.45-0.0082-3.1832 3.1887-0.7012 4.8668 3.6479 1.7124 4.5061zm20.483-0.649c-1.8327-0.4743-1.7387-1.1885-0.71519-2.5759-0.97412 0.2104-4.3994 0.8993-2.0781-0.6546 1.8157-0.6856 0.20674-2.8425 2.5585-1.3938 1.9883 0.6751 6.5044 2.2401 6.7417 2.7654-2.0095-0.4826-1.5013 1.5245-1.4522 2.162-1.6235-2.1257-3.641 1.2047-5.0547-0.3031zm3.988-1.5534c1.0453-2.0962-5.6157-1.9262-2.0471-1.1438 0.56786 0.5487 1.0365 2.021 2.0471 1.1438zm-11.751 1.5664c-1.9718-1.3609 3.4091-3.058 0.44017-3.8578 0.69141-1.1882 4.2353-3.6804 3.738-1.279-1.8012 1.2293-1.4039 5.5774-4.1781 5.1368zm-6.8028-0.6524c-1.264-0.2819-3.7257 0.7121-2.9742-1.8622 0.91474-3.9629 7.2442 1.1457 3.526 2.4435l-0.33975-0.2369zm0.5897-1.3186c-2.9228-2.9522-1.3668 2.4275 0 0zm3.5845 0.8651c-1.006-1.5024-0.61265-5.3871 0.37662-5.8558 1.7454 0.9569 0.99262 3.3098 0.11221 3.9142 0.22671 0.5907 0.77558 4.346-0.48883 1.9416zm-15.68 0.1412c0.81377-0.6836 0.61792 1.1463 0 0zm56.32-0.9404c-5.6468-4.2746-11.859-7.822-17.042-12.692 1.9629-0.4775 5.7094-0.522 7.0512-3.2158 1.8758-2.5454 1.6722-6.1376-0.19567-8.6146-0.82159-2.7321-6.9439-2.0538-6.4626-3.7758 6.359-3.1859 12.499-7.138 17.929-11.668 0 3-1.6887 5.3936-0.17822 7.8196 0.17822 2.1804-0.82178 6.1804-2.3379 5.676 1.2226 1.225 3.3177 4.6662 1.5161 5.5044-0.53983-2.2158-1.6591-3.5728-2.6303-0.9472-2.8324 0.9766 2.6002 0.8151 2.1723 2.5973 3.1164-2.2642-0.4087 5.1668-1.1684 1.4193-2.3825 1.7582 0.38921-2.3685-2.266-1.5864-2.7175-0.082-3.6471 2.7907-2.7968 4.5797-0.8371 1.107-3.1396 5.3047-0.54768 2.718 1.5816-2.1024 5.4759-5.0823 7.6189-2.4511 0.86249 2.328 0.19395 4.4973 0.49494 6.4456-1.1529 1.1939-0.95734 2.1446 0.04122 2.6616-0.35856 1.8671 0.20868 5.2797-0.38599 6.2137l-0.42658-0.4107zm0-3.6808c-1.2783-1.7805-0.96761 1.2891 0 0zm0.06322-4.2552c0.16559-3.5764-3.8701 1.8659-0.39114 0.1851zm-4.3535-0.5808c2.3952-2.7246-4.4103 0.379-0.68423 0.1903 0.22808-0.063 0.45615-0.1269 0.68423-0.1903zm-1.5431-1.664c-1.0223-1.3815-0.89229 1.6016 0 0zm4.1839-0.8433c-0.88947-1.3517-0.93305 2.116 0 0zm-1.7364-1.6217c1.2992-3.109-3.8911-0.068-1.3497 0.4984 0.47101-0.099 0.92714-0.2675 1.3497-0.4984zm3.4164-0.064c2.5751-2.0359-3.8353-0.1419-0.53174 0.3062zm-3.8973-9.8907c-1.7399-0.3505-1.6021 1.2124 0 0zm-1.273-2.5439c-2.4951-1.4133-1.7301 3.6232 0 0zm2.2596-1.0964c1.9219-1.4787-3.1054-4.9591-2.6273-1.3044 0.82927 1.9937 1.9846-1.8783 1.4679 1.1238-0.02667 1.1017 0.72682 1.1989 1.1594 0.1806zm-4.16-0.1334c0.19636-1.3307-2.7189-4.3976-1.4099-1.3636 0.26623 0.4981 0.55356 1.9206 1.4099 1.3636zm4.821-3.3978c2.5507-3.1885-4.9391-0.8636 0 0zm3.1565-0.7088c-0.21898-3.9017-2.1706 1.528 0 0zm-1.8975-2.3011c-0.61662-1.1663-0.8756 0.593 0 0zm-55.829 31.195c0.40843-2.307 4.2399-0.1372 1.2532 0.3014l-0.65196-0.054zm49.174-1.4359c-2.5187-1.5703 0.73972-0.4326 1.1822 0.7319l-0.6089-0.3304zm-37.778-0.4669c1.1029-2.943-3.9287-3.6054-5.0967-2.1136 0.18684 0.9274 5.6245 1.511 2.1777 1.5804-2.4801-0.1157-3.6538-1.2536-3.4373-3.745-1.302-1.43 1.1577-5.2856 1.1979-2.2464-0.05058 1.6421 1.7873 0.8391 1.7105 2.5885 2.0019 1.4077 2.2923-1.5031 2.4908-2.2481 0.49758 2.3195 1.0615 4.7401 4.1671 3.351-0.15912 1.103-2.5473 2.7979-3.2099 2.8332zm14.993-0.6569c0.50568-1.6187 2.1594 1.608 0 0zm-25.52-0.2249c-0.67673-2.0592 4.3016-0.8189 0.92758 0.089-0.32235 0.087-0.61494-0.018-0.92758-0.089zm44.4-1.4226c-1.2105-1.4773 2.007 1.5891 0 0zm-48.79 0.045c0.3949-1.7956 3.6484-3.3542 2.1581-0.3439-0.25497 0.9504-1.5284 0.7259-2.1581 0.3439zm26.07-0.1761c0.79282-1.5638 0.87783 1.657 0 0zm18.56-2.6969c-5.0497-3.5749-8.8731-8.6103-11.863-13.97-1.8337-1.724 1.4947-1.5515 0.86431 0.3912 2.8279 5.6975 7.8747 9.819 12.373 14.15 3.0427 2.4562-0.32406 0.1298-1.3736-0.5711zm-45.01 0.4431c0.090512-2.3253 1.5125 1.6951 0 0zm4.6527-0.086c-0.14259-1.1912-1.7722-2.4408 0.68938-2.3756 3.2549 0.6928 1.9829 3.0193-0.68938 2.3756zm13.557-0.1901c-3.7793-1.4744 4.4059 0.2447 0.14675 0.03zm-20.24-0.8298c0.82001-1.358 0.78992 1.3081 0 0zm2.0327 0c-3.3642-2.248 4.8187-2.0399 0.4882 0.099zm33.807-1.439c-7.4904-3.9685-15.44-7.2828-23.863-8.5721-1.884-1.2309 4.489-1.2497 5.7969-1.3293 0.94888 0.9858 2.8818 3.0196 3.1696 0.31-1.1273-1.7142 3.4431-0.7748 4.7757-1.4626 2.6667-0.7652 4.9218-0.8094 5.6201 2.283 1.9994 3.5988 4.533 6.8628 7.2272 9.9611-0.29656 0.6633-2.0768-1.0303-2.7261-1.1901zm-6.4-10.204c-1.1912-2.2325-1.3428 1.3279 0 0zm-15.294 10.741c1.5504-2.086 1.2685 1.7747 0 0zm-13.146-2.7781c-0.94184-3.0863 0.8906-2.7725 1.0325-0.2934 0.023886 1.8835-2.3634 3.1902-1.0325 0.2934zm3.6331 1.2484c-2.1423-2.5137 5.8723 0.3869 1.3239 0.5891-0.49487-0.029-0.96014-0.2613-1.3239-0.5891zm8.1069-0.667c1.425-0.4551-0.0539 0.6725 0 0zm23.362-2.5814c-1.2752-1.0111-3.3731-5.7154-0.9368-2.2128 0.35942 0.47 2.9503 4.2747 0.9368 2.2128zm7.9516-0.3725c-3.7142-1.6629-5.4495-5.5728-7.4693-8.8382 4.3037-0.9448 9.0786-2.7653 13.3-0.569 3.4826 2.181 3.337 8.696-1.0545 9.7138-1.5566 0.4765-3.3014 0.4069-4.7757-0.3066zm3.6261-2.0886c-0.61662-1.1663-0.8756 0.593 0 0zm2.0972-2.3389c-0.10939-2.7892-3.9336-0.7298-1.1113 0.3922 0.4808 0.4331 1.664 0.6537 1.1113-0.3922zm-3.0572 0.2896c-1.3187-1.1068-1.5096-5.8078-3.4325-2.624-2.1448 1.6688-0.0031 2.8978 0.96406 1.0572 0.70447 0.3536 1.6012 2.9631 2.4685 1.5668zm-5.3142-0.8757c1.6701-2.4487-4.6832-5.3515-2.3147-1.4194 0.45338 0.6258 1.4217 2.7379 2.3147 1.4194zm9.6206 0.2083c-0.50339-1.9667-1.6514 1.2201 0 0zm12.328 3.9705c-0.39108-1.5299 1.4457 1.6026 0 0zm-5.7475-0.3204c1.3979-1.2256-0.55183 1.4476 0 0zm-57.606-5.5431c3.2154-0.2723 6.4995-0.015 9.6937 0.126-1.5777 0.9251-5.7469 0.291-8.2382 0.2485-0.49466-0.082-0.98467-0.2023-1.4555-0.3745zm31.04-0.6892c1.1189-1.3883 1.2551 1.3574 0 0zm1.4625-0.2836c1.0355-1.9508 1.7637 1.2897 0 0zm-23.222-0.5976-4.96-0.099c2.3409-0.8859 4.3546-2.5263 5.308-4.8831 2.0951-3.8185 4.391-7.691 8.0401-10.231 2.7113-1.3048 3.6993-5.3251 4.8026-6.7802 1.2083 2.909 1.3694 6.1925 2.5568 9.1502 1.1364 4.2277-2.937-1.0522-4.8047-0.6164-4.4593-0.9217-9.1696 3.8637-7.8812 8.3008-0.4581 1.9945 5.3031 5.685 0.68211 5.2539-1.2476-0.041-2.4956-0.069-3.7437-0.095zm-8.28-4.3588c-0.98554-3.1599 0.62527-4.2855 2.4526-6.2298 0.081261-4.1048 3.5939-6.4857 6.3714-8.9753 2.0364-2.1844 6.3043-3.8396 3.8261-7.4216 0.03207-2.3675-5.9058-4.6312-1.0678-4.3333 1.9046-1.1692-5.0984-2.107-0.8425-1.7894 2.4563 0.22468 5.1493-0.32652 7.2603-0.25065 0.97963 2.0947 0.90766 5.0196 1.3621 7.4222 0.29388 3.09-0.11268 6.655-2.837 8.602-2.9895 2.7902-6.3197 5.4549-7.9921 9.3024-1.4591 3.5065-4.0494 6.5375-8.0467 6.8703-2.3001 0.7876-0.33698-1.9901-0.48633-3.197zm1.24-0.84c-0.82001-1.358-0.78992 1.3081 0 0zm1.28-0.96c-0.48864-1.0162-0.48659 1.1244 0 0zm3.2-2.72c0.3808-1.7335-1.5195 1.5106 0 0zm3.52-6.88c-0.82001-1.358-0.78992 1.3081 0 0zm6.56-7.68c-0.68054-1.1668-1.0178 1.1117 0 0zm-1.76-5.28c-1.1403-1.8368-0.66902 1.5547 0 0zm1.7399-1.4075c0.11468-2.7007-4.9256-2.2524-1.8064 0.0866 0.56015 0.27724 1.2853 0.29583 1.8064-0.0866zm1.1121 29.183c-3.7845-1.298-5.8022-7.1564-2.1605-9.7309 3.5797-2.9755 8.2996 0.058 9.651 3.845 0.33935 1.7068 3.2323 4.3759 2.3257 5.1972-3.2073 0.7508-6.5356 0.9768-9.8162 0.6887zm2.268-1.0559c-0.82001-1.358-0.78992 1.3081 0 0zm6.2487-0.654c-0.06304-3.0748-2.1539 1.1421 0 0zm-4.195-6.087c0.9553-3.7977-7.5971-2.6517-5.6731-0.5073 2.5803-0.6332 2.0542 3.0823 5.6731 0.5073zm6.9135 5.701c0.20331-2.9942 1.46 3.3168 0 0zm1.9129 0.39c1.0239-1.2218 1.307 0.7336 0 0zm1.4627-0.7338c-2.0734-7.4344-4.3302-14.822-6.1531-22.329-0.41684-2.432-1.8466-5.2501-1.7455-7.4286 1.3008 2.8594 1.5955 6.0587 2.595 9.0364 1.7774 6.3587 3.4712 12.769 5.8063 18.946 0.53483 0.8911 1.6082 3.3492-0.50276 1.775zm2.4741-0.3268c-0.8706-3.1965-2.6497-6.3091-1.912-9.7381 0.33286-3.9402 5.4867-6.1357 8.5792-3.7548 3.7042 2.5174 2.4908 8.0111-0.72519 10.378-1.6353 0.9629-4.1417 3.7926-5.942 3.1151zm2.2948-1.7957c0.36561-1.7698-3.6706-5.9939-2.7069-2.0316 0.32073 1.1229 1.2218 3.2042 2.7069 2.0316zm-3.0015-6.5117c-1.3168 0.7223 1.2173 1.6468 0 0zm3.4566-1.1546c1.3474-2.7125-2.1476 0.1244-0.42446 0.1926zm6.9416 3.8926c2.8092-4.4229-1.1329-11.039-6.3831-10.483-2.9059 0.1519-5.6579 2.0382-6.6985 4.78-1.1115-2.3469-1.5594-5.5932-2.4451-8.2714-0.90545-3.2885-2.173-6.835-3.1415-10.105 3 0 3.0125 4.4529 5.8795 6.159 2.0136 2.6744 5.1257 1.8903 7.6025 0.73394 1.5106 0.86502 0.28976 2.8722 2.8765 2.2794 0.80306 2.3708 4.1187-1.176 5.0275 1.5088 2.6506-0.62658 4.3881 1.3981 5.9481 1.415 3.3876 2.5784 0.90247-3.2888 2.6508-4.6988 1.8892-2.1044 0.26331-7.0697 3.821-7.2707 1.8072 0.48602-1.4194 5.678 1.0615 3.0171 1.2659-1.4119-1.8675-3.1438 1.8149-3.051 0.12299 0.78498-1.8785 2.5311 0.36138 2.2058 2.1044 1.3612-0.47987 3.9898-0.46219 4.0871 2.4979 1.2225 0.4184 5.6143 0.49034 7.2305-6.3246 4.0273-11.903 9.4694-18.986 12.304 0.05816-0.6501 0.35708-1.2385 0.58248-1.84zm5.2794-4.7533c1.5894-1.0621 2.9507-3.3946 3.7861-4.6027-2.7684 0.844-4.9702-2.6569-8.3959-2.0478-3.128 1.163 2.6974 2.5307 3.6981 3.6999 1.7312 1.0153-2.091 1.8266-0.03652 3.3037l0.43413 0.016zm7.0123-4.6067c-0.48863-1.0162-0.48659 1.1244 0 0zm4.16-2.24c-1.1189-1.3883-1.2551 1.3574 0 0zm-22.88-0.32c-1.8277-1.3867-1.7373 1.4248 0 0zm19.976-1.7315c-0.16128-2.3532-2.1929 1.6897 0 0zm1.9365-2.0285c-1.3546-3.6-2.3916 0.77225 0 0zm1.7994-4.0651c-1.5625-2.4618 0.05251 2.8013 0 0zm-60.912 18.005c-2.4174-0.8294 0.76871-3.7981 1.96-1.3403 1.4624 0.9793-0.86255 1.9415-1.96 1.3403zm-0.055448-4.9287c-2.5572-1.2396 1.057-2.5448 0.92639-2.7082-2.7633-1.2783-1.0279-0.8772 0.66522-1.0955 1.6779-1.7312-0.028325-2.8746-1.277-1.042-2.3323 0.8216-0.50919-6.0732-0.29913-2.5659 2.7427-0.89838 4.4865-2.8716 4.8242-5.6994-0.51231-0.55342-3.9855-1.6608-1.1408-1.3932 1.4539 0.66362 4.1826 1.3146 2.3025-1.1535-1.4339-3.1549 3.0852-0.74346 2.5751 1.3591 0.17747 3.1684 3.9008 6.9936-0.73919 8.6362-2.779 1.4776-3.9256 4.9718-6.7628 6.2302-0.42943 0.019-0.81175-0.2546-1.0743-0.5678zm3.3166-7.3417c2.5168 0.16051 2.0902-3.3162-0.14574-1.0674-1.0814 0.73312-2.1594 2.238 0.14574 1.0674zm4.0278-3.6531c-3.4877-3.9918 0.97037 4.523 0 0zm52.951 10.397c0.76208-1.4377 4.1225-2.6646 1.5858-0.7893-0.15885-0.049-2.2599 1.6641-1.5858 0.7893zm-60.722-9.0024c-0.038313-2.1191-0.49213-3.2695 0.44193-5.8114-0.36311 1.5351 2.5891 5.531-0.44193 5.8114zm10.962-1.7503c0.81393-0.6833 0.61762 1.1461 0 0zm-10.311-4.2168c-2.595-2.5922 3.5833-1.3588 0.79853 0.28538-0.32145 0.036-0.5409-0.12212-0.79853-0.28538zm3.3203-0.10094c0.9802-2.1567 0.80215 1.4999 0.00168 0.0214zm-0.52942-0.74338c0.15686-1.2989 0.947 1.257 0 0z" fill="#385b3d"/>
<path d="m1.4972 1051.9c2.7101-0.7978-1.7154-2.4967 1.1926-3.4879 2.4144-1.2006 2.1674 4.7705-1.1926 3.4879zm6.9577-0.5627c1.425-0.4551-0.053897 0.6725 0 0zm1.7003 0.5437c-1.418-2.9209 2.3089-2.8722 2.0758-0.2064-0.37379 0.508-1.3738 0.508-2.0758 0.2064zm4.702-0.6984c1.4418-1.2263 1.6209 1.4384 0 0zm0.33998 0.7818c1.425-0.4551-0.0539 0.6725 0 0zm2.66-0.7818c0.95995-0.7128 1.0671 1.082 0 0zm1.48 0.7888c1.2475-0.3192 0.93157 0.5442 0 0zm8.7658-0.078c-0.67241-1.4286 1.5591 0.2141 0 0zm1.4742 0.094c2.1324-1.5214-4.4548-3.4455-0.18678-2.6221 1.8625 0.3518 2.5036 2.3449 0.18678 2.6221zm5.84-0.1241c0.69784-0.9255 2.44 0.3193 0 0zm3.2-0.1899c-3.5752-3.1849 5.1923 1.5561 3.223-1.9727 0.62694-0.9871 3.1162-3.1292 0.45702-3.3127 1.3743-1.0178 4.4829-3.8957 1.0068-3.3517 0.05486 2.8939-4.3786-0.26-6.2892-0.6319-2.0779-0.6824-1.4225-1.9561 0.40414-0.7742 1.1655 1.7154 5.3899 1.2478 2.5126-0.6821-2.98-1.1105-5.9935-2.039-8.5867-3.8876-2.2047-0.6555-5.3917-1.3996-4.2702 1.9854-1.6563 0.2754-3.7642-4.1213-3.187-4.177 1.1013 0.1362 5.0954 1.5705 2.9968-0.2842 2.7344-1.9144-2.6559-1.3981-3.9724-2.1798-3.2846-0.048-5.9802-1.9104-8.9669-2.9565-1.2425-0.4065-1.5649-0.147-0.75201 0.661-2.2654 1.0493-1.7338-2.1782-4.2683-1.511-2.4835-1.2652-7.1834 1.5361-8.0676-1.4158 1.1976-3.0661 5.7225-0.015 8.3529-0.371 7.3421 1.2109 14.655 2.9891 21.312 6.4062 11.053 5.042 20.94 12.784 31.335 18.965-4 0-6-1-8.6127-0.1344-0.45494-0.2398 2.1849-3.1281-0.16426-1.558-2.1066 2.2825-1.4746-3.0446-3.1941-0.3317-0.47921 1.1786 0.97103 2.0241-2.5225 1.6689 1.4935-0.6448-0.03966-2.1852 1.7171-3.1588 1.8338-2.51-1.1824-0.3141-1.9665-0.2176 1.5643-2.469-1.6487-3.0741-2.325-0.6991-0.4968 2.5642-1.9321 4.4307-5.7965 4.1631l-0.37556-0.242zm0.16-12.93c-0.15688-1.2989-0.94699 1.257 0 0zm-1.76-0.32c-0.98644-1.3859-0.26879 1.1418 0 0zm-4.5667-2.7533c-1.2729-0.408-0.5332 0.5992 0 0zm-3.4333-0.9267c0.3808-1.7335-1.5195 1.5106 0 0zm34.84 16.439c0.32513-1.2894 1.8276 1.3259 0 0zm-40.2 0.4549c-1.9515-0.5708 1.1884-2.6881 0.76418-0.4959 1.7023 0.6276 0.08541 0.7985-0.76418 0.4959zm2.48-0.1961c0.5676-2.0922 1.0035 0.9186 0 0zm-19.044-1.1838c-0.051966-1.9378 2.0466 0.8145 0 0zm6.8836 0.01c1.3601-1.316 1.2084 1.1623 0 0zm6.16-0.1111c-3.0424-1.8613 4.679-2.0463 1.3918 0.3535-0.49674 0.021-0.91655-0.2714-1.3918-0.3535zm44.267 0.1541c-0.46292-1.6025 1.0666 0.438 0 0zm-52.445-0.5676c-0.09497-2.3592 1.7541 0.8693 0 0zm-11.097-1.8142c1.3216-2.743 0.20547-6.0286-0.004881-8.7462 0.72723-2.9376 1.5192 2.948 2.2456 3.6928 1.192 2.2433 0.12504 4.3334-1.9516 5.2392-0.25027 1.4304-0.28046 0.132-0.28906-0.1858zm23.435 0.6588c1.7711-1.7177 1.8957 1.9697 0 0zm15.92-0.2008c0.56038-2.1384 1.5934 0.8021 0 0zm24-0.5192c0.84705-1.6675 0.5621 1.5522 0 0zm-50.995-0.062c0.3029-1.4309 0.08168-2.3325-1.1417-2.8521 0.83791-1.9401 3.8846 0.5468 1.9109 1.8498-0.0067 0.3581-0.13556 1.4467-0.7692 1.0023zm39.316-3.6677c-3.7741-2.7146-7.9627-4.9973-11.017-8.5815 2.2213 0.4511 4.1999 3.4697 6.4557 4.7363 3.3629 2.5469 6.9242 4.82 10.267 7.394-2.0932-0.802-3.7798-2.4267-5.7061-3.5488zm-19.057 2.5796c-3.82-0.6705 2.7811-3.7663 0.70675-0.8123-0.85457 1.3115 3.0961-1.4192 2.3189 0.7691-1.1439-0.9248-2.2123 1.787-3.0256 0.043zm-14.327-0.042c-0.21858-3.5864 2.992 0.485 0 0zm6.4265 0.1807c-0.21654-2.3035 2.6344 0.8862 0 0zm12.557-0.1091c0.94132-1.1215 0.11618 1.132 0 0zm-21.746-0.9324c-1.2667-2.4317 2.8185 1.8666 0.15889 0.2927l-0.08692-0.1601zm6.9163 0.2924c0.30665-1.9826 0.16509 1.7941 0 0zm-12.677 0.022c0.57047-1.8572 1.7514 1.3189 0 0zm53.426-0.618c-5.6502-4.4389-12.03-7.9277-17.281-12.874 3.367-0.6871 7.5139-1.9726 7.9977-5.9641 1.0272-4.4886-3.0079-9.1779-7.6023-8.88-3.3197-0.7701 2.7489-1.8397 3.5731-2.8795 4.9811-2.6838 9.5382-6.0755 13.914-9.6443 0.19916 2.9134 0.17466 5.4692-2.9594 5.4093-0.2203 1.6251-0.49841 2.8887-2.4189 3.3957-1.132 1.6941-1.0851 3.894-1.7967 5.8645-2.0006 0.031-1.7459 4.0892-0.20754 1.6315 2.1732-1.2114 1.6827 0.7644 0.31916 1.6761 3.5406-0.8617 1.5997 3.0104-0.47139 3.3947-0.34066 2.7323-0.9795 5.1154-3.1091 7.1472-0.34129 3.8924 2.9073-1.3228 3.9251-2.4381 1.6765-0.9805 4.8567-3.0331 6.0166-0.564-1.6772 0.967-3.7901 0.5056-5.1164 0.4955-1.6928 2.2752 1.0243 2.1533 2.3399 1.2722-0.58904 1.1719-0.67681 3.9705 1.0246 1.8448 0.63821-1.3984 3.7037-4.3916 2.0705-0.9213-0.38857 1.4849 1.4609 4.2298-1.1999 2.4065-1.2998 0.021-2.6048 2.3756-2.8981-0.511-0.65071-1.3601-4.0561-1.4402-2.9957 0.8334-1.758 0.032-1.9268 3.1943-0.37639 1.0333 3.2446-0.651 7.2113 1.1818 7.9883 4.3151-0.96565 0.753-4.0236-3.3777-5.1696-1.3015 1.8539 1.3588 6.6272 2.4028 4.8046 5.5916-0.1231-0.1107-0.24886-0.2266-0.37028-0.3336zm-11.539-11.762c0.1284-3.1676-1.3766 2.5364 0 0zm3.6527-16.701c-0.62124-1.5942 1.3027-4.0028-1.1496-2.0788-2.0365 1.0882 2.4816 7.1407 1.1496 2.0788zm-26.514 27.47c1.9974-2.8964 2.0099 1.2861 0 0zm-13.12-0.7228c0.73972-2.483 5.0973 1.5557 1.142 0.5744-0.39821 0.027-1.1773 0.019-1.142-0.5744zm10.811-0.136c-1.429-2.4018 4.3753-3.9019 1.6199-1.2702-0.34084 0.671-1.0259 3.4476-1.6199 1.2702zm-16.571 0.1975c1.5948-2.208 1.4651 1.2921 0 0zm21.095 0.25c-2.171-2.8279 4.4472-1.6945 1.3542-0.1925-0.40419 0.073-0.92594 0.5196-1.3542 0.1925zm-23.815-0.88c0.24646-3.3081 2.3729 1.5473 0 0zm14.701-1.7747c-0.70348-4.087 3.212 1.8366 0.401 1.2179-0.2556-0.3581-0.30953-0.8016-0.401-1.2179zm32.499 0.1462c-1.2964-1.5508 1.9978 1.5723 0 0zm-37.041-0.9918c0.59094-1.8079-5.4078-2.2119-1.405-2.1302 1.3191 0.9365 3.5287 0.6355 4.3151 0.693-0.15028 0.5272-3.5394 3.5144-2.9101 1.4372zm15.135 0.4025c0.44829-1.5289 1.4376 1.4491 0 0zm-25.752-0.3222c0.64276-2.3042 3.4627 0.2301 0.5616 0.243zm-4.0006-1.2707c1.0569-1.9147 2.1166 1.4963 0 0zm25.899-0.034c0.15687-1.2989 0.947 1.257 0 0zm-17.44-0.3011c-0.51766-2.1422 3.3251-3.3473 2.0973-0.8286-0.61878 0.3167-1.377 1.0076-2.0973 0.8286zm-7.36-1.3089c1.0169-2.2306 1.0131 1.7285 0 0zm12.32-0.31c0.34689-1.1635 1.0902 1.2621 0 0zm30.594-1.119c-2.5738-1.5634-6.127-5.2915-6.715-6.9707 3.1127 2.6137 5.9561 5.5241 8.8314 8.3911-0.71766-0.4551-1.4127-0.9443-2.1164-1.4204zm-39.714-0.134c-1.8632-3.2242 5.0264-0.089 0.82222 0.6296-0.41186 0.056-0.72938-0.2726-0.82222-0.6296zm13.44 0.3035c0.95995-0.7128 1.0671 1.082 0 0zm-9.4844-1.2901c1.112-3.7097 0.91739 2.8727 0.0032 0.5889zm8.2044 0.96c0.82001-1.358 0.78992 1.3081 0 0zm-19.2-0.32c0.82001-1.358 0.78992 1.3081 0 0zm16.025-0.1866c0.32054-1.1678 0.1731 1.4392 0 0zm19.815-1.3065c-7.208-3.9263-14.934-6.9982-23.037-8.4426-3.3937-1.2718 2.6581-1.0208 3.8238-1.4683 1.9751-0.6077 3.1604 3.8545 4.2397 0.5771 1.0493-2.4835 4.9711-0.7542 7.1419-2.1507 3.2964-0.3112 3.2331 4.226 5.2624 6.0255 1.5627 2.4375 3.5722 4.5665 5.3138 6.8451-0.90317 0.068-1.8669-1.0532-2.7446-1.3861zm-6.144-5.6109c0.4402-1.9603-5.1056-0.041-1.5221 0.1515 0.49024 0.089 1.1741 0.4239 1.5221-0.1515zm-0.256-4.5417c-1.1912-2.2325-1.3428 1.3279 0 0zm-28.01 10.99c-0.23247-1.686 1.409 0.8078 0 0zm12.65-0.304c1.1189-1.3883 1.2551 1.3574 0 0zm-11.2-0.4988c0.8777-1.1615 0.11462 1.4023 0 0zm-1.88-2.2212c-0.88449-2.0189 1.4505-2.6851 1 0-0.15689 1.5608-1.5753 2.7364-1 0zm16.68 2.0701c-1.5887-1.6559 4.6849 0.8728 0.8192 0.2214-0.27958-0.052-0.55234-0.1239-0.8192-0.2214zm5.2-0.3101c0.94132-1.1215 0.11618 1.132 0 0zm-16.64-0.64c0.97253-1.3779 1.6253 1.426 0 0zm-1.9332-0.3412c0.30755-1.8237 1.8629 1.3458 0 0zm6.5732-0.6188c1.8502-1.157 0.24072 1.0756 0 0zm24.87-2.6189c-0.92947-0.7733-2.3342-4.4438-0.51821-1.5913 0.75751 0.6076 2.0568 3.7026 0.51821 1.5913zm9.2099 0.4773c-4.0128-1.5656-6.2662-5.5292-8.1044-9.1822 4.3004-1.1106 9.288-2.8299 13.408-0.2679 3.2084 2.3652 2.5626 8.6015-1.6674 9.3971-1.1857 0.3065-2.4407 0.3015-3.6362 0.053zm3.04-2.3195c-0.96625-2.03-1.8576 1.357 0 0zm1.92-1.8088c2.9864-1.9046-2.1349-2.4518-3.2244-3.722 0.29009 1.3762 1.2214 4.9576 3.2244 3.722zm-2.88-0.012c-0.97753-1.2894-1.4881-6.6439-3.5008-3.4852-1.3181 1.2193-2.2 3.4893 0.62925 2.821 0.93373 0.2152 1.8823 1.2523 2.8716 0.6642zm-5.4968-1.8209c0.70958-2.5713-4.9228-4.2685-2.4199-0.7243 0.41999 0.7898 2.162 2.8197 2.4199 0.7243zm21.977 4.9031c0.15687-1.2989 0.947 1.257 0 0zm-25.236-1.6061c-0.86334-1.7464-4.0449-5.2287-3.0373-5.9818 0.82316 1.8946 3.4937 5.5425 3.3616 6.3569-0.10811-0.125-0.21622-0.2501-0.32432-0.3751zm23.636 0.3261c-0.0998-1.488-3.3081 0.9482-1.2521-1.4798 0.74963-2.1698 2.1848-0.046 3.3404-1.1702 0.16296 0.7132-1.4427 4.4323-2.0884 2.65zm-61.92-4.6365c2.7983-0.4409 8.2959-0.2868 9.4169 0.2708-3.1059 0.2956-6.357 0.2292-9.4169-0.2708zm63.44-0.3351c0.24198-2.7569 0.96152 1.9792 0 0zm-3.8259-0.3884c-3.5944-2.7725 4.1716-5.5242 2.3243-1.242-1.999-0.6412-0.6512 3.1803-2.3243 1.242zm-28.254-0.08c0.82001-1.358 0.78992 1.3081 0 0zm1.28-0.32c1.1189-1.3883 1.2551 1.3574 0 0zm-23.3-0.5594c-1.7544-0.2172-6.9149 0.484-3.0239-1.0905 2.9708-1.6396 3.885-5.1352 5.6668-7.7906 0.14935 2.912 0.31334 6.1221 2.9468 7.9328 0.6161 2.432-4.3832 0.3876-5.5897 0.9483zm-9.3396-2.3206c0.07338-3.0515 0.22613-6.2949 3.2332-7.9017 0.92374-3.7603 2.6806-6.8598 6.1792-8.714 1.4449-2.6139 7.0847-3.4618 4.703-7.149-1.0623-1.1514-1.173-4.3259 0.68515-2.053 1.2718 0.25685 1.196-1.6237 2.2656-2.1198 0.04733-1.9838-5.834-3.2759-1.8326-3.0828 2.7664-0.0199 5.1127 0.0537 4.5964 3.4235 0.48238 3.4244 0.94473 7.0181-0.18153 10.371-3.3138 3.8696-8.0545 6.6004-10.125 11.451-1.4884 3.9623-4.7664 6.4674-8.781 7.1978-0.74226 0.5369-0.74226-0.4631-0.74228-1.4228zm2.6757-2.72c1.7924 0.042 2.5953-2.4889 0.15832-1.2999-1.4073 0.409-2.6585 2.7364-0.15832 1.2999zm4.3003-3.744c0.61976-2.1321-4.6786 0.4154-1.0198 0.2913 0.35313 0.095 0.79486 0.019 1.0198-0.2913zm2.1766-5.616c2.0701-0.3569 0.5973-3.1057-0.24725-0.8135-2.7455 1.185-2.3663 2.4845 0.24725 0.8135zm3.5674-3.1863c1.5718-2.7976-3.8537 1.5581-0.4383 0.644 0.2327-0.1432 0.28978-0.4324 0.4383-0.644zm3.28-0.4137c-1.1189-1.3883-1.2551 1.3574 0 0zm-0.20428-2.4c-0.87378-1.9443-1.2828 1.792 0 0zm1.9592-2.8366c0.6197-2.0131-4.4381-0.43119-1.2313 0.41128 0.44669 0.0354 0.88089-0.14887 1.2313-0.41128zm-0.15488-5.5022c-0.8811-1.1031-0.4433 1.5226 0 0zm0.32704 27.692c-4.1191-1.1874-5.7752-7.6629-1.7008-9.9476 3.7905-2.5642 8.0114 0.9262 9.2568 4.5816 0.64293 2.1863 4.2332 5.2029 0.04532 5.1768-2.4932 0.3477-5.1076 0.6609-7.6014 0.1892zm2.7946-1.1928c-1.7025-1.9861-2.1759 2.1788 0 0zm5.6871-0.414c-0.42295-3.1908-2.4785 1.2354 0 0zm-4.8402-1.6381c1.1446-2.6805-4.7622-0.2193-0.96746 0.662 0.42185-0.01 0.76732-0.317 0.96746-0.662zm-3.377-0.5511c1.2645-3.6495-3.0364 0.7207 0 0zm4.0222-3.8978c0.9553-3.7977-7.5971-2.6517-5.6731-0.5073 2.5803-0.6332 2.0542 3.0823 5.6731 0.5073zm7.2 6.661c-2.0134-4.0052 2.3174 0.4303 0 0zm1.8863-0.7786c1.425-0.4551-0.05389 0.6725 0 0zm1.2027-0.5252c-2.0734-7.4344-4.3302-14.822-6.1531-22.329-0.39981-2.4172-1.8746-5.2576-1.7182-7.4002 1.3485 3.3052 1.8843 6.8985 2.9298 10.318 1.749 6.5927 3.4361 13.264 6.1905 19.512 0.14529 0.9394-0.9833 0.097-1.249-0.1005zm29.018-0.2962c-3.3575-2.2372 2.479-3.6803 2.4407-1.4141 0.05595 1.573-1.1267 3.4882-2.4407 1.4141zm0.55898-2.0188c-0.88099-1.1033-0.44346 1.5225 0 0zm-27.801-0.4826c-1.6002-3.4693-2.4395-9.058 1.5308-11.228 3.5052-2.1311 8.3544 0.7979 8.119 4.8656-0.21269 4.1377-4.055 6.6566-7.2401 8.5872-1.4906 0.635-2.2396-1.0368-2.4097-2.2245zm3.0346 0.5298c-0.02463-3.6842-5.0078-4.6677-2.0817-0.3473 0.37915 0.817 1.4818 1.1944 2.0817 0.3473zm-2.5832-5.9162c-1.5294-2.1048-0.11296 3.1752 0 0zm4.6298-1.3313c-0.19532-2.5456-4.0068-1.497-2.6273 0.1537 0.85856 0.1678 1.8 0.1445 2.6273-0.1537zm0.96-0.6209c-0.48863-1.0162-0.48659 1.1244 0 0zm3.9891 5.5449c1.6883-3.1296 2.0746-7.3789-0.94684-9.8639-2.8818-2.9748-8.4871-2.6035-10.611 1.069-2.2972 3.0208-2.1868-3.1157-3.0689-4.6596-1.0195-3.8432-2.3974-8.1834-3.6819-11.931 3 0 3.2975 2.1333 4.2856 3.9086 1.4509 2.0212 1.5483 4.9894 4.9052 4.3482 2.15 1.0194 2.6095-2.8807 4.7959-0.65454 1.1301 1.2421-3.7064 2.5518-0.53917 2.1905 1.7509-0.97053 2.5789-0.44758 3.9737 0.47877 2.333-2.4828 3.7723 1.7852 6.2659 0.2081 1.8935 0.57266 2.2044 1.9537 3.7434 1.719 4.0086 2.9312-0.0021-4.0569 3.1182-5.0059 1.6674-0.44696 3.197 3.0191 4.7089 1.1102-2.0868-0.67408-1.5036-2.7908 0.65336-1.556 3.4074 0.0136 1.8413 2.5517 0.54443 4.2803 0.26648 0.8802 1.5446-1.0273 1.5046 0.9826-1.2387 3.1695-5.4413 3.8339-7.6971 6.4011-3.6648 2.7642-7.5196 5.5208-11.76 7.2179l-0.19431-0.079 5.39e-4 -0.1645zm6.0909-5.8649c2.0281-0.2151 1.6136-2.1437 2.0918-2.7872 2.5964-1.2254 1.2027-3.4559-1.2169-2.9421-2.1804-0.4385-6.4395-2.4323-7.4641-0.6993 2.7372 1.5886 4.0461 3.9973 5.0383 6.7619 0.44457 0.6047 1.2571 0.1887 1.5509-0.3333zm6.88-4.6211c-0.75423-2.3306-1.7988 1.8281 0 0zm-19.944-2.117c3.0593-0.45-3.3498-3.566-2.005-0.493-0.54611-1.2704-2.2042-1.5512-1.3234 0.1351 0.94471 0.7703 2.2351 0.4707 3.3284 0.3579zm5.0017-0.3205c-0.68085-1.9918-1.3696 2.1232 0 0zm19.3-0.1757c0.59811-2.3836-5.4387 0.3451-2.1305 0.622 0.71517 0.2989 1.915 0.3576 2.1305-0.622zm-3.7972-1.2874c2.9244-3.6869-5.421 0.61882 0 0zm-24.32-0.83831c-1.3483-1.5323-1.3401 1.7353 0 0zm28.616 14.19c1.2472-2.5521 2.988 0.82 0.33392 0.4908-0.78042 0.5026-0.99113 0.4255-0.33392-0.4908zm-49.206-1.5096c2.167-3.6796 7.2074-5.1413 8.4511-9.3282 0.07755-1.5251 1.3574-3.6162 1.5311-0.7652 0.52703 2.9595 2.6058 8.1919 2.2006 9.7136-2.3719-2.1502-5.9873-3.5688-9.0058-2.1072-1.0601 0.4079-2.5362 2.9022-3.177 2.487zm48.83 0.1996c0.82001-1.358 0.78992 1.3081 0 0zm-60.76-0.04c-1.6796-1.0097-0.58941-4.2496 0.5765-1.8942 1.6282 1.1911 0.90919 2.3743-0.5765 1.8942zm-0.00711-5.6309c-2.8444-1.8853 2.6297-2.1767 2.1448-4.7804-0.025658-2.2424 4.4571-3.1319 2.8172-4.7036-0.78654 0.33669-4.3211 2.8692-2.5242 1.0076 2.2632-1.3077 2.0276-5.2608 4.7643-5.6121-1.2238-0.85627-2.2422-4.3828 0.16629-2.6211 1.4731 2.6721 1.1829 6.1687 3.2837 8.4696-2.5514 2.3843-5.6663 4.4146-7.7869 7.3449-0.84961 0.9887-1.6225 2.6046-2.8653 0.8949zm7.6102-10.878c-0.40753-1.9743-3.5048-1.4628-1.5309 0.28227 0.72282 1.7503 2.3598 2.086 1.5309-0.28227zm53.662 9.5758c0.88673-1.9006 2.7011-1.4549 0.64107-0.057 0.01745 0.038-1.7948 0.9236-0.64107 0.057zm-62.265-2.0671c0.82001-1.358 0.78992 1.3081 0 0zm1-1c0.093288-2.983-0.79682-1.2796 0.99993-1.8771 1.9511 1.379-2.4651 4.2103-0.99993 1.8771zm-0.44785-5.5142c0.81922-0.73842-0.97688-4.9623 0.39593-2.5053 0.31515 0.7631 1.5737 3.2214-0.39593 2.5053zm57.417-1.1867c-1.4706-1.2229-0.02924-6.1279 1.222-3.3883-0.26397 0.87834 0.50554 4.0634-1.222 3.3883zm4.4228-2.0002c-1.1456-3.1939 3.1761 1.0721 0.35467 0.56219-0.11822-0.1874-0.23644-0.37479-0.35467-0.56219zm-58.232-0.75498c1.2648-1.8689 2.3938 1.0587 0 0zm7.3266-0.22442c-0.54404-2.7278 5.4231 1.0037 1.3365 0.44179-0.46838-0.0324-0.97378-0.11025-1.3365-0.44179zm-10.487-1.3198c0.8811-1.1031 0.4433 1.5226 0 0zm-0.16853-0.77214c-0.38246-3.4017 3.4139 2.1347 0.09829 0.0911zm57.726-0.2726c0.31922-2.8891 2.8371 2.5026 0 0zm-47.5-0.60716c0.97428-0.93632 1.213 1.1639 0 0zm11.332 0.3359c0.82-1.358 0.78992 1.3081 0 0zm38.339-0.3097c1.4243-0.45605-0.0527 0.67371 0 0z" fill="#393e35"/>
<path d="m1.7572 1052c1.425-0.4551-0.053897 0.6725 0 0zm1.18-0.1014c0.68054-1.1668 1.0179 1.1117 0 0zm5.8937-1.8256c1.425-0.4551-0.053897 0.6725 0 0zm2.0263 1.917c-2.3226-2.2226 1.8442-1.9293 1.1699 0.1045l-0.55178 0.058zm2-0.7714c1.1879-0.9641 1.4659 1.3386 0 0zm2.34 0.7788c1.425-0.4551-0.0539 0.6725 0 0zm4.14 0.01c1.2475-0.3192 0.93157 0.5442 0 0zm8.52-0.7888c0.15687-1.2989 0.947 1.257 0 0zm3 0c0.15687-1.2989 0.947 1.257 0 0zm5 0c-0.04572-0.8204 2.0742 0.9471 0 0zm2.76 0.5599c0.59785-2.3263 6.24 0.4401 2.24 0.4401-0.60529 0.017-1.7734 0-2.24-0.4401zm9.5176-0.09c3.6786-1.3249-0.10566 1.3248 0 0zm4.7225 0.2105c1.15-1.2265 0.37117 0.9545 0 0zm2-0.6807c2.3086-0.8793-0.25065 1.4603 0 0zm2 0.6807c-0.53346-0.7977-3.8403-3.4116-0.94228-2.6219 1.5077 0.1235 3.2121 3.5592 0.94228 2.6219zm2-0.6807c0.77003-1.1039 1.0503 1.2528 0 0zm-35.44-0.2793c0.15688-1.2989 0.94699 1.257 0 0zm28.32-0.32c0.82001-1.358 0.78992 1.3081 0 0zm-30.734-0.817c-0.79748-3.3713 2.6178 1.4351 0 0zm21.616 0.1799c0.50863-3.8851 2.2206 0.8957 0 0zm5.9182 0.061c1.706-2.7113 1.7001 0.8959 0 0zm15.68-0.064c0.82001-1.358 0.78992 1.3081 0 0zm-61.76-0.6008c1.3074-2.9113 1.928 1.2379 0 0zm49.92-0.3592c0.426-1.0582 0.68392-2.5978 1.7629-0.8996-0.37485 0.2852-1.3124 1.689-1.7629 0.8996zm11.84-1.12c0.84705-1.6675 0.5621 1.5522 0 0zm-19.991-0.494c-1.2884-2.2061 2.0328-0.2631-0.05631 0.236l0.0423-0.1772 0.01401-0.059zm6.2912-0.466c-1.2092-2.8401 2.974 2.6171 0 0zm-48.904-0.32c-0.24456-3.7433 3.6935 1.2302 0 0zm62.81-0.8523c-5.3697-4.8452-12.203-7.8958-17.274-13.044 2.8809-0.5341 7.0661-1.8663 7.7118-5.6118 1.2423-4.3097-2.2007-9.2311-6.7278-9.3112-3.494-0.8609 2.6173-1.4746 3.3766-2.5973 3.0707-0.1903 4.9093 4.5777 4.0084 6.9303 0.55687 2.0179 5.762 1.2 2.5058 3.1816-2.6352 2.1425-2.1949 6.8685-4.9845 8.35 0.46119-3.5247-3.5647 2.0234-0.17242 1.7019 0.79818 0.4896 3.4125 1.1451 2.3464 2.852 1.3383 0.8528 5.5515-2.2056 4.5901 0.5596-1.5496-1.7433-4.4486 1.7217-1.1683 0.9273 1.0387 2.3182 7.5422 2.0164 5.9807 6.1794l-0.08267 0.023-0.11053-0.1406zm-51.246-0.3665c-2.7195-2.2868 3.8648 0.6322 0 0zm31.591 0.031c-1.8077-2.2907 4.9088-0.2586 1.1605 0.225l-0.59288-0.05zm2.169-1.8713c0.81377-0.6836 0.61792 1.1463 0 0zm-44.724-0.3532c-1.7589-2.9608 2.0665 0.3281 0 0zm30.804-0.268c0.34689-1.1635 1.0902 1.2621 0 0zm8.3822-1.4415c-1.5819-0.3053-4.8697-2.4826-1.4375-2.9262 1.4417 0.7022 5.5298 3.0578 4.4406 3.3208-1.4203-1.3891-1.9314 0.6936-1.9195 0.4609-0.38541-0.2529-0.74109-0.5479-1.0836-0.8555zm-18.268 0.2954c-0.67009-1.6334 0.14477-2.673 0.69984-0.4941 0.46274 0.7839-0.23722 1.1372-0.69984 0.4941zm41.256 0.092c-0.42743-2.4255 1.1249 0.9793 0 0zm-63.505-0.4128c0.34581-1.1452 0.1402 1.4494 0 0zm7.4947-1.0934c1.15-1.2265 0.37117 0.9545 0 0zm53.44-0.4188c-2.9469-2.2845 3.5777 0.7002 0 0zm-60.96-0.8612c0.2855-2.381 0.98162 1.9167 0.040846 0.3012l-0.024477-0.1805zm34.198-0.2199c-0.6431-0.9044-3.7196-2.4159-2.8324-2.1702 2.486-3.5321-4.2834 1.1561-3.7098-1.009 3.9171-3.178-6.3024-2.1411-3.3405-4.3707 4.1533 1.0346 7.7966 3.4179 11.682 5.1327 1.633 0.6884 1.6832 2.424-0.28135 1.1855-2.4402-2e-4 2.3599 2.4267-0.45516 1.5846l-0.47848-0.1283-0.5847-0.2248zm-9.0782-0.5189c-2.6655-0.9328 0.36097-4.4954 0.69792-1.0159 0.38941 0.7772 0.4526 2.0605-0.69792 1.0159zm17.181-1.382c-2.844-2.5231 1.0247 0.1785 1.5208 1.2886-0.56048-0.3609-1.0493-0.8206-1.5208-1.2886zm-30.141 0.5397c0.64883-1.7236 0.87297 1.0679 0 0zm51.343-1.0067c-0.06418-2.3039 1.1097 0.9429 0 0zm-3.3428-0.4255c1.0614-1.8635 0.96611 1.3555 0 0zm-60.16-0.1867c0.98644-1.3859 0.26879 1.1418 0 0zm43.096-2.8432c-1.2787-0.9995-3.1786-3.8936-0.74907-1.2951 1.2531 0.848 5.1829 5.2904 2.0876 2.6439-0.4539-0.442-0.88352-0.908-1.3385-1.3488zm-7.6632 0.8992c-7.1027-3.703-14.622-6.7403-22.533-8.16-2.7497-1.1756 2.7376-0.7297 3.7693-0.9018 1.9997-0.032 3.3705 3.3951 4.7925 0.2371 0.31336-1.6828 5.9496-1.683 4.0186 0.2429 1.5297 0.6007 2.7334-2.1507 4.1304 0.019 2.7289 2.1899 3.8892 5.7529 6.699 7.9194 1.4429 1.583 1.9165 2.4971-0.87679 0.6431zm-3.4323-4.136c-0.22409-2.1213-1.7265 2.007 0 0zm-2.1852-0.8496c2.0566-1.6002-2.6359-3.2008-1.2014-0.9486-1.3223 0.2609-3.5885-2.64-2.48 0.3257 0.83855 0.9316 2.6199 1.4781 3.6814 0.6229zm-5.6461-1.7244c-0.43996-3.6609-2.4591 1.2386 0 0zm37.591 6.9053c0.8454-0.7033 2.8182-4.235 1.9719-1.2331-0.89597-0.094-1.2025 2.7431-1.9719 1.2331zm-3.8375-0.091c2.0135-2.383 2.4016 0.9646 0 0zm-37.117-2.4732c-3.7834 0.062-6.8233-2.7589-10.584-2.8759-3.0968-0.2288-6.2454-1.3378-9.2876-0.2808-2.2915-0.896 0.14366-3.9111 2.1316-2.2372 3.1984 0.5457 6.4547 0.7768 9.6338 1.5956 3.4009 0.7702 6.8263 1.5298 10.121 2.6739 0.68239 0.9659-1.4852 2.2561-2.0146 1.1244zm-18.806-0.3668c-1.3115-3.6076 2.2791 0.171 0 0zm58.17 0.024c-0.0098-2.451 4.2122-0.2308 0.82857-0.4205-0.28335-0.043-0.60517 0.803-0.82857 0.4205zm-15.065-1.2185c-3.0565-0.5973-6.0314-5.0248-6.5156-6.4562 1.4752 2.4491 4.2926 2.281 6.7064 2.5836 2.0579 0.032 6.1681 1.4987 5.8557-1.7803-2.3971-0.2976-5.349-4.6522-7.4159-2.1274-1.8458 2.7772-6.0196-3.0993-1.4973-2.3274 3.4978-0.9203 8.5305-0.3554 9.6878 3.7133 1.4396 3.8967-2.5698 7.6047-6.368 6.5266l-0.45308-0.1325zm3.0551-0.5255c-0.15687-1.2989-0.947 1.257 0 0zm-3.04-1.28c-0.82001-1.358-0.78992 1.3081 0 0zm4.2452-0.2197c-0.33345-2.1399-4.815 0.01-1.5762 0.3719 0.54151-0.026 1.0849-0.1361 1.5762-0.3719zm-3.1152-4.0341c-0.42744-2.4255 1.1249 0.9793 0 0zm-46.25-0.7062c0.84705-1.6675 0.5621 1.5522 0 0zm2.88 0.16c1.5588-1.1817 6.1462 0.5786 1.8688 0.2984-0.63053-0.017-1.2773-0.054-1.8688-0.2984zm34.729-1.2618c-0.82976-2.537 1.1259 0.2702 0.50522 0.6728l-0.2046-0.239zm18.711 0.3484c0.904-2.0422 2.5641-0.1765 0 0zm3.68-0.047c0.15688-1.2989 0.94699 1.257 0 0zm-54.238-1.1627c2.9731-1.2688 4.2165-5.8878 6.0288-7.139 0.42286 2.5721 1.3109 5.4011 2.7951 7.1364-2.6599-0.2391-5.3255-0.6742-8.0423 0.1301l-0.39663-0.037zm54.648-0.2926c-0.10131-3.6629 3.659 0.6647 0 0zm-60.411-1.7843c-0.038107-2.7404 7.7642-1.326 4.1129-4.7085-1.3975 0.1459-5.4016 2.4971-3.2284-0.6022 2.1405-3.2173 6.3313 2.044 7.1546-2.6088 3.4354-3.3045-4.8819-0.1289-3.2281-3.8961 1.8827-3.0962 5.4836-4.6611 7.7139-7.4239 2.759-0.10358 1.3473 3.2046-0.6993 2.9878-3.1138 1.5242 2.2121 4.6491 1.6371 1.0781 0.88575-2.9208 5.9565-3.9396 4.6737-7.9649-0.57359-1.3834-2.4875-1.392-0.5532-2.5367 1.0489-1.7873-1.1245-3.5317-0.1615-4.7123-1.0005 0.63499-4.9488-0.36879-1.8074-0.55753 2.7092-0.22702 4.2656 0.39955 4.0236 3.3155 0.67554 3.5615 1.1227 7.4421-0.39073 10.83-3.5204 3.3894-7.8265 6.3062-9.834 10.957-1.3742 3.932-4.5469 6.3231-8.4493 7.1412-0.98984 0.7239-0.96386-0.2993-0.96386-1.2993zm9.7498-12.018c2.7159-0.696-0.83308-4.2131-1.1614-1.3527-2.0521 0.4693-3.1795 3.5294-0.18766 2.1505 0.48405-0.2012 0.9387-0.4719 1.3491-0.7978zm2.0902 0.3971c-1.188-2.7502-1.1138 1.6555 0 0zm4.4198-4.1025c-1.4264-2.2956-1.9389 2.3466 0 0zm-0.57787 15.286c-2.0916-1.7749-2.3121-5.6415-0.0019-7.3281-1.7766 2.4151 1.8783 0.798 1.8929 1.3676 1.387 3.1341 5.0449 0.028 5.9953-0.587 2.2641 1.5637 2.5316 7.9528-1.2002 6.7548-2.8916-1.2602-4.7219 2.8176-6.6861-0.2073zm6.2118-1.4691c1.6015-2.6421-3.9441-0.6236-4.282-2.7146-2.314 1.1852 0.23324 3.2893 1.7269 2.8763 0.74304 0.7984 2.0556 1.0935 2.555-0.1617zm10.645-0.2023c-1.3167-3.4435 1.9323 2.336 0.27653 0.6577zm30.341 0.9421c-2.8122-1.3291 2.12-2.8327 0.82733 0l-0.40174 0.077zm-27.499-0.6142c0.33255-1.8175 3.0184 0.66 0.27893 0.2676-0.09129-0.086-0.18834-0.1837-0.27893-0.2676zm20.193 0.01c-2.141-2.1362 3.7042-3.1787 1.0491-0.6156-0.15196 0.323-0.61987 1.1783-1.0491 0.6156zm-17.253-1.4037c0.13691-1.8364-2.8264-2.5872-2.8514-4.7177-0.17978-1.5863-1.7213-4.6129-1.8383-1.1771 0.28618 1.6464 0.66182 5.892-0.36592 1.9534-0.89909-3.6107 0.8301-8.4733 5.116-8.5076 4.2085-0.1956 6.7755 5.0291 4.5598 8.4281-1.0728 1.7307-2.6564 3.3569-4.6202 4.0209zm1.6919-5.2943c2.2807-0.5763 1.053-4.547-1.081-2.7337 0.781-4.3882-6.3186 1.4146-1.502 1.0637 3.0006-0.063-0.09876 3.1627 0.0443 3.9277 1.1034 0.7328 1.9811-1.6465 2.5387-2.2577zm-3.5319 0.1913c-0.98644-1.3859-0.2688 1.1418 0 0zm19.7 2.9129c-1.1295-3.1216 5.1579-3.912 2.9135-1.6211-1.6162-1.0097-1.0913 2.4325-2.9135 1.6211zm-11.546-0.5929c1.5216-2.9718 1.8162-6.3794-0.50578-9.0306-1.5933-0.6803-2.5429-4.1087-0.02808-2.2143 1.8147 1.0613 3.5337 2.1224 3.0033 4.456 1.2866 1.2116 4.6059 4.05 0.94968 4.5811-0.95315 0.3962-2.501 3.3154-3.4191 2.2078zm18.726-1.36c0.82001-1.358 0.78992 1.3081 0 0zm-57.6-0.64c1.1189-1.3883 1.2551 1.3574 0 0zm-1.44-0.32c-0.14431-2.4825 1.749 1.278 0 0zm19.994-1.1313c-1.5642-3.0612-7.6655-1.0481-8.2243-1.794 2.826-2.0077 5.4269-4.8848 6.3504-7.9081 0.84446 2.8424 0.78282 5.9479 2.3489 8.5853 0.35411 0.4172 0.3151 2.204-0.47494 1.1168zm-23.314-0.5905c-0.17986-2.5412 1.7011 2.4055-1 1l0.023417-0.5057zm62.351 0.4293c-2.3665 0.4816-3.1396-2.0431-0.43684-1.7161 0.62476 0.093 1.0861 1.2868 0.43684 1.7161zm-12.631-0.9475c0.47803-2.8335 3.1674 1.153 0 0zm2.8761-2.2462c0.06669-1.5704 2.1481-3.6182 0.26211-4.7633 3.5448-1.0064 1.1278 4.2628-0.26211 4.7633zm-22.561-1.9531c-1.5007-5.2998-3.0804-11.145-5.0351-16.282 2 0 3.7387 0.77976 3.261 2.7058 2.27 1.997 1.2009 6.0996 5.0905 5.6926 3.0292-0.57005 3.6547 3.7356 6.4128 1.2779 1.8204-0.92598 2.5747 2.6641 4.3632 0.35175 2.5362-0.19747-0.80232 2.8822-2.3666 1.6473-2.0976-0.5883-2.4893 3.0323-4.1279 1.1376 3.1182-0.8949-2.2644-2.243-3.4738-2.5734-1.3336-1.6576-5.0223-0.31519-2.2726 1.0549-0.34117 1.0409-1.8953 3.2516 0.53975 2.0126 0.62842-0.1718-0.62499 1.7346 0.86623 0.8649-0.6391 0.6198-2.8615 4.977-3.2574 2.1105zm0.32493-7.0007c-0.98644-1.3859-0.2688 1.1418 0 0zm24.16 8c1.1833-1.2323 0.67907 1.1802 0 0zm-54.8-0.5458c-1.9611-1.8266 3.9099-1.0338 2.5123-3.7449 0.37906-1.6906 2.3469-3.5902 2.6124-1.5069 1.0333-1.3238 0.68485-4.8538 2.6223-2.7324 1.8412-1.5322-0.66139-4.0018-1.1573-4.5994 2.8182-1.0981 2.4823 3.2036 3.1609 5.1035-2.3951 2.3913-5.2303 5.0076-8.0888 7.1428-0.54459 0.3007-1.0491 0.5663-1.6618 0.3374zm55.806-0.3394c1.5188-2.162 2.1627 0.8877 0 0zm1.5013-2.1763c-0.2038-2.1491 5.4581-0.515 1.8789 0.3717-0.62111 0.2129-1.4582 0.2298-1.8789-0.3717zm-22.347-0.7785c2.7502-0.8216 1.7538 0.5758-0.40883 0.2303zm11.6-0.9856c-1.7498-2.4751 3.7158 0.6306 0 0zm2.098-0.6144c1.1512-2.2477 0.97366 1.1941 0.03414 0.8273l-0.04054-0.3154zm-48.378 1.1582c-1.4775-2.4695 2.7999-0.4364 0 0zm14.043-1.3162c-0.02064-2.3787 2.2749 1.5811 0 0zm47.957 0.31618c-0.11032-2.2551 1.1043 0.091 0 0zm-4.2908-1.108c1.452-2.6037-3.1184-0.89539-3.2278-0.91729 0.34362-1.7384 1.2313-3.8006 2.7725-1.664 1.9008 1.7684 4.14 0.67953 4.9121-1.2259 2.7708 2.1414-2.4891 3.3988-4.178 4.2538-1.1349 0.56244-0.52437-0.20691-0.27874-0.44661zm-21.104-2.2441c-0.75425-3.0253 4.4576-0.0387 0.82724 0.12353-0.30379 0.0465-0.55683 0.0394-0.82724-0.12353zm-22.478-0.56779c-1.073-0.68132-2.3676-4.2378-0.20132-2.0604 1.2266 0.55907 3.2795 3.9976 0.20132 2.0604zm44.874-1.04c0.34687-1.1636 1.0902 1.2621 0 0zm-2.2058-1.1462c-0.81954-2.9904 2.1569 0.73305 0.39805 0.30121zm4.8158-1.7998c-0.0389-2.5366 1.8236 2.3242 2e-6 0zm-4.7967-0.46731c-0.88779-3.1189 3.5697 0.15156 0 0zm-55.813-0.62668c0.82001-1.358 0.78992 1.3081 0 0zm5.5016-1.2138c-1.9485-2.8942 2.5673-0.88132 0.33802 0.29691zm-6.5016-0.78617c-1-2 2.5145 0.70837 0.64644 0.27844zm57.563-0.1962c-0.0048-2.2072 2.4767 1.6188 0 0zm-34.388-0.37613c0.68054-1.1668 1.0178 1.1117 0 0z" fill="#0b0d0b"/>
</g>
</g>
</g>
</svg>
