<?xml version="1.0" encoding="UTF-8"?>
<svg version="1.1" viewBox="0 0 64 64" xmlns="http://www.w3.org/2000/svg" xmlns:cc="http://creativecommons.org/ns#" xmlns:dc="http://purl.org/dc/elements/1.1/" xmlns:rdf="http://www.w3.org/1999/02/22-rdf-syntax-ns#">
<metadata>
<rdf:RDF>
<cc:Work rdf:about="">
<dc:format>image/svg+xml</dc:format>
<dc:type rdf:resource="http://purl.org/dc/dcmitype/StillImage"/>
<dc:title/>
</cc:Work>
</rdf:RDF>
</metadata>
<g transform="translate(0 -988.36)">
<g transform="translate(-.85721 .17178)">
<g transform="matrix(.12648 0 0 .12648 10.11 893.56)" style="">
<path d="m-73.143 1001.2v-253h506v506h-506v-253z" fill="#e6e6e6"/>
<path d="m-73.07 1217.4c0.88886-10.772-2.5597-52.364 3.9729-23.417 7.4912 15.678 16.459 58.576-4.4149 53.103 0.9091-9.8751 0.28081-19.776 0.44194-29.686zm348.93 36.363c11.089-13.748 18.686-34.277 23.573-46.097-6.5398 19.694 20.448-17.122-4.3575-15.246-35.341-23.253-64.194-55.822-103.25-73.508-34.299-17.264-69.926-32.584-106.08-45.159-42.927-8.885-85.332-22.668-129.63-21.739-17.192 0.3757-35.441 1.7703-28.948-20.677 1.0113-15.605-7.4845-39.575 17.057-32.741 31.991 1.3632 46.31-28.515 58.525-52.683 11.546-27.961 32.987-48.054 56.459-66.18 23.667-14.084 32.075-43.808 27.364-69.778l-16.32-61.305c22.239 5.715 63.979-14.198 70.108 13.354 12.357 44.84 21.289 90.631 35.998 134.81 9.2986-30.814 44.906-51.468 75.684-39.605 24.611 11.137 47.016 43.455 33.144 70.433-3.2855 21.598 27.066-8.4246 37.01-10.812 38.248-25.314 73.705-54.54 110.67-81.657v60.818c-42.995 30.115-82.9 66.025-132 86.193 28.48 0.61457 55.853 27.064 52.467 56.35 6.0929 30.689-20.604 55.344-49.204 58.864-30.896-2.2974 12.864 24.802 21.067 30.926 21.071 29.667 36.072-7.7978 48.276-24.1 19.893-27.374 38.347-55.796 59.221-82.454-21.774 34.99-47.105 67.595-69.225 102.36 20.956-18.481 32.198-45.192 49.762-66.644 5.5818-9.7275 26.122-34.529 9.5474-10.16-17.839 26.975-37.77 52.56-54.344 80.369 5.6322 8.6012-28.568 17.029-5.6929 27.023 23.323 16.356 46.709 32.622 70.063 48.934-4.729 17.331 12.686 56.79-15.687 50.478-22.75 0.029-45.507 0.2338-68.249-0.51 24.926-20.346-16.747-35.033-30.434-45.487-12.514 0.6657 1.5975 18.42-16.263 17.93-3.4297 12.143-26.147 37.038-8.1463 11.904 7.7853-8.2388 7.5504-25.197-1.0851-7.5328-5.8664 7.6021-9.0632 17.548-17.071 23.332zm28-36.78c-2.4366-3.2069-2.8673 3.7411 0 0zm7.6698-7.9106c6.117-17.218-12.296 13.174 0 0zm46.346-71.448c10.072-23.863-19.269 22.569-1.7542 2.3519zm-161.26-39.354c-21.976-16.11-24.827-63.657-52.499-63.133-34.498 6.0128-69.485 8.3541-104.16 13.078 32.361 7.5436 65.483 13.195 95.198 28.865 24.172 10.217 48.657 19.965 71.459 33.068-3.2065-4.0648-6.6349-7.9459-10-11.878zm122.86-22.225c28.038-11.236 27.115-56.764 2.1299-71.244-18.34-10.613-48.273-15.134-67.184-1.2619-13.915 4.0562-42.562 10.198-21.775 28.627 12.682 26.75 39.518 50.057 70.229 49.972 6.0171-0.5018 11.404-3.2469 16.601-6.0931zm-285.96-81.15c-18.514-23.763-15.074-61.159 10.268-78.844 18.787-21.406 51.752-10.032 70.303-3.2484-6.5351-15.666-9.9896-51.257-17.464-53.851-8.0011 22.514-32.393 32.344-47.766 49.151-30.798 22.313-36.568 63.948-62.471 90.641 12 2.6454 42.935 6.1511 51.918 0.14672-1.295-1.6876-3.3299-2.5033-4.789-3.9944zm66.374 0.13563c16.872 0.4506 45.959-4.5867 28.261-27.159-4.7352-27.995-29.286-54.301-59.301-48.787-28.276 6.5435-39.908 40.449-26.08 64.827 12.249 23.364 36.942 12.993 57.119 11.119zm111.06-22.254c25.052-11.349 57.734-20.903 61.577-53.063 7.0543-21.043-10.655-44.976-31.252-49.853-24.471-4.5575-51.093 11.299-52.356 37.525-3.0976 20.553 0.52453 58.72 22.031 65.392zm-284.01 123.79c0.85031-3.7691 0.79926 4.7984 0 0zm415.92-237.62c-24.206-11.903-68.466-5.7863-79.799-30.377 7.5416-26.384 13.511-53.305 20.424-79.919 31.317 0.34088 62.679-1.5707 93.958 0.6876-7.9836 37.205-16.129 74.375-24.118 111.58-3.6402 0.94854-6.9905-1.6201-10.464-1.9702zm-136-46.786c-19.361-3.4506-36.181-20.559-43.178-38.146-11.426-36.381 40.099-25.864 60.722-25.002 17.632 1.1936 68.046-11.965 48.973 21.607-1.9919 18.274-6.3121 46.424-30.925 35.293-11.759 2.5322-23.417 6.5357-35.591 6.2471z" fill="#ffe680"/>
<path d="m-73.089 1217.4c0.86091-10.772-2.4988-52.391 3.8046-23.367 4.0889 18.551 20.868 47.906-3.7206 56.34-0.8977-10.862 0.51632-21.993-0.08406-32.974zm392.69-32.799c-9.9691-6.617-19.696-13.612-29.202-20.907-23.224-17.822-45.13-37.434-66.032-57.699-17.622-25.566-34.678-51.535-53.122-76.526 16.574-8.9973 34.545-22.366 42.45 1.5583 40.43 56.801 92.331 105.21 152.84 140.04 21.982 14.399 47.135 27.049 66.324 43.763v39.317c-21.251 2.7032-35.19-17.589-52.31-26.772-17.665-12.597-35.181-25.424-53.407-37.208-19.475 26.529 32.615 33.095 45.139 50.231 12.349 7.7507 28.197 16.717 3.5442 13.596-12.634-1.194-34.886 5.1456-19.375-11.011-0.58609-27.513-50.116-22.531-36.846-58.387zm0.95301 10.756c9.5153-19.176-10.03 3.1143-5.0575 5.2786l2.0141-1.895zm-172.33-210.02c-23.07-57.542-29.121-120.13-49.135-178.62-18.775-29.824 27.692-55.217 38.487-20.349 17.406 61.83 29.86 125.63 52.91 185.92-9.5643 14.31-27.201 13.103-42.261 13.053z" fill="#ffd42a"/>
<path d="m-73.089 1217.4c0.86091-10.772-2.4988-52.391 3.8046-23.367 4.0889 18.551 20.868 47.906-3.7206 56.34-0.8977-10.862 0.51632-21.993-0.08406-32.974zm348.95 36.387c5.153-18.679 40.512-43.158 23.959-58.111-39.23-26.227-71.843-62.036-115.78-81.018-32.122-15.056-64.738-29.963-98.324-41.124-43.607-8.5957-86.616-23.369-131.58-21.572-12.97 0.097-39.444-4.8874-12.115-3.6883 36.015-0.1949 71.633 4.7801 106.45 13.904 25.282 5.9065 51.036 10.044 74.261 22.301 50.954 21.152 103.41 43.113 143.16 82.636 17.992 10.479 44.957 47.144 55.68 13.622 15.123-15.441 29.831-43.353-0.49226-51.252-14.814-10.364-31.53-23.729-40.339-38.429 20.719 8.3187 41.063-1.3712 58.62-12.488 15.651-21.488 16.894-54.921-1.2414-75.28-10.48-17.334-33.476-14.965-46.832-20.874 51.39-18.878 92.989-55.575 137.18-86.619-7.9184 11.411-32.579 24.982-46.701 37.273-24.167 18.079-49.026 36.096-77.52 46.745 12.105 7.0585 39.755 13.67 45.43 35.721 6.7313 23.392 7.3116 56.962-17.415 69.522-11.399 13.007-32.112 9.4077-43.847 12.586 17.371 15.373 41.352 40.722 60.129 43.258 26.71-40.711 55.594-80.008 84.314-119.32-26.209 41.38-56.286 80.142-82.73 121.37 16.129-8.848 23.792-33.682 37.468-48.294 14.746-21.37 28.833-43.245 45.087-63.526-20.083 34.09-45.364 64.726-66.286 98.272 11.869 3.8365-27.609 16.541-4.0006 25.393 20.381 15.093 55.019 36.953 66.539 47.92-26.297-12.603-47.24-34.188-72.989-47.598-16.69 7.1347-27.556 32.834-35.163 50.428 18.7 15.369 63.39 37.833 65.825 48.27-12.343-2.575-48.337 8.2744-30.207-10.835-1.0334-19.205-27.448-28.733-41.867-34.592-5.9555 10.567-26.305 43.048-25.919 37.646 6.8401-8.2166 22.532-40.552 4.995-17.14-5.6555 8.4237-9.6127 18.44-17.752 24.898zm35.58-44.579c6.2082-17.073-12.645 12.827 0 0zm9.5817-14.518c12.221-26.298-21.858 22.328 0 0zm13.338-21.54c9.6463-10.931-7.7958-0.4371 0 0zm14.108-20.75c3.4667-11.676-10.108 5.3027 0 0zm-36.428 69.467c-4.1053-9.739 11.047 0.4092 0 0zm-18.389-5.7739c-4.3276-7.6773 6.2731 0.2125 0 0zm1.8578-5.7015c0.0736-8.7699 8.6795 1.0837 0 0zm-80.204-91.388c-39.092-23.321-81.937-39.935-124.27-56.018-23.463-5.1177-46.81-10.822-70.465-15.016 62.019-8.6984 125.16-12.341 185.28-31.176 32.943-6.4265 61.872-33.954 96.57-22.387 26.236 0.88665 45.829 29.667 40.254 54.856-3.2178 28.145-35.511 42.087-60.53 33.052-25.935-8.4078-43.656-29.683-54.78-53.698-14.99-24.818-44.511 0.2195-65.164 3.3583 3.5981 26.95 30.585 53.604 47.342 77.177 1.8859 3.8525 19.735 18.838 5.7718 9.8508zm-10.976-12.104c-26.319-18.078-28.74-68.384-61.363-71.382-32.455 3.7656-64.776 8.5209-97.317 11.613-7.8566 5.8811 28.518 6.9196 35.883 10.701 32.794 7.871 62.674 24.325 93.884 36.766 6.5305 0.816 37.084 21.935 28.913 12.302zm114.74-30.335c36.648-15.167 22.515-78.04-15.732-79.118-28.528-9.6796-53.858 7.601-79.319 17.581 7.7525 18.835 18.454 38.804 35.088 50.746 16.558 12.062 40.827 24.689 59.963 10.791zm-302.34-71.872c-13.33-1.8835-57.303 5.0386-26.52-13.899 16.15-23.934 26.971-51.302 44.394-74.359 18.44-20.046 48.149-32.868 58.554-58.185 0.50851-11.548 7.4151-22.244 8.3323-3.9956 2.9259 20.576 20.916 59.349 14.218 68.249-20.172-21.288-57.551-21.911-76.435 1.4253-18.455 17.095-17.916 47.592-5.4453 67.4 10.477 5.8699 18.686 19.449-0.9256 13.819-5.3924 0.01-10.794 0.01-16.171-0.4544zm16.869-10.296c-15.063-16.746-15.299-47.486-1.6798-65.943 13.095-18.886 37.055-30.438 59.429-23.308 12.963 6.1337 30.13 17.479 19.121-5.3079-3.6022-11.519-8.7354-43.878-13.742-41.814-7.4329 22.823-32.196 32.566-47.501 49.418-31.793 22.682-37.188 65.918-64.45 92.666 13.82-0.83319 47.737 6.9622 52.494-2.0191zm-103.99 8.0374c20.063-7.7099 50.038-3.4003 58.339-29.68 13.955-22.228 23.283-47.902 41.207-67.307 17.603-16.428 40.811-29.55 53.274-49.975 8.8972-26.038 4.9187-53.539-4.3837-78.722-5.116-10.022-7.827-40.347-0.66286-12.503 8.5296 29.347 20.746 59.471 8.1498 89.563-12.23 28.24-47.38 40.424-64.576 65.974-17.835 24.208-24.42 60.012-51.332 75.469-12.459 5.6699-26.362 8.176-40.016 7.1812zm117.99-10.044c-15.98-12.991-19.181-43.023-5.1461-58.12 17.251-28.076 60.569-22.607 76.543 3.8171 16.572 16.9 7.0461 64.728 39.84 46.986 17.992-1.6732 52.812-6.6057 32.159-30.299-10.113-26.209-11.152-62.234 13.56-80.656 20.981-14.947 55.246-9.3021 66.637 16.157 13.154 19.062 2.3195 43.038-9.3026 59.956-22.335 14.986-48.243 26.326-74.774 31.948-41.885 10.674-84.859 16.183-127.77 20.967-4.2786-3.17-7.9512-7.0439-11.743-10.756zm50.261 3.1578c16.723-0.71905 49.062-2.1385 30.867-26.742-4.67-28.731-29.769-55.655-60.516-49.693-26.217 6.5496-37.774 35.807-28.232 60.173 9.0859 20.399 34.427 23.66 53.374 16.83 1.5023-0.18909 3.0067-0.37748 4.5075-0.56844zm138.9-34.361c27.366-7.3012 45.295-41.228 33.397-67.25-11.008-28.95-53.979-33.64-72.337-9.3165-17.224 24.405-11.025 58.07 2.0745 82.787 10.862 15.688 24.859-2.8774 36.865-6.2207zm40.391-18.671c15.215-25.852 9.7829-60.243-16.506-76.612-16.995-13.681-40.393-8.8643-58.751-1.3472-15.794 7.6706-18.957 25.802-26.461 39.443-13.503-51.795-27.963-103.33-41.569-155.1 14.268 31.093 18.768 65.644 29.253 98.098 4.4581 13.379 9.7565 42.307 13.699 46.14 9.0225-27.483 37.276-41.32 64.981-38.374 25.986 5.5754 49.742 30.936 46.213 58.892 0.18143 12.102-11.381 33.097 8.1284 18.418 49.317-24.757 89.081-64.191 135.23-93.646-37.189 30.407-75.528 59.845-115.7 86.332-12.92 5.6415-24.369 15.272-38.52 17.758zm73.961-81.186c-26.27-9.8032-54.918-11.744-80.986-21.809-17.972-18.179 9.7161-47.047 8.6986-70.151-2.5832-30.099 26.502-19.403 46.181-21.306 15.914 1.8974 42.967-4.2028 51.663 4.774-7.8977 36.096-15.231 72.319-23.753 108.28l-1.4238 0.1702zm-149.46-51.006c-21.508-8.0508-45.631-31.747-37.755-57.103 13.94-11.937 39.002-1.624 57.432-5.0929 17.168 2.1368 47.426-4.2979 56.183 4.0318-6.3285 23.306-2.9026 65.407-38.843 54.492-12.155 2.1983-24.765 8.9084-37.017 3.672z" fill="#aef58c"/>
<path d="m134.34 748.38c2.9795 16.838 14.932 56.852 21.659 82.953 7.5977 22.413 11.873 54.932 21.21 71.402 6.0402-21.212 21.191-43.231 45.323-43.869 31.968-9.5338 62.012 22.136 64.289 52.131-1.3683 13.404-19.523 42.196 5.7969 26.039 49.096-24.491 90.207-61.707 134.08-94.096 7.0331-9.1809-22.084 14.518-29.852 19.936-36.373 27.129-71.593 56.916-113.52 75.285 8.6716-22.838 7.8597-53.496-14.33-68.377-16.848-20.96-49.823-17.806-69.978-6.0355-16.1 3.4117-23.755 49.063-26.635 17.609-12.507-42.965-21.851-86.927-36.35-129.25zm-61.584 0.38605c0.25354 28.703 19.68 55.605 13.955 85.135 0.36715 20.398-11.59 35.161-27.484 46.318-16.722 15.623-38.28 27.305-47.135 49.607-13.911 20.069-20.591 46.675-40.491 61.523-11.911 7.3526-65.502 10.321-28.434 10.977 8.5779-0.04 16.317-1.9716 23.206-5.3362 15.783-7.7086 27.105-22.939 33.833-40.177 13.262-29.903 33.245-54.792 59.92-73.788 28.47-16.244 36.773-53.516 27.207-83.198-4.459-17.08-9.5339-34.424-14.577-51.061zm303.6 2.8568c-1.4447 1.7068 1.3483 3.8536 0 0zm-0.9111 4.0149c-1.4078 2.426 1.1334 4.9289 0 0zm-212.09 0.98829c-1.4446 1.7068 1.3483 3.8536 0 0zm211.08 4.0149c-1.3673 2.4374 1.1238 4.9186 0 0zm-212.04 1.6368c-1.0065 3.081 0.80364 5.9903 0 0zm210.94 3.3509c-1.4005 1.7233 1.335 3.8412 0 0zm-0.9111 4.0149c-1.3673 2.4224 1.122 4.9044 0 0zm-1.081 4.9877c-1.4376 1.7078 1.3229 3.8288 0 0zm-206 0.98828c-1.4447 1.7068 1.3483 3.8536 0 0zm205.09 3.0266c-1.4633 1.318 1.4132 6.8647 0 0zm-202.85 3.1502c3.2391 7.5736 36.799 35.882 16.11 16.495-5.8983-4.9959-10.487-11.24-16.11-16.495zm201.85 1.8376c-1.3673 2.4374 1.1238 4.9186 0 0zm-1.081 4.9877c-1.4447 1.7068 1.3483 3.8536 0 0zm-0.91111 4.0149c-1.4078 2.426 1.1334 4.9289 0 0zm-1.0964 4.9877c-1.4447 1.7068 1.3483 3.8536 0 0zm-0.9111 4.0149c-1.3673 2.4374 1.1238 4.9186 0 0zm-121.65 3.7524c-4.0106-0.4882-1.8284 1.8622 0 0zm10.007 0c-3.1712-1.5861-2.7966 2.8776 0 0zm8.972 0.55591c-7.8402 2.6892 9.2333 2.3999 0 0zm-22.978 0.44781c-4.0106-0.4882-1.8284 1.8622 0 0zm18.006 0c-3.1712-1.5861-2.7966 2.8776 0 0zm106.64 0.24707c-1.3673 2.4374 1.1238 4.9186 0 0zm-129.64 0.74121c-4.0368-0.49477-1.8354 1.8654 0 0zm-4.015 1.0037c-4.0106-0.4882-1.8284 1.8622 0 0zm-4.9879 1.0037c-4.0106-0.48819-1.8284 1.8622 0 0zm-3.9996 1.0037c-4.0106-0.4882-1.8284 1.8622 0 0zm-5.9762 0.71033c-9.426 0.41232-0.38237 3.2194 0 0zm-6.0225 0.27795c-4.0106-0.48819-1.8284 1.8622 0 0zm153.56 0.24707c-1.4446 1.7068 1.3483 3.8536 0 0zm-0.91109 4.0149c-1.408 2.4111 1.1316 4.9146 0 0zm-1.0964 4.9877c-1.3953 1.72 1.316 3.82 0 0zm-0.9111 4.0149c-1.3674 2.4224 1.122 4.9044 0 0zm-0.98831 4.9877c-1.4079 2.426 1.1334 4.9289 0 0zm-96.654 2.8413c-0.3083 6.904 9.775 9.107 1.9078 1.6121zm95.557 2.1464c-1.4446 1.7068 1.3483 3.8536 0 0zm-0.9111 4.0149c-1.3673 2.4374 1.1238 4.9186 0 0zm-83.651 1.7449c-4.0106-0.48821-1.8284 1.8622 0 0zm3.9996 1.0037c-4.0106-0.48819-1.8284 1.8621 0 0zm3.9996 1.0037c-4.0106-0.48817-1.8284 1.8622 0 0zm-184.03 0.67945c-3.5069 29.658-31.239 44.628-51.493 63.114-21.597 15.439-29.342 41.94-43.462 63.247-3.714 13.626-19.173 25.355-23.74 33.915 20.673-0.3718 50.782 5.3837 66.7-0.5498-18.609-13.008-22.796-36.734-19.171-57.859 7.2143-19.88 26.465-39.313 48.741-37.599 16.822-8.5716 38.755 19.229 43.703 13.232-6.67-25.766-13.651-51.597-20.424-77.237zm188.03 0.32428c-4.0106-0.48819-1.8284 1.8621 0 0zm70.572 0.23162c-1.4447 1.7068 1.3483 3.8536 0 0zm-66.572 0.75666c-4.0106-0.48818-1.8284 1.8621 0 0zm3.9996 1.0037c-4.0106-0.4882-1.8284 1.8622 0 0zm5.0033 1.0037c-4.0106-0.4882-1.8284 1.8622 0 0zm3.9996 1.0037c-4.0106-0.4882-1.8284 1.8622 0 0zm52.643 0.24707c-1.3673 2.4374 1.1238 4.9186 0 0zm-48.643 0.74121c-4.0106-0.48822-1.8284 1.8622 0 0zm3.9996 1.0037c-4.0105-0.48821-1.8284 1.8622 0 0zm3.9996 1.0037c-4.0106-0.48822-1.8284 1.8622 0 0zm3.9996 1.0037c-4.0106-0.48821-1.8284 1.8622 0 0zm3.9996 0.98828c-4.0106-0.48821-1.8284 1.8622 0 0zm31.641 0.69489c-10.328 8.727 1.6496 10.538 0 0zm-27.642 0.30884c-4.0105-0.48824-1.8284 1.8622 0 0zm-229.41 0.74121c4.6728 17.636 18.656 50.424 13.295 60.313-20.492-15.843-52.186-15.241-70.239 4.5838-21.463 17.267-22.065 48.845-11.09 71.824 26.135 20.36-27.019 6.8685-39.12 10.734-10.893-3.9791 16.78-23.575 17.991-35.631 12.085-21.991 22.258-46.308 43.877-60.787 15.072-16.552 41.582-26.626 45.286-51.037zm233.41 0.26251c-4.0106-0.4882-1.8284 1.8622 0 0zm-95.681 11.427c-23.835-1.5732-47.361 15.642-49.155 40.177-4.6741 22.444 1.6686 46.007 13.175 65.446-15.282 13.83-46.368 15.451-61.739 15.724-7.7898-23.617-11.951-54.006-37.339-65.447-18.576-11.969-47.046-6.3346-58.489 13.731-13.043 15.117-9.5609 44.344 6.0468 56.993 18.517 21.655 50.871 1.5315 75.781 2.5015 33.929-6.0787 68.62-11.297 100.68-24.276 28.139-8.9796 51.33-28.165 54.22-59.357-2.7184-21.359-19.905-45.228-43.177-45.492zm0.21619 3.2428c27.197 0.95802 49.138 35.117 34.26 59.48-7.115 27.382-40.096 36.741-62.983 44.342-17.476-16.795-22.254-46.622-17.157-70.344 4.5144-22.214 24.28-34.108 45.879-33.478zm194.47 26.622c-45.154 29.803-86.532 68.15-138.5 86.783 19.545 4.0381 49.329 11.069 56.859 37.416 5.507 21.348 4.8569 49.834-15.79 62.747-12.43 14.086-46.87 8.9855-49.991 12.145 16.94 20.092 39.048 35.055 60.451 49.893-4.6497-10.019-38.071-28.145-51.164-43.586-8.8295-12.436 26.996 1.8447 32.216-10.682 17.247-6.3603 30.42-23.69 29.081-42.413 4.6166-24.423-8.2893-50.098-30.045-60.715-9.2707-1.8471-30.981-5.3674-9.541-11.127 42.973-19.962 78.998-51.697 116.75-79.657l0.1599-0.5694zm-344.35 23.147c28.816 5.8621 40.978 35.428 46.655 61.406 5.0881 19.614-27.526 11.038-39.384 16.01-19.976 6.4631-46.574 1.9962-53.747-20.301-7.3732-22.89 3.8183-47.481 26.205-56.373 6.7014-1.2683 13.546 0.35325 20.271-0.74138zm189.54 71.99c-31.054 12.521-61.921 25.731-94.785 32.858-52.199 13.92-106.44 16.145-159.63 24.339 36.137 7.4698 73.207 12.734 106.65 29.117 30.154 11.945 60.965 26.256 88.59 41.37 10.239 7.2905-15.514-18.506-19.084-25.139-13.903-17.451-23.812-37.542-36.291-55.88 10.192-15.027 36.961-14.43 53.621-20.284 21.261 11.401 22.779 42.804 46.167 52.882 21.357 19.901 63.431 21.93 77.598-7.1341 11.853-21.237 4.3561-50.31-16.642-62.726-12.861-8.3458-31.383-6.0659-46.192-9.4036zm6.841 3.8759c24.771-0.20757 54.246 9.6281 57.836 38.008 5.3252 22.596-10.616 45.36-33.211 49.002-25.591 2.447-52.047-13.748-65.137-35.162-10.709-15.327-27.323-35.967 1.5997-39.201 12.224-5.9703 25.04-12.263 38.912-12.647zm-134.38 40.751c27.784 10.087 32.741 53.818 57.784 72.616-0.97492 3.1063-28.942-14.959-40.858-18.316-33.723-13.51-66.16-31.279-102.7-36.022-14.528-1.1438-27.963-7.4742-5.6446-7.5244 30.56-2.8104 60.866-8.205 91.423-10.754zm-205.41 12.879c-36.919-0.4477 15.465 5.035 30.186 4.1363 40.815 1.2581 79.911 15.23 119.88 22.455 58.866 24.534 120.76 46.658 168.19 91.085 15.449 11.964 31.61 26.298 48.886 33.979-16.923-14.838-41.109-29.138-58.882-46.106-44.513-39.257-102.55-57.522-155.92-81.351-45.711-9.0125-90.608-24.205-137.63-23.71-4.9013-0.2319-9.8054-0.4177-14.712-0.4875zm406.32 97.608c-3.5245 5.1309 6.6927 2.9858 0 0zm5.8835 3.5825c17.192 18.818 41.3 29.892 61.199 45.696 20.892 14.317 17.109 7.4407-0.51941-3.5565-20.075-14.263-40.302-28.312-60.679-42.139zm-13.836 0.1545c-2.7585 2.6955 2.7415 5.2112 0 0zm3.8451 6.0532c-11.524 5.5484-28.93 48.901-11.884 19.22 3.0842-6.1395 12.124-14.804 11.884-19.22zm5.4048 1.0655c-4.0894 1.0897 2.9941 1.8014 0 0zm-30.205 25.248c-3.6074 1.6124 3.0265 3.1933 0 0zm9.0029 6.5937c-1.8432 2.0966 3.106 1.4131 0 0zm-16.446 12.245c-1.77 5.2419 7.7322 3.009 0 0zm6.8873 4.8024c18.891 18.234 43.289 29.925 64.334 45.592 17.812 6.7955-15.087-13.012-21.057-17.851-14.203-9.1394-29.138-19.962-43.277-27.741zm-377.53 26.946c-1.4005 1.7233 1.3349 3.8411 0 0z" fill="#6c5d53"/>
</g>
</g>
</g>
</svg>
