<?xml version="1.0" encoding="UTF-8"?>
<svg version="1.1" viewBox="0 0 64 64" xmlns="http://www.w3.org/2000/svg" xmlns:cc="http://creativecommons.org/ns#" xmlns:dc="http://purl.org/dc/elements/1.1/" xmlns:rdf="http://www.w3.org/1999/02/22-rdf-syntax-ns#">
<metadata>
<rdf:RDF>
<cc:Work rdf:about="">
<dc:format>image/svg+xml</dc:format>
<dc:type rdf:resource="http://purl.org/dc/dcmitype/StillImage"/>
<dc:title/>
</cc:Work>
</rdf:RDF>
</metadata>
<g transform="translate(0 -988.36)">
<g transform="translate(-.85721 .17178)">
<g transform="matrix(1.277 0 0 1.277 2.4645 -282.7)">
<path d="m-1.2583 1020.3v-25.058h50.115v50.115h-50.115z" fill="#8e959e" stroke-width=".25058"/>
<path d="m-1.2583 1020.3v-25.058l25.059-3e-3 24.734 3e-3 0.32501 3.1295c0.0051 16.141-4.42e-4 31.361 0 46.986h-25.185-24.932z" fill="#6b81a0" stroke-width=".25058"/>
<path d="m41.029 1007.8-18.011-2.3493-1.5662-10.18h21.927z" fill="#436c62" stroke-width=".25058"/>
<path d="m-0.85611 1045c0.09964-0.1722 0.39013-0.6152 0.64553-0.9844 0.45782-0.6616 0.45372-0.709-0.29057-3.3597-0.75396-2.6851-0.75493-2.6972-0.74815-9.3262l0.00678-6.6376 3.4376 0.1445c2.8756 0.1209 4.2468 0.3334 8.3874 1.3001 4.1942 0.9792 5.6282 1.4459 9.3934 3.0576 5.46 2.3372 8.4282 4.0281 11.281 6.4263 2.4142 2.0299 5.0684 3.9294 5.4907 3.9294 0.14941 0 0.42556 0.1854 0.61366 0.4121 0.1881 0.2266 1.8277 1.4064 3.6435 2.6217s3.3738 2.3266 3.4621 2.4695c0.26392 0.4271-0.27204 0.298-1.5218-0.3665-0.648-0.3445-1.3115-0.6264-1.4744-0.6264-0.16291 0-0.44707 0.2819-0.63146 0.6264-0.33434 0.6247-0.34544 0.6264-4.0294 0.6264-2.9229 0-3.684-0.069-3.6455-0.3317 0.02678-0.1825 0.42744-0.922 0.89035-1.6434 0.51872-0.8083 0.75226-1.401 0.60868-1.5446s-0.70395 0.487-1.4604 1.6434l-1.2275 1.8763h-16.506c-13.134 0-16.469-0.064-16.325-0.3132zm45.355-7.0797c-2.0527-1.4466-3.8795-2.6302-4.0594-2.6302-0.17997 0-0.41954-0.1649-0.53237-0.3665-0.11283-0.2017-0.8924-0.85-1.7324-1.4409-1.8428-1.2962-4.6024-3.7779-4.6024-4.1389 0-0.1664 0.579-0.2139 1.6044-0.1316 1.4574 0.117 1.7283 0.058 2.9576-0.6455 2.1845-1.2498 2.9838-3.6037 2.1589-6.3572-0.40283-1.3445-2.4626-3.2056-3.5531-3.2103-1.027 0-1.9149-0.2486-1.9149-0.5265 0-0.1215 1.052-0.7224 2.3377-1.3354 1.3754-0.6557 4.2278-2.4625 6.9291-4.3891 2.5253-1.801 4.6024-3.2448 4.6158-3.2084 0.13123 0.3559-0.16159 31.012-0.29621 31.012-0.0993 0-1.86-1.1844-3.9128-2.631zm-3.011-6.891c0.43962-1.0331 0.88212-2.1602 0.98333-2.5047l0.18402-0.6265-0.4901 0.6265c-0.91109 1.1645-2.5531 4.099-2.4169 4.3193 0.36031 0.583 1.006-0.091 1.7396-1.8146zm4.388-6.9196c1.575-1.8552 1.7278-2.1339 1.7176-3.1332-0.0105-1.032-0.03343-1.0672-0.38761-0.5957-0.44976 0.5987-3.5348 5.5249-3.9166 6.254l-0.26792 0.5116 0.56291-0.5003c0.3096-0.2751 1.3408-1.4165 2.2917-2.5364zm-8.2944 14.899c0-0.4684 1.7293-3.2177 2.0239-3.2177 0.41422 0 0.24569 0.5601-0.53423 1.7755-0.90584 1.4116-1.4897 1.9769-1.4897 1.4422zm-11.796-7.8187c-2.4819-1.4915-10.204-4.5791-12.886-5.1522-3.5455-0.7576-4.4184-1.0156-4.2668-1.261 0.14311-0.2315 0.30994-0.2563 6.8978-1.0244 4.9561-0.5779 11.854-2.2324 14.705-3.5273 2.5827-1.1729 2.8702-1.2199 5.0945-0.8316 1.5746 0.2749 2.2378 0.5273 3.0046 1.1435 1.2226 0.9826 1.8475 2.6406 1.604 4.2563-0.37245 2.4715-1.9545 3.731-4.6863 3.731-1.5067 0-1.7588-0.083-3.2234-1.065-1.2167-0.8156-1.9116-1.5452-2.967-3.1156-0.758-1.1278-1.453-2.1235-1.5445-2.2127-0.18254-0.1778-4.9745 1.0558-5.2948 1.3632-0.2503 0.2402 2.5932 5.1061 3.6716 6.2829 2.0908 2.2818 2.0577 2.7144-0.10817 1.4129zm-22.032-10.781c0-0.1909 0.26403-0.52 0.58673-0.7315 0.3227-0.2114 1.4785-1.9867 2.5684-3.9451 1.9439-3.4928 2.0343-3.6063 4.738-5.9553 1.516-1.3171 2.8452-2.4682 2.9537-2.5581 0.10856-0.09 0.33408-0.6974 0.50116-1.3501 0.16708-0.6526 0.41653-1.187 0.55435-1.1875 0.23773-8e-4 2.0879 6.4394 2.1164 7.3671 0.01879 0.6109-0.29071 0.5524-1.6556-0.3132-2.3317-1.4788-5.0486-0.7397-6.8372 1.8599-0.76855 1.1171-0.78882 1.2136-0.61828 2.9444 0.15298 1.5525 0.28766 1.9127 1.0171 2.7201 0.46242 0.5119 0.84076 1.0579 0.84076 1.2135 0 0.1961-1.0373 0.2829-3.3828 0.2829-2.715 0-3.3828-0.069-3.3828-0.3471zm6.956-0.8835c-1.1506-1.1106-1.1967-1.2112-1.351-2.9423-0.15088-1.6928-0.12029-1.8473 0.55038-2.7803 1.0719-1.4912 2.1096-2.0676 3.7223-2.0676 2.7322 0 4.7518 2.0179 5.6392 5.6346 0.16864 0.6873 0.42195 1.3209 0.56291 1.408 0.2044 0.1263 4.0787-0.6995 5.39-1.149 0.20331-0.07 0.06817-0.6354-0.43173-1.8073-1.2035-2.8214-0.87702-6.0284 0.78877-7.7471 0.90103-0.9296 2.9276-1.5105 4.3434-1.2449 1.275 0.2392 2.7914 1.7026 3.276 3.1615 0.39935 1.2024 0.39521 1.3292-0.0963 2.9474-0.63519 2.0912-1.2621 2.7165-4.0415 4.0313-2.6106 1.2348-7.3328 2.3752-13.028 3.1462l-4.1327 0.5595zm-11.968-3.0084c0-2.9562 0.081057-4.0211 0.31322-4.1147 0.25058-0.1011 0.25058-0.1304 0-0.1462-0.24405-0.015-0.31322-1.9013-0.31322-8.5394v-8.5196h14.473l0.27481 0.68909c0.15115 0.37899 0.61987 1.9742 1.0416 3.545l0.76679 2.8559-0.41738 1.9051c-0.22956 1.0478-0.5078 2.0807-0.6183 2.2953-0.1105 0.2146-1.4478 1.4549-2.9718 2.7563-2.6956 2.3019-2.8229 2.458-4.6881 5.749-1.0545 1.8605-2.2069 3.6955-2.5608 4.0777-0.73302 0.7916-2.624 1.435-4.2174 1.435h-1.0821zm34.58-2.1587c0-0.073 0.2227-0.7943 0.4949-1.6023 0.48123-1.4285 0.48251-1.5055 0.04632-2.7887-0.57223-1.6835-2.2147-3.3514-3.6583-3.7149-1.6832-0.4238-3.6978 0.1693-5.0361 1.4827-0.62916 0.6175-1.1714 1.4253-1.2898 1.9215-0.27858 1.1675-0.64717 1.1486-1.0009-0.051-0.45231-1.5344-3.6032-13.333-3.7133-13.904-0.08918-0.46307 0.03504-0.50377 1.5373-0.50377h1.6343l-0.16511 0.75173c-0.28562 1.3004 0.12001 2.2869 1.5621 3.7987 1.641 1.7204 2.5933 1.982 4.9718 1.3657 0.82642-0.2141 1.8984-0.3251 2.3823-0.2466l0.87971 0.1428 0.59448-2.593c0.5739-2.5032 1.0428-3.5216 1.4389-3.1255 0.16249 0.16249-0.68937 3.7967-1.7251 7.3595-0.19921 0.6853-0.22296 1.1499-0.06677 1.3061 0.34194 0.3419 8.3391 2.3209 8.6364 2.1371 0.13465-0.083 0.24482-0.3637 0.24482-0.6232 0-0.5774 1.6634-8.3282 2.03-9.459l0.26402-0.81437h2.6116l2.8646-3e-3c-0.01444 2.0534-0.18214 4.2096-0.09025 6.0362l0.09025 3.3607-1.3257 0.8991c-0.76788 0.6096-2.5923 1.9541-4.0541 2.9878-1.4619 1.0336-3.2664 2.3418-4.0101 2.9072-2.2198 1.6874-6.1483 3.5873-6.1483 2.9734z" fill="#404b5a" stroke-width=".25058"/>
<path transform="matrix(.7831 0 0 .7831 -1.2587 995.23)" d="m18.283-0.0058594c-0.096572 0.0052041-0.22872 0.11093-0.33398 0.28125-0.14574 0.23582 0.21031 2.1533 0.83008 4.4707 1.0494 3.9238 1.0733 4.1398 0.71094 6.5566-0.20609 1.3745-0.56987 2.6949-0.80859 2.9336-0.23872 0.2388-1.937 1.7496-3.7734 3.3574-3.2276 2.8257-3.4249 3.0767-5.9336 7.543-2.8827 5.132-3.2938 5.5073-6.3652 5.8242-1.6979 0.17533-2.8203 0.7227-2.3809 1.1621 0.31177 0.31184 1.3923 0.22737 3.1777-0.24805 2.9194-0.77742 3.3435-1.2023 6.1836-6.2344 2.6188-4.64 2.6704-4.7044 6.377-7.916l3.7363-3.2383 0.55273-2.3613c0.30389-1.2992 0.54917-2.6297 0.54688-2.957-0.004717-0.68459-2.1951-8.9021-2.4375-9.1445-0.022123-0.022124-0.04984-0.031032-0.082031-0.029297zm8.1934 0.048828c-0.059639-0.0011153-0.10862 0.054385-0.14648 0.16797-0.065087 0.19526 0.9759 4.4408 2.3145 9.4336 2.9647 11.058 2.6728 10.14 3.0469 9.5488 0.16383-0.2591 0.30005-0.76447 0.30274-1.123 0.002694-0.3587 0.69644-1.3342 1.543-2.168 1.3118-1.292 1.8244-1.568 3.4648-1.873 2.7624-0.51373 4.0616-0.17255 5.9082 1.5547 2.0317 1.9005 2.8644 4.2172 2.252 6.2715-0.22084 0.74065-0.48199 1.6704-0.58008 2.0664-0.098072 0.39599-0.10623 0.7207-0.017578 0.7207 0.4928 0 6.0962-3.1922 7.5938-4.3262 0.96795-0.73298 4.027-2.9643 6.7988-4.959 2.7718-1.9946 5.0391-3.7381 5.0391-3.873 0-0.8045-2.0366 0.52002-11.971 7.7773-2.2256 1.6258-5.3103 3.457-5.8418 3.457-0.27444 0.002937-0.29102-0.3-0.060547-1.1348 0.25134-0.91023 0.17872-1.5489-0.36914-3.1953-0.56537-1.6989-0.97384-2.306-2.3398-3.4707-2.1247-1.8111-3.7809-2.2828-6.2383-1.7773-2.2691 0.46686-2.8006 0.73556-4.291 2.1602-0.65674 0.62764-1.2567 1.0786-1.332 1.002-0.075362-0.076491-1.0262-3.4522-2.1133-7.5-1.5891-5.9167-2.5454-8.752-2.9629-8.7598zm-4.9297 12.424c-0.21833 0.014579-0.42773 0.40853-0.42773 1.0254 0 1.0908-0.95746 2.1517-5.7598 6.3867-2.1376 1.8849-2.6613 2.5953-4.7988 6.502-1.496 2.734-2.7629 4.6493-3.3613 5.084l-0.95898 0.69726 3.5195 0.17578c1.9359 0.097178 3.8209 0.20576 4.1875 0.24023 1.1473 0.10893 1.1455-0.33531-0.00586-1.5156-0.97351-0.99809-1.1481-1.4286-1.3887-3.4473-0.28779-2.4149-0.23756-2.6167 1.1113-4.627 1.3456-2.0052 2.9306-2.8262 5.4648-2.8262 1.9417 0 2.3357 0.11029 3.543 0.99805 0.74676 0.54923 1.4242 0.93329 1.5059 0.85156 0.11528-0.11531-1.6099-7.0479-2.2715-9.1289-0.094454-0.29709-0.22838-0.42476-0.35938-0.41602zm17.512 2.6289c-0.46808 0.003943-1.0039 0.036361-1.4941 0.097656-2.3089 0.28847-4.0416 1.7422-4.5684 3.834-0.64313 2.5541-0.45744 5.4398 0.46875 7.2676 0.45452 0.89695 0.75599 1.8994 0.66992 2.2285-0.26317 1.0064 0.96242 0.72943 4.6699-1.0586 3.3083-1.5955 3.4763-1.7277 4.2227-3.2832 1.1333-2.3616 1.3072-3.7833 0.66797-5.457-0.58725-1.5377-2.2824-3.2349-3.5488-3.5527-0.21997-0.055357-0.61981-0.080115-1.0879-0.076172zm-17.578 0.5957c0.1111-0.004214 0.37133 0.67581 0.57617 1.5117 0.20484 0.83591 0.44717 1.7722 0.53906 2.0801 0.18101 0.60859-0.021029 0.65721-0.99609 0.23828-0.35198-0.15132-1.4324-0.28944-2.4004-0.30859l-1.7598-0.035157 1.9199-1.7402c1.0559-0.95671 2.01-1.7461 2.1211-1.7461zm17.176 0.13867c0.43382-0.012814 0.83808 0.042006 1.1797 0.17188 3.0672 1.1661 4.1876 4.0919 2.7598 7.2012-0.77693 1.6919-1.3506 2.1597-4.3047 3.5059-1.3681 0.62342-2.6283 1.1328-2.8008 1.1328-0.17249 0-0.63305-0.68349-1.0215-1.5195-0.5745-1.2364-0.70512-2.0994-0.70703-4.623-0.002342-3.0954-3.26e-4 -3.1043 1.084-4.2227 0.94119-0.97076 2.5091-1.608 3.8105-1.6465zm25.34 2.8574c0-0.21709-2.6098 1.4727-5.8008 3.7539-3.2478 2.3218-7.1207 4.7891-8.7988 5.6055-1.6487 0.80207-2.998 1.5876-2.998 1.7461s0.49315 0.28906 1.0977 0.28906c0.60451 0 1.4621 0.13664 1.9043 0.30469 1.396 0.53084 3.2852 2.51 3.9062 4.0918 0.31208 0.79489 0.39612 2.7101 0.49414 3.5039-0.024761 0.059132-0.042969 0.12356-0.042969 0.19531 0 0.22947-0.36382 1.1485-0.80859 2.041-0.67586 1.3563-1.13 1.7934-2.7598 2.6621-1.7411 0.92772-2.1333 1.0165-3.6699 0.83594-0.94656-0.11084-1.7208-0.092556-1.7207 0.041015 2.62e-4 0.35883 3.7328 3.6267 5.7598 5.043 0.96795 0.67629 1.9021 1.399 2.0781 1.6055 0.17599 0.20662 0.75328 0.60206 1.2812 0.87891 0.52797 0.27685 2.8981 1.8769 5.2676 3.5547 2.3695 1.6777 4.3611 2.9987 4.4258 2.9336 0.38487-0.38488-0.9707-1.6423-4.1562-3.8535-4.4318-3.0764-5.0586-3.6224-5.0586-4.4102 0-0.50709-0.1507-0.58114-0.83203-0.41016-0.66108 0.16601-1.2025-0.065859-2.6387-1.1309-0.99426-0.73733-2.1991-1.7023-2.6777-2.1445l-0.87109-0.80469 2.6309-1.3086c2.3333-1.1615 2.7279-1.4908 3.502-2.9102 0.64363-1.1803 0.95494-2.2436 0.85547-2.7402 0.31829-0.54105-0.33823-3.6051-0.42969-3.918-0.27061-0.9253-1.0526-1.9452-2.4492-3.2383l-1.8711-1.7324 1.832-1.0273c2.094-1.1767 10.351-7.0074 11.67-8.2402 0.48397-0.45231 0.87891-0.99971 0.87891-1.2168zm-44.984 2.7578c-2.2014 0.002427-3.1973 0.53148-4.6133 2.457-0.90806 1.2347-0.93466 1.3708-0.6875 3.4238 0.23437 1.9468 0.38248 2.266 1.6719 3.584 1.2097 1.2366 1.5568 1.4232 2.377 1.2793 0.52797-0.092581 2.8313-0.40332 5.1191-0.69141 2.2879-0.28796 4.2188-0.58076 4.291-0.64844 0.07225-0.068318-0.09859-0.37957-0.38086-0.69141-0.28227-0.31197-0.66973-1.2592-0.85937-2.1055-0.95102-4.2437-3.43-6.6074-6.918-6.6074zm-0.058594 0.62109c2.048-0.021812 4.0677 1.3774 5.1465 3.7812 0.47966 1.0688 0.90497 2.4921 0.94531 3.1621l0.074219 1.2188-2.8809 0.37891c-4.7703 0.6284-5.511 0.57292-6.584-0.5-0.83705-0.83706-0.93465-1.1492-0.93359-2.9609 0.001386-2.3448 0.69957-3.7877 2.209-4.5684 0.65481-0.33862 1.3408-0.50445 2.0234-0.51172zm-7.668 4.9414c0.097483-0.021341 0.16557 0.11702 0.27539 0.39648 0.12941 0.32933 0.24436 0.95852 0.25781 1.3984 0.013454 0.44005 0.23191 1.1957 0.48438 1.6797l0.45898 0.87891h-1.9004c-1.0455 0-1.9004-0.077378-1.9004-0.17188 0-0.24378 1.2738-2.719 1.8672-3.627 0.23147-0.35411 0.35955-0.53335 0.45703-0.55469zm32.393 3.6445l-2.4277 1.1133c-1.335 0.61167-2.9408 1.2825-3.5703 1.4902l-1.1445 0.37695 2.0078 3.0469c2.0168 3.0587 4.1124 4.9352 6.2227 5.5742 3.7431 1.1336 7.692-1.3954 7.707-4.9355 0.015785-3.7265-1.8703-5.6478-6.1582-6.2773l-2.6367-0.38867zm0.13281 0.96289l2.6348 0.35547c3.7332 0.50236 5.0723 1.8888 5.0723 5.252 0 1.9323-0.66396 3.0831-2.252 3.9043-0.50369 0.26038-1.621 0.47461-2.4824 0.47461-2.2161 0-4.9756-1.8143-6.7637-4.4473-1.9944-2.9368-2.0429-2.7401 1.0508-4.2246l2.7402-1.3145zm-14.537 3.9551c-0.14111 0.014199-0.32209 0.050165-0.55469 0.10156-0.57197 0.12629-4.2435 0.62235-8.1582 1.1035-3.9147 0.48129-7.21 0.96906-7.3242 1.084-0.27662 0.27659 0.083707 0.37786 4.2031 1.1855 2.6691 0.52343 4.9802 1.3017 9.5645 3.2227 3.3249 1.3932 6.7073 2.9724 7.5156 3.5078 1.9378 1.2835 2.0738 0.6783 0.2793-1.2402-1.6953-1.8124-5.0391-7.3745-5.0391-8.3809 0-0.47753-0.063007-0.62658-0.48633-0.58398zm33.74 0.94727c-0.22379-0.15556-2.0392 2.3341-3.0586 4.2383-0.78265 1.462 0.024251 0.69445 1.6152-1.5352 0.80633-1.13 1.4655-2.3163 1.4648-2.6367-6.1e-5 -0.034853-0.006565-0.056035-0.021484-0.066406zm-34.975 0.44531c0.68569-0.030358 0.94855 0.37548 2.4746 3.0137 0.99291 1.7165 1.8047 3.2178 1.8047 3.334 0 0.35896-0.33588 0.23802-5.2793-1.8945-2.6399-1.1388-5.7043-2.3015-6.8105-2.584-1.1063-0.28247-1.9534-0.57234-1.8828-0.64258 0.070591-0.070617 1.9824-0.33585 4.25-0.58984s4.5702-0.52562 5.1172-0.60352c0.1201-0.016968 0.22822-0.028867 0.32617-0.033203zm-27.455 0.91016c-0.29894 0.009784-0.4899 0.035091-0.54102 0.078125-0.064949 0.054782 0.08187 0.30064 0.32617 0.54492 0.31297 0.31299 1.7184 0.50085 4.7578 0.63672 3.3401 0.14928 5.6124 0.48053 10.072 1.4707 4.9452 1.0979 6.5972 1.6355 11.68 3.8008 6.4706 2.7567 9.9671 4.8324 14.959 8.877 1.7377 1.4079 3.8687 3.0475 4.7344 3.6445 1.4755 1.0176 1.5287 1.1021 0.85938 1.3496-0.75073 0.27774-0.89252 0.78733-0.42383 1.5273 0.36331 0.57375 1.9492 0.20817 1.9492-0.44922 0-0.74384 0.42054-0.58394 2.9785 1.127 1.3156 0.87997 2.5169 1.6055 2.668 1.6055 0.15103 0.00332 0.92094 0.42611 1.7129 0.93945 0.79195 0.51334 1.6452 0.94231 1.8945 0.95508 0.59451 0.026944 0.73678 0.13745-3.4941-2.7129-2.0239-1.3634-4.255-2.8982-4.959-3.4102-0.70396-0.51194-2.277-1.5734-3.4961-2.3594-1.2191-0.78598-3.4741-2.4986-5.0098-3.8047-3.4955-2.9731-6.9383-4.9367-14.059-8.0234-3.8377-1.6636-6.6989-2.6764-9.1133-3.2246-1.9359-0.43954-4.6722-1.0969-6.0801-1.4609-1.929-0.49868-9.3234-1.1798-11.416-1.1113zm54.494 9.543c-0.15317 0.016469-0.30195 0.079284-0.42383 0.20117-0.18753 0.18746-0.25145 0.57638-0.14062 0.86523 0.25617 0.6676 1.282 0.49047 1.4238-0.24609 0.095513-0.49611-0.39987-0.86972-0.85938-0.82031zm-8.3594 13.801c0-0.11186-0.57729 0.42098-1.2812 1.1836-0.70396 0.76248-1.2793 1.4508-1.2793 1.5312 0 0.080322 0.20235-0.021736 0.44922-0.22656 0.3429-0.28464 0.47903-0.2797 0.57812 0.017578 0.11386 0.34159 1.5332-1.9781 1.5332-2.5059z" fill="#1a1a1a" stroke-width=".31998"/>
<path d="m43.846 1045.1c-0.32392-0.2094-0.3173-0.2435 0.04785-0.2468 0.23305 0 0.49341 0.1089 0.57859 0.2468 0.196 0.3171-0.13572 0.3171-0.62644 0zm-3.7518-2.3291c-0.6164-0.4417-1.6467-1.1414-2.2895-1.5549-2.806-1.8047-5.7216-3.9282-7.114-5.1813-0.8269-0.7442-2.0955-1.727-2.819-2.1839-0.72354-0.457-1.3155-0.8773-1.3155-0.9342 0-0.341 2.6676 1.4212 4.2598 2.814 1.6983 1.4856 3.1651 2.5349 8.9581 6.4083 0.99918 0.6681 1.8167 1.2693 1.8167 1.3361 0 0.264-0.4245 0.064-1.4966-0.7041zm4.7541-4.978c-1.7227-1.2327-3.4705-2.4219-3.884-2.6425s-0.86449-0.5391-1.0023-0.7076c-0.13782-0.1686-0.82413-0.6869-1.5251-1.1517-1.5301-1.0148-4.5018-3.6721-4.3151-3.8588 0.26219-0.2622 1.4456 0.3662 1.3177 0.6997-0.07034 0.1833 0.12915 0.573 0.4433 0.8661 0.95537 0.8912 4.0497 3.0765 4.3564 3.0765 0.15835 0 0.4333 0.1751 0.61099 0.3893 0.1777 0.2141 1.7983 1.4159 3.6014 2.6707 3.6346 2.5293 3.7927 2.6509 3.6375 2.7973-0.05972 0.056-1.5181-0.9063-3.2408-2.139zm-19.398-7.0729c-0.6566-0.4668-1.063-0.8924-0.90323-0.9456 0.26016-0.087-2.7395-5.5307-3.2065-5.8193-0.09671-0.06-1.4154 0.054-2.9303 0.253-1.515 0.1989-3.2055 0.3296-3.7568 0.2904-0.6237-0.044 0.27551-0.2361 2.3805-0.5078 1.8605-0.2401 3.6929-0.5069 4.0719-0.593 0.51619-0.1171 0.68909-0.062 0.68909 0.2214 0 0.6593 2.7065 5.0207 3.8816 6.2549 0.95466 1.0028 1.3829 1.6948 1.0488 1.6948-0.04465 0-0.6184-0.382-1.275-0.8488zm6.5545-3.604c-1.1567-0.7497-1.7371-1.3928-2.9337-3.2504l-1.4918-2.3157 0.67851-0.1702c0.37318-0.094 1.5023-0.5457 2.5091-1.0045 1.1161-0.5086 2.1919-0.8234 2.7564-0.8067l0.92578 0.028-1.0023 0.2022c-1.3608 0.2746-4.8863 1.9794-4.8863 2.3629 0 0.4464 1.9546 3.4384 2.592 3.9677 0.2971 0.2467 1.104 0.7813 1.7931 1.1879s1.0837 0.7381 0.87702 0.7367c-0.20673 0-1.0247-0.4233-1.8178-0.9374zm-24.79-1.2311c0.18089-0.072 0.39701-0.063 0.48027 0.02 0.083265 0.083-0.064733 0.1425-0.32888 0.1316-0.29191-0.012-0.35128-0.071-0.15139-0.1514zm-3.9623-0.3596c-0.68197-0.1205-0.54264-0.1557 0.62644-0.1583 0.82691 0 1.8417 0.086 2.2552 0.1958 0.59806 0.1585 0.47 0.1909-0.62644 0.1583-0.758-0.023-1.7728-0.1106-2.2552-0.1958zm-4.2526-0.2112c-0.49999-0.3162-0.23694-0.5241 0.43938-0.3472 0.30252 0.079 0.48827 0.2438 0.41278 0.3659-0.17329 0.2804-0.38662 0.2757-0.85216-0.019zm10.653-0.243c-0.22874-0.3701 0.12977-0.4647 1.8468-0.4871 1.4539-0.019 1.5613 0.013 1.1276 0.3417-0.53233 0.4028-2.7483 0.5112-2.9744 0.1454zm30.955-2.9198c0.01203-0.292 0.0714-0.3514 0.15139-0.1514 0.07238 0.1808 0.06348 0.397-0.01977 0.4802-0.08327 0.083-0.14249-0.065-0.13161-0.3288zm-2.1483-0.6041c-0.25021-0.2765-0.3385-0.5027-0.1962-0.5027 0.31529 0 0.94027 0.7163 0.7719 0.8846-0.06642 0.067-0.32549-0.1054-0.5757-0.3819zm-33.976-1.5242c0.46355-0.3859 0.65081-0.4294 0.80115-0.1862 0.23137 0.3744-0.19399 0.7008-0.90495 0.6944-0.4674 0-0.46041-0.038 0.1038-0.5082zm3.7802 0.2036c0.34454-0.1556 0.66377-0.3074 0.70939-0.3375 0.04562-0.03-0.050364-0.3036-0.2133-0.6081-0.2614-0.4884-0.1901-0.4688 0.60613 0.1665 0.49631 0.396 0.90238 0.8046 0.90239 0.9079 4e-6 0.1034-0.59198 0.1803-1.3155 0.171-1.1862-0.015-1.254-0.045-0.68909-0.2998zm-9.2714-0.1844c0.20673-0.1336 0.83827-0.2446 1.4034-0.2467 1.3789-0.01 2.5824-0.4352 3.4362-1.2278 0.46521-0.4318 0.64987-0.5106 0.54276-0.2315-0.23447 0.611-1.2717 1.223-2.7319 1.6118-1.525 0.4061-3.2267 0.4666-2.6505 0.094zm12.456-0.078c-0.09124-0.2377 0.07459-0.2991 0.59964-0.2221 0.39916 0.059 0.72575 0.2065 0.72575 0.3287 0 0.3527-1.1857 0.2574-1.3254-0.1066zm2.1445-0.096c0.2438-0.064 0.58208-0.059 0.75173 0.01s-0.02983 0.1207-0.44328 0.1156c-0.41345-0.01-0.55226-0.061-0.30845-0.1248zm1.6866-0.173c0-0.2127 1.2742-0.3228 1.3989-0.1209 0.07375 0.1193-0.21084 0.2169-0.63242 0.2169-0.42159 0-0.76652-0.043-0.76652-0.096zm2.6937-0.4349c0.63304-0.1828 0.81438-0.3717 0.81438-0.8487 0-0.9923-1.2201-3.9448-1.9538-4.728-0.60998-0.6511-0.62122-0.6939-0.11311-0.4309 0.67318 0.3485 1.6787 2.244 2.0897 3.9394 0.16279 0.6715 0.39342 1.3281 0.5125 1.459 0.53601 0.5893 0.19918 0.8892-0.97373 0.867-1.1646-0.022-1.1727-0.028-0.37587-0.2578zm17.235-0.7091c-0.06772-0.1096 0.41021-0.3955 1.0621-0.6353 0.65185-0.2399 1.9745-0.8952 2.9392-1.4564 1.908-1.1097 8.9126-6.0822 9.1951-6.5274 0.09587-0.1511 0.23637-0.2127 0.31223-0.1368 0.07586 0.076-0.11534 0.3709-0.42488 0.6557-1.1489 1.057-8.1292 5.9078-9.5027 6.6037-1.5004 0.7601-1.9434 1.1843-1.5139 1.4498 0.14298 0.088-0.23593 0.1798-0.84202 0.2033-0.6061 0.024-1.1574-0.047-1.2251-0.1566zm-25.54-1.8951c-0.15163-1.48 0.1395-2.9207 0.51443-2.5458 0.06891 0.069 0.01196 0.3371-0.12655 0.5959-0.13955 0.2607-0.18895 1.1641-0.11079 2.026 0.077578 0.8556 0.08458 1.5556 0.015561 1.5556-0.069018 0-0.20071-0.7343-0.29265-1.6317zm16.134 0.9315c-5.01e-4 -0.2351-0.28248-0.9821-0.62644-1.6601-0.34396-0.678-0.61388-1.5801-0.59981-2.0047l0.02558-0.7719 0.2546 0.8771c0.44288 1.5255 1.1958 3.0219 1.5983 3.1763 0.6225 0.2389 4.9087-2.0277 5.4808-2.8984 0.6444-0.9806 0.81874-0.7971 0.21952 0.2311-0.45764 0.7853-3.1369 2.3438-5.4047 3.1439-0.85583 0.302-0.94694 0.293-0.94789-0.093zm-18.187-2.4388c0.32586-1.2983 1.7106-3.1107 3.4319-4.4917 0.97632-0.7833 1.83-1.3693 1.8971-1.3022 0.06711 0.067-0.12001 0.2516-0.41583 0.4099-0.29581 0.1583-0.49481 0.4169-0.44222 0.5747 0.0526 0.1578-0.45629 0.7232-1.1308 1.2564-1.288 1.0181-2.693 2.9662-2.693 3.734 0 0.2487-0.18136 0.4521-0.40303 0.4521-0.30592 0-0.36474-0.1526-0.24411-0.6332zm25.955-1.0729c0-0.1115 0.15193-0.4105 0.33762-0.6645 0.23175-0.3169 0.39305-0.372 0.5144-0.1756 0.30496 0.4934 2.4782-0.8041 8.2941-4.9518 6.3735-4.5454 6.1391-4.3913 6.1391-4.0372 0 0.1494-0.25371 0.3801-0.5638 0.5128-0.31009 0.1326-1.2404 0.7447-2.0673 1.3601-0.82691 0.6155-2.0673 1.515-2.7564 1.9989-0.68909 0.4839-2.2113 1.5812-3.3828 2.4385-1.977 1.4467-5.8326 3.7214-6.3079 3.7214-0.11392 0-0.20713-0.091-0.20713-0.2026zm-16.89-2.2768c-0.32892-0.3634-0.35323-0.5007-0.10339-0.584 0.26009-0.087 0.2278-0.5058-0.15851-2.0571-0.26683-1.0715-0.63244-2.0047-0.81247-2.0738-0.3841-0.1474-0.44258-1.4747-0.07498-1.7019 0.13879-0.086 0.29041-0.01 0.33692 0.1732 0.04652 0.181 0.37879 1.5131 0.73838 2.9602 0.35959 1.447 0.72855 2.8847 0.8199 3.1948 0.2027 0.6881-0.16394 0.7317-0.74586 0.089zm7.6191 0.2098c0-0.1459 0.11276-0.1956 0.25058-0.1105 0.13782 0.085 0.25058 0.2046 0.25058 0.2654 0 0.061-0.11276 0.1105-0.25058 0.1105-0.13782 0-0.25058-0.1194-0.25058-0.2654zm0.29014-0.9875c0-0.3445 0.05688-0.4855 0.12639-0.3132 0.06951 0.1723 0.06951 0.4542 0 0.6264-0.06951 0.1723-0.12639 0.031-0.12639-0.3132zm-15.826-0.2237c0-0.1231 0.18509-0.2948 0.41131-0.3816 0.34391-0.132 0.35941-0.095 0.094607 0.2237-0.36086 0.4348-0.50592 0.4801-0.50592 0.1579zm14.441-0.7856c-0.06558-0.2029-0.18469-0.7635-0.26468-1.2459-0.13004-0.7842-3.1054-11.91-3.5181-13.155-0.10245-0.30913-0.03094-0.26113 0.18664 0.12529 0.19401 0.34455 1.063 3.2763 1.9312 6.515s1.7314 6.0138 1.9184 6.1668c0.39164 0.3205 0.4375 1.0589 0.099 1.5941-0.20537 0.3247-0.24752 0.3247-0.3525 0zm1.8145-0.6821c0.13001-0.2412 0.54838-0.7204 0.92971-1.0649 0.60859-0.5499 0.59096-0.4963-0.14422 0.4385-0.88185 1.1213-1.1807 1.3596-0.7855 0.6264zm-14.502-0.017c0-0.3029 0.4754-0.6559 0.64917-0.4822 0.06307 0.063-0.05719 0.2573-0.26725 0.4317-0.23814 0.1976-0.38192 0.2166-0.38192 0.05zm3.7637-1.4297c0.17433-0.2101 0.36857-0.3304 0.43164-0.2673 0.17378 0.1738-0.1793 0.6492-0.48214 0.6492-0.16616 0-0.14715-0.1438 0.05049-0.3819zm16.501-0.035c-0.31184-0.378-0.29134-0.3889 0.2199-0.1165 0.58308 0.3107 0.72666 0.5334 0.3439 0.5334-0.12094 0-0.37465-0.1876-0.5638-0.4169zm-18.26-0.308c0-0.1231 0.18509-0.2948 0.41131-0.3816 0.34391-0.132 0.35941-0.095 0.09461 0.2237-0.36086 0.4348-0.50592 0.4801-0.50592 0.1579zm12.413-0.3817c0.21817-0.3329 0.58705-0.6784 0.81973-0.7677 0.24823-0.095 0.1191 0.1549-0.31249 0.6054-0.88608 0.9249-1.0389 0.9738-0.50724 0.1623zm7.7586 0.3549c-0.08518-0.1379-0.03545-0.2506 0.1105-0.2506 0.14595 0 0.26537 0.1127 0.26537 0.2506 0 0.1378-0.04972 0.2505-0.1105 0.2505-0.06077 0-0.18019-0.1127-0.26537-0.2505zm-18.127-4.7782c-0.02206-0.4918-0.21598-1.4864-0.43094-2.2103-0.21496-0.72381-0.34726-1.4468-0.29401-1.6066 0.18175-0.54524 0.97672 2.956 0.87072 3.835l-0.10567 0.8761zm-1.0513-4.3888c-0.0049-0.12634-0.16388-0.87807-0.35326-1.6705-0.18939-0.79245-0.26755-1.4408-0.1737-1.4408 0.20031 0 0.81597 3.061 0.6492 3.2277-0.06232 0.0623-0.11733 0.01-0.12224-0.11638z" fill="#1a1a1a" stroke-width=".25058"/>
</g>
</g>
</g>
</svg>
