<?xml version="1.0" encoding="UTF-8" standalone="no"?>
<!-- Created with Inkscape (http://www.inkscape.org/) -->

<svg
   xmlns:dc="http://purl.org/dc/elements/1.1/"
   xmlns:cc="http://creativecommons.org/ns#"
   xmlns:rdf="http://www.w3.org/1999/02/22-rdf-syntax-ns#"
   xmlns:svg="http://www.w3.org/2000/svg"
   xmlns="http://www.w3.org/2000/svg"
   xmlns:sodipodi="http://sodipodi.sourceforge.net/DTD/sodipodi-0.dtd"
   xmlns:inkscape="http://www.inkscape.org/namespaces/inkscape"
   width="64"
   height="64"
   id="svg1901"
   sodipodi:version="0.32"
   inkscape:version="0.92.4 5da689c313, 2019-01-14"
   sodipodi:docname="map-terrain.svg"
   version="1.1"
   inkscape:export-xdpi="168"
   inkscape:export-ydpi="168"
   inkscape:export-filename="/home/mo/Dokumente/Pure Maps/map-views/map-terrain.png">
  <defs
     id="defs1903" />
  <sodipodi:namedview
     id="base"
     pagecolor="#b0b0b0"
     bordercolor="#666666"
     borderopacity="1.0"
     inkscape:pageopacity="0"
     inkscape:pageshadow="2"
     inkscape:zoom="10.297866"
     inkscape:cx="36.405358"
     inkscape:cy="37.652442"
     inkscape:document-units="px"
     inkscape:current-layer="g1004"
     inkscape:window-width="2880"
     inkscape:window-height="1506"
     inkscape:window-x="0"
     inkscape:window-y="0"
     showgrid="true"
     inkscape:window-maximized="1"
     inkscape:showpageshadow="false"
     showguides="true"
     inkscape:snap-grids="true"
     inkscape:snap-global="true"
     inkscape:snap-intersection-paths="true"
     inkscape:object-nodes="true"
     inkscape:snap-smooth-nodes="true"
     inkscape:snap-midpoints="true"
     inkscape:object-paths="true"
     inkscape:document-rotation="0"
     inkscape:guide-bbox="true">
    <inkscape:grid
       type="xygrid"
       id="grid10137"
       empspacing="16"
       visible="true"
       enabled="true"
       snapvisiblegridlinesonly="true" />
    <sodipodi:guide
       position="10,35"
       orientation="1,0"
       id="guide866"
       inkscape:locked="false" />
    <sodipodi:guide
       position="5,38"
       orientation="1,0"
       id="guide868"
       inkscape:locked="false" />
    <sodipodi:guide
       position="3,10"
       orientation="0,1"
       id="guide891"
       inkscape:locked="false" />
  </sodipodi:namedview>
  <metadata
     id="metadata1906">
    <rdf:RDF>
      <cc:Work
         rdf:about="">
        <dc:format>image/svg+xml</dc:format>
        <dc:type
           rdf:resource="http://purl.org/dc/dcmitype/StillImage" />
        <dc:title></dc:title>
      </cc:Work>
    </rdf:RDF>
  </metadata>
  <g
     inkscape:label="Taso 1"
     inkscape:groupmode="layer"
     id="layer1"
     transform="translate(0,-988.3622)">
    <g
       id="g825"
       transform="translate(-0.8572132,0.17178455)">
      <g
         id="g1004">
        <g
           id="g1305"
           transform="matrix(0.09815814,0,0,0.09815814,30.803894,922.13515)">
          <path
             style="fill:#fafafa"
             d="m -305.08606,998.94745 v -326 h 326 326 v 326 326.00005 h -326 -326 z"
             id="path1325"
             inkscape:connector-curvature="0" />
          <path
             style="fill:#e4e2dd"
             d="m -272.35494,1323.6975 c 0.53681,-0.6875 25.14697,-33.0875 54.68924,-72 29.54228,-38.9125 54.38286,-70.75 55.2013,-70.75 2.82896,0 13.42625,8.1156 16.0615,12.3003 1.4546,2.3098 3.35845,4.7604 4.23078,5.4457 1.87703,1.4747 19.00266,11.856 126.58606,76.7348 44.55,26.8662 81.1875,48.9987 81.41667,49.1834 0.22916,0.1846 -75.98844,0.3358 -169.37245,0.3358 -135.68516,0 -169.59307,-0.2511 -168.8131,-1.25 z m 437.84725,-4.0628 c -17.19407,-4.7136 -18.99633,-5.4155 -19.73981,-7.6872 -0.69728,-2.1306 -22.62722,-121.9443 -24.16044,-132 -0.29351,-1.925 -5.09639,-28.451 -10.67307,-58.9467 l -10.13941,-55.4466 0.0922,-20.1054 0.0922,-20.1055 9.37126,-32.94791 9.37127,-32.94794 1.20699,-21.5 1.20699,-21.5 -6.70228,-19.5 c -7.12768,-20.73765 -8.58663,-24.25317 -9.24519,-22.27747 -0.22316,0.66946 2.74834,10.79326 6.60332,22.49734 l 7.00905,21.28013 -1.32311,20.5 -1.32312,20.5 -9.61265,33.63499 -9.61265,33.63496 v 18.2902 18.2901 l 17.03709,94.5749 c 9.3704,52.0162 19.2704,106.8013 22,121.7449 2.7296,14.9434 4.96291,28.3309 4.96291,29.75 0,3.3119 -1.40625,3.2288 -7.22797,-0.4272 -3.20672,-2.0138 -4.9228,-3.8577 -5.33352,-5.731 -1.1946,-5.4484 -1.56902,-5.9359 -2.69709,-3.5118 -0.57587,1.2374 -1.67663,2.25 -2.44612,2.25 -2.09104,0 -9.27874,-4.3345 -9.2876,-5.6008 -0.004,-0.6054 0.40544,-2.4055 0.91039,-4 0.50495,-1.5946 2.1196,-8.5444 3.58811,-15.4441 l 2.6701,-12.5449 -18.08811,-100.0332 -18.08811,-100.0332 v -19.5839 -19.5839 l 9.64561,-33.33804 9.64562,-33.33801 1.13359,-19.5 1.13359,-19.5 -5.23049,-15.90129 c -4.90657,-14.91651 -6.58518,-18.67478 -7.7989,-17.46106 -0.27737,0.27737 1.99195,7.89737 5.04294,16.93333 l 5.54725,16.42902 -1.08209,18.88177 c -1.17316,20.47079 -0.95205,19.50438 -16.49588,72.10088 l -3.54124,11.9827 v 22.6383 22.6382 l 9.463,52.3791 c 5.20466,28.8085 10.17146,57.1041 11.03734,62.8791 0.86588,5.775 4.45047,26.2834 7.96574,45.5743 l 6.39141,35.0743 -2.77666,13.8008 c -3.10788,15.4471 -3.94584,16.7019 -9.30853,13.9392 -1.79977,-0.9272 -25.31158,-14.5278 -52.24847,-30.2237 -43.32748,-25.2465 -49.55708,-28.5861 -54.01288,-28.9556 -4.54804,-0.3772 -11.53579,-4.3178 -72.01991,-40.6143 -36.84076,-22.1081 -67.11465,-40.8791 -67.27533,-41.7135 -0.35658,-1.8516 43.9412,-60.826 55.19358,-73.4802 4.44989,-5.0042 16.7037,-18.7292 27.23068,-30.5 10.52699,-11.7707 41.90894,-46.96069 69.73767,-78.19988 79.54481,-89.29318 81.61393,-91.60238 91.12236,-101.69559 16.88727,-17.92586 29.49271,-32.02275 31.74776,-35.50411 1.23873,-1.91236 2.98096,-3.48258 3.87161,-3.48939 0.89066,-0.007 3.81566,1.71987 6.5,3.83708 4.07263,3.21216 9.82439,5.53726 34.74281,14.04448 l 29.86219,10.19503 21.63781,-3.15868 21.63782,-3.15869 20.5429,-12.75268 c 11.2986,-7.01398 21.50482,-13.05799 22.6805,-13.43113 1.25134,-0.39716 2.36492,-1.79982 2.68587,-3.38312 0.30155,-1.48757 1.71471,-9.15547 3.14037,-17.03978 l 2.59209,-14.33512 -7.48566,-13.66488 c -4.11712,-7.51569 -8.99746,-16.36489 -10.84522,-19.66489 l -3.35955,-6 -13.97565,-4.82117 -13.97565,-4.82116 -14.36073,3.16043 c -8.97719,1.97565 -14.71362,2.80755 -15.30207,2.2191 -0.58845,-0.58845 1.23374,-2.93179 4.86073,-6.25092 7.88401,-7.2148 10.52669,-8.66608 18.31467,-10.05787 l 6.68624,-1.19489 17.01039,5.66957 c 11.03955,3.67948 17.71863,6.4466 19.02807,7.88324 4.02608,4.41719 25.26372,44.18913 25.22831,47.24531 -0.0189,1.6326 -1.31583,9.71836 -2.88204,17.96836 -1.5662,8.25 -2.70677,15.15646 -2.53459,15.34768 0.93158,1.03465 7.7614,-5.98547 9.58073,-9.84768 7.64918,-16.23829 19.73754,-44.30597 20.88827,-48.5 3.27078,-11.92087 3.96927,-11.04169 3.97586,5.00433 0.007,17.02131 -0.18036,17.74666 -10.45969,40.49567 -4.67167,10.33881 -6.66383,13.53737 -11.52235,18.5 -5.03208,5.1399 -5.79447,6.4002 -5.3184,8.79181 0.30566,1.5355 1.04413,2.62901 1.64105,2.43004 0.59692,-0.19897 6.05336,-8.51915 12.12543,-18.48927 6.07207,-9.97013 11.60262,-18.36202 12.29012,-18.64866 1.67485,-0.69828 1.72712,16.19841 0.0622,20.11903 -0.65327,1.53838 -5.26577,9.45996 -10.25,17.60351 l -9.06224,14.80645 -26,18.76366 c -14.3,10.32001 -26.58462,19.10984 -27.29916,19.53294 -0.71454,0.42311 -17.81454,2.71242 -38,5.08736 l -36.70084,4.31807 -26.909,-9.93958 -26.909,-9.93957 -12.41786,-9.02877 c -13.77105,-10.01268 -15.2641,-10.85021 -15.2641,-8.56246 0,0.8572 3.0375,3.56761 6.75,6.02313 3.7125,2.45552 9.9,6.64737 13.75,9.31523 5.54781,3.84435 12.49758,6.89842 33.5,14.72154 l 26.5,9.8709 37,-4.23345 c 20.35,-2.3284 38.17129,-4.79783 39.60286,-5.48763 2.7547,-1.32735 43.46467,-30.46923 50.59352,-36.21693 2.58267,-2.08231 6.98608,-7.89297 11.45086,-15.11036 3.98997,-6.44985 8.0641,-12.80018 9.05362,-14.11185 1.73375,-2.29818 1.79914,6.68811 1.79914,247.25001 v 249.6349 l -81.25,-0.063 -81.25,-0.063 -18.92163,-5.1873 z m -470.57837,-134.1872 c 0,-48.125 0.25653,-87.5 0.57006,-87.5 1.04262,0 89.90406,50.1805 91.41299,51.6213 1.03736,0.9906 1.18762,1.8504 0.5,2.8612 -2.83768,4.171 -91.72249,120.5175 -92.07137,120.5175 -0.22642,0 -0.41168,-39.375 -0.41168,-87.5 z m 58,-101.2831 c -54.78452,-34.983 -57.51453,-36.8668 -57.80761,-39.8898 -0.25198,-2.5992 0.0816,-3.2321 1.84479,-3.5 1.64569,-0.2502 7.54489,-9.2729 25.05865,-38.3272 12.59844,-20.89995 23.54936,-38.42782 24.33537,-38.95078 1.05096,-0.69923 4.42434,1.06312 12.74895,6.66045 6.22592,4.1862 22.56985,15.19984 36.31985,24.47475 13.75,9.27488 34.63229,23.35318 46.40508,31.28508 l 21.40508,14.4216 2.84492,-3.4077 c 1.56471,-1.8743 2.84492,-3.7409 2.84492,-4.1481 0,-0.4072 -17.1301,-12.2783 -38.06688,-26.3803 -20.93679,-14.10198 -38.31318,-26.2818 -38.61421,-27.06628 -0.32723,-0.85272 16.94514,-25.85845 42.95,-62.18002 44.85561,-62.65087 48.09131,-67.81736 45.48645,-72.62895 -0.69045,-1.27537 -7.22428,-7.36012 -14.51963,-13.52167 -8.18016,-6.90886 -13.00406,-11.6542 -12.58539,-12.38043 0.37338,-0.64768 13.47542,-17.2151 29.11564,-36.8165 l 28.43677,-35.63889 24.14007,-17.76787 c 13.27704,-9.77232 24.87328,-17.9596 25.76943,-18.19394 1.11533,-0.29167 3.38123,1.97279 7.18252,7.17795 4.88638,6.691 6.28479,9.79908 11.64626,25.88472 l 6.09309,18.28068 0.59488,37.94813 0.59487,37.94812 -8.64121,25 c -9.2904,26.87818 -7.70516,23.62361 -39.38634,80.86214 -10.93238,19.75157 -14.58685,25.02127 -68.64945,98.99161 -31.4063,42.9713 -57.76488,78.2309 -58.57462,78.3549 -0.80974,0.1239 -27.34725,-16.2973 -58.97225,-36.4917 z m -57.94119,-230.264 -0.0588,-173.54705 3.79216,-3.70295 3.79217,-3.70295 h 117.11281 117.11282 l 2.7614,4.75 c 1.51878,2.6125 5.42141,8.7221 8.67251,13.57688 3.25111,4.85478 5.68436,9.41778 5.40722,10.13999 -0.27714,0.7222 -11.42084,9.34301 -24.76378,19.15734 l -24.25988,17.84423 -31.81372,39.78001 c -22.27152,27.84842 -31.81371,40.51491 -31.81371,42.23016 0,1.91653 3.10354,5.09925 14.25,14.61354 7.8375,6.68987 14.39614,13.02379 14.57476,14.07539 0.21013,1.2371 -14.74255,22.98828 -42.36172,61.62222 -23.47756,32.84063 -43.29613,60.3541 -44.04126,61.14103 -1.16311,1.22835 -3.83483,-0.22186 -18.88359,-10.25 -16.87436,-11.24469 -19.58933,-12.57066 -22.26199,-10.87265 -0.67309,0.42763 -11.12181,17.18324 -23.21939,37.23468 -12.09757,20.05143 -22.4329,37.13223 -22.96739,37.95723 -0.63122,0.9743 -0.99242,-59.32196 -1.03061,-172.0471 z m 269.40122,116.54705 c 2.1705,-3.54853 85.35462,-117.60612 93.71722,-128.5 3.16652,-4.125 14.11197,-18.39159 24.32322,-31.70353 10.21125,-13.31194 19.67597,-25.0767 21.03272,-26.14392 1.35675,-1.06721 2.46681,-2.43499 2.46681,-3.0395 0,-0.60452 3.4875,-5.08111 7.75,-9.948 4.2625,-4.86688 24.85,-28.93444 45.75,-53.48345 l 38,-44.63457 48,0.0554 48,0.0554 -29.5,9.933 -29.5,9.933 -38.5,33.00039 c -23.40272,20.0597 -42.02923,36.87134 -47.5,42.87181 -4.95,5.42929 -12.79505,14.08624 -17.43343,19.23767 -4.63839,5.15143 -8.98286,9.70202 -9.65438,10.11241 -0.78003,0.47672 -3.10413,-1.42762 -6.43583,-5.27346 -4.1623,-4.8046 -5.49359,-5.78834 -6.59563,-4.87373 -2.32051,1.92586 -1.54059,4.14772 3.64466,10.38297 2.73604,3.29007 4.96772,6.21507 4.9593,6.5 -0.0281,0.95133 -1.4643,2.61946 -3.50925,4.07601 -1.11351,0.79312 -8.06088,7.96704 -15.4386,15.94204 -7.37772,7.975 -17.94594,19.225 -23.48494,25 -5.539,5.775 -31.28777,34.35 -57.2195,63.5 -25.93172,29.15 -48.8493,54.575 -50.92796,56.5 l -3.77939,3.5 z M 70.7475,843.59123 c 0.1947,-1.02092 -0.11913,-2.32935 -0.6974,-2.90762 -1.41414,-1.41414 -4.13616,0.86015 -4.13616,3.45584 0,2.57724 4.3312,2.08601 4.83356,-0.54822 z m 59.11391,-64.08786 c 2.58108,-2.74744 2.35862,-7.2462 -0.5647,-11.41983 l -1.60748,-2.29499 -2.88764,2.76654 c -3.32829,3.1887 -3.54311,4.94999 -1.20244,9.85843 1.99079,4.17472 3.17118,4.38015 6.26226,1.08985 z M -51.05686,933.37176 c 0.0335,-1.05976 5.12614,-10.76294 16.36106,-31.17312 6.5089,-11.82452 9.28666,-18.45997 16.32637,-39 l 8.48301,-24.75119 -0.44639,-38.53923 -0.44638,-38.53922 -7.79543,-23.46078 -7.79542,-23.46077 -10.18207,-13.5 c -10.74267,-14.24326 -17.86732,-24.66686 -18.28395,-26.75 -0.19612,-0.98058 7.14847,-1.25 34.07569,-1.25 h 34.32568 l 2.02861,2.25 c 1.11574,1.2375 9.31063,12.87979 18.21087,25.87176 9.62807,14.05441 22.04028,30.55945 30.6457,40.75088 7.9549,9.42101 14.46345,17.80372 14.46345,18.62824 0,0.82451 -0.7875,2.28999 -1.75,3.25661 -0.9625,0.96662 -8.5,10.44091 -16.75,21.05398 -8.25,10.61307 -18.04538,23.2097 -21.76751,27.99251 -3.72212,4.78281 -14.19613,18.88797 -23.27557,31.3448 -15.76779,21.63313 -19.45692,26.21817 -19.45692,24.18202 0,-0.50274 2.06529,-6.97034 4.58953,-14.37244 L 5.093,840.44745 4.52981,803.74019 C 4.2119,783.01973 4.34947,766.79631 4.84567,766.48964 c 0.48348,-0.2988 7.33413,7.98579 15.22366,18.41021 8.14351,10.75998 15.05488,18.97383 15.98762,19.00054 1.87116,0.0536 3.20022,-2.55786 2.18495,-4.29318 -1.79916,-3.07518 -40.64987,-53.67118 -40.96786,-53.3532 -0.2009,0.20091 0.57562,3.02662 1.72562,6.27936 1.95314,5.52444 2.1247,8.6153 2.60401,46.91408 l 0.51312,41 -7.87773,22.5 -7.87773,22.5 -16.12798,22 c -14.95805,20.4041 -21.36216,28.20216 -21.29021,25.92431 z m 232.59203,-94.35258 c -21.53664,-7.48135 -28.75943,-10.42383 -31.75,-12.93456 -2.12917,-1.78756 -3.87123,-3.66597 -3.87123,-4.17426 0,-0.50828 7.44409,-9.21417 16.54242,-19.34642 12.55214,-13.97853 21.20675,-22.41764 35.87922,-34.98578 10.63523,-9.10994 20.40364,-17.01009 21.70757,-17.55591 1.30394,-0.54581 9.88899,-2.62963 19.0779,-4.63071 l 16.7071,-3.63832 12.2929,4.1131 c 6.76109,2.2622 12.8006,4.44341 13.42113,4.84711 0.62054,0.40371 5.72818,8.98993 11.35031,19.08049 l 10.22207,18.34648 -2.14798,12.15352 c -2.84008,16.06953 -2.52791,15.35393 -7.88143,18.06677 -2.57451,1.3046 -12.72064,7.40885 -22.54695,13.565 l -17.86603,11.19299 -19.49664,2.91439 c -10.72316,1.60291 -20.45626,2.85953 -21.62912,2.79248 -1.17286,-0.067 -14.67791,-4.47991 -30.01124,-9.80637 z m 135.74569,-30.70324 c 2.55107,-12.66299 3.7322,-21.12288 3.27102,-23.4288 -0.79545,-3.97722 -23.25554,-43.97346 -26.4357,-47.07586 -3.08666,-3.0112 -34.40819,-13.86383 -40.01207,-13.86383 -1.86374,0 -3.0486,-0.42004 -2.71365,-0.96201 0.47968,-0.77614 93.17906,-32.03799 95.00083,-32.03799 0.28746,0 0.52265,10.32117 0.52265,22.93594 v 22.93594 l -4.00211,14.89383 c -3.04204,11.32096 -6.3589,20.13842 -13.82659,36.75626 -5.40347,12.02434 -10.39999,22.05426 -11.10338,22.28872 -0.92208,0.30736 -1.11765,-0.374 -0.701,-2.4422 z M 68.38135,737.19745 C 55.04127,721.13607 31.36504,688.16302 32.41695,687.1111 c 0.27768,-0.27768 1.5156,0.39668 2.75093,1.49859 34.06479,30.38536 53.39408,46.83776 55.0279,46.83776 1.10127,0 2.93735,-1.25237 4.08016,-2.78304 1.685,-2.25688 1.85833,-3.13451 0.91677,-4.64218 -1.43877,-2.30384 -0.736,-3.07478 2.80291,-3.07478 2.01882,0 3.84003,-1.24022 6.86105,-4.67228 2.26199,-2.56975 3.76273,-4.9572 3.33499,-5.30543 -0.42775,-0.34824 -6.40272,-0.32995 -13.27772,0.0407 -9.24409,0.49829 -13.02095,0.34928 -14.5,-0.57211 -1.1,-0.68525 -8.53791,-7.03851 -16.52869,-14.11837 C 55.89448,693.24011 45.65412,684.185 41.12891,680.1975 l -8.22766,-7.25 h 60.62846 60.62847 l -5.41293,6.25 c -8.96636,10.35294 -36.11514,41.95882 -39.84587,46.3875 -17.60648,20.90031 -24.27542,28.3625 -25.34748,28.3625 -0.69219,0 -7.51894,-7.5375 -15.17055,-16.75 z"
             id="path1323"
             inkscape:connector-curvature="0" />
          <path
             style="fill:#d6d9e4"
             d="m -272.08606,1324.0912 c 0,-0.5374 0.39449,-1.1271 0.87664,-1.3104 0.48215,-0.1833 24.80516,-31.8333 54.05114,-70.3333 29.24598,-38.5 53.80787,-70.142 54.58199,-70.3154 2.56974,-0.5758 13.12068,7.5091 15.82768,12.1282 1.41932,2.4219 3.81851,5.2146 5.33154,6.2059 6.72322,4.4052 198.30428,120.0208 202.33101,122.1029 l 4.5,2.3269 -116.75,0.026 c -92.97202,0.02 -116.75,-0.2298 -116.75,-1.2288 0,-0.69 15.5246,-21.2554 34.49912,-45.7009 18.97451,-24.4455 34.14122,-44.8042 33.70379,-45.2416 -0.43743,-0.4375 -11.12453,-7.04 -23.74912,-14.6723 -18.64491,-11.272 -23.54509,-14.6986 -26.10367,-18.2538 -4.49495,-6.2458 -9.41093,-11.0174 -10.99584,-10.6727 -0.74841,0.1627 -24.43045,30.6709 -52.62673,67.7959 -50.56354,66.5751 -51.3171,67.5042 -54.99677,67.8103 -2.05193,0.1707 -3.73078,-0.1293 -3.73078,-0.6666 z m 454.33513,-0.7003 c -2.29068,-0.8036 -11.03587,-3.2648 -19.43377,-5.4693 -8.39789,-2.2046 -15.45289,-4.1923 -15.67777,-4.4172 -0.22488,-0.2249 -0.58908,-1.9047 -0.80934,-3.7329 -0.22027,-1.8282 -5.59453,-31.6741 -11.94282,-66.3241 -6.34829,-34.6499 -11.32996,-63.8393 -11.07038,-64.8652 0.25959,-1.0259 0.0591,-2.6008 -0.44559,-3.5 -0.50467,-0.8991 -3.39714,-15.5848 -6.42773,-32.6348 -3.03059,-17.0499 -5.94757,-32.575 -6.48218,-34.5 -0.53462,-1.9249 -2.5642,-12.5 -4.51019,-23.5 -3.22619,-18.2364 -3.53805,-21.6764 -3.53676,-39.012 l 10e-4,-19.0121 9.47323,-33.12083 c 9.1908,-32.1334 9.50337,-33.56405 10.48453,-47.98792 1.87787,-27.60659 1.91097,-27.32112 -5.86482,-50.58899 -3.79888,-11.36758 -7.20085,-21.1437 -7.55993,-21.7247 -0.42643,-0.68998 -1.46161,-0.44889 -2.98463,0.69511 -1.28247,0.96331 -1.9135,2.01354 -1.4023,2.33384 0.5112,0.3203 4.08237,9.74461 7.93594,20.94292 l 7.00647,20.36056 -1.19602,20.55708 -1.19602,20.55708 -9.58672,33 -9.58671,32.99995 0.0496,21.5 0.0496,21.5 22.06511,121.0001 c 12.16567,66.7137 21.68753,121.4106 21.22351,121.9153 -0.49574,0.5392 -2.80789,-0.3001 -5.62626,-2.0422 -4.15772,-2.5701 -4.91568,-3.5644 -5.78465,-7.5884 -1.27399,-5.8996 -2.13489,-6.7236 -2.98429,-2.8563 -0.80153,3.6494 -2.63724,3.9045 -7.36296,1.0234 -2.85205,-1.7388 -3.24905,-2.432 -2.68345,-4.6856 0.36509,-1.4546 1.72642,-7.8471 3.02517,-14.2055 1.29875,-6.3584 2.63619,-12.2681 2.9721,-13.1327 0.3359,-0.8645 -7.50666,-46.4483 -17.42792,-101.2974 l -18.03818,-99.7254 v -20.8987 -20.8986 l 9.58629,-33.30369 9.58629,-33.30365 1.07918,-19.00305 1.07917,-19.00305 -5.74529,-17.23757 c -3.15991,-9.48067 -6.12858,-17.47446 -6.59704,-17.76399 -1.43786,-0.88864 -4.07486,3.69818 -2.92362,5.08535 0.55442,0.66803 3.2064,7.77674 5.89329,15.79714 l 4.88526,14.58254 -0.99911,17.77101 c -1.07897,19.19142 -1.86022,22.58022 -16.31554,70.77096 l -4.49941,15 -0.0147,21.1195 -0.0147,21.1195 10.43301,57.8805 c 5.73816,31.8343 10.38823,59.0056 10.3335,60.3806 -0.11411,2.8665 1.51805,29.8166 4.29541,70.9254 1.05625,15.634 1.72814,28.6178 1.49308,28.8529 -0.23506,0.235 0.74427,1.4352 2.17627,2.6669 3.08274,2.6517 2.56632,6.1273 -0.78037,5.2522 -1.11364,-0.2913 -24.88544,-13.8386 -52.82622,-30.1053 -45.39025,-26.4255 -51.4311,-29.6655 -56.71305,-30.4179 -5.40983,-0.7706 -11.51393,-4.2148 -71.91163,-40.5758 -46.56572,-28.0337 -65.97814,-40.229 -65.92576,-41.416 0.0408,-0.9254 10.89505,-15.9031 24.12047,-33.2838 22.59074,-29.6886 29.49267,-37.7087 114.02679,-132.50005 49.48931,-55.49423 100.19263,-111.90414 112.67406,-125.35536 12.48143,-13.45122 23.23939,-25.59572 23.90659,-26.98777 1.75668,-3.6652 3.70618,-3.57236 8.83127,0.42056 2.52214,1.96498 8.29296,4.83438 12.95705,6.44258 4.62524,1.59481 18.30953,6.26812 30.40953,10.38515 l 22,7.48551 21.5,-3.20618 c 11.825,-1.7634 22.45819,-3.72775 23.62932,-4.36523 1.17113,-0.63748 10.14735,-6.18232 19.94717,-12.32187 9.79982,-6.13955 19.30413,-11.78382 21.12068,-12.54282 1.81656,-0.75901 3.30283,-1.76322 3.30283,-2.23158 0,-0.46836 1.33087,-8.218 2.95749,-17.22141 l 2.95748,-16.36984 -10.54625,-19.01517 c -5.80044,-10.45834 -11.06881,-19.52244 -11.70749,-20.14244 -0.63868,-0.62 -7.33485,-3.16922 -14.88038,-5.66494 l -13.71914,-4.53766 -13.62522,2.98724 c -7.49387,1.64297 -13.92026,2.68048 -14.28086,2.30557 -1.1163,-1.16062 12.14228,-12.44822 15.84437,-13.489 9.95564,-2.79887 12.92104,-2.49684 29.6287,3.01767 9.11834,3.00959 16.80773,6.14686 18.07216,7.37343 1.21047,1.17423 7.39797,11.48287 13.75,22.90809 8.98164,16.15503 11.54702,21.60165 11.53959,24.5 -0.005,2.04978 -1.28554,10.6059 -2.84508,19.0136 -1.55954,8.4077 -2.53092,15.47499 -2.15862,15.70508 0.3723,0.2301 2.75147,-1.69893 5.28704,-4.28673 3.82215,-3.90088 6.26563,-8.37991 14.29584,-26.20508 5.32715,-11.825 10.96682,-25.55 12.5326,-30.5 l 2.84686,-9 -0.22454,16 -0.22455,16 -7.95375,17.5 c -6.93088,15.24947 -8.7165,18.30059 -13.88484,23.72535 -5.53296,5.80748 -5.89135,6.47027 -5.33902,9.87391 0.58434,3.60086 1.31407,5.13032 2.05989,4.31741 0.21019,-0.22917 5.24131,-8.29167 11.18021,-17.91667 15.53387,-25.17531 14.43744,-24.20039 14.43744,-12.83744 v 9.43228 l -10.44816,16.99256 -10.44816,16.99255 -26.80184,19.38132 -26.80184,19.38132 -37.15865,4.36311 -37.15865,4.36311 -25.63215,-9.52106 c -14.09769,-5.23658 -26.50977,-9.99074 -27.58241,-10.5648 -1.07265,-0.57406 -7.57203,-5.11111 -14.44308,-10.08233 -6.87105,-4.97122 -12.94765,-8.75748 -13.50356,-8.41391 -0.55591,0.34357 -1.46685,1.47693 -2.02432,2.51856 -0.87667,1.63806 -0.42882,2.15255 3.31541,3.80881 2.38095,1.0532 8.36161,4.8326 13.29037,8.39865 4.92875,3.56606 9.91861,6.99604 11.08857,7.62218 1.16996,0.62615 13.60935,5.41944 27.64309,10.65177 17.10504,6.37743 26.88066,9.51332 29.65621,9.51332 5.2445,0 71.20024,-7.76254 73.67017,-8.67047 1.97563,-0.72623 50.34854,-35.29703 54.08437,-38.65263 2.5027,-2.24796 15.59794,-22.81948 17.18727,-26.99974 0.55982,-1.47244 1.254,-2.67716 1.54261,-2.67716 0.28861,0 0.52475,44.1551 0.52475,98.12244 0,78.38701 -0.25141,97.91291 -1.25,97.08041 -0.6875,-0.5731 -5.975,-8.2755 -11.75,-17.1164 -9.50385,-14.54945 -13.07454,-18.54416 -12.18236,-13.62905 0.1747,0.96245 5.07878,8.34076 10.89796,16.39625 5.81918,8.0555 11.41374,16.1225 12.43236,17.9268 1.77427,3.1426 1.85204,8.3307 1.85204,123.55 0,94.8307 -0.26439,120.5544 -1.25,121.6163 -1,1.0773 -1,1.2055 0,0.6409 0.98659,-0.557 1.25,4.9964 1.25,26.3533 v 27.0591 l -80.25,-0.048 c -67.72723,-0.04 -80.89992,-0.2758 -84.41487,-1.5088 z M -8.69807,1215.359 c -5.1634,-5.2737 -9.38799,-10.0617 -9.38799,-10.6401 0,-1.6528 -27.05192,-160.1567 -27.39206,-160.4968 -0.16716,-0.1672 -6.15607,6.3046 -13.30868,14.3817 l -13.00476,14.6857 10.84152,17.1505 10.84151,17.1506 9.95785,41.9284 c 5.47682,23.0607 10.26502,45.191 10.64045,49.1785 0.62884,6.679 0.53461,7.2465 -1.19662,7.2064 -2.40856,-0.056 -71.35214,-40.9161 -72.70501,-43.0896 -0.7939,-1.2754 0.007,-3.0668 3.65463,-8.1792 2.56914,-3.6003 4.67117,-6.9238 4.67117,-7.3854 0,-0.4617 -5.09345,-4.2806 -11.31878,-8.4865 l -11.31879,-7.647 -6.18121,8.0717 c -3.39967,4.4394 -6.17925,8.564 -6.17685,9.1656 0.007,1.8241 125.04653,76.594 128.08967,76.594 2.44299,0 1.84553,-0.8543 -6.70605,-9.5885 z M 198.36394,888.05984 c -0.5225,-0.48818 -2.075,-1.15872 -3.45,-1.49008 -2.09373,-0.50457 -2.01248,-0.36766 0.5,0.8425 3.53434,1.70235 4.24616,1.85861 2.95,0.64758 z m -503.45,365.53516 c 0,-16.3234 0.23136,-19.4366 1.43137,-19.2605 0.78725,0.1155 4.09862,2.3056 7.3586,4.8668 l 5.92723,4.6567 34.68142,-45.6295 c 29.12186,-38.315 34.46493,-45.8461 33.3309,-46.9801 -0.74278,-0.7428 -19.54829,-11.5797 -41.79002,-24.082 -39.65061,-22.288 -40.44569,-22.7958 -40.75697,-26.0303 l -0.31747,-3.2989 3.81747,2.375 c 2.09961,1.3062 22.85595,13.0888 46.1252,26.1835 28.0358,15.777 42.14036,24.2447 41.81158,25.1014 -0.27288,0.7112 -20.54886,27.6398 -45.05773,59.8415 -24.50887,32.2017 -44.56158,58.9855 -44.56158,59.5197 0,0.5341 -0.45,1.2492 -1,1.5892 -0.65359,0.4039 -1,-6.1268 -1,-18.8525 z m 60,-169.2626 c -30.525,-19.5401 -56.5125,-35.9343 -57.75,-36.4315 -1.64403,-0.6605 -2.25,-1.7255 -2.25,-3.9544 v -3.0504 l 3.07906,1.5922 c 1.69348,0.8758 27.41343,17.0873 57.15544,36.0257 29.74201,18.9384 54.39014,34.4335 54.77362,34.4335 0.38348,0 12.08335,-15.6375 25.9997,-34.75 13.91636,-19.1125 26.84142,-36.2967 28.72237,-38.187 1.88094,-1.8903 4.296,-5.1542 5.36679,-7.2532 2.03638,-3.9916 68.75339,-95.82885 72.14565,-99.30985 2.33949,-2.40069 -2.42145,7.40579 -10.43801,21.5 -6.19491,10.89148 -118.49626,165.02265 -120.18861,164.95625 -0.61381,-0.024 -26.09101,-16.0312 -56.61601,-35.5713 z M -26.06495,958.44745 c 3.82309,-5.60343 54.05501,-74.28822 74.59665,-102 22.4875,-30.33684 54.35773,-70.94956 56.42467,-71.90281 1.07666,-0.49655 1.95757,-1.62922 1.95757,-2.51704 0,-0.88782 4.63342,-7.00655 10.29648,-13.59718 17.99306,-20.9402 75.07945,-87.86237 78.32194,-91.81653 2.72854,-3.32741 3.57688,-3.76308 6.78547,-3.48465 l 3.66705,0.31821 -37.10911,43.5 c -20.41001,23.925 -39.02715,45.3 -41.37142,47.5 -2.34427,2.2 -5.40178,5.80954 -6.79447,8.02121 -1.39269,2.21166 -5.77032,7.37706 -9.72806,11.47866 -3.95774,4.1016 -6.72764,7.61354 -6.15533,7.80431 1.74465,0.58155 11.08745,12.26916 11.08745,13.87013 0,0.82468 -1.2375,1.98763 -2.75,2.58432 -3.23261,1.2753 -39.51259,40.62145 -97.50116,105.74137 -22.77425,25.575 -42.2473,47.175 -43.27343,48 -1.02613,0.825 -0.33057,-0.75 1.5457,-3.5 z m 96.66988,-118.26356 -2.46988,-2.46988 -2.83208,4.83259 c -1.55765,2.65792 -5.63633,8.55066 -9.06374,13.09498 -10.20605,13.53195 -9.29246,13.51178 4.11956,-0.091 l 12.71602,-12.89684 -2.46988,-2.46988 z m -375.69099,13.41017 c 0,-84.5361 0.1171,-90.7882 1.75,-93.43668 0.9625,-1.56112 11.15287,-14.87738 22.64527,-29.59169 18.794,-24.06292 22.46452,-28.18916 36.5,-41.03176 8.5826,-7.85316 16.58765,-14.79778 17.78899,-15.43248 1.57845,-0.83394 17.94213,-1.14528 59,-1.12258 l 56.81574,0.0314 1.56734,2.21857 c 3.76518,5.32964 11.93266,19.61832 11.93266,20.87573 0,1.9134 -60.26285,62.02125 -73.03069,72.84285 -4.76159,4.03577 -25.62609,31.22115 -47.20559,61.5065 l -6.73628,9.45391 2.98197,2.20467 c 1.64008,1.21256 10.96832,7.19991 20.72941,13.30522 9.76109,6.1053 17.88763,11.82852 18.05898,12.71825 0.17134,0.88974 -2.64978,5.8238 -6.26917,10.96458 -3.61939,5.14078 -11.57139,16.46241 -17.6711,25.15918 -7.07638,10.08926 -11.56975,15.62836 -12.41481,15.30408 -0.72843,-0.27952 -12.31648,-7.94631 -25.75121,-17.0373 -22.64383,-15.32259 -24.53578,-16.40317 -25.91996,-14.80409 -1.54303,1.7826 -21.63522,35.66557 -28.06156,47.3223 -7.23434,13.12236 -6.70999,19.48729 -6.70999,-81.45069 z m 257.7118,73.60339 c 0.35696,-0.9625 5.2633,-10.075 10.90297,-20.25 9.42231,-16.99956 10.95657,-20.56817 18.91704,-44 l 8.66308,-25.5 -0.65379,-38.1578 -0.65378,-38.1578 -7.81257,-23.52201 -7.81257,-23.52201 -12.38109,-16.50311 c -6.8096,-9.0767 -13.40703,-18.33329 -14.66095,-20.57019 l -2.27986,-4.06708 h 34.16962 c 31.36423,0 34.27987,0.14368 35.51254,1.75 0.73861,0.9625 8.63008,12.325 17.5366,25.25 8.99474,13.05301 22.78357,31.36429 31.01732,41.19034 13.80068,16.46956 16.22651,20.12473 13.92135,20.97633 -0.49626,0.18333 -3.32553,3.48333 -6.28727,7.33333 -25.43069,33.05769 -46.51975,60.92919 -57.69702,76.25292 -7.32262,10.0391 -13.78438,18.54372 -14.35948,18.89915 -1.55096,0.95855 -0.12594,-4.11348 3.13693,-11.16514 3.0734,-6.64217 27.27691,-40.19236 34.50874,-47.83499 l 4.58748,-4.84807 -4.33271,-5.15193 C 34.18533,792.76582 24.5041,780.23086 15.05447,767.74392 5.60484,755.25697 -2.56754,744.76792 -3.10637,744.4349 c -1.54748,-0.9564 -1.15607,1.71844 1.18616,8.106 2.03256,5.54304 2.21021,8.36832 2.88661,45.90655 l 0.72075,40 -7.53908,22.5 c -8.27688,24.70192 -6.79814,22.00645 -27.56721,50.25 -12.0602,16.40049 -15.61538,20.47662 -13.95512,16 z m -0.7118,-89.30625 c -27.50646,-19.2089 -30,-21.09595 -30,-22.70328 0,-0.80988 1.65198,-3.72297 3.67107,-6.47351 2.83417,-3.86091 3.44104,-5.37328 2.66204,-6.63398 -0.55497,-0.89814 -8.39445,-7.06125 -17.42107,-13.6958 -9.02662,-6.63455 -16.41204,-12.69317 -16.41204,-13.4636 0,-1.64986 60.43282,-57.95835 62.21325,-57.96741 0.69459,-0.004 3.54978,7.36802 6.67896,17.24383 3.00615,9.4875 7.52269,23.76243 10.03676,31.72207 l 4.57103,14.47206 v 22.41684 c 0,18.04363 -0.40095,24.76685 -2.05524,34.46281 -2.21234,12.96674 -2.44522,13.71172 -4.25378,13.60775 -0.65504,-0.0376 -9.51598,-5.88215 -19.69098,-12.98778 z m 196.07195,-14.35706 c -0.68427,-0.82449 -1.01136,-1.87571 -0.72687,-2.33603 0.28449,-0.46031 7.86073,-9.01873 16.83609,-19.0187 12.38737,-13.8015 20.96505,-22.15396 35.60454,-34.66972 13.11431,-11.21183 20.47428,-16.81805 23,-17.51952 4.57426,-1.2704 6.48418,-1.31848 6.04762,-0.15221 -0.18333,0.48978 -10.23333,9.30526 -22.33333,19.58996 -17.85428,15.17568 -25.05924,22.12155 -38.2344,36.85948 -8.92893,9.98803 -16.84531,18.29185 -17.59197,18.45294 -0.74665,0.16109 -1.91741,-0.3817 -2.60168,-1.2062 z m -28.87195,-26.78669 c -2.1121,-2.1121 -1.30913,-4.21927 3.35848,-8.81334 7.59867,-7.47896 10.89145,-11.06912 11.95643,-13.03626 3.26495,-6.03068 23.12507,-24.77033 57.54268,-54.2962 l 39.09552,-33.53892 21.17396,-7.05764 c 20.5567,-6.85189 21.45089,-7.05466 30.67345,-6.95555 8.13145,0.0874 8.99544,0.24719 5.99948,1.10966 -1.925,0.55416 -15.05521,4.80991 -29.17825,9.45721 l -25.67825,8.44963 -39.32175,33.79703 c -35.26106,30.30687 -41.11057,35.77397 -56.64378,52.94071 -9.52712,10.52902 -17.42462,19.14367 -17.55,19.14367 -0.12538,0 -0.76797,-0.54 -1.42797,-1.2 z M 81.58061,752.28078 c -1.82424,-1.82423 0.0605,-5.10256 7.80166,-13.57023 16.28397,-17.81224 18.97939,-20.90767 21.49627,-24.68645 1.39447,-2.09363 9.70728,-12.19235 18.47291,-22.44162 15.52635,-18.15426 16.0362,-18.63503 19.76248,-18.63503 h 3.82496 l -27.26247,31.78193 c -14.99437,17.48006 -30.3703,35.48006 -34.16875,40 -6.50776,7.74388 -8.34047,9.138 -9.92706,7.5514 z m 176.86152,-28.75085 -3.97181,-1.24716 46.22181,-15.43849 46.22181,-15.43849 v 3.18018 3.18018 l -39.75,13.02276 c -21.8625,7.16252 -40.875,13.23998 -42.25,13.50547 -1.375,0.26549 -4.28732,-0.0785 -6.47181,-0.76445 z"
             id="path1321"
             inkscape:connector-curvature="0" />
          <path
             style="fill:#dbdec9"
             d="m -168.08606,1323.6929 c 0,-1.3986 68.52343,-90.059 69.99715,-90.5671 1.06334,-0.3667 146.45451,87.1522 149.47507,89.9771 1.91763,1.7935 -1.09278,1.8446 -108.75,1.8446 -88.1245,0 -110.72222,-0.2561 -110.72222,-1.2546 z m 348.11782,-6.7193 c -16.1602,-4.3041 -30.43528,-8.3054 -31.72241,-8.8919 -1.28713,-0.5864 -2.57503,-2.094 -2.86201,-3.3502 -2.63233,-11.5227 -22.4948,-124.7268 -22.13378,-126.1493 0.26037,-1.0259 0.0605,-2.6008 -0.44416,-3.5 -0.50467,-0.8991 -3.39714,-15.5848 -6.42773,-32.6348 -3.03059,-17.0499 -5.94757,-32.575 -6.48218,-34.5 -0.53462,-1.9249 -2.5642,-12.5 -4.51019,-23.5 -3.22619,-18.2364 -3.53805,-21.6764 -3.53676,-39.012 l 10e-4,-19.0121 9.47323,-33.12083 c 9.1908,-32.1334 9.50337,-33.56405 10.48453,-47.98792 1.89941,-27.92315 1.9826,-27.24509 -6.37335,-51.94599 l -7.41518,-21.92111 2.78803,-2.85322 2.78804,-2.85321 4.44834,1.96771 c 2.44659,1.08224 8.48096,4.8854 13.40972,8.45145 4.92875,3.56606 9.91861,6.99604 11.08857,7.62218 1.16996,0.62615 13.60935,5.41944 27.64309,10.65177 17.10504,6.37743 26.88066,9.51332 29.65621,9.51332 5.2445,0 71.20024,-7.76254 73.67017,-8.67047 1.97563,-0.72623 50.34854,-35.29703 54.08437,-38.65263 2.5027,-2.24796 15.59794,-22.81948 17.18727,-26.99974 0.55982,-1.47244 1.254,-2.67716 1.54261,-2.67716 0.28861,0 0.52475,44.1551 0.52475,98.12244 0,78.38701 -0.25141,97.91291 -1.25,97.08041 -0.6875,-0.5731 -5.975,-8.2754 -11.75,-17.1164 -9.50385,-14.54945 -13.07454,-18.54416 -12.18236,-13.62905 0.1747,0.96245 5.07878,8.34076 10.89796,16.39625 5.81918,8.0555 11.41374,16.1225 12.43236,17.9268 1.77427,3.1426 1.85204,8.3307 1.85204,123.55 0,94.8307 -0.26439,120.5544 -1.25,121.6163 -1,1.0773 -1,1.2055 0,0.6409 0.98659,-0.557 1.25,4.9964 1.25,26.3533 v 27.0591 l -68.75,-0.074 -68.75,-0.074 -29.38218,-7.8256 z m -45.332,-8.947 c -4.12293,-2.6147 -4.72003,-3.4576 -5.32985,-7.5242 -0.83357,-5.5586 -2.06208,-6.6248 -2.95405,-2.5637 -0.78704,3.5834 -2.64813,3.8266 -7.34917,0.9606 -2.85205,-1.7388 -3.24905,-2.432 -2.68345,-4.6856 0.36509,-1.4546 1.72642,-7.8471 3.02517,-14.2055 1.29875,-6.3584 2.63619,-12.2681 2.9721,-13.1327 0.3359,-0.8645 -7.50666,-46.4483 -17.42792,-101.2974 l -18.03865,-99.7254 v -20.8987 -20.8986 l 9.58629,-33.30369 9.58629,-33.30365 1.07918,-19.00305 1.07917,-19.00305 -5.74866,-16.99725 c -3.16177,-9.3485 -5.95962,-17.51745 -6.21746,-18.15324 -0.57734,-1.42363 5.34843,-8.34402 7.14478,-8.34402 0.71632,0 2.04835,2.1375 2.96007,4.75 0.91171,2.6125 4.12147,11.95 7.1328,20.75 l 5.47513,16 -1.19057,20.5 -1.19057,20.5 -9.57901,33 -9.579,33.00005 -0.0192,21 -0.0192,21 21.68872,119.5 c 11.9288,65.725 21.8288,120.5831 22,121.907 0.44858,3.4687 -1.13743,3.5113 -6.4029,0.1721 z m -73.78582,-50.7011 c -50.0526,-29.2208 -53.9729,-31.378 -57.02239,-31.378 -2.16047,0 -21.97761,-19.1127 -21.97761,-21.1964 0,-0.5961 -6.09733,-36.9053 -13.54962,-80.6871 -9.86043,-57.9294 -13.28794,-80.1497 -12.58852,-81.6099 1.44558,-3.0182 135.49828,-152.95512 136.64553,-152.83706 0.54594,0.0562 3.32079,6.87915 6.16634,15.16214 l 5.17372,15.05999 -1.00107,17.80414 c -1.08123,19.22985 -1.85705,22.59625 -16.3175,70.80409 l -4.49941,15 -0.0147,21.1195 -0.0147,21.1195 10.43301,57.8805 c 5.73816,31.8343 10.38619,59.0055 10.32895,60.3805 -0.0572,1.375 0.44564,11.275 1.11752,22 3.27198,52.2299 4.18151,65.9866 4.74378,71.75 0.48019,4.9222 0.31942,6.2438 -0.75676,6.2206 -0.75165,-0.016 -21.84157,-11.9828 -46.86657,-26.5925 z m -366,-8.8209 c 0,-11.6996 0.2588,-14.3422 1.38835,-14.1764 2.54571,0.3736 12.61165,8.837 12.61165,10.6038 0,1.9218 -10.75997,16.6476 -12.75,17.4492 -0.96539,0.3888 -1.25,-2.7707 -1.25,-13.8766 z m 237.59537,-63.3507 c -19.19755,-11.3885 -35.36207,-21.4414 -35.92117,-22.3396 -0.7939,-1.2754 0.007,-3.0668 3.65463,-8.1792 2.56914,-3.6003 4.67117,-6.9302 4.67117,-7.3998 0,-0.4695 -4.95,-4.1787 -11,-8.2427 -6.37405,-4.2816 -11,-8.0649 -11,-8.9965 0,-1.8366 28.02142,-39.0248 37.11558,-49.2574 3.31963,-3.7352 6.62425,-6.7913 7.34358,-6.7913 0.71934,0 6.08401,7.5856 11.92149,16.8567 l 10.6136,16.8567 9.9495,41.8933 c 5.47221,23.0414 10.25665,45.1559 10.63208,49.1434 0.62884,6.679 0.53461,7.2465 -1.19662,7.2064 -1.03357,-0.024 -17.58629,-9.3614 -36.78384,-20.75 z M -305.08606,853.59406 c 0,-84.5361 0.1171,-90.7882 1.75,-93.43668 0.9625,-1.56112 11.15287,-14.87738 22.64527,-29.59169 18.794,-24.06292 22.46452,-28.18916 36.5,-41.03176 8.5826,-7.85316 16.58765,-14.79778 17.78899,-15.43248 1.57845,-0.83394 17.94213,-1.14528 59,-1.12258 l 56.81574,0.0314 1.56734,2.21857 c 3.76518,5.32964 11.93266,19.61832 11.93266,20.87573 0,1.9134 -60.26285,62.02125 -73.03069,72.84285 -4.76159,4.03577 -25.62609,31.22115 -47.20559,61.5065 l -6.73628,9.45391 2.98197,2.20467 c 1.64008,1.21256 10.96832,7.19991 20.72941,13.30522 9.76109,6.1053 17.88763,11.82852 18.05898,12.71825 0.17134,0.88974 -2.64978,5.8238 -6.26917,10.96458 -3.61939,5.14078 -11.57139,16.46241 -17.6711,25.15918 -7.07638,10.08926 -11.56975,15.62836 -12.41481,15.30408 -0.72843,-0.27952 -12.31648,-7.94631 -25.75121,-17.0373 -22.64383,-15.32259 -24.53578,-16.40317 -25.91996,-14.80409 -1.54303,1.7826 -21.63522,35.66557 -28.06156,47.3223 -7.23434,13.12236 -6.70999,19.48729 -6.70999,-81.45069 z m 257.7118,73.60339 c 0.35696,-0.9625 5.2633,-10.075 10.90297,-20.25 9.42231,-16.99956 10.95657,-20.56817 18.91704,-44 l 8.66308,-25.5 -0.65379,-38.1578 -0.65378,-38.1578 -7.81257,-23.52201 -7.81257,-23.52201 -12.38109,-16.50311 c -6.8096,-9.0767 -13.40703,-18.33329 -14.66095,-20.57019 l -2.27986,-4.06708 h 34.16962 c 31.36423,0 34.27987,0.14368 35.51254,1.75 0.73861,0.9625 8.63008,12.325 17.5366,25.25 8.99474,13.05301 22.78357,31.36429 31.01732,41.19034 8.153,9.72969 14.82364,18.42795 14.82364,19.32946 0,1.2817 -0.62125,1.50266 -2.84907,1.01335 -2.72183,-0.59781 -3.50491,0.22318 -17.53336,18.38214 -8.07635,10.45435 -15.13898,19.28892 -15.69473,19.6324 -0.55575,0.34347 -1.68358,0.0658 -2.50631,-0.61696 C 38.50775,798.19538 28.83988,785.80042 17.84632,771.33382 6.85275,756.86723 -2.5794,744.76058 -3.11402,744.43017 c -1.53997,-0.95175 -1.1448,1.73305 1.19381,8.11073 2.03256,5.54304 2.21021,8.36832 2.88661,45.90655 l 0.72075,40 -7.53908,22.5 c -8.27688,24.70192 -6.79814,22.00645 -27.56721,50.25 -12.0602,16.40049 -15.61538,20.47662 -13.95512,16 z m 218.7882,-37.07666 c -14.3,-5.36175 -26.70425,-10.18169 -27.565,-10.71098 -5.63134,-3.46285 -25.935,-18.75465 -25.935,-19.53307 0,-0.52317 3.46948,-4.65878 7.70996,-9.19025 14.57826,-15.57865 13.61077,-14.2526 12.12936,-16.62473 -0.98848,-1.5828 -1.04555,-2.56454 -0.22484,-3.86777 1.77163,-2.81322 3.68424,-2.53719 8.51894,1.22949 2.52214,1.96498 8.29296,4.83438 12.95705,6.44258 4.62524,1.59481 18.30953,6.26812 30.40953,10.38515 l 22,7.48551 21.5,-3.20618 c 11.825,-1.7634 22.45819,-3.72775 23.62932,-4.36523 1.17113,-0.63748 10.14735,-6.18232 19.94717,-12.32187 9.79982,-6.13955 19.30413,-11.78382 21.12068,-12.54282 1.81656,-0.75901 3.30283,-1.76322 3.30283,-2.23158 0,-0.46836 1.33087,-8.218 2.95749,-17.22141 l 2.95748,-16.36984 -10.54625,-19.01517 c -5.80044,-10.45834 -11.06881,-19.52244 -11.70749,-20.14244 -0.63868,-0.62 -7.33485,-3.16922 -14.88038,-5.66494 l -13.71914,-4.53766 -13.62522,2.98724 c -7.49387,1.64297 -13.92026,2.68048 -14.28086,2.30557 -1.1163,-1.16062 12.14228,-12.44822 15.84437,-13.489 9.95564,-2.79887 12.92104,-2.49684 29.6287,3.01767 9.11834,3.00959 16.80773,6.14685 18.07216,7.37343 1.21047,1.17423 7.39797,11.48287 13.75,22.90809 8.98164,16.15503 11.54702,21.60165 11.53959,24.5 -0.005,2.04978 -1.28554,10.6059 -2.84508,19.0136 -1.55954,8.4077 -2.53092,15.47499 -2.15862,15.70508 0.3723,0.2301 2.75147,-1.69893 5.28704,-4.28673 3.82215,-3.90088 6.26563,-8.37991 14.29584,-26.20508 5.32715,-11.825 10.96682,-25.55 12.5326,-30.5 l 2.84686,-9 -0.22454,16 -0.22455,16 -7.95375,17.5 c -6.93088,15.24947 -8.7165,18.30059 -13.88484,23.72535 -5.53296,5.80748 -5.89135,6.47027 -5.33902,9.87391 0.58434,3.60086 1.31407,5.13032 2.05989,4.31741 0.21026,-0.22917 5.24138,-8.29167 11.18028,-17.91667 15.53387,-25.17531 14.43744,-24.20039 14.43744,-12.83744 v 9.43228 l -10.44816,16.99256 -10.44816,16.99255 -26.80184,19.38085 -26.80184,19.38085 -36.5,4.30867 c -20.075,2.36977 -36.95,4.30034 -37.5,4.29015 -0.55,-0.0102 -12.7,-4.40539 -27,-9.76713 z m 26.95,-2.06095 c -0.5225,-0.48818 -2.075,-1.15872 -3.45,-1.49008 -2.09373,-0.50457 -2.01248,-0.36766 0.5,0.8425 3.53434,1.70235 4.24616,1.85861 2.95,0.64758 z m -246.45,-50.16864 c -27.50646,-19.2089 -30,-21.09595 -30,-22.70328 0,-0.80988 1.65198,-3.72297 3.67107,-6.47351 2.83417,-3.86091 3.44104,-5.37328 2.66204,-6.63398 -0.55497,-0.89814 -8.39445,-7.06125 -17.42107,-13.6958 -9.02662,-6.63455 -16.41204,-12.69317 -16.41204,-13.4636 0,-1.64986 60.43282,-57.95835 62.21325,-57.96741 0.69459,-0.004 3.54978,7.36802 6.67896,17.24383 3.00615,9.4875 7.52269,23.76243 10.03676,31.72207 l 4.57103,14.47206 v 22.41684 c 0,18.04363 -0.40095,24.76685 -2.05524,34.46281 -2.21234,12.96674 -2.44522,13.71172 -4.25378,13.60775 -0.65504,-0.0376 -9.51598,-5.88215 -19.69098,-12.98778 z m 119.01855,2.576 c -2.18858,-2.32964 -2.3028,-2.83739 -1.08251,-4.8121 3.83971,-6.21356 33.54787,-43.70765 34.63142,-43.70765 1.60451,0 11.43254,11.69893 11.43254,13.60888 0,2.32818 -4.60978,3.95987 -6.57632,2.32778 -1.44552,-1.19967 -2.8699,-0.0258 -12.25922,10.10298 -5.84301,6.3032 -13.56565,14.5258 -17.16141,18.27245 l -6.53775,6.8121 z"
             id="path1319"
             inkscape:connector-curvature="0" />
          <path
             style="fill:#dae0c6"
             d="m -168.08606,1324.1495 c 0,-1.5471 69.00697,-89.7063 70.46313,-90.0195 1.36416,-0.2934 146.39937,86.6443 149.3583,89.5291 1.07831,1.0513 -19.02167,1.2884 -109.25,1.2884 -60.81429,0 -110.57143,-0.3591 -110.57143,-0.798 z m 377.5,0.066 c -1.1,-0.2749 -2.225,-0.8169 -2.5,-1.2046 -0.275,-0.3877 -13.54167,-4.1683 -29.4815,-8.4015 -15.93982,-4.2332 -29.51477,-8.2514 -30.16655,-8.9295 -0.65177,-0.678 -3.02442,-11.3577 -5.27255,-23.7327 -2.24812,-12.375 -5.44823,-29.925 -7.11134,-39 -5.99455,-32.7101 -10.82612,-59.5466 -11.14395,-61.8981 -0.28132,-2.0814 0.47662,-2.7415 5.74093,-5 3.33577,-1.431 7.38577,-3.4965 9,-4.5898 4.91571,-3.3295 6.72395,-4.3647 12.18496,-6.9763 2.8875,-1.3808 5.25,-2.8587 5.25,-3.2841 0,-0.4254 2.025,-12.3891 4.5,-26.5861 2.475,-14.197 4.5,-26.0017 4.5,-26.2327 0,-0.4315 47.01585,-39.5903 62.07945,-51.7051 6.43263,-5.1734 10.19115,-9.2912 15.92055,-17.4428 6.79921,-9.6736 8.41865,-11.3013 17.33152,-17.4203 10.50467,-7.2118 11.09555,-7.4085 39.7586,-13.2383 l 7.59011,-1.5437 7.90989,3.0249 c 4.35043,1.6637 9.14914,3.4897 10.66378,4.0578 3.03053,1.1367 18.7461,22.9239 18.7461,25.9886 0,0.9503 0.45,2.006 1,2.346 0.65498,0.4048 1,32.4587 1,92.904 0,87.8093 -0.0879,92.3655 -1.8112,93.9251 -0.99615,0.9015 -4.25865,2.9881 -7.25,4.6369 l -5.4388,2.9977 5.66821,0.018 c 6.65253,0.021 8.83179,0.6867 8.83179,2.6966 0,3.1785 -2.65115,3.9595 -17.0547,5.024 -13.61037,1.0059 -15.00905,1.3045 -21.5575,4.6023 -6.83428,3.4416 -7.68723,3.6014 -35.4453,6.6397 -15.64337,1.7123 -29.905,3.3753 -31.6925,3.6957 l -3.25,0.5824 v 10.6691 10.6691 l 7.94172,17.5633 c 4.36795,9.6599 8.2432,18.7645 8.61167,20.2326 1.34765,5.3695 0.19125,5.6545 -22.42583,5.5273 -11.34516,-0.064 -21.52756,-0.3408 -22.62756,-0.6156 z m 99.5,-0.2683 c 0.825,-0.5332 1.05,-0.9846 0.5,-1.0032 -0.55,-0.019 2.825,-2.1186 7.5,-4.6667 4.675,-2.5481 8.65219,-4.7545 8.8382,-4.9031 0.18602,-0.1486 1.34968,-4.9545 2.58592,-10.6799 1.64645,-7.6252 3.09758,-11.6451 5.42474,-15.0275 1.74736,-2.5397 3.62119,-4.8921 4.16408,-5.2276 0.54288,-0.3356 0.98706,-1.449 0.98706,-2.4743 0,-2.4668 4.88527,-8.2067 6.26109,-7.3564 0.66049,0.4082 0.8549,0.083 0.50137,-0.838 -0.31758,-0.8276 -0.19463,-2.1241 0.27322,-2.8811 0.48085,-0.778 0.88638,11.1078 0.93285,27.3407 l 0.0822,28.7171 -19.77536,-0.015 c -13.13732,-0.01 -19.27186,-0.3407 -18.27537,-0.9846 z m -174.17509,-15.8961 c -4.04138,-2.563 -4.64567,-3.423 -5.25356,-7.4767 -0.84685,-5.6472 -2.04753,-6.5686 -3.42192,-2.6261 -1.23146,3.5326 -2.48282,3.7026 -6.99668,0.9507 -2.80107,-1.7077 -3.24343,-2.4544 -2.71099,-4.5758 0.34995,-1.3943 1.53167,-6.8868 2.62604,-12.2056 1.09437,-5.3187 2.44395,-11.3572 2.99907,-13.4188 0.8638,-3.2079 -1.59123,-18.1353 -17.02878,-103.5409 l -18.03809,-99.7927 v -20.4711 -20.4711 l 9.60524,-33.48793 9.60523,-33.48792 1.06362,-19 1.06361,-19 -5.66885,-17.00082 c -3.11787,-9.35044 -5.66885,-17.69967 -5.66885,-18.55383 0,-0.85416 1.50386,-3.01062 3.34191,-4.79213 2.60436,-2.52424 3.56331,-2.95376 4.34507,-1.94616 0.55173,0.71112 4.01426,10.19233 7.69451,21.06936 l 6.69135,19.77642 -1.41036,21.22358 -1.41036,21.22358 -9.62606,33.48792 -9.62606,33.48793 v 17.4299 17.43 l 22,121.9132 c 12.1,67.0523 22,123.0018 22,124.3322 0,3.09 -0.62652,3.0416 -6.17509,-0.4772 z m -439.82491,-59.6599 v -14.6741 l 2.75,1.7547 c 4.78409,3.0525 11.25,8.5708 11.25,9.6013 0,1.1156 -11.4473,16.4144 -13.00003,17.3741 -0.64927,0.4012 -0.99997,-4.5283 -0.99997,-14.056 z m 293.32262,-39.1403 c -4.25518,-0.8283 -2.22621,8.743 -18.93111,-89.3037 -4.63852,-27.225 -9.41162,-55.641 -10.6069,-63.1467 l -2.17324,-13.6467 3.37588,-3.8533 C -0.44692,994.04098 92.39954,891.03305 93.00077,891.63428 c 0.4477,0.4477 2.90006,7.29241 5.44968,15.21046 4.51653,14.02645 4.61979,14.63044 4.01776,23.49959 -0.33986,5.00672 -0.86826,12.92812 -1.17423,17.60312 -0.38177,5.83316 -2.14773,14.14743 -5.62863,26.5 -2.78978,9.9 -5.3959,18.37328 -5.79138,18.82951 -0.39548,0.45623 -9.50852,-1.45627 -20.2512,-4.25 -10.74268,-2.79373 -20.3534,-5.07951 -21.35715,-5.07951 -1.00375,0 -5.431,3.75829 -9.83834,8.35176 l -8.01334,8.35179 -15.5,6.3237 c -8.525,3.4781 -16.0132,6.709 -16.64045,7.1798 -0.62724,0.4708 -4.16702,5.8824 -7.86618,12.0257 -5.61767,9.3295 -6.9459,12.4134 -8.06207,18.7185 -0.73498,4.1518 -2.2565,11.98 -3.38116,17.396 l -2.04484,9.8472 8.87342,53.1528 c 11.33158,67.8774 13.50732,82.2191 12.67703,83.5626 -0.65387,1.0579 -5.80357,1.2562 -10.23313,0.3939 z m -55.57262,-24.5941 c -25.37263,-15.0415 -35.75,-21.703 -35.75,-22.9487 0,-0.9654 2.02281,-4.5031 4.49512,-7.8615 2.47232,-3.3584 4.26242,-6.4827 3.97799,-6.943 -0.28442,-0.4602 -5.45723,-4.2524 -11.49512,-8.4272 -6.03789,-4.1747 -10.97799,-8.0042 -10.97799,-8.51 0,-0.9012 21.08658,-29.2048 29.78733,-39.9822 7.80764,-9.6712 12.98148,-15.037 14.49895,-15.037 0.82914,0 6.13359,7.3896 12.05393,16.7924 l 10.57315,16.7924 9.08167,37.9576 c 10.1561,42.4483 12.69678,56.2017 10.73994,58.1385 -0.97548,0.9654 -8.74673,-3.2309 -36.98497,-19.9713 z m 176.85732,-80.9596 c -0.26582,-1.7875 -1.94665,-11.35 -3.73517,-21.25 -3.04242,-16.8407 -3.23584,-19.256 -3.00313,-37.5 l 0.24873,-19.5 9.31449,-33.00005 c 9.79795,-34.71279 9.7198,-34.27108 11.14538,-63 l 0.64508,-13 -7.11135,-20.86718 c -3.91124,-11.47696 -7.11135,-21.64471 -7.11135,-22.59502 0,-0.9503 0.90123,-2.54343 2.00274,-3.54028 2.98433,-2.70078 7.55723,-0.89698 20.03038,7.90108 9.28835,6.55162 12.77459,8.27973 29.5,14.62299 10.43179,3.95634 22.79188,8.5573 27.46688,10.22436 l 8.5,3.03101 11,-1.17378 c 6.05,-0.64558 14.375,-1.58185 18.5,-2.08059 12.06771,-1.4591 24.80683,-2.95145 35,-4.10016 11.27424,-1.27054 14.47421,-2.68284 27,-11.91638 9.68671,-7.14067 18.6333,-13.63661 31.98334,-23.22244 4.11583,-2.95533 8.84083,-7.22422 10.5,-9.48644 4.52065,-6.16376 12.87985,-20.34384 14.01666,-23.7771 0.73172,-2.20985 1.07178,3.80294 1.26755,22.41238 0.17122,16.27494 -0.0988,25.79883 -0.75,26.45 -0.55965,0.55965 -1.01755,1.60628 -1.01755,2.32583 0,0.71955 -2.3625,4.90928 -5.25,9.3105 l -5.25,8.00222 -35.39578,19.2395 -35.39578,19.2395 -12.92799,13 -12.928,13 0.59586,7.73425 c 0.32772,4.25384 1.25827,12.12884 2.06788,17.5 2.34877,15.5823 1.75924,22.1313 -3.29752,36.6312 l -1.69679,4.8654 -22.96764,11.4922 c -21.74648,10.8811 -23.20793,11.4592 -27.48709,10.8727 -6.97604,-0.9562 -7.49533,-1.9555 -8.06715,-15.5251 l -0.5,-11.8651 -11.77233,-17.5576 c -6.47478,-9.65662 -12.17166,-17.80432 -12.65973,-18.10596 -0.48807,-0.30164 -3.24039,-0.005 -6.11627,0.65852 -4.08359,0.94261 -5.63575,1.87419 -7.08653,4.25323 -1.02172,1.67544 -1.85935,4.11812 -1.8614,5.42816 -0.002,1.31005 4.72126,17.24035 10.49626,35.40065 5.775,18.1604 10.5,33.867 10.5,34.9037 0,2.1963 -3.4049,3.8314 -22.5,10.8047 l -13,4.7474 -5.42986,11.1308 c -2.98643,6.122 -5.77854,11.1309 -6.20469,11.1309 -0.42615,0 -0.99231,-1.4625 -1.25813,-3.25 z m 235.81854,-82.9836 c -0.3899,-1.2285 -5.61738,-9.5768 -11.61661,-18.5518 -8.37868,-12.53473 -11.30202,-16.19606 -12.60847,-15.79145 -1.24743,0.38632 -2.4222,-0.77873 -4.40723,-4.37076 l -2.70645,-4.89749 1.68536,-8.74242 1.68536,-8.74242 13.3734,-12.04143 c 7.35537,-6.62279 14.00236,-12.13375 14.77109,-12.24658 1.17881,-0.17301 1.39769,6.67136 1.39769,43.70638 0,24.15137 -0.19468,43.91147 -0.43261,43.91147 -0.23794,0 -0.75163,-1.0051 -1.14153,-2.2335 z M -305.08232,853.16607 c -0.003,-73.01658 0.25115,-91.3792 1.2701,-91.77021 0.70062,-0.26885 11.16312,-13.19289 23.25,-28.72009 15.35705,-19.72815 24.47407,-30.48979 30.26947,-35.7298 4.56132,-4.12419 12.21132,-11.20364 17,-15.73213 l 8.70669,-8.23361 56.78138,-0.0164 c 53.16786,-0.0154 56.82343,0.095 57.44206,1.73361 0.36337,0.9625 3.31496,6.15341 6.55909,11.53535 l 5.89842,9.78534 -11.55796,12.3193 c -6.35688,6.77562 -13.43162,13.84721 -15.72164,15.71466 -2.29002,1.86744 -12.3685,11.49535 -22.39662,21.39535 -10.02812,9.9 -20.6206,20.025 -23.53884,22.5 -4.81918,4.08721 -34.0044,42.22736 -44.21766,57.78501 -2.06347,3.14324 -5.21141,7.66892 -6.99541,10.05706 l -3.24364,4.34207 2.13245,1.72675 c 1.17284,0.94971 10.73327,7.09203 21.2454,13.64959 10.51214,6.55757 19.11297,12.26773 19.11297,12.68926 0,0.42153 -2.85671,4.71475 -6.34824,9.5405 -3.49152,4.82575 -6.92435,9.88462 -7.62851,11.24193 -2.75464,5.30978 -20.17829,28.96783 -21.33419,28.96783 -0.67393,0 -12.2068,-7.425 -25.6286,-16.5 -13.42179,-9.075 -24.90402,-16.5 -25.51605,-16.5 -1.07671,0 -26.4065,41.84861 -29.64456,48.97725 -0.88008,1.93751 -2.5659,5.09775 -3.74626,7.02275 l -2.14611,3.5 z m 257.99626,74.35416 c 0,-1.00137 2.30595,-5.40644 12.07804,-23.07278 7.78563,-14.07515 9.89495,-19.06773 17.53338,-41.5 l 8.68302,-25.5 -0.65595,-37.92714 -0.65595,-37.92715 -7.52384,-23.30617 -7.52385,-23.30618 -12.71742,-16.96164 c -6.99459,-9.3289 -13.74337,-18.78641 -14.99729,-21.01668 l -2.27986,-4.05504 34.27986,0.0314 c 34.24224,0.0314 34.28161,0.0339 35.87626,2.25 0.87802,1.22022 8.71168,12.56858 17.40812,25.21858 8.69645,12.65 22.49057,31.00939 30.6536,40.79863 8.16304,9.78926 14.84188,18.45175 14.84188,19.25 0,1.65853 -1.57787,1.94341 -2.5,0.45137 -0.33992,-0.55 -1.20575,-1 -1.92407,-1 -0.71831,0 -8.00425,8.7587 -16.19098,19.46377 -8.92239,11.66704 -15.57089,19.47829 -16.59732,19.5 -1.08588,0.023 -9.23398,-9.82524 -22.27077,-26.91759 -11.30711,-14.8246 -20.99905,-27.22615 -21.53762,-27.55901 -1.53855,-0.95088 -1.15962,1.70128 1.1582,8.10628 1.99786,5.52083 2.18182,8.51869 2.81703,45.90655 l 0.67958,40 -7.30652,21.89961 c -4.01858,12.04478 -8.13045,23.29478 -9.13749,25 -1.00703,1.70521 -7.95386,11.45549 -15.4374,21.66727 -12.52049,17.08505 -16.75264,22.26537 -16.75264,20.5059 z m 218.22572,-37.54266 c -26.2268,-9.84897 -26.29772,-9.8836 -39.25,-19.16193 -7.13664,-5.11233 -12.97572,-9.94035 -12.97572,-10.72896 0,-0.7886 4.5,-6.27297 10,-12.18749 5.5,-5.91452 10,-11.25435 10,-11.86628 0,-0.61193 -0.53543,-1.96995 -1.18984,-3.01783 -0.9331,-1.49414 -0.90669,-2.2464 0.12245,-3.48643 1.91246,-2.30438 3.21349,-1.99075 8.35328,2.01362 3.67802,2.86552 10.72615,5.69508 34.74111,13.94723 l 30.12699,10.3524 22.17301,-3.30403 22.173,-3.30403 19.08406,-12.06044 c 10.49623,-6.63324 20.73373,-12.74972 22.75,-13.59217 2.01627,-0.84245 3.66594,-1.90934 3.66594,-2.37087 0,-0.46153 1.34455,-8.19999 2.98788,-17.19659 l 2.98789,-16.35743 -10.54871,-19.10445 c -5.80179,-10.50744 -11.08384,-19.61171 -11.73788,-20.23171 -0.65405,-0.62 -7.39536,-3.18011 -14.98068,-5.68912 l -13.7915,-4.56185 -13.2085,2.92265 c -7.26468,1.60746 -13.546,2.93007 -13.9585,2.93912 -1.98154,0.0435 -0.19112,-2.30508 5.70055,-7.47767 6.55413,-5.75421 13.06788,-8.37545 21.04848,-8.47024 4.53324,-0.0538 33.65929,9.86397 36.20829,12.32942 1.21403,1.17423 7.40153,11.54931 13.75,23.05574 8.84634,16.03373 11.53137,21.75688 11.49428,24.5 -0.0266,1.96857 -1.30758,10.32922 -2.84656,18.57922 -1.53898,8.25 -2.61556,15.33763 -2.3924,15.75029 0.22316,0.41266 2.37465,-0.8955 4.78108,-2.90703 3.89342,-3.2545 5.50248,-6.14572 14.60914,-26.25029 5.6286,-12.42613 11.49948,-26.64297 13.0464,-31.59297 l 2.81259,-9 -0.23387,16 -0.23387,16 -8.28304,18.0697 c -7.24125,15.797 -8.97026,18.74838 -13.74705,23.46583 -3.09171,3.05331 -5.45809,6.27932 -5.45037,7.43031 0.0189,2.80712 1.08432,6.53416 1.86797,6.53416 0.35659,0 5.55455,-7.9875 11.55101,-17.75 15.61534,-25.42248 14.56737,-24.47853 14.56737,-13.12137 v 9.39834 l -10.54849,17.08379 -10.54849,17.08379 -26.00132,18.76161 c -14.30073,10.31889 -27.44141,19.16759 -29.20151,19.66378 -2.46141,0.6939 -71.57087,9.06265 -72.90621,8.82852 -0.16169,-0.0284 -12.1174,-4.49161 -26.56826,-9.91834 z m 27.77428,-1.93957 c -0.825,-0.46674 -2.625,-1.1236 -4,-1.45967 -2.08385,-0.50933 -2.00062,-0.37052 0.5,0.83393 3.20473,1.54359 6.00831,2.04483 3.5,0.62574 z m -251,-53.68653 c -12.375,-8.56369 -23.34366,-16.38909 -24.3748,-17.38976 -1.82853,-1.77451 -1.77299,-1.96158 2.25,-7.57963 2.26864,-3.16812 4.1248,-6.14507 4.1248,-6.61545 0,-0.47038 -7.90096,-6.73364 -17.5577,-13.91836 -9.65673,-7.18472 -17.41923,-13.61493 -17.25,-14.28935 0.45507,-1.81352 59.99737,-56.61147 61.51285,-56.61147 0.71217,0 1.29485,0.14331 1.29485,0.31846 0,0.17516 4.5,14.6793 10,32.23144 l 10,31.91296 v 19.40748 c 0,14.76256 -0.48137,22.3061 -2.01125,31.51857 -2.64888,15.95065 -2.81885,16.61325 -4.2578,16.59828 -0.67702,-0.007 -11.35595,-7.01947 -23.73095,-15.58317 z m 122.63692,5.488 c -0.85443,-1.21988 -1.26226,-2.70712 -0.90627,-3.30499 0.35598,-0.59787 8.23482,-10.88424 17.50852,-22.85861 12.50318,-16.14431 17.22755,-21.56661 18.27835,-20.97855 2.75105,1.53956 10.5724,11.54494 10.26926,13.13684 -0.38654,2.02986 -4.40791,2.67262 -6.39635,1.02236 -1.75824,-1.45922 0.20809,-3.29727 -19.88839,18.59093 -8.07965,8.8 -15.28007,16.13724 -16.00094,16.30499 -0.72086,0.16774 -2.00975,-0.6931 -2.86418,-1.91297 z"
             id="path1317"
             inkscape:connector-curvature="0" />
          <path
             style="fill:#d8ddc3"
             d="m -166.43426,1322.0739 c 5.09455,-7.921 68.03145,-88.0657 69.17926,-88.0938 1.38454,-0.034 146.6654,87.4123 148.99037,89.679 1.07831,1.0513 -19.03975,1.2884 -109.3482,1.2884 h -110.66963 z m 375.3482,1.8834 c -1.375,-0.4458 -2.05,-0.8844 -1.5,-0.9747 0.55,-0.09 -12.5,-3.7624 -29,-8.1601 -16.5,-4.3977 -30.36177,-8.3529 -30.80394,-8.7894 -0.44217,-0.4364 -5.72372,-27.9718 -11.73678,-61.1896 -6.01306,-33.2178 -11.19532,-61.6143 -11.51613,-63.1033 -0.51138,-2.3735 -0.14307,-2.8976 2.98677,-4.25 6.88574,-2.9755 10.10855,-4.6424 14.57008,-7.5361 2.475,-1.6053 6.62275,-3.8875 9.21722,-5.0717 2.59447,-1.1842 4.93669,-2.8915 5.20493,-3.794 0.26824,-0.9025 2.32827,-12.4409 4.57785,-25.6409 2.24958,-13.2 4.33484,-24.8179 4.6339,-25.8176 0.46668,-1.5599 37.27004,-32.7067 61.99889,-52.4699 5.8041,-4.6386 9.97997,-9.2222 15.92373,-17.4787 7.23378,-10.0484 9.035,-11.8633 17.63835,-17.7723 10.27627,-7.0581 13.52445,-8.1139 38.30513,-12.4518 l 9,-1.5754 9.96519,3.7828 9.96519,3.7828 7.35652,10.5001 c 12.56552,17.9348 11.26183,4.804 10.96837,110.4729 l -0.25527,91.9191 -8,4.2853 -8,4.2852 6.66821,0.019 c 7.63267,0.021 9.83179,0.6247 9.83179,2.6972 0,3.2091 -2.65661,3.9541 -18.25234,5.1188 -14.24653,1.0639 -16.31926,1.4625 -21.683,4.1701 -5.50256,2.7777 -7.93869,3.2118 -33.74767,6.0139 -15.29934,1.661 -29.72949,3.5283 -32.06699,4.1494 l -4.25,1.1293 v 10.4663 10.4663 l 8.56698,18.8979 c 5.65248,12.4689 8.45914,19.8355 8.25,21.6538 l -0.31698,2.7558 -21,0.1601 c -11.55,0.088 -22.125,-0.2046 -23.5,-0.6503 z m 100.17857,-0.3134 c 0.72679,-0.717 4.84101,-3.2412 9.14271,-5.6094 4.36243,-2.4017 8.20467,-5.2525 8.68821,-6.4464 0.47681,-1.1774 1.61247,-5.7406 2.5237,-10.1406 1.65711,-8.0017 6.06702,-16.7489 9.01403,-17.8798 0.79903,-0.3066 1.45278,-1.6124 1.45278,-2.9018 0,-1.3038 1.34291,-3.6309 3.02573,-5.2431 1.66416,-1.5944 2.83079,-3.4069 2.59252,-4.0278 -0.23826,-0.6209 -0.0504,-1.7483 0.41743,-2.5053 0.48085,-0.778 0.88638,11.1077 0.93285,27.3407 l 0.0822,28.717 h -19.59679 c -16.11622,0 -19.3621,-0.2315 -18.27537,-1.3035 z m -174.88693,-16.6001 c -3.52219,-2.5515 -4.09154,-3.5303 -4.6936,-8.0688 -0.76627,-5.7764 -2.50503,-6.3254 -3.83069,-1.2095 -0.45349,1.7501 -1.05459,3.182 -1.33578,3.182 -0.28119,0 -2.33065,-0.9282 -4.55436,-2.0627 -2.95168,-1.5058 -3.87484,-2.5011 -3.41976,-3.6871 0.92945,-2.4221 5.60878,-24.1449 6.19311,-28.7502 0.33177,-2.6148 -2.27462,-19.2375 -7.52628,-48 -4.41859,-24.2001 -12.55416,-69.0406 -18.07904,-99.6457 l -10.04524,-55.6456 v -18.5283 -18.5283 l 9.58292,-33.32606 9.58292,-33.32609 1.405,-20 1.40499,-20 -6.13522,-18.30041 -6.13522,-18.30042 3.34536,-3.45153 c 1.83995,-1.89834 3.71102,-3.08587 4.15793,-2.63896 0.44692,0.44692 3.73279,9.54732 7.30195,20.22311 7.28824,21.80007 7.34271,22.28255 5.47125,48.46821 -0.94757,13.25848 -1.50325,15.76018 -10.49122,47.23234 l -9.49066,33.23231 v 19.2576 19.2576 l 13.06138,72.5101 c 7.18377,39.8805 17.08377,94.7119 22,121.8474 4.91624,27.1356 8.93862,49.7481 8.93862,50.25 0,1.7151 -2.69729,0.9146 -6.70836,-1.991 z m -439.29164,-58.5963 c 0,-11.4193 0.27353,-14.4575 1.25,-13.884 3.30654,1.9418 12.75,9.7858 12.75,10.5905 0,1.0587 -11.51359,16.3748 -13.00003,17.2935 -0.64921,0.4012 -0.99997,-4.5096 -0.99997,-14 z m 290.85505,-40.75 c -1.92691,-1.5772 -29.46379,-162.8651 -28.18428,-165.0799 0.45608,-0.7894 29.85423,-33.9954 65.32923,-73.79095 35.475,-39.79559 65.67717,-73.68472 67.11593,-75.30917 l 2.61594,-2.95355 4.82574,14.59342 4.82574,14.59343 -1.13693,19.34833 c -1.09198,18.58339 -1.3296,20.00998 -6.01007,36.0834 -2.68022,9.20428 -5.17359,17.03551 -5.54081,17.40274 -0.36723,0.36722 -10.15986,-1.76356 -21.76141,-4.73506 l -21.09373,-5.40274 -8.1702,8.76429 -8.1702,8.76429 -16.5,6.82327 -16.5,6.8232 -3.72521,5.9125 c -9.8808,15.6823 -10.61759,17.4436 -13.37176,31.9655 -1.45483,7.6708 -2.85048,16.197 -3.10145,18.947 -0.31258,3.4251 2.20508,20.9061 7.99326,55.5 9.35956,55.9386 12.73529,77.3734 12.71721,80.75 -0.011,2.0492 -0.48566,2.25 -5.32092,2.25 -2.91988,0 -5.99612,-0.5625 -6.83608,-1.25 z m -52.85505,-23.2597 c -18.975,-11.2304 -34.91453,-21.0574 -35.42117,-21.8378 -0.65986,-1.0163 0.40392,-3.2758 3.75,-7.9649 2.56914,-3.6003 4.67117,-6.9943 4.67117,-7.5423 0,-0.5479 -5.175,-4.4866 -11.5,-8.7527 -6.325,-4.266 -11.5,-8.1022 -11.5,-8.5247 0,-0.785 21.81829,-29.9599 29.78733,-39.8309 9.8547,-12.2068 13.27232,-15.4892 14.99565,-14.4021 0.89435,0.5641 6.09774,8.1094 11.56309,16.7672 l 9.93701,15.7416 9.76728,40.8657 c 9.91169,41.4697 12.46723,56.0331 9.81713,55.9452 -0.75212,-0.025 -16.89249,-9.2339 -35.86749,-20.4643 z m 177,-80.9433 c 0,-1.3491 -1.575,-11.0453 -3.5,-21.547 -3.13811,-17.1199 -3.5,-20.9012 -3.5,-36.5706 v -17.4764 l 9.54621,-33.22654 9.54621,-33.22651 1.43928,-21.92381 1.43928,-21.92381 -7.58915,-22.94476 c -7.58266,-22.92514 -7.58744,-22.94645 -5.59426,-24.93964 1.76297,-1.76296 2.40926,-1.85812 5.55928,-0.81852 1.96042,0.64699 7.762,4.2301 12.8924,7.96246 5.1304,3.73237 10.25259,7.28094 11.38264,7.88572 2.30863,1.23554 49.27211,18.95377 53.77862,20.28942 2.96409,0.8785 77.48151,-7.29758 79.92359,-8.76925 2.87033,-1.72975 51.40978,-36.85243 53.4427,-38.67063 2.96473,-2.65159 16.22871,-24.23648 16.24851,-26.44171 0.008,-0.93801 0.45153,-2.38047 0.98469,-3.20547 0.64003,-0.99038 0.97458,7.09069 0.98469,23.78542 l 0.0153,25.28542 -6.70509,10.49363 -6.7051,10.49364 -31.5449,17.10283 c -17.3497,9.40655 -32.89491,17.83098 -34.54491,18.72094 -4.55671,2.45777 -9.00766,6.46095 -20.38593,18.33509 l -10.389,10.84176 1.10259,9.22064 c 0.60642,5.07135 1.81188,14.47282 2.67879,20.89217 1.52708,11.30791 1.5112,11.92611 -0.50968,19.84111 -4.08103,15.9838 -2.10765,14.0651 -27.51838,26.7556 -23.61815,11.7952 -27.54663,12.9735 -32.25588,9.6751 -2.0441,-1.4318 -2.2225,-2.3575 -2.2225,-11.5322 0,-6.3728 -0.51478,-11.2074 -1.42541,-13.3869 -1.41126,-3.3776 -22.99954,-36.05082 -24.38626,-36.90786 -0.97586,-0.60311 -11.11604,2.07873 -12.63908,3.34274 -0.67083,0.55673 -1.78385,2.72168 -2.47339,4.811 -1.20008,3.63628 -0.77942,5.27902 9.83522,38.40752 6.09891,19.0349 11.08892,34.8683 11.08892,35.1853 0,0.9598 -13.82114,7.0166 -25.42489,11.142 l -10.92489,3.884 -5.05246,10.8055 c -2.77886,5.9431 -5.40016,10.8056 -5.82511,10.8056 -0.42496,0 -0.77265,-1.1039 -0.77265,-2.453 z m 235.58224,-83.0471 c -1.62252,-5.3037 -21.70229,-34.49995 -23.72741,-34.49995 -1.05764,0 -2.93309,-1.74781 -4.44446,-4.14198 -2.80146,-4.4378 -2.80838,-3.81096 0.2112,-19.12785 0.3881,-1.96865 4.64366,-6.44048 14.71224,-15.45997 l 14.16619,-12.69015 0.26913,22.20997 c 0.43864,36.1988 -0.13777,67.13943 -1.18689,63.70993 z m -650.55196,-77.69093 c -0.0167,-0.93004 0.41972,-1.9691 0.96972,-2.30902 0.55,-0.33992 1,-1.96107 1,-3.60257 0,-2.05236 4.57483,-10.70118 14.64727,-27.69098 8.056,-13.58855 15.34201,-25.26895 16.19113,-25.95645 0.84912,-0.6875 2.50881,-1.25 3.68819,-1.25 1.17937,0 12.775,7.19405 25.76805,15.98678 l 23.62374,15.98679 2.3954,-3.23679 c 1.31747,-1.78023 7.25515,-9.98678 13.19483,-18.23678 5.93969,-8.25 11.83735,-16.40917 13.10591,-18.13148 1.26856,-1.72232 2.43675,-3.60899 2.59597,-4.1926 0.15923,-0.58361 -8.93549,-6.84832 -20.21049,-13.92159 -19.18951,-12.03835 -20.49772,-13.04886 -20.46439,-15.8074 0.0273,-2.2577 5.49422,-10.25569 23.3749,-34.19693 12.83661,-17.1875 23.75964,-31.25 24.27341,-31.25 1.47344,0 0.65672,1.16934 -23.20304,33.22099 -4.38949,5.89654 -7.98088,11.36276 -7.98088,12.14715 0,0.78439 -2.92842,5.39968 -6.5076,10.25621 -3.57918,4.85653 -6.36287,9.29032 -6.18597,9.85285 0.17689,0.56254 9.62797,6.8728 21.0024,14.0228 17.96456,11.29258 23.33604,15.5 19.78834,15.5 -1.22317,0 -13.09717,16.69608 -13.09717,18.41599 0,0.75236 -4.54206,7.75804 -10.09348,15.56816 -7.34347,10.33132 -10.54796,14.08137 -11.7616,13.764 -0.91747,-0.23993 -12.78341,-7.93141 -26.36876,-17.09219 -13.58534,-9.16078 -25.06146,-16.65596 -25.50249,-16.65596 -0.44103,0 -1.59291,1.6875 -2.55974,3.75 -0.96683,2.0625 -2.62633,5.1 -3.68779,6.75 -3.06269,4.76087 -4.3395,6.95388 -7.32094,12.57422 -1.53714,2.89767 -4.0334,7.10388 -5.54724,9.34714 -1.51384,2.24325 -3.07363,4.75364 -3.46621,5.57864 -0.39258,0.825 -1.57593,2.85 -2.62967,4.5 -1.05375,1.65 -1.95442,3.675 -2.00151,4.5 -0.12778,2.23922 -6.9951,13.77448 -7.03029,11.80902 z m 259.96972,-18.44964 c 0,-0.41726 4.28153,-8.50025 9.51451,-17.96221 8.54441,-15.44946 10.41475,-19.83892 18.34367,-43.05036 l 8.82916,-25.84681 -0.60611,-38.5 -0.60612,-38.5 -7.82339,-23.25796 -7.82339,-23.25797 -9.71678,-12.74203 c -5.34424,-7.00812 -12.06932,-16.22954 -14.94464,-20.49204 l -5.22786,-7.75 h 34.42349 c 26.61086,0 34.53466,0.2837 34.91334,1.25 1.96869,5.02364 37.46943,54.1832 49.4135,68.42523 10.09672,12.03924 14.29136,17.74403 13.57421,18.46118 -0.71714,0.71714 -1.24548,0.70191 -1.70974,-0.0493 -0.36954,-0.59792 -1.2596,-1.08713 -1.97792,-1.08713 -0.71831,0 -8.00425,8.77051 -16.19098,19.49002 -9.99871,13.09209 -15.43241,19.41124 -16.55268,19.25 C 39.82896,798.55546 29.5876,785.98413 17.98764,770.75117 6.38768,755.51822 -3.54934,742.77916 -4.09463,742.44216 c -1.57674,-0.97449 -1.17203,1.62401 1.45669,9.35274 2.3848,7.01163 2.46501,8.23803 3.10153,47.42516 l 0.65343,40.22739 -7.17449,21 c -3.94598,11.55 -8.09256,22.575 -9.21463,24.5 -2.59476,4.45149 -27.71292,38.81952 -28.91417,39.56194 -0.49489,0.30585 -0.89979,0.2147 -0.89979,-0.20256 z m 214.99647,-35.21341 -25.50353,-9.64597 -12.74647,-9.35492 c -7.01056,-5.14521 -12.74647,-9.82399 -12.74647,-10.3973 0,-0.5733 4.5,-5.88152 10,-11.79604 9.89244,-10.63801 11.0351,-12.51664 8.90736,-14.64438 -1.23541,-1.23541 0.41969,-5.30736 2.15724,-5.30736 0.54683,0 3.17771,1.72593 5.84639,3.83541 4.04793,3.1997 9.83831,5.53872 34.93515,14.11203 l 30.08299,10.27662 19.28543,-2.69917 c 10.60699,-1.48455 20.87809,-3.10177 22.82467,-3.59382 1.94657,-0.49206 12.43101,-6.48457 23.29875,-13.31669 10.86774,-6.83212 20.85574,-12.69717 22.19555,-13.03344 1.4277,-0.35833 2.63736,-1.53641 2.92245,-2.84617 1.35658,-6.23228 5.54143,-30.75687 5.52427,-32.37398 -0.0109,-1.02343 -4.90745,-10.61799 -10.88131,-21.32123 l -10.86155,-19.46043 -14.72314,-4.90771 -14.72314,-4.90772 -12.88556,2.79481 c -12.98051,2.81541 -16.15302,2.71788 -12.26072,-0.3769 1.16322,-0.92489 4.1401,-3.37916 6.61529,-5.45393 3.50118,-2.9348 6.15219,-4.13079 11.94047,-5.38689 l 7.44013,-1.61457 16.92964,5.76257 c 9.3113,3.16942 17.45143,6.26852 18.08918,6.88689 1.66118,1.61072 24.28468,42.55391 24.92648,45.11103 0.29479,1.17452 -0.86362,9.70184 -2.57424,18.94959 -1.71061,9.24774 -2.96217,17.54525 -2.78123,18.43889 0.24527,1.2114 1.65489,0.35262 5.54015,-3.37519 4.74305,-4.55085 6.15166,-7.09838 15.68064,-28.35924 5.75821,-12.84758 11.27479,-26.57258 12.25906,-30.5 l 1.7896,-7.14076 0.27662,14.11254 0.27662,14.11254 -8.70118,19.25808 c -8.00013,17.70645 -9.17181,19.71162 -14.54244,24.88745 l -5.84126,5.62939 0.65174,4.75 c 0.35846,2.6125 1.15308,4.74376 1.76582,4.73613 0.61275,-0.008 6.73908,-9.17161 13.61408,-20.36439 l 12.5,-20.3505 0.28604,8.75189 0.28603,8.75189 -10.78603,17.30907 -10.78604,17.30908 -24.5,17.83624 c -13.475,9.80994 -25.77275,18.52626 -27.32834,19.36961 -2.91848,1.58223 -65.96485,9.49965 -74.0316,9.29695 -2.6037,-0.0654 -13.6043,-3.6836 -29.64359,-9.75 z m 30.34066,-1.18513 c -1.1767,-1.14339 -23.40897,-8.22234 -23.99203,-7.63927 -0.37944,0.37944 14.37758,6.44601 21.6549,8.90226 1.90166,0.64185 3.44124,-0.19015 2.33713,-1.26299 z M -43.09604,839.75991 c -27.19717,-18.97135 -33.99002,-23.90304 -33.99002,-24.67716 0,-0.42575 1.80719,-3.19628 4.01599,-6.15673 2.20879,-2.96045 3.87858,-5.85422 3.71063,-6.43061 -0.16795,-0.57638 -7.93764,-6.77999 -17.26599,-13.78581 -9.32835,-7.00581 -16.96063,-13.38186 -16.96063,-14.16899 0,-1.96312 58.33491,-55.87049 59.83595,-55.29449 0.66164,0.2539 5.58171,14.41862 10.93351,31.47716 l 9.73054,31.01554 v 21.24322 c 0,16.86753 -0.42448,23.73787 -2.0608,33.35432 -1.13344,6.6611 -2.37543,12.43058 -2.75998,12.82107 -0.38454,0.39048 -7.21968,-3.8384 -15.1892,-9.39752 z m 113.6469,0.0796 c -0.85443,-1.21988 -1.26226,-2.70712 -0.90627,-3.30499 0.35598,-0.59787 8.2939,-10.9604 17.63982,-23.02786 l 16.99258,-21.94082 5.31667,5.94082 c 2.92417,3.26746 5.31748,6.74245 5.31847,7.72221 0.002,2.38331 -2.78874,3.33052 -5.26223,1.7858 -1.67851,-1.04825 -2.28333,-0.95328 -3.77138,0.59217 -0.97474,1.01236 -8.38289,9.04065 -16.46254,17.84065 -8.07965,8.8 -15.28007,16.13724 -16.00094,16.30499 -0.72086,0.16774 -2.00975,-0.6931 -2.86418,-1.91297 z m -234.63692,-81.9688 c 9.075,-9.08736 26.94311,-26.65474 39.70692,-39.03864 l 23.20692,-22.51617 -6.41752,-10.68422 c -4.45061,-7.40963 -5.95176,-10.68423 -4.8979,-10.68423 0.89401,0 1.22587,-0.47529 0.80609,-1.15451 -0.44563,-0.72104 -0.27393,-0.88282 0.45729,-0.4309 0.64395,0.39798 0.88083,1.19282 0.5264,1.76631 -0.35444,0.57349 -0.2385,1.3299 0.25764,1.6809 0.84737,0.5995 11.35416,17.86489 11.35416,18.65784 0,0.20192 -2.475,2.70789 -5.5,5.5688 -3.025,2.86092 -5.5,5.93328 -5.5,6.82747 0,2.37666 -17.50958,19.50522 -18.99846,18.58504 -1.45722,-0.90061 -17.00154,14.18089 -17.00154,16.49534 0,2.31828 -18.53993,20.40608 -19.99463,19.50703 -0.75108,-0.46419 -3.71792,1.64999 -7.8561,5.59827 -3.6571,3.48928 0.77573,-1.09097 9.85073,-10.17833 z m -139,5.51772 c 0,-0.96419 -0.47692,-1.28456 -1.25,-0.83967 -0.72624,0.41793 -0.90083,0.33791 -0.41667,-0.19099 0.45834,-0.50067 1.24584,-0.96657 1.75,-1.03532 0.50417,-0.0688 1.36667,-0.18125 1.91667,-0.25 0.55,-0.0688 1,-0.77448 1,-1.5683 0,-0.79381 0.80807,-2.03131 1.79571,-2.75 0.98764,-0.71868 2.82262,-2.99142 4.07774,-5.05051 1.25511,-2.0591 2.81085,-4.0841 3.45719,-4.5 0.64634,-0.41591 2.47256,-2.66869 4.05827,-5.00619 1.5857,-2.3375 3.27189,-4.25 3.74709,-4.25 0.4752,0 0.864,-0.59385 0.864,-1.31966 0,-0.72582 1.0125,-2.23099 2.25,-3.34483 1.2375,-1.11383 2.925,-3.06921 3.75,-4.34528 0.825,-1.27607 2.19141,-3.04982 3.03648,-3.94166 0.84506,-0.89183 2.56754,-3.28982 3.82773,-5.32886 1.26019,-2.03903 2.81878,-4.04762 3.46353,-4.46352 1.56881,-1.01199 5.67226,-6.92049 5.67226,-8.16741 0,-0.54571 7.425,-7.81265 16.5,-16.14874 9.075,-8.33609 16.5,-15.50967 16.5,-15.94129 0,-0.43163 0.69837,-1.05276 1.55194,-1.38031 0.85356,-0.32754 1.29805,-0.18474 0.98776,0.31733 -0.3103,0.50208 0.1884,1.05942 1.10822,1.23855 1.11961,0.21803 -4.19446,5.61429 -16.07701,16.32568 -16.97476,15.3017 -18.73135,17.25477 -40.24819,44.75 -12.37433,15.8125 -22.68416,28.75 -22.91075,28.75 -0.22658,0 -0.41197,-0.70156 -0.41197,-1.55902 z"
             id="path1315"
             inkscape:connector-curvature="0" />
          <path
             style="fill:#c4e9b1"
             d="m -167.6509,1324.0524 c 3.89926,-6.3092 69.0828,-88.6824 70.34182,-88.8918 0.94854,-0.1578 34.57427,19.5677 74.72382,43.8344 40.14956,24.2668 73.6742,44.5197 74.4992,45.0065 0.87668,0.5173 -44.54638,0.8978 -109.30902,0.9155 -64.9683,0.018 -110.58016,-0.3398 -110.25582,-0.8646 z m 302.36905,-16.644 c -3.23414,-2.119 -3.84373,-3.1734 -4.88011,-8.4412 -1.2906,-6.56 -2.63662,-7.7071 -3.56961,-3.0422 -0.9018,4.509 -2.41891,5.2173 -6.13497,2.8645 -1.77073,-1.1211 -3.21952,-2.4467 -3.21952,-2.9456 0,-0.4989 1.413,-7.3172 3.14,-15.1518 1.727,-7.8345 3.10175,-15.3696 3.05501,-16.7446 -0.0467,-1.375 -7.98473,-46.1612 -17.63999,-99.5248 L 87.91394,1067.398 v -21.9873 -21.9874 l 9.40694,-32.98793 9.40694,-32.98792 1.13121,-19 1.13122,-19 -5.53816,-16.46592 c -3.04598,-9.05626 -5.53815,-17.40957 -5.53815,-18.56291 0,-2.4519 5.47747,-8.12566 6.40136,-6.63077 0.34141,0.55241 3.59811,9.70181 7.23711,20.332 l 6.61636,19.3276 -1.17238,20.66927 -1.17237,20.66927 -9.45504,33.05724 -9.45504,33.05727 v 20.4688 20.4688 l 21.50347,119.3047 c 11.82691,65.6176 21.76266,120.5421 22.07946,122.0547 0.72216,3.4479 -0.75579,3.5018 -5.77872,0.2109 z m -439.80421,-58.2609 c 0,-7.81 0.3375,-14.1967 0.75,-14.1926 1.34463,0.013 12.25,9.1245 12.25,10.2345 0,0.8983 -9.25859,14.0211 -12.14082,17.2081 -0.48317,0.5342 -0.85918,-5.2645 -0.85918,-13.25 z m 590.4761,-11.5866 c -14.31315,-3.9688 -26.58774,-7.5644 -27.27686,-7.9903 -1.84818,-1.1422 -9.19937,-16.2075 -9.19842,-18.8509 4.5e-4,-1.2498 2.81324,-9.8172 6.25063,-19.0389 l 6.2498,-16.7666 17.25888,-23.9218 c 13.53222,-18.7564 21.38982,-28.4155 36.38993,-44.7333 30.3083,-32.9708 31.30206,-33.9631 31.65242,-31.6067 0.51008,3.4308 -2.50146,7.2281 -25.80248,32.5342 -18.3402,19.9185 -25.50465,28.6058 -38.75189,46.989 l -16.25189,22.5528 -5.99276,15.8595 c -3.29601,8.7228 -5.99516,16.6583 -5.9981,17.6345 -0.003,0.9762 1.56608,4.8954 3.48673,8.7093 3.21668,6.3875 3.82788,7.0236 7.75,8.0649 2.34185,0.6218 13.97512,3.7785 25.85171,7.0149 l 21.5938,5.8844 15.4062,-0.9481 c 20.25572,-1.2466 18.9062,-1.318 18.9062,0.9997 0,1.2348 -0.66952,2.0032 -1.75,2.0085 -1.69007,0.01 -20.03031,1.5067 -29.25,2.3898 -3.43811,0.3294 -10.64101,-1.2717 -30.5239,-6.7849 z m -351.33413,-53.0294 c -18.84711,-11.1545 -34.93414,-20.9476 -35.74894,-21.7625 -1.30861,-1.3086 -0.94454,-2.2108 3.12045,-7.7327 2.53104,-3.4381 4.46053,-7.0022 4.28775,-7.92 -0.17278,-0.9179 -5.14874,-4.9521 -11.05769,-8.9649 -5.90895,-4.0128 -10.73229,-7.8378 -10.71855,-8.5 0.054,-2.6033 41.01578,-54.7039 43.0085,-54.7039 0.40346,0 5.49089,7.5556 11.30541,16.7903 l 10.57185,16.7904 9.95053,41.9596 c 9.67892,40.8143 11.98574,52.8181 10.34512,53.8321 -0.43832,0.2709 -16.21732,-8.6339 -35.06443,-19.7884 z M -305.08606,943.00647 c 0,-0.51754 0.44485,-1.21592 0.98855,-1.55194 0.56686,-0.35034 0.7345,0.0511 0.39301,0.94098 -0.66479,1.73242 -1.38156,2.04939 -1.38156,0.61096 z M -41.5408,917.94745 c 1.50649,-3.025 5.63274,-10.67235 9.16943,-16.99412 5.0644,-9.05251 8.32619,-17.01514 15.35518,-37.48486 l 8.92483,-25.99074 -0.66228,-38.41454 -0.66228,-38.41454 -7.72116,-23.29234 -7.72116,-23.29234 -9.63678,-12.57455 c -5.30022,-6.916 -12.0692,-16.16722 -15.04217,-20.55826 l -5.4054,-7.98371 h 33.85983 33.85983 l 17.69706,25.75 c 10.23211,14.88817 23.75918,32.99269 32.06844,42.92014 7.90425,9.44358 14.37137,17.4033 14.37137,17.68827 0,0.28496 -1.20923,0.4334 -2.68717,0.32985 -2.3792,-0.16668 -4.41348,2.03924 -17.75,19.24759 -8.28456,10.68973 -15.50623,19.46473 -16.04815,19.5 -0.77847,0.0507 -37.49072,-46.94302 -42.83749,-54.83433 -0.70748,-1.04416 -1.79167,-1.71916 -2.40933,-1.5 -0.7567,0.2685 -0.21989,3.19876 1.6457,8.9833 2.76783,8.58208 2.76894,8.59738 3.48312,47.83291 l 0.71441,39.24808 -7.62856,22.88661 -7.62857,22.88661 -12.55161,17.28049 c -6.9034,9.50426 -13.66415,18.40548 -15.0239,19.78048 l -2.47228,2.5 z m 212.24028,-28.82073 c -25.37551,-9.55169 -25.87968,-9.79758 -38.25,-18.65541 -6.89455,-4.93687 -12.53554,-9.51316 -12.53554,-10.16953 0,-0.65637 4.5,-6.0577 10,-12.00297 5.5,-5.94527 10,-11.38758 10,-12.09404 0,-0.70645 -0.5537,-2.17108 -1.23045,-3.25472 -1.00596,-1.6108 -0.94707,-2.25365 0.3228,-3.52352 1.40433,-1.40433 2.02564,-1.17738 6.48045,2.36714 4.15108,3.30287 9.57512,5.51394 34.43465,14.03709 16.2291,5.56418 30.76147,10.11669 32.29417,10.11669 1.5327,0 11.85343,-1.3549 22.93497,-3.0109 l 20.14826,-3.0109 18.52053,-11.63953 c 10.18629,-6.40174 20.446,-12.49126 22.79936,-13.53226 2.7024,-1.1954 4.47105,-2.70578 4.80059,-4.09957 1.42312,-6.01909 5.47684,-29.53172 5.48516,-31.81538 0.005,-1.46238 -4.71913,-11.12888 -10.7524,-22 l -10.76191,-19.39146 -13.48809,-4.68081 c -7.41845,-2.57444 -14.66511,-4.71194 -16.1037,-4.75 -1.43859,-0.038 -7.59929,1.05581 -13.69046,2.43081 -6.09117,1.375 -11.57821,2.5 -12.19341,2.5 -1.7546,0 -0.30792,-1.67127 5.96692,-6.89324 4.80462,-3.99845 7.08887,-5.1283 13.12296,-6.49097 l 7.30577,-1.64985 16.81935,5.60589 c 9.25064,3.08325 17.45465,6.2412 18.23113,7.01767 0.77647,0.77648 6.89288,11.30602 13.59202,23.39899 l 12.18024,21.98721 -3.10945,16.90026 c -3.24667,17.64598 -3.62952,21.12404 -2.3253,21.12404 0.43129,0 3.07541,-2.3625 5.87584,-5.25 4.42056,-4.55801 6.38667,-8.14975 14.91664,-27.25 5.40374,-12.1 10.82611,-25.6 12.04972,-30 l 2.22475,-8 0.0745,13.9697 0.0744,13.96969 -8.59418,19.03031 c -7.7102,17.07289 -9.19974,19.6483 -14.48152,25.03856 l -5.88733,6.00825 0.62501,5.27725 c 0.36538,3.08506 1.07126,5.12849 1.69928,4.91915 1.02253,-0.34084 6.21223,-8.42259 20.31067,-31.62916 l 6.32806,-10.41625 v 9.60723 c 0,5.28398 -0.38337,9.84417 -0.85193,10.13376 -0.46856,0.28958 -5.28328,7.77071 -10.69938,16.62472 l -9.84746,16.09821 -26.37454,19.04724 c -14.506,10.47598 -27.12877,19.2281 -28.05062,19.44914 -3.08023,0.7386 -69.30598,8.37322 -72.01022,8.30147 -1.46622,-0.0389 -14.23736,-4.42641 -28.38031,-9.75 z m 30.3412,-0.65041 c 0.0116,-0.53413 -6.19967,-3.04742 -13.80283,-5.58511 -24.47219,-8.168 -25.55159,-7.40273 -2.38415,1.69031 13.21071,5.1851 16.14362,5.8908 16.18698,3.8948 z m -243.62674,-48.7175 c -26.75796,-18.71195 -32.64743,-23.03197 -33.13634,-24.30605 -0.27609,-0.71948 1.10414,-3.54375 3.06718,-6.27616 1.96304,-2.73241 3.56916,-5.66456 3.56916,-6.5159 0,-0.85133 -7.61362,-7.19419 -16.91915,-14.09524 -9.30553,-6.90104 -17.16609,-12.94691 -17.46791,-13.43527 -0.62648,-1.01366 59.2104,-56.69273 60.03745,-55.86569 0.29728,0.29729 4.99756,14.75952 10.44506,32.13829 l 9.90455,31.59776 -0.0623,19.72345 c -0.0491,15.54054 -0.52983,22.46397 -2.26677,32.64571 -1.21245,7.10724 -2.64691,13.04776 -3.18768,13.20116 -0.54078,0.1534 -6.83323,-3.81203 -13.98323,-8.81206 z m 113.51905,-0.2884 c -1.4126,-1.70208 -2.59003,0.0314 18.90176,-27.8289 7.93144,-10.28173 14.70811,-18.69406 15.05927,-18.69406 1.19299,0 10.01992,10.85867 10.01992,12.32626 0,2.19266 -3.05977,2.92962 -4.97336,1.19785 -0.92627,-0.83826 -1.93874,-1.52411 -2.24993,-1.52411 -0.3112,0 -8.08572,8.1 -17.27671,18 -9.19099,9.9 -17.05834,18 -17.483,18 -0.42466,0 -1.32374,-0.66467 -1.99795,-1.47704 z"
             id="path1313"
             inkscape:connector-curvature="0" />
          <path
             style="fill:#e8d28d"
             d="m -165.96015,1322.6925 c 1.44424,-1.2348 17.33621,-21.2575 35.31547,-44.495 17.97926,-23.2375 33.14806,-42.25 33.70843,-42.25 0.56038,0 32.74823,19.1846 71.52855,42.6325 38.78033,23.448 72.15487,43.455 74.16566,44.4602 3.56347,1.7813 0.86,1.8284 -106.84402,1.8624 l -110.5,0.035 2.62591,-2.245 z m 300.6783,-15.2841 c -3.23414,-2.119 -3.84373,-3.1734 -4.88011,-8.4412 -1.2906,-6.56 -2.63662,-7.7071 -3.56961,-3.0422 -0.9018,4.509 -2.41891,5.2173 -6.13497,2.8645 -1.77073,-1.1211 -3.21952,-2.4467 -3.21952,-2.9456 0,-0.4989 1.413,-7.3172 3.14,-15.1518 1.727,-7.8345 3.10175,-15.3696 3.05501,-16.7446 -0.0467,-1.375 -7.98473,-46.1612 -17.63999,-99.5248 L 87.91394,1067.398 v -21.9873 -21.9874 l 9.40694,-32.98793 9.40694,-32.98792 1.13121,-19 1.13122,-19 -5.53816,-16.46592 c -3.04598,-9.05626 -5.53815,-17.40957 -5.53815,-18.56291 0,-2.4519 5.47747,-8.12566 6.40136,-6.63077 0.34141,0.55241 3.59811,9.70181 7.23711,20.332 l 6.61636,19.3276 -1.17238,20.66927 -1.17237,20.66927 -9.45504,33.05724 -9.45504,33.05727 v 20.4688 20.4688 l 21.50347,119.3047 c 11.82691,65.6176 21.76266,120.5421 22.07946,122.0547 0.72216,3.4479 -0.75579,3.5018 -5.77872,0.2109 z m -439.80421,-58.9019 c 0,-7.4575 0.14705,-13.559 0.32677,-13.559 0.17973,0 2.53242,2.025 5.22821,4.5 2.69579,2.475 5.24874,4.5 5.67322,4.5 1.65198,0 0.57995,2.1307 -4.2282,8.4039 -2.75,3.588 -5,6.9633 -5,7.5008 0,0.5375 -0.45,1.2553 -1,1.5953 -0.64789,0.4004 -1,-4.1563 -1,-12.941 z m 589.85003,-11.912 c -14.10749,-3.9309 -26.29611,-7.7033 -27.08583,-8.3832 -0.78972,-0.6799 -3.13558,-4.8583 -5.21301,-9.2852 l -3.77717,-8.049 6.76269,-18.0275 6.76268,-18.0275 17.28817,-23.9106 c 14.49696,-20.0503 21.12261,-28.0724 41.03797,-49.6874 13.0624,-14.1771 24.34036,-26.1365 25.06214,-26.5763 0.91129,-0.5553 1.31233,-0.1919 1.31233,1.1894 0,1.2054 -9.39091,12.1938 -23.83482,27.8894 -19.0998,20.755 -26.91606,30.1538 -39.34492,47.3106 -8.53054,11.7757 -16.23233,22.5353 -17.11507,23.9103 -1.99448,3.1066 -13.70414,33.9481 -13.66822,36 0.0144,0.825 1.69953,4.6421 3.74464,8.4826 l 3.71839,6.9827 25,6.8401 c 27.22451,7.4488 28.7621,7.6211 52.25,5.8555 7.09753,-0.5336 9.25,-0.405 9.25,0.5528 0,0.6865 -1.0125,1.4507 -2.25,1.6983 -2.79921,0.5601 -29.64585,2.6254 -32.30224,2.485 -1.07127,-0.057 -13.49025,-3.3191 -27.59773,-7.25 z m -351.85003,-53.7718 c -18.425,-10.9602 -33.6289,-20.5047 -33.78644,-21.2099 -0.15754,-0.7053 1.23374,-3.281 3.09173,-5.7238 4.40454,-5.791 5.93257,-8.7477 5.16374,-9.9916 -0.3429,-0.5549 -5.27896,-4.1323 -10.96903,-7.9499 -5.69007,-3.8177 -10.60374,-7.3589 -10.91926,-7.8694 -1.07042,-1.732 38.98063,-53.1306 41.40065,-53.1306 0.42648,0 5.34807,7.2514 10.93686,16.1143 l 10.16145,16.1143 9.39883,39.6357 c 5.16935,21.7996 9.67598,41.8857 10.01474,44.6357 0.33876,2.75 0.82493,6.0125 1.08038,7.25 0.2935,1.4218 -0.003,2.2137 -0.8046,2.1514 -0.69798,-0.054 -16.34405,-9.066 -34.76905,-20.0262 z M -41.5408,917.94745 c 1.50649,-3.025 5.63274,-10.67235 9.16943,-16.99412 5.0644,-9.05251 8.32619,-17.01514 15.35518,-37.48486 l 8.92483,-25.99074 -0.66228,-38.41454 -0.66228,-38.41454 -7.72116,-23.29234 -7.72116,-23.29234 -9.63678,-12.57455 c -5.30022,-6.916 -12.0692,-16.16722 -15.04217,-20.55826 l -5.4054,-7.98371 h 33.85983 33.85983 l 17.69706,25.75 c 10.23211,14.88817 23.75918,32.99269 32.06844,42.92014 7.90425,9.44358 14.37137,17.4033 14.37137,17.68827 0,0.28496 -1.20923,0.4334 -2.68717,0.32985 -2.3792,-0.16668 -4.41348,2.03924 -17.75,19.24759 -8.28456,10.68973 -15.50623,19.46473 -16.04815,19.5 -0.77847,0.0507 -37.49072,-46.94302 -42.83749,-54.83433 -0.70748,-1.04416 -1.79167,-1.71916 -2.40933,-1.5 -0.7567,0.2685 -0.21989,3.19876 1.6457,8.9833 2.76783,8.58208 2.76894,8.59738 3.48312,47.83291 l 0.71441,39.24808 -7.62856,22.88661 -7.62857,22.88661 -12.55161,17.28049 c -6.9034,9.50426 -13.66415,18.40548 -15.0239,19.78048 l -2.47228,2.5 z m 212.24028,-28.82073 c -25.37551,-9.55169 -25.87968,-9.79758 -38.25,-18.65541 -6.89455,-4.93687 -12.53554,-9.51316 -12.53554,-10.16953 0,-0.65637 4.5,-6.0577 10,-12.00297 5.5,-5.94527 10,-11.38758 10,-12.09404 0,-0.70645 -0.5537,-2.17108 -1.23045,-3.25472 -1.00596,-1.6108 -0.94707,-2.25365 0.3228,-3.52352 1.40433,-1.40433 2.02564,-1.17738 6.48045,2.36714 4.15108,3.30287 9.57512,5.51394 34.43465,14.03709 16.2291,5.56418 30.76147,10.11669 32.29417,10.11669 1.5327,0 11.85343,-1.3549 22.93497,-3.0109 l 20.14826,-3.0109 18.52053,-11.63953 c 10.18629,-6.40174 20.446,-12.49126 22.79936,-13.53226 2.7024,-1.1954 4.47105,-2.70578 4.80059,-4.09957 1.42312,-6.01909 5.47684,-29.53172 5.48516,-31.81538 0.005,-1.46238 -4.71913,-11.12888 -10.7524,-22 l -10.76191,-19.39146 -13.48809,-4.68081 c -7.41845,-2.57444 -14.66511,-4.71194 -16.1037,-4.75 -1.43859,-0.038 -7.59929,1.05581 -13.69046,2.43081 -6.09117,1.375 -11.57821,2.5 -12.19341,2.5 -1.7546,0 -0.30792,-1.67127 5.96692,-6.89324 4.80462,-3.99845 7.08887,-5.1283 13.12296,-6.49097 l 7.30577,-1.64985 16.81935,5.60589 c 9.25064,3.08325 17.45465,6.2412 18.23113,7.01767 0.77647,0.77648 6.89288,11.30602 13.59202,23.39899 l 12.18024,21.98721 -3.10945,16.90026 c -3.24667,17.64598 -3.62952,21.12404 -2.3253,21.12404 0.43129,0 3.07541,-2.3625 5.87584,-5.25 4.42056,-4.55801 6.38667,-8.14975 14.91664,-27.25 5.40374,-12.1 10.82611,-25.6 12.04972,-30 l 2.22475,-8 0.0745,13.9697 0.0744,13.96969 -8.59418,19.03031 c -7.7102,17.07289 -9.19974,19.6483 -14.48152,25.03856 l -5.88733,6.00825 0.62501,5.27725 c 0.36538,3.08506 1.07126,5.12849 1.69928,4.91915 1.02253,-0.34084 6.21223,-8.42259 20.31067,-31.62916 l 6.32806,-10.41625 v 9.60723 c 0,5.28398 -0.38337,9.84417 -0.85193,10.13376 -0.46856,0.28958 -5.28328,7.77071 -10.69938,16.62472 l -9.84746,16.09821 -26.37454,19.04724 c -14.506,10.47598 -27.12877,19.2281 -28.05062,19.44914 -3.08023,0.7386 -69.30598,8.37322 -72.01022,8.30147 -1.46622,-0.0389 -14.23736,-4.42641 -28.38031,-9.75 z m 30.3412,-0.65041 c 0.0116,-0.53413 -6.19967,-3.04742 -13.80283,-5.58511 -24.47219,-8.168 -25.55159,-7.40273 -2.38415,1.69031 13.21071,5.1851 16.14362,5.8908 16.18698,3.8948 z M 70.93299,839.47041 c -1.4126,-1.70208 -2.59003,0.0314 18.90176,-27.8289 7.93144,-10.28173 14.70811,-18.69406 15.05927,-18.69406 1.19299,0 10.01992,10.85867 10.01992,12.32626 0,2.19266 -3.05977,2.92962 -4.97336,1.19785 -0.92627,-0.83826 -1.93874,-1.52411 -2.24993,-1.52411 -0.3112,0 -8.08572,8.1 -17.27671,18 -9.19099,9.9 -17.05834,18 -17.483,18 -0.42466,0 -1.32374,-0.66467 -1.99795,-1.47704 z"
             id="path1311"
             inkscape:connector-curvature="0" />
          <path
             style="fill:#b5e39d"
             d="m -165.96015,1322.6925 c 1.44424,-1.2348 17.33621,-21.2575 35.31547,-44.495 17.97926,-23.2375 33.14806,-42.25 33.70843,-42.25 0.56038,0 32.74823,19.1846 71.52855,42.6325 38.78033,23.448 72.15487,43.455 74.16566,44.4602 3.56347,1.7813 0.86,1.8284 -106.84402,1.8624 l -110.5,0.035 2.62591,-2.245 z m 300.63356,-17 c -2.09848,-1.7191 -3.0356,-3.7654 -4,-8.7344 -1.60096,-8.2488 -3.94288,-9.3107 -5.64303,-2.5588 -1.26222,5.0127 -1.91681,5.3832 -4.94469,2.7982 l -2.04982,-1.75 1.92893,-9 c 1.06091,-4.95 2.63801,-11.7371 3.50467,-15.0823 l 1.57575,-6.0822 -15.61712,-86.4178 c -8.58942,-47.5298 -16.71895,-92.4535 -18.06564,-99.8305 -2.0847,-11.4198 -2.44852,-16.4736 -2.44852,-34.0121 v -20.5993 l 9.58242,-33.48793 9.58242,-33.48792 1.10021,-19.30496 1.1002,-19.30497 -5.93262,-17.41473 -5.93263,-17.41473 2.63084,-2.63841 2.63083,-2.63842 6.64303,19.93029 6.64302,19.93029 -1.11914,19.42782 -1.11914,19.42782 -9.65472,33.5 -9.65472,33.50005 0.05,21.5 0.05,21.5 21.70002,119.2854 c 11.93497,65.607 21.69998,119.7195 21.69998,120.25 0,1.5233 -1.28204,1.1332 -4.24053,-1.2904 z m -439.75947,-57.186 c 0,-7.4575 0.14705,-13.559 0.32677,-13.559 0.17973,0 2.53242,2.025 5.22821,4.5 2.69579,2.475 5.24874,4.5 5.67322,4.5 1.65198,0 0.57995,2.1307 -4.2282,8.4039 -2.75,3.588 -5,6.9633 -5,7.5008 0,0.5375 -0.45,1.2553 -1,1.5953 -0.64789,0.4004 -1,-4.1563 -1,-12.941 z m 589.85003,-11.912 c -14.10749,-3.9309 -26.29611,-7.7033 -27.08583,-8.3832 -0.78972,-0.6799 -3.13558,-4.8583 -5.21301,-9.2852 l -3.77717,-8.049 6.76269,-18.0275 6.76268,-18.0275 17.28817,-23.9106 c 14.49696,-20.0503 21.12261,-28.0724 41.03797,-49.6874 13.0624,-14.1771 24.34036,-26.1365 25.06214,-26.5763 0.91129,-0.5553 1.31233,-0.1919 1.31233,1.1894 0,1.2054 -9.39091,12.1938 -23.83482,27.8894 -19.0998,20.755 -26.91606,30.1538 -39.34492,47.3106 -8.53054,11.7757 -16.23233,22.5353 -17.11507,23.9103 -1.99448,3.1066 -13.70414,33.9481 -13.66822,36 0.0144,0.825 1.69953,4.6421 3.74464,8.4826 l 3.71839,6.9827 25,6.8401 c 27.22451,7.4488 28.7621,7.6211 52.25,5.8555 7.09753,-0.5336 9.25,-0.405 9.25,0.5528 0,0.6865 -1.0125,1.4507 -2.25,1.6983 -2.79921,0.5601 -29.64585,2.6254 -32.30224,2.485 -1.07127,-0.057 -13.49025,-3.3191 -27.59773,-7.25 z m -351.85003,-53.7718 c -18.425,-10.9602 -33.6289,-20.5047 -33.78644,-21.2099 -0.15754,-0.7053 1.23374,-3.281 3.09173,-5.7238 4.40454,-5.791 5.93257,-8.7477 5.16374,-9.9916 -0.3429,-0.5549 -5.27896,-4.1323 -10.96903,-7.9499 -5.69007,-3.8177 -10.60374,-7.3589 -10.91926,-7.8694 -1.07042,-1.732 38.98063,-53.1306 41.40065,-53.1306 0.42648,0 5.34807,7.2514 10.93686,16.1143 l 10.16145,16.1143 9.39883,39.6357 c 5.16935,21.7996 9.67598,41.8857 10.01474,44.6357 0.33876,2.75 0.82493,6.0125 1.08038,7.25 0.2935,1.4218 -0.003,2.2137 -0.8046,2.1514 -0.69798,-0.054 -16.34405,-9.066 -34.76905,-20.0262 z M -29.7732,898.94745 c 3.72829,-7.02794 8.44953,-18.92257 14.2777,-35.97102 L -6.788,837.50541 -7.50036,798.76186 -8.21273,760.0183 -15.5078,738.1817 c -4.01229,-12.01013 -7.87234,-22.93857 -8.57789,-24.28543 -0.70554,-1.34685 -5.87142,-8.52382 -11.47973,-15.94882 -5.6083,-7.425 -11.50684,-15.525 -13.10785,-18 -1.60102,-2.475 -3.58636,-5.0519 -4.41187,-5.72643 -1.19078,-0.97302 5.50487,-1.17965 32.40403,-1 29.88144,0.19956 33.93215,0.41207 34.13426,1.79075 0.48799,3.32885 34.48744,51.20582 46.65425,65.69706 l 12.81342,15.26139 -5.83119,7.23861 c -3.20716,3.98124 -10.43638,13.21057 -16.06495,20.50962 -5.62856,7.29906 -10.61349,13.03632 -11.07761,12.74947 -0.46412,-0.28684 -10.8061,-13.57129 -22.98217,-29.521 -12.17607,-15.94971 -22.58278,-28.99947 -23.12602,-28.99947 -2.13517,0 -1.82815,2.89408 1.22145,11.51391 l 3.17918,8.98609 0.72687,39.5 0.72688,39.5 -7.45909,22.70874 -7.45908,22.70875 -8.48004,11.79125 c -11.39728,15.8476 -12.68008,16.75475 -6.06825,4.29126 z m 201.09465,-10.93797 c -25.48856,-9.57163 -26.35653,-9.98975 -37.5,-18.06476 -6.27413,-4.54649 -11.8068,-8.6276 -12.29482,-9.06912 -0.48802,-0.44152 3.78698,-5.81167 9.5,-11.93366 5.71302,-6.12198 10.53925,-11.80868 10.72496,-12.63709 0.18571,-0.82841 -0.4061,-2.32805 -1.31514,-3.33253 -3.18575,-3.52021 0.46879,-3.27292 4.86468,0.32918 3.50266,2.87017 9.99048,5.47248 34.92813,14.00995 l 30.62643,10.48503 22.44172,-3.27795 22.44171,-3.27795 19.99148,-12.60343 c 10.99531,-6.93189 21.17152,-12.89961 22.61379,-13.2616 1.44227,-0.36199 3.01984,-1.40096 3.50572,-2.30883 0.48588,-0.90787 2.27331,-9.27892 3.97208,-18.60234 l 3.08867,-16.95167 -7.48966,-13.68048 c -4.11932,-7.52427 -9.22555,-16.76396 -11.3472,-20.53264 l -3.85754,-6.85214 -15.20034,-5.20858 -15.20034,-5.20859 -11.07593,2.50024 c -6.09176,1.37514 -11.26269,2.31349 -11.49095,2.08522 -0.22826,-0.22826 1.74049,-2.18824 4.37501,-4.35551 4.71333,-3.8774 11.71681,-6.31278 18.1538,-6.31278 2.18426,0 26.20551,7.55146 33.37115,10.49075 2.56304,1.05134 25.76508,43.41939 25.76508,47.04828 0,1.62717 -1.38106,10.55549 -3.06903,19.8407 -3.86897,21.28253 -3.03657,22.6729 7.15166,11.94544 3.77131,-3.97092 6.40177,-8.89353 14.85797,-27.80504 7.5636,-16.91531 10.51676,-24.6846 11.19013,-29.43943 0.50313,-3.55275 1.12955,-6.67431 1.39203,-6.93679 0.26248,-0.26248 0.47724,5.64061 0.47724,13.11799 0,10.86876 -0.30678,13.90203 -1.52973,15.12497 -0.84135,0.84135 -4.91793,9.086 -9.05906,18.32143 -6.71769,14.9816 -8.17784,17.44955 -13.54534,22.89435 l -6.01601,6.10265 0.70428,7.14735 c 0.44736,4.54003 1.14598,7.14735 1.91508,7.14735 1.2471,0 23.1669,-34.7543 25.85901,-41 l 1.50862,-3.5 0.0816,8.16821 c 0.0813,8.14493 -0.51154,11.7013 -1.81628,10.89493 -0.37855,-0.23396 -5.19549,6.84539 -10.70432,15.73189 l -10.01605,16.15728 -25.94089,18.77917 c -14.26751,10.32855 -26.84091,18.99114 -27.94091,19.2502 -2.01942,0.4756 -71.57273,8.58219 -72.5,8.45003 -0.275,-0.0392 -12.24162,-4.48055 -26.59249,-9.86968 z m 32.59249,1.02977 c 0,-2.09253 1.86418,-1.3472 -32.91246,-13.15885 -11.22685,-3.81312 -21.04734,-6.93295 -21.82332,-6.93295 -0.79718,0 -1.26648,0.74973 -1.07893,1.72363 0.24036,1.24809 7.08896,4.27014 24.82333,10.9537 25.25236,9.51686 30.99138,10.88988 30.99138,7.41447 z m 68.9374,-9.11171 c 1.89056,-1.61625 3.12997,-3.24606 2.75422,-3.6218 -1.35752,-1.35753 -11.13667,4.11258 -10.16447,5.68564 1.06363,1.72099 3.91048,0.92811 7.41025,-2.06384 z M 71.91394,837.94371 c 0,-1.20999 32.10561,-42.99626 33.03528,-42.99626 0.3584,0 2.57093,2.27616 4.91672,5.05813 4.2416,5.03029 4.7223,7.46858 1.01609,5.15402 -1.06752,-0.66668 -2.52548,-1.21215 -3.23991,-1.21215 -0.71443,0 -8.48304,7.83852 -17.26357,17.41893 -14.58351,15.91202 -18.46461,19.39643 -18.46461,16.57733 z"
             id="path1309"
             inkscape:connector-curvature="0" />
          <path
             style="fill:#e4ca74"
             d="m 134.67341,1305.6925 c -2.09848,-1.7191 -3.0356,-3.7654 -4,-8.7344 -1.60096,-8.2488 -3.94288,-9.3107 -5.64303,-2.5588 -1.26222,5.0127 -1.91681,5.3832 -4.94469,2.7982 l -2.04982,-1.75 1.92893,-9 c 1.06091,-4.95 2.63801,-11.7371 3.50467,-15.0823 l 1.57575,-6.0822 -15.61712,-86.4178 c -8.58942,-47.5298 -16.71895,-92.4535 -18.06564,-99.8305 -2.0847,-11.4198 -2.44852,-16.4736 -2.44852,-34.0121 v -20.5993 l 9.58242,-33.48793 9.58242,-33.48792 1.10021,-19.30496 1.1002,-19.30497 -5.93262,-17.41473 -5.93263,-17.41473 2.63084,-2.63841 2.63083,-2.63842 6.64303,19.93029 6.64302,19.93029 -1.11914,19.42782 -1.11914,19.42782 -9.65472,33.5 -9.65472,33.50005 0.05,21.5 0.05,21.5 21.70002,119.2854 c 11.93497,65.607 21.69998,119.7195 21.69998,120.25 0,1.5233 -1.28204,1.1332 -4.24053,-1.2904 z M -29.7732,898.94745 c 3.72829,-7.02794 8.44953,-18.92257 14.2777,-35.97102 L -6.788,837.50541 -7.50036,798.76186 -8.21273,760.0183 -15.5078,738.1817 c -4.01229,-12.01013 -7.87234,-22.93857 -8.57789,-24.28543 -0.70554,-1.34685 -5.87142,-8.52382 -11.47973,-15.94882 -5.6083,-7.425 -11.50684,-15.525 -13.10785,-18 -1.60102,-2.475 -3.58636,-5.0519 -4.41187,-5.72643 -1.19078,-0.97302 5.50487,-1.17965 32.40403,-1 29.88144,0.19956 33.93215,0.41207 34.13426,1.79075 0.48799,3.32885 34.48744,51.20582 46.65425,65.69706 l 12.81342,15.26139 -5.83119,7.23861 c -3.20716,3.98124 -10.43638,13.21057 -16.06495,20.50962 -5.62856,7.29906 -10.61349,13.03632 -11.07761,12.74947 -0.46412,-0.28684 -10.8061,-13.57129 -22.98217,-29.521 -12.17607,-15.94971 -22.58278,-28.99947 -23.12602,-28.99947 -2.13517,0 -1.82815,2.89408 1.22145,11.51391 l 3.17918,8.98609 0.72687,39.5 0.72688,39.5 -7.45909,22.70874 -7.45908,22.70875 -8.48004,11.79125 c -11.39728,15.8476 -12.68008,16.75475 -6.06825,4.29126 z m 201.09465,-10.93797 c -25.48856,-9.57163 -26.35653,-9.98975 -37.5,-18.06476 -6.27413,-4.54649 -11.8068,-8.6276 -12.29482,-9.06912 -0.48802,-0.44152 3.78698,-5.81167 9.5,-11.93366 5.71302,-6.12198 10.53925,-11.80868 10.72496,-12.63709 0.18571,-0.82841 -0.4061,-2.32805 -1.31514,-3.33253 -3.18575,-3.52021 0.46879,-3.27292 4.86468,0.32918 3.50266,2.87017 9.99048,5.47248 34.92813,14.00995 l 30.62643,10.48503 22.44172,-3.27795 22.44171,-3.27795 19.99148,-12.60343 c 10.99531,-6.93189 21.17152,-12.89961 22.61379,-13.2616 1.44227,-0.36199 3.01984,-1.40096 3.50572,-2.30883 0.48588,-0.90787 2.27331,-9.27892 3.97208,-18.60234 l 3.08867,-16.95167 -7.48966,-13.68048 c -4.11932,-7.52427 -9.22555,-16.76396 -11.3472,-20.53264 l -3.85754,-6.85214 -15.20034,-5.20858 -15.20034,-5.20859 -11.07593,2.50024 c -6.09176,1.37514 -11.26269,2.31349 -11.49095,2.08522 -0.22826,-0.22826 1.74049,-2.18824 4.37501,-4.35551 4.71333,-3.8774 11.71681,-6.31278 18.1538,-6.31278 2.18426,0 26.20551,7.55146 33.37115,10.49075 2.56304,1.05134 25.76508,43.41939 25.76508,47.04828 0,1.62717 -1.38106,10.55549 -3.06903,19.8407 -3.86897,21.28253 -3.03657,22.6729 7.15166,11.94544 3.77131,-3.97092 6.40177,-8.89353 14.85797,-27.80504 7.5636,-16.91531 10.51676,-24.6846 11.19013,-29.43943 0.50313,-3.55275 1.12955,-6.67431 1.39203,-6.93679 0.26248,-0.26248 0.47724,5.64061 0.47724,13.11799 0,10.86876 -0.30678,13.90203 -1.52973,15.12497 -0.84135,0.84135 -4.91793,9.086 -9.05906,18.32143 -6.71769,14.9816 -8.17784,17.44955 -13.54534,22.89435 l -6.01601,6.10265 0.70428,7.14735 c 0.44736,4.54003 1.14598,7.14735 1.91508,7.14735 1.2471,0 23.1669,-34.7543 25.85901,-41 l 1.50862,-3.5 0.0816,8.16821 c 0.0813,8.14493 -0.51154,11.7013 -1.81628,10.89493 -0.37855,-0.23396 -5.19549,6.84539 -10.70432,15.73189 l -10.01605,16.15728 -25.94089,18.77917 c -14.26751,10.32855 -26.84091,18.99114 -27.94091,19.2502 -2.01942,0.4756 -71.57273,8.58219 -72.5,8.45003 -0.275,-0.0392 -12.24162,-4.48055 -26.59249,-9.86968 z m 32.59249,1.02977 c 0,-2.09253 1.86418,-1.3472 -32.91246,-13.15885 -11.22685,-3.81312 -21.04734,-6.93295 -21.82332,-6.93295 -0.79718,0 -1.26648,0.74973 -1.07893,1.72363 0.24036,1.24809 7.08896,4.27014 24.82333,10.9537 25.25236,9.51686 30.99138,10.88988 30.99138,7.41447 z m 68.9374,-9.11171 c 1.89056,-1.61625 3.12997,-3.24606 2.75422,-3.6218 -1.35752,-1.35753 -11.13667,4.11258 -10.16447,5.68564 1.06363,1.72099 3.91048,0.92811 7.41025,-2.06384 z M 71.91394,837.94371 c 0,-1.20999 32.10561,-42.99626 33.03528,-42.99626 0.3584,0 2.57093,2.27616 4.91672,5.05813 4.2416,5.03029 4.7223,7.46858 1.01609,5.15402 -1.06752,-0.66668 -2.52548,-1.21215 -3.23991,-1.21215 -0.71443,0 -8.48304,7.83852 -17.26357,17.41893 -14.58351,15.91202 -18.46461,19.39643 -18.46461,16.57733 z"
             id="path1307"
             inkscape:connector-curvature="0" />
        </g>
      </g>
    </g>
  </g>
</svg>
