<svg viewBox="0 0 64 64" xmlns="http://www.w3.org/2000/svg"><g stroke-width=".32"><path d="M0 .002v28.543a11.42 11.42 0 0 0 0 1.047v34.41h62.914c.278.069.492.06.662 0H64v-.362c.019-.066.03-.141.035-.22.065-.26.069-.577.03-.918A4.04 4.04 0 0 0 64 61.92V32.168c0-.978.006-1.955.006-2.932 0-.36 0-.719.002-1.078l.002-.654v-.181c-.004-9.106-.033-18.213-.01-27.32H0z" fill="#ff7f2a"/><path d="M0 48.912v-15.09c10.186.323 20.561.874 30.48-1.957 1.832-.613 4.42 2.078 4.94-1.053 3.265-.175 2.183-4.045-.718-2.504-2.767-1.473-.355-4.81-1.195-7.301-.213-3.699 3.966-6.7 7.261-4.67 3.207 1.72 3.181 6.514.43 8.668-.748.768-2.446 2.134-.422 1.071 4.222-1.307 4.875-7.465 1.525-10.085-3.128-3.047-8.861-1.129-9.726 3.097-.271 1.42-.314 4.867-1.115 1.513-1.813-5.747-2.974-11.7-4.963-17.384-3.387-.958-.725 4.38-.53 6.223 1.582 6.421 3.47 12.768 5.3 19.113-1.711 1.99-5.433 1.711-8.021 2.444-7.718.804-15.497.544-23.245.743V0h64c-.056 18.407.147 36.817-.182 55.221.08 3.372-3.682-1.514-5.248-1.933-5.66-3.88-11.19-7.981-16.019-12.882-2.807-1.412-4.135-4.374-6.465-6.16-3.464.925 1.372 4.642 2.238 6.482 5.018 6.945 12.7 11.114 19.52 16.016 2.051 1.398 4.104 2.794 6.156 4.19-.13.953.251 2.417-.181 3.067H0V48.912z" fill="#558872"/><path d="M0 49.012V34.006c9.495-.081 19.114.633 28.466-1.359 1.937-.672 4.024-1.43 5.447.249 1.95-.395 1.17-3.019 3.706-3.013 1.756-3.7-4.931.298-4.404-3.684 1.062-2.538-.55-5.648 1.131-8.165 1.754-3.431 7.257-2.795 8.52.72 1.61 3.247-1.497 6.161-3.435 8.15 3.187-.386 5.553-3.634 5.22-6.754-.236-3.354-3.275-6.091-6.672-5.684-3.663-.459-5.143 4.113-6.399 5.838-1.647-5.727-2.773-11.628-4.882-17.208-3.914-1.893-1.141 4.25-.833 6.286 1.606 6.475 3.5 12.881 5.374 19.272-1.562 1.443-4.983 1.296-7.254 2.165-7.937 1.206-15.989.692-23.985.721V.017h64c-.055 18.407.148 36.817-.182 55.221.072 3.372-3.71-1.534-5.284-1.959-5.678-3.885-11.207-8.022-15.966-13.02-2.924-1.299-4.365-4.358-6.422-6.333-4.201.322 1.039 4.482 1.652 6.307C43.311 47.675 51.506 52.36 58.956 57.6c1.679 1.127 3.36 2.25 5.04 3.376-.13.942.256 2.4-.177 3.04H-.001V49.011z" fill="#496782"/><path d="M24.816-.074c-1.346-.116-.872 2.957-1.691 4.351-.218-.042-.45-.53-.666-1.117-.335-1.032-.534-2.118-.84-3.156h-3.457V.002H0v31.712c.488-.077.976-.13 1.465-.182 2.836-.015 5.673-.008 8.51-.02 1.58.16 3.4.445 4.158-.058.733-.014 1.467-.02 2.2-.043.026.014.048.033.073.047 1.69.377 3.421-.003 5.127-.301.285-.02.569-.035.854-.057.254-.035.51-.092.765-.134.94.056 1.592-.094 2.012-.395a30.558 30.558 0 0 0 4.52-1.414c.518.19 1.229-.01 1.31-.549.014-.007.03-.01.045-.018l-.035-.113a.874.874 0 0 0-.041-.234c-.193-.571-.366-1.149-.551-1.723a389.936 389.936 0 0 1-3.602-12.598c-.235-.902-.472-1.803-.705-2.705-.445-2.39-1.416-4.77-1.637-7.19.245-1.446 1.179-2.403 2.432-.466 1.69 4.606 2.746 9.412 4.043 14.145.134.678.28 1.265.453 1.61.121.416.226.837.354 1.251.146-.539.33-1.084.54-1.621.009-.019.016-.027.024-.047.009-.036.026-.07.035-.105.409-1.002.945-1.954 1.664-2.715a6.936 6.936 0 0 1 2.616-1.533c.028-.007.055-.016.084-.022.157-.058.315-.094.474-.137a6.361 6.361 0 0 1 2.018-.14c.177.021.355.042.53.08l.023.004.01.002a6.334 6.334 0 0 1 1.978.828c.13.09.264.175.388.28.128.082.246.174.364.265a6.703 6.703 0 0 1 1.467 1.717c.072.121.13.25.193.377.835 1.82.75 4.057-.137 5.904-.958 1.625-2.756 2.756-4.54 3.408.116-.344.43-.747.814-1.185a16.866 16.866 0 0 0 1.595-1.801c.926-1.129 1.681-2.42 1.397-3.823a4.239 4.239 0 0 0-.203-1.002 4.225 4.225 0 0 0-.713-1.513c-.04-.062-.086-.117-.13-.176-.042-.053-.081-.107-.126-.158-.653-.816-1.564-1.333-2.557-1.553-1.395-.374-2.922-.178-4.08.783-.307.22-.58.484-.82.783-.069.079-.123.16-.184.24-.028.043-.064.078-.091.122-.756 1.092-.83 2.384-.805 3.697a33.915 33.915 0 0 0-.098 3.17 4.551 4.551 0 0 1-.252.895c-.054.913.15 1.542.522 1.962.376.73 1.347.832 2.375.668a7.281 7.281 0 0 0 1.154-.193c1.418.987.688 1.67-.25 2.36l-.02.015c-.577.423-1.218.848-1.51 1.352l-.01.01-.001.01a1.14 1.14 0 0 0-.12.292c-1.465 2.194-2.507-.485-3.808-.119-.038.012-.077.02-.115.031-.23-.02-.426.014-.52.147-.31.09-.62.179-.931.261.051-.09-.158-.076-1.033.256l-.002.004c-5.163 1.25-10.458 1.638-15.771 1.692h-.034c-1.873.009-3.745-.018-5.617-.043a662.736 662.736 0 0 1-4.926-.13c-1.148-.161-2.237-.284-2.38.216-.113.095-.098.196.003.296.029.105.076.222.153.358.41.076.824.13 1.236.184 1.067.254 2.392.396 2.955.234.137.005.274.013.41.017.928.078 1.954.066 2.993.041 1.328.007 2.657.021 3.98.102.373.053.717.13 1.031.234-.017.059-.108.106-.209.15-3.368.476-6.796.332-10.21.302.017-.077-.373-.145-1.374-.043l-.14.046c-.353.003-.707-.006-1.059.002v27.699c18.9-.02 37.8.056 56.7-.076 1.995-.457 7.146.907 6.874-1.107-.388-.298-.569-.481-.654-.621.127-.336.804-.51.883-1.084a1.05 1.05 0 0 0 .011-.256l-.004-.002a37.3 37.3 0 0 1-2.232-1.272c-.43-.263-.85-.542-1.273-.818-.277-.18-.558-.355-.832-.539-.704-.473-1.4-.955-2.096-1.437-.694-.483-1.39-.963-2.084-1.438-.254-.2-.514-.387-.772-.58-.84-.667-1.72-1.267-2.609-1.85l-.07-.047-.403-.267c-.917-.608-1.837-1.213-2.754-1.834-.283-.198-.571-.386-.85-.594-.584-.41-1.155-.84-1.718-1.277a47.863 47.863 0 0 1-1.701-1.393l-.074-.062a48.013 48.013 0 0 1-3.493-3.34l-.015-.016-.012-.011a49.57 49.57 0 0 1-5.557-7.145c-.127-.2-.262-.392-.386-.594.05-.567-.205-1.058-.543-1.41.383-.899 1.809-1.409 2.613-.572.032.452.292.956.764 1.473.258.477.565.898.91 1.275.678.877 1.591 1.475 2.535 2.05.981.678 1.973 1.36 2.787 2.296a54.19 54.19 0 0 0 3.266 3.187c1.77 1.67 3.689 3.176 5.666 4.613l.072.053.258.19a185.004 185.004 0 0 0 5.521 3.904c.009.003.02.01.028.014l.086.06 1.88 1.305c.803.675 1.616 1.366 2.231 1.547l.887.615c.004-1.302.012-2.603.017-3.904.22-10.134.13-20.274.125-30.412.019-.43.025-.843.002-1.227 0-1.286-.005-2.573 0-3.86.454-2.114-.964-.468-1.867.141-.202.158-.41.307-.613.463a117.45 117.45 0 0 0-4.078 2.979c-3.541 2.443-7.247 4.639-11.117 6.51-.136.008-.495.15-1.19.529-.069.044-.142.084-.215.125-.47.215-.94.43-1.416.635-.054-.055-.408.062-1.248.52l-.023.013c-.757.31-1.516.62-2.285.904-.457.136-.777.198-.994.21-.118-.289-.05-.568.158-.839.377-.34.903-.72 1.42-1.04.416-.226.861-.438 1.326-.651l.006-.002.01-.006c1.052-.483 2.115-.948 2.695-1.377.058-.031.075-.043.129-.072a118.49 118.49 0 0 0 4.398-2.455c-.458.392.576-.215 1-.46.563-.365.836-.578.94-.693.146-.09.29-.183.435-.273.07.02.847-.437 1.186-.633.628-.408.895-.628.963-.727a93.936 93.936 0 0 0 3.796-2.63l-.439.396c1.34-.887 2.6-1.927 3.842-2.994a79.866 79.866 0 0 0 3.197-2.7v-6.54c.019-.849.01-1.7 0-2.551V.003H26.924c.014.127.037.252.053.378a6.402 6.402 0 0 0-.815.262c-.585-.473-1.019-.688-1.345-.717zm-.002 11.758c.352-.107 1.512 5.023 1.947 6.322.349 1.378.752 2.75 1.057 4.14.102.464.192.93.266 1.399-1.7-3.684-2.476-7.796-3.33-11.768.015-.056.037-.087.06-.094zm-3.951.925c.283.382.198.888-.115 1.452-.93 1.267-2.07 2.382-3.264 3.449-.24.206-.525.454-.705.611-.646.476-1.243 1-1.815 1.547-1.152.868-1.998 2.023-2.761 3.234a29.986 29.986 0 0 0-1.791 2.873c-.37.553-.756 1.084-1.194 1.55-.196 1.133-.593 1.855-1.246 2.368 1.729-3.542 2.97-7.578 6.115-10.176 2.542-1.9 5.16-3.868 6.56-6.797.072-.038.157-.073.216-.11zm-1.96 7.86a7.32 7.32 0 0 1 .981.054c.154.021.308.04.46.069.11.02.223.041.333.066 1.39.326 2.533.974 2.58 1.71-2.718-1.985-6.841-1.994-8.87 1.01-1.196.78-1.36 3.952-1.49 4.212-.019-.112-.038-.224-.05-.338-.005-.053-.008-.107-.011-.16a6.269 6.269 0 0 1-.014-.674c.065-1.372.6-2.665 1.474-3.709.056-.057.106-.12.165-.174a5.42 5.42 0 0 1 .373-.41 6.575 6.575 0 0 1 1.584-1.104c.024-.016.054-.029.08-.044a6.217 6.217 0 0 1 2.406-.508zm-5.776 7.834c.043-.007.143.167.33.642.026.21.027.287.04.432a5.146 5.146 0 0 1-.386-.898c-.005-.088-.008-.173.016-.176zm33.47 1.834c.192.169.602.318 1.35.435.65.03 1.252.174 1.8.409a5.182 5.182 0 0 1 .868.48 5.524 5.524 0 0 1 .758.621c.12.117.237.237.348.363.121.142.236.29.345.442.053.072.107.144.157.219.155.236.3.48.425.736 1.073 2.192 1.028 4.997-.41 6.945-.219.287-.46.56-.744.805-.07.07-.138.117-.207.181a5.304 5.304 0 0 1-.625.448c-.44.24-.911.52-1.402.717h-.004a3.937 3.937 0 0 1-1.436.033c1.234-.891 4.023-1.234 4.287-3.582 1.904-3.53-.767-8.032-4.572-8.655-.603-.33-.864-.507-.937-.597zM14.16 38.338c.092.005.192.03.29.05.142.283.289.574.06.75h-.005c-1.526-.412-1.082-.837-.345-.8zm.443.818c.432.019.89.055 1.361.11-.129.077-1.055-.038-1.361-.11zm2.447.317c.075.002.16.015.237.02.387.092.78.204 1.177.357.746.05 1.523.19 2.295.386.959.3 1.904.643 2.777.977.46.21.892.433 1.288.666-1.07.027-5.63-1.76-7.774-2.406zm9.83 3.316c1.253.432 2.203.975 4.221 1.66.557.372 1.773.847 2.91 1.346.87.469 1.678 1.005 2.389 1.643a.436.436 0 0 1-.115.345c-1.214-.195-2.614-1.58-3.852-2.011-.918-.552-4.573-2.356-5.553-2.983z" fill="#0f8684"/><path d="M0 51.212v-12.84c9.373.127 18.691 2.25 27.303 5.92 6.37 3.089 12.558 6.637 18.051 11.127 4.03 2.897 8.171 5.633 12.219 8.504-19.189.221-38.382.094-57.573.128V51.21zm57.728 7.306c-5.679-3.924-11.72-7.435-16.548-12.45-3.107-3.207-6.32-6.677-7.888-10.907 2.092.853 3.42 4.708 5.383 6.538 3.709 4.589 8.365 8.351 13.45 11.3a94.523 94.523 0 0 0 11.604 7.887c.73 2.334-2.747-.214-6.001-2.368zm1.072-5.016c-4.363-3.169-9.015-6.055-12.823-9.899.336-1.342 4.428.345 5.494-1.933 3.74-3.244 1.782-10.457-3.23-11.065-3.74-.84 2.507-2.238 3.527-3.351 4.188-2.365 8.02-5.289 11.967-8.003.454 12.446.227 24.916.201 37.372-1.033.224-3.643-2.341-5.136-3.121zM33.76 45.81c-5.026-2.607-10.35-4.751-15.822-6.212-1.296-.112-5.47-1.259-1.87-1.529 4.096-.301 8.099-1.272 12.155-1.858 2.583 2.642 4.054 6.199 6.536 8.96 1.343 1.642.03 1.483-1 .639zm10.56-4.658c-2.899-1.866-6.237-3.254-7.286-6.902 2.247-1.703 5.92-2.805 8.965-2.735 3.792-.075 7.211 4.056 5.115 7.628-1.055 2.802-4.392 2.918-6.794 2.009zM7.68 35.555C5.468 34.798.963 36.631.03 34.28c2.534-.25 5.59.186 8.325.085 5.787.081 11.606.121 17.316-.961 3.768.385-3.415 1.571-4.732 1.722-4.381.774-8.836.547-13.259.43zm23.712-2.985c-.39-1.764 2.707.553.392.318l-.392-.317zm4.127-1.009c.55-1.27 4.846-2.386 2.073-.26-.435.029-2.14 1.39-2.073.26zM0 15.927V.041l18.08.17c.873 3.626 2.196 7.303 1.875 11.057-.881 4.385-5.47 6.045-8.167 9.073C9.152 23.38 8.58 27.907 5.28 30.383 4 30.799.293 32.754 0 31.089V15.927zm6.41 15.498c1.564-1.276 3.579-4.339 4.708-6.782 2.002-4.352 6.571-6.505 9.361-10.186 1.43-2.947 1.68 3.038 2.263 4.07.6 1.647 1.066 4.486-1.374 2.368-2.671-1.025-5.755-.116-7.373 2.264-2.538 2.356-.404 6.689.39 8.457-2.642.144-5.357.223-7.975-.19zm9.975-.12c-3.157-2.225-2.9-7.237.687-8.903 2.601-1.402 6.177.506 7.054 3.215 1.274 2.06 2.87 5.993-1.187 5.406-2.148.198-4.44.933-6.554.282zm12.794-4.301c-1.767-6.334-3.443-12.699-5.305-19.011-.505-1.346-1.094-4.543.048-4.902 2.16 8.551 4.548 17.058 7.073 25.5-.414 1.844-1.789-1.023-1.816-1.588zm4.438.207c-.27-2.457-.173-5.28.207-7.935.77-3.714 6.05-4.704 8.277-1.772 2.157 2.484.998 6.185-1.404 8.043-1.44 1.47-5.896 4.442-7.08 1.664zM44.5 22.465c1.766-4.278-3.053-9.49-7.485-7.99-2.63.056-3.78 3.582-5.306 4.21C30.128 12.657 28.56 6.611 27.2.527c2.927-.748 6.17-.304 9.226-.46C45.616.041 54.808.056 64 .052v10.472c-5.743 5.552-12.358 10.2-19.492 13.777-.897.349-.004-1.498-.008-1.836z" fill="#436c62"/><path d="M1.003 62.712c.86-.912.694-1.964.299-3.049C.06 55.563-.121 51.28.004 47.023l.018-8.589c8.478.106 16.94 1.86 24.822 4.957 7.124 3.014 13.964 6.778 19.982 11.666 3.1 2.307 6.302 4.482 9.438 6.73.45 3.344-5.39 1.689-7.69 2.158C31.142 64.02 15.71 63.982.28 64l.724-1.29zm54.517.968c.716-1.139 2.768.865.375.226zm2.208-5.212c-5.678-3.925-11.72-7.435-16.548-12.451-3.107-3.207-6.319-6.677-7.888-10.906 2.093.853 3.421 4.708 5.383 6.538 3.71 4.588 8.366 8.35 13.45 11.3a94.523 94.523 0 0 0 11.604 7.886c.73 2.334-2.747-.214-6-2.368zm1.072-5.022c-4.364-3.164-9.014-6.05-12.822-9.892.325-1.347 4.414.344 5.481-1.923 3.748-3.21 1.817-10.19-3.028-11.07-3.519-1.124 3.28-2.458 4.293-3.797 3.804-2.228 7.347-4.857 10.917-7.425.619 2.438.14 6.177.303 9.11-.004 9.498-.068 18.996-.104 28.494l-5.04-3.497zm-25.105-7.713c-5.703-2.912-11.702-5.393-17.987-6.725-3.108-1.023 2.707-1.18 3.645-1.323 3.233.234 6.718-2.123 9.66-1.006 1.66 3.33 4.095 6.19 6.161 9.246.283 1.013-1.202-.047-1.48-.192zm10.676-4.61c-2.676-1.894-6.04-2.909-7.07-6.403.612-2.497 5.344-2.696 7.789-3.223 3.206-.273 7.255 2.413 6.398 5.974-.245 3.57-4.108 4.993-7.117 3.651zm-36.69-5.618C5.468 34.747.962 36.58.03 34.228c2.535-.25 5.59.187 8.325.085 5.787.081 11.606.121 17.316-.96 3.768.385-3.414 1.57-4.731 1.721-4.382.775-8.836.547-13.26.43zm23.711-2.985c-.39-1.764 2.707.553.392.318l-.392-.318zm4.128-1.01c.55-1.27 4.845-2.385 2.072-.26-.435.029-2.14 1.39-2.072.26zM0 15.84V0h17.902c1.063 4.008 2.574 8.233 1.6 12.39-1.984 4.427-7.362 5.928-9.465 10.311-1.76 2.921-2.294 7.428-6.293 8.19-2.178.846-4.663 1.357-3.7-1.925A1594.6 1594.6 0 0 1 0 15.841zm6.41 15.534c1.565-1.276 3.58-4.338 4.708-6.782 1.994-4.364 6.602-6.498 9.362-10.206 1.466-2.36 1.54 3.126 2.154 4.247.708 1.627 1.09 4.198-1.265 2.212-2.672-1.025-5.756-.116-7.374 2.264-2.814 2.335.039 6.753.095 8.46-2.542.14-5.165.233-7.68-.194zm9.975-.12c-2.493-1.779-3.14-6.146-.379-8.04 2.607-2.64 7.075-.602 8.146 2.573 1.693 2.25 2.437 5.898-1.615 5.245-2.011.174-4.177.865-6.152.222zm12.794-4.3c-1.767-6.335-3.442-12.7-5.305-19.012-.505-1.346-1.094-4.543.048-4.901 2.16 8.55 4.548 17.058 7.074 25.499-.415 1.844-1.79-1.023-1.817-1.587zm4.433.196c-.258-2.456-.172-5.278.213-7.931.814-3.92 6.545-4.709 8.552-1.355 2.355 3.17-.35 7.035-3.128 8.826-1.439.69-4.9 3.025-5.637.46zm10.727-4.029c1.974-4.172-1.957-9.86-6.649-8.81-2.948-.445-4.593 3.51-5.88 4.326C30.142 12.611 28.56 6.553 27.2.451c.799-.611 3.585-1.06 2.84.817-.249 3.17 2.608 6.183 5.636 6.637 2.224-.603 5.423-.168 7.017-1.283.759-1.732.633-6.178 2.392-6.284-.207 3.724-2.022 7.178-2.313 10.87a65.377 65.377 0 0 0 11.018 2.62c1.285-4.553 1.94-9.263 3.2-13.825H64v10.506c-3.837 3.285-7.446 6.884-11.918 9.326-2.636 1.366-5.19 3.854-8.013 4.297l.04-.391.23-.618z" fill="#115385"/><path d="M1.003 62.712c.86-.912.694-1.964.299-3.049C.057 55.557-.121 51.266.004 47.004l.018-8.613c10.556.378 21.153 2.71 30.546 7.637 5.255 2.52 10.124 5.733 14.687 9.343 2.96 2.2 6.02 4.268 9.01 6.417.45 3.344-5.39 1.688-7.69 2.157-15.433.075-30.865.037-46.296.056l.725-1.289zm54.517.968c.716-1.139 2.768.865.375.226zm3.322-10.205c-4.423-3.251-9.201-6.151-13.039-10.115 3.037.235 6.408-1.226 7.314-4.354 1.27-3.69-1.312-8.102-5.24-8.595-2.116-1.196 3.134-2.026 4.01-3.148 4.102-2.36 7.929-5.155 11.754-7.924.62 2.438.14 6.177.304 9.111-.005 9.498-.068 18.995-.104 28.493l-4.998-3.468zm-7.854.104c-.162-2.555 2.732.879.268.357l-.268-.357zm-17.293-7.846c-5.674-2.894-11.638-5.372-17.89-6.7-3.272-1.312 3.983-1.022 5.287-1.544 2.566.044 5.767-1.99 7.936-.768 1.665 3.31 4.089 6.159 6.146 9.204.283 1.013-1.202-.047-1.48-.192zm11.678-4.448c-2.617-1.72-6.13-2.218-7.457-5.367-2.138-3.105 4.167-3.575 6.23-4.352 3.06-.544 6.869 1.185 7.44 4.44.432 3.47-2.71 6.696-6.213 5.279zM0 15.84V0h17.87c1.198 3.994 2.528 8.292 1.56 12.46-1.945 4.408-7.318 5.874-9.392 10.238-1.63 2.722-2.17 6.708-5.69 7.716-2.143.843-5.276 2.346-4.243-1.45C.017 24.59.003 20.214 0 15.84zm7.175 15.34c2.984-3.894 4.349-9.026 8.43-12.047 2.243-1.319 4.177-4.558 5.837-5.369.2 2.392 2.312 6.247 1.366 7.815-2.512-1.663-6.304-1.605-8.258.914-2.54 2.121-2.045 6.118-.344 8.591-.575 1.009-6.158.822-7.031.096zm9.059-.315c-2.602-2.01-2.832-6.295.235-8.027 3.592-2.6 7.666 1.193 8.503 4.76 1.403 2.092.515 3.791-2.06 3.379-2.139-.052-5 1.592-6.678-.112zm17.379-3.716c-.26-2.453-.17-5.273.212-7.924.863-4.235 7.257-4.68 8.895-.787 1.842 3.46-1.147 6.956-4.092 8.511-1.43.384-4.412 2.73-5.015.2zM44.4 23.601c1.462-2.875.652-6.56-2.16-8.301-2.197-1.936-6.305-1.425-8.238.684-.991 1.777-2.718 3.151-2.696.176-1.276-5.313-2.72-10.594-4.048-15.888.845-.225 3.43-.965 2.786.815-.358 3.069 2.2 5.802 4.94 6.731 2.47-.156 5.878-.221 7.71-1.197.758-1.732.632-6.177 2.392-6.284-.208 3.724-2.022 7.178-2.313 10.871a65.377 65.377 0 0 0 11.018 2.62C55.075 9.273 55.73 4.563 56.989.001H64v10.534c-5.835 5.159-12.066 9.989-19.09 13.411l-.334-.043-.175-.303z" fill="#424c5b"/><path d="m27.318.123.014.053c-.145-.084-.21.04.068.613l.145.256c.259 1.09.53 2.183.804 3.277.271 1.342.636 2.676 1.006 4.01.375 1.462.752 2.926 1.12 4.383.191.26.308.724.404 1.254.156.95.248 2.085.472 2.886.023.087.05.164.076.242.009.024.015.052.024.075.212.581.534.884 1.088.58.803-1.9 2.54-3.105 4.467-3.528a7.34 7.34 0 0 1 1.304-.166c1.097-.039 2.2.17 3.182.643a7.206 7.206 0 0 1 3.26 3.87v.001c.564 1.599.542 3.385-.272 4.99-.059.302.14.403.37.403l.046.013.045-.027c.182-.022.365-.088.443-.19a3.35 3.35 0 0 0 .504-.412c2.738-1.763 5.572-3.423 8.29-5.25 1.399-.495 2.584-1.724 3.74-2.744a35.841 35.841 0 0 0 1.847-1.597c.84-.975 6.327-4.761 2.715-3.432-4.441 3.373-8.774 6.914-13.533 9.853-1.201.936-1.848.68-2.305-.076-.169-.83-.515-1.677-.918-2.467-.376-1.155-.856-2.274-1.775-2.73a6.3 6.3 0 0 0-2.26-1.54c-1.41-.62-3.03-.71-4.605-.437-.83.132-1.645.353-2.399.67-.027.026-.05.042-.076.067-.448.193-.879.41-1.281.652-.527.018-.903-.204-1.185-.566-.422-.77-.627-1.981-.868-2.957-.172-1.226-.317-2.48-.754-3.24-1.1-2.194-.408-6.986-3.203-7.432zM17.584.25c-1.475 1.318 1.11 6.012.865 8.635.547 3.427-1.988 6.189-4.666 7.902-3.549 2.355-5.251 6.322-7.111 9.969-.588 2.04-2.536 2.246-4.252 2.633-.234.049-.453.11-.672.175-.13.038-.26.075-.383.12-.097.035-.193.068-.283.107l-.01.004c-.49.212-.882.478-1.072.806l.002.002-.002.002c.066.69.55.82 1.132.756.672.056 1.516-.222 2.338-.592a5.638 5.638 0 0 0 2.115-1.156c.15-.095.368-.22.483-.295-.023-.018-.09-.027-.127-.043 1.902-1.918 2.724-5.002 4.143-7.275 1.965-4.359 7.822-5.366 9.199-10.074.532-3.929-.464-7.964-1.7-11.676zm3.402 13.885c-2.163 3.307-5.985 5.14-8.326 8.322-1.43 2.367-2.766 4.806-4.217 7.158-.032.043-.06.09-.092.133-.735.625-.919 1.015-.789 1.26-.069.106-.133.215-.203.32 1.5.594 3.284.267 4.887.334.976.14 1.502.055 1.709-.181.08-.035.162-.067.224-.122-.046-.055-.08-.123-.125-.181-.001-.394-.386-.966-.935-1.606a7.884 7.884 0 0 1-.508-1.646c-.363-2.416.454-4.83 2.558-6.338a4.616 4.616 0 0 1 1.666-1.1c.28-.097.562-.189.854-.248.207-.041.418-.053.629-.076 1.609-.144 3.318.332 4.625 1.162-.049-.176-.083-.38-.127-.564.229-.079.123-.337-.14-.625-.327-1.559-.58-3.26-1.071-4.662.076-.271.071-.573-.055-.924-.084.028-.18.091-.271.137a5.245 5.245 0 0 0-.293-.553zm17.182 1.734c-2.22.14-4.333 1.815-4.504 4.244.47 2.318-.57 4.698.102 6.819.001.025 0 .053.002.078.065.384.205.635.394.799.05.083.093.167.15.25.993.155 1.993-.103 2.96-.547.018-.004.044-.015.062-.018.043-.024.089-.053.133-.078 1.333-.652 2.594-1.642 3.654-2.443 2.431-2.076 2.936-6.421-.033-8.27a4.427 4.427 0 0 0-2.92-.834zm-17.695 1.334c.532.013.813.498.266 1.725-.697.3-1.67.443-2.327-.026.279-.956 1.377-1.716 2.06-1.699zm17.938.444c.224.003.463.027.717.074a3.4 3.4 0 0 1 1.146.619c1.203 1.014 1.148 2.714.463 4.232v.002c-.514 1.139-1.38 2.176-2.336 2.744-.846.643-2.678 1.4-2.902.106v-.002a2.189 2.189 0 0 1 .012-.688c-.07-.344-.128-.724-.17-1.123v-.002c-.19-1.796-.04-3.986 1.035-5.148.12-.129.251-.246.394-.348.43-.305.97-.478 1.641-.466zM64 19.082c-.065.061-.134.119-.2.18-3.431 3.177-7.464 5.628-11.431 8.07-.785 1.01-3.68 1.403-4.475 2.152-.122.021-.245.04-.367.075.06.04.145.079.215.119a.457.457 0 0 0 .008.441c4.412.404 7.496 6.023 5.13 9.906-.696 1.832-2.364 2.7-4.11 3.23-1.088.163-2.098.22-2.222.544v.002l-.148.033c3.676 3.535 8.038 6.31 12.139 9.336 1.642 1.154 3.284 2.31 4.932 3.455.015-.012.02-.027.035-.04 1.426.842 0-2.986-1.18-2.946-.052-.043-.105-.083-.158-.125-.468-.421-1.034-.802-1.643-1.17-.91-.605-1.792-1.153-2.33-1.557-.141-.065-.255-.139-.379-.209-.687-.555-1.242-1.183-1.476-1.976-.213-1.796 1.482-3.97 2.646-5.422 1.085-1.767 3.008-3.958 4.047-5.744.038-.053.078-.104.115-.157.77-.903.76-1.17.465-1.1.018-.057.052-.121.067-.177.085-.35.122-.59.12-.738.3-.273.024-1.246-.44-.024.027.018.044.011.07.024-.616.64-1.846 2.73-2.498 3.603-2.231 2.984-4.052 6.402-6.848 8.9-.061.05-.116.108-.178.157a5.653 5.653 0 0 0-.494-.385l-.002-.002c-.203-.145-.439-.304-.686-.475-.974-.671-2.143-1.508-2.39-2.28l-.002-.007c-.016-.051-.016-.101-.024-.152-.006-.052-.02-.105-.017-.156l.002-.012c.022-.279.2-.542.596-.78.101-.05.19-.12.289-.177.207-.11.401-.232.586-.363.042-.03.086-.059.128-.09a5.41 5.41 0 0 0 .627-.545c1.694-1.615 2.588-4.045 2.067-6.383-.003-2.703-1.871-4.744-3.81-6.377 2.6-1.705 5.209-3.4 7.8-5.119 1.834-1.662 5.55-2.608 5.424-5.539zm-44.818 3.201c-.645-.022-1.327.106-2.04.424-1.481.708-2.3 1.994-2.528 3.402-.008-.414-.04-.667-.133.293.024.43.046.58.066.635a5.543 5.543 0 0 0 1.318 3.47c.14.173.284.333.424.464.094.039.19.062.285.092.072.025.144.05.217.07l.067.015c.895.234 1.877.135 2.79.135 1.644-.21 5.368-.033 5.733-1.592.21-.425.112-1.007-.514-1.828-.02.018-.045.03-.066.047-.784-2.655-2.852-5.532-5.62-5.627zm.07 1.055c2.396.14 5.81 4.673 3.278 5.764-.17.054-.337.113-.51.156-.905.129-1.812.238-2.725.291a15.53 15.53 0 0 1-2.43-.23c-2.09-1.278-1.18-5.788 1.905-5.944a1.7 1.7 0 0 1 .482-.037zm-7.847 4.453c.23.014.392.35.318 1.252l.047.25c-1.136.885-1.403.37-1.297-.367.166-.555.61-1.155.931-1.135zm33.846 4.05c-2.197.021-4.369.778-6.413 1.653-.332-.083-.77.02-1.38.41.003.064.015.125.021.188-.071.032-.148.063-.219.096.259 1.55 1.284 2.765 2.547 3.761.855.716 1.833 1.307 2.783 1.762.117.062.238.137.352.197.132.107.264.213.4.309l.008.006c.307.229.652.426 1.022.588.449.205.918.343 1.406.414.09.015.18.025.271.037.038.003.077.003.116.006 1.736.19 3.535-.328 4.36-1.86 2.207-3.229-.4-7.328-4.087-7.504a9.282 9.282 0 0 0-1.188-.062zm.347 1.104a5 5 0 0 1 1.092.14c3.522-.095 4.991 5.582 1.592 6.882-1.216.527-2.279.196-3.287-.404-.218-.138-.431-.278-.65-.418-1.055-.745-2.067-1.668-3.145-2.112a4.368 4.368 0 0 1-.801-.765c-.168-.342-.295-.71-.42-1.067.106-1.523 3.444-2.325 5.62-2.256zM27.542 36.54a2.862 2.862 0 0 0-.4.045.166.166 0 0 0 .004.121c-3.013.423-5.975 1.383-9.045 1.399-.868-.104-1.776-.047-2.008.168-1.09.378 1.891 1.251 3.164 1.34 4.874 1.422 9.602 3.426 14.145 5.687.5.533 1.864.776 1.04-.352v-.002a3.055 3.055 0 0 0-.85-.902c-2.007-2.285-3.461-5.108-5.147-7.484-.247.019-.492.053-.738.082.053-.056.03-.105-.164-.102zm-1.566 1.559c1.94.046 3.72 1.089 4.224 3.424l.202.404.152.328c-1.976-.069-5.593-2.06-8.002-3.225 1.038-.627 2.26-.959 3.424-.931zm-24.707.414c-.787-.039-1.308.212-1.188 1.191 10.373.497 20.873 2.471 30.078 7.469 5.457 2.71 10.308 6.405 15.197 9.992 3.176 1.009.508 5.11-1.195 6.557.164.086.578.045.982-.1.033.705.304.219.555-.289.17-.124.304-.27.365-.44 1.353-3.89 4.563-2.585 6.877-.374 3.268.75-.944-2.217-1.98-2.737-.516-.333-1.021-.682-1.527-1.029.27-.094-.73-.69-1.231-.857-4.688-3.335-9.1-7.068-14.244-9.71-8.582-5.143-18.367-8.088-28.295-9.081-1.037.344-3.084-.527-4.394-.592zM51.35 52.834c-.135-.02-.254.079-.317.38v.003c-.02.1-.036.223-.043.37.14.111.262.2.37.266.214.135.367.188.47.186.257-.004.205-.357.04-.68v-.002a1.548 1.548 0 0 0-.243-.347.784.784 0 0 0-.14-.12.348.348 0 0 0-.137-.056zm5.336 10.719a.42.42 0 0 0-.203.133c.945.853.66-.25.203-.133z" fill="#1a1a1a"/><path d="M63.517 56.612c-4.742-3.904-10.03-7.112-14.797-10.997-1.202-.609-3.108-2.535-.387-1.958 2.253 1.521-1.194-.029 2.994 2.253 2.386 2.011 5.132 3.463 7.586 5.408 1.637 1.608 6.101 2.701 4.77 5.521zM50.99 53.62c.105-2.377 2.236 1.764 0 0zm-19.634-9.548c-4.595-2.188-9.273-4.363-14.33-5.202-.93-1.027 3.562 0 4.413.524 3.885 1.583 7.765 3.204 11.674 4.703 2.976 2.07-.726.6-1.756-.025zm11.943-3.87c-2.345-1.656-5.106-3.08-5.872-6.132 2.31.17 4.173 3.953 6.459 5.357 1.342.901 2.136 2.813.043 1.189l-.301-.196zm-32.82-8.727c-1.691.04-4.364.018-1.845-1.731 2.53-3.328 3.551-7.81 7.253-10.198 1.94-1.15 4.08-4.172 5.546-4.625-.442 1.757-6.448 4.622-2.075 4.626 1.22-.93 4.844 1.687 2.519.99-2.58-1.536-6.046-.48-7.774 1.882-1.433 2.407-2.723 4.312-4.2 6.598-.028 2.312 3.075.477 2.356-1.327-.733 1.635 3.875 4.311.49 3.879-.756-.038-1.513-.068-2.269-.093zM0 30.637c-.377-1.508 1.653-.584 2.536-.819.842.062 2.641-.08 2.9.106-1.577.593-4.58 2.449-5.435.713zm16.08.127c-1.717-1.685 3.374-.627 4.466-1.259 1.193.01 6.264-1.447 4.479.785-2.866.18-6.296 1.703-8.944.474zm18.189-3.017c-.503-2.917-.688-6.606.43-9.535 1.615-2.9 6.27-2.693 7.616.355 1.51 2.716-.484 6.39-3.165 7.283 1.485-2.467 4.11-7.586-.664-8.195-3.433-.01-3.435 4.258-2.985 6.733-.096 1.228.285 2.07 1.613 2.15 3.17.658-2.438 1.722-2.845 1.21zm10.212-4.153c1.629-3.212.093-7.144-2.988-8.86-3.143-1.512-7.525-.327-8.954 3.05-1.728.86-1.255-4.019-2.115-5.227-.79-3.28-1.69-6.546-2.483-9.817 1.874 3.91 2.37 8.384 4.01 12.412 2.276-.828 4.577-2.721 7.294-2.153 4.086.26 7.116 4.14 6.96 8.137.209.823-.555 4.028-1.724 2.459zm19.04-4.04c.966-1.068.087 1.115 0 0z" fill="#0a2f55"/></g></svg>