<?xml version="1.0" encoding="UTF-8"?>
<svg version="1.1" viewBox="0 0 64 64" xmlns="http://www.w3.org/2000/svg" xmlns:cc="http://creativecommons.org/ns#" xmlns:dc="http://purl.org/dc/elements/1.1/" xmlns:rdf="http://www.w3.org/1999/02/22-rdf-syntax-ns#">
<metadata>
<rdf:RDF>
<cc:Work rdf:about="">
<dc:format>image/svg+xml</dc:format>
<dc:type rdf:resource="http://purl.org/dc/dcmitype/StillImage"/>
<dc:title/>
</cc:Work>
</rdf:RDF>
</metadata>
<g transform="translate(0 -988.36)">
<g transform="translate(-.85721 .17178)">
<g stroke-width=".32">
<path d="m0.85722 1020.2v-32h64v64h-64v-32z" fill="#e6e6e6"/>
<path transform="translate(.85721 988.19)" d="m19.543-0.12891c-0.53806 0.036783-1.0772 0.23228-1.5742 0.63281 0.01666 0.21641 0.05398 0.43226 0.08008 0.64844-0.43542 1.8727 1.5721 5.0562 1.0371 7.1562 0.80658 3.4009-0.98387 6.4832-3.7773 8.3164-1.0301 0.6835-1.9818 1.4721-2.8555 2.3359-0.7977 0.70435-1.519 1.4731-2.0469 2.4062-0.95004 1.339-1.726 2.8017-2.2598 4.377-0.018956 0.06893-0.043444 0.13369-0.064453 0.20117-0.47306 0.96327-0.99121 1.8893-1.6602 2.6621-0.75258 0.72364-1.6679 1.2802-2.6621 1.6777-0.69665-0.04012-1.4832 0.20729-2.1621 0.61133-1.1841 0.17254-1.9365 0.66672-1.6133 1.9648-0.014275 0.13413-0.0010602 0.26583 0.03125 0.39453 0.069337 1.2478-0.19353 2.7143 0.033203 3.9297-0.094303 0.48204 0.050281 0.94798 0.51562 1.25 0.076923 0.09776 0.16178 0.18994 0.25781 0.27734 4.4326 0.6548 8.9569 0.77083 13.33 1.8652 9.1225 1.8029 17.53 6.0469 25.264 11.096 2.7614 2.1064 5.6847 4.0533 8.3027 6.3262-0.1881 0.11155-0.37015 0.28298-0.54883 0.48828-0.71736 0.57993-1.1604 1.6559-1.623 2.7617-0.44325 0.89344-0.89303 1.8044-1.3867 2.5449 0.01546 0.2685 0.5439-0.15024 0.48047-0.11523 0.10377 0.02364 0.20596 0.03167 0.30664 0.02734 0.44429-0.0085 0.82739-0.28534 1.1855-0.68164 0.58594-0.61334 1.1108-1.54 1.5781-2.4336 0.32644-0.55406 0.66028-1.0812 1.0352-1.459 0.46143 0.10269 0.9395 0.26043 1.418 0.46484 0.35295 0.18401 0.72281 0.36949 1.1094 0.55664 1.2634 0.74646 2.338 1.7687 2.6699 2.8438-0.0414 0.12727-0.0975 0.2597-0.17969 0.39648-0.68375 0.82196 0.59306 0.78384 1.5723 0.48633 1.381 0.08501 2.7642 0.11888 4.1504 0.11524 1.2586 0.04641 2.546-0.04291 3.7891 0.0039 0.18519 0.03869 0.32644 0.03349 0.4375-2e-3 0.0956 0.0015 0.19154-0.0019 0.28711 0-6e-3 -0.11036 0.0016-0.22322-2e-3 -0.33398 0.09754-0.31342 0.04193-0.78147-0.0098-1.2441 7e-3 -0.36249 0.0095-0.72467 0.01953-1.0879 0.13013-1.1122 0.12322-2.2628-0.13281-3.3086-0.06228-0.38482-0.1412-0.7665-0.25977-1.1426-0.19889-0.26992-0.41567-0.52126-0.64062-0.76367-0.21636-0.26524-0.46849-0.50813-0.76367-0.72266-2.1679-1.9188-5.0293-3.1055-6.9688-5.2656-0.06561-0.25805-0.0617-0.53071 0.0098-0.81836 0.67112-0.52788 1.166-1.2931 1.6211-2.1367 0.62279-1.0366 1.1706-2.2164 1.8281-3.2988 0.23376-0.32969 0.4846-0.64476 0.77148-0.92383 0.12508-0.21941 0.26934-0.43416 0.41016-0.65039 0.07726-0.08219 0.14339-0.17618 0.22461-0.25391 0.11768-0.22076 0.26194-0.44347 0.40625-0.66602 0.64097-0.88325 1.3241-1.7642 1.916-2.6777 0.60943-0.88544 1.1158-1.7908 1.2637-2.7266 0.08469-0.3569 0.13852-0.72373 0.15234-1.1016-0.04927 0.02425-0.0959 0.06821-0.14453 0.09766-0.01169-0.08137-0.01682-0.16231-0.03516-0.24414-0.16112 0.21484-0.31804 0.4331-0.47852 0.64844-0.60856 0.59125-1.1777 1.4888-1.7441 2.3613-0.36768 0.50413-0.73103 1.0112-1.0957 1.5176-0.02771 0.03172-0.0542 0.07116-0.08203 0.10156-0.94528 1.2687-1.8451 2.5821-2.7422 3.8965-0.78308 1.1192-1.5612 2.2412-2.334 3.3672-0.0018 0.0027-4e-3 0.0051-0.0059 0.0078-0.42838 0.59706-0.87402 1.1767-1.3203 1.7539-0.29687 0.18337-0.60228 0.26968-0.91406 0.27344-1.6853-1.0453-3.2014-2.3485-4.791-3.5332-1.1362-1.2207 4.0984-1.3784 4.709-3.1016 1.9887-2.5389 1.8156-6.4038 0.5918-9.2227-0.16381-0.78108-1.1417-1.4044-2.0742-1.9492-5e-3 -0.0029-0.0087-0.0069-0.01367-0.0098-0.0024-0.0014-0.0054-0.0025-0.0078-0.0039-1.4555-0.84906-2.781-1.5058-0.66602-2.2539 3.548-2.1633 7.1112-4.3756 10.406-6.918 0.62465-0.20047 1.2683-0.7672 1.8066-1.4531 0.1059-0.08905 0.21515-0.17375 0.32031-0.26367 0.73533-0.42878 0.8115-1.1315 0.78711-1.875 0.09345-0.41871 0.08519-0.79732-0.04102-1.0957-4.37e-4 -0.1526 0.0056-0.30418 0.02344-0.44922-0.0682-1.2223 0.07244-2.543 0.0039-3.7852 0.10275-0.65337 0.0031-1.3422-0.40625-2.0664-0.0038 0.0027-0.0079 0.0051-0.01172 0.0078-8e-4 -0.0019-0.0012-4e-3 -2e-3 -0.0059-4.2213 2.8753-8.0221 6.346-12.355 9.0762-1.3275 0.552-6.1831 4.9765-5.0195 1.2969 0.28659-3.6426-2.757-7.0525-6.1504-7.9531-3.1364-0.513-6.0133 1.0983-8.1719 3.2031-1.3012-4.3097-2.2524-8.7239-3.5604-13.031-0.15464-0.70483-0.33836-1.3837-0.62109-1.9473-0.071434-0.21265-0.13708-0.42674-0.21094-0.63867-0.10189-0.047044-0.21216-0.075497-0.31641-0.11719-0.50488-0.51431-1.2175-0.77272-2.2969-0.56641-0.53015-0.16528-0.86559-0.16309-1.0781-0.048828-1.0441-0.031234-2.1065 0.019743-3.1543 0.082031-0.36062-0.11358-0.72994-0.18778-1.1055-0.16211zm1.4629 15.961c0.77349-0.1893 0.73472 2.379 1.1914 3.1289 0.55864 1.8257-2.1783-0.37497-3.1152 0.42773-3.52 0.6464 0.17127-1.925 1.2422-2.9297 0.28102-0.39362 0.50314-0.58327 0.68164-0.62695zm17.219 0.43164c1.926-0.07441 3.9027 0.89342 4.3711 2.9512 1.2631 3.7689-2.6546 6.825-5.7227 8.0938l-0.55078 0.20703-0.49024 0.16797c-2.6233-0.6841-1.629-5.7146-1.6738-8.1152 0.26414-2.1139 2.1404-3.2303 4.0664-3.3047zm-19.094 6.2207c1.3854 0.0098 2.7675 0.64659 3.5234 1.9023 1.2655 1.92 4.4053 6.7533-0.25391 6.2246-1.1089 0.1516-2.2213 0.30128-3.3398 0.36328-3.1557 0.80218-5.1239-2.9976-4.1133-5.5938 0.0065-0.01718 0.01475-0.03367 0.02148-0.05078 0.14572-0.35807 0.34754-0.69158 0.61328-0.98633 0.77396-1.2508 2.1634-1.8691 3.5488-1.8594zm-7.7871 4.3594c0.64597 0.0023 0.55881 3.0812 1.3086 3.8887 1.038 0.8454-0.60765 0.5427-1.002 0.5957-2.767 0.6819-2.841-1.634-1.2559-3.2637 0.43656-0.88128 0.73389-1.2215 0.94922-1.2207zm34.783 5.2324c4.244-0.2438 6.7009 5.1488 3.623 8.123-1.0528 1.077-2.8089 0.76772-4.1562 0.63672-2.999-1.2307-6.0767-3.209-7.3496-6.334 1.8715-1.7268 5.1875-2.4738 7.8828-2.4258zm-19.537 4.834c2.0799-0.11518 3.3476 1.9041 4.3516 3.9082 0.54013 0.9564 1.3711 1.9002 1.6016 2.9824-4.6207-1.6536-8.9548-4.1391-13.758-5.2637 2.0761-0.3928 4.1515-0.79149 6.2285-1.1797 0.57311-0.28031 1.0962-0.42069 1.5762-0.44727z" fill="#f6f3cb"/>
<path transform="translate(.85721 988.19)" d="m25.117-0.13867c-0.31022 0.009784-0.59853 0.10786-0.85156 0.28516-0.32604 0.18607-0.56876 0.48458-0.65625 0.92773-0.01435 0.040991-0.03395 0.071909-0.04687 0.11523 0.0087 0.038505 0.01863 0.076736 0.02734 0.11523-0.02103 0.2712-0.0084 0.57123 0.08203 0.93164 1.5207 7.2606 3.6197 14.393 5.6406 21.529 0.07182 1.0342 2.6134 6.3591 0.78711 4.2559-3.2466-8.2467-4.671-17.061-7.4141-25.459 0.036528-0.94091-0.26428-1.5435-0.74805-1.9316-0.48739-0.55816-1.3366-0.65071-2.2148-0.64648-0.59776-0.029846-1.2077-0.0088877-1.7539 0.011719 1.56e-4 0.0012781-1.57e-4 0.0026282 0 0.0039062 0.05858 0.47812 0.13097 0.95358 0.21289 1.4297 3.27e-4 0.00191-3.28e-4 0.00395 0 0.00586 0.08188 0.47549 0.17513 0.95136 0.26953 1.4258 2.5e-4 0.00126-2.5e-4 0.00265 0 0.00391 0.18934 0.95135 0.3935 1.9008 0.56836 2.8535 2.31e-4 0.00125-2.3e-4 0.00265 0 0.00391 0.08727 0.47573 0.16688 0.9522 0.23438 1.4297 1.8e-4 0.00127-1.79e-4 0.00264 0 0.00391 0.06743 0.47748 0.12329 0.95537 0.16016 1.4355 1.5e-4 0.00193-1.48e-4 0.00393 0 0.00586 0.03667 0.47953 0.05534 0.96019 0.05078 1.4434-1.8e-5 2e-3 1.8e-5 0.0039 0 0.0059-0.0047 0.4832-0.03312 0.96926-0.08984 1.457-1.51e-4 0.0013 1.52e-4 0.0026 0 0.0039-0.04996 0.2962-0.11947 0.57958-0.20508 0.84961-1.2897 4.0681-6.3962 5.3383-8.4668 8.9746-1.8896 2.491-2.4129 5.8895-4.6543 8.0781-0.017156 0.01464-0.040667 0.0267-0.058594 0.04102-0.66253 0.47608-1.8791 0.81895-3.043 1.2012-0.045487 0.01494-0.089494 0.02985-0.13477 0.04492-1.1829 0.36001-2.269 0.76926-2.6172 1.5098-0.03302 0.06222-0.052206 0.12898-0.072266 0.19531-0.013452 0.04931-0.027956 0.09829-0.035156 0.15039-0.010697 0.07569-0.0087384 0.15516-0.0019531 0.23633 0.014338 0.35538 0.14904 0.76426 0.47461 1.2578 0.066973 0.0025 0.13419 0.0034 0.20117 0.0059 0.018574 0.02038 0.027475 0.03796 0.046875 0.05859 1.8927 0.08867 3.788 0.11887 5.6836 0.11914 4.921 0.12041 9.8505 0.11072 14.748-0.35938 0.90678-0.11076 5.8005-0.96978 5.1172-0.25391-0.0047 0.0047-0.0087 0.0089-0.01367 0.01367-0.08623 0.0842-0.26727 0.19488-0.51562 0.32422-1.7883 0.39855-3.5911 0.74599-5.4043 1.0332-0.0072 0.0011-0.01429 0.0028-0.02148 0.0039-0.03954 0.0063-0.07959 0.0094-0.11914 0.01562-5.2091 0.7728-10.493 1.0921-15.75 0.99414-0.052752-0.001712-0.10547-0.004194-0.15821-0.005934-0.42758-0.20252-0.95687-0.28175-1.498-0.27344-0.88161-0.1366-1.8431 0.20334-2.416 0.7207-0.2885 0.22299-0.46799 0.48818-0.49414 0.77734-5.304e-4 0.0027-0.0014461 0.0051-0.0019531 0.0078-0.0022859 0.02856-0.0028435 0.0569-0.0019531 0.08594-0.039631 0.42158 0.22536 0.84856 0.9375 1.1875 0.046587 0.02983 0.078385 0.05994 0.12891 0.08984 0.81405 0.05178 1.6288 0.13141 2.4434 0.20312 0.54027 0.04777 1.0811 0.08178 1.6211 0.13867 0.00258 2.72e-4 0.00523-2.73e-4 0.00781 0 0.1539 0.01619 0.30708 0.04165 0.46094 0.05859 2.522 0.27839 5.0369 0.6502 7.5273 1.1504 0.66059 0.13268 1.3199 0.27403 1.9766 0.42383 0.65663 0.1498 1.311 0.30901 1.9629 0.47656 0.41213 0.10592 0.8224 0.22076 1.2324 0.33398 0.23091 0.06381 0.46316 0.12329 0.69336 0.18945 0.0077 0.0022 0.01571 0.0036 0.02344 0.0059 0.63982 0.18415 1.2764 0.3773 1.9102 0.58008 0.0065 0.0021 0.01306 0.0038 0.01953 0.0059 1.2763 0.40877 2.5396 0.8577 3.7871 1.3457 0.0038 0.0015 0.0079 0.0024 0.01172 0.0039 0.62302 0.24387 1.2427 0.49716 1.8574 0.76172 0.22035 0.09483 0.43703 0.19932 0.65625 0.29688 0.39605 0.17622 0.79332 0.34995 1.1855 0.53516 0.0019 8.75e-4 4e-3 0.0011 0.0059 2e-3 1.2169 0.57478 2.4136 1.1929 3.5898 1.8574 5.8774 2.9981 11.026 7.1287 16.355 10.963 2.4463 1.5028 4.5881 3.4927 7.0469 4.9512 0.35126 0.20835 0.71024 0.40621 1.0762 0.58984 0.39345 0.1266 0.82371 0.20362 1.2402 0.26562 0.19311-5e-3 0.45631 0.01136 0.75781 0.03906 0.70105 0.09163 1.4135 0.16906 2.0977 0.21289 0.05618 0.0047 0.10992 0.0093 0.16602 0.01367 0.82104 0.06326 1.6179 0.07632 2.1875-0.05469 0.93521-0.14248 1.3496-0.50067 0.69531-1.2168-0.06286-0.14051-0.14848-0.29323-0.26562-0.46289-3.5687-3.0274-7.4287-5.7897-11.447-8.1855-5.7274-4.0182-11.591-8.3053-15.518-14.232-0.48796-0.7763-3.2289-4.8115-2.0039-3.793 3.3773 5.2954 7.4977 10.184 12.648 13.84 4.8817 3.162 9.4236 6.8131 14.395 9.8477 1.2145 1.4103 2.0539 1.1458 2.4316 0.30859 0.03021-0.06125 0.05977-0.12204 0.08398-0.19141 1e-3 -3e-3 9.54e-4 -0.0067 2e-3 -0.0098 0.057-0.17302 0.09237-0.36563 0.11523-0.56641 0.0068-0.0601 0.01392-0.11572 0.01758-0.17774 0.01206-0.19806 0.0073-0.40259-0.01367-0.60937-0.0076-0.07857-0.02097-0.15222-0.0332-0.23047-0.02588-0.15949-0.06103-0.3175-0.10742-0.47266-0.08881-0.30555-0.20284-0.59553-0.36914-0.82812-0.0095-0.0075-0.0198-0.01398-0.0293-0.02148-0.10694-0.15673-0.22394-0.30559-0.36328-0.42969-5.6404-4.346-11.908-7.9752-16.947-13.061-0.36216-0.41662-0.41601-0.58288-0.28711-0.60938 0.01014-7.1e-4 0.02468 5.74e-4 0.03516 0 0.47826-0.01853 2.6409 1.2397 3.1758 0.8125 3.0397-0.8339 5.0844-3.691 4.4609-6.8574 0.43757-3.2484-2.2107-7.1156-5.7148-6.4648 0.59569-0.83573 1.6558-1.5117 2.8438-2.1602 0.91591-0.48323 1.8957-0.97368 2.7988-1.4961 0.7654-0.43222 1.4889-0.88982 2.0801-1.4121 0.6814-0.5218 1.4094-1.0075 2.1484-1.4883 0.07037-0.04578 0.1404-0.09297 0.21094-0.13867 0.67306-0.43242 1.3475-0.86522 2.0039-1.3184 0.3533-0.24388 0.70152-0.49271 1.0391-0.75195 0.2107-0.16111 0.40922-0.3328 0.61133-0.50195 0.12093-0.10122 0.24794-0.1962 0.36524-0.30078 0.0034-0.0031 0.0063-0.0067 0.0098-0.0098 0.32465-0.29002 0.63528-0.5949 0.92578-0.91602 0.0025-0.0027 0.0054-0.0051 0.0078-0.0078 0.16582-0.18366 0.31056-0.38623 0.46289-0.58203 0.12005-0.15341 0.25215-0.29559 0.36328-0.45703 0.0917-0.26133 0.16158-0.49394 0.21289-0.70117 0.05064-0.20348 0.08212-0.3814 0.09766-0.53711 2.23e-4 -0.0023-2.17e-4 -0.0036 0-0.0059 0.01512-0.15458 0.01411-0.28515-2e-3 -0.39648-0.2121-1.4704-2.9873 0.65455-4.1953 1.6934-3.412 2.7155-7.1053 4.9978-10.955 6.998-0.96245 0.50006-1.9361 0.98215-2.916 1.4492-2.9398 1.4012-5.9489 2.6649-8.9746 3.8535-2.6388 0.911-0.60805-0.83511 0.7168-0.94531 3.8814-1.6064 7.6659-3.4717 11.316-5.5684 0.35297-0.2015 0.7103-0.39537 1.0605-0.60156 3.9791-2.3425 7.7801-4.9842 11.332-7.9297 1.0773-0.56325 1.7853-1.4042 2.168-2.3828 0.09575-0.24427 0.17066-0.49842 0.22656-0.75781 1.34e-4 -6.25e-4 -1.33e-4 -0.0013 0-2e-3 0.05581-0.25941 0.09206-0.52468 0.10938-0.79492 4.1e-5 -6.43e-4 -4e-5 -0.0013 0-2e-3 0.01718-0.26963 0.01591-0.54417-0.0039-0.82031-9.2e-5 -0.0013 9.3e-5 -0.0026 0-0.0039-0.01999-0.27621-0.05957-0.55358-0.11523-0.83203-2.57e-4 -0.0013 2.57e-4 -0.0026 0-0.0039-4.6451 3.771-9.3389 7.5378-14.439 10.674-1.2262 0.7421-2.4708 1.4573-3.7559 2.1074-0.14827 0.10162-0.26683 0.17453-0.38867 0.24805-1.4229 0.54484-0.19795-1.5231 0.39648-2.5625 0.16396-3.5664-2.843-7.1732-6.4805-7.373-3.2069-0.54023-5.7056 1.9943-7.0703 4.0664-0.43566-1.4004-0.84174-2.8094-1.2266-4.2245-0.52877-2.0299-1.0596-4.0595-1.6094-6.084-0.33915-1.3177-0.67068-2.6373-1.0293-3.9492 0.040815-0.26785 0.02546-0.53094-0.017578-0.78906 0.010222-1.2763-1.0246-2.2017-2.1211-2.5469-0.32903-0.13412-0.66289-0.21314-0.98047-0.20312zm-4.5938 13.955c0.23333 0.11344 0.43742 0.33584 0.61523 0.64648 0.34314 0.7681 0.68476 1.9455 0.76172 2.5059 0.02175 0.09258 0.09897 0.38644 0.15039 0.58203 0.24292 1.2689 0.44172 2.5794 0.66797 3.459-0.19451-0.06181-0.42612-0.12234-0.6582-0.18164-0.02946-0.0391-0.05219-0.06277-0.08398-0.10742-2.7873-2.3479-6.5431 0.25377-8.291 2.7012-2.0181 2.1444-1.7775 6.0922 0.39453 8.0293-0.16366 0.03589-0.33241 0.04527-0.49805 0.07031-0.75543 0.06087-1.523 0.10096-2.3008 0.11719-0.73652-0.02149-1.4754-0.06735-2.1992-0.08398-1.2071-0.04724-2.0052-0.16301-2.1133-0.41602 0.24056-0.2066 0.4653-0.42235 0.67383-0.64844 0.20777-0.1079 0.46184-0.22588 0.77344-0.35547 2.5959-2.6988 2.0737-7.0444 5.123-9.4902 2.0892-1.9927 5.6782-2.5575 6.8145-5.5605-0.0014-0.7531 0.06518-1.1289 0.16992-1.2676zm17.904 2.0859c1.881 0.03495 3.7627 1.0436 4.3555 2.9648 1.3179 3.2714-1.1943 6.2096-3.9648 7.7832-7.73e-4 4.39e-4 -0.0012 0.0015-2e-3 2e-3 -0.0021 0.0011-0.0038 0.0028-0.0059 0.0039-0.3939 0.22328-0.79356 0.4189-1.1875 0.58398-0.83694 0.34784-1.7081 0.86125-2.6367 0.86524-0.09495-0.0058-0.18967-0.01622-0.28516-0.03516-1.5365-2.4655-1.1183-6.3886-0.63086-9.293 0.59592-1.971 2.4764-2.91 4.3574-2.875zm-19.15 6.3789c0.40422 1e-3 0.80553 0.05667 1.1973 0.16797 0.08628 0.0302 0.17341 0.05642 0.25781 0.0918 0.0141 0.0059 0.02892 0.0096 0.04297 0.01563 0.0019 7.09e-4 0.0039 0.0012 0.0059 2e-3 0.69884 0.30212 1.3312 0.77968 1.8809 1.3594 6.36e-4 6.7e-4 0.0013 0.0013 2e-3 2e-3 0.4562 0.63146 1.172 1.6763 1.7344 2.7656 0.13931 0.34853 0.26133 0.69922 0.35156 1.0449 0.14534 0.2257 0.24394 0.43329 0.33398 0.63672 0.25823 0.96543 0.18191 1.8058-0.56445 2.2383-0.11618 0.06009-0.24306 0.11263-0.38086 0.15625-0.04645 0.01493-0.08677 0.03415-0.13672 0.04687-0.11665 0.03063-0.25156 0.04477-0.38086 0.06445-0.13696 0.01747-0.26387 0.04109-0.42188 0.04492-0.0097 0.0016-0.01958 0.0023-0.0293 0.0039-0.21958 0.01109-0.44302 0.01972-0.6875 0.0039-1.6146 0.12911-3.4811 0.70523-5.0957 0.25195-1.2244-0.51243-2.2282-1.4954-2.7148-2.7383-0.46595-1.4887-0.1482-3.19 0.81836-4.4434 0.97328-1.0785 2.3831-1.7183 3.7871-1.7148zm12.648 9.4434c0.12453-0.02855 0.33217 0.10144 0.63477 0.52734-0.2212 0.26746-0.41058 0.35535-0.56055 0.33008-0.24752-0.17374-0.31542-0.80212-0.074219-0.85742zm13.266 0.08398c1.1087-0.02378 2.2129 0.14292 3.2832 0.54492 0.15624 0.06032 0.30923 0.12402 0.45312 0.19922 0.04922 0.0254 0.09679 0.053 0.14453 0.08008 0.1621 0.09285 0.31758 0.1923 0.46289 0.30274 0.02777 0.02107 0.05489 0.04277 0.08203 0.06445 0.14275 0.1141 0.2767 0.23775 0.40234 0.36719 0.03331 0.03454 0.06754 0.06796 0.09961 0.10352 0.11062 0.12167 0.21238 0.25042 0.30859 0.38281 0.03763 0.05246 0.07597 0.10421 0.11133 0.1582 0.07406 0.11147 0.1388 0.22841 0.20313 0.3457 0.05026 0.09332 0.10043 0.18665 0.14453 0.2832 0.03292 0.07063 0.0622 0.1427 0.0918 0.21484 0.06115 0.15248 0.11967 0.30673 0.16602 0.46484 0.0041 0.01363 0.0077 0.02735 0.01172 0.04102 0.46686 1.6423 0.13955 3.5353-1.0195 4.791-0.0012 0.0014-0.0027 0.0026-0.0039 0.0039-0.02843 0.03033-0.06238 0.05634-0.0918 0.08594-0.11799 0.12009-0.239 0.23727-0.37305 0.34375-0.17599 0.1389-0.36461 0.26915-0.56836 0.38281-0.7078 0.23463-1.4216 0.32442-2.123 0.30469-1.2494-0.08377-2.4446-0.59628-3.582-1.207-0.11066-0.075516-0.22451-0.14466-0.33204-0.22656-0.23689-0.10537-0.46933-0.22171-0.70117-0.33984-0.01142-0.0066-0.02375-0.01289-0.03516-0.01953-0.01304-0.0044-0.02413-0.01116-0.03711-0.01563-2.1563-1.1144-4.0313-2.7921-4.6367-5.2422 0.30726-0.1739 0.62815-0.3393 0.94922-0.50391 1.1463-0.53702 2.3196-1.0451 3.5332-1.4102 0.28154-0.0794 0.5613-0.16488 0.8457-0.22656 0.04213-0.01 0.08478-0.01583 0.12695-0.02539 0.691-0.14285 1.388-0.23312 2.084-0.24805zm-17.393 4.9629c0.44604 0.14246 0.84105 0.40714 1.1992 0.75195 0.58031 0.77244 1.1411 1.5599 1.6836 2.3633 0.48268 0.82639 0.95262 1.6531 1.4883 2.2734 0.29941 0.74885 3.0977 4.1909 2.6074 4.3633-0.0787-0.04593-0.14325-0.07578-0.23633-0.12695-2.9499-2.4027-6.4459-3.962-9.9609-5.3711-2.6827-1.3521-5.716-1.5273-8.5449-2.3086 0.0058-0.0058 0.0053-0.01183 0.01172-0.01758 0.80227-0.19583 1.6156-0.35455 2.4355-0.49414 1.1187-0.10646 2.2283-0.3026 3.3359-0.51758 1.2642-0.1903 2.5277-0.39255 3.7676-0.68555 4e-3 -0.0018 0.0077-0.0021 0.01172-0.0039 0.731-0.11068 1.4657-0.18876 2.2012-0.22656zm26.627 26.533c-0.17392 0.01774-0.44117 0.12431-0.82617 0.375 0.59584 1.1474 1.5798-0.45189 0.82617-0.375z" fill="#f1e593"/>
<path d="m49.177 1001.1c-2.372-0.8692-7.3308-0.4981-5.2775-4.3728 0.71556-2.8657 1.491-5.716 2.2375-8.5738 3.8921 0.0629 7.8099-0.17916 11.68 0.24914-0.90559 4.4255-1.8358 8.8563-2.8782 13.248-1.4254 1.2676-4.0747-0.3991-5.7618-0.5502zm-13.861-5.0997c-2.8657-1.3464-5.6012-4.5138-4.3279-7.8488 4.6681 0.0636 9.3527-0.16745 14.007 0.20562-0.30495 1.8407-0.26044 6.5828-2.4543 7.2172-2.4649-0.50181-4.8454 1.3127-7.2245 0.42598z" fill="#adeb96"/>
<path transform="translate(.85721 988.19)" d="m46.75 44.381c-4.75-3.3809-14.75-12.381-8.9375-14.361 1.476-0.66216-0.023438-0.97266 3.1875-2.0195 0.78906-0.95313 2.5473-2.7428 3.6-5.4615 2.1947-4.1071-2.4737-9.5184-7.1099-8.6815-2.7131-0.032-4.3384 2.8082-5.1307 5.1665-1.9784-5.8677-3.3538-11.934-4.9609-17.914 0.14331-1.1446-1.6684-1.3824-2.8164-1.1562-0.04997 0.0098421-0.07948 0.029602-0.12695 0.041016-0.25351 0.0015102-0.51277 0.041213-0.77539 0.18359 0.01523 0.060634 0.03161 0.12102 0.04687 0.18164-0.02191 0.03508-0.0499 0.068941-0.05469 0.10742 1.7228 8.1063 4.1179 16.063 6.3711 24.037 0.44392 1.0621 2.1773 6.1789 0.0039 4.1953-3.884-9.2066-5.4583-19.166-8.332-28.699h-0.94141c-0.21455-0.10591-0.45029-0.17648-0.72265-0.1875-0.31736-0.012841-0.6776 0.045033-1.0859 0.1875h-0.95511c0.87654 3.7519 2.0911 7.5476 1.6719 11.443-0.83006 4.0685-5.1642 5.7917-7.7305 8.6211-2.7872 2.6991-3.0683 7.0369-5.9609 9.5977-1.2746 1.3238-4.1687 1.131-5.4277 2.2324-0.15699 0.11149-0.2815 0.24819-0.38477 0.40234-0.025333 0.03276-0.048786 0.06727-0.070312 0.10352-0.01822 0.03371-0.033283 0.06959-0.048828 0.10547-0.032052 0.07068-0.057669 0.14715-0.076172 0.23047-0.014234 0.0586-0.023348 0.12176-0.03125 0.18555-0.0036188 0.04077-0.0070965 0.08147-0.0078125 0.125-0.010179 0.1809-6.2589e-4 0.3797 0.041016 0.60352 0.0043802 0.05684 0.0047127 0.10965 0.015625 0.17188 7.389 0.198 14.816 0.66243 22.172-0.29297 1.1447-0.5015 6.8203-0.96606 3.3926 0.71484-8.0512 1.932-16.403 2.0124-24.645 1.9082-0.067118-0.01343-0.14506-0.03906-0.20312-0.04297-0.6572-0.13583-0.7586 0.28895-0.73828 0.83594-0.013035 0.19362-0.013286 0.40195-0.0039063 0.61914-0.014462 0.1747-0.012225 0.36842 0.019531 0.59375 8.2355e-4 0.04931 0.0063267 0.10244 0.0058594 0.15039 6.4935e-4 2.5e-5 0.0013038-2.6e-5 0.0019531 0-6.8371e-4 0.0071-5.0318e-4 0.01512-0.0019531 0.02148 3.7268 0.2021 7.4563 0.48182 11.125 1.2031 9.6119 1.4755 18.592 5.5445 26.809 10.623 6.25 4.2613 12.141 9.0526 18.547 13.098v2e-3l0.39258 0.21289c0.01649 0.0044 0.05515 0.01079 0.07617 0.01563 7.51e-4 4.86e-4 0.0012 0.0015 2e-3 2e-3 0.63908 0.41274 1.3198 0.69062 2.1406 0.50977 0.10176-0.01727 0.22842-0.01668 0.3457-0.02344 0.05992 0.0036 0.11753 0.01496 0.17773 0.01758 1.0353 0.13704 2.0932 0.19214 2.8652 0.05469 0.26991-0.019 0.52116-0.05324 0.71875-0.13086 0.07788-0.0036 0.15643-0.0088 0.23047-0.0078 0.03231-0.05808 0.05066-0.11708 0.06445-0.17578 0.14623-0.13169 0.23755-0.30691 0.24023-0.55078-0.05843-0.04788-0.11914-0.09297-0.17773-0.14063-0.01566-0.10342-0.02936-0.20696-0.08398-0.33008-8.291-6.9528-18.596-11.537-25.496-20.105-1.2633-2.1988-4.7042-5.1571-4.0977-7.5117 0.08518 0.01459 0.17749 0.0019 0.27344 0.05859 1.1732 2.2776 2.004 4.3577 7.5958 9.9535 6.5839 6.0971 14.15 10.261 21.492 15.369 0.20839 0.17207 0.3584 0.204 0.4707 0.14844 0.02284 0.02218 0.04756 0.04216 0.07031 0.06445 0.02326 0.0095 0.04444-0.0055 0.06445-0.02148 0.0019 0.0014 0.0039 0.0025 0.0059 0.0039 3.12e-4 -0.0016 0.0016-0.0061 2e-3 -0.0078 0.09308-0.0905 0.14014-0.45456 0.14648-0.91406 2.24e-4 -0.0018-2.23e-4 -4e-3 0-0.0059 0.09717-0.79399 0.13227-1.8403-0.24414-2.5195-3e-3 -0.03122-0.01612-0.12567-0.01758-0.14844-0.07055-0.05334-0.14417-0.10306-0.21484-0.15625-0.0978-0.09995-0.20922-0.1868-0.3418-0.25-5.469-4.0861-11.29-7.7574-16.432-12.285m-25.928-31.375c0.23702 0.03527 0.43691 0.49473 0.61523 1.0723 0.02327 0.07217 0.04524 0.14452 0.06836 0.2168 0.17971 0.63612 0.33808 1.3827 0.48047 1.9434-0.12636 1.2546 2.4881 6.0425-0.0293 5.1426-3.1764-2.0957-7.0022 0.04646-8.6465 3.0352-1.7316 2.3865 0.82285 5.4653 0.84961 7.3164-2.8012 0.3506-5.7168-0.17789-8.5605-0.21289 2.8174-1.3729 4.0096-4.4166 5.1289-7.1426 1.6327-4.5819 6.7576-6.1495 9.2793-10.035 0.15348-0.49715 0.29439-0.83417 0.42774-1.0469 0.09927-0.0979 0.19956-0.19603 0.29492-0.26172 0.03077-0.0088 0.06212-0.03176 0.0918-0.02734zm17.717 2.8047c2.2411 0.11374 4.3951 1.5333 4.6074 3.9805 0.46309 3.869-3.0105 7.0457-6.4766 8.0391-2.4291 1.4968-3.3849 0.07997-3.1523-2.332 0.14514-3.014-0.65581-6.9076 2.0859-9.0078 0.87992-0.513 1.9168-0.73139 2.9355-0.67969zm-19.67 6.127c0.36877-0.01642 0.74246 0.02013 1.1133 0.11719 3.6231 0.95463 4.7483 4.8976 5.7305 8.1094-0.11617 0.22983-0.30408 0.42223-0.54297 0.58203-0.71229 0.14781-1.7288 0.09585-2.3984 0.27148l-0.64648 0.076172-0.6543 0.078125c-2.3372 0.85015-5.0456 0.38279-6.4277-1.4219-0.03929-0.070977-0.078869-0.13561-0.11719-0.21094-0.12326-0.16221-0.22542-0.32955-0.32031-0.49805-0.2489-0.51044-0.41445-1.0941-0.46289-1.7598-0.21835-2.5306 2.1452-5.2288 4.7266-5.3438zm13.006 9.4551c0.26095-0.02697 0.63005 0.20529 1.0859 0.93164-0.44958 0.41802-0.78925 0.54496-1.0352 0.51562-0.14114-0.14822-0.28903-0.27341-0.43945-0.38281-0.14725-0.41832 3e-3 -1.0246 0.38867-1.0645zm-4.4434 5.1602c0.41766 0.01064 0.82927 0.05244 1.2344 0.13281 1.8966 2.4907 3.459 5.2254 5.3184 7.748 0.60774 0.9134 1.3208 1.7875 1.7812 2.7871-6.0409-3.2878-12.266-6.5322-19.053-7.9902-3.6948-0.4228-0.0092-1.2748 1.5723-1.2598 2.1155-0.04523 4.3132-0.74215 6.4453-1.1406 0.34862-0.05939 0.6981-0.11184 1.0469-0.16992 0.55856-0.07132 1.1118-0.12124 1.6543-0.10742z" fill="#f60"/>
<path d="m53.574 1001.9c-3.2208-1.2056-6.8011-1.4604-9.9243-2.812-0.17632-1.3639 1.881-4.3717 1.2419-1.2212 1.9362 2.0312 6.1936 3.0602 9.0082 2.3807 1.3697-3.848 1.5707-8.0406 3.0647-11.84 1.7613-0.403-0.70305 3.299-0.47689 4.638-0.99589 2.8694-0.73824 6.9797-2.4019 9.1119zm-17.867-6.1329c-2.7765-1.1923-5.3686-3.9312-4.6069-7.1947 1.5318-0.78481 0.06968 3.8857 2.2606 4.3541 0.94238 0.61612 1.5082 2.2719 2.7768 1.9926 2.3649-0.0891 4.8346-0.77336 7.1244-0.22538-1.2788 0.49476-5.3765 1.146-7.5549 1.0733zm8.9908-7.2796c1.0992-1.373 0.1972 1.2586 0 0z" fill="#9ce46d"/>
<path transform="translate(.85721 988.19)" d="m19.617-0.18164c-0.33646-0.0037443-0.58988 0.054172-0.77734 0.16211-0.10146 0.036548-0.17606 0.088561-0.22656 0.15625-0.094038 0.038833-0.18002 0.064348-0.2793 0.11133 0.030798 0.11353 0.060924 0.22994 0.091797 0.34375-0.22666 0.99461 0.54962 2.7441 0.66992 4.0098 0.62342 3.2836 1.5215 7.5021-1.2539 10.084-2.8973 3.0078-6.9364 5.2426-8.5 9.375-2.3415 3.9386-2.8366 6.2547-6.3418 6.9395-0.62548-0.2736-0.91992 0.63672-0.91992 0.63672 2.5971 0.3797 5.0381-0.54238 6.4922-2.709 1.7406-3.0346 2.5813-6.9985 5.6953-9.2578 2.7113-1.6865 5.2015-4.7342 6.6484-7.4199 1.0836 3.7503 1.3795 6.3615 2.2949 9.5449-2.8568-1.9269-6.3792-2.1038-8.5371 0.83789-2.5527 1.8656-2.4619 6.0193-0.67383 8.3672 1.5312 2.3674 2.9996 1.0004 0.4707-2.4922-1.0513-2.8499 1.4541-5.9375 4.0645-6.5762 2.5584-0.2257 4.3532 1.3675 5.5703 3.3809 0.24028 0.76355 0.59374 1.5522 1.1777 2.4902 0.062235 0.17232 0.13406 0.34749 0.18945 0.51758 0.070829 2.8932 2.7907 1.7952 4.5566 1.4043-3.1591-7.103-4.7724-14.736-6.6934-22.232-1.0698-2.2891-0.43784-6.1899-2.4629-7.4707-0.087327-0.023377-0.15654-0.031585-0.23828-0.050781-0.23868-0.10581-0.51671-0.15097-0.83594-0.13477-0.058217-0.0038293-0.12774-0.016978-0.18164-0.017578zm4.9746 0.058594c-0.13478-0.0035064-0.24825 0.015335-0.3457 0.052734-0.25009 0.024022-0.41877 0.17883-0.42774 0.58203-0.001216 0.019334 9.11e-4 0.033818 0 0.052734-0.008315 0.056789-0.010148 0.11522 0.001953 0.17969 0.002888 0.48903 0.11296 0.83001 0.30078 1.0684 0.45732 0.9183 1.3759 1.7554 2.3535 1.4512 2.0519 6.2608 3.4326 12.724 5.248 19.057 0.91473 2.5919 0.696-0.59583 0.58984-1.3613-1.6467-6.3977-3.506-12.777-4.9844-19.232-0.006509-0.77954-0.14476-1.1382-0.34961-1.3066-0.045546-0.30219-0.37518-0.67722-0.70703-0.13672-0.2261 0.007323-0.45616 0.0064332-0.66602-0.10938-0.4169-0.19962-0.75208-0.29007-1.0137-0.29688zm39.268 11.033c-0.082684-0.026346-0.19053 0.010191-0.32617 0.12695-5.8537 5.5404-12.559 10.263-19.863 13.693-1.7354 1.3667-6.09 1.8896-6.1973 4.0039l0.41602 0.49805 0.37695 0.20703c8.7541-3.764 17.12-8.6496 24.291-14.971 0.29288-0.030255 0.55001-0.24767 0.76953-0.55469 0.57724-0.23982 0.77095-1.2931 0.71484-2.0625 0.049651-0.49045 0.005313-0.88184-0.18164-0.94141zm0.17969 5.3711c-0.045147 0.044157-0.093333 0.084961-0.13867 0.12891-0.25887 0.21447-0.52654 0.41833-0.78711 0.63086-1.3393 1-2.6763 2.0041-4.0215 2.9961-5.1286 4.0384-10.971 6.9787-16.943 9.543-3.2461 1.5401-6.6875 2.6814-10.18 3.3496-1.7815-2.0768-4.8599-0.90513-5.6465 1.0762-6.5919 1.6796-13.647 2.1341-20.438 2.1641-1.5874 0.46735-4.5747-0.67423-5.5859 0.41797-0.34962 0.24251-0.49106 0.72956-0.29883 1.6211 0.0018194 0.011364 3.063e-5 0.01977 0.0019531 0.03125 6.3887e-4 4e-6 0.0013142-3e-6 0.0019531 0 4.788 0.028273 10.32 1.0915 14.982 2.2188 9.1428 1.9057 17.447 6.0743 25.215 11.176 5.4118 3.9533 10.278 7.2463 15.799 11.053 0.46752 0.44067 0.98968 0.73512 1.5449 0.93555 0.017186 0.019234 0.03777 0.03729 0.054687 0.056641 0.034359 0.003118 0.16582 0.021761 0.21289 0.027343 0.22265 0.068443 0.44873 0.1261 0.68164 0.16406 0.56494 0.10014 1.1515 0.12854 1.7441 0.12695 1.1353 0.10462 2.3336 0.14247 3.0059-0.085938 0.060214-2.5e-5 0.12588-0.006631 0.18555-0.005859 0.019508-0.030245 0.022507-0.061398 0.037109-0.091797 0.28107-0.157 0.39824-0.39181 0.25195-0.74023-0.10113-0.059315-0.19795-0.12581-0.29883-0.18555-0.18409-0.18189-0.43542-0.37456-0.72656-0.57422-0.001714-0.001363-0.004141-0.002543-0.005859-0.003906-1.1282-0.89529-3.0383-1.7901-3.7031-2.5762-6.2105-4.5364-13.044-8.3439-18.521-13.805-1.3921-1.5839-2.8098-3.2015-4.0957-4.9062-0.12861-0.18964-0.27543-0.38793-0.42969-0.58789-1.0908-1.502-2.0594-3.0784-2.8125-4.7637 0.017109-0.19706 0.076949-0.38643 0.17188-0.56836 2.6302-0.94512 5.6066-1.9701 8.3379-3.1328 0.18296-0.083764 0.37201-0.15801 0.5625-0.22852 0.62102-0.18636 1.2503-0.34131 1.8906-0.46094 2.9841-0.39453 6.2149 0.68955 7.5156 3.5879 1.0904 2.5335-0.41063 5.5334-2.7344 6.6191-0.001314 6.14e-4 -0.002593 0.001341-0.003907 0.001953-0.9051 0.30815-1.9187 0.38007-2.9121 0.26367-0.20078-0.053518-0.40183-0.11138-0.60352-0.19726-0.68662 0.1063-3.7185-2.1662-2.8633-1.2148 1.4916 2.2838 4.381 2.3208 6.7988 1.7852 3.2285-1.3945 4.4776-6.1187 2.1797-8.8906-0.28902-2.1701-6.0324-1.9279-4.2949-3.7168 4.3624-2.1593 8.509-4.7342 12.463-7.5742 1.2018-0.95736 2.9118-1.8185 3.8164-3.0801 0.036445-0.04855 0.069661-0.098615 0.10352-0.14844 0.023778-0.036657 0.049905-0.072026 0.072266-0.10938 0.25968-0.41388 0.42808-0.87098 0.45508-1.3906 0.026571-0.28718 0.017917-0.59685-0.041016-0.93555zm-36.387 20.252c0.3337 0.021323 0.66305 0.070184 0.98633 0.1543 1.271 1.9097 6.3619 8.3133 7.2715 10.674-3.5354-1.7592-5.5418-3.3199-9.2812-4.7051-3.9327-1.7698-4.6981-2.3956-11.533-3.7461 0.28746-1.0496 3.2745-0.55481 5.1973-1.2246 2.456-0.090038 5.0235-1.3016 7.3594-1.1523z" fill="#30d429"/>
</g>
</g>
</g>
</svg>
