<?xml version="1.0" encoding="UTF-8"?>
<svg version="1.1" viewBox="0 0 64 64" xmlns="http://www.w3.org/2000/svg" xmlns:cc="http://creativecommons.org/ns#" xmlns:dc="http://purl.org/dc/elements/1.1/" xmlns:rdf="http://www.w3.org/1999/02/22-rdf-syntax-ns#">
<metadata>
<rdf:RDF>
<cc:Work rdf:about="">
<dc:format>image/svg+xml</dc:format>
<dc:type rdf:resource="http://purl.org/dc/dcmitype/StillImage"/>
<dc:title/>
</cc:Work>
</rdf:RDF>
</metadata>
<g transform="translate(0 -988.36)">
<g transform="translate(-.85721 .17178)">
<path transform="matrix(.12641 0 0 .12641 28.17 891.99)" d="m-215.89 1014.3v-253h506v506h-506z" fill="#735c00"/>
<path d="m17.857 988.19h-17c0 10 3.1688e-4 21.001-0.001953 31.375 2.2404 0.01 4.4672-0.01 6.2949-1.543 1.8964-2.9567 3.337-6.2626 5.5566-9.0293 1.7384-2.1669 4.1534-3.6936 6.1445-5.6309 1.816-1.7668 1.8456-5.0549 2.084-6.0839-0.23838-0.97101-1.096-3.8418-1.6367-6.2109zm28.27 0.01c-6.2386 2.5e-4 -12.031-0.0655-18.27-0.01 1.7944 5.5115 3.2754 13.602 4.5481 17.103 0.53943-0.3023 2.0081-2.622 3.1488-3.295 1.4171-0.5501 3.04-0.6551 4.5516-0.8199 2.7233-0.1292 4.0919 1.8484 5.707 3.2938 0.55664 1.907 2.1578 3.73 1.0445 5.7177-1.0105 2.3278 2.2215-0.2889 2.9219-0.4395 5.223-3.4559 10.081-7.4429 15.059-11.24l0.0039-10.307c-6.2385 8e-3 -12.476-4e-3 -18.715-4e-3zm-26.684 4e-3c0.47107 2.9685 1.6462 5.9234 2.3379 8.8535 0.05111 1.7432-0.71439 3.7568-0.95898 5.498-1.9013 2.3317-4.7056 3.9905-6.8965 6.1152-2.1679 2.3399-3.1602 5.5975-4.8887 8.2735-1.192 3.207-5.1803 3.4119-8.1816 3.3789 0.039302 1.8733-0.097365 3.7599 0.10156 5.623 2.6096 0.4966 5.6785 0.051 8.3848 0.2481 4.1885 0.7103 8.3772 1.7985 12.545 2.664 3.2506 1.1201 6.3864 3.0319 9.584 4.3125 3.6302 1.6832 8.2242 3.7524 11.223 6.4239 5.2549 4.643 11.407 8.9403 16.803 12.494 1.7208 0.2391 3.5774 0.031 5.3496 0.1016-0.02259-2.0022-0.09346-3.7952-0.11605-5.7974-0.02046 0-0.13142-0.056-0.30514-0.1618-0.92238-0.5628-3.6141-2.4068-3.9232-2.5656-5.0629-4.0457-10.969-7.3332-15.592-12.058 0.73885-0.6065 3.8572 0.1747 5.0411-0.6048 1.2315-0.8722 2.9347-0.5659 3.4601-2.1455 0.69806-1.0288 0.97312-1.9887 0.81819-3.2456 0.03186-1.6723-0.06064-3.6028-1.3237-4.8082-1.4644-1.942-4.8822-2.565-7.0235-2.8902 6.5106-2.6259 13.192-7.2195 18.898-11.194 0.01731-1.8459 0.03347-3.6913 0.05078-5.5372-0.26929-2.7721-16.162 12.746-19.973 12.008 1-2 2-4.4126 0.03003-6.2545-0.3039-1.7867-1.3672-3.0016-2.5296-4.1924-1.3266-0.5203-2.6673-0.9174-4.0755-0.4131-2.9423 0.1545-5.0242 3.0442-5.4249 5.86 0 3-4.1094-13.516-6-20zm45.414 56.986c0.01563-0.5958 0.01563-36.867 0-37.484-4.6757 3.2245-9.0979 6.7711-14.178 9.3515-2.9818 1.0536 0.47313 0.161 1.9318 1.9588 2.5413 2.2022 2.9551 4.4489 2.7312 7.0305-0.48524 5.1436-5.6882 6.9716-8.024 6.6397 2.3348 2.1707 4.8912 3.718 7.4792 5.5855 3.3883 2.4451 6.6129 4.3531 10.06 6.9184zm-42.477-45.78c0.94554 2.5709 1.8641 6.9309 2.6484 9.6173 1.3803 2.8834-1.6148 0.3463-2.7769-0.4222-1.2137-0.4591-2.3971-0.075-3.7117-0.2012-1.6965 0.2706-2.8989 1.8455-3.8766 3.2249-1.7035 2.2827-1.3381 6.9223 1.5488 8.8809 1.0223 1.2474-14.467 0.5691-7.7246-1.3243 1.7289-2.3992 2.9187-5.0876 4.4317-7.6425 0.81227-2.0702 2.5564-2.9942 4.1035-4.4629 2.0779-1.9038 5.343-4.4893 5.3574-7.67zm19.347 3.9227c4.5167 2.7657 6.1295 4.8567 2.1809 11.035-1.724 1.0868-4.4224 1.8004-6.2409 2.7768-5.2329 1.3123-11.716 2.9985-17.74 3.5645-2.1947 1.0141-3.7272-1.5137-5.0844-2.8488-0.41761-1.3214-0.50474-2.9797-0.74176-4.3875 0.72603-1.6692 2.6405-3.33 4.2598-4.2559 1.2714 0.1565 3.0575-0.1419 4.1934 0.4629 2.3577 1.2012 4.3868 3.0603 4.9199 5.6699 2.3828-2.1601 5.1574-2.9456 5.3918-4.6092-0.30647-2.5834 0.75645-5.457 2.8915-7.0349 1.9576-0.8915 4.1082-0.8994 5.97-0.3727zm-19.167 0.1574c-0.70326 0.6994-2.5206 2.562-4.2148 3.5938-2.2877 2.1164-0.77355 0.4007 0.54475 0.5133 1.3076 0.1893 3.967-0.4078 5.0827 1.2392-0.41423-3.024-1.3647-4.0117-1.4126-5.3463zm17.295 0.3581c-1.9863-0.016-3.6936 1.0664-4.8867 2.4065-1.8427 3.1731-0.11093 6.9347 0.81875 9.9835 2.5297-0.346 4.4165-1.9237 6.7127-3.1277 1.5324-2.0013 2.3642-4.8949 1.0985-7.1547-0.99318-1.2032-2.1619-1.9851-3.7432-2.1076zm-21.011 6.2923c-1.6631 0.3627-2.604 2.1487-3.5898 3.4668-0.09928 2.6274 0.56828 6.2611 3.9766 5.8301 2.0685-0.8096 6.4782 0.3646 6.832-1.8125-0.72835-2.5239-0.69519-5.3664-3.4453-6.5605-1.0452-1.1052-2.4224-0.8169-3.7734-0.9239zm-6.3711 4.5157c-0.83014 1.8294-2.8887 5.0996-2.8887 5.0996s1.4187 0.107 0.375 0c1.6856 0.099 2.7094 0.04 4.3984 0.06-1.4994-0.6261-2.0711-1.4937-1.8848-5.1601zm32.898 4.1638c0.44976 0.018 1.251-0.042 1.7088 0.072 1.4006 0.3501 3.5256 0.06 4.4654 1.3919 2.7484 1.9427 2.7949 6.2156 0.99381 8.8169-1.334 1.0684-2.4242 1.6147-3.6301 1.7491-2.6609 0.4067-5.0579-1.2238-7.112-2.6663-1.3604-1.1406-2.6124-2.9125-3.7207-4.2973-2.3123-1.4616-5.1947 0.2852-7.6641 0.4668 1.4195 3.0156 3.286 5.9152 5.4902 8.4453 0.55904 0.6772 1.8888 2.1563 2.3809 2.8848-3.9502-2.2936-9.1916-4.3563-13.381-6.1543-3.3585-1.7077-8.1504-2.3271-11.738-3.3203 6.9184-2.2183 14.266-3.5819 23.422-4.7871 3.0374-0.4897 5.6366-2.7242 8.785-2.6018zm-0.32842 0.8304c-2.1773 1.0591-3.9075 1.4293-5.9467 2.7213 0.70543 1.6288 1.7753 3.0046 2.7062 4.5446 2.076 1.8245 2.7459 3.2027 7.1925 3.0842 3.5534-0.8815 4.8037-5.3634 2.6763-8.0112-1.4946-2.2119-4.3169-1.9043-6.6283-2.3389zm-15.494 5.3671c-3.5216 0.097-7.0813 0.8221-10.609 1.1074-3.2325 0.078 0.06293 0.6707 1.582 0.8984 3.0394 0.4271 5.2809 1.8522 8.1074 2.9473 2.0144 0.8576 3.9511 2.0069 5.9668 2.8613-1.9469-2.4763-3.1796-5.2873-5.0469-7.8144zm-28.543 1.8359c-0.29029 4.19-0.085703 8.4156-0.15039 12.619v12.717c19.932 0.039 39.76 0 57.002 0 0 0-0.656-0.9665-1.4805-1.4434-5.4764-3.7861-11.395-7.0002-16.393-11.625-4.3548-3.6476-9.817-5.5474-14.973-7.7871-3.1254-1.6078-6.7119-2.0274-10.08-2.875-4.4617-1.2971-9.3656-1.1688-13.926-1.6055z" fill="#404b5a" filter="url(#filter874)" stroke-width=".12646"/>
<path transform="matrix(.12641 0 0 .12641 28.17 891.99)" d="m-215.89 1172.9c0.47098-31.618-1.0432-63.379 1.3141-94.897 48.175 5.0587 95.972 14.205 142.56 27.764 24.813 6.6691 49.77 12.889 74.356 20.352-17.246 27.088 23.013 25.351 39.541 35.379 32.146 12.848 65.619 22.85 96.489 38.589 1.9871 18.786-22.361 39.381-30.537 58.564-17.239 17.041-49.15 4.8382-72.679 8.5944-83.68 0.087-167.36 0.033-251.04 0.048v-94.393zm422.37 92.873c3.2494-23.232 25.699-5.0468 29.821 1.214-9.5353-0.4024-21.394 2.0074-29.821-1.214zm11.936-104.85c-27.735 10.073 71.797-241.7 71.797-241.7s-0.10321 14.605 0 31.642c0.15442 25.491 0.29907 59.139-1.8428 79.207-23.179 34.751-48.435 68.201-70.38 103.71 25.303-32.581 45.817-67.881 70.717-100.79 2.951 19.414-5.6282 35.822-15.56 51.768-13.827 24.693-27.082 49.711-41.371 74.142-4.9113 2.4007-7.8574 4.4771-13.36 2.0099zm-2.3778-12.267c8.6916-16.531-11.576 9.5993 0 0zm-4.5424-3.83c8.4759-14.927-9.3207 9.4711 0 0zm21.408-20.785c13.228-19.602 27.283-38.782 38.928-59.362-17.674 23.319-34.515 47.341-50.486 71.862 0.96436 5.1875 9.7679-11.333 11.558-12.5zm-214.35-288.08c-12.019-83.028-36.336-91.814 4.2611-24.786-0.21043 31.454 35.282 26.605 56.977 34.835 44.339 10.246 88.409 22.722 132.92 31.509 22.523-14.5 43.955-31.097 64.487-48.288 2.4666-21.627 7.415-42.882 10.907-64.354 2.1022 19.874-0.47382 42.361 1.7412 59.266-110.39 110.91-226.24 15.648-271.29 11.818zm147.05 28.759c-21.109-5.8467-60.383-7.0523-42.156-38.835 5.6032-21.529 10.181-43.39 16.898-64.59 31.663 0.51206 63.544-1.2475 95.041 1.2966-7.1833 37.261-15.107 74.403-23.707 111.36-14.508 1.3374-31.151-6.882-46.077-9.2349zm-107-39.425c-19.337-7.2814-38.202-26.488-40.994-47.93 11.547-16.345 42.166-10.815 62.048-16.07h57.31c-7.1588 18.135-2.9868 56.859-22.258 60.637-18.749-6.1261-37.612 9.716-56.107 3.3627z" fill="#5b7648"/>
<path transform="matrix(.12641 0 0 .12641 28.17 891.99)" d="m133.11 1266.6c8.2424-12.489 21.033-31.944 20.442-40.277 10.144-9.4197 16.485-8.8211 27.542 3.959-4.8089 12.206-9.8026 24.339-14.726 36.499-11.084 0-22.194 0.6169-33.258-0.1814zm22.807-29.845c-2.8301 1.9331-1.1878 4.3496 0 0zm9.1599-12.834c-6.0979 2.1845-2.8862 8.6684 0 0zm48.033 18.333c-41.604-27.537-83.725-54.648-120.75-88.327-43.572-30.142-93.518-48.554-142.02-68.879-34.039-7.0013-67.82-15.987-102.02-21.749-21.408-0.9644-42.842-1.5428-64.21-3.2263v-44.319c19.81 0.3637 43.526-1.8702 57.277-17.287 14.143-24.285 27.128-49.521 42.307-73.032 18.905-16.944 39.601-32.576 57.055-50.599 7.5754-23.398 11.131-47.883 1.2992-71.237-1.0144-16.348-15.722-42.593 7.2461-42.133 13.757 0.0268 27.513 0.21036 41.269 0.31567 14.329 52.327 28.07 104.87 42.831 157.04 4.8135-9.2726 3.3799-21.669 13.471-28.071 9.3592-16.234 27.842-17.484 44.308-20.501 17.78 0.32734 34.652 12.348 43.874 27.039 16.646 17.551 1.4287 43.951 2.5872 58.099 22.367-10.634 45.583-20.292 64.343-36.871 29.179-22.112 58.18-44.464 87.619-66.23 0.87882 18.145 0.31823 36.335 0.43623 54.5-37.099 25.215-71.97 54.154-111.7 75.135-10.6 5.5584-45.146 16.7-15.038 17.87 24.046 1.393 43.77 24.799 44.739 48.306 0.10579 11.155 1.8839 22.781-5.6064 32.114-2.7349 9.2185-9.6913 14.303-18.25 17.818-8.1748 4.4904-15.982 10.434-25.854 8.2202-10.358 0.089-32.606-6.7911-14.001 7.6529 32.447 32.449 73.171 54.375 109.6 81.831 12.033 8.3506 24.067 16.701 36.1 25.052 0.0289 15.5 0.0579 31 0.0869 46.5-13.8-0.619-28.297 1.0111-41.682-0.9424zm-137.64-110.22c-22.735-25.085-41.98-53.053-56.732-83.562 19.226-2.9221 51.994-27.194 64.411-7.078 8.8492 11.435 14.256 26.4 25.198 35.857 16.631 12.061 34.995 24.155 56.628 21.029 9.028-2.3035 16.971-8.8856 25.586-12.816 13.64-19.524 14.69-49.474-4.5282-65.725-6.8368-8.7854-16.169-12.228-27.006-12.414-21.822-6.9042-42.675 0.6429-61.983 10.931-31.574 12.326-65.057 19.317-97.848 27.577-38.864 4.9091-77.914 8.6126-116.57 14.95 30.581 10.308 63.983 11.325 93.075 26.013 33.833 14.285 68.058 28.082 99.882 46.362l-0.11339-1.1247zm-74.312-41.789c-26.871-12.201-55.112-20.441-83.926-26.51 30.524-3.5038 60.87-8.6102 91.317-12.805 7.3306 11.046 37.671 45.646 12.546 47.601-6.7308-2.5517-13.339-5.4112-19.937-8.2849zm143.28 1.4845c-19.366-7.0025-37.596-19.932-47.426-38.467-13.265-13.112-13.885-27.709 7.3268-30.71 13.934-2.0127 25.502-16.166 39.96-12.003 18.121 1.4168 37.139 4.6687 46.307 22.677 13.175 23.595-0.44461 56.4-28.211 59.83-6.0024 0.1317-12.056-0.1629-17.956-1.3269zm-240.32-74.219c-20.302-14.67-26.804-45.315-16.87-67.004 7.8951-12.761 19.949-25.374 34.232-29.782 18.57-2.0138 36.991 0.32403 51.07 14.11 5.8833-9.6704-9.031-42.627-11.858-61.342-1.9002-13.108-7.8391-27.216-9.5689-5.7094-3.4812 21.078-26.548 30.005-39.902 44.75-11.473 10.586-25.486 19.101-31.341 34.268-12.45 20.744-22.474 43.512-37.59 62.193-20.443 14.358 29.89 6.3993 40.693 9.045 7.0406-0.077 14.127 0.3577 21.133-0.5289zm-37.465-5.3146c-30.016 3.1584 3.0051-27.136 7.3049-41.254 9.4549-4.5261-2.7307 27.006 9.4602 34.977 11.279 8.5163-14.752 4.8317-16.765 6.2772zm90.465-93.206c-10.345-7.037-25.102-1.8838-36.957-3.0846-15.759 4.1207 17.911-17.556 22.425-24.13 8.9916-15.531 20.716-7.37 7.5377 5.5718-23.932 7.5896 27.262 30.233 6.9939 21.643zm-1 92.749c39.507-4.1742 79.654-11.938 117.86-22.332 15.299-7.3387 30.224-15.873 44.481-24.783 9.7653-12.195 14.725-28.38 17.345-43.183-4.6242-10.772-5.8987-23.838-16.924-30.226-9.9277-11.565-25.866-15.521-39.949-10.404-9.3901 0.61766-17.265 4.0262-22.69 11.951-6.6716 5.6767-12.043 12.044-12.095 21.237-4.9574 16.2-7.0028 31.627-1.8931 47.509 9.8645 14.683 12.388 27.199-9.7559 26.36-18.843 3.2521-42.8 19.728-41.757-11.283-4.1345-12.618-9.0181-24.307-17.843-34.113-10.584-5.4193-20.827-15.849-33.837-13.188-9.2908 0.34225-19.456-2.193-26.54 5.4116-8.5992 8.2896-23.902 18.77-21.551 32.315 1.6451 9.3536 0.8419 19.875 3.9425 28.534 11.714 12.765 24.525 26.77 43.603 18.357 5.8698-0.71 11.738-1.432 17.605-2.1629zm-37.39-9.1899c-20.588-3.5058-20.895-24.63-19.256-41.254 7.9414-9.894 14.642-22.602 28.053-23.853 10.506 0.89175 21.195-1.3522 29.221 7.486 21.685 10.728 17.142 33.018 23.485 53.429-17.425 4.8519-42.012 13.451-61.718 5.2015zm141.59-24.074c-6.3896-23.393-21.137-49.218-5.3943-71.895 4.9163-13.678 24.649-17.525 37.836-17.138 17.866 3.3964 30.389 17.672 31.385 34.748-2.1883 31.726-29.443 41.486-52.81 53.484-3.4507 1.4004-10.12 7.8252-11.017 0.80162zm156.2 179.93c-12.628-3.8858-23.744-16.823-5.4673-19.172 11.803-24.012 17.926-51.678 38.457-70.223 7.9474-15.391 31.338-24.73 30.491-43.085 1.3857-14.495-0.71328-30.157-10.127-9.666-24.437 41.188-49.998 81.756-74.649 122.79-17.397-6.5748-13.873-37.954 9.4333-42.69 5.0742-11.001 15.365-23.861 12.268-36.837 4.7001-27.045-12.769-52.777-36.272-64.693-22.677-1.7628 15.048-8.6807 19.521-16.74 30.947-19.159 61.542-36.321 90.043-58.874 0 7.9106-0.61903 12.924-0.1085 20.597-0.48853 29.854 1.2301 59.895-1.5564 89.589-22.834 35.244-48.595 68.615-70.558 104.38 25.303-32.581 45.483-67.614 70.382-100.52 2.951 19.414-5.2938 35.554-15.225 51.5-13.827 24.693-27.082 49.711-41.371 74.142-4.9113 2.4007-9.7585 1.9668-15.261-0.5004zm-0.47675-9.7566c8.6916-16.531-11.576 9.5993 0 0zm-4.5424-3.83c8.4759-14.927-9.3207 9.4711 0 0zm21.408-20.785c13.228-19.602 27.283-38.782 38.928-59.362-17.674 23.319-34.515 47.341-50.486 71.862 0.96436 5.1875 9.7679-11.333 11.558-12.5zm-448.79-121.86c-2.1873-13.757 20.291-3.2734 28.035-7.8523 13.082-8.3225 13.242-29.85 19.916-44.371 5.664-19.91 20.733-35.272 30.85-53.03 12.019-11.309 26.689-20.378 37.561-32.635 4.7034-10.756 14.081-20.139 15.732-31.792 0.66741-15.895 2.6184-31.825 1.7809-47.714-10.219-5.4473-26.931-2.7578-27.136-18.197-3.3025-8.039 27.584-6.5704 30.159 2.2986 5.2757 25.086 14.462 43.059 17.907 68.349 0.3392 24.494-13.461 46.056-32.806 59.218-10.96 10.682-25.591 20.148-34.691 32.354-13.937 23.606-23.872 43.576-39.568 66.031-13.785 12.013-30.746 13.322-47.74 13.946 2.1e-4 -2.2021 4.1e-4 -4.4043 6.2e-4 -6.6064zm364.88-60.767c9.567-16.582-2.7975-35.644-9.5192-51.548-5.836-10.152-12.753-10.68-20.963-19.175-17.201-6.1667-37.385-8.0525-54.597-3.0352-10.948 3.35-17.654 23.622-30.781 19.291-8.9386-3.6592-5.0776-26.19-10.264-34.516-8.4666-31.386-9.5238-59.776-23.772-90.402 22.159-1.0167 12.718 22.617 19.397 33.625 4.2815 22.557 9.8561 45.586 37.556 44.436 52.201 12.429 104.25 26.63 156.67 37.422 22.523-14.5 43.955-31.097 64.487-48.288 2.4666-21.627 6.6127-42.414 10.105-63.886 2.1022 19.874 1.8296 40.846 1.837 57.429 1.0675 25.262-29.459 36.682-45.142 54.203-14.674 10.901-29.092 22.127-43.698 33.121-11.188-12.265-26.713-16.132-42.818-17.329-35.841-11.065 12.115 31.595 4.0548 42.864-5.5978 2.9132-6.3778 4.2799-12.55 5.7879zm16.619-76.701c-23.84-5.0024-60.956-9.3122-41.269-42.32 9.0131-18.295 4.1635-53.536 23.408-60.721 29.174-1.7e-4 58.633-1.6816 87.645 0.91221-7.1833 37.261-15.107 74.403-23.707 111.36-14.508 1.3374-31.151-6.882-46.077-9.2349zm-107-39.425c-19.337-7.2814-38.202-26.488-40.994-47.93 11.547-16.345 42.166-10.815 62.048-16.07h57.31c-7.1588 18.135-2.9868 56.859-22.258 60.637-18.749-6.1261-37.612 9.716-56.107 3.3627zm-26.5-21.304c-7.9467-8.5107-10.36-8.8032 0 0z" fill="#737669"/>
<path transform="matrix(.12641 0 0 .12641 28.17 891.99)" d="m-39.387 761.29c-15.377 0.12269-40.349-5.7163-25.026 17.946 4.2034 23.383 17.835 46.703 11.042 70.692 0.48772 25.311-19.515 38.872-37.101 53.248-11.823 11.4-27.364 19.712-34.016 35.407-12.691 20.69-23.437 43.107-36.728 63.173-15.548 11.741-35.638 14.714-54.672 14.006v44.318c30.739 3.4218 62.284-0.1792 92.259 8.6493 26.364 6.3446 53.359 10.713 79.322 18.31 55.415 24.137 114.69 43.972 159.44 86.221 38.297 31.059 80.707 56.318 120.97 84.712 7.2573 4.961 14.027 11.497 23.527 9.2128 10.16 0.034 20.325 0.069 30.481 0.1009 0.0274-15.5-0.0289-31-0.0879-46.5-44.279-31.833-90.952-60.329-133.17-94.872-6.4705-6.6714-34.438-28.457-7.7845-20.093 11.039 1.1708 22.234 1.6849 31.274-5.7008 8.124-4.848 18.568-7.4233 21.01-17.835 5.3397-8.0736 8.21-16.749 6.7592-26.478 2.4528-23.646-13.538-46.713-35.342-54.596-14.437-0.8964-34.097-4.9179-10.053-12.066 44.821-19.086 81.88-51.538 121.97-78.572 10.089-4.4598 3.5406-14.329 5.5229-22.994v-31.642s-3.9612-4.0517-13.137 5.623c-32.592 23.948-64.097 49.582-97.017 72.98-14.797 7.256-29.158 15.564-44.547 21.481 9.2968-23.519 12.089-53.128-10.553-70.343-10.977-11.55-28.01-18.743-43.619-13.521-18.898-0.82996-30.21 13.473-41.459 26.084-3.0828 9.0067-6.6497 32.115-10.083 8.4293-13.047-48.303-26.152-96.59-39.233-144.88-9.9729-0.50785-19.963-0.5443-29.953-0.5zm-5.8105 93.207c8.7783 26.642 15.128 54.522 21.5 82.002-15.789-12.266-33.687-19.157-53.761-15.796-13.01 2.8917-24.406 14.215-32.045 25.103-14.283 19.815-8.8407 53.996 11.246 68.82-10.766 7.2892-47.34 2.3503-68.108 1.1647 18.646-12.152 25.399-34.879 37.181-52.926 8.7053-14.064 14.217-30.732 28.67-40.109 15.969-13.974 32.119-27.748 47.78-42.069 4.154-8.2248 3.6224-17.926 7.5371-26.189zm137.81 23.584c14.558 1.4399 26.201 11.633 35.344 22.052 2.7856 10.718 11.728 21.27 5.38 32.231-4.3314 15.553-10.064 34.194-27.235 39.206-21.882 12.072-44.987 21.435-69.784 25.371-38.831 10.509-78.847 14.945-118.72 19.349-7.9808-8.2984-22.869-15.082-24.309-27.447-0.36212-9.9334-3.5498-20.613-2.2478-30.106 8.3153-11.874 18.004-25.972 32.42-29.447 11.536 1.1348 24.828-3.5788 33.974 5.5181 8.5204 5.7454 18.611 10.077 21.512 20.881 13.311 15.346 5.7424 56.526 35.07 40.941 17.557-5.3483 55.023-3.8752 34.025-29.521-5.5846-13.162-7.8793-28.548-6.0508-42.669 2.6788-10.731 2.0894-23.197 12.456-29.844 5.844-6.2264 11.175-13.4 20.61-13.008 5.8527-1.1689 11.705-2.3378 17.558-3.5066zm41.398 126.2c13.731 1.9424 28.571 2.389 41.67 6.2196 17.134 11.79 29.097 31.692 24.334 53.084-2.7602 11.969-8.303 24.137-20.767 28.044-8.0039 5.87-16.988 8.1033-26.835 6.5141-18.73-0.9111-34.084-13.859-48.408-24.493-9.0307-13.8-18.147-27.553-26.629-41.699-15.939 7.3654-54.337 5.1785-56.202 21.514 14.404 28.638 32.836 54.818 54.294 78.572-18.112-6.5771-41.191-22.47-62.426-29.401-26.821-10.236-52.101-25.306-80.779-29.759-16.586-3.8468-33.383-7.007-49.639-12.092 41.35-7.4736 83.614-9.5383 124.95-16.734 38.736-10.381 78.43-18.335 114.46-36.656 3.8361-1.485 7.7608-3.2503 11.975-3.1146zm-348.94 192.98c-0.87526 23.167-2.0394 47.079 0.34375 69.967 8.8138-8.7202 16.552-22.253 9.3874-34.879-3.1395-11.722-6.4162-23.432-9.7312-35.088z" fill="#e6bf26"/>
<path transform="translate(.85721 988.19)" d="m38.668 0.017578c-1.9381 0.0073865-3.881 0.046361-5.8145 0.017578-0.92578 0.26471-2.8544-0.03458-2.8594 0.69336-0.5538 1.2631 0.03555 2.4768 0.39648 3.7012 1.3456 1.1552 2.3436 2.8823 4.1113 3.4023 1.9667 0.73114 3.956-0.41591 5.9277-0.56055 3.9596 1.4793 2.762-4.7621 4.0312-7.084-1.921-0.15252-3.8549-0.17731-5.793-0.16992zm6.5137 0.017578c-0.70483 2.8291-1.4172 5.655-2.1133 8.4863-2.1987 3.9321 3.1 3.5312 5.4336 4.418 1.6609 0.23214 3.8376 1.2988 5.3535 0.99609 1.2564-4.5848 2.0246-9.2935 3.1953-13.9zm-21.094 2.6035c-0.6665-0.015975-1.4337 0.2671-2.3047 0.96094-1.1334 2.7207 1.0557 5.8327 1.3691 8.6973 1.5001 5.0916 2.3852 10.387 4.3438 15.328 0.31018 3.5381 3.8437 1.3833 5.7559 0.86328-2.3267-6.7808-3.9333-13.79-5.8691-20.691-0.20865-2.3758-1.2954-5.1103-3.2949-5.1582zm11.176 32.184c-1.2476 0.06229-2.7072 0.67785-3.9883 1.043 2.1134 3.3002 4.3854 6.4964 6.584 9.7402 3.1729 2.8651 6.3997 5.7297 9.8398 8.2852 2.2618 2.4813 2.7445-0.15184 4.0391-1.7773 1.6481-1.313-0.38262-1.8806-1.3027-2.6484-5.0347-3.1119-9.2286-7.4182-12.455-12.367-0.43415-1.8475-1.4692-2.3377-2.7168-2.2754zm17.541 16.662c-0.31526 0.04273-2.6073 3.0801-2.7051 4.0586 1.007-0.39048 1.4456-2.0855 2.207-2.916 0.48858-0.83816 0.60313-1.1568 0.49805-1.1426zm0.69531 0.13281c-1.1601 1.2348-1.9186 2.8251-2.8984 4.2168 2.5481 1.6485 4.8962 3.5782 7.4316 5.248l2.8828 1.9922c0.85764 0.84171 1.9009 1.0835 3.0703 0.92578v-5.1621c-3.5002-2.3999-7.0086-4.791-10.486-7.2207z" fill="#5b7648" stroke-width=".12641"/>
<path transform="matrix(.12641 0 0 .12641 28.17 891.99)" d="m243.01 1244.2c-20.057-13.209-38.635-28.479-58.792-41.52 7.7513-11.009 13.763-23.585 22.94-33.352 27.511 19.22 55.266 38.136 82.954 57.12v40.837c-9.2508 1.2475-17.515-0.6659-24.3-7.3243-7.6007-5.2537-15.201-10.507-22.802-15.761zm-62.749-43.822c1.0315-10.321 32.916-49.584 17.457-23.063-6.023 6.57-9.4907 19.974-17.457 23.063zm-19.003-13.07c-27.214-20.215-52.73-42.874-77.83-65.538-17.392-25.661-35.367-50.943-52.085-77.049 20.267-5.7766 46.175-19.474 53.044 9.7554 25.523 39.149 58.698 73.21 98.525 97.827 7.2786 6.0744 23.335 10.565 10.298 20.952-10.241 12.859-14.059 33.682-31.951 14.053zm-159.82-207.77c-15.493-39.089-22.493-80.965-34.359-121.24-2.4797-22.66-19.792-47.286-10.827-68.808 27.559-21.954 42.092 8.1488 44.293 33.207 15.313 54.595 28.029 110.03 46.435 163.67-15.126 4.1138-43.088 21.163-45.541-6.8256z" fill="#e67226"/>
</g>
</g>
</svg>
