<svg viewBox="0 0 64 64" xmlns="http://www.w3.org/2000/svg"><path d="M.002 32.004v-32H64v63.999H0v-32z" fill="#e6e6e6"/><path d="M.01 59.349c.113-1.363-.323-6.623.503-2.962.948 1.983 2.082 7.408-.558 6.716.115-1.249.036-2.501.056-3.754zm44.134 4.599c1.402-1.74 2.363-4.336 2.981-5.83-.827 2.49 2.586-2.166-.551-1.929-4.47-2.941-8.12-7.06-13.06-9.297-4.337-2.184-8.843-4.121-13.416-5.712-5.43-1.124-10.793-2.867-16.396-2.75-2.174.048-4.482.224-3.661-2.615.128-1.973-.947-5.005 2.157-4.14 4.047.172 5.858-3.607 7.403-6.664 1.46-3.537 4.172-6.078 7.14-8.37 2.994-1.782 4.057-5.541 3.461-8.826L18.138.06c2.813.723 8.092-1.796 8.868 1.689 1.562 5.671 2.692 11.463 4.553 17.05 1.176-3.897 5.68-6.509 9.572-5.008 3.113 1.408 5.947 5.496 4.192 8.908-.415 2.732 3.423-1.066 4.681-1.368 4.838-3.201 9.322-6.898 13.998-10.328v7.693c-5.438 3.809-10.485 8.35-16.696 10.901 3.603.078 7.065 3.423 6.636 7.128.771 3.881-2.606 7-6.223 7.445-3.908-.29 1.627 3.137 2.665 3.911 2.665 3.752 4.562-.986 6.106-3.048 2.516-3.462 4.85-7.057 7.49-10.429-2.754 4.426-5.958 8.55-8.756 12.947 2.65-2.338 4.073-5.716 6.294-8.43.706-1.23 3.304-4.367 1.208-1.284-2.257 3.411-4.777 6.647-6.874 10.165.713 1.088-3.613 2.153-.72 3.418 2.95 2.068 5.908 4.126 8.862 6.189-.598 2.192 1.604 7.182-1.984 6.384-2.878.004-5.756.03-8.632-.064 3.152-2.574-2.119-4.431-3.85-5.754-1.582.085.202 2.33-2.057 2.268-.433 1.536-3.307 4.685-1.03 1.506.985-1.042.955-3.187-.137-.953-.742.962-1.147 2.22-2.16 2.951zm3.541-4.652c-.308-.406-.363.473 0 0zm.97-1c.774-2.178-1.555 1.666 0 0zm5.862-9.037c1.274-3.019-2.437 2.854-.222.297zM34.12 44.28c-2.78-2.038-3.14-8.051-6.64-7.985-4.364.76-8.789 1.057-13.174 1.654 4.093.954 8.282 1.669 12.04 3.65 3.057 1.293 6.154 2.526 9.038 4.183-.405-.514-.839-1.005-1.264-1.502zm15.54-2.811c3.545-1.421 3.429-7.18.268-9.01-2.32-1.343-6.105-1.915-8.497-.16-1.76.512-5.383 1.29-2.754 3.62 1.604 3.384 4.998 6.331 8.883 6.32.76-.063 1.442-.41 2.1-.77zM13.49 31.206c-2.34-3.005-1.906-7.735 1.3-9.972 2.376-2.707 6.545-1.269 8.891-.41-.826-1.982-1.263-6.484-2.208-6.812-1.012 2.848-4.097 4.09-6.042 6.217-3.895 2.822-4.625 8.088-7.901 11.464 1.518.335 5.43.778 6.566.018-.163-.213-.42-.316-.605-.505zm8.396.017c2.134.057 5.813-.58 3.574-3.435-.599-3.54-3.704-6.868-7.5-6.17-3.576.827-5.048 5.116-3.299 8.199 1.55 2.955 4.673 1.643 7.225 1.406zm14.047-2.814c3.168-1.436 7.302-2.644 7.788-6.712.892-2.661-1.348-5.688-3.953-6.305-3.095-.577-6.462 1.429-6.622 4.746-.392 2.6.067 7.427 2.787 8.27zM.012 44.066c.108-.477.101.606 0 0zM52.618 14.01c-3.062-1.505-8.66-.731-10.093-3.842.954-3.337 1.709-6.742 2.583-10.108 3.96.043 7.928-.198 11.884.087-1.01 4.706-2.04 9.407-3.05 14.113-.461.12-.885-.205-1.324-.25zM35.416 8.094c-2.448-.437-4.576-2.6-5.46-4.825-1.446-4.601 5.071-3.271 7.68-3.162 2.23.15 8.606-1.513 6.193 2.733-.251 2.311-.798 5.872-3.91 4.464-1.488.32-2.963.826-4.502.79z" fill="#ffe680"/><path d="M.008 59.349c.11-1.363-.316-6.627.482-2.956.517 2.346 2.64 6.06-.47 7.126-.114-1.374.064-2.782-.012-4.17zM49.676 55.2a66.267 66.267 0 0 1-3.694-2.644c-2.937-2.254-5.708-4.735-8.351-7.298-2.23-3.234-4.386-6.518-6.72-9.679 2.097-1.138 4.37-2.829 5.37.197 5.114 7.184 11.678 13.307 19.331 17.712 2.78 1.822 5.962 3.422 8.389 5.536v4.972c-2.688.342-4.451-2.224-6.616-3.386-2.235-1.593-4.45-3.215-6.755-4.706-2.463 3.356 4.125 4.186 5.709 6.353 1.562.98 3.566 2.115.448 1.72-1.598-.151-4.412.65-2.45-1.393-.075-3.48-6.34-2.85-4.66-7.384zm.12 1.36c1.204-2.425-1.268.394-.64.668l.256-.24zM28 29.998c-2.918-7.278-3.683-15.194-6.214-22.592-2.375-3.772 3.502-6.984 4.867-2.573 2.202 7.82 3.777 15.89 6.692 23.515-1.21 1.81-3.44 1.657-5.345 1.65z" fill="#ffd42a"/><path d="M.008 59.349c.11-1.363-.316-6.627.482-2.956.517 2.346 2.64 6.06-.47 7.126-.114-1.374.064-2.782-.012-4.17zm44.136 4.602c.651-2.363 5.124-5.459 3.03-7.35-4.962-3.317-9.087-7.846-14.644-10.247-4.063-1.905-8.188-3.79-12.436-5.202-5.515-1.087-10.955-2.955-16.642-2.728-1.64.012-4.989-.618-1.532-.467 4.555-.024 9.06.605 13.463 1.759 3.198.747 6.455 1.27 9.393 2.82 6.445 2.676 13.08 5.454 18.107 10.452 2.275 1.326 5.686 5.963 7.042 1.723 1.913-1.953 3.773-5.483-.062-6.482-1.874-1.31-3.988-3.001-5.102-4.86 2.62 1.052 5.194-.174 7.414-1.58 1.98-2.718 2.137-6.946-.157-9.521-1.325-2.193-4.234-1.893-5.923-2.64 6.5-2.388 11.761-7.03 17.35-10.956-1.001 1.443-4.12 3.16-5.906 4.714-3.057 2.287-6.201 4.566-9.805 5.912 1.53.893 5.028 1.73 5.746 4.518.851 2.96.925 7.205-2.203 8.794-1.442 1.645-4.061 1.19-5.546 1.592 2.198 1.944 5.23 5.15 7.606 5.47 3.378-5.148 7.031-10.119 10.664-15.09-3.315 5.233-7.12 10.136-10.464 15.35 2.04-1.119 3.01-4.26 4.739-6.108 1.865-2.703 3.647-5.47 5.702-8.035-2.54 4.312-5.737 8.187-8.383 12.43 1.5.485-3.492 2.092-.506 3.211 2.577 1.91 6.958 4.674 8.415 6.061-3.326-1.594-5.974-4.324-9.231-6.02-2.111.902-3.485 4.153-4.448 6.378 2.366 1.944 8.018 4.785 8.326 6.105-1.561-.325-6.114 1.047-3.82-1.37-.131-2.43-3.472-3.634-5.296-4.375-.753 1.336-3.327 5.444-3.278 4.761.865-1.04 2.85-5.129.632-2.168-.716 1.066-1.216 2.333-2.246 3.15zm4.5-5.639c.785-2.159-1.6 1.623 0 0zm1.212-1.836c1.545-3.326-2.765 2.824 0 0zm1.687-2.724c1.22-1.383-.986-.055 0 0zm1.784-2.625c.439-1.476-1.278.671 0 0zm-4.607 8.787c-.52-1.232 1.397.051 0 0zm-2.326-.73c-.547-.972.793.026 0 0zm.235-.722c.01-1.11 1.098.137 0 0zM36.485 46.903c-4.945-2.95-10.364-5.05-15.718-7.085-2.968-.647-5.92-1.369-8.912-1.899 7.844-1.1 15.83-1.56 23.434-3.943 4.166-.813 7.825-4.295 12.214-2.832 3.318.112 5.796 3.753 5.091 6.939-.407 3.56-4.491 5.323-7.656 4.18-3.28-1.063-5.521-3.754-6.928-6.792-1.896-3.139-5.63.028-8.242.425.455 3.409 3.868 6.78 5.988 9.761.238.488 2.496 2.383.73 1.246zm-1.389-1.53c-3.328-2.287-3.635-8.65-7.76-9.029-4.106.476-8.194 1.078-12.31 1.469-.993.744 3.607.875 4.539 1.353 4.148.996 7.927 3.077 11.874 4.65.826.104 4.69 2.775 3.657 1.556zm14.513-3.837c4.635-1.919 2.847-9.87-1.99-10.007-3.608-1.224-6.812.961-10.032 2.223.98 2.383 2.334 4.908 4.438 6.419 2.094 1.525 5.163 3.122 7.584 1.365zm-38.24-9.09c-1.686-.239-7.248.637-3.355-1.759 2.043-3.027 3.412-6.488 5.615-9.405 2.333-2.535 6.09-4.157 7.406-7.359.065-1.46.938-2.813 1.054-.505.37 2.602 2.646 7.506 1.799 8.632-2.552-2.693-7.28-2.771-9.668.18-2.334 2.162-2.266 6.02-.689 8.525 1.325.742 2.364 2.46-.117 1.748-.682.001-1.365.001-2.045-.058zm2.133-1.303c-1.905-2.118-1.935-6.006-.212-8.34 1.656-2.39 4.687-3.85 7.516-2.948 1.64.775 3.811 2.21 2.419-.672-.456-1.457-1.105-5.55-1.738-5.288-.94 2.886-4.072 4.119-6.008 6.25-4.021 2.869-4.704 8.337-8.152 11.72 1.748-.105 6.038.881 6.64-.255zM.35 32.16c2.537-.976 6.328-.43 7.378-3.754 1.765-2.812 2.945-6.059 5.212-8.513 2.227-2.078 5.162-3.738 6.738-6.321 1.126-3.293.622-6.772-.554-9.957-.647-1.267-.99-5.103-.084-1.581 1.079 3.712 2.624 7.522 1.03 11.328-1.546 3.571-5.992 5.112-8.167 8.344-2.255 3.062-3.088 7.59-6.492 9.545a10.452 10.452 0 0 1-5.061.909zm14.923-1.27c-2.021-1.644-2.426-5.442-.65-7.352 2.181-3.55 7.66-2.86 9.68.483 2.096 2.138.892 8.187 5.04 5.943 2.275-.212 6.679-.836 4.067-3.832-1.28-3.315-1.41-7.872 1.715-10.202 2.654-1.89 6.987-1.176 8.428 2.044 1.664 2.41.293 5.443-1.177 7.583-2.824 1.895-6.101 3.33-9.457 4.04-5.298 1.35-10.733 2.048-16.16 2.653-.541-.401-1.006-.891-1.486-1.36zm6.357.399c2.115-.091 6.205-.27 3.904-3.383-.59-3.634-3.765-7.039-7.654-6.285-3.316.829-4.778 4.529-3.57 7.61 1.148 2.58 4.354 2.993 6.75 2.13l.57-.072zm17.568-4.346c3.461-.924 5.729-5.215 4.224-8.506-1.392-3.662-6.827-4.255-9.149-1.178-2.178 3.086-1.394 7.344.262 10.47 1.374 1.985 3.145-.363 4.663-.786zm5.109-2.362c1.924-3.27 1.237-7.62-2.088-9.69-2.15-1.73-5.109-1.12-7.43-.17-1.998.97-2.398 3.263-3.348 4.989-1.707-6.551-3.536-13.07-5.257-19.617 1.804 3.932 2.374 8.302 3.7 12.407.564 1.692 1.234 5.351 1.732 5.836 1.142-3.476 4.715-5.226 8.22-4.854 3.286.705 6.29 3.913 5.844 7.449.023 1.53-1.44 4.186 1.028 2.33 6.238-3.132 11.267-8.12 17.104-11.845-4.703 3.846-9.553 7.57-14.634 10.92-1.634.713-3.082 1.931-4.872 2.245zm9.354-10.268c-3.322-1.24-6.946-1.486-10.243-2.759-2.273-2.299 1.23-5.95 1.1-8.872C44.192-1.125 47.87.228 50.36-.013c2.013.24 5.435-.532 6.535.604-1 4.565-1.927 9.147-3.005 13.695l-.18.021zM34.758 7.862c-2.72-1.019-5.772-4.016-4.776-7.223 1.764-1.51 4.933-.205 7.264-.644 2.172.27 5.999-.544 7.106.51-.8 2.948-.367 8.273-4.912 6.892-1.538.278-3.133 1.127-4.682.465z" fill="#aef58c"/><path d="M26.244.027c.377 2.13 1.889 7.19 2.74 10.492.96 2.835 1.501 6.948 2.682 9.03.764-2.682 2.68-5.467 5.733-5.548 4.043-1.206 7.843 2.8 8.13 6.594-.172 1.695-2.468 5.337.734 3.293 6.21-3.098 11.41-7.805 16.959-11.901.89-1.161-2.794 1.836-3.776 2.521-4.6 3.432-9.055 7.2-14.358 9.522 1.097-2.888.994-6.766-1.813-8.648-2.13-2.651-6.301-2.252-8.85-.763-2.037.431-3.005 6.205-3.37 2.227-1.58-5.434-2.762-10.996-4.596-16.348zm-7.789.049c.032 3.63 2.49 7.033 1.765 10.768.046 2.58-1.466 4.447-3.476 5.858-2.115 1.976-4.842 3.453-5.962 6.274-1.76 2.539-2.604 5.904-5.121 7.782-1.507.93-8.285 1.305-3.596 1.388A6.687 6.687 0 0 0 5 31.471c1.996-.975 3.428-2.901 4.279-5.082 1.677-3.782 4.205-6.93 7.579-9.332 3.6-2.055 4.65-6.769 3.44-10.523A174 174 0 0 0 18.456.076zm38.4.361c-.183.216.17.487 0 0zm-.116.508c-.178.307.143.623 0 0zm-26.825.125c-.183.216.17.487 0 0zm26.697.508c-.173.308.142.622 0 0zm-26.819.207c-.127.39.102.757 0 0zm26.68.423c-.177.218.169.486 0 0zm-.115.508c-.173.307.142.62 0 0zm-.137.631c-.182.216.168.484 0 0zm-26.055.125c-.182.216.17.488 0 0zm25.94.383c-.185.167.179.868 0 0zm-25.656.398c.41.958 4.654 4.539 2.037 2.087-.746-.632-1.326-1.422-2.037-2.087zm25.53.233c-.173.308.142.622 0 0zm-.137.63c-.183.217.17.488 0 0zm-.115.508c-.178.307.143.624 0 0zm-.139.631c-.183.216.17.488 0 0zm-.115.508c-.173.308.142.622 0 0zm-15.387.475c-.507-.062-.23.235 0 0zm1.266 0c-.4-.2-.354.364 0 0zm1.135.07c-.992.34 1.168.304 0 0zm-2.906.057c-.508-.062-.232.235 0 0zm2.277 0c-.401-.201-.354.364 0 0zm13.488.03c-.173.31.142.623 0 0zm-16.397.095c-.51-.063-.232.236 0 0zm-.508.127c-.507-.062-.231.235 0 0zm-.63.127c-.508-.062-.232.235 0 0zm-.507.126c-.507-.061-.23.236 0 0zm-.755.09c-1.193.052-.049.408 0 0zm-.762.035c-.507-.061-.231.236 0 0zm19.422.032c-.183.216.17.487 0 0zm-.115.508c-.178.304.143.621 0 0zm-.139.63c-.176.218.167.484 0 0zm-.115.508c-.173.307.142.62 0 0zm-.125.631c-.178.307.143.623 0 0zm-12.225.36c-.039.873 1.237 1.151.242.203zm12.086.27c-.182.217.17.488 0 0zm-.115.509c-.173.308.142.622 0 0zm-10.58.22c-.507-.061-.231.236 0 0zm.506.127c-.508-.061-.232.236 0 0zm.506.127c-.508-.061-.232.236 0 0zm-23.277.086c-.443 3.751-3.95 5.645-6.512 7.983-2.732 1.953-3.712 5.304-5.497 8-.47 1.723-2.425 3.206-3.003 4.289 2.615-.047 6.423.68 8.436-.07-2.354-1.645-2.883-4.646-2.425-7.318.913-2.514 3.348-4.972 6.165-4.755 2.128-1.084 4.902 2.432 5.528 1.673-.844-3.258-1.727-6.526-2.583-9.768zm23.783.041c-.508-.062-.232.236 0 0zm8.925.03c-.182.215.171.487 0 0zm-8.42.095c-.507-.062-.23.236 0 0zm.506.127c-.507-.062-.23.236 0 0zm.633.127c-.507-.062-.231.236 0 0zm.506.127c-.507-.062-.231.236 0 0zm6.658.031c-.173.309.142.622 0 0zm-6.152.094c-.507-.062-.231.236 0 0zm.506.127c-.507-.062-.231.236 0 0zm.506.127c-.508-.062-.232.235 0 0zm.506.127c-.508-.062-.232.235 0 0zm.505.125c-.507-.062-.23.235 0 0zm4.002.088c-1.306 1.104.209 1.333 0 0zm-3.496.039c-.507-.062-.231.235 0 0zm-29.016.094c.591 2.23 2.36 6.377 1.682 7.628-2.592-2.004-6.6-1.928-8.884.58-2.715 2.184-2.79 6.178-1.403 9.084 3.306 2.575-3.417.869-4.947 1.358-1.378-.504 2.122-2.982 2.275-4.507 1.529-2.781 2.815-5.857 5.55-7.688 1.906-2.094 5.259-3.368 5.727-6.455zm29.522.033c-.507-.062-.231.235 0 0zM38.988 14.88c-3.014-.199-5.99 1.978-6.217 5.082-.59 2.838.211 5.819 1.667 8.277-1.933 1.75-5.865 1.955-7.81 1.99-.984-2.988-1.51-6.832-4.722-8.279-2.35-1.514-5.95-.8-7.397 1.737-1.65 1.912-1.21 5.609.764 7.209 2.342 2.738 6.435.193 9.585.316 4.291-.769 8.68-1.429 12.734-3.07 3.56-1.136 6.492-3.563 6.858-7.508-.344-2.701-2.518-5.72-5.461-5.754zm.028.41c3.44.121 6.215 4.442 4.333 7.523-.9 3.464-5.071 4.647-7.966 5.609-2.21-2.125-2.815-5.897-2.17-8.897.57-2.81 3.07-4.314 5.803-4.235zm24.596 3.367c-5.71 3.77-10.944 8.62-17.517 10.977 2.472.51 6.239 1.4 7.191 4.732.697 2.7.615 6.303-1.997 7.936-1.572 1.782-5.928 1.137-6.323 1.536 2.143 2.542 4.94 4.434 7.646 6.31-.588-1.266-4.815-3.559-6.471-5.512-1.117-1.573 3.414.233 4.075-1.35 2.181-.805 3.847-2.997 3.678-5.365.584-3.09-1.049-6.337-3.8-7.68-1.173-.233-3.919-.678-1.207-1.407 5.435-2.525 9.992-6.539 14.767-10.075l.02-.072zM20.06 21.585c3.645.741 5.183 4.481 5.9 7.767.644 2.48-3.48 1.396-4.98 2.025-2.527.817-5.891.252-6.798-2.568-.933-2.895.483-6.005 3.314-7.13.848-.16 1.713.045 2.564-.094zm23.973 9.105c-3.928 1.584-7.832 3.255-11.988 4.156-6.603 1.76-13.463 2.042-20.19 3.079 4.57.944 9.259 1.61 13.489 3.682 3.813 1.511 7.71 3.321 11.204 5.233 1.295.922-1.962-2.34-2.413-3.18-1.759-2.207-3.012-4.748-4.59-7.067 1.289-1.901 4.674-1.826 6.782-2.566 2.689 1.442 2.88 5.414 5.839 6.689 2.701 2.517 8.023 2.773 9.814-.903 1.5-2.686.551-6.363-2.104-7.933-1.627-1.056-3.97-.768-5.843-1.19zm.865.49c3.133-.026 6.861 1.218 7.315 4.808.674 2.858-1.342 5.737-4.2 6.198-3.237.31-6.583-1.74-8.239-4.448-1.354-1.938-3.456-4.549.203-4.958 1.546-.755 3.167-1.55 4.921-1.6zm-16.996 5.155c3.514 1.276 4.14 6.807 7.308 9.184-.123.393-3.66-1.892-5.167-2.316-4.266-1.71-8.368-3.957-12.99-4.556-1.837-.145-3.537-.946-.714-.952 3.865-.356 7.698-1.038 11.563-1.36zM1.92 37.964c-4.67-.057 1.956.636 3.817.523 5.163.159 10.108 1.926 15.163 2.84 7.445 3.103 15.274 5.901 21.273 11.52 1.954 1.514 3.998 3.327 6.183 4.298-2.14-1.877-5.2-3.685-7.448-5.831-5.63-4.966-12.97-7.276-19.72-10.29-5.782-1.14-11.46-3.061-17.408-2.999a56.33 56.33 0 0 0-1.86-.061zm51.39 12.345c-.445.65.847.378 0 0zm.745.453c2.174 2.38 5.224 3.781 7.74 5.78 2.643 1.81 2.164.941-.065-.45a433.844 433.844 0 0 0-7.675-5.33zm-1.75.02c-.349.34.347.659 0 0zm.486.765c-1.457.702-3.659 6.185-1.503 2.431.39-.776 1.534-1.872 1.503-2.43zm.684.135c-.517.138.379.228 0 0zm-3.82 3.194c-.457.203.382.403 0 0zm1.138.833c-.233.266.393.18 0 0zm-2.08 1.55c-.224.662.978.38 0 0zm.871.607c2.39 2.306 5.476 3.785 8.137 5.766 2.253.86-1.908-1.646-2.663-2.258-1.796-1.156-3.685-2.524-5.474-3.508zm-47.75 3.408c-.177.218.17.486 0 0z" fill="#6c5d53"/></svg>