<svg viewBox="0 0 64 64" xmlns="http://www.w3.org/2000/svg"><g stroke-width=".32"><path d="M0 32.012v-32h64v64H0v-32z" fill="#e6e6e6"/><path d="M19.543-.127a2.781 2.781 0 0 0-1.574.633c.016.216.054.432.08.648-.436 1.873 1.572 5.056 1.037 7.156.807 3.401-.984 6.484-3.777 8.317a19.06 19.06 0 0 0-2.856 2.336c-.798.704-1.519 1.473-2.047 2.406a17.001 17.001 0 0 0-2.26 4.377c-.018.069-.043.134-.064.201-.473.963-.991 1.89-1.66 2.662-.753.724-1.668 1.28-2.662 1.678-.697-.04-1.483.207-2.162.611-1.184.173-1.937.667-1.614 1.965-.014.134 0 .266.032.394.069 1.248-.194 2.715.033 3.93-.095.482.05.948.515 1.25.077.098.162.19.258.277 4.433.655 8.957.771 13.33 1.866 9.123 1.803 17.53 6.047 25.264 11.096 2.762 2.106 5.685 4.053 8.303 6.326-.188.111-.37.283-.549.488-.717.58-1.16 1.656-1.623 2.762-.443.893-.893 1.804-1.387 2.545.016.268.544-.15.48-.115.105.023.207.031.307.027.445-.009.828-.285 1.186-.682.586-.613 1.11-1.54 1.578-2.433.327-.554.66-1.082 1.035-1.46.462.103.94.261 1.418.465.353.184.723.37 1.11.557 1.263.747 2.338 1.769 2.67 2.844-.042.127-.098.26-.18.396-.684.822.593.784 1.572.487 1.381.085 2.764.119 4.15.115 1.26.046 2.547-.043 3.79.004a.857.857 0 0 0 .437-.002c.096.001.192-.002.287 0-.006-.11.002-.223-.002-.334.098-.314.042-.782-.01-1.244.008-.363.01-.725.02-1.088.13-1.112.123-2.263-.133-3.309a8.065 8.065 0 0 0-.26-1.142 8.805 8.805 0 0 0-.64-.764 4.065 4.065 0 0 0-.764-.723c-2.168-1.918-5.03-3.105-6.969-5.265a1.657 1.657 0 0 1 .01-.819c.671-.527 1.166-1.293 1.621-2.136.623-1.037 1.17-2.217 1.828-3.3a6.65 6.65 0 0 1 .772-.923c.125-.22.27-.434.41-.65.077-.083.143-.176.225-.254.117-.221.262-.444.406-.666.64-.883 1.324-1.764 1.916-2.678.61-.885 1.116-1.79 1.264-2.727.084-.356.138-.723.152-1.101-.05.024-.096.068-.145.098-.011-.082-.016-.163-.035-.245-.16.215-.318.433-.478.649-.609.591-1.178 1.489-1.744 2.361-.368.504-.731 1.011-1.096 1.518-.028.031-.054.07-.082.101-.945 1.269-1.845 2.582-2.742 3.897a454.062 454.062 0 0 0-2.334 3.367l-.006.008a61.214 61.214 0 0 1-1.32 1.754c-.297.183-.603.27-.915.273-1.685-1.045-3.201-2.348-4.79-3.533-1.137-1.22 4.098-1.378 4.708-3.102 1.99-2.539 1.816-6.403.592-9.222-.164-.781-1.141-1.405-2.074-1.95-.005-.002-.009-.006-.014-.01l-.007-.003c-1.456-.85-2.781-1.506-.666-2.254 3.548-2.163 7.11-4.376 10.406-6.918.624-.2 1.268-.767 1.806-1.453.106-.09.215-.174.32-.264.736-.429.812-1.131.788-1.875.093-.419.085-.797-.041-1.096 0-.152.005-.304.023-.449-.068-1.222.072-2.543.004-3.785.103-.653.003-1.342-.406-2.066l-.012.007-.002-.006c-4.221 2.876-8.022 6.346-12.355 9.077-1.328.552-6.183 4.976-5.02 1.297.287-3.643-2.757-7.053-6.15-7.954-3.136-.513-6.013 1.099-8.172 3.204-1.301-4.31-2.252-8.724-3.56-13.031-.155-.705-.339-1.384-.621-1.948-.072-.212-.137-.427-.211-.638-.102-.047-.213-.076-.317-.118-.505-.514-1.217-.772-2.297-.566-.53-.165-.865-.163-1.078-.049-1.044-.031-2.106.02-3.154.082-.36-.113-.73-.188-1.106-.162zm1.463 15.96c.773-.188.735 2.38 1.191 3.13.559 1.825-2.178-.375-3.115.428-3.52.646.171-1.925 1.242-2.93.281-.394.503-.583.682-.627zm17.219.433c1.926-.075 3.903.893 4.371 2.95 1.263 3.77-2.655 6.826-5.723 8.095l-.55.207-.49.168c-2.624-.685-1.63-5.715-1.675-8.116.265-2.114 2.14-3.23 4.067-3.304zm-19.094 6.22c1.385.01 2.767.647 3.523 1.903 1.266 1.92 4.406 6.753-.254 6.224-1.109.152-2.22.301-3.34.363-3.155.803-5.123-2.997-4.113-5.593l.022-.051c.145-.358.347-.692.613-.987.774-1.25 2.163-1.869 3.549-1.859zm-7.787 4.36c.646.002.559 3.08 1.308 3.888 1.038.846-.607.543-1.002.596-2.767.682-2.84-1.634-1.255-3.264.436-.881.733-1.221.949-1.22zm34.783 5.232c4.244-.244 6.7 5.149 3.623 8.123-1.053 1.077-2.81.768-4.156.637-3-1.231-6.077-3.21-7.35-6.334 1.871-1.727 5.188-2.474 7.883-2.426zM26.59 36.912c2.08-.115 3.347 1.904 4.351 3.908.54.957 1.372 1.9 1.602 2.983-4.62-1.654-8.955-4.14-13.758-5.264 2.076-.393 4.152-.792 6.229-1.18.573-.28 1.096-.42 1.576-.447z" fill="#f6f3cb"/><path d="M25.117-.137c-.31.01-.599.108-.852.285a1.316 1.316 0 0 0-.656.928c-.014.041-.034.072-.047.115l.028.115c-.021.272-.009.572.082.932 1.52 7.26 3.62 14.393 5.64 21.53.072 1.033 2.614 6.358.787 4.255-3.246-8.247-4.67-17.061-7.414-25.459.037-.94-.264-1.543-.748-1.932-.487-.558-1.336-.65-2.215-.646a20.187 20.187 0 0 0-1.753.012v.004c.058.478.13.953.212 1.43v.005c.082.476.176.951.27 1.426v.004c.19.951.393 1.9.568 2.853v.004c.088.476.167.952.235 1.43v.004c.067.477.123.955.16 1.435V8.6c.037.48.055.96.05 1.444v.005c-.004.484-.032.97-.09 1.457v.004a6.32 6.32 0 0 1-.204.85c-1.29 4.068-6.396 5.338-8.467 8.975-1.89 2.49-2.413 5.89-4.654 8.078-.018.014-.041.026-.059.04-.662.477-1.88.82-3.043 1.202l-.135.045c-1.183.36-2.269.77-2.617 1.51-.033.062-.052.129-.072.195-.014.05-.028.098-.035.15a.987.987 0 0 0-.002.237c.014.355.149.764.474 1.257l.201.006c.019.02.028.038.047.059 1.893.089 3.788.119 5.684.12 4.92.12 9.85.11 14.748-.36.907-.111 5.8-.97 5.117-.254l-.014.013c-.086.085-.267.195-.515.325a88.514 88.514 0 0 1-5.404 1.033l-.022.004-.12.015a95.361 95.361 0 0 1-15.75.995l-.157-.006c-.428-.203-.957-.282-1.498-.274-.882-.136-1.843.204-2.416.72-.289.224-.468.49-.494.778l-.002.008a.774.774 0 0 0-.002.086c-.04.422.225.849.937 1.187.047.03.079.06.13.09.813.052 1.628.132 2.442.203.54.048 1.082.082 1.622.14H5.1c.154.015.307.04.461.058a86.29 86.29 0 0 1 7.528 1.15 77.599 77.599 0 0 1 3.94.9c.411.106.822.221 1.232.334.23.064.463.124.693.19l.023.006c.64.184 1.277.377 1.91.58l.02.006a63.99 63.99 0 0 1 3.787 1.345l.012.004c.623.244 1.243.498 1.857.762.22.095.437.2.657.297.396.176.793.35 1.185.535l.006.002a55.366 55.366 0 0 1 3.59 1.858c5.877 2.998 11.026 7.128 16.355 10.963 2.446 1.502 4.588 3.492 7.047 4.95.35.21.71.407 1.076.59.393.127.824.204 1.24.266a7.01 7.01 0 0 1 .758.04c.7.09 1.413.168 2.098.212l.166.014c.82.063 1.617.076 2.187-.055.935-.142 1.35-.5.695-1.217a2.905 2.905 0 0 0-.265-.463 85.292 85.292 0 0 0-11.447-8.185c-5.728-4.018-11.591-8.305-15.518-14.232-.488-.776-3.23-4.812-2.004-3.793 3.377 5.295 7.498 10.184 12.648 13.84 4.882 3.162 9.423 6.813 14.395 9.848 1.214 1.41 2.054 1.145 2.431.308.03-.061.06-.122.084-.191l.002-.01c.057-.173.093-.366.116-.566.006-.06.014-.116.017-.178a3.778 3.778 0 0 0-.013-.61c-.008-.078-.021-.152-.034-.23a3.74 3.74 0 0 0-.107-.473c-.089-.305-.203-.595-.37-.828l-.028-.021a2.312 2.312 0 0 0-.364-.43c-5.64-4.346-11.908-7.975-16.947-13.06-.362-.418-.416-.584-.287-.61h.035c.479-.019 2.641 1.24 3.176.812 3.04-.834 5.084-3.69 4.461-6.857.438-3.249-2.21-7.116-5.715-6.465.596-.836 1.656-1.512 2.844-2.16.916-.483 1.896-.974 2.799-1.496.765-.433 1.489-.89 2.08-1.412a34.248 34.248 0 0 1 2.148-1.489c.07-.045.14-.093.211-.138.673-.433 1.348-.866 2.004-1.319.353-.244.702-.492 1.04-.752.21-.16.408-.333.61-.502.121-.1.248-.196.366-.3l.01-.01c.324-.29.635-.595.925-.916l.008-.008c.166-.184.31-.386.463-.582.12-.153.252-.296.363-.457.092-.261.162-.494.213-.701.05-.204.082-.382.098-.537v-.006a1.661 1.661 0 0 0-.002-.397c-.212-1.47-2.987.655-4.195 1.694-3.412 2.715-7.106 4.997-10.955 6.998-.963.5-1.937.982-2.916 1.449-2.94 1.401-5.95 2.665-8.975 3.853-2.639.911-.608-.835.717-.945a97.916 97.916 0 0 0 11.316-5.568c.353-.202.71-.396 1.06-.602a86.426 86.426 0 0 0 11.332-7.93c1.078-.563 1.786-1.404 2.168-2.382.096-.245.171-.499.227-.758v-.002a5.51 5.51 0 0 0 .11-.795v-.002a6.24 6.24 0 0 0-.005-.82v-.004a6.721 6.721 0 0 0-.115-.832V10.5C59.194 14.27 54.5 18.037 49.4 21.174a56.713 56.713 0 0 1-3.756 2.107 7.458 7.458 0 0 1-.388.248c-1.423.545-.198-1.523.396-2.562.164-3.567-2.843-7.174-6.48-7.373-3.207-.54-5.706 1.994-7.07 4.066-.436-1.4-.843-2.81-1.227-4.224-.53-2.03-1.06-4.06-1.61-6.084-.339-1.318-.67-2.638-1.03-3.95.042-.268.026-.53-.017-.789.01-1.276-1.024-2.201-2.12-2.547-.33-.134-.664-.213-.981-.203zm-4.594 13.955c.234.114.438.336.615.647.344.768.685 1.945.762 2.505.022.093.1.387.15.583.243 1.268.442 2.579.669 3.459a12.502 12.502 0 0 0-.659-.182c-.03-.04-.052-.063-.084-.108-2.787-2.347-6.543.254-8.29 2.702-2.019 2.144-1.778 6.092.394 8.029-.164.036-.333.045-.498.07-.756.061-1.523.101-2.301.117-.737-.021-1.475-.067-2.2-.084-1.206-.047-2.004-.163-2.112-.416.24-.206.465-.422.673-.648.208-.108.462-.226.774-.355 2.596-2.7 2.073-7.045 5.123-9.49 2.089-1.993 5.678-2.558 6.814-5.561-.001-.753.065-1.129.17-1.268zm17.904 2.086c1.881.035 3.763 1.044 4.356 2.965 1.318 3.271-1.195 6.21-3.965 7.783l-.002.002-.006.004a11.18 11.18 0 0 1-1.188.584c-.836.348-1.708.861-2.636.865a2.123 2.123 0 0 1-.285-.035c-1.537-2.466-1.119-6.389-.631-9.293.596-1.971 2.476-2.91 4.357-2.875zm-19.15 6.379c.404 0 .806.057 1.197.168.087.03.174.056.258.092.014.006.03.01.043.015l.006.002c.699.302 1.331.78 1.881 1.36l.002.002c.456.631 1.172 1.676 1.734 2.765.14.349.262.7.352 1.045.145.226.244.434.334.637.258.965.182 1.806-.564 2.238-.117.06-.243.113-.381.156-.047.015-.087.035-.137.047-.117.031-.252.045-.38.065-.138.017-.265.04-.423.045l-.03.004c-.219.01-.442.02-.687.004-1.614.129-3.48.705-5.095.251-1.225-.512-2.228-1.495-2.715-2.738-.466-1.489-.148-3.19.818-4.443.974-1.079 2.383-1.719 3.787-1.715zm12.648 9.443c.125-.028.332.102.635.528-.221.267-.41.355-.56.33-.248-.174-.316-.802-.075-.858zm13.266.084a8.74 8.74 0 0 1 3.283.545c.157.06.31.124.454.2a4.269 4.269 0 0 1 .607.383c.028.02.055.042.082.064.143.114.277.237.402.367.034.034.068.068.1.103.11.122.212.25.309.383.037.053.075.104.11.158a5.794 5.794 0 0 1 .349.629c.032.071.062.143.091.215.061.153.12.307.166.465l.012.041c.467 1.642.14 3.535-1.02 4.791l-.003.004c-.029.03-.063.056-.092.086a4.11 4.11 0 0 1-.373.344 4.216 4.216 0 0 1-.569.382 6.158 6.158 0 0 1-2.123.305c-1.249-.084-2.444-.596-3.582-1.207-.11-.075-.224-.145-.332-.226a14.79 14.79 0 0 1-.7-.34l-.036-.02c-.013-.004-.024-.011-.037-.015-2.156-1.115-4.031-2.793-4.637-5.243.308-.174.628-.339.95-.504 1.146-.537 2.32-1.045 3.533-1.41.281-.08.561-.165.845-.226.043-.01.085-.016.127-.026a11.529 11.529 0 0 1 2.084-.248zm-17.393 4.963c.446.143.841.407 1.2.752a57.57 57.57 0 0 1 1.683 2.363c.483.827.953 1.654 1.488 2.274.3.749 3.098 4.19 2.608 4.363-.079-.046-.144-.076-.237-.127-2.95-2.403-6.446-3.962-9.96-5.37-2.683-1.353-5.717-1.528-8.545-2.31.005-.005.005-.011.011-.017a35.127 35.127 0 0 1 2.436-.494c1.118-.107 2.228-.303 3.336-.518 1.264-.19 2.527-.392 3.767-.685l.012-.004a22.67 22.67 0 0 1 2.201-.227zm26.627 26.533c-.174.018-.441.125-.826.375.596 1.148 1.58-.452.826-.375z" fill="#f1e593"/><path d="M48.32 12.912c-2.372-.87-7.331-.498-5.278-4.373.716-2.866 1.491-5.716 2.238-8.574 3.892.063 7.81-.179 11.68.25-.906 4.425-1.836 8.856-2.878 13.247-1.426 1.268-4.075-.399-5.762-.55zm-13.861-5.1c-2.866-1.346-5.601-4.514-4.328-7.849 4.668.064 9.353-.167 14.007.206-.305 1.84-.26 6.583-2.454 7.217-2.465-.502-4.846 1.313-7.225.426z" fill="#adeb96"/><path d="M46.75 44.383C42 41.002 32 32.002 37.812 30.022c1.477-.662-.023-.973 3.188-2.02.79-.953 2.547-2.743 3.6-5.461 2.195-4.107-2.474-9.519-7.11-8.682-2.713-.032-4.338 2.808-5.13 5.167-1.979-5.868-3.354-11.934-4.961-17.914.143-1.145-1.669-1.383-2.817-1.156-.05.01-.08.03-.127.04a1.591 1.591 0 0 0-.775.184l.047.182c-.022.035-.05.069-.055.107 1.723 8.107 4.118 16.063 6.371 24.037.444 1.062 2.177 6.18.004 4.196-3.884-9.207-5.458-19.166-8.332-28.7h-.941a1.765 1.765 0 0 0-.723-.187c-.317-.013-.678.045-1.086.188h-.955c.876 3.751 2.091 7.547 1.672 11.443-.83 4.068-5.164 5.791-7.73 8.62-2.788 2.7-3.069 7.038-5.962 9.598-1.274 1.324-4.168 1.131-5.427 2.233a1.525 1.525 0 0 0-.385.402 1.022 1.022 0 0 0-.07.104c-.019.033-.034.07-.05.105a1.17 1.17 0 0 0-.075.23 1.662 1.662 0 0 0-.04.311c-.01.181 0 .38.042.604.004.056.004.11.015.171 7.39.198 14.816.663 22.172-.292 1.145-.502 6.82-.967 3.393.714C17.514 36.178 9.162 36.26.92 36.155c-.067-.014-.145-.04-.203-.043-.658-.136-.759.289-.739.836a5.663 5.663 0 0 0-.004.619c-.014.174-.012.368.02.593 0 .05.006.103.006.15h.002c0 .008 0 .016-.002.022 3.727.202 7.456.482 11.125 1.203 9.612 1.476 18.592 5.545 26.809 10.623 6.25 4.262 12.14 9.053 18.547 13.098v.002l.392.213c.017.005.056.011.077.016l.002.002c.639.413 1.32.69 2.14.51.102-.018.229-.017.346-.024.06.004.117.015.178.018 1.035.137 2.093.192 2.865.055.27-.02.521-.054.719-.131.077-.004.156-.01.23-.008a.667.667 0 0 0 .065-.176.713.713 0 0 0 .24-.55c-.059-.049-.12-.094-.178-.141-.016-.104-.03-.207-.084-.33-8.291-6.953-18.596-11.537-25.496-20.105-1.263-2.2-4.704-5.158-4.098-7.512.086.014.178.002.274.058 1.173 2.278 2.004 4.358 7.596 9.954 6.583 6.097 14.15 10.261 21.492 15.369.208.172.358.204.47.148.023.023.048.043.07.065.024.01.045-.006.065-.022l.006.004.002-.008c.093-.09.14-.454.146-.914v-.005c.098-.794.133-1.84-.244-2.52-.003-.031-.016-.126-.017-.148-.07-.054-.144-.103-.215-.157a1.2 1.2 0 0 0-.342-.25c-5.469-4.086-11.29-7.757-16.432-12.285M20.822 13.01c.237.036.437.495.615 1.073l.069.216c.18.637.338 1.383.48 1.944-.126 1.254 2.488 6.042-.03 5.142-3.176-2.095-7.001.047-8.646 3.036-1.731 2.386.823 5.465.85 7.316-2.801.35-5.717-.178-8.56-.213 2.817-1.373 4.009-4.416 5.128-7.142 1.633-4.582 6.758-6.15 9.28-10.035.153-.498.294-.835.427-1.047.1-.098.2-.196.295-.262.031-.009.062-.032.092-.027zm17.717 2.805c2.241.114 4.395 1.533 4.607 3.98.464 3.87-3.01 7.046-6.476 8.04-2.43 1.496-3.385.08-3.152-2.332.145-3.014-.656-6.908 2.085-9.008.88-.513 1.917-.732 2.936-.68zm-19.67 6.127a3.73 3.73 0 0 1 1.113.117c3.623.955 4.749 4.898 5.73 8.11a1.56 1.56 0 0 1-.542.582c-.712.147-1.729.096-2.399.271l-.646.076-.654.078c-2.338.85-5.046.383-6.428-1.421-.04-.071-.079-.136-.117-.211a4.292 4.292 0 0 1-.32-.498 4.766 4.766 0 0 1-.463-1.76c-.219-2.53 2.145-5.23 4.726-5.344zm13.006 9.455c.261-.027.63.205 1.086.932-.45.418-.79.545-1.035.515a3.206 3.206 0 0 0-.44-.382c-.147-.419.003-1.025.389-1.065zm-4.443 5.16a7.36 7.36 0 0 1 1.234.133c1.897 2.49 3.459 5.226 5.318 7.748.608.914 1.321 1.788 1.782 2.787-6.041-3.288-12.266-6.532-19.053-7.99-3.695-.423-.01-1.275 1.572-1.26 2.115-.045 4.313-.742 6.445-1.14.349-.06.698-.112 1.047-.17a10.93 10.93 0 0 1 1.654-.108z" fill="#f60"/><path d="M52.717 13.712c-3.221-1.206-6.801-1.46-9.925-2.812-.176-1.364 1.881-4.372 1.242-1.221 1.937 2.03 6.194 3.06 9.009 2.38 1.37-3.848 1.57-8.04 3.064-11.84 1.762-.403-.703 3.3-.477 4.638-.995 2.87-.738 6.98-2.402 9.112zM34.85 7.579c-2.777-1.192-5.37-3.931-4.607-7.195 1.532-.785.07 3.886 2.26 4.354.943.616 1.509 2.272 2.777 1.993 2.365-.09 4.835-.773 7.125-.226-1.28.495-5.377 1.146-7.555 1.074zm8.99-7.28c1.1-1.373.198 1.259 0 0z" fill="#9ce46d"/><path d="M19.617-.18c-.336-.004-.59.054-.777.162a.471.471 0 0 0-.227.157c-.094.038-.18.064-.28.11.032.114.062.23.093.345-.227.994.55 2.744.67 4.01.623 3.283 1.521 7.501-1.254 10.083-2.898 3.008-6.937 5.243-8.5 9.375C7 28.001 6.505 30.317 3 31.002c-.626-.274-.92.637-.92.637 2.597.38 5.038-.543 6.492-2.71 1.74-3.034 2.581-6.998 5.695-9.257 2.712-1.687 5.202-4.734 6.649-7.42 1.083 3.75 1.38 6.361 2.295 9.545-2.857-1.927-6.38-2.104-8.537.838-2.553 1.865-2.462 6.019-.674 8.367 1.531 2.367 3 1 .47-2.492-1.05-2.85 1.455-5.938 4.065-6.577 2.558-.225 4.353 1.368 5.57 3.381.24.764.594 1.553 1.178 2.49.062.173.134.348.19.518.07 2.893 2.79 1.795 4.556 1.404-3.16-7.103-4.772-14.736-6.693-22.232-1.07-2.289-.438-6.19-2.463-7.47-.088-.024-.157-.032-.239-.051a1.813 1.813 0 0 0-.836-.135c-.058-.004-.127-.017-.181-.017zm4.975.059a.89.89 0 0 0-.346.052c-.25.024-.419.18-.428.582v.053a.533.533 0 0 0 .002.18c.003.489.113.83.3 1.068.458.919 1.377 1.756 2.354 1.452 2.052 6.26 3.433 12.724 5.248 19.057.915 2.591.696-.596.59-1.362-1.646-6.397-3.506-12.777-4.984-19.232-.007-.78-.145-1.138-.35-1.306-.045-.303-.375-.678-.707-.137-.226.007-.456.006-.666-.11-.417-.2-.752-.29-1.014-.296zM63.86 10.912c-.083-.027-.19.01-.327.127-5.853 5.54-12.559 10.263-19.863 13.693-1.735 1.366-6.09 1.89-6.197 4.004l.416.498.377.207c8.754-3.764 17.12-8.65 24.291-14.971.293-.03.55-.248.77-.555.577-.24.77-1.293.714-2.063.05-.49.006-.881-.181-.94zm.18 5.37c-.046.045-.094.086-.14.13-.258.214-.526.418-.786.63-1.34 1-2.677 2.005-4.022 2.997-5.129 4.038-10.971 6.978-16.943 9.543a42.461 42.461 0 0 1-10.18 3.35c-1.781-2.077-4.86-.906-5.646 1.076-6.592 1.68-13.647 2.134-20.438 2.164-1.588.467-4.575-.675-5.586.418-.35.242-.491.73-.3 1.62.003.012 0 .02.003.032h.002c4.788.028 10.32 1.091 14.982 2.219 9.142 1.905 17.447 6.074 25.215 11.176C45.612 55.59 50.479 58.883 56 62.69c.467.44.99.735 1.545.935.017.02.037.038.054.057.035.003.166.022.213.027.223.069.449.126.682.164a9.87 9.87 0 0 0 1.744.127c1.135.105 2.334.143 3.006-.086.06 0 .126-.006.185-.006.02-.03.023-.06.037-.091.282-.157.399-.392.252-.74-.1-.06-.198-.126-.298-.186a5.43 5.43 0 0 0-.727-.574l-.006-.004c-1.128-.896-3.038-1.79-3.703-2.576-6.21-4.537-13.044-8.344-18.52-13.805-1.393-1.584-2.81-3.202-4.097-4.907-.128-.19-.275-.388-.43-.588-1.09-1.502-2.059-3.078-2.812-4.763.017-.197.077-.387.172-.569 2.63-.945 5.607-1.97 8.338-3.132.183-.084.372-.158.562-.229.621-.186 1.25-.341 1.891-.46 2.984-.395 6.215.689 7.516 3.587 1.09 2.534-.411 5.533-2.735 6.62l-.004.001c-.905.308-1.918.38-2.912.264a4.414 4.414 0 0 1-.603-.197c-.687.106-3.719-2.167-2.864-1.215 1.492 2.284 4.381 2.32 6.8 1.785 3.228-1.395 4.477-6.119 2.179-8.89-.29-2.17-6.032-1.929-4.295-3.717 4.362-2.16 8.509-4.735 12.463-7.575 1.202-.957 2.912-1.818 3.816-3.08.037-.048.07-.098.104-.148.024-.037.05-.072.072-.11.26-.413.428-.87.455-1.39a3.524 3.524 0 0 0-.04-.936zM27.651 36.536c.334.021.663.07.987.154 1.27 1.91 6.362 8.313 7.271 10.674-3.535-1.76-5.542-3.32-9.281-4.705-3.933-1.77-4.698-2.396-11.533-3.746.287-1.05 3.274-.555 5.197-1.225 2.456-.09 5.024-1.301 7.36-1.152z" fill="#30d429"/></g></svg>