<svg viewBox="0 0 64 64" xmlns="http://www.w3.org/2000/svg"><path d="M.022 32.02V.037h63.964V64H.022z" fill="#735c00"/><path d="M17.857 988.19h-17c0 10 0 21.001-.002 31.375 2.24.01 4.467-.01 6.295-1.543 1.896-2.957 3.337-6.263 5.557-9.03 1.738-2.166 4.153-3.693 6.144-5.63 1.816-1.767 1.846-5.055 2.084-6.084-.238-.971-1.096-3.842-1.637-6.211zm28.27.01c-6.239 0-12.031-.066-18.27-.01 1.794 5.511 3.275 13.602 4.548 17.103.54-.302 2.008-2.622 3.149-3.295 1.417-.55 3.04-.655 4.551-.82 2.724-.13 4.092 1.849 5.708 3.294.556 1.907 2.157 3.73 1.044 5.718-1.01 2.327 2.221-.29 2.922-.44 5.223-3.456 10.08-7.443 15.059-11.24l.004-10.307c-6.239.008-12.476-.004-18.715-.004zm-26.684.004c.471 2.969 1.646 5.923 2.338 8.854.051 1.743-.714 3.756-.96 5.498-1.9 2.331-4.705 3.99-6.896 6.115-2.167 2.34-3.16 5.597-4.888 8.273-1.192 3.207-5.18 3.412-8.182 3.38.04 1.872-.097 3.759.102 5.622 2.61.497 5.678.051 8.384.248 4.189.71 8.378 1.799 12.545 2.664 3.251 1.12 6.387 3.032 9.584 4.313 3.63 1.683 8.225 3.752 11.223 6.424 5.255 4.643 11.407 8.94 16.803 12.494 1.721.239 3.578.03 5.35.101-.023-2.002-.093-3.795-.116-5.797-.02 0-.131-.056-.305-.162-.922-.563-3.614-2.407-3.923-2.566-5.063-4.045-10.97-7.333-15.592-12.058.739-.606 3.857.175 5.04-.604 1.232-.873 2.935-.566 3.46-2.146.699-1.029.974-1.989.82-3.246.03-1.672-.062-3.602-1.325-4.808-1.464-1.942-4.882-2.565-7.023-2.89 6.51-2.626 13.192-7.22 18.898-11.194l.05-5.537c-.269-2.772-16.161 12.746-19.972 12.008 1-2 2-4.413.03-6.255-.304-1.786-1.368-3.001-2.53-4.192-1.327-.52-2.667-.917-4.075-.413-2.943.154-5.025 3.044-5.425 5.86 0 3-4.11-13.516-6-20zm45.414 56.986c.016-.596.016-36.867 0-37.484-4.676 3.224-9.098 6.771-14.178 9.351-2.982 1.054.473.161 1.932 1.96 2.541 2.201 2.955 4.448 2.731 7.03-.485 5.143-5.688 6.971-8.024 6.64 2.335 2.17 4.891 3.718 7.48 5.585 3.388 2.445 6.612 4.353 10.06 6.918zM22.38 999.41c.946 2.57 1.864 6.93 2.648 9.617 1.38 2.884-1.614.347-2.776-.422-1.214-.459-2.398-.075-3.712-.201-1.697.27-2.9 1.845-3.877 3.225-1.703 2.283-1.338 6.922 1.549 8.88 1.022 1.248-14.467.57-7.725-1.324 1.73-2.399 2.92-5.087 4.432-7.642.812-2.07 2.556-2.994 4.104-4.463 2.078-1.904 5.343-4.49 5.357-7.67zm19.347 3.923c4.517 2.765 6.13 4.856 2.18 11.035-1.723 1.086-4.421 1.8-6.24 2.776-5.233 1.313-11.716 2.999-17.74 3.565-2.195 1.014-3.727-1.514-5.084-2.849-.418-1.321-.505-2.98-.742-4.387.726-1.67 2.64-3.33 4.26-4.256 1.271.156 3.057-.142 4.193.463 2.358 1.2 4.387 3.06 4.92 5.67 2.383-2.16 5.157-2.946 5.392-4.61-.307-2.583.756-5.457 2.891-7.035 1.958-.891 4.108-.899 5.97-.372zm-19.167.157c-.703.7-2.52 2.562-4.215 3.594-2.287 2.116-.773.4.545.513 1.308.19 3.967-.408 5.083 1.24-.415-3.025-1.365-4.012-1.413-5.347zm17.295.358c-1.986-.016-3.694 1.067-4.887 2.407-1.842 3.173-.11 6.934.82 9.983 2.529-.346 4.416-1.923 6.712-3.127 1.532-2.002 2.364-4.895 1.098-7.155-.993-1.203-2.162-1.985-3.743-2.108zm-21.011 6.293c-1.663.362-2.604 2.148-3.59 3.466-.1 2.628.568 6.261 3.977 5.83 2.068-.81 6.478.365 6.832-1.812-.729-2.524-.695-5.366-3.445-6.56-1.046-1.106-2.423-.817-3.774-.924zm-6.371 4.515c-.83 1.83-2.889 5.1-2.889 5.1s1.419.107.375 0c1.686.099 2.71.04 4.399.06-1.5-.626-2.071-1.494-1.885-5.16zm32.898 4.164c.45.018 1.25-.042 1.709.072 1.4.35 3.525.06 4.465 1.392 2.749 1.943 2.795 6.216.994 8.817-1.334 1.068-2.424 1.615-3.63 1.749-2.661.407-5.058-1.224-7.112-2.666-1.36-1.141-2.613-2.913-3.72-4.298-2.313-1.461-5.196.286-7.665.467a36.835 36.835 0 0 0 5.49 8.445c.56.678 1.889 2.157 2.381 2.885-3.95-2.293-9.191-4.356-13.38-6.154-3.36-1.708-8.151-2.327-11.739-3.32 6.919-2.219 14.266-3.582 23.422-4.787 3.038-.49 5.637-2.725 8.785-2.602zm-.329.83c-2.177 1.06-3.907 1.43-5.946 2.722.705 1.629 1.775 3.004 2.706 4.544 2.076 1.825 2.746 3.203 7.192 3.085 3.554-.882 4.804-5.364 2.677-8.012-1.495-2.212-4.317-1.904-6.629-2.339zm-15.494 5.368c-3.521.097-7.08.822-10.609 1.107-3.232.078.063.67 1.582.898 3.04.427 5.281 1.853 8.108 2.948 2.014.857 3.951 2.007 5.967 2.86-1.947-2.475-3.18-5.286-5.047-7.813zm-28.543 1.835c-.29 4.19-.085 8.416-.15 12.62v12.716c19.932.04 39.76 0 57.002 0 0 0-.656-.966-1.48-1.443-5.477-3.786-11.395-7-16.393-11.625-4.355-3.648-9.817-5.547-14.973-7.787-3.126-1.608-6.712-2.027-10.08-2.875-4.462-1.297-9.366-1.169-13.926-1.606z" fill="#404b5a" filter="url(#filter874)" transform="translate(-.857 -988.188)"/><path d="M.022 52.068c.06-3.997-.132-8.012.166-11.996 6.09.64 12.132 1.796 18.021 3.51 3.137.843 6.292 1.63 9.4 2.572-2.18 3.425 2.909 3.205 4.998 4.473 4.064 1.624 8.295 2.888 12.197 4.878.251 2.375-2.826 4.978-3.86 7.403-2.18 2.154-6.213.611-9.187 1.086-10.578.011-21.156.004-31.734.006V52.068zm53.392 11.74c.41-2.937 3.249-.638 3.77.154-1.206-.051-2.705.253-3.77-.154zm1.509-13.254c-3.506 1.273 9.076-30.553 9.076-30.553s-.013 1.846 0 4c.02 3.222.037 7.475-.233 10.012-2.93 4.393-6.123 8.621-8.897 13.11 3.198-4.118 5.792-8.58 8.94-12.74.372 2.453-.712 4.528-1.968 6.543-1.748 3.122-3.423 6.284-5.23 9.373-.62.303-.993.566-1.688.254zm-.3-1.55c1.098-2.09-1.464 1.213 0 0zm-.575-.485c1.071-1.887-1.178 1.197 0 0zm2.706-2.627c1.672-2.478 3.449-4.903 4.921-7.504a155.964 155.964 0 0 0-6.382 9.084c.122.656 1.235-1.433 1.461-1.58zM29.658 9.476c-1.52-10.496-4.593-11.607.539-3.134-.027 3.977 4.46 3.364 7.202 4.404 5.605 1.295 11.176 2.872 16.803 3.983 2.847-1.833 5.556-3.931 8.152-6.104.311-2.734.937-5.42 1.378-8.135.266 2.512-.06 5.355.22 7.492C49.998 22.002 35.353 9.96 29.66 9.476zm18.589 3.635c-2.669-.739-7.633-.891-5.33-4.91.71-2.72 1.288-5.484 2.137-8.164 4.002.065 8.032-.158 12.014.164-.908 4.71-1.91 9.405-2.997 14.077-1.834.17-3.938-.87-5.824-1.167zM34.72 8.127c-2.444-.92-4.83-3.348-5.182-6.059 1.46-2.066 5.33-1.367 7.843-2.03h7.245c-.905 2.292-.378 7.187-2.814 7.664-2.37-.774-4.754 1.228-7.092.425z" fill="#5b7648"/><path d="M44.14 63.913c1.041-1.579 2.658-4.038 2.583-5.092 1.283-1.19 2.084-1.115 3.482.5-.608 1.544-1.24 3.077-1.862 4.615-1.4 0-2.805.078-4.204-.023zm2.882-3.773c-.357.244-.15.55 0 0zm1.158-1.622c-.77.276-.365 1.095 0 0zm6.072 2.317c-5.26-3.48-10.584-6.908-15.264-11.165-5.508-3.81-11.822-6.138-17.953-8.707-4.303-.885-8.573-2.021-12.896-2.75-2.706-.122-5.416-.195-8.117-.407v-5.603c2.504.046 5.502-.236 7.24-2.185 1.788-3.07 3.43-6.26 5.349-9.232 2.39-2.142 5.005-4.118 7.212-6.396.957-2.958 1.407-6.053.164-9.005C19.86 3.318 18 0 20.903.059c1.74.003 3.478.026 5.217.04 1.811 6.614 3.548 13.256 5.414 19.851.609-1.172.427-2.74 1.703-3.548 1.183-2.053 3.52-2.21 5.601-2.592 2.248.041 4.38 1.56 5.546 3.418 2.104 2.219.18 5.556.327 7.344 2.828-1.344 5.762-2.565 8.134-4.66 3.688-2.796 7.354-5.621 11.076-8.373.11 2.294.04 4.593.055 6.89-4.69 3.187-9.098 6.845-14.12 9.497-1.34.703-5.707 2.112-1.901 2.26 3.04.175 5.533 3.134 5.655 6.106.014 1.41.238 2.88-.708 4.06-.346 1.165-1.225 1.807-2.307 2.252-1.034.567-2.02 1.319-3.269 1.039-1.309.011-4.121-.859-1.77.967 4.102 4.102 9.25 6.874 13.855 10.344l4.564 3.167.01 5.878c-1.744-.078-3.577.128-5.269-.119zm-17.4-13.933c-2.873-3.17-5.306-6.706-7.17-10.563 2.43-.37 6.572-3.437 8.142-.895 1.118 1.446 1.802 3.338 3.185 4.533 2.102 1.525 4.424 3.054 7.158 2.658 1.141-.29 2.146-1.123 3.235-1.62 1.724-2.468 1.857-6.254-.573-8.308-.864-1.11-2.044-1.546-3.414-1.57-2.758-.872-5.394.082-7.835 1.383-3.991 1.558-8.224 2.441-12.369 3.486-4.913.62-9.849 1.088-14.735 1.89 3.865 1.302 8.088 1.431 11.765 3.288 4.277 1.805 8.603 3.55 12.626 5.86l-.014-.142zM27.46 41.62c-3.397-1.543-6.967-2.584-10.609-3.351 3.859-.443 7.695-1.089 11.543-1.62.927 1.397 4.762 5.771 1.586 6.018a56.398 56.398 0 0 1-2.52-1.047zm18.112.187c-2.448-.885-4.752-2.52-5.995-4.862-1.677-1.658-1.755-3.503.926-3.882 1.762-.255 3.224-2.044 5.052-1.518 2.29.18 4.694.59 5.853 2.867 1.666 2.983-.056 7.13-3.566 7.563-.759.017-1.524-.02-2.27-.168zm-30.379-9.382c-2.566-1.854-3.388-5.728-2.132-8.47.998-1.613 2.522-3.207 4.327-3.764 2.347-.255 4.676.04 6.456 1.783.744-1.222-1.142-5.388-1.5-7.754-.24-1.657-.99-3.44-1.209-.722-.44 2.665-3.356 3.793-5.044 5.657-1.45 1.338-3.221 2.415-3.962 4.332-1.573 2.622-2.84 5.5-4.751 7.862-2.585 1.815 3.778.809 5.144 1.143.89-.01 1.785.045 2.671-.067zm-4.736-.672c-3.794.4.38-3.43.924-5.214 1.195-.573-.345 3.413 1.196 4.421 1.425 1.077-1.865.61-2.12.793zm11.436-11.782c-1.308-.89-3.173-.238-4.672-.39-1.992.521 2.264-2.219 2.835-3.05 1.137-1.963 2.619-.932.953.704-3.025.96 3.446 3.822.884 2.736zm-.126 11.725c4.994-.528 10.069-1.51 14.898-2.823 1.934-.928 3.821-2.007 5.623-3.133 1.235-1.542 1.862-3.588 2.193-5.459-.585-1.362-.746-3.013-2.14-3.82a4.585 4.585 0 0 0-5.05-1.316c-1.187.078-2.182.509-2.868 1.51-.843.718-1.522 1.523-1.529 2.685-.626 2.048-.885 3.998-.239 6.006 1.247 1.856 1.566 3.438-1.233 3.332-2.382.411-5.41 2.494-5.279-1.426-.522-1.595-1.14-3.073-2.255-4.312-1.338-.685-2.633-2.004-4.278-1.667-1.174.043-2.46-.278-3.355.684-1.087 1.048-3.021 2.372-2.724 4.085.208 1.182.107 2.512.499 3.607 1.48 1.613 3.1 3.384 5.511 2.32l2.226-.273zm-4.727-1.162c-2.602-.443-2.641-3.113-2.434-5.215 1.004-1.25 1.85-2.857 3.546-3.015 1.328.113 2.68-.171 3.694.946 2.741 1.356 2.167 4.174 2.969 6.754-2.203.613-5.311 1.7-7.802.658zm17.899-3.043c-.808-2.957-2.672-6.222-.682-9.088.621-1.73 3.116-2.216 4.783-2.167 2.258.43 3.841 2.234 3.967 4.393-.277 4.01-3.722 5.244-6.676 6.76-.436.178-1.28.99-1.392.102zm19.745 22.745c-1.596-.491-3.002-2.127-.691-2.424 1.492-3.035 2.266-6.532 4.861-8.877 1.005-1.945 3.961-3.126 3.854-5.446.176-1.832-.09-3.812-1.28-1.222-3.089 5.207-6.32 10.335-9.436 15.522-2.2-.831-1.754-4.798 1.192-5.396.642-1.391 1.943-3.017 1.551-4.657.594-3.419-1.614-6.672-4.585-8.178-2.867-.223 1.902-1.097 2.468-2.116C56.53 25.02 60.398 22.851 64 20c0 1-.078 1.633-.014 2.603-.061 3.774.156 7.572-.196 11.325-2.887 4.456-6.143 8.674-8.92 13.195 3.199-4.119 5.75-8.547 8.897-12.707.373 2.454-.669 4.495-1.924 6.51-1.748 3.122-3.424 6.284-5.23 9.373-.62.303-1.234.248-1.93-.064zm-.06-1.234c1.098-2.09-1.464 1.214 0 0zm-.575-.484c1.072-1.887-1.178 1.198 0 0zm2.707-2.627c1.672-2.478 3.448-4.903 4.92-7.504a155.964 155.964 0 0 0-6.382 9.084c.122.656 1.235-1.433 1.462-1.58zM.023 30.487c-.277-1.74 2.565-.414 3.544-.993 1.654-1.052 1.674-3.773 2.517-5.609.716-2.517 2.621-4.459 3.9-6.704 1.52-1.43 3.374-2.576 4.748-4.125.595-1.36 1.78-2.546 1.989-4.019.084-2.01.331-4.023.225-6.031-1.292-.689-3.404-.349-3.43-2.3-.418-1.017 3.487-.831 3.812.29.667 3.171 1.828 5.443 2.264 8.64.043 3.096-1.702 5.822-4.147 7.486-1.386 1.35-3.235 2.547-4.385 4.09-1.762 2.984-3.018 5.508-5.002 8.347C4.315 31.077 2.17 31.243.023 31.32v-.835zm46.124-7.682c1.21-2.096-.353-4.506-1.203-6.516-.738-1.284-1.612-1.35-2.65-2.424-2.174-.78-4.726-1.018-6.901-.384-1.384.424-2.232 2.986-3.891 2.439-1.13-.463-.642-3.31-1.298-4.363C29.134 7.589 29 4 27.2.129 30 0 28.807 2.988 29.651 4.379c.541 2.852 1.246 5.763 4.748 5.618 6.598 1.57 13.178 3.366 19.804 4.73 2.847-1.833 5.557-3.93 8.152-6.104.312-2.734.836-5.362 1.277-8.076.266 2.512.232 5.164.233 7.26C64 11 60.14 12.444 58.158 14.659c-1.855 1.378-3.677 2.797-5.524 4.186-1.414-1.55-3.376-2.039-5.412-2.19-4.531-1.399 1.531 3.994.512 5.418-.707.369-.806.541-1.586.732zm2.101-9.696c-3.013-.632-7.705-1.177-5.217-5.35 1.14-2.312.527-6.767 2.96-7.675 3.687 0 7.411-.213 11.079.115-.908 4.71-1.91 9.405-2.997 14.077-1.834.17-3.938-.87-5.825-1.167zM34.722 8.125c-2.444-.92-4.829-3.348-5.182-6.058C31 0 34.87.7 37.384.035h7.244c-.905 2.293-.377 7.188-2.813 7.665-2.37-.774-4.755 1.229-7.093.425zm-3.35-2.693c-1.004-1.075-1.31-1.112 0 0z" fill="#737669"/><path d="M22.334.036c-1.944.016-5.1-.722-3.164 2.269.532 2.956 2.255 5.904 1.396 8.936.062 3.2-2.467 4.914-4.69 6.731-1.494 1.441-3.459 2.492-4.3 4.476-1.604 2.615-2.962 5.45-4.643 7.986-1.965 1.484-4.505 1.86-6.91 1.77v5.602c3.885.433 7.873-.022 11.662 1.094 3.333.802 6.745 1.354 10.027 2.314 7.005 3.052 14.498 5.559 20.155 10.9 4.84 3.926 10.202 7.119 15.292 10.708.917.627 1.773 1.453 2.974 1.165l3.853.012c.003-1.959-.004-3.918-.011-5.878-5.598-4.024-11.498-7.626-16.834-11.992-.818-.844-4.354-3.598-.984-2.54 1.395.148 2.81.213 3.953-.721 1.027-.613 2.347-.938 2.656-2.255.675-1.02 1.038-2.117.854-3.347.31-2.989-1.711-5.905-4.467-6.901-1.825-.113-4.31-.622-1.271-1.525 5.666-2.413 10.35-6.515 15.418-9.933 1.275-.563.448-1.811.698-2.906v-4s-.5-.512-1.66.71c-4.12 3.028-8.103 6.268-12.264 9.226-1.87.917-3.686 1.967-5.632 2.715 1.176-2.973 1.529-6.715-1.334-8.892-1.387-1.46-3.54-2.369-5.513-1.709-2.39-.105-3.82 1.703-5.241 3.297-.39 1.139-.84 4.06-1.275 1.066C29.43 12.308 27.773 6.204 26.12.1a68.474 68.474 0 0 0-3.786-.063zm-.735 11.783c1.11 3.368 1.913 6.892 2.718 10.366-1.996-1.55-4.258-2.422-6.796-1.997-1.644.365-3.085 1.797-4.05 3.173-1.806 2.505-1.118 6.826 1.421 8.7-1.36.921-5.984.297-8.61.147 2.358-1.536 3.211-4.41 4.7-6.69 1.101-1.778 1.798-3.885 3.625-5.07 2.018-1.767 4.06-3.508 6.04-5.319.525-1.04.458-2.266.952-3.31zM39.02 14.8c1.841.182 3.313 1.47 4.469 2.788.352 1.354 1.482 2.688.68 4.074-.548 1.966-1.272 4.322-3.443 4.956-2.766 1.526-5.687 2.71-8.821 3.207-4.909 1.329-9.967 1.89-15.008 2.446-1.009-1.049-2.89-1.907-3.073-3.47-.045-1.255-.448-2.605-.284-3.805 1.051-1.501 2.276-3.283 4.098-3.723 1.459.144 3.139-.452 4.295.698 1.077.726 2.353 1.274 2.72 2.64 1.682 1.94.725 7.145 4.433 5.175 2.219-.676 6.955-.49 4.3-3.732-.705-1.664-.995-3.609-.764-5.394.338-1.356.264-2.932 1.574-3.772.74-.787 1.413-1.694 2.606-1.645l2.22-.443zm5.234 15.953c1.736.245 3.612.302 5.268.786 2.165 1.49 3.678 4.006 3.076 6.71-.35 1.514-1.05 3.052-2.626 3.546-1.011.742-2.147 1.024-3.392.823-2.367-.115-4.308-1.752-6.119-3.096-1.142-1.745-2.294-3.483-3.366-5.271-2.015.93-6.869.654-7.105 2.72 1.821 3.62 4.151 6.929 6.864 9.932-2.29-.832-5.207-2.84-7.892-3.717-3.39-1.294-6.586-3.199-10.21-3.762-2.098-.486-4.22-.886-6.276-1.528 5.227-.945 10.57-1.206 15.795-2.116 4.897-1.312 9.914-2.317 14.469-4.633.485-.188.981-.411 1.514-.394zM.143 55.148c-.11 2.928-.257 5.95.044 8.844 1.114-1.102 2.092-2.813 1.187-4.409a299.153 299.153 0 0 0-1.23-4.435z" fill="#e6bf26"/><path d="M38.668.02c-1.938.007-3.881.046-5.814.017-.926.265-2.855-.035-2.86.693-.554 1.263.036 2.477.397 3.701 1.345 1.156 2.343 2.883 4.11 3.403 1.968.73 3.957-.416 5.929-.56 3.96 1.479 2.762-4.763 4.03-7.085-1.92-.152-3.854-.177-5.792-.17zm6.514.017c-.705 2.829-1.418 5.655-2.114 8.486-2.198 3.932 3.1 3.531 5.434 4.418 1.66.232 3.838 1.299 5.353.996 1.257-4.584 2.025-9.293 3.196-13.9zM24.088 2.64c-.667-.016-1.434.268-2.305.961-1.133 2.721 1.056 5.833 1.37 8.698 1.5 5.091 2.384 10.387 4.343 15.328.31 3.538 3.844 1.383 5.756.863-2.327-6.78-3.934-13.79-5.87-20.691-.208-2.376-1.295-5.11-3.294-5.158zm11.176 32.184c-1.248.063-2.708.678-3.989 1.043 2.114 3.3 4.386 6.497 6.584 9.74 3.173 2.866 6.4 5.73 9.84 8.286 2.262 2.481 2.745-.152 4.04-1.777 1.647-1.313-.383-1.881-1.303-2.649C45.4 46.355 41.207 42.05 37.98 37.1c-.435-1.847-1.47-2.338-2.717-2.275zm17.54 16.662c-.315.043-2.607 3.08-2.704 4.059 1.007-.39 1.445-2.085 2.207-2.916.488-.838.603-1.157.498-1.143zm.696.133c-1.16 1.235-1.919 2.825-2.898 4.217 2.548 1.649 4.896 3.578 7.431 5.248l2.883 1.992c.858.842 1.9 1.084 3.07.926V58.84c-3.5-2.4-7.008-4.791-10.486-7.22z" fill="#5b7648"/><path d="M58.032 61.081c-2.536-1.67-4.884-3.6-7.432-5.248.98-1.392 1.74-2.982 2.9-4.216 3.477 2.43 6.986 4.82 10.486 7.22V64c-1.17.158-2.214-.084-3.072-.926l-2.882-1.992zm-7.932-5.54c.13-1.304 4.16-6.267 2.206-2.915-.761.83-1.2 2.525-2.206 2.916zm-2.403-1.652c-3.44-2.555-6.665-5.42-9.838-8.284-2.199-3.244-4.47-6.44-6.584-9.74 2.562-.73 5.837-2.462 6.705 1.233 3.227 4.949 7.42 9.255 12.455 12.366.92.768 2.95 1.336 1.301 2.649-1.294 1.626-1.777 4.258-4.038 1.776zM27.495 27.625C25.536 22.684 24.65 17.39 23.15 12.3c-.313-2.864-2.502-5.977-1.368-8.698 3.483-2.775 5.32 1.03 5.599 4.198 1.935 6.901 3.543 13.909 5.87 20.69-1.913.52-5.447 2.675-5.757-.863z" fill="#e67226"/></svg>