<?xml version="1.0" encoding="UTF-8"?>
<svg version="1.1" viewBox="0 0 64 64" xmlns="http://www.w3.org/2000/svg" xmlns:cc="http://creativecommons.org/ns#" xmlns:dc="http://purl.org/dc/elements/1.1/" xmlns:rdf="http://www.w3.org/1999/02/22-rdf-syntax-ns#">
<metadata>
<rdf:RDF>
<cc:Work rdf:about="">
<dc:format>image/svg+xml</dc:format>
<dc:type rdf:resource="http://purl.org/dc/dcmitype/StillImage"/>
<dc:title/>
</cc:Work>
</rdf:RDF>
</metadata>
<g transform="translate(0 -988.36)">
<g transform="translate(-.85721 .17178)">
<g style="">
<g style="">
<g style="">
<path transform="translate(.85721 988.19)" d="m0 0v64h64v-64z" fill="#806600" style="paint-order:stroke markers fill"/>
<path transform="translate(.85721 988.19)" d="m17.518-0.027344-17.518 0.027344c0 10 3.1688e-4 21.001-0.0019531 31.375 2.2404 0.0094 4.4672-0.0084 6.2949-1.543 1.8964-2.9567 3.337-6.2626 5.5566-9.0293 1.7384-2.1669 4.1534-3.6936 6.1445-5.6309 1.816-1.7668 1.8456-5.055 2.084-6.084-0.23838-0.97101-1.096-3.8418-1.6367-6.2109zm27.752 0.037109c-6.2386 2.475e-4 -12.031-0.06548-18.27-0.0097702 1.7944 5.5115 3.2754 13.602 4.5481 17.103 0.53943-0.3023 2.0081-2.622 3.1488-3.295 1.4171-0.5501 3.04-0.65516 4.5516-0.81996 2.7233-0.12918 4.0919 1.8485 5.707 3.2939 0.55664 1.907 2.1578 3.7299 1.0445 5.7176-1.0105 2.3278 2.2215-0.28885 2.9219-0.43945 5.223-3.4559 10.081-7.4429 15.059-11.24l0.0039-10.307c-6.2385 0.0083-12.476-0.0041538-18.715-0.0039062zm-26.684 0.0039062c0.47107 2.9685 1.6462 5.9234 2.3379 8.8535 0.05111 1.7432-0.71439 3.7568-0.95898 5.498-1.9013 2.3317-4.7056 3.9905-6.8965 6.1152-2.1679 2.3399-3.1602 5.5974-4.8887 8.2734-1.192 3.207-5.1803 3.4119-8.1816 3.3789 0.039302 1.8733-0.097365 3.7599 0.10156 5.623 2.6096 0.4966 5.6785 0.05095 8.3848 0.24805 4.1885 0.7103 8.3772 1.7986 12.545 2.6641 3.2506 1.1201 6.3864 3.0319 9.584 4.3125 3.6302 1.6832 8.2242 3.7523 11.223 6.4238 5.2549 4.6431 11.407 8.9404 16.803 12.494 1.7208 0.2391 3.5774 0.03056 5.3496 0.10156-0.02259-2.0022-0.09346-3.7952-0.11605-5.7974-0.02046 0.0047-0.13142-0.05583-0.30514-0.16182-0.92238-0.56278-3.6141-2.4068-3.9232-2.5656-5.0629-4.0457-10.969-7.3332-15.592-12.058 0.73885-0.6065 3.8572 0.17473 5.0411-0.60477 1.2315-0.8722 2.9347-0.56588 3.4601-2.1455 0.69806-1.0288 0.97312-1.9887 0.81819-3.2456 0.03186-1.6723-0.06064-3.6029-1.3237-4.8083-1.4644-1.942-4.8822-2.5649-7.0235-2.8901 6.5106-2.6259 13.192-7.2196 18.898-11.194 0.01731-1.8459 0.03347-3.6912 0.05078-5.5371-0.26929-2.7722-16.162 12.746-19.973 12.008 1-2 2-4.4126 0.03003-6.2545-0.3039-1.7867-1.3672-3.0016-2.5296-4.1924-1.3266-0.5203-2.6673-0.91739-4.0755-0.41309-2.9423 0.1545-5.0242 3.0441-5.4249 5.8599 0 3-4.1094-13.516-6-20zm45.414 56.986c0.01563-0.59571 0.01563-36.867 0-37.484-4.6757 3.2245-9.0979 6.7712-14.178 9.3516-2.9818 1.0536 0.47313 0.16094 1.9318 1.9588 2.5413 2.2022 2.9551 4.4489 2.7312 7.0305-0.48524 5.1435-5.6882 6.9716-8.024 6.6397 2.3348 2.1707 4.8912 3.718 7.4792 5.5855 3.3883 2.4451 6.6129 4.3531 10.06 6.9183zm-42.477-45.779c0.94554 2.5708 1.8641 6.9308 2.6484 9.6172 1.3803 2.8834-1.6148 0.34636-2.7769-0.42214-1.2137-0.4591-2.3971-0.07467-3.7117-0.20117-1.6965 0.2706-2.8989 1.8455-3.8766 3.2249-1.7035 2.2827-1.3381 6.9223 1.5488 8.8809 1.0223 1.2474-14.467 0.56917-7.7246-1.3242 1.7289-2.3992 2.9187-5.0877 4.4317-7.6426 0.81227-2.0702 2.5564-2.9942 4.1035-4.4629 2.0779-1.9038 5.343-4.4893 5.3574-7.6699zm19.347 3.9227c4.5167 2.7656 6.1295 4.8566 2.1809 11.035-1.724 1.0868-4.4224 1.8004-6.2409 2.7768-5.2329 1.3123-11.716 2.9985-17.74 3.5645-2.1947 1.0141-3.7272-1.5137-5.0844-2.8488-0.41761-1.3214-0.50474-2.9798-0.74176-4.3876 0.72603-1.6692 2.6405-3.33 4.2598-4.2559 1.2714 0.1565 3.0575-0.14191 4.1934 0.46289 2.3577 1.2012 4.3868 3.0603 4.9199 5.6699 2.3828-2.1602 5.1574-2.9456 5.3918-4.6092-0.30647-2.5834 0.75645-5.457 2.8915-7.0349 1.9576-0.89144 4.1082-0.89937 5.97-0.37262zm-19.167 0.1574c-0.70326 0.6994-2.5206 2.562-4.2148 3.5938-2.2877 2.1164-0.77355 0.40067 0.54475 0.51327 1.3076 0.1893 3.967-0.40781 5.0827 1.2393-0.41423-3.0241-1.3647-4.0117-1.4126-5.3463zm17.295 0.35801c-1.9863-0.01594-3.6936 1.0664-4.8867 2.4066-1.8427 3.1731-0.11093 6.9346 0.81875 9.9835 2.5297-0.346 4.4165-1.9237 6.7127-3.1277 1.5324-2.0013 2.3642-4.8949 1.0985-7.1547-0.99318-1.2032-2.1619-1.985-3.7432-2.1076zm-21.011 6.2924c-1.6631 0.3627-2.604 2.1487-3.5898 3.4668-0.09928 2.6274 0.56828 6.2611 3.9766 5.8301 2.0685-0.8096 6.4782 0.3646 6.832-1.8125-0.72835-2.5239-0.69519-5.3665-3.4453-6.5606-1.0452-1.1052-2.4224-0.81683-3.7734-0.92383zm-6.3711 4.5156c-0.83014 1.8294-2.8887 5.0996-2.8887 5.0996s1.4187 0.107 0.375 0c1.6856 0.099 2.7094 0.04055 4.3984 0.06055-1.4994-0.6261-2.0711-1.4938-1.8848-5.1602zm32.898 4.1639c0.44976 0.0175 1.251-0.04187 1.7088 0.07226 1.4006 0.3501 3.5256 0.06013 4.4654 1.3919 2.7484 1.9427 2.7949 6.2156 0.99381 8.8169-1.334 1.0684-2.4242 1.6146-3.6301 1.749-2.6609 0.4067-5.0579-1.2238-7.112-2.6663-1.3604-1.1406-2.6124-2.9125-3.7207-4.2973-2.3123-1.4616-5.1947 0.28519-7.6641 0.4668 1.4195 3.0156 3.286 5.9152 5.4902 8.4453 0.55904 0.6772 1.8888 2.1563 2.3809 2.8848-3.9502-2.2936-9.1916-4.3563-13.381-6.1543-3.3585-1.7077-8.1504-2.3271-11.738-3.3203 6.9184-2.2183 14.266-3.5819 23.422-4.7871 3.0374-0.48965 5.6366-2.7242 8.785-2.6017zm-0.32842 0.83031c-2.1773 1.0591-3.9075 1.4294-5.9467 2.7214 0.70543 1.6288 1.7753 3.0045 2.7062 4.5445 2.076 1.8245 2.7459 3.2028 7.1925 3.0843 3.5534-0.88151 4.8037-5.3634 2.6763-8.0112-1.4946-2.2119-4.3169-1.9043-6.6283-2.3389zm-15.494 5.3671c-3.5216 0.0966-7.0813 0.82212-10.609 1.1074-3.2325 0.0781 0.06293 0.67074 1.582 0.89844 3.0394 0.4271 5.2809 1.8522 8.1074 2.9473 2.0144 0.8576 3.9511 2.0069 5.9668 2.8613-1.9469-2.4763-3.1796-5.2874-5.0469-7.8145zm-28.543 1.8359c-0.29029 4.19-0.085703 8.4155-0.15039 12.619v12.717c19.932 0.039381 39.76 0 57.002 0 0 0-0.656-0.96648-1.4805-1.4434-5.4764-3.7861-11.395-7.0002-16.393-11.625-4.3548-3.6476-9.817-5.5474-14.973-7.7871-3.1254-1.6078-6.7119-2.0274-10.08-2.875-4.4617-1.2971-9.3656-1.1688-13.926-1.6055z" fill="#e6e6e6" stroke-width=".12646"/>
<path d="m57.915 988.2-2.578 0.0141c-0.85254-8e-3 -1.935-0.0113-3.375-0.0113h-5.9521l-0.01654 0.063-0.04073 2.8e-4 -1.3004 5.1847c-0.7152 2.8515-1.3018 5.3322-1.3038 5.5126-2.54e-4 0.017 0.0014 0.0349 0.0033 0.0531-0.0014 0.01-0.0069 0.0354-0.0069 0.0391 0 0.13618 0.03201 0.2485 0.16301 0.36182 0.03007 0.0434 0.06274 0.0829 0.09731 0.11487 0.09668 0.0894 0.68282 0.28405 1.7603 0.58701 0.0077 0 0.01565 0 0.02347 0.01 0.8985 0.2524 2.1279 0.5776 3.7487 0.9907 5.7438 1.4637 5.5463 1.419 5.6347 1.2759 9.43e-4 0 6e-3 -0.024 0.0074-0.028h0.01409l0.11806-0.5441h2.55e-4c0.2461-1.0657 0.78578-3.4994 1.3925-6.2882 0.80895-3.7185 1.5022-6.8895 1.5407-7.0467zm-34.677 0h-0.45c-0.40101 0-0.79224 0-1.1455 5e-3 -0.28724 5e-3 -0.57006 5e-3 -0.79159 9e-3 -0.83763 0.0118-1.4066 0.0292-1.4066 0.0494 0 0.0118 0.0079 0.0368 0.019 0.0654-0.01141 9e-3 -0.019 0.0179-0.019 0.0278 0 0.0871 0.51215 2.0929 1.1381 4.4573 0.62596 2.3644 1.1378 4.4129 1.1376 4.5522-3.82e-4 0.31421-0.99026 5.1119-1.087 5.2684-0.0387 0.063-1.7364 1.5595-3.7727 3.3266l-3.7025 3.213-2.5924 4.592-2.5924 4.5919-0.93509 0.6345c-0.82355 0.5589-1.1157 0.6759-2.4523 0.9806-1.032 0.2351-1.8715 0.3453-2.624 0.3453h-1.1065v2.9537c0 0.1652 0.001414 0.2565 0.001885 0.4033 0.002357 1.0988 0.012114 1.7405 0.05063 2.0363 0.001885 0.015 0.0033 0.033 0.005185 0.046 0.003771 0.024 0.007259 0.05 0.01136 0.07h2.5454e-4c0.032949 0.1595 0.081057 0.2057 0.15189 0.226 0.12171 0.035 2.0423 0.1329 4.2679 0.2181l4.0466 0.1548 6.386 1.4209 6.386 1.421 5.6819 2.4152c5.4891 2.3332 5.7919 2.48 8.9152 4.3242 2.1944 1.2957 3.4567 2.1241 3.9288 2.5788 1.9923 1.9189 5.9095 4.8765 9.3834 7.0847 0.10941 0.07 2.1826 1.466 4.6073 3.1029 2.4247 1.637 4.5509 3.0708 4.7248 3.1864 0.10236 0.068 0.2322 0.1146 0.47224 0.1469 0.31111 0.067 0.93602 0.077 2.4412 0.077h2.5242v-2.9222l0.0154-3.073s-0.95406-0.8623-1.2352-0.9298c-0.1883-0.1492-1.7702-1.2968-4.3813-3.1138-10.762-7.4895-9.9898-6.6937-12.005-8.6692-1.0245-1.0041-1.8418-1.8464-1.8163-1.8719 0.0255-0.025 0.51592 0.049 1.0897 0.165 0.69772 0.1413 1.3831 0.1908 2.0692 0.1494 0.98955-0.06 1.0866-0.095 2.7317-0.9949l1.7054-0.933 0.72613-1.3279 0.72589-1.3278 0.0028-1.8333c0.0024-1.7172-0.0223-1.9079-0.38999-3.0115-0.21591-0.6481-0.51466-1.3094-0.6639-1.4696-0.46252-0.4965-2.724-2.4745-2.8282-2.4733-0.15169 0-2.9697-0.3864-3.2916-0.453-0.15649-0.033-0.28452-0.1053-0.28452-0.1622 0-0.057 1.0095-0.5525 2.2436-1.1013 1.2341-0.5488 2.8986-1.396 3.6988-1.8828 1.1818-0.7188 10.256-7.0989 11.547-8.1186l0.34528-0.2727-0.01334-1.391c0.0071-0.4982 0.0094-1.1515 0.0094-2.0663v-3.4419l-0.06199 0.058-0.0014-0.11709-6.7797 5.143c-6.0168 4.5642-6.9843 5.2519-8.599 6.1126-1.9818 1.0563-4.043 2.0333-4.1224 1.9539-0.02748-0.027 0.24053-0.979 0.59573-2.1142l0.64586-2.064-0.64932-1.7905c-0.71051-1.959-0.70336-1.9494-2.6874-3.6538-0.79933-0.6867-0.94045-0.7563-2.0766-1.0243l-1.2189-0.2875-1.9702 0.3868-1.97 0.3865-1.4609 1.4689-1.4607 1.4688-0.23217 1.1697c-0.1276 0.6433-0.27705 1.1697-0.33219 1.1697-0.05514 0-0.18601-0.2987-0.29095-0.6639-0.33134-1.1529-5.3124-18.999-5.3124-19.071 0-0.016-0.18593 0.046-0.71083 0.0342-0.43005-0.0179-1.2061-0.0226-2.2673-0.024-0.21644 0-0.41428-5e-3 -0.64142-5e-3zm7.7257 0-0.13312 0.4742c-0.12953 0.46175-0.20201 0.84813-0.21759 1.23-0.0412 0.3358-0.01744 0.59775 0.08249 0.9862 0.03531 0.18841 0.07864 0.38398 0.13658 0.59996l0.28773 1.0724 1.5916 1.6113 1.5916 1.6113 1.1381 0.30775c0.62596 0.16927 1.2011 0.31205 1.2781 0.31714 0.07704 5e-3 1.1582-0.22079 2.4027-0.50187 2.2549-0.50931 2.2652-0.5104 3.0473-0.31614 0.5336 0.13255 0.88776 0.19406 1.1174 0.18473 0.21251 0.0198 0.31095-5e-3 0.31095-0.0679 0-5e-3 0.01386-0.0614 0.01655-0.075 0.0123-0.0207 0.02263-0.0429 0.02989-0.0679 0.16533-0.57484 1.724-7.1122 1.724-7.231 0-5e-3 -0.0049-8e-3 -0.01211-0.0113 0.0014-8e-3 0.01211-0.0532 0.01211-0.0549 0-0.025-1.4724-0.0462-3.5576-0.0583-0.18066 0-0.36615-5e-3 -0.56164-5e-3 -0.94292-5e-3 -1.9661-7e-3 -3.0787-7e-3h-7.1979zm-8.5136 11.909c0.02988 0 0.05718 0.038 0.08545 0.1175 0.16237 0.4583 2.5993 9.7575 2.5993 9.9189 0 0.1013-0.0271 0.1843-0.06026 0.1843-0.03314 0-0.74946-0.4553-1.5916-1.0117l-1.5311-1.0116h-3.9794l-0.77702 0.4742c-1.5126 0.923-1.8611 1.2458-2.9048 2.6904-1.2125 1.6783-1.1653 1.4028-0.80122 4.6566l0.23142 2.0676c0.76789 0.7388 1.1365 0.9941 2.1826 2.3483 0 0.1671-0.7367 0.1716-5.9017 0.036-2.562-0.067-3.1115-0.1466-2.6963-0.3892 1.3539-0.7911 1.2921-0.7059 4.1019-5.6515l2.6625-4.6863 3.5408-3.0604c1.9474-1.6833 3.6675-3.1838 3.8226-3.3343 0.21044-0.2043 0.35879-0.6517 0.58486-1.7645 0.22984-1.1313 0.34236-1.5702 0.43197-1.5844zm17.325 2.9786c0.31485-0.013 0.55922 0.035 1.0079 0.1321 0.86636 0.1881 1.0096 0.2704 2.1656 1.2461l1.2376 1.0447 0.52855 1.4296c0.29073 0.7862 0.52771 1.5718 0.52657 1.7456-9.42e-4 0.1739-0.2496 1.0935-0.55201 2.0439-0.43985 1.3822-0.66854 1.8899-1.144 2.5375l-0.59449 0.8094-2.8697 1.4157-2.8695 1.4154-4.8686 1.1468c-4.6484 1.0947-5.0888 1.1744-9.7371 1.7667-2.6777 0.3411-4.9193 0.6214-4.9812 0.6226-0.13766 0-2.5831-2.3808-2.7413-2.6721-0.1187-0.2185-0.49718-3.3511-0.49718-4.1146 0-0.3474 0.1899-0.7022 0.88841-1.6599 0.75125-1.03 1.0468-1.3213 1.9141-1.8855l1.0257-0.6671h3.4445l1.58 1.0561 1.58 1.0564 0.79159 1.5676c0.61402 1.2156 0.89342 1.9651 1.2443 3.338 0.24887 0.9737 0.51873 1.838 0.59943 1.9205 0.11294 0.1156 0.87476-0.023 3.3081-0.6024 1.7388-0.4138 3.4356-0.814 3.7707-0.8893 0.33516-0.076 0.64112-0.22 0.67995-0.3211 0.03884-0.1012-0.27645-0.9358-0.70045-1.8546-0.754-1.6341-0.77495-1.7097-0.96176-3.4395l-0.19092-1.7685 0.35788-1.6721 0.35788-1.6718 1.1067-1.2058c0.60879-0.6632 1.2291-1.2346 1.3784-1.2697 0.14928-0.035 0.95164-0.2002 1.783-0.3668 0.73112-0.1465 1.1164-0.2208 1.4313-0.2339zm5.3364 15.892c0.44658 0 1.1419 0.088 2.519 0.2796l2.5788 0.3583 1.2374 1.1135 1.2376 1.1134 0.45346 1.3611c0.4534 1.3607 0.45345 1.3611 0.32429 2.6067-0.11308 1.0905-0.19605 1.372-0.66563 2.2565-0.5856 1.103-0.67338 1.1771-2.5516 2.1568-1.059 0.5525-1.1898 0.5892-2.0865 0.5852-0.52617 0-1.3997-0.1093-1.9411-0.2377-0.84564-0.2004-1.2306-0.3968-2.7329-1.3932-0.96178-0.6379-1.8908-1.3135-2.0643-1.5012-0.36015-0.3895-2.8063-4.1602-3.1044-4.7853-0.10842-0.2274-0.26751-0.4402-0.35343-0.4732-0.14254-0.055-7.1561 1.7382-7.4076 1.8936-0.05964 0.037-0.10842 0.1279-0.10842 0.2026 0 0.075 0.80339 1.5208 1.7855 3.2135 1.6061 2.7683 1.9524 3.2726 3.4459 5.0182 0.9132 1.0674 1.7384 2.0364 1.8339 2.1535 0.34284 0.4206-0.15325 0.2016-1.8237-0.8052-1.3177-0.7942-2.8248-1.492-7.4772-3.462l-5.8269-2.4674-4.3464-0.9593c-4.9466-1.0917-4.8232-1.0586-4.4729-1.2015 0.1391-0.057 3.4965-0.4832 7.4609-0.9477 7.9199-0.928 6.9607-0.7464 14.732-2.7922 2.7417-0.7217 3.3892-0.945 5.6273-1.9406 1.391-0.6187 2.7852-1.1923 3.0982-1.2749 0.18234-0.048 0.36063-0.074 0.62858-0.071zm-44.203 24.113c-0.029319-0.029-0.053105 2.0097-0.053105 4.531 0 2.1688 0.029744 3.7528 0.076565 4.3098 0.011077 0.1523 0.022862 0.253 0.035824 0.253 0.18699 0 1.7985-2.5626 1.7277-2.7473-0.036201-0.094-0.20614-0.699-0.37764-1.3435-0.29864-1.1224-0.93203-3.388-1.2305-4.4164-0.082598-0.319-0.15605-0.5638-0.17881-0.5866z" fill="#ffd42a" stroke-width=".12646"/>
<path d="m0.85494 1047.6c0-2.5213 0.023946-4.5601 0.05327-4.5309 0.029319 0.029 0.1423 0.423 0.25112 0.8747 0.10882 0.4518 0.48271 1.8457 0.83086 3.0976s0.63348 2.3742 0.63407 2.494c9.428e-4 0.2335-1.4592 2.5361-1.6531 2.6064-0.069329 0.025-0.11624-1.808-0.11624-4.5418zm48.097-46.575c-5.138-1.295-5.6082-1.4624-5.6082-1.9959 0-0.18435 1.9242-8.0466 2.5401-10.379l0.12523-0.47425h5.9521c4.7082 0 5.94 0.033 5.8943 0.1581-0.03177 0.0869-0.73388 3.2736-1.5602 7.0815l-1.5025 6.9235-0.38174-0.018c-0.20996-0.01-2.6666-0.593-5.4591-1.2969zm-13.385-4.9562-1.1381-0.31346-1.6166-1.6084c-1.613-1.6047-1.6173-1.6106-1.9285-2.6265-0.36764-1.2002-0.37303-1.3187-0.11207-2.466l0.19982-0.87854h7.1979c3.9588 0 7.1979 0.0311 7.1979 0.0693s-0.39834 1.7101-0.88519 3.7155c-0.48686 2.0054-0.8852 3.6813-0.8852 3.7243 0 0.12981-0.39592 0.0924-1.3278-0.12548l-0.8852-0.20693-2.0865 0.46491c-1.1476 0.25572-2.2003 0.4874-2.3394 0.51478-0.1391 0.0273-0.76506-0.0912-1.391-0.26354z" fill="#a9df8f" stroke-width=".12646"/>
<path d="m58.889 1049.3c-2.3246-1.6032-4.3972-3.0753-4.6058-3.2714-0.20865-0.196-0.91013-0.7098-1.5588-1.1416-0.82306-0.5478-1.1579-0.8413-1.108-0.9713 0.09446-0.2462 2.3349-3.7297 2.5371-3.9448 0.1286-0.1368 1.1182 0.4935 5.4231 3.4543l5.2658 3.6217v5.1679h-1.7268zm-7.931-5.7697c0.09329-0.3567 2.6107-4.0876 2.7581-4.0876 0.2731 0 0.0685 0.3961-1.1732 2.2715-1.2004 1.8129-1.7482 2.4407-1.5849 1.8161zm-2.4602-1.4636c-1.1439-0.7775-3.0596-2.3342-5.7139-4.643l-3.9931-3.4732-3.2429-4.742c-1.7836-2.608-3.4975-5.0006-3.5268-5.1127-0.0437-0.1671 0.39358-0.3219 2.4353-0.8621 1.8247-0.4827 2.5323-0.6222 2.6523-0.5225 0.09006 0.075 0.79491 1.0057 1.2845 1.8647 1.1229 1.9705 4.2972 6.0255 6.3226 8.0768 1.3023 1.319 1.8826 1.7749 4.9831 3.9154 1.93 1.3324 3.5092 2.4915 3.5092 2.5759 0 0.3144-2.564 4.0924-2.7773 4.0924-0.11678 0-0.98668-0.5263-1.9331-1.1697zm-19.187-24.128c-0.05496-0.087-0.51865-1.049-0.92349-1.9531-0.7712-1.7223-0.65752-1.3169-5.267-18.788-0.56102-2.1264-1.0197-4.0612-1.0192-4.2995 0.0014-0.82207 0.81517-1.6315 1.6431-1.6346 0.24343 0 0.61331-0.11474 0.82197-0.25294 0.72311-0.47887 1.9065-0.21528 2.3857 0.53142 0.10256 0.1598 1.4448 5.0137 2.9828 10.786 2.075 7.7886 2.9764 10.964 3.4945 12.31 0.38398 0.998 0.76822 2.0561 0.74694 2.1666-0.02875 0.1493-0.62338 0.3395-2.3147 0.7405-2.6468 0.6274-2.424 0.5932-2.5507 0.3928z" fill="#ff7f2a" stroke-width=".12646"/>
</g>
</g>
</g>
</g>
</g>
</svg>
