<?xml version="1.0" encoding="UTF-8" standalone="no"?>
<!-- Created with Inkscape (http://www.inkscape.org/) -->

<svg
   xmlns:dc="http://purl.org/dc/elements/1.1/"
   xmlns:cc="http://creativecommons.org/ns#"
   xmlns:rdf="http://www.w3.org/1999/02/22-rdf-syntax-ns#"
   xmlns:svg="http://www.w3.org/2000/svg"
   xmlns="http://www.w3.org/2000/svg"
   xmlns:sodipodi="http://sodipodi.sourceforge.net/DTD/sodipodi-0.dtd"
   xmlns:inkscape="http://www.inkscape.org/namespaces/inkscape"
   width="64"
   height="64"
   id="svg1901"
   sodipodi:version="0.32"
   inkscape:version="0.92.4 5da689c313, 2019-01-14"
   sodipodi:docname="map-guide.svg"
   version="1.1"
   inkscape:export-xdpi="168"
   inkscape:export-ydpi="168"
   inkscape:export-filename="/home/mo/Dokumente/Pure Maps/map-views/map-guide.png">
  <defs
     id="defs1903" />
  <sodipodi:namedview
     id="base"
     pagecolor="#b0b0b0"
     bordercolor="#666666"
     borderopacity="1.0"
     inkscape:pageopacity="0"
     inkscape:pageshadow="2"
     inkscape:zoom="18.265961"
     inkscape:cx="31.978629"
     inkscape:cy="31.909857"
     inkscape:document-units="px"
     inkscape:current-layer="g1004"
     inkscape:window-width="2880"
     inkscape:window-height="1506"
     inkscape:window-x="0"
     inkscape:window-y="0"
     showgrid="true"
     inkscape:window-maximized="1"
     inkscape:showpageshadow="false"
     showguides="true"
     inkscape:snap-grids="true"
     inkscape:snap-global="true"
     inkscape:snap-intersection-paths="true"
     inkscape:object-nodes="true"
     inkscape:snap-smooth-nodes="true"
     inkscape:snap-midpoints="true"
     inkscape:object-paths="true"
     inkscape:document-rotation="0"
     inkscape:guide-bbox="true">
    <inkscape:grid
       type="xygrid"
       id="grid10137"
       empspacing="16"
       visible="true"
       enabled="true"
       snapvisiblegridlinesonly="true" />
    <sodipodi:guide
       position="10,35"
       orientation="1,0"
       id="guide866"
       inkscape:locked="false" />
    <sodipodi:guide
       position="5,38"
       orientation="1,0"
       id="guide868"
       inkscape:locked="false" />
    <sodipodi:guide
       position="3,10"
       orientation="0,1"
       id="guide891"
       inkscape:locked="false" />
  </sodipodi:namedview>
  <metadata
     id="metadata1906">
    <rdf:RDF>
      <cc:Work
         rdf:about="">
        <dc:format>image/svg+xml</dc:format>
        <dc:type
           rdf:resource="http://purl.org/dc/dcmitype/StillImage" />
        <dc:title></dc:title>
      </cc:Work>
    </rdf:RDF>
  </metadata>
  <g
     inkscape:label="Taso 1"
     inkscape:groupmode="layer"
     id="layer1"
     transform="translate(0,-988.3622)">
    <g
       id="g825"
       transform="translate(-0.8572132,0.17178455)">
      <g
         id="g1004">
        <path
           style="fill:#fbfbfa;stroke-width:0.09815288"
           d="M 0.86071214,1020.1927 V 988.19477 H 32.858547 64.856383 v 31.99793 31.9977 H 32.858547 0.86071214 Z"
           id="path1016"
           inkscape:connector-curvature="0" />
        <path
           style="fill:#e7e7eb;stroke-width:0.09815288"
           d="m 0.86071214,1047.7276 c 0,-5.1039 -0.10345025,-4.6902 0.96321576,-3.8504 0.3433411,0.2703 0.654756,0.449 0.6983369,0.4008 0.3070035,-0.3397 6.6814398,-8.7971 6.6814398,-8.8648 0,-0.048 -1.8195054,-1.1114 -4.0433464,-2.365 -2.2238394,-1.2536 -4.1010133,-2.3369 -4.17149624,-2.4074 -0.10091342,-0.1005 -0.12814323,-0.9175 -0.12814323,-3.8423 v -3.7142 l 2.27044307,-3.7604 c 1.5517191,-2.5701 2.3449651,-3.7944 2.5058583,-3.8677 0.2125457,-0.097 0.4006489,0 1.936246,1.0386 0.9354555,0.6301 1.7622882,1.1445 1.8374049,1.1431 0.1394437,0 8.621557,-11.7834 8.699945,-12.0833 0.03039,-0.1169 -0.362359,-0.5081 -1.330073,-1.3273 -1.597086,-1.3518 -1.694461,-1.4783 -1.438853,-1.8684 0.267059,-0.4075 5.528236,-7.00119 5.858748,-7.34251 0.156823,-0.16143 0.853927,-1.02313 1.54912,-1.91399 0.695194,-0.89069 1.618939,-2.0611 2.052767,-2.60108 0.433829,-0.53982 0.789711,-1.03039 0.790848,-1.09002 0.0011,-0.0593 -0.141486,-0.30261 -0.31693,-0.53982 -0.175447,-0.23721 -0.330038,-0.48644 -0.343534,-0.55398 -0.03568,-0.17841 6.787262,-0.17841 7.002343,0 0.08134,0.0675 0.940361,1.16068 1.908931,2.42927 3.070843,4.0222 4.33106,5.64298 4.410728,5.67263 0.06749,0.0263 3.292881,-3.67578 4.515885,-5.1819 0.918681,-1.1312 2.200206,-2.60982 2.445269,-2.82133 0.250572,-0.21629 0.303305,-0.22041 2.828765,-0.2209 2.410269,-5e-4 2.56932,0.0165 2.508583,0.17132 -0.03566,0.0939 -1.48081,1.82817 -3.211427,3.85286 -1.730618,2.02453 -3.356546,3.9288 -3.613173,4.23158 l -0.466599,0.55052 0.309445,0.7006 c 0.170194,0.3853 0.35808,0.6968 0.417521,0.69219 0.05943,0 0.502587,-0.45037 0.984765,-0.99085 0.578892,-0.6487 2.154032,-2.08053 4.637074,-4.2151 2.068212,-1.77793 3.904227,-3.31535 4.080031,-3.41633 0.343333,-0.19735 2.8767,-1.04241 4.121266,-1.37467 0.691769,-0.18466 1.036802,-0.20262 3.901576,-0.20262 h 3.142697 v 1.0686 1.06844 l -0.318997,0.14991 c -0.175449,0.0824 -2.030538,0.70932 -4.122422,1.39377 -2.091883,0.68446 -3.803175,1.27369 -3.802874,1.3096 2.95e-4,0.0363 0.686883,0.30245 1.525738,0.5927 1.293743,0.44741 1.55944,0.57408 1.750894,0.83419 0.395916,0.53818 2.416968,4.26387 2.477742,4.56763 0.03216,0.16143 -0.01581,0.6968 -0.106629,1.19079 -0.09082,0.4942 -0.146165,0.9174 -0.122988,0.9406 0.02316,0.023 0.445438,-0.8485 0.938385,-1.93718 0.587988,-1.29856 1.00124,-2.37144 1.201457,-3.11899 0.167853,-0.62696 0.340118,-1.18391 0.382809,-1.23794 0.0427,-0.0544 0.09933,-0.18648 0.12587,-0.29437 0.02654,-0.10872 0.05337,1.73065 0.05963,4.08579 0.0099,3.72369 -0.0092,4.33169 -0.146033,4.66239 -0.227682,0.5497 -1.454355,2.5032 -1.723705,2.7452 -0.206111,0.185 -4.988443,3.6484 -5.241307,3.7956 -0.135457,0.079 -6.776718,0.8571 -7.314626,0.8571 -0.274746,0 -1.206325,-0.2957 -2.826211,-0.8966 -1.329007,-0.4932 -2.548881,-0.9632 -2.710833,-1.0445 -0.161946,-0.081 -0.846569,-0.5481 -1.52137,-1.0369 -0.674802,-0.4888 -1.3094,-0.8911 -1.410219,-0.8939 -0.100815,0 -0.271654,0.112 -0.379633,0.2547 l -0.196325,0.2596 0.75988,2.2796 c 0.85242,2.5575 0.825543,2.3392 0.634458,5.1513 -0.09721,1.4307 -0.126381,1.5646 -1.030091,4.7342 l -0.930046,3.2618 v 1.8141 1.8144 l 2.166207,12.0025 c 1.191414,6.6014 2.201474,12.0386 2.244578,12.0828 0.04311,0.045 1.066949,0.3413 2.27521,0.6602 1.208263,0.3189 2.285178,0.6219 2.393147,0.6731 0.107964,0.051 0.262558,0.1153 0.343534,0.1417 0.08098,0.026 -7.972025,0.051 -17.895558,0.056 -15.717685,0 -18.038695,-0.017 -18.01105,-0.1351 0.01744,-0.079 1.549099,-2.0964 3.403656,-4.4846 1.854558,-2.3881 3.392144,-4.3947 3.416858,-4.4591 0.02657,-0.069 -0.903005,-0.691 -2.274225,-1.5211 -1.275538,-0.7721 -2.432616,-1.5392 -2.571286,-1.7046 -0.297604,-0.3552 -1.290657,-1.038 -1.50158,-1.0327 -0.08098,0 -2.366332,2.9291 -5.078569,6.5044 -2.7122382,3.5752 -5.0205609,6.5768 -5.1296086,6.6702 -0.1720075,0.1466 -0.4321453,0.1698 -1.9638992,0.1698 H 0.86071873 Z m 41.12027186,0.4141 c 0.05975,-0.2835 0.177282,-0.8466 0.261176,-1.2515 l 0.152539,-0.7361 -1.774412,-9.8018 -1.774411,-9.8017 v -1.8977 -1.8979 l 0.967591,-3.3669 0.967588,-3.3671 0.09994,-1.8052 0.09994,-1.8053 -0.537819,-1.6102 c -0.295802,-0.8858 -0.5778,-1.5971 -0.626664,-1.5809 -0.176135,0.059 -16.086126,17.9814 -16.086126,18.121 0,0.079 0.486858,0.9131 1.08191,1.8542 l 1.081911,1.7108 0.974294,4.0909 c 0.62711,2.633 0.984822,4.3355 1.003838,4.7778 0.02881,0.6701 0.02374,0.6869 -0.205907,0.6777 -0.225016,-0.016 -0.22719,0 -0.04907,0.1301 0.576179,0.4288 3.308081,2.0012 3.567256,2.053 0.168394,0.035 2.612254,1.4025 5.430802,3.0419 2.818549,1.6394 5.154412,2.9808 5.190809,2.9808 0.03641,0 0.115064,-0.2319 0.174815,-0.5153 z m -14.618998,-7.7753 c 0,-0.025 -0.09938,-0.094 -0.220845,-0.1532 -0.212071,-0.1021 -0.213274,-0.1004 -0.03031,0.046 0.200257,0.1598 0.25116,0.182 0.25116,0.107 z m -0.490764,-0.2943 c 0,-0.025 -0.09938,-0.094 -0.220845,-0.1532 -0.212072,-0.1022 -0.213274,-0.1005 -0.03031,0.046 0.200257,0.1598 0.251161,0.1822 0.251161,0.1071 z m -5.829506,-4.6106 c 0.237104,-0.3206 0.431098,-0.6339 0.431098,-0.6965 0,-0.1302 -2.193045,-1.6177 -2.379501,-1.6135 -0.121587,0 -1.212897,1.4214 -1.192689,1.5504 0.0058,0.036 0.601993,0.4233 1.325064,0.8595 1.01529,0.6125 1.322672,0.758 1.349802,0.638 0.01932,-0.086 0.229122,-0.4174 0.466226,-0.7379 z m -6.046992,-7.5195 c 1.376594,-1.8892 2.502898,-3.4837 2.502898,-3.5431 0,-0.082 -6.217673,-4.3477 -8.0841423,-5.5466 -0.1550272,-0.099 -0.9955473,-0.6636 -1.8678305,-1.2533 -0.947466,-0.6406 -1.6205054,-1.0358 -1.6717528,-0.9816 -0.1338758,0.1416 -4.6205741,7.5999 -4.6205741,7.6808 0,0.1038 10.9158677,7.0649 11.0912737,7.0725 0.08408,0 1.220879,-1.4671 2.650128,-3.4287 z m 6.664478,-9.1234 c 3.161761,-4.3253 3.409004,-4.6949 4.727286,-7.0667 1.342196,-2.4149 1.420202,-2.5872 2.221825,-4.9077 l 0.830791,-2.4051 -0.01268,-5.00581 c -0.0094,-3.7224 -0.04296,-5.04797 -0.130647,-5.17004 -1.754805,-2.44541 -2.928176,-3.95961 -3.064436,-3.95467 -0.05293,0 -0.559995,0.58331 -1.126828,1.29181 -1.385245,1.73164 -2.669682,3.33166 -5.962705,7.42717 -1.525005,1.89674 -2.772702,3.49264 -2.772661,3.54664 4.2e-5,0.054 0.623369,0.6232 1.385173,1.265 1.375929,1.159 1.384764,1.169 1.334839,1.5212 -0.02764,0.1951 -0.09411,0.4651 -0.147729,0.6 -0.0536,0.1351 -2.008217,2.9176 -4.34358,6.1836 -2.335361,3.2661 -4.25044,5.9976 -4.255731,6.0699 -0.0053,0.072 1.735049,1.3152 3.86742,2.7617 2.945213,1.9977 3.905448,2.6031 3.995244,2.5184 0.06502,-0.061 1.61952,-2.1652 3.454458,-4.6754 z m 4.819408,-14.1401 c -0.836755,-0.5911 -1.929932,-1.3632 -2.429284,-1.7157 -0.499352,-0.3525 -0.907914,-0.7108 -0.907914,-0.7961 0,-0.086 0.154582,-0.3657 0.343535,-0.6232 0.188945,-0.2573 0.343534,-0.5179 0.343534,-0.5792 0,-0.061 -0.775501,-0.6884 -1.723338,-1.39346 -0.947836,-0.70521 -1.709747,-1.3348 -1.693138,-1.39888 0.03896,-0.14991 2.489593,-2.41708 2.876636,-2.66055 0.161945,-0.10214 0.927649,-0.7851 1.701549,-1.51799 0.880292,-0.83369 1.483559,-1.33266 1.611343,-1.33266 0.220904,0 0.19866,-0.0544 0.916151,2.25746 0.201006,0.64788 0.557387,1.77298 0.791956,2.50026 l 0.426485,1.32245 -0.0051,2.26007 c -0.0043,1.8738 -0.04209,2.4698 -0.220843,3.486 -0.158651,0.9019 -0.254529,1.2312 -0.362857,1.2459 -0.08098,0.017 -0.831845,-0.4636 -1.668598,-1.0544 z m 8.678352,3.5055 c 1.300115,-1.4492 2.407487,-2.6966 2.460828,-2.7717 0.07115,-0.1005 0.02356,-0.209 -0.178611,-0.4077 l -0.275593,-0.271 -0.294805,0.3435 c -0.162144,0.1889 -1.181368,1.5582 -2.264945,3.0427 -1.083577,1.4845 -2.01893,2.7655 -2.078559,2.8463 -0.394916,0.5364 0.566052,-0.4795 2.631685,-2.7821 z m -2.993415,-3.7449 c 0.548505,-0.7558 1.293662,-1.7621 1.655902,-2.2362 0.362241,-0.4741 0.671035,-0.8978 0.68621,-0.9416 0.02318,-0.067 -1.019652,-1.49377 -2.697347,-3.69061 l -0.372982,-0.48842 -0.04965,3.92383 c -0.04334,3.4261 -0.07136,3.9783 -0.220845,4.3533 -0.188063,0.4718 -0.222879,0.6962 -0.08488,0.5471 0.04747,-0.051 0.535088,-0.7116 1.083597,-1.4674 z m 21.501503,0.9284 2.01023,-0.2972 1.964962,-1.2171 c 1.080729,-0.6693 2.040177,-1.2752 2.132108,-1.3462 0.117567,-0.091 0.243442,-0.5543 0.424408,-1.563 l 0.25726,-1.43378 -0.949061,-1.70709 c -0.521984,-0.9388 -1.000064,-1.75701 -1.062401,-1.81796 -0.06233,-0.061 -0.67004,-0.29437 -1.350451,-0.51857 l -1.237108,-0.40787 -1.338681,0.29783 c -0.736276,0.16308 -1.360167,0.29783 -1.386426,0.29783 -0.02626,0 -1.00934,0.82003 -2.184622,1.82208 -1.735833,1.47993 -2.463477,2.18464 -3.877069,3.75433 -0.957104,1.0627 -1.739712,1.9764 -1.739128,2.0305 0.0025,0.2298 0.642006,0.5049 3.307803,1.4224 1.551902,0.5342 2.865809,0.9736 2.919794,0.9762 0.05398,0 1.002756,-0.1285 2.108382,-0.2924 z m -10.93744,-5.46802 c 0.236056,-0.25632 0.430947,-0.56025 0.433091,-0.67523 0.0046,-0.25171 -0.467169,-1.3124 -0.583916,-1.3124 -0.12984,0 -1.178939,1.23284 -1.178939,1.38554 0,0.15485 0.693095,1.05641 0.818359,1.06361 0.04522,0 0.275349,-0.205 0.511405,-0.46152 z M 0.86071214,988.5384 c 0,-0.33078 0.0136726,-0.34363 0.36278916,-0.34363 h 0.3627891 l -0.3329681,0.34363 c -0.1831316,0.18894 -0.34638701,0.34346 -0.36278915,0.34346 -0.0163082,0 -0.0298161,-0.15485 -0.0298161,-0.34346 z"
           id="path1014"
           inkscape:connector-curvature="0" />
        <path
           style="fill:#f7ebae;stroke-width:0.09815288"
           d="m 4.163732,1051.913 c 0.4143743,-0.6339 10.38556,-13.6839 10.484444,-13.7218 0.149657,-0.058 1.641408,0.939 2.095823,1.3999 0.205686,0.2085 1.38694,0.9877 2.625009,1.7316 8.547165,5.1343 17.585849,10.6106 17.706607,10.728 0.124355,0.1203 -1.401237,0.14 -11.320366,0.14 h -11.46409 l 0.287608,-0.368 c 1.944341,-2.4884 6.541884,-8.4363 6.65844,-8.6142 0.178287,-0.2719 0.434706,-0.082 -2.512674,-1.8576 -1.052689,-0.6341 -2.134825,-1.3623 -2.404746,-1.6182 -0.269919,-0.256 -0.723196,-0.6101 -1.007281,-0.787 -0.43558,-0.2717 -0.540618,-0.3022 -0.670333,-0.1944 -0.0846,0.071 -2.429755,3.1228 -5.2114577,6.7835 -3.7127322,4.8861 -5.1095923,6.6559 -5.2530142,6.6559 -0.1917717,0 -0.1920287,0 -0.014002,-0.2774 z m 44.448349,0.1631 c -3.113037,-0.749 -3.523684,-0.8779 -4.171945,-1.3089 -0.357898,-0.2379 -0.772239,-0.4788 -0.920761,-0.5353 -0.148521,-0.056 -0.410569,-0.2085 -0.582328,-0.338 -0.17176,-0.1301 -0.533134,-0.3439 -0.803054,-0.4765 -0.269921,-0.1335 -1.904166,-1.07 -3.631657,-2.0829 -5.362514,-3.1442 -6.98519,-4.0593 -7.393225,-4.1691 -0.216669,-0.059 -0.763528,-0.3372 -1.215239,-0.6197 -0.451712,-0.2826 -3.478919,-2.1038 -6.727125,-4.0473 -3.248207,-1.9433 -5.924276,-3.5778 -5.946819,-3.6318 -0.02253,-0.054 0.357074,-0.6283 0.843594,-1.276 2.764785,-3.6809 3.913358,-5.1692 4.439897,-5.7537 0.53616,-0.5951 15.725021,-17.6112 17.086973,-19.1427 0.474323,-0.5332 2.826626,-3.0811 4.562756,-4.9419 0.604548,-0.648 1.363451,-1.4876 2.807076,-3.1059 1.010144,-1.13223 1.932854,-2.02127 3.514436,-3.38622 1.179561,-1.01803 2.387397,-2.03623 2.684079,-2.26273 0.296681,-0.2265 0.886938,-0.73338 1.311677,-1.12626 0.42474,-0.39304 0.843114,-0.75413 0.929719,-0.80256 0.228317,-0.12849 9.183765,-3.1068 9.339565,-3.1068 0.07209,0 0.116463,0.0758 0.09861,0.16868 -0.02478,0.12849 -1.028874,0.49501 -4.245052,1.54863 -2.316924,0.75907 -4.227209,1.42392 -4.245074,1.47762 -0.01786,0.0544 0.682272,0.33407 1.555862,0.62334 0.937864,0.31051 1.672347,0.61131 1.793463,0.73403 0.112824,0.11531 0.745519,1.18523 1.406006,2.37936 0.888157,1.60595 1.199751,2.25778 1.196521,2.50307 -0.0025,0.18235 -0.08685,0.77324 -0.187665,1.31304 -0.30108,1.6122 -0.215167,1.5071 1.002708,-1.22689 0.6472,-1.45292 1.057187,-2.53437 1.316126,-3.47135 l 0.376096,-1.36116 0.0256,4.25546 0.0256,4.25534 -0.656069,1.0809 c -1.138371,1.8755 -1.003433,1.7419 -3.780708,3.7469 -1.4208,1.0258 -2.635308,1.8952 -2.698905,1.9321 -0.120417,0.069 -6.558082,0.8492 -7.245833,0.8774 -0.283212,0.016 -1.117385,-0.2539 -2.993663,-0.9523 l -2.60105,-0.9683 -1.470674,-1.0539 c -0.808869,-0.5797 -1.519894,-1.0352 -1.580053,-1.0121 -0.06016,0.023 -0.211478,0.18 -0.336266,0.3489 l -0.226882,0.3069 0.792577,2.4121 0.792579,2.412 -0.130763,2.0281 -0.130762,2.028 -0.940628,3.3046 -0.94063,3.3047 v 1.7759 1.7758 l 2.162773,11.9821 c 1.189525,6.5904 2.185505,12.0571 2.213292,12.1485 0.05602,0.1844 0.169978,0.2209 2.985401,0.9591 1.052688,0.2761 1.95815,0.5187 2.012134,0.5393 0.214514,0.082 -1.105017,0.026 -1.472294,-0.061 z m -6.401342,-4.5777 0.273053,-1.2901 -1.769884,-9.7973 -1.769884,-9.7975 v -1.9366 -1.9365 l 0.942702,-3.2613 0.942702,-3.2614 0.123366,-1.8649 0.123366,-1.8649 -0.576869,-1.711 c -0.317277,-0.9411 -0.599476,-1.7336 -0.627106,-1.7613 -0.06713,-0.068 0.542712,-0.7425 -8.056534,8.9211 -9.079985,10.2037 -8.306078,9.3143 -8.24424,9.4754 0.02759,0.072 0.537368,0.8996 1.132824,1.8392 l 1.082648,1.7084 0.928761,3.9166 c 0.510819,2.1542 0.956396,4.1374 0.990172,4.4074 0.03377,0.2698 0.08416,0.6121 0.111967,0.7607 0.03678,0.1964 0.01071,0.2698 -0.09581,0.2698 -0.211117,0 -6.847935,-3.9357 -6.910129,-4.0978 -0.02866,-0.074 0.149196,-0.4248 0.395243,-0.7783 0.246037,-0.3534 0.427032,-0.6955 0.40221,-0.7603 -0.02482,-0.064 -0.59425,-0.4858 -1.265397,-0.936 -0.977289,-0.6554 -1.247828,-0.7956 -1.358669,-0.7035 -0.312046,0.2589 -1.25967,1.5924 -1.214783,1.7094 0.07009,0.1827 13.099655,7.9642 13.566715,8.1024 0.215936,0.064 2.645219,1.4359 5.398408,3.0491 2.753186,1.6132 5.049965,2.9233 5.103948,2.9113 0.05398,-0.016 0.221028,-0.6026 0.371205,-1.3121 z m 11.407139,-42.0357 2.06121,-0.3029 1.864905,-1.1609 c 1.025698,-0.6386 1.98552,-1.216 2.132939,-1.283 0.318597,-0.145 0.296991,-0.081 0.611287,-1.8017 l 0.249546,-1.36593 -0.483507,-0.90486 c -0.834972,-1.56262 -1.473069,-2.66483 -1.601369,-2.76597 -0.06802,-0.0527 -0.67072,-0.27906 -1.339333,-0.50095 l -1.215659,-0.40325 -1.336315,0.29519 c -0.734975,0.16144 -1.413952,0.31859 -1.508845,0.34758 -0.09488,0.028 -1.142143,0.88427 -2.327229,1.90098 -1.714271,1.47071 -2.491553,2.22385 -3.802663,3.68521 -0.906379,1.0101 -1.680569,1.8929 -1.720424,1.9617 -0.157646,0.2723 0.629413,0.6421 3.420589,1.6068 1.559528,0.539 2.85759,0.9834 2.884581,0.9876 0.027,0 0.976621,-0.1285 2.110287,-0.2956 z m -52.75716586,41.4065 c 0,-0.1434 0.044164,-0.2891 0.098146,-0.3226 0.0539819,-0.033 0.0981459,-0.1054 0.0981459,-0.1581 0,-0.054 -0.044164,-0.071 -0.0981459,-0.038 -0.0638328,0.04 -0.098146,-0.4735 -0.098146,-1.4664 0,-0.84 0.0297667,-1.5272 0.0661554,-1.5272 0.0363888,0 0.39347006,0.2686 0.79351786,0.5969 0.4000493,0.3283 0.7526071,0.5718 0.7834643,0.5408 0.3110047,-0.311 6.8853537,-9.064 6.8629456,-9.1372 -0.016522,-0.054 -1.9261037,-1.1658 -4.2435227,-2.4704 -3.7154931,-2.0919 -4.63179224,-2.6827 -4.16079709,-2.6827 0.24113629,0 8.92827389,4.9599 8.92828539,5.0978 6.6e-6,0.077 -0.082958,0.2319 -0.1843507,0.3434 -0.1013911,0.112 -2.0275639,2.6319 -4.280371,5.601 -2.2528055,2.9691 -4.2016072,5.5079 -4.3306696,5.6415 l -0.2346608,0.2433 z m 5.94630556,-18.3867 c -3.0726586,-1.9632 -5.6533322,-3.6361 -5.7348289,-3.7176 -0.13212966,-0.1318 -0.131619,-0.1548 0.00478,-0.2069 0.097899,-0.038 2.1503633,1.2149 5.7036455,3.4802 3.0528943,1.9465 5.6089197,3.5144 5.6800567,3.4842 0.111456,-0.048 1.204515,-1.5245 5.142414,-6.9499 0.435879,-0.6004 2.233613,-3.0572 3.994969,-5.4596 3.089744,-4.214 3.256431,-4.4645 4.735707,-7.116 1.513751,-2.7135 1.543759,-2.779 2.360432,-5.1583 l 0.827187,-2.41 v -5.00667 -5.00663 l -0.395994,-0.53373 c -0.934303,-1.25936 -1.352846,-1.8173 -2.756225,-3.67462 l -1.483247,-1.96309 3.410344,-0.0264 c 2.633516,-0.0198 3.444624,0 3.560824,0.0988 0.08276,0.0675 0.937888,1.16201 1.900279,2.43059 2.135292,2.81474 4.319616,5.65023 4.46344,5.79404 0.121719,0.1219 1.258973,-1.17502 6.002198,-6.84436 0.711745,-0.85066 1.322045,-1.49393 1.41999,-1.49673 0.361875,-0.0165 0.641966,-0.36158 -4.928327,6.17868 -2.792071,3.27829 -5.896302,7.23462 -8.779429,11.18942 -0.964202,1.3226 -1.922343,2.6256 -2.129197,2.8954 -0.92025,1.2009 -3.535842,4.7836 -4.012794,5.4965 -0.28889,0.432 -1.020619,1.4479 -1.626067,2.2577 -0.605447,0.8098 -3.405129,4.6302 -6.221513,8.4901 -5.574571,7.64 -5.369909,7.3653 -5.477382,7.3531 -0.04102,0 -2.5885713,-1.6149 -5.6612315,-3.5781 z m 25.0254393,-23.3781 c 0.537356,-0.7406 1.385574,-1.8892 1.884928,-2.5521 0.499351,-0.6632 0.907914,-1.248 0.907914,-1.2999 0,-0.051 -0.518984,-0.778 -1.153297,-1.61369 -0.634314,-0.83567 -1.329972,-1.76261 -1.545908,-2.05962 -0.215936,-0.29684 -0.447823,-0.56304 -0.515302,-0.59121 -0.09694,-0.0412 -0.122691,0.75907 -0.122691,3.81022 0,3.1715 -0.02616,3.9359 -0.146362,4.2765 -0.278417,0.7891 -0.431685,1.3765 -0.359138,1.3765 0.04006,0 0.512496,-0.6059 1.049852,-1.3467 z m -5.056668,12.9534 c 0.0015,-0.041 0.299637,-0.4794 0.662533,-0.9752 10.300848,-14.0771 14.39738,-19.47039 14.916514,-19.63809 0.275618,-0.089 0.09177,0.326 -0.395909,0.89399 -0.872233,1.01589 -0.846968,0.86121 -0.258904,1.58602 l 0.520206,0.64108 0.353632,-0.3452 c 0.342265,-0.33427 0.590737,-0.44151 0.590737,-0.25487 0,0.17317 -0.810729,1.08487 -4.327377,4.86607 -1.523423,1.6381 -7.369453,8.1624 -10.977532,12.251 -0.845487,0.958 -1.091448,1.1794 -1.0839,0.9752 z m 7.492944,-8.7111 c 1.300607,-1.4575 2.641686,-2.9465 2.980175,-3.3087 0.338488,-0.3623 0.615435,-0.6764 0.615435,-0.698 0,-0.021 -0.160793,-0.2097 -0.357307,-0.4181 l -0.357307,-0.3789 -0.322432,0.3732 c -0.177337,0.205 -1.246406,1.6393 -2.375706,3.1869 -2.89091,3.962 -3.065338,4.2063 -3.065338,4.2926 0,0.1482 0.533842,-0.417 2.88248,-3.049 z m -8.295413,-5.1862 c -1.114664,-0.7722 -2.195585,-1.5395 -2.402049,-1.7051 l -0.37539,-0.3011 0.423356,-0.6036 c 0.355857,-0.5073 0.403345,-0.6276 0.297844,-0.7548 -0.06902,-0.082 -0.827916,-0.6625 -1.686412,-1.28733 -0.858494,-0.62498 -1.585246,-1.19972 -1.615007,-1.27731 -0.05285,-0.13837 1.362437,-1.53907 2.245993,-2.22385 0.21569,-0.16704 1.100457,-0.96647 1.966147,-1.77628 0.865693,-0.80965 1.6428,-1.47219 1.726908,-1.47219 0.159277,0 0.185883,0.0692 0.864821,2.25745 0.201006,0.64789 0.557388,1.77299 0.791955,2.50027 l 0.426488,1.32245 v 2.10209 c 0,1.6719 -0.04128,2.3438 -0.20173,3.2842 -0.203492,1.1927 -0.245004,1.3437 -0.368444,1.3408 -0.03729,-8e-4 -0.979819,-0.6336 -2.09448,-1.4057 z m 18.117947,-5.39387 c -0.121422,-0.31661 1.725443,-2.1405 5.263835,-5.1987 1.85867,-1.60645 3.633895,-3.11636 3.944942,-3.35538 0.498788,-0.38316 0.853982,-0.5278 3.009145,-1.22609 1.618654,-0.52433 2.587487,-0.78905 2.869809,-0.78394 0.234412,0 0.359953,0.0296 0.278977,0.056 -0.08098,0.0264 -0.235567,0.0906 -0.343536,0.14002 -0.107964,0.0511 -1.320149,0.46652 -2.693734,0.92414 -1.889848,0.62959 -2.594274,0.90898 -2.89551,1.14833 -1.910912,1.51864 -6.923769,5.94048 -8.023761,7.07777 -1.079253,1.11588 -1.356948,1.3554 -1.410167,1.21686 z m -1.023774,-2.15516 c 0.0011,-0.13013 6.728246,-8.04276 7.034675,-8.27503 0.09818,-0.0741 0.255305,-0.13673 0.349161,-0.13837 0.106942,0 -1.191867,1.59096 -3.478999,4.2665 -2.007304,2.34838 -3.7073,4.26963 -3.777766,4.26963 -0.07047,0 -0.127649,-0.0544 -0.127072,-0.1219 z m -1.209556,-1.31487 c -0.03711,-0.0362 -0.06747,-0.19257 -0.06747,-0.3456 0,-0.21547 0.04558,-0.27807 0.202525,-0.27807 0.168507,0 0.197358,0.0527 0.171767,0.31134 -0.03001,0.30393 -0.171335,0.44774 -0.306812,0.31233 z"
           id="path1012"
           inkscape:connector-curvature="0" />
        <path
           style="fill:#cfd0d4;stroke-width:0.09815288"
           d="m 4.163732,1051.913 c 0.4143743,-0.6339 10.38556,-13.6839 10.484444,-13.7218 0.149657,-0.058 1.641408,0.939 2.095823,1.3999 0.205686,0.2085 1.38694,0.9877 2.625009,1.7316 8.547165,5.1343 17.585849,10.6106 17.706607,10.728 0.124355,0.1203 -1.401237,0.14 -11.320366,0.14 h -11.46409 l 0.287608,-0.368 c 1.944341,-2.4884 6.541884,-8.4363 6.65844,-8.6142 0.178287,-0.2719 0.434706,-0.082 -2.512674,-1.8576 -1.052689,-0.6341 -2.134825,-1.3623 -2.404746,-1.6182 -0.269919,-0.256 -0.723196,-0.6101 -1.007281,-0.787 -0.43558,-0.2717 -0.540618,-0.3022 -0.670333,-0.1944 -0.0846,0.071 -2.429755,3.1228 -5.2114577,6.7835 -3.7127322,4.8861 -5.1095923,6.6559 -5.2530142,6.6559 -0.1917717,0 -0.1920287,0 -0.014002,-0.2774 z m 44.448349,0.1631 c -2.774256,-0.6675 -4.09959,-1.0447 -3.729808,-1.0617 0.05398,0 0.03608,-0.043 -0.0398,-0.092 -0.121933,-0.077 -0.461471,-1.6541 -0.910376,-4.2283 -0.0612,-0.3509 -0.899359,-5.0211 -1.862595,-10.3785 l -1.75134,-9.7405 v -1.8525 -1.8526 l 0.941554,-3.2771 0.941553,-3.2771 0.127649,-2.0122 0.127649,-2.0122 -0.726505,-2.152 c -0.399579,-1.1836 -0.749687,-2.1751 -0.77802,-2.2034 -0.02833,-0.028 -0.21107,0.1087 -0.406085,0.3029 l -0.354573,0.3547 0.640153,1.898 0.640154,1.898 -0.125458,1.9631 -0.125458,1.9631 -0.942069,3.2307 -0.942071,3.2308 v 1.8959 1.8957 l 0.928268,5.1303 c 0.510548,2.8218 1.306343,7.2229 1.768436,9.7804 0.462093,2.5572 0.858289,4.6791 0.880437,4.7149 0.02216,0.036 -0.06074,0.4436 -0.184179,0.9061 -0.123448,0.4624 -0.279367,1.1319 -0.346487,1.4877 -0.101458,0.5377 -0.157581,0.6525 -0.332809,0.6808 -0.11592,0.018 -0.32119,-0.038 -0.45615,-0.1268 -0.271125,-0.1784 -8.264301,-4.8322 -9.402161,-5.4741 -0.393597,-0.2221 -0.8869,-0.4499 -1.096229,-0.5063 -0.209328,-0.056 -0.750179,-0.3335 -1.20189,-0.616 -0.451712,-0.2826 -3.478919,-2.1038 -6.727125,-4.0473 -3.248207,-1.9433 -5.924276,-3.5778 -5.946819,-3.6318 -0.02253,-0.054 0.357074,-0.6283 0.843594,-1.276 2.765372,-3.6815 3.913365,-5.1692 4.439897,-5.7535 0.323904,-0.3594 4.343263,-4.8646 8.931911,-10.0113 4.588646,-5.1466 8.762597,-9.8032 9.275446,-10.3479 0.512848,-0.5448 1.484562,-1.5948 2.159363,-2.3334 0.6748,-0.7385 1.285195,-1.3429 1.356429,-1.3431 0.294456,-10e-5 0.01252,0.4372 -0.939279,1.4572 -0.553337,0.5931 -1.006067,1.1218 -1.006067,1.175 0,0.1203 2.505354,1.9181 2.958107,2.123 0.181508,0.082 1.345896,0.5292 2.58753,0.9934 1.683875,0.6296 2.36975,0.8417 2.699205,0.8348 1.059454,-0.021 6.83657,-0.7699 7.117703,-0.9213 0.161056,-0.087 1.374972,-0.9439 2.697582,-1.9048 l 2.404746,-1.7469 1.030605,-1.6481 c 0.846437,-1.3536 1.036224,-1.6025 1.062047,-1.3938 0.02026,0.1647 -0.08835,0.436 -0.305515,0.7657 -0.185324,0.2811 -0.58975,0.9216 -0.898725,1.4232 -0.308974,0.5016 -0.64695,0.9912 -0.751056,1.0882 -0.253791,0.2366 -4.888304,3.582 -5.164562,3.7282 -0.232531,0.1235 -6.550042,0.8977 -7.29098,0.8939 -0.315057,0 -1.174534,-0.2769 -2.997884,-0.9607 l -2.556198,-0.9587 -1.401896,-1.0062 c -0.969037,-0.6954 -1.456743,-0.9886 -1.579524,-0.9496 -0.0977,0.031 -0.292822,0.2226 -0.433611,0.4257 l -0.255984,0.3695 0.74131,2.204 c 0.833411,2.4779 0.819295,2.3631 0.63206,5.1412 -0.09284,1.3775 -0.128226,1.5386 -1.029849,4.6909 l -0.933709,3.2646 v 1.839 1.8392 l 2.164138,11.9815 c 1.190276,6.5898 2.186694,12.0402 2.214265,12.1122 0.02855,0.074 0.797801,0.329 1.786513,0.5916 0.955014,0.2537 2.111824,0.565 2.570688,0.6922 l 0.8343,0.2309 H 49.59361 c -0.323905,0 -0.765593,-0.046 -0.98153,-0.097 z m -6.299313,-4.5979 0.277118,-1.3238 -1.773854,-9.8023 -1.773854,-9.8022 v -1.8924 -1.8923 l 0.967588,-3.372 0.967587,-3.3718 0.09994,-1.8053 0.09994,-1.8053 -0.560766,-1.6791 c -0.419197,-1.2552 -0.601064,-1.6792 -0.720394,-1.6792 -0.08782,0 -3.545196,3.7972 -7.685887,8.4412 -8.974909,10.066 -8.70228,9.7529 -8.638986,9.9179 0.02771,0.072 0.537567,0.9001 1.133024,1.8397 l 1.082648,1.7084 0.928761,3.9166 c 0.510819,2.1542 0.956396,4.1374 0.990172,4.4074 0.03377,0.2698 0.08416,0.6121 0.111967,0.7607 0.03678,0.1964 0.01071,0.2698 -0.09581,0.2698 -0.211117,0 -6.847935,-3.9357 -6.910129,-4.0978 -0.02866,-0.074 0.149196,-0.4248 0.395243,-0.7783 0.246037,-0.3534 0.427032,-0.6955 0.40221,-0.7603 -0.02482,-0.064 -0.594251,-0.4858 -1.265397,-0.936 -0.977289,-0.6554 -1.247828,-0.7956 -1.358669,-0.7035 -0.312046,0.2589 -1.25967,1.5924 -1.214783,1.7094 0.07009,0.1827 13.099655,7.9642 13.566714,8.1024 0.215936,0.064 2.64522,1.4367 5.398408,3.0509 2.753187,1.6142 5.072006,2.9273 5.152931,2.9179 0.106762,-0.016 0.223181,-0.3804 0.424252,-1.3407 z m 1.048135,2.6513 c 0,-0.059 -0.05522,-0.077 -0.122691,-0.04 -0.06747,0.04 -0.08994,0.035 -0.04993,-0.016 0.04003,-0.044 0.03239,-0.1285 -0.01697,-0.1885 -0.111308,-0.1334 0.0086,-0.7656 0.154533,-0.8144 0.192383,-0.064 0.31942,0.9857 0.1332,1.1007 -0.05398,0.033 -0.09815,0.016 -0.09815,-0.049 z m -42.50019086,-3.26 c 0,-0.1433 0.044164,-0.2891 0.098146,-0.3226 0.0539819,-0.033 0.0981459,-0.1054 0.0981459,-0.1581 0,-0.054 -0.044164,-0.071 -0.0981459,-0.038 -0.0638328,0.04 -0.098146,-0.4734 -0.098146,-1.4664 0,-0.84 0.0297667,-1.5272 0.0661554,-1.5272 0.0363888,0 0.39347006,0.2687 0.79351786,0.597 0.4000493,0.3283 0.7526071,0.5717 0.7834643,0.5408 0.3110047,-0.311 6.8853537,-9.0641 6.8629456,-9.1373 -0.016522,-0.054 -1.9261037,-1.1658 -4.2435227,-2.4704 -3.7154931,-2.0919 -4.63179224,-2.6826 -4.16079709,-2.6826 0.24113629,0 8.92827389,4.9598 8.92828539,5.0977 6.6e-6,0.077 -0.082958,0.2319 -0.1843507,0.3435 -0.1013911,0.112 -2.0275639,2.6318 -4.280371,5.6009 -2.2528055,2.9691 -4.2016072,5.5079 -4.3306696,5.6415 l -0.2346608,0.2433 z m 5.94630556,-18.3867 c -3.0726586,-1.9632 -5.6533322,-3.636 -5.7348289,-3.7176 -0.13212966,-0.1318 -0.131619,-0.1548 0.00478,-0.2069 0.097899,-0.038 2.1503633,1.2149 5.7036439,3.4803 3.0528959,1.9464 5.6089213,3.5143 5.6800563,3.4842 0.111374,-0.048 1.235216,-1.5663 5.142286,-6.95 2.878057,-3.9657 7.074831,-9.6653 7.246993,-9.8419 0.113005,-0.1153 0.857382,-1.3798 1.654162,-2.8087 1.417868,-2.5427 1.466583,-2.65 2.289962,-5.0403 l 0.841272,-2.4425 -0.01235,-5.00528 c -0.01021,-4.13686 -0.03637,-5.03925 -0.150909,-5.202 -0.0762,-0.10873 -0.328188,-0.46899 -0.559949,-0.80174 -0.231762,-0.33259 -0.907243,-1.23399 -1.501067,-2.00295 -0.593826,-0.76896 -1.338661,-1.75437 -1.655192,-2.18975 -0.316532,-0.43555 -0.647796,-0.84688 -0.736148,-0.91409 -0.140843,-0.10707 -0.128176,-0.1219 0.102858,-0.12519 0.219624,0 0.392814,0.16473 1.040348,1.00304 0.427275,0.55332 0.834916,1.11637 0.905874,1.25145 0.07095,0.13508 0.375751,0.54723 0.677325,0.91639 0.301574,0.36916 0.636654,0.8108 0.744623,0.98146 0.434167,0.68659 5.859462,7.85286 6.274401,8.28786 l 0.212948,0.2232 1.534086,-1.99007 1.534088,-1.98994 -0.240307,-0.25302 c -0.293438,-0.30887 -2.274458,-2.86778 -4.667227,-6.02878 -1.444911,-1.90872 -1.74814,-2.36239 -1.598501,-2.39154 0.101572,-0.0198 0.229939,0.0395 0.285267,0.13178 0.15114,0.25138 6.0643,8.02563 6.335265,8.32923 0.08581,0.0955 1.749735,-1.81747 6.062207,-6.97186 0.711744,-0.85066 1.322044,-1.4941 1.419988,-1.4969 0.361876,-0.0165 0.641966,-0.36158 -4.928327,6.17868 -2.758299,3.23859 -5.857965,7.18502 -8.730917,11.11582 -0.937064,1.2822 -1.744543,2.331 -1.794394,2.331 -0.04985,0 -0.0662,0.04 -0.03632,0.087 0.02987,0.048 -0.0145,0.1137 -0.09859,0.1467 -0.08922,0.034 -0.1233,0.1103 -0.08185,0.182 0.03907,0.067 0.03489,0.091 -0.0092,0.051 -0.04418,-0.039 -0.139592,-0.023 -0.212042,0.036 -0.07245,0.059 -0.131718,0.076 -0.131718,0.035 0,-0.041 0.287098,-0.9017 0.637995,-1.9115 l 0.637993,-1.8358 v -4.1701 -4.16996 l -0.398013,-0.5558 c -0.218909,-0.30573 -0.439751,-0.55579 -0.490766,-0.55579 -0.05693,0 -0.09274,1.80296 -0.09274,4.66909 v 4.66896 l -0.826602,2.4347 c -0.72625,2.139 -0.936671,2.6356 -1.733268,4.091 -0.498666,0.911 -1.082254,1.9435 -1.296859,2.2944 -0.214607,0.351 -0.391627,0.6913 -0.393375,0.7566 -0.0016,0.066 -0.06489,0.1416 -0.140283,0.171 -0.0754,0.028 -0.105378,0.1037 -0.06663,0.1665 0.03874,0.063 0.0283,0.087 -0.02321,0.056 -0.05153,-0.031 -0.149937,0.033 -0.218717,0.1417 -0.102692,0.1647 -0.101819,0.1878 0.0049,0.1301 0.07146,-0.038 -0.0026,0.048 -0.164515,0.1931 -0.161946,0.1449 -0.228207,0.2331 -0.147236,0.1963 0.08098,-0.036 0.01466,0.051 -0.147235,0.1964 -0.161946,0.145 -0.228205,0.2286 -0.147235,0.1863 0.08098,-0.043 -0.01911,0.1417 -0.222415,0.4098 -0.203303,0.2681 -2.888815,3.9323 -5.967803,8.1431 -6.086985,8.3245 -5.847611,8.0033 -5.955239,7.9909 -0.04102,0 -2.5885706,-1.6148 -5.6612308,-3.5781 z m 25.3704673,-23.8497 c 0.707509,-0.9704 1.540092,-2.0953 1.850186,-2.5002 0.310094,-0.4049 0.588578,-0.8042 0.618853,-0.8876 0.03476,-0.096 -0.393201,-0.7469 -1.160601,-1.76671 -0.668607,-0.88855 -1.248921,-1.66014 -1.289587,-1.7145 -0.387627,-0.52006 -0.840449,-1.02973 -0.914808,-1.02973 -0.05515,0 -0.09157,1.57366 -0.09157,3.95684 v 3.9568 l -0.294459,0.8711 c -0.161946,0.4792 -0.29446,0.9091 -0.29446,0.9557 0,0.2374 0.407463,-0.2387 1.576455,-1.8417 z m -5.401696,13.425 c 0.0015,-0.041 0.299637,-0.4794 0.662533,-0.9752 10.300848,-14.0771 14.39738,-19.47037 14.916514,-19.63806 0.290903,-0.0939 0.07726,0.33111 -0.515302,1.02561 -0.350897,0.41116 -0.637507,0.81837 -0.636911,0.90453 5.88e-4,0.0857 0.217608,0.3998 0.482248,0.69662 l 0.481165,0.5398 0.380727,-0.368 c 0.360364,-0.34837 0.617835,-0.46764 0.617835,-0.2861 0,0.1647 -0.703023,0.979 -0.886789,1.0271 -0.142409,0.036 -0.315099,-0.1054 -0.698919,-0.5789 -0.280378,-0.3456 -0.565378,-0.62825 -0.633334,-0.62825 -0.112675,0 -3.473825,4.24355 -3.473825,4.38595 0,0.1631 0.520804,0.7169 0.667527,0.7103 0.09172,0 0.873473,-0.777 1.737218,-1.7173 1.158622,-1.2612 1.629638,-1.7097 1.796167,-1.7101 0.164748,-3e-4 0.204518,0.036 0.147235,0.1351 -0.04318,0.074 -1.141977,1.2783 -2.44179,2.6746 -1.963538,2.1092 -7.582012,8.3657 -11.518394,12.8264 -0.845487,0.9581 -1.091448,1.1795 -1.0839,0.9752 z m 7.492944,-8.7111 c 1.300607,-1.4575 2.641686,-2.9465 2.980175,-3.3087 0.338488,-0.3622 0.615435,-0.7184 0.615435,-0.7914 0,-0.072 -0.134107,-0.2612 -0.298029,-0.4184 -0.370939,-0.3553 -0.451715,-0.313 -1.150486,0.6029 -0.979482,1.2841 -4.9806,6.8126 -5.018501,6.9345 -0.07475,0.2401 0.540815,-0.4071 2.871406,-3.0189 z m 14.51894,-0.436 c -2.475543,-0.9625 -2.359976,-1.0289 0.266097,-0.1532 1.375001,0.4588 1.725872,0.6428 1.354787,0.7101 -0.07034,0.017 -0.79973,-0.2382 -1.620884,-0.5574 z m -0.333896,-3.7759 c -2.204314,-0.7647 -3.002508,-1.0854 -3.303605,-1.3274 -0.451319,-0.3627 -0.562601,-0.6288 -0.33974,-0.8125 0.08431,-0.069 0.909967,-0.9707 1.834814,-2.0031 1.163216,-1.29821 2.133953,-2.26418 3.149251,-3.13379 0.807242,-0.69137 1.795837,-1.5473 2.196878,-1.90213 0.401043,-0.35467 0.754393,-0.64541 0.785224,-0.64607 0.03082,-6.6e-4 0.188563,-0.0527 0.350515,-0.11531 0.161946,-0.0626 0.858435,-0.23161 1.547739,-0.37443 l 1.253284,-0.25962 1.361072,0.4535 c 0.74859,0.24957 1.427693,0.52895 1.509119,0.62103 0.08143,0.0923 0.600046,0.97982 1.152488,1.97281 l 1.004443,1.8056 -0.267857,1.58071 c -0.307229,1.8132 -0.371622,2.0224 -0.622133,2.0224 -0.100172,0 -1.103936,0.5743 -2.230579,1.276 -1.126642,0.7018 -2.078356,1.276 -2.11492,1.276 -0.03657,0 -0.982416,0.1318 -2.101892,0.2946 -1.119475,0.1614 -2.085385,0.2912 -2.146464,0.2876 -0.06108,0 -1.419014,-0.4608 -3.017637,-1.0153 z m 5.197652,0.4311 c 1.098134,-0.1631 2.091932,-0.3458 2.20844,-0.4077 0.116514,-0.061 1.028953,-0.6196 2.02766,-1.2393 0.998703,-0.6199 1.905769,-1.1818 2.0157,-1.2488 0.16445,-0.1005 0.248431,-0.3934 0.473881,-1.6531 l 0.274007,-1.53113 -0.942,-1.70314 c -0.518102,-0.93698 -0.996361,-1.77661 -1.0628,-1.86639 -0.06644,-0.089 -0.69499,-0.36603 -1.396783,-0.61427 l -1.275986,-0.45153 -0.785224,0.16572 c -1.68301,0.35516 -2.123998,0.46948 -2.237678,0.58001 -0.06489,0.0626 -1.078476,0.93863 -2.252402,1.94563 -1.691988,1.45159 -2.475278,2.211 -3.778885,3.6637 -0.904461,1.008 -1.684097,1.9017 -1.732524,1.9859 -0.194281,0.3377 0.40588,0.6421 3.03852,1.5413 1.400349,0.4784 2.70068,0.9252 2.889625,0.9927 0.456028,0.1631 0.277572,0.1745 2.536449,-0.1598 z m -27.678109,-1.4053 c -1.114664,-0.7723 -2.195585,-1.5396 -2.402049,-1.7051 l -0.37539,-0.3012 0.423356,-0.6035 c 0.355857,-0.5074 0.403345,-0.6277 0.297844,-0.7548 -0.06902,-0.082 -0.827916,-0.6626 -1.686412,-1.2874 -0.858494,-0.62498 -1.585246,-1.19972 -1.615007,-1.27731 -0.05285,-0.13837 1.362437,-1.53907 2.245993,-2.22385 0.21569,-0.16704 1.100457,-0.96647 1.966147,-1.77628 0.865693,-0.80965 1.6428,-1.47219 1.726908,-1.47219 0.159277,0 0.185883,0.0692 0.864821,2.25745 0.201006,0.64789 0.557388,1.77299 0.791955,2.50027 l 0.426488,1.32245 v 2.10216 c 0,1.6718 -0.04128,2.3437 -0.20173,3.2842 -0.203492,1.1926 -0.245004,1.3437 -0.368444,1.3407 -0.03729,-8e-4 -0.979819,-0.6335 -2.09448,-1.4056 z m 36.09988,0.1103 -0.06307,-0.5187 0.496355,-0.4308 c 0.527145,-0.4577 0.77555,-0.8888 1.61802,-2.8083 0.6984,-1.5911 0.731878,-1.62339 0.731878,-0.70403 v 0.76273 l -0.757775,1.2466 c -0.416775,0.6858 -0.983664,1.6197 -1.259751,2.0756 -0.276087,0.456 -0.547113,0.8439 -0.602281,0.8624 -0.05517,0.018 -0.128687,-0.2001 -0.163379,-0.4855 z m -0.749553,-1.3776 c 3.94e-4,-0.067 0.132591,-0.8292 0.29369,-1.6931 0.161106,-0.8637 0.293265,-1.67331 0.293688,-1.799 3.94e-4,-0.1252 -0.467923,-1.07536 -1.040772,-2.11019 -1.588416,-2.86975 -1.220764,-2.50768 -3.21723,-3.1694 -1.712716,-0.56782 -1.716134,-0.56848 -2.232532,-0.4362 -0.382883,0.0988 -0.526967,0.10378 -0.55483,0.0198 -0.02071,-0.0626 -0.08907,-0.084 -0.151946,-0.0478 -0.0656,0.0379 -0.07945,0.028 -0.03252,-0.0231 0.04499,-0.0494 0.111242,-0.0906 0.147236,-0.0906 0.03599,-6.6e-4 0.178369,-0.11531 0.316399,-0.25533 0.195468,-0.19784 1.269868,-0.59352 4.858579,-1.78979 2.534187,-0.84473 4.666058,-1.53594 4.737489,-1.53594 0.07143,0 0.115262,0.0758 0.09742,0.16868 -0.02478,0.12849 -1.008746,0.48826 -4.154157,1.51832 -2.26693,0.74244 -4.221915,1.40333 -4.344408,1.46856 -0.300474,0.15979 -0.252346,0.18434 1.54778,0.78033 0.878332,0.29075 1.611174,0.5922 1.73384,0.71311 0.272136,0.26851 2.483573,4.2469 2.553443,4.59382 0.02899,0.14332 -0.04797,0.81743 -0.171035,1.49643 -0.373288,2.0595 -0.15394,1.855 1.173574,-1.09432 0.646149,-1.43546 1.070318,-2.52712 1.23932,-3.18983 0.437315,-1.71484 0.418373,-1.66822 0.429444,-1.05674 0.01581,0.86961 -0.401436,2.15796 -1.46204,4.51507 -0.832565,1.85042 -1.06773,2.28402 -1.450149,2.67472 -0.46787,0.4779 -0.611628,0.5588 -0.610277,0.3435 z m -17.23238,-4.12647 c -0.121422,-0.31662 1.725443,-2.1405 5.263835,-5.19871 1.85867,-1.60644 3.633895,-3.11636 3.944942,-3.35538 0.498788,-0.38316 0.853982,-0.52779 3.009145,-1.22608 1.618654,-0.52434 2.587487,-0.78906 2.869809,-0.78395 0.234412,0 0.359953,0.0297 0.278977,0.056 -0.08098,0.0263 -0.235567,0.0906 -0.343536,0.14002 -0.107964,0.0511 -1.320149,0.46651 -2.693734,0.92413 -1.889848,0.6296 -2.594274,0.90898 -2.89551,1.14833 -1.910912,1.51865 -6.923769,5.94048 -8.023761,7.07778 -1.079253,1.11588 -1.356948,1.35539 -1.410167,1.21686 z m -1.023774,-2.15516 c 0.0011,-0.13014 6.728246,-8.04277 7.034675,-8.27504 0.09818,-0.0741 0.255305,-0.13672 0.349161,-0.13837 0.106942,0 -1.191867,1.59096 -3.478999,4.2665 -2.007304,2.34839 -3.7073,4.26963 -3.777766,4.26963 -0.07047,0 -0.127649,-0.0544 -0.127072,-0.1219 z m -1.209556,-1.31488 c -0.03711,-0.0362 -0.06747,-0.19257 -0.06747,-0.3456 0,-0.21547 0.04558,-0.27806 0.202525,-0.27806 0.168507,0 0.197358,0.0527 0.171767,0.31134 -0.03001,0.30392 -0.171335,0.44773 -0.306812,0.31232 z"
           id="path1010"
           inkscape:connector-curvature="0" />
        <path
           style="fill:#e6da97;stroke-width:0.09815288"
           d="m 16.729921,1049.0741 c 4.673368,-6.0227 4.676469,-6.0265 4.835631,-5.9842 0.138257,0.036 14.389326,8.6263 14.864995,8.9593 0.175734,0.1236 -1.224994,0.1417 -10.95866,0.1417 H 14.31174 Z m 28.107866,1.8431 c -0.116711,-0.072 -0.464967,-1.696 -0.90569,-4.2233 -0.0612,-0.3509 -0.89936,-5.0211 -1.862596,-10.3785 l -1.751337,-9.7405 v -1.8525 -1.8526 l 0.941554,-3.2771 0.941554,-3.2771 0.127649,-2.0122 0.127649,-2.0122 -0.735065,-2.1592 c -0.404285,-1.1877 -0.74188,-2.2257 -0.75021,-2.3068 -0.0084,-0.081 0.04729,-0.1466 0.123629,-0.1466 0.09339,0 0.376085,0.7061 0.864517,2.1593 0.81581,2.4273 0.803492,2.3255 0.616739,5.0966 -0.09284,1.3775 -0.128225,1.5386 -1.029849,4.6908 l -0.933709,3.2646 v 1.8391 1.8392 l 2.167125,11.9981 c 1.19192,6.5989 2.207921,12.0742 2.257782,12.1672 0.105904,0.1981 -0.0079,0.303 -0.199743,0.1842 z m -1.601662,-0.9597 c -0.112658,-0.1252 -0.136313,-0.2641 -0.0863,-0.508 0.09004,-0.4394 0.266874,-0.4891 0.345277,-0.097 0.143233,0.7161 0.04624,0.9427 -0.258971,0.605 z m -1.400413,-0.8159 c -0.03547,-0.058 0.0012,-0.1789 0.08143,-0.27 0.08026,-0.091 0.264307,-0.7398 0.409009,-1.4415 l 0.263091,-1.276 -1.773534,-9.8023 -1.773534,-9.8022 v -1.8924 -1.8923 l 0.967588,-3.372 0.967587,-3.3719 0.09999,-1.8061 0.100007,-1.8062 -0.524687,-1.5801 c -0.288576,-0.8689 -0.574101,-1.6629 -0.634497,-1.7643 -0.0846,-0.1416 -0.07754,-0.2164 0.03079,-0.3248 0.122031,-0.1219 0.221261,0.094 0.751406,1.6364 0.335942,0.9774 0.618847,1.8743 0.628678,1.9934 0.0099,0.1186 -0.01962,0.9894 -0.06543,1.9341 l -0.0833,1.7176 -0.971831,3.3816 -0.971833,3.3816 v 1.8922 1.8923 l 0.928269,5.1303 c 0.510548,2.8218 1.306344,7.2229 1.768436,9.7804 0.462093,2.5572 0.858289,4.6791 0.880437,4.7149 0.02216,0.036 -0.06074,0.4436 -0.184179,0.9061 -0.123449,0.4624 -0.279835,1.1344 -0.347527,1.4931 -0.09839,0.5216 -0.159047,0.6524 -0.302477,0.6524 -0.09867,0 -0.208418,-0.046 -0.243882,-0.1038 z m -40.97499986,-4.2439 c 0,-0.8476 0.0237046,-1.5411 0.0526641,-1.5411 0.13657736,0 1.32147146,1.0332 1.32147146,1.1521 0,0.1088 -0.9304559,1.432 -1.29105577,1.8368 -0.0457784,0.051 -0.0830897,-0.5988 -0.0830897,-1.4478 z m 23.35957586,-6.5833 c -1.862008,-1.0999 -3.397908,-2.0619 -3.413111,-2.1382 -0.01516,-0.076 0.171337,-0.4021 0.414534,-0.7241 0.243199,-0.3221 0.443354,-0.6384 0.444792,-0.7026 0.0014,-0.064 -0.570398,-0.5061 -1.270746,-0.9816 -0.70035,-0.4754 -1.274545,-0.8986 -1.275988,-0.9405 -0.0038,-0.1087 3.088227,-4.1464 3.696608,-4.8272 0.305747,-0.3422 0.563468,-0.5492 0.6449,-0.5179 0.102017,0.04 1.83302,2.6908 2.26562,3.4705 0.117255,0.2115 1.920325,7.9416 2.006125,8.6009 0.08134,0.6248 0.06902,0.7602 -0.0692,0.7602 -0.03193,0 -1.581522,-0.8998 -3.443531,-1.9995 z m 0.355623,-23.0541 c 0.08996,-0.1754 0.281701,-0.4956 0.426103,-0.7114 0.144402,-0.216 0.867088,-1.479 1.605965,-2.8069 1.296328,-2.3296 1.372923,-2.4997 2.185375,-4.8585 l 0.841961,-2.4444 -0.01235,-5.00531 c -0.01021,-4.13686 -0.03637,-5.03925 -0.150892,-5.202 -0.07622,-0.10872 -0.328188,-0.46899 -0.559951,-0.80174 -0.231761,-0.33259 -0.907242,-1.23399 -1.501066,-2.00295 -0.593824,-0.76896 -1.338661,-1.75437 -1.655193,-2.18975 -0.316529,-0.43555 -0.647796,-0.84688 -0.736145,-0.91409 -0.140844,-0.10707 -0.128177,-0.1219 0.102857,-0.12519 0.219624,0 0.392814,0.16473 1.040349,1.00304 0.427274,0.55332 0.834916,1.11637 0.905873,1.25145 0.07095,0.13508 0.375753,0.54723 0.677327,0.91639 0.301574,0.36916 0.636654,0.8108 0.744621,0.98146 0.289686,0.45811 1.378056,1.9107 3.968759,5.29655 2.776599,3.62884 2.529564,3.27784 2.398614,3.40874 -0.09629,0.096 -0.530379,-0.4405 -2.661587,-3.29178 -0.393475,-0.52647 -0.840639,-1.02972 -0.914999,-1.02972 -0.05517,0 -0.09159,1.57366 -0.09159,3.9568 v 3.9568 l -0.294458,0.8711 c -0.161946,0.4792 -0.294459,0.9495 -0.294459,1.0454 0,0.4813 -0.786851,1.9793 -0.95262,1.8136 -0.02466,-0.025 0.245859,-0.8813 0.60113,-1.9036 l 0.645949,-1.8588 v -4.1701 -4.16998 l -0.398013,-0.55579 c -0.218908,-0.30574 -0.439753,-0.5558 -0.490766,-0.5558 -0.05693,0 -0.09274,1.80296 -0.09274,4.6691 v 4.66907 l -0.8266,2.4346 c -0.726279,2.1389 -0.936647,2.6356 -1.733295,4.091 -1.155557,2.1112 -1.664142,2.9544 -2.316195,3.8403 -0.563993,0.7664 -0.72274,0.9013 -0.461959,0.3926 z m 22.854114,-5.5522 -2.556198,-0.9587 -1.418993,-1.0148 c -0.780447,-0.558 -1.43845,-1.0321 -1.462228,-1.0532 -0.02377,-0.021 0.03143,-0.1137 0.12269,-0.2044 0.09126,-0.091 0.165926,-0.117 0.165926,-0.056 0,0.1301 2.47836,1.9185 2.958107,2.1356 0.181508,0.082 1.345896,0.5293 2.58753,0.9935 1.683875,0.6296 2.36975,0.8416 2.699205,0.8349 1.059454,-0.021 6.83657,-0.7701 7.117703,-0.9215 0.161056,-0.087 1.374972,-0.9438 2.697582,-1.9048 l 2.404746,-1.7469 1.030605,-1.648 c 0.846437,-1.3535 1.036224,-1.6026 1.062047,-1.3937 0.02026,0.163 -0.08835,0.436 -0.305515,0.7655 -0.185324,0.2811 -0.58975,0.9218 -0.898725,1.4232 -0.308974,0.5016 -0.64695,0.9914 -0.751056,1.0884 -0.253791,0.2364 -4.888304,3.5818 -5.164562,3.7281 -0.232531,0.1236 -6.550042,0.8976 -7.29098,0.894 -0.315057,0 -1.174534,-0.2771 -2.997884,-0.9609 z m 1.357648,-0.7974 c -2.475543,-0.9626 -2.359976,-1.0289 0.266097,-0.1532 1.375001,0.4587 1.725872,0.6427 1.354787,0.7101 -0.07034,0.017 -0.79973,-0.2382 -1.620884,-0.5574 z m -0.333896,-3.7759 c -2.235815,-0.7756 -3.000294,-1.0836 -3.312658,-1.3347 -0.223341,-0.1795 -0.406075,-0.3825 -0.406075,-0.4513 0,-0.2592 0.198112,-0.231 0.462408,0.066 0.150562,0.1691 0.356545,0.3517 0.457757,0.4061 0.10121,0.054 1.469755,0.5382 3.041213,1.0755 l 2.857196,0.9769 2.04599,-0.3007 c 1.125295,-0.1652 2.141864,-0.3513 2.259041,-0.4136 0.117172,-0.063 1.030173,-0.6202 2.02888,-1.2399 0.998703,-0.6197 1.905769,-1.1818 2.0157,-1.2488 0.164466,-0.1005 0.248454,-0.3934 0.474107,-1.6544 l 0.274234,-1.53233 -1.012467,-1.82521 c -0.556855,-1.00386 -1.079386,-1.86012 -1.161176,-1.90262 -0.08179,-0.0428 -0.687131,-0.26439 -1.345199,-0.49304 l -1.19649,-0.41561 -1.389653,0.30738 c -0.764311,0.16902 -1.470755,0.35071 -1.569877,0.40376 -0.304749,0.16308 -0.436786,0.11531 -0.250322,-0.0906 0.233949,-0.25846 0.505806,-0.34889 1.948467,-0.64771 l 1.253284,-0.25962 1.361072,0.4535 c 0.74859,0.24957 1.427693,0.52895 1.509119,0.62104 0.08143,0.0922 0.600046,0.97981 1.152488,1.9728 l 1.004443,1.8056 -0.267857,1.58076 c -0.307229,1.8132 -0.371622,2.0224 -0.622133,2.0224 -0.100172,0 -1.103936,0.5742 -2.230579,1.276 -1.126642,0.7017 -2.078356,1.276 -2.11492,1.276 -0.03657,0 -0.982416,0.1317 -2.101892,0.2943 -1.119475,0.1615 -2.085385,0.2916 -2.146464,0.2876 -0.06108,0 -1.419014,-0.4605 -3.017637,-1.015 z m -22.735289,-1.1737 c -1.254819,-0.8756 -2.331014,-1.6414 -2.391546,-1.702 -0.08131,-0.081 -0.0044,-0.2573 0.293896,-0.6741 0.222172,-0.3104 0.402843,-0.6121 0.401487,-0.6708 -0.0014,-0.059 -0.774307,-0.6759 -1.717674,-1.37153 -0.943366,-0.69565 -1.711377,-1.31388 -1.706689,-1.37417 0.01038,-0.13343 2.176218,-2.12222 2.694604,-2.47408 0.20538,-0.14002 1.008742,-0.85676 1.78525,-1.59442 0.776508,-0.73766 1.461731,-1.34106 1.522718,-1.34106 0.100733,0 1.150025,3.15787 1.15286,3.46954 6.85e-4,0.0725 0.06441,0.27163 0.141651,0.44164 0.07724,0.17016 0.276006,0.74046 0.441688,1.26743 0.297675,0.94686 0.301177,0.98294 0.296021,3.04285 -0.0043,1.6944 -0.04558,2.3127 -0.220845,3.3039 -0.118589,0.6704 -0.259794,1.2303 -0.313777,1.2438 -0.05398,0.016 -1.124824,-0.6915 -2.379644,-1.567 z m 11.857667,0.8771 c -0.23321,-0.2406 -0.306847,-0.3881 -0.25733,-0.5152 0.06031,-0.1549 0.108096,-0.1302 0.36604,0.1897 0.163164,0.2025 0.364047,0.368 0.446399,0.368 0.121966,0 0.127073,0.026 0.02754,0.1466 -0.17038,0.2053 -0.213188,0.1915 -0.582647,-0.1897 z m 24.497045,-0.5675 -0.06307,-0.5187 0.496355,-0.4308 c 0.527145,-0.4577 0.77555,-0.8888 1.61802,-2.8083 0.6984,-1.59109 0.731878,-1.62338 0.731878,-0.70402 v 0.76272 l -0.757775,1.2466 c -0.416775,0.6858 -0.983664,1.6197 -1.259751,2.0756 -0.276087,0.456 -0.547113,0.844 -0.602281,0.8624 -0.05517,0.018 -0.128687,-0.2001 -0.163379,-0.4855 z m -0.749553,-1.3776 c 3.94e-4,-0.067 0.132591,-0.8292 0.29369,-1.6931 0.161106,-0.8637 0.293265,-1.67331 0.293688,-1.799 3.94e-4,-0.12519 -0.467923,-1.07535 -1.040772,-2.11018 -1.588416,-2.86976 -1.220764,-2.50768 -3.21723,-3.1694 -1.699019,-0.56338 -1.720131,-0.5675 -2.218512,-0.43983 -0.579326,0.14826 -0.738902,0.0741 -0.41095,-0.19191 0.368114,-0.29833 0.840741,-0.33852 1.36902,-0.11696 0.255388,0.10708 1.038536,0.38267 1.740329,0.61148 0.715153,0.23326 1.369374,0.50819 1.488457,0.62564 0.272145,0.26851 2.483577,4.2469 2.553443,4.59382 0.02901,0.14331 -0.04797,0.81734 -0.171035,1.49644 -0.373286,2.0594 -0.15394,1.855 1.173574,-1.09434 0.64615,-1.43529 1.070319,-2.52711 1.239322,-3.18982 0.437315,-1.71484 0.418371,-1.66822 0.429442,-1.05658 0.01581,0.86945 -0.401434,2.1578 -1.46204,4.51491 -0.832565,1.85043 -1.067729,2.28413 -1.450149,2.67473 -0.467868,0.4779 -0.611626,0.5588 -0.610277,0.3435 z m -19.598866,-2.3123 c -0.205854,-0.2532 -0.476095,-0.5639 -0.600533,-0.69022 -0.176017,-0.17889 -0.201308,-0.25994 -0.113911,-0.36537 0.09129,-0.11037 0.19417,-0.0346 0.548959,0.40062 0.240134,0.29487 0.522888,0.58217 0.628341,0.63867 0.224519,0.1202 0.252061,0.3459 0.05158,0.423 -0.08709,0.033 -0.281851,-0.1202 -0.514437,-0.4067 z m -4.296473,-4.41113 c -0.773096,-0.95725 -2.251119,-2.87635 -4.289882,-5.57017 -1.444713,-1.90889 -1.74784,-2.36239 -1.598195,-2.39155 0.101573,-0.0198 0.22994,0.0395 0.285268,0.13179 0.120137,0.19981 3.221113,4.28939 4.98801,6.57831 0.690669,0.89465 1.28063,1.69145 1.311028,1.77068 0.131223,0.34198 -0.201277,0.0939 -0.696229,-0.51857 z"
           id="path1008"
           inkscape:connector-curvature="0" />
        <path
           style="fill:#beeea7;stroke-width:0.09815288"
           d="m 16.729921,1049.0741 c 4.673368,-6.0227 4.676469,-6.0265 4.835631,-5.9842 0.138257,0.036 14.389326,8.6263 14.864995,8.9593 0.175734,0.1236 -1.224994,0.1417 -10.95866,0.1417 H 14.31174 Z m -15.86920886,-4.1764 c 0,-0.8476 0.0237046,-1.5411 0.0526641,-1.5411 0.13657736,0 1.32147146,1.0332 1.32147146,1.1521 0,0.1088 -0.9304559,1.432 -1.29105577,1.8368 -0.0457784,0.051 -0.0830897,-0.5988 -0.0830897,-1.4478 z m 23.35957586,-6.5833 c -1.862008,-1.0999 -3.397908,-2.0619 -3.413111,-2.1382 -0.01516,-0.076 0.171337,-0.4021 0.414534,-0.7241 0.243199,-0.3221 0.443354,-0.6384 0.444792,-0.7026 0.0014,-0.064 -0.570398,-0.5061 -1.270746,-0.9816 -0.70035,-0.4754 -1.274545,-0.8986 -1.275988,-0.9405 -0.0038,-0.1087 3.088227,-4.1464 3.696608,-4.8272 0.305747,-0.3422 0.563468,-0.5492 0.6449,-0.5179 0.102017,0.04 1.83302,2.6908 2.26562,3.4705 0.117255,0.2115 1.920325,7.9416 2.006125,8.6009 0.08134,0.6248 0.06902,0.7602 -0.0692,0.7602 -0.03193,0 -1.581522,-0.8998 -3.443531,-1.9995 z m 1.4982,-34.3533 c -1.254819,-0.8756 -2.331014,-1.6414 -2.391546,-1.702 -0.08131,-0.081 -0.0044,-0.2573 0.293896,-0.6741 0.222172,-0.3104 0.402843,-0.6121 0.401487,-0.6708 -0.0014,-0.059 -0.774307,-0.6759 -1.717674,-1.37153 -0.943366,-0.69565 -1.711377,-1.31388 -1.706689,-1.37417 0.01038,-0.13343 2.176218,-2.12222 2.694604,-2.47408 0.20538,-0.14002 1.008742,-0.85676 1.78525,-1.59442 0.776508,-0.73766 1.461731,-1.34106 1.522718,-1.34106 0.100733,0 1.150025,3.15787 1.15286,3.46954 6.87e-4,0.0725 0.06441,0.27163 0.141651,0.44164 0.07724,0.17016 0.276006,0.74046 0.441688,1.26743 0.297675,0.94686 0.301177,0.98294 0.296021,3.04285 -0.0043,1.6944 -0.04558,2.3127 -0.220845,3.3039 -0.118589,0.6704 -0.259794,1.2303 -0.313777,1.2438 -0.05398,0.016 -1.124824,-0.6915 -2.379644,-1.567 z"
           id="path1006"
           inkscape:connector-curvature="0" />
      </g>
    </g>
  </g>
</svg>
