<?xml version="1.0" encoding="UTF-8" standalone="no"?>
<!-- Created with Inkscape (http://www.inkscape.org/) -->

<svg
   xmlns:dc="http://purl.org/dc/elements/1.1/"
   xmlns:cc="http://creativecommons.org/ns#"
   xmlns:rdf="http://www.w3.org/1999/02/22-rdf-syntax-ns#"
   xmlns:svg="http://www.w3.org/2000/svg"
   xmlns="http://www.w3.org/2000/svg"
   xmlns:sodipodi="http://sodipodi.sourceforge.net/DTD/sodipodi-0.dtd"
   xmlns:inkscape="http://www.inkscape.org/namespaces/inkscape"
   width="64"
   height="64"
   id="svg1901"
   sodipodi:version="0.32"
   inkscape:version="0.92.4 5da689c313, 2019-01-14"
   sodipodi:docname="map-standard.svg"
   version="1.1"
   inkscape:export-xdpi="168"
   inkscape:export-ydpi="168"
   inkscape:export-filename="/home/mo/Dokumente/Pure Maps/map-views/map-standard.png">
  <defs
     id="defs1903" />
  <sodipodi:namedview
     id="base"
     pagecolor="#b0b0b0"
     bordercolor="#666666"
     borderopacity="1.0"
     inkscape:pageopacity="0"
     inkscape:pageshadow="2"
     inkscape:zoom="11.950194"
     inkscape:cx="43.945838"
     inkscape:cy="32.410055"
     inkscape:document-units="px"
     inkscape:current-layer="g1004"
     inkscape:window-width="2880"
     inkscape:window-height="1506"
     inkscape:window-x="0"
     inkscape:window-y="0"
     showgrid="true"
     inkscape:window-maximized="1"
     inkscape:showpageshadow="false"
     showguides="true"
     inkscape:snap-grids="true"
     inkscape:snap-global="true"
     inkscape:snap-intersection-paths="true"
     inkscape:object-nodes="true"
     inkscape:snap-smooth-nodes="true"
     inkscape:snap-midpoints="true"
     inkscape:object-paths="true"
     inkscape:document-rotation="0"
     inkscape:guide-bbox="true">
    <inkscape:grid
       type="xygrid"
       id="grid10137"
       empspacing="16"
       visible="true"
       enabled="true"
       snapvisiblegridlinesonly="true" />
    <sodipodi:guide
       position="10,35"
       orientation="1,0"
       id="guide866"
       inkscape:locked="false" />
    <sodipodi:guide
       position="5,38"
       orientation="1,0"
       id="guide868"
       inkscape:locked="false" />
    <sodipodi:guide
       position="3,10"
       orientation="0,1"
       id="guide891"
       inkscape:locked="false" />
  </sodipodi:namedview>
  <metadata
     id="metadata1906">
    <rdf:RDF>
      <cc:Work
         rdf:about="">
        <dc:format>image/svg+xml</dc:format>
        <dc:type
           rdf:resource="http://purl.org/dc/dcmitype/StillImage" />
        <dc:title></dc:title>
      </cc:Work>
    </rdf:RDF>
  </metadata>
  <g
     inkscape:label="Taso 1"
     inkscape:groupmode="layer"
     id="layer1"
     transform="translate(0,-988.3622)">
    <g
       id="g825"
       transform="translate(-0.8572132,0.17178455)">
      <g
         id="g1004">
        <g
           id="g1357"
           transform="matrix(0.09815951,0,0,0.09815951,27.273092,921.80738)">
          <path
             style="fill:#fcfcfc"
             d="M -269.11176,1002.2772 V 676.27716 h 326 326 v 326.00004 326 h -326 -326 z"
             id="path1375"
             inkscape:connector-curvature="0" />
          <path
             style="fill:#e7e6e6"
             d="m -236.22948,1326.5272 c 1.74759,-3.2103 108.13798,-142.745 109.08277,-143.0659 1.90497,-0.6469 15.7259,9.6555 16.96449,12.6458 0.6772,1.6349 2.20759,3.8725 3.40087,4.9725 1.19327,1.0999 14.76959,9.5434 30.16959,18.7632 44.59596,26.6989 171.65759,103.5161 175.48213,106.0905 l 3.48214,2.3439 H -67.41481 c -161.37941,0 -169.72025,-0.086 -168.81467,-1.75 z m 443.11772,-1.8226 c -26.38079,-6.7372 -25.1691,-6.0767 -26.46732,-14.4274 -0.38476,-2.475 -10.33702,-57.9578 -22.11613,-123.2951 L 136.88824,1068.187 v -19.4784 -19.4784 l 9.50927,-33.22653 9.50928,-33.22651 1.17673,-21.5 1.17673,-21.5 -6.84672,-20 c -3.76569,-11 -7.21689,-20.42 -7.66934,-20.93333 -2.59262,-2.94156 -1.30818,2.57858 5.03076,21.6207 l 7.09478,21.31263 -1.41685,21 -1.41684,21 -9.5739,33.47736 -9.5739,33.47738 v 17.6557 17.6557 l 18.56886,102.8669 c 10.21287,56.5768 20.25695,112.092 22.32019,123.367 2.06324,11.275 3.55911,21.0625 3.32416,21.75 -0.23496,0.6875 -0.96594,1.25 -1.62442,1.25 -1.7683,0 -10.58677,-5.7912 -11.03558,-7.2472 -0.21239,-0.6891 -0.69722,-2.6028 -1.07741,-4.2528 -0.66522,-2.8871 -0.72363,-2.9153 -1.5513,-0.75 -0.99848,2.6121 -2.93711,2.8389 -6.72416,0.7866 -5.78503,-3.1352 -5.68005,-1.9712 -1.78025,-19.7403 l 3.61378,-16.4659 -18.01693,-99.6261 -18.01694,-99.6261 0.0132,-20.2891 0.0132,-20.2891 9.5568,-33.00004 9.55679,-33 1.13123,-19.91174 1.13123,-19.91175 -5.4512,-15.83632 c -5.05275,-14.67865 -6.95125,-18.51669 -6.95125,-14.05271 0,0.98312 2.24222,8.48054 4.98272,16.66093 l 4.98272,14.87345 -1.07433,18.08907 -1.07432,18.08907 -9.40839,32.98792 -9.4084,32.98792 v 22.9685 22.9685 l 17.62123,97.5436 17.62124,97.5436 -2.67007,13.4563 c -1.46854,7.4011 -3.18323,14.0747 -3.81042,14.8305 -0.62719,0.7557 -2.08929,1.1926 -3.24911,0.9709 -1.15982,-0.2217 -24.71519,-13.5688 -52.34526,-29.6601 -27.63008,-16.0914 -51.68053,-29.6711 -53.44545,-30.1773 -1.76493,-0.5062 -4.4536,-0.9203 -5.97483,-0.9203 -1.86684,0 -24.70349,-13.189 -70.2566,-40.5757 -37.1199,-22.3166 -67.49073,-40.9978 -67.49073,-41.5138 0,-1.8711 48.74754,-65.5654 58.0516,-75.8511 5.25337,-5.8077 45.04409,-50.3844 88.42381,-99.05944 43.37973,-48.675 90.15651,-100.80236 103.94841,-115.83858 13.7919,-15.03623 25.74291,-28.42373 26.5578,-29.75 2.02772,-3.30024 3.90956,-3.03969 9.62458,1.33258 3.95073,3.0225 10.65415,5.71716 34.78561,13.98321 l 29.89182,10.23922 20.60818,-3.01033 c 11.33451,-1.65568 21.73319,-3.48779 23.10819,-4.07136 1.375,-0.58358 10.78608,-6.24543 20.9135,-12.58191 10.12743,-6.33648 19.68993,-11.96583 21.25,-12.50967 1.56008,-0.54385 2.8365,-1.1084 2.8365,-1.25456 0,-0.14616 1.36132,-7.80268 3.02516,-17.01449 l 3.02516,-16.74875 -10.89997,-19.59168 -10.89998,-19.59169 -14.26246,-4.76709 -14.26247,-4.76709 -13.35537,2.97109 c -7.34545,1.63411 -14.03367,2.9711 -14.86272,2.9711 -3.13347,0 -1.26469,-2.76491 5.99613,-8.87142 7.60945,-6.39973 13.88034,-8.99591 21.9634,-9.09296 3.64915,-0.0438 33.69805,9.80179 36.39844,11.92604 3.43261,2.70025 26.13584,44.6791 26.12517,48.30609 -0.005,1.77774 -1.13023,9.26424 -2.5,16.63666 -3.41248,18.36679 -3.39992,18.48364 1.45993,13.58088 3.06431,-3.09136 6.20414,-8.99603 13.99784,-26.32394 5.52608,-12.28626 10.762,-24.79676 11.63539,-27.8011 0.87339,-3.00435 2.22159,-6.67695 2.996,-8.16135 1.26856,-2.43156 1.40864,-1.2201 1.41419,12.2301 0.003,8.45799 -0.48888,16.47686 -1.13592,18.5 -0.62814,1.96405 -4.25469,10.5876 -8.05901,19.16344 -5.9991,13.52343 -7.63891,16.30545 -12.35792,20.96584 -3.9424,3.89343 -5.44099,6.12397 -5.44099,8.09854 0,1.49883 0.40175,2.97344 0.89277,3.27691 0.49102,0.30347 5.99728,-7.7626 12.23612,-17.9246 6.23885,-10.16201 11.9121,-18.69462 12.60723,-18.96137 0.96042,-0.36854 1.26388,1.66152 1.26388,8.45511 0,10.72369 -1.1234,13.54865 -12.68562,31.89993 l -7.81438,12.40279 -26,18.84159 c -14.3,10.36287 -27.575,19.29204 -29.5,19.84259 -1.925,0.55055 -19.12622,2.79526 -38.22494,4.98825 l -34.72494,3.98725 -26.83235,-10.0304 c -26.78984,-10.01452 -26.85199,-10.04459 -39.22846,-18.98264 -6.81786,-4.92373 -12.79208,-8.95223 -13.27604,-8.95223 -2.45997,0 1.05925,3.3214 11.85948,11.19286 11.85032,8.63679 12.09988,8.75773 38.69125,18.75 15.51783,5.83115 28.25637,10.05714 30.31558,10.05714 5.96807,0 71.77541,-7.93498 74.06848,-8.9311 1.18143,-0.51322 14.00643,-9.49736 28.5,-19.96476 l 26.35194,-19.03163 5.46041,-8.78626 c 3.00323,-4.83244 7.16145,-11.48625 9.2405,-14.78625 l 3.78009,-6 0.01,249.75004 0.009,249.75 -81.25,-0.062 -81.25,-0.062 z m -476,-135.805 c 0,-58.9551 0.33407,-87.6224 1.0211,-87.6224 1.25482,0 89.93732,49.7632 91.8515,51.5415 1.14301,1.0618 -6.24412,11.294 -44.1636,61.1726 -25.0449,32.9437 -46.25008,60.49 -47.1226,61.2142 -1.44648,1.2004 -1.5864,-6.4116 -1.5864,-86.3059 z m 65.47009,-96.2482 c -28.03355,-17.8633 -54.23259,-34.5763 -58.22009,-37.1399 -6.39594,-4.1122 -7.25,-5.0205 -7.25,-7.7107 0,-2.1587 0.63363,-3.3377 2.16929,-4.0365 1.34436,-0.6118 10.99686,-15.6278 25.38288,-39.4871 12.76748,-21.17504 23.83793,-38.50004 24.601,-38.50004 0.76306,0 9.25326,5.31594 18.86711,11.81319 70.37672,47.56215 96.02058,64.68685 96.86744,64.68685 1.71383,0 5.44761,-6.0647 4.38684,-7.1255 -0.53423,-0.5342 -17.80206,-12.3689 -38.37295,-26.2993 -22.66919,-15.35128 -37.35554,-25.91561 -37.28466,-26.81992 0.0643,-0.82061 19.69439,-28.88876 43.62237,-62.37367 23.92799,-33.48491 44.01287,-62.4113 44.63306,-64.28087 2.2523,-6.78959 1.99399,-7.18577 -12.87238,-19.74268 -7.7,-6.50381 -13.99803,-12.28254 -13.99562,-12.84161 0.006,-1.35547 55.88068,-71.29808 59.59241,-74.59616 2.85866,-2.54008 41.52159,-31.03603 46.41289,-34.20794 1.38032,-0.89511 2.98609,-1.30908 3.56838,-0.91994 0.58229,0.38915 3.3401,3.70628 6.12848,7.37139 4.5015,5.9169 5.80206,8.88727 11.60291,26.5 l 6.53315,19.83616 0.4668,36.5 0.46679,36.5 -8.40855,24.96639 c -9.1039,27.031 -7.83109,24.40375 -39.50006,81.53361 -11.36787,20.5073 -14.54854,25.09945 -68.88689,99.45694 -31.3328,42.8763 -57.54737,78.2807 -58.25462,78.6765 -0.79637,0.4457 -20.68945,-11.6446 -52.25598,-31.7592 z M -269.11176,857.70261 V 683.68306 l 3.79216,-3.70295 3.79217,-3.70295 h 117.08992 117.08993 l 9.25276,14.07943 c 7.84759,11.94125 9.04245,14.28487 7.86791,15.43217 -0.76167,0.744 -12.10144,9.21512 -25.19949,18.8247 l -23.81465,17.47196 -31.04896,38.84587 c -17.07693,21.36523 -31.52997,39.88009 -32.11786,41.14413 -1.28911,2.77175 -0.49349,3.64707 16.8989,18.59166 7.89192,6.7812 11.87259,10.87713 11.82409,12.16643 -0.0956,2.54081 -86.06496,122.83729 -88.10923,123.29077 -0.86063,0.19092 -9.37042,-4.95008 -18.91063,-11.42445 -15.51434,-10.52863 -17.5936,-11.65869 -19.69229,-10.70246 -1.57192,0.71621 -9.56223,13.06926 -24.20721,37.42445 -12.02344,19.99548 -22.4563,37.24298 -23.18415,38.32788 -1.10031,1.64 -1.32337,-27.3591 -1.32337,-172.04709 z m 265,122.17904 c 0,-0.40928 1.41906,-2.80668 3.15348,-5.32756 6.60461,-9.59948 85.80429,-117.60294 98.83285,-134.77693 20.99262,-27.67207 34.81583,-45.54982 39.04699,-50.5 2.11551,-2.475 5.10947,-6.075 6.65326,-8 1.5438,-1.925 9.34722,-11.15 17.34095,-20.5 7.99373,-9.35 27.50772,-32.1875 43.36441,-50.75 l 28.83035,-33.75 48.13885,0.0391 c 40.40738,0.0329 47.65704,0.24805 45.13886,1.33985 -1.65,0.71538 -14.81021,5.23445 -29.24491,10.04237 l -26.24491,8.74167 -38.75509,33.25653 c -21.3153,18.29109 -41.23009,35.92022 -44.25509,39.17583 -3.025,3.25562 -11.08259,12.1035 -17.90575,19.66196 -6.82316,7.55846 -12.9566,13.74265 -13.62985,13.74265 -0.67326,0 -3.11244,-2.50108 -5.4204,-5.55795 -4.21533,-5.58316 -5.55229,-6.16868 -7.39933,-3.24051 -0.7775,1.2326 0.14641,2.95236 4.17856,7.77793 2.84722,3.40748 5.17677,6.61529 5.17677,7.12845 0,0.51317 -3.2803,4.18632 -7.28956,8.16256 C 131.1861,830.84151 105.98883,858.35888 54.00563,916.57433 2.71337,974.016 -4.11176,981.45062 -4.11176,979.88165 Z M 106.26725,846.73187 c 0.6171,-1.60815 -0.9098,-2.86273 -2.37901,-1.95471 -0.55,0.33992 -1,1.47735 -1,2.52763 0,2.1524 2.49557,1.72927 3.37901,-0.57292 z M 167.88824,778.624 c 0,-1.79207 -3.21684,-8.34684 -4.09632,-8.34684 -0.39924,0 -1.90496,1.40124 -3.34604,3.11386 -2.76346,3.28419 -2.73685,5.18973 0.13596,9.73751 l 1.48535,2.35137 2.91052,-2.78846 c 1.60079,-1.53365 2.91053,-3.364 2.91053,-4.06744 z m -183,158.06587 c 0,-1.0077 5.37802,-11.54032 11.95115,-23.40584 C 8.14388,892.87769 9.26164,890.3326 17.49728,866.24685 l 8.70674,-25.46354 -0.63635,-38.43798 -0.63634,-38.43798 -7.61961,-22.85976 -7.61961,-22.85975 -12.36357,-16.4308 c -11.70013,-15.54912 -15.55203,-21.36515 -16.04725,-24.22988 -0.1694,-0.97993 7.20425,-1.25 34.12848,-1.25 h 34.34457 l 3.40041,4.25 c 1.87023,2.3375 9.85735,13.7 17.74916,25.25 7.93972,11.62012 21.2102,29.20412 29.71039,39.36766 13.60537,16.26772 15.21371,18.56989 14.06779,20.13653 -1.10651,1.51275 -11.86126,15.32496 -40.29385,51.74896 -3.3,4.22751 -13.87683,18.4631 -23.50408,31.63464 -9.62724,13.17154 -18.08436,24.14169 -18.79361,24.37811 -1.76909,0.58969 -0.93551,-2.59886 4.5138,-17.2659 l 4.4584,-12 -0.6555,-36.6488 c -0.43671,-24.4157 -0.31671,-36.85819 0.35949,-37.27611 0.55825,-0.34501 7.3518,7.69082 15.09678,17.85742 7.74498,10.1666 14.46796,18.72339 14.93994,19.0151 1.17166,0.72412 3.32824,-2.02846 2.91736,-3.72359 -0.53666,-2.21399 -39.29921,-52.66269 -39.67119,-51.63126 -0.18623,0.51639 0.43048,3.06927 1.37048,5.67307 1.45073,4.01854 1.81524,10.70512 2.41136,44.23417 l 0.70227,39.5 -6.92668,21.5 c -3.80968,11.825 -7.91422,23.3 -9.12121,25.5 -2.63055,4.79475 -33.87458,47.65505 -36.06366,49.47182 -1.28367,1.06536 -1.53395,0.97413 -1.53395,-0.55911 z m 232.78604,-94.24076 c -29.5335,-10.30695 -37.81619,-14.44453 -35.88264,-17.92499 0.53377,-0.96083 8.31137,-9.9123 17.28355,-19.89216 12.22251,-13.59524 20.93348,-22.08131 34.73928,-33.84242 10.13443,-8.63347 19.35943,-16.29437 20.5,-17.02422 1.14057,-0.72985 9.04877,-2.77862 17.57377,-4.55282 8.525,-1.7742 16.48354,-3.43239 17.68563,-3.68486 2.5778,-0.54139 26.71232,7.29033 28.75214,9.33015 0.77197,0.77197 5.77058,9.33463 11.10802,19.02813 l 9.70443,17.62455 -2.37511,13.57284 c -2.25125,12.86504 -2.52476,13.65422 -5.24474,15.13335 -1.57829,0.85827 -11.86036,7.12585 -22.84904,13.92794 l -19.97941,12.36745 -18.65096,2.86376 c -10.25803,1.57508 -20.00096,2.8371 -21.65096,2.80451 -1.65,-0.0326 -15.47128,-4.41164 -30.71396,-9.73121 z m 135.21396,-28.42393 c 0,-0.68859 0.9,-5.9752 2,-11.74802 1.1,-5.77282 2,-11.41047 2,-12.52811 0,-2.98762 -23.56827,-45.51637 -26.95472,-48.63955 -3.92729,-3.62198 -32.63937,-13.14031 -39.29528,-13.02675 -4.87011,0.0831 -6.10363,-1.01386 -3,-2.66782 2.39393,-1.27575 92.62061,-31.13777 94.0813,-31.13777 0.85814,0 1.1687,6.18728 1.1687,23.28371 v 23.2837 l -3.94415,14.60207 c -2.9945,11.08628 -6.39812,20.04695 -14.13625,37.21629 -9.14777,20.29707 -11.9196,25.26473 -11.9196,21.36225 z M 115.93587,755.34406 c -1.1487,-1.61321 -7.37101,-9.21264 -13.82734,-16.88763 -12.46884,-14.82235 -35.61696,-47.48927 -34.98815,-49.3757 0.20627,-0.6188 9.98615,7.38476 21.73308,17.78567 11.74692,10.40092 24.75372,21.9141 28.90399,25.58485 6.21766,5.49928 7.87018,6.50056 9.38792,5.6883 2.68692,-1.438 4.40057,-5.60469 2.91574,-7.08952 -1.9349,-1.9349 -1.34718,-2.77287 1.94478,-2.77287 2.28817,0 4.15057,-1.03293 7,-3.88235 6.07824,-6.07825 5.64764,-6.34499 -8.9609,-5.55086 l -12.84325,0.69817 -13.40675,-11.80267 c -7.37371,-6.49147 -18.2735,-16.11358 -24.22176,-21.38248 l -10.81501,-9.57981 29.99307,-0.26456 c 16.49619,-0.1455 43.80559,-0.1455 60.68755,0 l 30.69448,0.26456 -30.87254,36.01399 c -16.9799,19.80769 -32.61425,38.14519 -34.743,40.75 -2.12876,2.6048 -4.46061,4.73601 -5.18191,4.73601 -0.72129,0 -2.25129,-1.3199 -3.4,-2.9331 z"
             id="path1373"
             inkscape:connector-curvature="0" />
          <path
             style="fill:#e5e3de"
             d="m -236.11176,1327.2772 c 0,-0.55 0.33868,-1 0.75262,-1 0.41393,0 24.82643,-31.7131 54.25,-70.4734 29.42356,-38.7604 53.91601,-70.4854 54.42766,-70.5 0.51166,-0.015 3.80085,1.8436 7.30932,4.1295 4.21864,2.7485 7.03316,5.4383 8.31048,7.942 1.0623,2.0823 3.39811,4.8763 5.19069,6.209 1.79258,1.3326 19.00923,11.8642 38.25923,23.4036 19.25,11.5394 63.125,37.9914 97.5,58.7823 34.375,20.7909 64.525,38.8488 67,40.1286 l 4.5,2.3269 -168.75,0.026 c -111.85048,0.017 -168.75,-0.3114 -168.75,-0.9742 z m 457,0.3479 c -0.825,-0.2718 -2.4,-0.9051 -3.5,-1.4073 -1.1,-0.5022 -8.93829,-2.7051 -17.41842,-4.8953 -8.48014,-2.1902 -15.82815,-4.3919 -16.32892,-4.8927 -0.50077,-0.5007 -1.1451,-2.8775 -1.43185,-5.2816 -0.28675,-2.404 -10.15124,-57.8444 -21.92109,-123.2006 L 138.88824,1069.118 v -20.1825 -20.1825 l 9.40567,-32.98792 9.40566,-32.98792 1.2374,-21.07027 1.2374,-21.07028 -7.25042,-21.7523 c -4.25257,-12.75835 -7.85402,-21.98393 -8.71028,-22.31251 -3.73783,-1.43434 -3.18227,1.9465 3.64724,22.19514 7.89844,23.41788 7.90552,23.47679 6.00921,50.01022 -0.94757,13.25848 -1.50325,15.76018 -10.49122,47.23234 l -9.49066,33.2323 v 19.207 19.207 l 22.0907,122.3532 c 12.14988,67.2942 21.83376,123.0226 21.51972,123.841 -0.48651,1.2678 -1.17169,1.1815 -4.63219,-0.5839 -5.64507,-2.88 -7.97823,-5.4914 -7.97823,-8.9299 0,-3.4896 -1.55205,-4.88 -2.29137,-2.0528 -0.83045,3.1756 -3.21935,3.3277 -7.71287,0.4911 -3.45153,-2.1789 -4.07127,-3.0289 -3.51503,-4.8213 0.37142,-1.1968 2.04719,-8.701 3.72393,-16.676 l 3.04862,-14.5 -18.12664,-100.075 -18.12664,-100.0749 v -18.599 -18.599 l 9.58292,-33.32605 9.58292,-33.32609 1.39047,-20 1.39047,-20 -5.81843,-17 c -4.09414,-11.96204 -6.30888,-17.09582 -7.47339,-17.32332 -2.75746,-0.53872 -2.01361,3.70841 3.42195,19.5381 l 5.07692,14.78522 -1.12255,18.70942 -1.12255,18.70942 -9.45437,32.92735 -9.45436,32.92735 v 22.3553 22.3552 l 17.6376,97.508 17.63761,97.508 -1.31224,7.5 c -0.72172,4.125 -1.79968,10.2935 -2.39545,13.7078 -0.59578,3.4143 -1.61693,6.7416 -2.26923,7.3939 -0.91467,0.9146 -12.5806,-5.4479 -50.99215,-27.8109 -27.39338,-15.9483 -50.92002,-29.5831 -52.28144,-30.2996 -1.36141,-0.7165 -4.78767,-1.5702 -7.6139,-1.897 -4.532,-0.5241 -13.00409,-5.3162 -71.76704,-40.5942 -36.64564,-22 -66.63188,-40.4103 -66.63609,-40.9116 -0.004,-0.5014 3.92983,-6.1192 8.74233,-12.484 4.8125,-6.3648 15.91235,-21.0295 24.66633,-32.5884 8.75398,-11.5588 20.03143,-25.516 25.06099,-31.016 5.02956,-5.5 45.82801,-51.175 90.66322,-101.50004 44.83521,-50.325 87.10776,-97.55359 93.93901,-104.95242 6.83125,-7.39883 16.39761,-17.74883 21.25857,-23 4.86097,-5.25117 9.45315,-11.01641 10.20485,-12.81164 2.05081,-4.89781 3.82161,-4.96938 9.75199,-0.39413 4.4593,3.44033 9.84875,5.62987 35.04702,14.23837 l 29.77737,10.17286 21.64351,-3.20008 c 11.90393,-1.76004 22.33957,-3.57423 23.19032,-4.03154 0.85075,-0.45731 10.27469,-6.27421 20.9421,-12.92644 10.6674,-6.65224 19.98907,-12.09498 20.71481,-12.09498 2.13756,0 2.93288,-2.63942 5.87665,-19.50275 l 2.79355,-16.00275 -10.24173,-18.49725 c -5.63296,-10.17349 -10.67938,-19.03355 -11.21427,-19.68903 -0.5349,-0.65548 -7.29627,-3.29932 -15.02527,-5.8752 l -14.05273,-4.68342 -12.38365,2.72157 c -6.81102,1.49686 -13.27893,2.95569 -14.37315,3.24183 -4.06658,1.06343 -1.90609,-2.69115 4.93826,-8.5819 6.23447,-5.36585 7.70868,-6.13627 14.73146,-7.69869 l 7.80371,-1.73616 17.27473,5.72672 c 15.11278,5.01001 17.56732,6.12409 19.61257,8.90187 4.16517,5.65697 24.64978,43.48149 24.64978,45.51544 0,1.0854 -1.36676,9.27362 -3.03724,18.19602 -1.67048,8.92241 -2.82587,16.43392 -2.56754,16.69225 0.25833,0.25833 2.28668,-1.26241 4.50745,-3.37943 3.29299,-3.13915 5.89514,-7.99926 14.10757,-26.34912 5.5384,-12.375 10.78113,-24.975 11.65051,-28 0.86938,-3.025 1.92794,-5.95 2.35236,-6.5 0.42442,-0.55 0.9929,-1.9 1.26328,-3 0.27038,-1.1 0.54381,4.75635 0.60761,13.01412 0.13169,17.04544 0.35224,16.17178 -9.84152,38.98588 -5.27425,11.80401 -7.16435,14.94114 -12.04982,20 -5.16497,5.34827 -5.73849,6.35302 -5.28001,9.25 0.28289,1.7875 0.80077,3.24794 1.15085,3.24543 0.35007,-0.003 5.7725,-8.33342 12.04983,-18.51311 6.27733,-10.1797 12.01483,-19.00774 12.75,-19.61787 1.09886,-0.91197 1.33667,0.50529 1.33667,7.96605 0,5.0975 -0.54752,10.30139 -1.24913,11.87245 -0.68703,1.53838 -5.32394,9.43441 -10.30426,17.54674 l -9.05512,14.74969 -20.44575,14.7728 c -11.24516,8.12504 -23.41246,16.88917 -27.03846,19.47586 l -6.59272,4.70305 -34.35351,4.02446 c -18.89443,2.21345 -35.9527,4.03124 -37.90728,4.03954 -2.07794,0.009 -14.30505,-4.01038 -29.44275,-9.6782 l -25.88898,-9.69329 -13.59827,-9.73419 c -7.47905,-5.3538 -13.94151,-9.52205 -14.36102,-9.26278 -2.73047,1.68752 0.0959,4.82301 12.27809,13.6208 l 13.04085,9.4179 27.62876,10.33918 27.62876,10.33917 37.5804,-4.29635 c 29.38908,-3.35988 38.30494,-4.70951 40.9045,-6.19184 3.72466,-2.12389 44.44428,-31.35671 50.70788,-36.40343 3.77737,-3.04352 18.44731,-25.12785 18.48332,-27.82505 0.008,-0.63086 0.45153,-1.82201 0.98469,-2.64701 0.62727,-0.97064 0.97478,86.4624 0.98469,247.75004 l 0.0153,249.25 -80.25,-0.079 c -44.1375,-0.043 -80.925,-0.3014 -81.75,-0.5732 z m -490,-139.0029 c 0,-83.3827 0.0853,-87.5823 1.75,-86.163 0.9625,0.8205 21.6625,12.6557 46,26.3004 24.3375,13.6447 44.24398,25.0805 44.23662,25.413 -0.007,0.3325 -20.0684,26.9296 -44.58009,59.1046 -24.51169,32.175 -44.96953,59.5125 -45.46187,60.75 -0.49234,1.2375 -1.1313,2.25 -1.41991,2.25 -0.28861,0 -0.52475,-39.4448 -0.52475,-87.655 z m 61,-100.492 c -29.975,-19.247 -55.9625,-35.6438 -57.75,-36.4373 -2.66043,-1.1809 -3.25,-2.0066 -3.25,-4.5516 0,-2.6086 0.23437,-2.9145 1.4562,-1.9005 0.8009,0.6647 1.88961,0.9407 2.41935,0.6133 0.52974,-0.3274 11.1891,-17.5787 23.68746,-38.3361 12.49837,-20.75747 23.23267,-38.29778 23.85401,-38.97849 1.22821,-1.34556 -3.05571,-4.11147 73.79496,47.64559 22.94158,15.4507 42.17626,28.0921 42.74372,28.0921 1.0503,0 7.0443,-7.6914 7.0443,-9.0391 0,-0.4064 -16.5375,-11.8725 -36.75,-25.4802 -20.2125,-13.60773 -37.52816,-25.47335 -38.47925,-26.36806 -1.62278,-1.52658 0.95399,-5.37625 41.84714,-62.51933 23.96702,-33.49092 44.20769,-62.68183 44.97926,-64.86869 2.87525,-8.14934 3.13868,-7.73724 -14.50085,-22.68411 -6.65297,-5.6374 -12.0963,-10.48024 -12.0963,-10.76188 0,-0.28164 12.92994,-16.68376 28.73321,-36.44915 l 28.73321,-35.93709 23.51679,-17.25357 c 12.93423,-9.48947 24.01656,-17.55305 24.6274,-17.91909 1.14056,-0.68346 9.03289,8.72402 11.69089,13.93527 0.79809,1.56473 3.9331,10.49496 6.96668,19.84496 l 5.51561,17 0.65166,37 0.65165,37 -8.58648,25 c -7.97065,23.20699 -9.43184,26.54199 -20.37345,46.5 -6.48284,11.825 -12.20102,22.44683 -12.70708,23.60407 -0.50605,1.15724 -4.6502,8.80724 -9.20922,17 -6.73482,12.10277 -18.97672,29.52186 -65.28595,92.89597 -31.34825,42.9 -57.54314,78.0782 -58.21087,78.1738 -0.66773,0.096 -25.73905,-15.5737 -55.71405,-34.8208 z m -60.73633,-231.35304 c 0.17319,-127.51534 0.53481,-173.94503 1.35359,-173.79425 1.25233,0.23063 5.22854,-3.65863 5.32214,-5.20575 0.0399,-0.65912 40.12888,-1.08662 117.60533,-1.25412 97.69852,-0.21121 117.49506,-0.0284 117.25005,1.08298 -0.16213,0.73541 3.3907,7.02927 7.89518,13.98637 l 8.18997,12.64926 -4.18997,3.3506 c -2.30448,1.84282 -13.39549,10.06331 -24.64669,18.26775 l -20.45674,14.91716 -31.3035,39.21183 c -17.21693,21.5665 -31.69146,40.2415 -32.16562,41.5 -0.47416,1.25849 -0.51282,3.22289 -0.0859,4.36533 0.4269,1.14244 7.11946,7.43502 14.87235,13.98351 7.75287,6.54849 14.09614,12.31989 14.09614,12.82532 0,1.42608 -86.11723,121.61401 -87.13905,121.61401 -0.49757,0 -8.20734,-4.86872 -17.13281,-10.81938 -8.92548,-5.95066 -17.02097,-11.11358 -17.98999,-11.47316 -4.193,-1.55593 -6.43199,1.42118 -28.10705,37.37305 -11.89711,19.73343 -21.63799,36.45053 -21.64641,37.14923 -0.008,0.6986 -0.45227,1.9453 -0.98633,2.7703 -0.62956,0.9725 -0.88791,-59.68721 -0.73469,-172.50004 z m 277.29229,107.5 c 1.18073,-2.15427 74.98017,-103.10315 86.26479,-118 33.3114,-43.97443 44.65717,-58 46.9182,-58 1.87653,0 2.20058,-0.41359 1.76292,-2.25 -0.42132,-1.76782 1.23956,-4.28587 7.7502,-11.75 15.67966,-17.97599 78.32458,-91.50838 80.72281,-94.75215 l 2.40124,-3.24785 47.06194,0.10209 c 33.56399,0.0728 46.0581,0.39261 43.56194,1.11503 -1.925,0.55712 -14.60823,4.56515 -28.18496,8.90673 -19.1163,6.11304 -25.67599,8.65027 -29.07807,11.24713 -2.41621,1.84434 -20.47128,17.18007 -40.12237,34.07941 -31.22938,26.85632 -37.88896,33.1079 -52.87745,49.63784 -9.4315,10.40148 -17.6559,18.91177 -18.27645,18.91177 -0.62055,0 -2.83286,-2.475 -4.91626,-5.5 -4.13486,-6.00363 -6.48764,-6.84316 -8.52248,-3.04103 -1.23269,2.3033 -0.95006,2.90628 4.46419,9.52411 5.59216,6.83527 5.72278,7.12857 4.01514,9.01549 -0.97078,1.0727 -2.54705,2.19856 -3.50281,2.50191 -2.57412,0.817 -43.03812,44.63324 -90.96363,98.49952 -40.97292,46.05186 -50.19894,56.13829 -48.47889,53 z m 98.55152,-116.20084 c 0.81304,-1.51917 0.65633,-2.40267 -0.69009,-3.89044 -1.62934,-1.80041 -1.86088,-1.81734 -3.5797,-0.26183 -1.01073,0.9147 -1.83769,2.68084 -1.83769,3.92476 0,3.81655 4.10486,3.96946 6.10748,0.22751 z m 59.27616,-64.80204 c 1.989,-2.20159 3.61636,-4.39438 3.61636,-4.87288 0,-2.21841 -4.24052,-10.12424 -5.43043,-10.12424 -1.22608,0 -8.56957,7.31387 -8.56957,8.535 0,1.06836 3.07585,7.85146 4.14383,9.1383 1.6405,1.97668 2.28656,1.69959 6.23981,-2.67618 z M -14.11176,935.28607 c 0,-0.7951 5.20397,-10.82779 11.56439,-22.29487 11.08613,-19.98698 11.92722,-21.93203 20.33769,-47.03163 l 8.7733,-26.18241 -0.62282,-38 -0.62282,-38 -7.73787,-23 -7.73787,-23 -12.227,-16.126 c -6.72485,-8.8693 -13.22555,-18.0943 -14.44601,-20.5 l -2.21901,-4.374 34.17786,-0.26337 c 31.55039,-0.24313 34.30686,-0.12781 35.85592,1.5 0.92294,0.96985 9.27655,12.78837 18.56359,26.26337 9.56566,13.87926 23.05317,31.83026 31.11309,41.4095 7.82516,9.30022 14.22756,17.49689 14.22756,18.21481 0,0.71793 -0.84218,1.75605 -1.87152,2.30693 -1.64774,0.88184 -14.31231,16.86652 -43.1489,54.46071 -4.68624,6.10943 -14.33427,19.09555 -21.44009,28.85805 -7.10581,9.7625 -13.25731,17.75 -13.67,17.75 -0.74025,0 1.96646,-8.37167 6.11042,-18.89915 2.07573,-5.27327 2.10879,-6.21177 1.41787,-40.25 -0.38908,-19.16797 -0.4682,-34.85085 -0.17581,-34.85085 0.29239,0 6.70511,8.1 14.2505,18 7.54538,9.9 14.04738,18 14.44889,18 0.40151,0 1.73305,-1.06769 2.95899,-2.37264 l 2.22898,-2.37264 -21.1537,-27.69499 c -11.63454,-15.23225 -21.38039,-27.4683 -21.65745,-27.19124 -0.27707,0.27706 0.43704,3.345 1.5869,6.81763 1.9238,5.80993 2.14421,9.47276 2.76149,45.89095 l 0.67083,39.57707 -7.71248,22.96923 -7.71248,22.96923 -16.03511,21.9537 c -16.77301,22.96395 -20.85733,27.95009 -20.85733,25.46261 z M 217.9567,840.68765 c -15.08735,-5.20681 -28.07285,-9.99917 -28.85666,-10.64967 -0.78381,-0.65051 -2.35407,-1.65031 -3.48948,-2.22178 -1.13541,-0.57147 -2.20298,-1.48904 -2.37237,-2.03904 -0.1694,-0.55 7.00273,-9.1538 15.93806,-19.11955 12.41918,-13.85137 20.9401,-22.14224 36.17352,-35.19692 16.90161,-14.48428 20.6192,-17.22485 24.48298,-18.04862 2.50552,-0.53419 10.85549,-2.17965 18.55549,-3.65659 l 14,-2.68533 12.48636,4.3535 12.48636,4.35351 9.74127,17.5 c 5.3577,9.625 9.75134,18.3265 9.76364,19.33666 0.0123,1.01017 -0.96365,7.22757 -2.1688,13.81646 -2.12999,11.64537 -2.27758,12.0159 -5.28688,13.27326 -1.70264,0.71141 -11.62912,6.63672 -22.05883,13.16735 l -18.96312,11.87388 -17.5,2.71381 c -9.625,1.49259 -19.3,2.7098 -21.5,2.70491 -2.43394,-0.005 -14.73989,-3.71535 -31.43154,-9.47584 z m 138.21887,-35.91049 c 0.29468,-1.1 1.06256,-4.96345 1.70641,-8.58543 1.45264,-8.17199 1.67729,-7.59294 -13.66569,-35.22425 -8.69541,-15.65961 -12.37486,-21.36149 -14.71176,-22.79814 -3.16265,-1.9443 -22.77289,-8.58947 -32.37501,-10.97066 -2.89229,-0.71725 -4.91729,-1.61452 -4.5,-1.99394 0.4173,-0.37943 20.33372,-7.08862 44.25872,-14.90932 23.925,-7.8207 44.0625,-14.67929 44.75,-15.2413 0.99309,-0.81183 1.25,3.49932 1.25,20.97559 0,21.29649 -0.5093,28.66875 -1.92028,27.79672 -0.37222,-0.23005 -2.19837,5.28976 -4.0581,12.26623 -2.22132,8.33295 -6.18525,18.95214 -11.55458,30.95427 -7.62045,17.0341 -10.46511,22.52844 -9.17971,17.73023 z M 116.81865,754.08749 c -0.66249,-1.27068 -6.67652,-8.83533 -13.36452,-16.81033 C 92.46189,724.16962 73.1826,697.6365 74.04204,696.79877 c 0.19041,-0.18559 11.7283,9.75146 25.63975,22.08235 27.56363,24.43196 26.58554,23.8855 31.18666,17.42383 1.16561,-1.63695 1.98441,-3.77536 1.81954,-4.75203 -0.20145,-1.19341 0.43194,-1.87974 1.93138,-2.09284 2.33965,-0.3325 11.26887,-9.75099 11.26887,-11.88633 0,-0.95251 -3.28407,-1.10611 -14.25,-0.66645 l -14.25,0.57131 -21.5,-19.16416 c -11.825,-10.54029 -22.5125,-19.57448 -23.75,-20.07598 -1.2375,-0.50149 -2.25,-1.14795 -2.25,-1.43656 0,-0.28861 26.86633,-0.52475 59.70295,-0.52475 h 59.70295 l -3.58273,3.75 c -1.9705,2.0625 -17.42893,19.95 -34.35208,39.75 -16.92314,19.8 -31.34688,36.13965 -32.05275,36.31033 -0.70587,0.17068 -1.82543,-0.72932 -2.48793,-2 z"
             id="path1371"
             inkscape:connector-curvature="0" />
          <path
             style="fill:#d7d9e4"
             d="m -236.11176,1327.2772 c 0,-0.55 0.33868,-1 0.75262,-1 0.41393,0 24.82643,-31.7131 54.25,-70.4734 29.42356,-38.7604 53.91601,-70.4854 54.42766,-70.5 0.51166,-0.015 3.80085,1.8436 7.30932,4.1295 4.21864,2.7485 7.03316,5.4383 8.31048,7.942 1.0623,2.0823 3.39811,4.8763 5.19069,6.209 1.79258,1.3326 19.00923,11.8642 38.25923,23.4036 19.25,11.5394 63.125,37.9914 97.5,58.7823 34.375,20.7909 64.525,38.8488 67,40.1286 l 4.5,2.3269 -116.75,0.026 c -99.64362,0.022 -116.75,-0.1802 -116.75,-1.38 0,-0.7731 15.11989,-20.8783 33.59976,-44.6781 18.47986,-23.7999 33.80597,-43.8099 34.05801,-44.4667 0.2715,-0.7075 -9.11868,-6.9665 -23.0416,-15.3583 -23.16257,-13.9609 -27.41759,-17.2887 -29.99856,-23.4619 -1.29911,-3.1071 -5.48389,-6.1972 -7.44231,-5.4954 -0.56206,0.2014 -24.03103,30.6287 -52.15327,67.6162 l -51.13135,67.25 h -3.94534 c -2.16994,0 -3.94534,-0.45 -3.94534,-1 z m 457,0.3479 c -0.825,-0.2718 -2.4,-0.9051 -3.5,-1.4073 -1.1,-0.5022 -8.93829,-2.7051 -17.41842,-4.8953 -8.48014,-2.1902 -15.76079,-4.3339 -16.17924,-4.7638 -0.94892,-0.9748 -2.30489,-6.2815 -1.60506,-6.2815 0.69896,0 59.43812,15.6862 63.20272,16.8782 2.22841,0.7056 -0.34354,0.9517 -10,0.9569 -7.15,0 -13.675,-0.2154 -14.5,-0.4872 z m -50.5,-16.1703 c -3.02803,-2.0863 -4.24477,-3.7607 -5.0073,-6.8908 -1.04802,-4.3019 -2.4927,-6.704 -2.4927,-4.1446 0,0.8115 -0.61391,2.3151 -1.36424,3.3412 -1.31409,1.7971 -1.53738,1.7643 -6.07414,-0.8945 -3.60368,-2.1119 -4.53804,-3.1511 -3.97817,-4.4245 0.40245,-0.9155 1.95266,-7.3759 3.44491,-14.3565 1.49225,-6.9806 2.96587,-13.3505 3.27472,-14.1554 0.30885,-0.8048 -2.52753,-18.4934 -6.30305,-39.3079 -3.77553,-20.8146 -11.84507,-65.4144 -17.93232,-99.1109 l -11.06771,-61.2662 v -21.7459 -21.7458 l 9.43674,-32.99325 9.43674,-32.99325 1.18916,-19.24572 1.18916,-19.24573 -5.83978,-16.99895 c -4.62885,-13.47404 -6.21016,-16.99894 -7.62591,-16.99894 -1.18939,0 -1.78611,0.75713 -1.78611,2.26626 0,1.58793 -24.12752,29.34926 -80.60949,92.75 -44.33522,49.76608 -81.28951,91.25418 -82.12064,92.19578 -1.37639,1.5594 -0.55611,3.2087 9.19839,18.4949 l 10.70954,16.7829 9.90074,41.5051 c 5.4454,22.8278 10.1951,44.9926 10.55487,49.2551 0.62304,7.3814 0.5557,7.75 -1.41595,7.75 -3.35663,0 -72.66755,-41.4169 -73.00452,-43.624 -0.15789,-1.0341 1.73983,-4.7587 4.21715,-8.2768 2.47732,-3.5181 4.29471,-6.7355 4.03864,-7.1498 -0.82738,-1.3388 -21.59181,-15.1597 -22.06493,-14.6866 -2.83141,2.8314 -11.3993,15.4989 -11.1852,16.5372 0.25454,1.2343 49.90485,31.6244 104.2269,63.7955 18.52236,10.9694 21.4724,12.4056 25.5,12.4142 2.7108,0.01 6.57854,0.9729 9.5545,2.3889 9.04142,4.3022 100.9502,58.368 101.9697,59.9842 0.72263,1.1456 0.53814,2.0379 -0.67148,3.2475 -1.55718,1.5572 -4.97439,-0.2571 -51.48305,-27.3342 -27.39834,-15.9512 -50.92905,-29.5884 -52.29047,-30.3049 -1.36141,-0.7165 -4.78767,-1.5702 -7.6139,-1.897 -4.532,-0.5241 -13.00409,-5.3162 -71.76704,-40.5942 -36.64564,-22 -66.63188,-40.4103 -66.63609,-40.9116 -0.004,-0.5014 3.92983,-6.1192 8.74233,-12.484 4.8125,-6.3648 15.91235,-21.0295 24.66633,-32.5884 8.75398,-11.5588 20.03143,-25.516 25.06099,-31.016 5.02956,-5.5 45.87039,-51.223 90.7574,-101.60668 68.57883,-76.97667 119.26267,-133.06831 124.14725,-137.39336 0.62115,-0.55 1.57682,-2.31323 2.1237,-3.91829 0.54688,-1.60505 1.4822,-3.08017 2.07847,-3.27804 0.59628,-0.19787 3.35623,1.44929 6.13321,3.66036 4.32909,3.44687 9.33546,5.48002 35.10871,14.25809 l 30.05965,10.23796 21.93682,-3.09933 21.93683,-3.09934 20.00069,-12.38071 c 11.00039,-6.80938 21.31484,-13.09579 22.92101,-13.9698 2.79779,-1.52243 3.03356,-2.2161 5.61963,-16.53368 1.48462,-8.21952 2.69931,-16.09353 2.69931,-17.49779 0,-1.40426 -4.76413,-11.15233 -10.58695,-21.66237 l -10.58694,-19.10917 -14.15126,-4.71625 c -15.77022,-5.25582 -13.88599,-5.21388 -34.38743,-0.76545 -4.51692,0.98009 -8.54857,1.446 -8.95921,1.03535 -0.76319,-0.76318 5.39154,-6.61144 11.67225,-11.09104 1.92556,-1.37337 6.64963,-3.15969 10.5,-3.97037 l 6.99954,-1.47372 15.5,5.05943 c 8.525,2.78269 16.67836,5.66023 18.11858,6.39452 1.88989,0.96356 6.14923,7.72108 15.30605,24.28332 l 12.68747,22.94824 -3.18607,17.63069 c -1.75233,9.69688 -2.88676,17.92999 -2.52096,18.2958 0.36581,0.3658 2.61873,-1.33819 5.00648,-3.78666 3.50373,-3.5928 6.20881,-8.62398 14.01981,-26.07547 5.32314,-11.89304 10.97687,-25.61804 12.56385,-30.5 l 2.88541,-8.87628 0.0597,15.28294 0.0597,15.28294 -8.20423,18.53337 c -7.526,17.00123 -8.6872,19.00598 -14.04647,24.25036 -5.71827,5.59569 -5.82799,5.80609 -5.17087,9.91552 0.36926,2.30918 1.0169,3.98497 1.43921,3.72397 0.4223,-0.261 5.82659,-8.69032 12.00952,-18.73182 6.18294,-10.04151 11.85621,-18.91621 12.60727,-19.72157 1.16099,-1.24491 1.36557,-0.0338 1.36557,8.08375 v 9.54804 l -6.33763,10.41625 c -15.61282,25.66055 -12.1356,21.84609 -35.22821,38.6448 -11.51381,8.3757 -23.85918,17.22398 -27.43418,19.66284 l -6.5,4.4343 -36.7791,4.20231 -36.77909,4.20232 -26.22091,-9.77526 -26.2209,-9.77525 -13.47386,-9.58991 c -7.41062,-5.27444 -13.79673,-9.7311 -14.19134,-9.90368 -0.39461,-0.17258 -1.39155,0.95242 -2.21542,2.5 -1.55621,2.92325 -5.39354,7.0164 -9.50893,10.14286 -2.23642,1.69901 -2.29185,1.97091 -0.86497,4.24313 0.83851,1.33528 4.32686,10.90478 7.75189,21.26554 l 6.22731,18.83774 -1.16838,20.16226 -1.16838,20.16225 -9.44396,33.23234 -9.44396,33.2323 0.002,20.7677 0.002,20.7677 11.02093,61 c 27.77944,153.7541 32.97507,182.5934 32.97507,183.0314 0,1.325 -3.96807,0.08 -7.5,-2.3538 z m -439.5,-54.5892 c 0,-22.2911 -0.35808,-21.6848 8.65101,-14.6486 3.0292,2.3658 5.8611,3.9097 6.29311,3.4308 3.15517,-3.4974 68.05588,-89.616 68.05588,-90.3053 0,-0.4827 -17.4375,-10.6665 -38.75,-22.6307 -21.3125,-11.9641 -39.9875,-22.612 -41.5,-23.6619 -1.99383,-1.384 -2.75,-2.7577 -2.75,-4.9958 0,-2.8416 0.13906,-2.9684 1.75,-1.5949 0.9625,0.8205 21.6625,12.6557 46,26.3004 24.3375,13.6447 44.24398,25.0805 44.23662,25.413 -0.007,0.3325 -20.0684,26.9296 -44.58009,59.1046 -24.51169,32.175 -44.96953,59.5125 -45.46187,60.75 -0.49234,1.2375 -1.1313,2.25 -1.41991,2.25 -0.28861,0 -0.52475,-8.7352 -0.52475,-19.4116 z m 61,-168.7354 c -29.975,-19.247 -55.9625,-35.6438 -57.75,-36.4373 -2.68492,-1.1917 -3.25,-1.9966 -3.25,-4.6292 0,-2.4784 0.26667,-2.9199 1.2,-1.9865 0.66,0.66 1.76066,1.2 2.44591,1.2 0.68526,0 25.60759,15.525 55.38296,34.5 29.77537,18.975 54.68588,34.5 55.3567,34.5 0.67081,0 12.44598,-15.4072 26.16704,-34.2381 13.72107,-18.8309 26.39329,-35.5934 28.16051,-37.25 1.76722,-1.6566 4.33535,-5.1368 5.70696,-7.7339 2.21678,-4.1974 69.1182,-96.50616 74.48908,-102.77804 l 2.14086,-2.5 -1.27501,3.11148 c -0.70126,1.71132 -5.00512,9.81132 -9.56414,18 -6.726,12.0809 -19.03738,29.59747 -65.28595,92.88856 -31.34825,42.9 -57.54314,78.0782 -58.21087,78.1738 -0.66773,0.096 -25.73905,-15.5737 -55.71405,-34.8208 z M 8.51856,964.02716 c 3.42937,-5.72819 86.4392,-118.09606 105.82348,-143.25 19.01239,-24.67136 25.22008,-32.07252 27.10544,-32.31665 1.94953,-0.25243 2.34006,-0.75938 1.9259,-2.5 -0.40013,-1.68168 1.38447,-4.36616 7.76693,-11.68335 15.67966,-17.97599 78.32458,-91.50838 80.72281,-94.75215 1.97833,-2.67584 3.0726,-3.24785 6.21318,-3.24785 2.09657,0 3.81194,0.36229 3.81194,0.8051 0,1.44543 -74.09414,87.56308 -79.5619,92.47268 -2.92653,2.62779 -5.63711,5.7739 -6.02352,6.99136 -0.91856,2.89412 -8.22544,11.53605 -10.31451,12.1991 -0.8952,0.28412 -2.36735,1.73571 -3.27145,3.22574 -1.63298,2.6913 -1.60818,2.74974 3.76378,8.86849 2.97418,3.38763 5.4076,6.80693 5.4076,7.59843 0,1.76215 -1.96339,3.8391 -3.62919,3.8391 -0.67605,0 -3.6659,2.5875 -6.6441,5.75 -21.40782,22.73257 -43.19778,46.71784 -84.9422,93.5 -26.37905,29.5625 -48.17356,53.75 -48.43223,53.75 -0.25867,0 -0.13356,-0.5625 0.27804,-1.25 z m 98.1282,-115.94198 2.25852,-2.14348 -2.05591,-1.91538 c -2.52081,-2.34849 -4.32569,-1.20575 -6.56663,4.15759 -0.81948,1.96127 -2.30892,4.4721 -3.30988,5.5796 -1.00096,1.10751 -2.64781,3.36365 -3.65967,5.01365 -1.41675,2.31024 -0.35506,1.67238 4.61765,-2.77425 3.55157,-3.17584 7.47373,-6.73882 8.71592,-7.91773 z m -119.75852,85.57086 c 0,-0.51211 4.9844,-9.91935 11.07645,-20.90499 10.29585,-18.56623 11.70805,-21.80624 20.0384,-45.97389 l 8.96195,-26 -0.64198,-38 -0.64198,-38 -7.60196,-23.22033 -7.60195,-23.22032 -12.54447,-16.80436 c -6.89945,-9.2424 -13.58575,-18.70576 -14.85844,-21.02968 l -2.31399,-4.22531 h 34.13541 c 25.98056,0 34.43155,0.29862 35.375,1.25 0.68178,0.6875 8.82992,12.275 18.10699,25.75 9.49675,13.79408 23.40294,32.3284 31.82367,42.41493 12.6522,15.15508 14.7192,18.08828 13.41745,19.04015 -1.4216,1.03949 -13.03974,15.86768 -41.16987,52.54492 -6.11654,7.975 -16.93045,22.4875 -24.03091,32.25 -7.10047,9.7625 -13.24759,17.75 -13.66028,17.75 -1.23889,0 3.96795,-14.15256 6.79818,-18.47793 8.8643,-13.5471 26.03468,-36.07706 31.21552,-40.95916 3.05625,-2.88003 3.93099,-5.06757 2.2911,-5.72958 C 74.60838,801.92716 64.884,789.48905 53.45278,774.47024 42.02156,759.45144 32.44667,747.3854 32.17525,747.65682 c -0.27143,0.27142 0.63826,4.00953 2.02151,8.30692 2.45711,7.63354 2.5288,8.71129 3.11415,46.81342 l 0.59914,39 -7.67639,22.87899 -7.6764,22.87899 -15.75442,21.64354 c -14.8693,20.42756 -19.9146,26.62882 -19.9146,24.47736 z m -0.0119,-92.64943 c -28.02447,-19.51985 -29.9881,-20.96884 -29.9881,-22.12851 0,-0.55773 1.8,-3.58013 4,-6.71644 2.2,-3.13632 4,-5.94134 4,-6.23338 0,-0.29204 -7.875,-6.26742 -17.5,-13.27863 -10.28476,-7.4918 -17.5,-13.41911 -17.5,-14.37624 0,-2.01063 60.31534,-57.99625 62.48147,-57.99625 2.11288,0 2.2216,0.29058 13.02876,34.82256 l 9.48977,30.32257 v 20.02791 c 0,24.28064 -3.45584,49.82696 -6.74046,49.82696 -0.43084,0 -10.00299,-6.42175 -21.27144,-14.27055 z m 197.02194,-14.21735 c -1.11463,-1.34305 -0.9361,-1.99783 1.17199,-4.29826 1.36781,-1.49261 8.7118,-9.68884 16.31997,-18.21384 9.83885,-11.02449 19.48734,-20.36458 33.41552,-32.34746 10.77036,-9.2661 20.54694,-17.2242 21.72572,-17.68466 3.98362,-1.55609 9.63467,-2.29577 9.23522,-1.20881 -0.20815,0.56642 -10.50346,9.65123 -22.87846,20.18848 -18.10377,15.41527 -25.59392,22.61639 -38.33477,36.85554 -8.70913,9.7333 -16.62351,17.83113 -17.58751,17.99517 -0.964,0.16404 -2.34446,-0.41473 -3.06768,-1.28616 z m -30.06931,-28.62285 c -1.01757,-1.90135 -0.27701,-2.92585 7.46481,-10.32689 4.72695,-4.51888 8.59446,-8.75319 8.59446,-9.40958 0,-0.65639 4.03217,-5.63128 8.96039,-11.05532 11.79613,-12.98294 84.54237,-75.53019 91.53961,-78.70581 2.75,-1.24805 12.398,-4.54674 21.44,-7.33042 15.36431,-4.73007 17.09825,-5.05455 26.5,-4.95914 8.53315,0.0866 9.52879,0.25582 6.56,1.11503 -1.925,0.55712 -14.60823,4.56515 -28.18496,8.90673 -19.1163,6.11304 -25.67599,8.65027 -29.07807,11.24713 -2.41621,1.84434 -20.47128,17.18007 -40.12237,34.07941 -31.22938,26.85632 -37.88896,33.1079 -52.87745,49.63784 -9.4315,10.40148 -17.71487,18.91177 -18.40748,18.91177 -0.69262,0 -1.76764,-0.94984 -2.38894,-2.11075 z M 116.8861,754.27315 c -0.95145,-1.7778 -0.71507,-2.67796 1.44791,-5.51377 1.42174,-1.86401 4.7582,-5.22158 7.41434,-7.46127 2.65613,-2.23969 5.46171,-5.2908 6.23461,-6.78024 0.77291,-1.48945 3.92405,-5.19043 7.00255,-8.2244 3.0785,-3.03397 6.38203,-7.03581 7.34118,-8.89297 1.70595,-3.30316 30.40078,-37.43471 33.49529,-39.84154 0.86144,-0.67 3.34509,-1.2325 5.51921,-1.25 l 3.95295,-0.0318 -3.58273,3.75 c -1.9705,2.0625 -17.42893,19.95 -34.35208,39.75 -16.92314,19.8 -31.34688,36.13965 -32.05275,36.31033 -0.70587,0.17068 -1.79509,-0.64577 -2.42048,-1.81434 z m 178.56198,-27.4243 c -2.16709,-0.67023 -3.51709,-1.46471 -3,-1.76552 0.51709,-0.3008 20.51516,-6.95051 44.44016,-14.77714 23.925,-7.82662 44.09453,-14.71664 44.82119,-15.31115 1.06187,-0.86877 1.25814,-0.30927 1,2.8506 l -0.32119,3.93152 -39.5,13.15978 c -21.725,7.23788 -40.4,13.1532 -41.5,13.14515 -1.1,-0.008 -3.77307,-0.56301 -5.94016,-1.23324 z"
             id="path1369"
             inkscape:connector-curvature="0" />
          <path
             style="fill:#f5e5af"
             d="m -132.11176,1326.8746 c 0,-2.4313 67.86165,-89.0666 70.04218,-89.4191 2.15648,-0.3486 148.46559,87.3845 149.37519,89.5717 0.41405,0.9955 -21.86327,1.25 -109.44875,1.25 -93.68879,0 -109.96862,-0.2077 -109.96862,-1.4026 z m 302.5,-15.4198 c -3.02803,-2.0863 -4.24477,-3.7607 -5.0073,-6.8908 -1.04802,-4.3019 -2.4927,-6.704 -2.4927,-4.1446 0,0.8115 -0.61391,2.3151 -1.36424,3.3412 -1.31409,1.7971 -1.53738,1.7643 -6.07414,-0.8945 -3.60368,-2.1119 -4.53804,-3.1511 -3.97817,-4.4245 0.40245,-0.9155 1.95266,-7.3759 3.44491,-14.3565 1.49225,-6.9806 2.96587,-13.3505 3.27472,-14.1554 0.30885,-0.8048 -2.52753,-18.4934 -6.30305,-39.3079 -3.77553,-20.8146 -11.84507,-65.4144 -17.93232,-99.1109 l -11.06771,-61.2662 v -21.7459 -21.7458 l 9.44614,-33.02614 9.44615,-33.02612 1.15246,-19.46179 1.15246,-19.46179 -6.059,-17.35792 -6.05901,-17.35791 3.12777,-3.89209 c 1.72027,-2.14064 3.49207,-3.89208 3.93734,-3.89208 1.67642,0 3.80414,5.03968 9.85306,23.33775 l 6.22731,18.83774 -1.16838,20.16226 -1.16838,20.16225 -9.44396,33.23234 -9.44396,33.2323 0.002,20.7677 0.002,20.7677 11.02093,61 c 27.77944,153.7541 32.97507,182.5934 32.97507,183.0314 0,1.325 -3.96807,0.08 -7.5,-2.3538 z m -439.5,-59.5487 c 0,-12.5703 0.20463,-14.4219 1.57168,-14.2213 2.48448,0.3647 12.42832,8.5473 12.42832,10.227 0,1.6088 -7.71674,12.3036 -11.65712,16.1558 l -2.34288,2.2905 z m 236.5,-63.5821 c -24.07767,-14.3015 -35.08958,-21.376 -35.28706,-22.67 -0.15789,-1.0346 1.73983,-4.7595 4.21715,-8.2776 2.47732,-3.5181 4.29471,-6.7355 4.03864,-7.1498 -0.25607,-0.4144 -5.19129,-3.9701 -10.96716,-7.9017 -5.77586,-3.9316 -10.50157,-7.8217 -10.50157,-8.6447 0,-1.7224 29.46382,-40.7059 37.87191,-50.1083 3.09545,-3.4615 6.1472,-6.2939 6.78167,-6.2942 0.63448,-3e-4 5.96198,7.5347 11.83891,16.7444 l 10.68531,16.7449 9.90074,41.5051 c 5.4454,22.8278 10.1951,44.9926 10.55487,49.2551 0.65041,7.7057 0.64047,7.7495 -1.73963,7.6679 -1.31658,-0.045 -18.14378,-9.4372 -37.39378,-20.8711 z m 19.5,-254.66796 c 0,-0.51211 4.9844,-9.91935 11.07645,-20.90499 10.29585,-18.56623 11.70805,-21.80624 20.0384,-45.97389 l 8.96195,-26 -0.64198,-38 -0.64198,-38 -7.60196,-23.22033 -7.60195,-23.22032 -12.54447,-16.80436 c -6.89945,-9.2424 -13.58575,-18.70576 -14.85844,-21.02968 l -2.31399,-4.22531 h 34.13541 c 25.98056,0 34.43155,0.29862 35.375,1.25 0.68178,0.6875 8.82992,12.275 18.10699,25.75 9.44636,13.72089 23.4027,32.32818 31.72156,42.29279 8.16978,9.78604 14.5794,18.23735 14.2436,18.78069 -0.3358,0.54334 -2.03796,0.75516 -3.78257,0.47072 -3.10322,-0.50595 -3.49455,-0.0945 -18.04289,18.96932 -8.17897,10.71756 -15.15397,19.47959 -15.5,19.47117 -1.51984,-0.037 -3.91401,-2.96163 -23.56938,-28.79161 -11.42859,-15.0188 -21.00132,-27.08484 -21.27274,-26.81342 -0.27143,0.27142 0.63826,4.00953 2.02151,8.30692 2.45711,7.63354 2.5288,8.71129 3.11415,46.81342 l 0.59914,39 -7.67639,22.87899 -7.6764,22.87899 -15.75442,21.64354 c -14.8693,20.42756 -19.9146,26.62882 -19.9146,24.47736 z m 219.59083,-40.31969 c -25.79941,-9.75478 -25.96463,-9.83603 -39,-19.18069 -7.19996,-5.16143 -13.09083,-9.9384 -13.09083,-10.61548 0,-0.67708 4.30098,-5.85075 9.55774,-11.49704 11.39177,-12.23592 11.33931,-12.15734 9.78186,-14.65121 -0.94932,-1.52011 -0.96188,-2.55098 -0.0553,-4.54068 0.64506,-1.41575 1.5737,-2.57409 2.06364,-2.57409 0.48995,0 3.14704,1.79643 5.90465,3.99208 4.2852,3.41192 9.38228,5.47992 35.07348,14.23004 l 30.05965,10.23796 21.93682,-3.09933 21.93683,-3.09934 20.00069,-12.38071 c 11.00039,-6.80938 21.31484,-13.09579 22.92101,-13.9698 2.79779,-1.52243 3.03356,-2.2161 5.61963,-16.53368 1.48461,-8.21952 2.6993,-16.09353 2.6993,-17.49779 0,-1.40426 -4.76413,-11.15233 -10.58695,-21.66237 l -10.58694,-19.10917 -14.15126,-4.71625 c -15.77022,-5.25582 -13.88599,-5.21388 -34.38743,-0.76545 -4.51692,0.98009 -8.54857,1.446 -8.95921,1.03535 -0.76319,-0.76318 5.39154,-6.61144 11.67225,-11.09104 1.92556,-1.37337 6.64963,-3.15969 10.5,-3.97037 l 6.99954,-1.47372 15.5,5.05943 c 8.525,2.78269 16.67836,5.66023 18.11858,6.39452 1.88989,0.96356 6.14923,7.72108 15.30605,24.28332 l 12.68747,22.94824 -3.18607,17.63069 c -1.75233,9.69688 -2.88676,17.92999 -2.52096,18.2958 0.36581,0.3658 2.61873,-1.33819 5.00648,-3.78666 3.50373,-3.5928 6.20881,-8.62398 14.01981,-26.07547 5.32314,-11.89304 10.97687,-25.61804 12.56385,-30.5 l 2.88541,-8.87628 0.0597,15.28294 0.0597,15.28294 -8.20423,18.53337 c -7.526,17.00123 -8.6872,19.00598 -14.04647,24.25036 -5.71827,5.59569 -5.82799,5.80609 -5.17087,9.91552 0.36926,2.30918 1.0169,3.98497 1.43921,3.72397 0.4223,-0.261 5.82659,-8.69032 12.00952,-18.73182 6.18294,-10.04151 11.85621,-18.91621 12.60727,-19.72157 1.16099,-1.24491 1.36557,-0.0338 1.36557,8.08375 v 9.54804 l -6.33763,10.41625 c -15.61282,25.66055 -12.1356,21.84609 -35.22821,38.6448 -11.51381,8.3757 -23.85918,17.22322 -27.43418,19.66115 l -6.5,4.4326 -36,4.104 c -19.8,2.2572 -36.675,4.06466 -37.5,4.01658 -0.825,-0.0481 -13.15913,-4.49574 -27.40917,-9.88369 z M -13.12366,841.00661 c -28.02447,-19.51985 -29.9881,-20.96884 -29.9881,-22.12851 0,-0.55773 1.8,-3.58013 4,-6.71644 2.2,-3.13632 4,-5.94134 4,-6.23338 0,-0.29204 -7.875,-6.26742 -17.5,-13.27863 -10.28476,-7.4918 -17.5,-13.41911 -17.5,-14.37624 0,-2.01063 60.31534,-57.99625 62.48147,-57.99625 2.11288,0 2.2216,0.29058 13.02876,34.82256 l 9.48977,30.32257 v 20.02791 c 0,24.28064 -3.45584,49.82696 -6.74046,49.82696 -0.43084,0 -10.00299,-6.42175 -21.27144,-14.27055 z m 119.53338,2.64917 c -0.89176,-0.89176 -1.4864,-2.18143 -1.32143,-2.86594 0.52653,-2.18471 34.25253,-45.4567 35.45101,-45.48526 1.83736,-0.0438 11.53859,11.75298 11.17692,13.5912 -0.55111,2.8011 -3.50202,4.06604 -5.93739,2.54513 -2.58379,-1.61361 -2.56191,-1.63287 -21.66745,19.08625 -7.48071,8.1125 -14.15906,14.75 -14.84079,14.75 -0.68172,0 -1.96911,-0.72962 -2.86087,-1.62138 z"
             id="path1367"
             inkscape:connector-curvature="0" />
          <path
             style="fill:#d8e2ce"
             d="m -132.11176,1326.8746 c 0,-2.4313 67.86165,-89.0666 70.04218,-89.4191 2.15648,-0.3486 148.46559,87.3845 149.37519,89.5717 0.41405,0.9955 -21.86327,1.25 -109.44875,1.25 -93.68879,0 -109.96862,-0.2077 -109.96862,-1.4026 z m 303.5701,-15.8898 c -3.94336,-2.2239 -4.84722,-3.8717 -6.04557,-11.0218 -0.74307,-4.4337 -2.76899,-4.493 -3.53096,-0.1033 -0.61728,3.5561 -3.46933,4.2145 -6.85134,1.5817 l -2.35777,-1.8354 2.66417,-12.9144 c 1.4653,-7.103 3.0813,-13.9316 3.59111,-15.1749 0.68335,-1.6665 -3.79855,-28.403 -17.05641,-101.7487 l -17.98333,-99.4883 v -21.7634 -21.7633 l 9.44614,-33.02614 9.44615,-33.02612 1.13794,-19.46179 1.13794,-19.46179 -5.58409,-16.30272 c -3.07124,-8.9665 -5.58408,-16.81688 -5.58408,-17.44528 0,-1.2698 4.95604,-6.752 6.10396,-6.752 0.40138,0 3.75256,9.06888 7.44706,20.15307 l 6.71728,20.15307 -1.19101,20.09693 -1.19101,20.09693 -9.44314,33.23234 -9.44314,33.2323 0.009,20.7677 0.009,20.7677 21.88115,121 c 12.03463,66.55 21.58981,121.3184 21.23374,121.7076 -0.35607,0.3892 -2.40898,-0.2858 -4.56202,-1.5 z m -440.5701,-59.0787 c 0,-12.5703 0.20463,-14.4219 1.57168,-14.2213 2.48448,0.3647 12.42832,8.5473 12.42832,10.227 0,1.6088 -7.71674,12.3036 -11.65712,16.1558 l -2.34288,2.2905 z m 236.5,-63.5821 c -24.07767,-14.3015 -35.08958,-21.376 -35.28706,-22.67 -0.15789,-1.0346 1.73983,-4.7595 4.21715,-8.2776 2.47732,-3.5181 4.29471,-6.7355 4.03864,-7.1498 -0.25607,-0.4144 -5.19129,-3.9701 -10.96716,-7.9017 -5.77586,-3.9316 -10.50157,-7.8217 -10.50157,-8.6447 0,-1.7224 29.46382,-40.7059 37.87191,-50.1083 3.09545,-3.4615 6.1472,-6.2939 6.78167,-6.2942 0.63448,-3e-4 5.96198,7.5347 11.83891,16.7444 l 10.68531,16.7449 9.90074,41.5051 c 5.4454,22.8278 10.1951,44.9926 10.55487,49.2551 0.65041,7.7057 0.64047,7.7495 -1.73963,7.6679 -1.31658,-0.045 -18.14378,-9.4372 -37.39378,-20.8711 z M -6.0427,922.1317 c 1.219,-2.395 5.32811,-9.91114 9.13135,-16.70255 5.63803,-10.06775 8.57261,-17.1774 15.89127,-38.5 L 27.9562,840.77716 27.26253,802.39355 26.56886,764.00995 18.83243,740.67155 11.096,717.33314 0.66805,703.55515 c -10.38364,-13.71946 -18.77981,-25.66696 -18.77981,-26.72312 0,-0.30518 15.02611,-0.55487 33.39136,-0.55487 h 33.39136 l 18.08991,26.25 c 10.11974,14.6846 24.26637,33.63647 32.10864,43.01509 7.7103,9.22079 14.01873,17.03144 14.01873,17.35698 0,0.32555 -0.7875,0.31766 -1.75,-0.0175 -1.42774,-0.49722 -1.3817,-0.308 0.25,1.02754 1.76418,1.44397 1.78402,1.56217 0.16821,1.00245 -1.00748,-0.34899 -2.49654,-0.63453 -3.30901,-0.63453 -0.89877,0 -1.19555,-0.48948 -0.75789,-1.25 0.41104,-0.71427 0.33466,-0.89832 -0.17823,-0.42942 -0.49366,0.45132 -0.90331,1.57515 -0.91033,2.49741 -0.007,0.92226 -0.55275,1.678 -1.21275,1.67943 -0.66,10e-4 -1.785,0.6311 -2.5,1.39928 -0.95816,1.02944 -0.97131,1.21114 -0.05,0.69099 0.6875,-0.38815 1.25,-0.28427 1.25,0.23085 0,1.09186 -2.12268,3.01061 -3.33333,3.01309 -0.45834,9.4e-4 -1.13334,0.33635 -1.5,0.74536 -0.36667,0.40901 -0.10417,0.41996 0.58333,0.0243 0.6875,-0.39564 1.25,-0.29788 1.25,0.21723 0,1.22056 -2.53174,3.31639 -3.19951,2.64862 -0.28352,-0.28352 -1.14211,0.25677 -1.90799,1.20063 -0.92139,1.13552 -0.9696,1.46205 -0.1425,0.96515 1.86876,-1.12272 1.50815,0.91277 -0.44196,2.49462 -1.14966,0.93255 -1.45126,0.9718 -0.94098,0.12244 1.09453,-1.82185 0.10413,-1.52899 -1.49462,0.44196 -0.93255,1.14966 -0.9718,1.45126 -0.12244,0.94098 0.6875,-0.41304 1.25,-0.30097 1.25,0.24903 0,1.10692 -1.94597,2.56649 -3.5,2.62516 -0.55,0.0208 -0.88156,0.75512 -0.7368,1.63191 0.14476,0.87679 -0.50412,2.21669 -1.44196,2.97756 -1.14193,0.92646 -1.45711,0.97052 -0.95418,0.1334 1.09453,-1.82185 0.10413,-1.52899 -1.49462,0.44196 -0.93255,1.14966 -0.9718,1.45126 -0.12244,0.94098 0.6875,-0.41304 1.25,-0.30097 1.25,0.24903 0,1.00132 -1.91336,2.57393 -3.16667,2.60272 -0.36666,0.008 -1.04166,0.42496 -1.5,0.92564 -0.48416,0.52889 -0.30957,0.60891 0.41667,0.19098 0.6875,-0.39564 1.25,-0.29789 1.25,0.21723 0,1.22056 -2.53174,3.31639 -3.19951,2.64862 -0.28352,-0.28352 -1.14211,0.25676 -1.90799,1.20063 -0.92139,1.13552 -0.9696,1.46205 -0.1425,0.96515 1.59418,-0.95775 1.62983,0.58723 0.05,2.16706 -1.45112,1.45112 -3.16536,1.60018 -2.3,0.2 0.33992,-0.55 0.16751,-1 -0.38313,-1 -0.55064,0 -10.76354,-12.825 -22.69534,-28.5 -11.93179,-15.675 -22.08283,-28.5 -22.55785,-28.5 -1.28936,0 -1.11867,0.86794 1.97889,10.06241 l 2.84257,8.43759 0.67173,39.57783 0.67172,39.57784 -7.77561,22.92216 -7.77562,22.92217 -13.78909,18.72214 c -7.584,10.29718 -14.24955,19.00672 -14.81234,19.35454 -0.56278,0.34782 -0.0259,-1.32715 1.19313,-3.72214 z m 212.70624,-29.72619 c -24.99075,-9.44959 -26.05607,-9.96567 -37.33919,-18.08835 -6.38796,-4.59867 -12.19578,-8.94252 -12.90625,-9.65299 -0.71047,-0.71048 -1.57034,-1.0132 -1.91081,-0.67272 -0.34048,0.34047 -0.61866,0.20654 -0.61818,-0.29762 4.8e-4,-0.50417 4.38798,-5.45598 9.75,-11.00402 5.36202,-5.54804 8.62507,-8.69804 7.25123,-7 -2.42632,2.99887 -2.39049,2.98858 1.25,-0.35882 3.72058,-3.42104 4.76511,-4.80053 2.64077,-3.48762 -0.73823,0.45625 -0.89128,0.004 -0.45933,-1.35682 0.3563,-1.12259 0.22176,-2.30439 -0.29898,-2.62623 -0.52074,-0.32183 -0.71542,-1.46996 -0.43262,-2.5514 1.06129,-4.05837 2.65251,-4.00297 8.45616,0.29442 4.74863,3.51619 10.28943,5.74663 35.16632,14.1561 l 29.52956,9.98228 22.07872,-3.11938 22.07872,-3.11938 19.24429,-12.00373 c 10.58436,-6.60205 21.02292,-12.84036 23.1968,-13.8629 l 3.95251,-1.85917 2.74909,-15 c 1.51199,-8.25 2.74308,-16.575 2.73575,-18.5 -0.01,-2.58164 -2.8178,-8.48536 -10.7016,-22.5 l -10.68826,-19 -13.5,-4.68081 c -7.425,-2.57444 -14.76429,-4.71194 -16.30954,-4.75 -1.54524,-0.038 -7.80507,1.05849 -13.91072,2.43675 -6.10565,1.37827 -11.36636,2.23341 -11.69046,1.90031 -0.58294,-0.59913 6.52246,-7.4075 10.43713,-10.00084 1.11453,-0.73834 5.16453,-2.0041 9,-2.81281 l 6.97359,-1.47039 16.57812,5.44149 c 11.05935,3.63004 17.24859,6.18964 18.59218,7.68889 1.93586,2.16016 23.36583,40.41825 24.63756,43.98449 0.3407,0.95539 -0.71419,9.03824 -2.3442,17.96188 -3.06652,16.7879 -3.4937,20.80177 -2.21366,20.8 0.4125,-5.6e-4 3,-2.18342 5.75,-4.85078 4.46801,-4.33374 6.09219,-7.30145 15.26511,-27.89241 5.64582,-12.67346 11.11976,-26.35311 12.16431,-30.39921 l 1.8992,-7.35656 0.0857,13.96033 0.0857,13.96033 -8.6079,19.03967 c -7.73751,17.11445 -9.2094,19.65485 -14.55648,25.12356 l -5.94858,6.08389 0.69044,5.20479 c 0.41609,3.13659 1.13392,5.05898 1.80648,4.83785 1.13124,-0.37193 4.68875,-5.87804 18.79195,-29.08507 l 7.82407,-12.87466 v 9.56564 c 0,5.2611 -0.39871,9.81206 -0.88603,10.11323 -0.48732,0.30118 -5.32482,7.76753 -10.75,16.59189 l -9.86397,16.04428 -26.46584,19.1172 c -14.55621,10.51446 -27.15621,19.27774 -28,19.47397 -2.69415,0.62652 -70.34311,8.34604 -72.48039,8.27083 -1.12957,-0.0397 -13.62989,-4.44946 -27.77847,-9.79938 z m 30.31997,-0.62835 c -0.006,-0.55 -6.89198,-3.29102 -15.30282,-6.09115 -26.5451,-8.83737 -27.63118,-8.12199 -2.50349,1.649 14.79992,5.75501 17.82777,6.51036 17.80631,4.44215 z m -72.09527,-38.20821 c 0,-0.75088 -0.89783,0.043 -5.04179,4.45821 l -4.45821,4.75 4.75,-4.45821 c 2.6125,-2.45201 4.75,-4.58951 4.75,-4.75 z m 10.57872,-16.0656 c -1.72194,-1.64929 -1.74325,-1.62798 -0.47833,0.47833 0.72815,1.21249 1.53915,1.98927 1.80223,1.72619 0.26308,-0.26308 -0.33267,-1.25511 -1.3239,-2.20452 z m -43.54117,49.98509 c 0.0619,-1.17337 6.8036,-8.70346 7.3252,-8.18187 0.2654,0.26541 -1.28264,2.37494 -3.4401,4.68785 -2.15746,2.31291 -3.90575,3.88522 -3.8851,3.49402 z M -13.12366,841.00661 c -28.02447,-19.51985 -29.9881,-20.96884 -29.9881,-22.12851 0,-0.55773 1.8,-3.58013 4,-6.71644 2.2,-3.13632 4,-5.94134 4,-6.23338 0,-0.29204 -7.875,-6.26742 -17.5,-13.27863 -10.28476,-7.4918 -17.5,-13.41911 -17.5,-14.37624 0,-2.01063 60.31534,-57.99625 62.48147,-57.99625 2.11288,0 2.2216,0.29058 13.02876,34.82256 l 9.48977,30.32257 v 20.02791 c 0,24.28064 -3.45584,49.82696 -6.74046,49.82696 -0.43084,0 -10.00299,-6.42175 -21.27144,-14.27055 z m 121.2119,3.07055 c -0.66,-0.66 -1.20689,-1.8975 -1.21531,-2.75 -0.0135,-1.3658 -0.13052,-1.37174 -0.98469,-0.05 -0.84345,1.30514 -0.97136,1.28857 -0.98469,-0.12756 -0.008,-0.89515 0.74607,-2.24515 1.67665,-3 1.45936,-1.18376 1.57044,-1.16623 0.80804,0.12756 -0.7624,1.29379 -0.65132,1.31132 0.80804,0.12756 1.83173,-1.48582 2.31969,-2.63355 0.69196,-1.62756 -0.55,0.33992 -1,0.16803 -1,-0.38197 0,-1.10692 1.94597,-2.56649 3.5,-2.62516 0.55,-0.0208 0.88156,-0.75512 0.7368,-1.63191 -0.14476,-0.87679 0.50412,-2.21669 1.44196,-2.97756 1.47491,-1.1966 1.5858,-1.18086 0.82124,0.1166 -0.7624,1.29379 -0.65132,1.31132 0.80804,0.12756 1.83173,-1.48582 2.31969,-2.63355 0.69196,-1.62756 -0.55,0.33992 -1,0.16803 -1,-0.38197 0,-1.00132 1.91336,-2.57393 3.16667,-2.60272 0.36666,-0.008 1.04166,-0.42496 1.5,-0.92564 0.48416,-0.52889 0.30957,-0.60891 -0.41667,-0.19098 -0.6875,0.39564 -1.25,0.29789 -1.25,-0.21723 0,-1.22056 2.53174,-3.31639 3.19951,-2.64862 0.28352,0.28352 1.14211,-0.25676 1.90799,-1.20063 0.92139,-1.13552 0.9696,-1.46205 0.1425,-0.96515 -1.86876,1.12272 -1.50815,-0.91277 0.44196,-2.49462 1.45936,-1.18376 1.57044,-1.16623 0.80804,0.12756 -0.7624,1.29379 -0.65132,1.31132 0.80804,0.12756 1.83173,-1.48582 2.31969,-2.63355 0.69196,-1.62756 -0.55,0.33992 -1,0.16803 -1,-0.38197 0,-1.00132 1.91336,-2.57393 3.16667,-2.60272 0.36666,-0.008 1.04166,-0.42496 1.5,-0.92564 0.48416,-0.52889 0.30957,-0.60891 -0.41667,-0.19098 -0.6875,0.39564 -1.25,0.29789 -1.25,-0.21723 0,-1.22056 2.53174,-3.31639 3.19951,-2.64862 0.28352,0.28352 1.14211,-0.25676 1.90799,-1.20063 0.92139,-1.13552 0.9696,-1.46205 0.1425,-0.96515 -0.6875,0.41304 -1.25,0.32952 -1.25,-0.1856 0,-1.07739 3.09257,-3.84813 3.73703,-3.34813 0.2363,0.18334 0.72964,-10e-4 1.0963,-0.41032 0.36667,-0.40901 0.10417,-0.41996 -0.58333,-0.0243 -1.75998,1.01282 -1.56107,-0.89563 0.25,-2.39869 0.825,-0.68469 1.5,-0.87479 1.5,-0.42244 0,0.45234 0.54,0.28244 1.2,-0.37756 2.03532,-2.03532 3.29627,-1.3845 7.62317,3.93462 4.75309,5.84303 5.00118,6.86947 2.09847,8.68224 -1.63159,1.01895 -2.39173,1.03789 -3.53616,0.0881 -1.80207,-1.49559 -2.71058,-0.6651 -21.16234,19.34504 -7.48071,8.1125 -13.87621,14.75 -14.21222,14.75 -0.336,0 -1.15092,-0.54 -1.81092,-1.2 z m 13.8,-12.50821 c 0,-0.75088 -0.89783,0.043 -5.04179,4.45821 l -4.45821,4.75 4.75,-4.45821 c 2.6125,-2.45201 4.75,-4.58951 4.75,-4.75 z m 8.5,-9.29179 c 2.14824,-2.2 3.6809,-4 3.4059,-4 -0.275,0 -2.25766,1.8 -4.4059,4 -2.14824,2.2 -3.6809,4 -3.4059,4 0.275,0 2.25766,-1.8 4.4059,-4 z m 14.80594,-12.04496 c 2.00235,1.24689 2.07414,1.22117 0.82162,-0.29438 -1.86105,-2.25187 -3.45611,-2.0876 -5.72257,0.58934 l -1.90499,2.25 2.30594,-1.95561 c 2.02318,-1.71581 2.57498,-1.78808 4.5,-0.58935 z m -6.72184,-13.3136 c 0.34643,-0.90279 1.33173,-1.64144 2.18956,-1.64144 0.85782,0 1.37217,0.12734 1.14301,0.28297 -0.22917,0.15563 -1.21447,0.89428 -2.18956,1.64144 -1.54348,1.18269 -1.69139,1.14607 -1.14301,-0.28297 z"
             id="path1365"
             inkscape:connector-curvature="0" />
          <path
             style="fill:#f2da8c"
             d="m -107.43343,1296.5272 c 40.7056,-52.4585 44.42661,-57.1969 45.37788,-57.7848 0.50239,-0.3105 14.08277,7.4058 30.17861,17.1472 16.09585,9.7414 49.6564,30.0138 74.57901,45.0496 l 45.31382,27.338 H -22.02712 -132.07013 Z m 278.89177,14.4576 c -3.94336,-2.2239 -4.84722,-3.8717 -6.04557,-11.0218 -0.74307,-4.4337 -2.76899,-4.493 -3.53096,-0.1033 -0.61728,3.5561 -3.46933,4.2145 -6.85134,1.5817 l -2.35777,-1.8354 2.66417,-12.9144 c 1.4653,-7.103 3.0813,-13.9316 3.59111,-15.1749 0.68335,-1.6665 -3.79855,-28.403 -17.05641,-101.7487 l -17.98333,-99.4883 v -21.7634 -21.7633 l 9.44614,-33.02614 9.44615,-33.02612 1.13794,-19.46179 1.13794,-19.46179 -5.58409,-16.30272 c -3.07124,-8.9665 -5.58408,-16.81688 -5.58408,-17.44528 0,-1.2698 4.95604,-6.752 6.10396,-6.752 0.40138,0 3.75256,9.06888 7.44706,20.15307 l 6.71728,20.15307 -1.19101,20.09693 -1.19101,20.09693 -9.44314,33.23234 -9.44314,33.2323 0.009,20.7677 0.009,20.7677 21.88115,121 c 12.03463,66.55 21.58981,121.3184 21.23374,121.7076 -0.35607,0.3892 -2.40898,-0.2858 -4.56202,-1.5 z m -440.5701,-59.0076 c 0,-7.535 0.25125,-13.7 0.55834,-13.7 1.37287,0 11.33584,8.6432 11.38585,9.8776 0.0449,1.1082 -7.58293,12.4722 -11.12378,16.5724 -0.45122,0.5225 -0.82041,-5.215 -0.82041,-12.75 z m 237.5,-65.1334 c -18.7,-11.1311 -34.1289,-20.901 -34.28644,-21.711 -0.15754,-0.8099 1.23374,-3.4713 3.09173,-5.9141 4.62912,-6.0862 6.06086,-8.9754 4.98232,-10.0539 -0.49372,-0.4937 -5.3705,-3.9329 -10.83729,-7.6427 -5.46678,-3.7097 -10.04986,-7.4199 -10.18461,-8.2449 -0.25701,-1.5735 27.43924,-38.4109 36.4912,-48.5351 4.52551,-5.0616 5.44362,-5.6769 6.59881,-4.4223 1.32354,1.4374 17.31494,26.605 19.50554,30.6981 1.57153,2.9364 19.84321,80.2482 20.91893,88.513 0.89207,6.8537 0.74037,7.8231 -1.19686,7.6487 -0.59583,-0.054 -16.38333,-9.2047 -35.08333,-20.3358 z M -6.0427,922.1317 c 1.219,-2.395 5.32811,-9.91114 9.13135,-16.70255 5.63803,-10.06775 8.57261,-17.1774 15.89127,-38.5 L 27.9562,840.77716 27.26253,802.39355 26.56886,764.00995 18.83243,740.67155 11.096,717.33314 0.66805,703.55515 c -10.38364,-13.71946 -18.77981,-25.66696 -18.77981,-26.72312 0,-0.30518 15.02611,-0.55487 33.39136,-0.55487 h 33.39136 l 18.08991,26.25 c 10.11974,14.6846 24.26637,33.63647 32.10864,43.01509 7.7103,9.22079 14.01873,16.97204 14.01873,17.225 0,0.25295 -1.2375,0.21745 -2.75,-0.0789 -2.57658,-0.50483 -3.69591,0.69293 -17.75,18.99381 -8.25,10.74294 -15.53647,19.54665 -16.19215,19.5638 -0.65568,0.0172 -10.95452,-12.79381 -22.88632,-28.46881 -11.93179,-15.675 -22.08283,-28.5 -22.55785,-28.5 -1.28936,0 -1.11867,0.86794 1.97889,10.06241 l 2.84257,8.43759 0.67173,39.57783 0.67172,39.57784 -7.77561,22.92216 -7.77562,22.92217 -13.78909,18.72214 c -7.584,10.29718 -14.24955,19.00672 -14.81234,19.35454 -0.56278,0.34782 -0.0259,-1.32715 1.19313,-3.72214 z m 212.69813,-29.72923 c -25.33108,-9.57825 -25.9278,-9.86984 -38.2234,-18.67773 -6.86982,-4.92117 -12.50256,-9.33994 -12.51719,-9.81948 -0.0146,-0.47955 4.6984,-5.98927 10.4734,-12.24382 5.775,-6.25456 10.5,-11.76961 10.5,-12.25566 0,-0.48605 -0.675,-1.44393 -1.5,-2.12862 -1.83094,-1.51955 -1.92481,-3.40255 -0.23933,-4.80137 0.92588,-0.76841 2.7576,0.0622 6.89743,3.12755 4.74863,3.51619 10.28943,5.74663 35.16632,14.1561 l 29.52956,9.98228 22.07872,-3.11938 22.07872,-3.11938 19.24429,-12.00373 c 10.58436,-6.60205 21.02292,-12.84036 23.1968,-13.8629 l 3.95251,-1.85917 2.74909,-15 c 1.51199,-8.25 2.74308,-16.575 2.73575,-18.5 -0.01,-2.58164 -2.8178,-8.48536 -10.7016,-22.5 l -10.68826,-19 -13.5,-4.68081 c -7.425,-2.57444 -14.76429,-4.71194 -16.30954,-4.75 -1.54524,-0.038 -7.80507,1.05849 -13.91072,2.43675 -6.10565,1.37827 -11.36636,2.23341 -11.69046,1.90031 -0.58294,-0.59913 6.52246,-7.4075 10.43713,-10.00084 1.11453,-0.73834 5.16453,-2.0041 9,-2.81281 l 6.97359,-1.47039 16.57812,5.44149 c 11.05935,3.63004 17.24859,6.18964 18.59218,7.68889 1.93586,2.16016 23.36583,40.41825 24.63756,43.98449 0.3407,0.95539 -0.71419,9.03824 -2.3442,17.96188 -3.06652,16.7879 -3.4937,20.80177 -2.21366,20.8 0.4125,-5.6e-4 3,-2.18342 5.75,-4.85078 4.46801,-4.33374 6.09219,-7.30145 15.26511,-27.89241 5.64582,-12.67346 11.11976,-26.35311 12.16431,-30.39921 l 1.8992,-7.35656 0.0857,13.96033 0.0857,13.96033 -8.6079,19.03967 c -7.73751,17.11445 -9.2094,19.65485 -14.55648,25.12356 l -5.94858,6.08389 0.69044,5.20479 c 0.41609,3.13659 1.13392,5.05898 1.80648,4.83785 1.13124,-0.37193 4.68875,-5.87804 18.79195,-29.08507 l 7.82407,-12.87466 v 9.56564 c 0,5.2611 -0.39871,9.81206 -0.88603,10.11323 -0.48732,0.30118 -5.32482,7.76753 -10.75,16.59189 l -9.86397,16.04428 -26.46584,19.1172 c -14.55621,10.51446 -27.15621,19.27774 -28,19.47397 -2.69415,0.62652 -70.34311,8.34604 -72.48039,8.27083 -1.12957,-0.0397 -13.63353,-4.45083 -27.78658,-9.80242 z m 30.32808,-0.62531 c -0.006,-0.55 -6.89198,-3.29102 -15.30282,-6.09115 -26.5451,-8.83737 -27.63118,-8.12199 -2.50349,1.649 14.79992,5.75501 17.82777,6.51036 17.80631,4.44215 z M 4.52759,851.50264 c -0.26327,-0.42599 -9.40233,-6.95305 -20.30901,-14.50458 -10.90669,-7.55154 -21.13751,-14.7762 -22.73516,-16.0548 l -2.90483,-2.32474 4.3175,-6.12221 c 3.70323,-5.25117 4.12887,-6.34949 2.99166,-7.71973 -0.7292,-0.87865 -8.69631,-7.04866 -17.70467,-13.71114 -9.00836,-6.66248 -16.24744,-12.62784 -16.08684,-13.25635 0.4706,-1.84169 59.05818,-55.60987 60.18506,-55.23425 0.56377,0.18793 5.41834,14.26033 10.78794,31.272 l 9.76291,30.93032 0.0464,20.5 c 0.0373,16.46114 -0.38107,23.11048 -2.1233,33.75 -1.84317,11.25594 -2.43904,13.25 -3.95935,13.25 -0.9843,0 -2.00504,-0.34853 -2.26832,-0.77452 z m 102.99937,-7.92009 c -0.35129,-0.3513 -0.63872,-1.2709 -0.63872,-2.04357 0,-1.97351 32.85662,-44.26182 34.38998,-44.26182 1.50096,0 9.61002,9.72717 9.61002,11.52763 0,2.08303 -3.15929,2.63819 -5.08675,0.89386 -0.98864,-0.8947 -2.22556,-1.46805 -2.74873,-1.27411 -0.52316,0.19394 -8.03732,8.00262 -16.69814,17.35262 -16.11515,17.39751 -17.71888,18.91416 -18.82766,17.80539 z"
             id="path1363"
             inkscape:connector-curvature="0" />
          <path
             style="fill:#b5e39d"
             d="m -107.43343,1296.5272 c 40.7056,-52.4585 44.42661,-57.1969 45.37788,-57.7848 0.50239,-0.3105 14.08277,7.4058 30.17861,17.1472 16.09585,9.7414 49.6564,30.0138 74.57901,45.0496 l 45.31382,27.338 H -22.02712 -132.07013 Z m 278.14378,13.2158 c -2.14905,-1.167 -2.89614,-2.5908 -3.78306,-7.21 -1.88175,-9.8003 -3.93364,-11.4871 -5.48111,-4.5058 -1.00569,4.537 -2.59912,5.2918 -5.89663,2.7931 -1.77614,-1.3459 -1.7487,-1.8296 0.80641,-14.2182 1.4548,-7.0537 3.0628,-13.8435 3.57333,-15.0883 0.68511,-1.6705 -3.78226,-28.3104 -17.05641,-101.7109 l -17.98464,-99.4475 v -21.8012 -21.8012 l 9.44737,-33.03042 9.44737,-33.03042 1.12319,-19.4575 1.1232,-19.4575 -5.57057,-16.30272 c -3.06381,-8.9665 -5.57056,-16.87556 -5.57056,-17.57569 0,-1.65568 4.64505,-6.02439 5.25969,-4.9468 0.25888,0.45387 3.28999,9.32645 6.73581,19.71686 l 6.26512,18.89166 -1.17172,20.10834 -1.17172,20.10835 -9.45859,33.23234 -9.45859,33.2323 v 20.7006 20.7006 l 16.45035,91.0671 c 9.0477,50.0869 18.74224,103.8921 21.54344,119.5671 2.8012,15.675 5.28442,29.0625 5.51827,29.75 0.55793,1.6403 -1.35979,1.5241 -4.68995,-0.2842 z m -439.82211,-57.7658 c 0,-7.535 0.25125,-13.7 0.55834,-13.7 1.37287,0 11.33584,8.6432 11.38585,9.8776 0.0449,1.1082 -7.58293,12.4722 -11.12378,16.5724 -0.45122,0.5225 -0.82041,-5.215 -0.82041,-12.75 z m 237.5,-65.1334 c -18.7,-11.1311 -34.1289,-20.901 -34.28644,-21.711 -0.15754,-0.8099 1.23374,-3.4713 3.09173,-5.9141 4.62912,-6.0862 6.06086,-8.9754 4.98232,-10.0539 -0.49372,-0.4937 -5.3705,-3.9329 -10.83729,-7.6427 -5.46678,-3.7097 -10.04986,-7.4199 -10.18461,-8.2449 -0.25701,-1.5735 27.43924,-38.4109 36.4912,-48.5351 4.52551,-5.0616 5.44362,-5.6769 6.59881,-4.4223 1.32354,1.4374 17.31494,26.605 19.50554,30.6981 1.57153,2.9364 19.84321,80.2482 20.91893,88.513 0.89207,6.8537 0.74037,7.8231 -1.19686,7.6487 -0.59583,-0.054 -16.38333,-9.2047 -35.08333,-20.3358 z M -0.08647,913.27716 c 1.23495,-2.475 4.22873,-8.00584 6.65284,-12.29075 2.81106,-4.96888 7.66506,-17.28227 13.40114,-33.99534 l 8.99366,-26.20459 -0.64001,-38.00466 -0.64001,-38.00466 -7.89571,-24 -7.89571,-24 -9.6237,-12.5 c -5.29304,-6.875 -11.61518,-15.5375 -14.0492,-19.25 -2.43402,-3.7125 -4.85369,-6.75 -5.37704,-6.75 -0.52335,0 -0.95155,-0.45599 -0.95155,-1.0133 0,-0.66959 11.44807,-0.92399 33.75,-0.75 23.86173,0.18616 33.75,0.58783 33.75,1.37096 0,2.56826 35.6699,52.60451 47.5019,66.63368 10.76087,12.75914 12.59284,15.39709 11.18351,16.10371 -0.92697,0.46477 -8.38918,9.59268 -16.58268,20.28424 -8.1935,10.69156 -15.24423,19.31129 -15.66828,19.15495 -0.42406,-0.15633 -9.848,-12.20924 -20.94211,-26.78424 -11.0941,-14.575 -21.10932,-27.5125 -22.25603,-28.75 -4.58937,-4.9527 -4.86136,-1.96367 -0.8929,9.81241 l 2.84341,8.43759 0.69272,39.4421 0.69272,39.44211 -7.58357,22.58532 -7.58358,22.58533 -10.55678,14.47257 C -1.98176,918.05504 -3.14179,919.40042 -0.08647,913.27716 Z M 206.83342,891.4239 c -24.83779,-9.38214 -25.88467,-9.8898 -37.31023,-18.0928 -6.46546,-4.64189 -11.97127,-8.7891 -12.23512,-9.21602 -0.26385,-0.42692 3.00773,-4.5026 7.27018,-9.05707 15.32455,-16.37442 13.98401,-14.40367 12.03824,-17.6976 -0.93954,-1.59051 -1.70825,-3.1599 -1.70825,-3.48754 0,-1.51295 2.98447,-0.27657 7.61405,3.15429 4.04291,2.99609 10.99795,5.7553 34.59488,13.72454 l 29.53465,9.97454 20.87821,-2.86368 c 11.48301,-1.57503 22.22821,-3.41939 23.87821,-4.09859 1.65,-0.67919 11.64094,-6.63738 22.20209,-13.24042 10.56115,-6.60304 20.3418,-12.29157 21.73477,-12.64119 1.50992,-0.37896 2.73552,-1.53812 3.03496,-2.87043 1.58624,-7.05753 5.52818,-30.48922 5.52818,-32.8606 0,-2.65572 -18.26499,-37.20173 -21.72833,-41.09648 -0.84234,-0.94727 -7.99653,-3.86015 -15.89819,-6.47307 l -14.36666,-4.75075 -11.52862,2.36452 c -6.34074,1.30049 -11.73975,2.15339 -11.99781,1.89534 -0.25805,-0.25806 1.77907,-2.29806 4.52693,-4.53335 3.82363,-3.11038 6.66298,-4.44058 12.09883,-5.66815 l 7.10271,-1.60399 16.75108,5.50747 c 9.21309,3.02912 17.40968,6.28977 18.21463,7.24589 0.80495,0.95612 6.73829,11.3121 13.18519,23.01329 l 11.72164,21.27488 -3.02432,16.72511 c -1.66338,9.19882 -3.14419,17.83168 -3.2907,19.18413 -0.44819,4.13736 2.7197,3.60184 8.01972,-1.3557 4.35359,-4.07228 5.93393,-6.96667 15.57968,-28.53433 7.32029,-16.368 11.05518,-25.99282 11.74244,-30.26036 0.55431,-3.4419 1.20672,-6.45689 1.4498,-6.69998 0.24309,-0.24308 0.44198,5.67588 0.44198,13.15326 0,9.73595 -0.36546,13.97036 -1.28741,14.91667 -0.70808,0.72679 -4.8116,9.19643 -9.11894,18.82143 -6.95556,15.54259 -8.49015,18.17494 -13.71981,23.53419 l -5.88829,6.0342 0.65293,6.24683 c 0.72454,6.93206 1.39965,7.96089 3.55077,5.4112 3.03622,-3.5988 23.81075,-38.14061 23.81075,-39.59014 0,-0.83504 0.45,-1.79636 1,-2.13628 1.31506,-0.81275 1.31506,15.46508 0,17.5 -0.53316,0.825 -0.97627,1.07107 -0.98469,0.54681 -0.008,-0.52425 -4.26251,5.93459 -9.45352,14.35299 -5.19102,8.41839 -10.19265,16.13981 -11.11473,17.1587 -2.23857,2.47358 -49.53173,36.57888 -52.56571,37.90757 -2.30588,1.00982 -68.92485,9.13581 -73.24164,8.9338 -1.17684,-0.0551 -13.63938,-4.44398 -27.69453,-9.75313 z m 32.64858,1.70156 c 0.39148,-0.63344 -0.11305,-1.75485 -1.12119,-2.49202 -2.59774,-1.89951 -52.64905,-18.36524 -53.75244,-17.68331 -2.07098,1.27993 2.96014,3.6717 25.77987,12.25561 24.05985,9.0504 27.77066,10.06053 29.09376,7.91972 z m 68.18373,-9.405 c 1.22238,-0.85619 2.22251,-1.95778 2.22251,-2.44798 0,-1.22345 -5.60686,0.82604 -7.06439,2.58227 -1.68156,2.02615 1.89921,1.92684 4.84188,-0.13429 z M 4.52759,851.50264 c -0.26327,-0.42599 -9.40233,-6.95305 -20.30901,-14.50458 -10.90669,-7.55154 -21.13751,-14.7762 -22.73516,-16.0548 l -2.90483,-2.32474 4.3175,-6.12221 c 3.70323,-5.25117 4.12887,-6.34949 2.99166,-7.71973 -0.7292,-0.87865 -8.69631,-7.04866 -17.70467,-13.71114 -9.00836,-6.66248 -16.24744,-12.62784 -16.08684,-13.25635 0.4706,-1.84169 59.05818,-55.60987 60.18506,-55.23425 0.56377,0.18793 5.41834,14.26033 10.78794,31.272 l 9.76291,30.93032 0.0464,20.5 c 0.0373,16.46114 -0.38107,23.11048 -2.1233,33.75 -1.84317,11.25594 -2.43904,13.25 -3.95935,13.25 -0.9843,0 -2.00504,-0.34853 -2.26832,-0.77452 z m 103.67494,-10.60212 c 0.84781,-2.20936 32.10296,-42.54209 33.00027,-42.58469 0.77896,-0.037 4.72419,4.24307 7.49337,8.1293 1.96419,2.75651 0.48191,4.25196 -2.36535,2.38637 -1.30472,-0.85489 -2.8067,-1.55434 -3.33774,-1.55434 -0.53103,0 -8.2537,7.875 -17.16147,17.5 -14.79299,15.98407 -19.08031,19.90521 -17.62908,16.12336 z"
             id="path1361"
             inkscape:connector-curvature="0" />
          <path
             style="fill:#f0d064"
             d="m 170.71035,1309.743 c -2.14905,-1.167 -2.89614,-2.5908 -3.78306,-7.21 -1.88175,-9.8003 -3.93364,-11.4871 -5.48111,-4.5058 -1.00569,4.537 -2.59912,5.2918 -5.89663,2.7931 -1.77614,-1.3459 -1.7487,-1.8296 0.80641,-14.2182 1.4548,-7.0537 3.0628,-13.8435 3.57333,-15.0883 0.68511,-1.6705 -3.78226,-28.3104 -17.05641,-101.7109 l -17.98464,-99.4475 v -21.8012 -21.8012 l 9.44737,-33.03042 9.44737,-33.03042 1.12319,-19.4575 1.1232,-19.4575 -5.57057,-16.30272 c -3.06381,-8.9665 -5.57056,-16.87556 -5.57056,-17.57569 0,-1.65568 4.64505,-6.02439 5.25969,-4.9468 0.25888,0.45387 3.28999,9.32645 6.73581,19.71686 l 6.26512,18.89166 -1.17172,20.10834 -1.17172,20.10835 -9.45859,33.23234 -9.45859,33.2323 v 20.7006 20.7006 l 16.45035,91.0671 c 9.0477,50.0869 18.74224,103.8921 21.54344,119.5671 2.8012,15.675 5.28442,29.0625 5.51827,29.75 0.55793,1.6403 -1.35979,1.5241 -4.68995,-0.2842 z M -0.08647,913.27716 c 1.23495,-2.475 4.22873,-8.00584 6.65284,-12.29075 2.81106,-4.96888 7.66506,-17.28227 13.40114,-33.99534 l 8.99366,-26.20459 -0.64001,-38.00466 -0.64001,-38.00466 -7.89571,-24 -7.89571,-24 -9.6237,-12.5 c -5.29304,-6.875 -11.61518,-15.5375 -14.0492,-19.25 -2.43402,-3.7125 -4.85369,-6.75 -5.37704,-6.75 -0.52335,0 -0.95155,-0.45599 -0.95155,-1.0133 0,-0.66959 11.44807,-0.92399 33.75,-0.75 23.86173,0.18616 33.75,0.58783 33.75,1.37096 0,2.56826 35.6699,52.60451 47.5019,66.63368 10.76087,12.75914 12.59284,15.39709 11.18351,16.10371 -0.92697,0.46477 -8.38918,9.59268 -16.58268,20.28424 -8.1935,10.69156 -15.24423,19.31129 -15.66828,19.15495 -0.42406,-0.15633 -9.848,-12.20924 -20.94211,-26.78424 -11.0941,-14.575 -21.10932,-27.5125 -22.25603,-28.75 -4.58937,-4.9527 -4.86136,-1.96367 -0.8929,9.81241 l 2.84341,8.43759 0.69272,39.4421 0.69272,39.44211 -7.58357,22.58532 -7.58358,22.58533 -10.55678,14.47257 C -1.98176,918.05504 -3.14179,919.40042 -0.08647,913.27716 Z M 206.83342,891.4239 c -24.83779,-9.38214 -25.88467,-9.8898 -37.31023,-18.0928 -6.46546,-4.64189 -11.97127,-8.7891 -12.23512,-9.21602 -0.26385,-0.42692 3.00773,-4.5026 7.27018,-9.05707 15.32455,-16.37442 13.98401,-14.40367 12.03824,-17.6976 -0.93954,-1.59051 -1.70825,-3.1599 -1.70825,-3.48754 0,-1.51295 2.98447,-0.27657 7.61405,3.15429 4.04291,2.99609 10.99795,5.7553 34.59488,13.72454 l 29.53465,9.97454 20.87821,-2.86368 c 11.48301,-1.57503 22.22821,-3.41939 23.87821,-4.09859 1.65,-0.67919 11.64094,-6.63738 22.20209,-13.24042 10.56115,-6.60304 20.3418,-12.29157 21.73477,-12.64119 1.50992,-0.37896 2.73552,-1.53812 3.03496,-2.87043 1.58624,-7.05753 5.52818,-30.48922 5.52818,-32.8606 0,-2.65572 -18.26499,-37.20173 -21.72833,-41.09648 -0.84234,-0.94727 -7.99653,-3.86015 -15.89819,-6.47307 l -14.36666,-4.75075 -11.52862,2.36452 c -6.34074,1.30049 -11.73975,2.15339 -11.99781,1.89534 -0.25805,-0.25806 1.77907,-2.29806 4.52693,-4.53335 3.82363,-3.11038 6.66298,-4.44058 12.09883,-5.66815 l 7.10271,-1.60399 16.75108,5.50747 c 9.21309,3.02912 17.40968,6.28977 18.21463,7.24589 0.80495,0.95612 6.73829,11.3121 13.18519,23.01329 l 11.72164,21.27488 -3.02432,16.72511 c -1.66338,9.19882 -3.14419,17.83168 -3.2907,19.18413 -0.44819,4.13736 2.7197,3.60184 8.01972,-1.3557 4.35359,-4.07228 5.93393,-6.96667 15.57968,-28.53433 7.32029,-16.368 11.05518,-25.99282 11.74244,-30.26036 0.55431,-3.4419 1.20672,-6.45689 1.4498,-6.69998 0.24309,-0.24308 0.44198,5.67588 0.44198,13.15326 0,9.73595 -0.36546,13.97036 -1.28741,14.91667 -0.70808,0.72679 -4.8116,9.19643 -9.11894,18.82143 -6.95556,15.54259 -8.49015,18.17494 -13.71981,23.53419 l -5.88829,6.0342 0.65293,6.24683 c 0.72454,6.93206 1.39965,7.96089 3.55077,5.4112 3.03622,-3.5988 23.81075,-38.14061 23.81075,-39.59014 0,-0.83504 0.45,-1.79636 1,-2.13628 1.31506,-0.81275 1.31506,15.46508 0,17.5 -0.53316,0.825 -0.97627,1.07107 -0.98469,0.54681 -0.008,-0.52425 -4.26251,5.93459 -9.45352,14.35299 -5.19102,8.41839 -10.19265,16.13981 -11.11473,17.1587 -2.23857,2.47358 -49.53173,36.57888 -52.56571,37.90757 -2.30588,1.00982 -68.92485,9.13581 -73.24164,8.9338 -1.17684,-0.0551 -13.63938,-4.44398 -27.69453,-9.75313 z m 32.64858,1.70156 c 0.39148,-0.63344 -0.11305,-1.75485 -1.12119,-2.49202 -2.59774,-1.89951 -52.64905,-18.36524 -53.75244,-17.68331 -2.07098,1.27993 2.96014,3.6717 25.77987,12.25561 24.05985,9.0504 27.77066,10.06053 29.09376,7.91972 z m 68.18373,-9.405 c 1.22238,-0.85619 2.22251,-1.95778 2.22251,-2.44798 0,-1.22345 -5.60686,0.82604 -7.06439,2.58227 -1.68156,2.02615 1.89921,1.92684 4.84188,-0.13429 z m -199.4632,-42.81994 c 0.84781,-2.20936 32.10296,-42.54209 33.00027,-42.58469 0.77896,-0.037 4.72419,4.24307 7.49337,8.1293 1.96419,2.75651 0.48191,4.25196 -2.36535,2.38637 -1.30472,-0.85489 -2.8067,-1.55434 -3.33774,-1.55434 -0.53103,0 -8.2537,7.875 -17.16147,17.5 -14.79299,15.98407 -19.08031,19.90521 -17.62908,16.12336 z"
             id="path1359"
             inkscape:connector-curvature="0" />
        </g>
      </g>
    </g>
  </g>
</svg>
