<svg viewBox="0 0 64 64" xmlns="http://www.w3.org/2000/svg"><path d="M0 32.035v-32h63.997v63.998H0z" fill="#8e959e"/><path d="M0 32.035v-32l32-.003 31.586.004.415 3.996c.007 20.612 0 40.048 0 60.001H.002z" fill="#6b81a0"/><path d="m54.001 16.072-23-3-2-13h28.001z" fill="#436c62"/><path d="M.514 63.577c.127-.22.498-.786.824-1.257.585-.845.58-.906-.37-4.29C.004 54.6.002 54.584.011 46.12l.009-8.476 4.39.184c3.672.155 5.423.426 10.71 1.66 5.356 1.25 7.187 1.847 11.995 3.905 6.973 2.985 10.763 5.144 14.406 8.206 3.083 2.592 6.473 5.018 7.012 5.018.19 0 .543.237.784.526.24.29 2.334 1.796 4.652 3.348s4.309 2.971 4.421 3.154c.337.545-.347.38-1.943-.468-.827-.44-1.675-.8-1.883-.8-.208 0-.57.36-.806.8-.427.798-.441.8-5.146.8-3.732 0-4.704-.088-4.655-.424.034-.233.546-1.177 1.137-2.098.662-1.033.96-1.79.777-1.973s-.899.622-1.865 2.099l-1.567 2.396H21.362c-16.772 0-21.031-.082-20.847-.4zm57.918-9.041c-2.62-1.847-4.954-3.359-5.183-3.359-.23 0-.536-.21-.68-.468-.144-.257-1.14-1.085-2.213-1.84-2.353-1.655-5.877-4.824-5.877-5.285 0-.213.74-.273 2.049-.168 1.861.15 2.207.074 3.777-.825 2.79-1.596 3.81-4.601 2.757-8.118-.515-1.717-3.145-4.093-4.538-4.1-1.311 0-2.445-.317-2.445-.672 0-.155 1.343-.922 2.985-1.705 1.757-.837 5.4-3.145 8.849-5.605 3.225-2.3 5.877-4.143 5.894-4.097.168.455-.206 39.602-.378 39.602-.127 0-2.375-1.512-4.997-3.36zm-3.845-8.8c.562-1.32 1.127-2.758 1.256-3.198l.235-.8-.626.8c-1.163 1.487-3.26 5.234-3.086 5.515.46.745 1.284-.116 2.221-2.317zm5.604-8.836c2.011-2.37 2.206-2.725 2.193-4.001-.013-1.318-.043-1.363-.495-.76-.574.764-4.514 7.054-5.001 7.985l-.342.654.718-.64c.396-.35 1.713-1.808 2.927-3.238zM49.599 55.926c0-.598 2.208-4.11 2.584-4.11.53 0 .314.716-.682 2.268-1.157 1.803-1.902 2.525-1.902 1.842zM34.535 45.94c-3.169-1.904-13.03-5.847-16.455-6.579-4.528-.967-5.642-1.297-5.449-1.61.183-.296.396-.328 8.809-1.308 6.329-.738 15.137-2.851 18.778-4.505 3.298-1.498 3.665-1.558 6.506-1.062 2.01.351 2.857.674 3.837 1.46 1.56 1.255 2.359 3.373 2.048 5.436-.476 3.156-2.496 4.764-5.985 4.764-1.924 0-2.246-.106-4.116-1.36-1.554-1.041-2.44-1.973-3.789-3.978-.968-1.44-1.855-2.712-1.972-2.826-.233-.227-6.352 1.348-6.761 1.74-.32.308 3.311 6.521 4.688 8.024 2.67 2.914 2.628 3.466-.138 1.804zM6.4 32.174c0-.244.338-.664.75-.934s1.888-2.537 3.28-5.038c2.482-4.46 2.597-4.605 6.05-7.605a912.51 912.51 0 0 1 3.772-3.267c.139-.114.427-.89.64-1.724.213-.833.532-1.515.708-1.516.303-.001 2.666 8.223 2.702 9.408.024.78-.37.705-2.114-.4-2.977-1.889-6.447-.945-8.73 2.375-.982 1.426-1.008 1.55-.79 3.76.195 1.982.367 2.442 1.298 3.473.59.654 1.074 1.351 1.074 1.55 0 .25-1.325.361-4.32.361-3.467 0-4.32-.088-4.32-.443zm8.883-1.128c-1.469-1.418-1.528-1.547-1.725-3.757-.193-2.162-.154-2.36.703-3.55 1.369-1.905 2.694-2.641 4.753-2.641 3.49 0 6.068 2.577 7.202 7.195.215.878.538 1.687.718 1.798.261.161 5.209-.893 6.883-1.467.26-.09.087-.812-.55-2.308-1.538-3.603-1.12-7.698 1.006-9.893 1.151-1.187 3.739-1.929 5.547-1.59 1.628.306 3.564 2.174 4.183 4.037.51 1.536.505 1.698-.123 3.764-.81 2.67-1.611 3.47-5.16 5.148-3.334 1.577-9.365 3.033-16.637 4.018l-5.278.714zM0 27.204c0-3.775.104-5.135.4-5.254.32-.13.32-.167 0-.187-.311-.02-.4-2.428-.4-10.905V-.022h18.482l.351.88c.193.485.792 2.522 1.33 4.528l.98 3.647-.534 2.432c-.293 1.338-.648 2.657-.79 2.931-.14.274-1.848 1.858-3.794 3.52-3.442 2.94-3.605 3.14-5.987 7.342-1.346 2.376-2.818 4.719-3.27 5.207-.936 1.01-3.35 1.832-5.386 1.832H.001zm44.159-2.757c0-.093.284-1.014.632-2.046.614-1.824.616-1.922.059-3.56-.73-2.15-2.828-4.28-4.672-4.745-2.15-.541-4.722.216-6.43 1.894-.804.788-1.497 1.82-1.648 2.453-.356 1.491-.826 1.467-1.278-.065-.578-1.96-4.601-17.026-4.742-17.755-.114-.591.045-.643 1.963-.643h2.087l-.21.96c-.365 1.66.153 2.92 1.994 4.85 2.096 2.197 3.312 2.531 6.35 1.744 1.055-.273 2.423-.415 3.041-.314l1.124.182.759-3.311C43.92.894 44.52-.406 45.025.099c.208.208-.88 4.849-2.203 9.398-.254.876-.284 1.469-.085 1.668.437.437 10.65 2.964 11.029 2.73.172-.107.313-.465.313-.796 0-.738 2.124-10.636 2.592-12.08l.337-1.04h3.335l3.658-.003c-.018 2.622-.233 5.375-.115 7.708L64 11.975l-1.693 1.149c-.98.778-3.31 2.495-5.177 3.815-1.867 1.32-4.171 2.99-5.12 3.713-2.836 2.154-7.852 4.58-7.852 3.797z" fill="#404b5a"/><path d="M18.283.015c-.096.005-.228.11-.334.28-.145.237.21 2.154.83 4.472 1.05 3.924 1.074 4.14.711 6.556-.206 1.375-.57 2.695-.808 2.934-.239.239-1.937 1.75-3.774 3.358-3.227 2.825-3.425 3.076-5.933 7.543-2.883 5.132-3.294 5.507-6.366 5.824-1.698.175-2.82.723-2.38 1.162.311.312 1.392.227 3.177-.248 2.92-.777 3.344-1.202 6.184-6.234 2.619-4.64 2.67-4.705 6.377-7.917l3.736-3.238.553-2.361c.304-1.3.55-2.63.547-2.957-.005-.685-2.195-8.903-2.438-9.145a.103.103 0 0 0-.082-.03zm8.194.048c-.06 0-.109.055-.147.168-.065.196.976 4.441 2.315 9.434 2.965 11.058 2.673 10.14 3.047 9.55.164-.26.3-.765.303-1.124.002-.359.696-1.334 1.543-2.168 1.311-1.292 1.824-1.568 3.464-1.873 2.763-.514 4.062-.172 5.909 1.555 2.032 1.9 2.864 4.217 2.252 6.271a59.3 59.3 0 0 0-.58 2.067c-.098.396-.106.72-.018.72.493 0 6.096-3.192 7.594-4.326.968-.733 4.027-2.964 6.799-4.959 2.772-1.994 5.04-3.738 5.04-3.873 0-.804-2.037.52-11.972 7.778-2.226 1.625-5.31 3.457-5.842 3.457-.274.003-.29-.3-.06-1.135.25-.91.178-1.55-.37-3.196-.565-1.698-.973-2.306-2.34-3.47-2.124-1.811-3.78-2.283-6.238-1.778-2.269.467-2.8.736-4.29 2.16-.658.628-1.258 1.08-1.333 1.003-.075-.077-1.026-3.453-2.113-7.5C27.85 2.906 26.894.07 26.477.063zm-4.93 12.425c-.218.014-.428.408-.428 1.025 0 1.09-.957 2.152-5.76 6.387-2.137 1.885-2.661 2.595-4.799 6.502-1.496 2.734-2.762 4.65-3.36 5.084l-.96.697 3.52.176c1.936.097 3.82.206 4.187.24 1.148.11 1.146-.335-.006-1.515-.973-.998-1.148-1.429-1.388-3.448-.288-2.415-.238-2.616 1.111-4.627 1.346-2.005 2.93-2.826 5.465-2.826 1.942 0 2.336.11 3.543.998.747.55 1.424.933 1.506.852.115-.116-1.61-7.048-2.272-9.13-.094-.296-.228-.424-.359-.415zm17.512 2.629c-.468.004-1.004.036-1.494.097-2.309.289-4.041 1.743-4.568 3.834-.643 2.555-.458 5.44.469 7.268.454.897.756 1.9.67 2.229-.264 1.006.962.73 4.67-1.059 3.308-1.596 3.476-1.728 4.222-3.283 1.134-2.362 1.307-3.784.668-5.457-.587-1.538-2.282-3.235-3.549-3.553-.22-.055-.62-.08-1.088-.076zm-17.578.595c.111-.004.371.676.576 1.512.205.836.447 1.772.54 2.08.18.609-.022.657-.997.239-.352-.152-1.432-.29-2.4-.31l-1.76-.034 1.92-1.74c1.056-.957 2.01-1.747 2.121-1.747zm17.176.139c.434-.013.838.042 1.18.172 3.067 1.166 4.188 4.092 2.76 7.201-.777 1.692-1.35 2.16-4.305 3.506-1.368.624-2.628 1.133-2.8 1.133-.173 0-.634-.683-1.022-1.52-.575-1.236-.705-2.099-.707-4.623-.003-3.095 0-3.104 1.084-4.222.941-.971 2.509-1.608 3.81-1.647zm25.34 2.857c0-.217-2.609 1.473-5.8 3.754-3.248 2.322-7.12 4.79-8.799 5.606-1.649.802-2.998 1.588-2.998 1.746s.493.29 1.098.29c.604 0 1.462.136 1.904.304 1.396.53 3.285 2.51 3.906 4.092.312.795.396 2.71.494 3.504a.5.5 0 0 0-.043.195c0 .23-.363 1.149-.808 2.041-.676 1.356-1.13 1.794-2.76 2.662-1.741.928-2.133 1.017-3.67.836-.947-.11-1.72-.092-1.72.041 0 .36 3.732 3.627 5.76 5.043.967.677 1.901 1.4 2.077 1.606.176.207.754.602 1.282.879.527.277 2.898 1.877 5.267 3.555 2.37 1.677 4.361 2.998 4.426 2.933.385-.385-.97-1.642-4.156-3.853-4.432-3.077-5.059-3.623-5.059-4.41 0-.508-.15-.582-.832-.41-.661.165-1.202-.067-2.639-1.132-.994-.737-2.199-1.702-2.677-2.144l-.872-.805 2.631-1.309c2.334-1.161 2.728-1.49 3.502-2.91.644-1.18.955-2.243.856-2.74.318-.541-.338-3.605-.43-3.918-.27-.925-1.052-1.945-2.449-3.239l-1.871-1.732 1.832-1.027c2.094-1.177 10.351-7.008 11.67-8.24.484-.453.88-1 .88-1.217zm-44.984 2.758c-2.201.003-3.197.532-4.613 2.457-.908 1.235-.935 1.371-.688 3.424.234 1.947.383 2.266 1.672 3.584 1.21 1.237 1.557 1.424 2.377 1.28.528-.093 2.831-.404 5.12-.692 2.287-.288 4.218-.58 4.29-.648.073-.069-.098-.38-.38-.692-.283-.312-.67-1.259-.86-2.105-.951-4.244-3.43-6.608-6.918-6.608zm-.059.621c2.048-.021 4.068 1.378 5.147 3.782.48 1.069.905 2.492.945 3.162l.075 1.219-2.881.379c-4.77.628-5.512.573-6.585-.5-.837-.837-.934-1.15-.933-2.961.001-2.345.7-3.788 2.209-4.569a4.486 4.486 0 0 1 2.023-.512zm-7.668 4.942c.098-.021.166.117.276.396.13.33.244.959.257 1.399.014.44.232 1.196.485 1.68l.459.878h-1.9c-1.046 0-1.901-.077-1.901-.171 0-.244 1.274-2.72 1.867-3.627.232-.355.36-.534.457-.555zm32.394 3.644-2.428 1.114c-1.335.611-2.94 1.282-3.57 1.49l-1.145.377 2.008 3.047c2.017 3.059 4.113 4.935 6.223 5.574 3.743 1.134 7.692-1.395 7.707-4.935.016-3.727-1.87-5.648-6.158-6.278l-2.637-.388zm.133.963 2.635.356c3.733.502 5.072 1.889 5.072 5.252 0 1.932-.664 3.083-2.252 3.904-.504.26-1.621.475-2.483.475-2.216 0-4.975-1.814-6.763-4.447-1.995-2.937-2.043-2.74 1.05-4.225l2.74-1.315zm-14.538 3.956c-.14.014-.322.05-.554.101-.572.126-4.244.622-8.159 1.104-3.914.481-7.21.969-7.324 1.084-.277.276.084.378 4.203 1.185 2.67.524 4.98 1.302 9.565 3.223 3.325 1.393 6.707 2.972 7.516 3.508 1.937 1.283 2.073.678.279-1.24-1.695-1.813-5.04-7.375-5.04-8.381 0-.478-.062-.627-.486-.584zm33.741.947c-.224-.156-2.04 2.334-3.059 4.238-.782 1.462.025.695 1.616-1.535.806-1.13 1.465-2.316 1.464-2.637 0-.035-.006-.056-.021-.066zm-34.976.445c.686-.03.949.376 2.475 3.014.993 1.716 1.805 3.218 1.805 3.334 0 .359-.336.238-5.28-1.895-2.64-1.138-5.704-2.301-6.81-2.584-1.107-.282-1.954-.572-1.883-.642.07-.07 1.982-.336 4.25-.59s4.57-.526 5.117-.604c.12-.017.228-.028.326-.033zm-27.455.91c-.3.01-.49.035-.541.078-.065.055.082.301.326.545.313.313 1.718.501 4.758.637 3.34.15 5.612.48 10.072 1.47 4.945 1.099 6.597 1.636 11.68 3.802 6.471 2.756 9.968 4.832 14.96 8.877 1.737 1.408 3.868 3.047 4.734 3.644 1.476 1.018 1.529 1.103.86 1.35-.751.278-.893.787-.424 1.527.363.574 1.949.209 1.949-.449 0-.744.42-.584 2.978 1.127 1.316.88 2.517 1.606 2.668 1.606.152.003.921.426 1.713.94.792.513 1.646.942 1.895.954.594.027.737.138-3.494-2.713-2.024-1.363-4.255-2.898-4.96-3.41-.703-.512-2.276-1.573-3.495-2.36-1.22-.785-3.475-2.498-5.01-3.804-3.496-2.973-6.939-4.937-14.06-8.024-3.837-1.663-6.699-2.676-9.113-3.224A260.129 260.129 0 0 1 12 39.006c-1.93-.499-9.324-1.18-11.417-1.112zm54.495 9.544a.695.695 0 0 0-.424.2c-.187.188-.251.577-.14.866.256.668 1.281.49 1.423-.246.096-.496-.4-.87-.86-.82zm-8.36 13.8c0-.111-.577.422-1.28 1.184-.705.763-1.28 1.451-1.28 1.532 0 .08.202-.022.449-.227.343-.285.479-.28.578.018.114.341 1.533-1.978 1.533-2.506z" fill="#1a1a1a"/><path d="M57.599 63.704c-.414-.267-.406-.31.06-.315.298 0 .63.14.74.315.25.405-.174.405-.8 0zm-4.791-2.974a85.447 85.447 0 0 0-2.924-1.985c-3.583-2.305-7.307-5.017-9.085-6.617-1.056-.95-2.676-2.205-3.6-2.789-.924-.583-1.68-1.12-1.68-1.193 0-.435 3.407 1.815 5.44 3.594 2.17 1.897 4.042 3.237 11.44 8.183 1.276.853 2.32 1.621 2.32 1.706 0 .337-.542.082-1.911-.899zm6.07-6.357c-2.2-1.574-4.431-3.092-4.96-3.374s-1.103-.689-1.28-.904c-.175-.215-1.052-.877-1.947-1.47-1.954-1.296-5.749-4.69-5.51-4.928.335-.335 1.846.467 1.683.893-.09.234.164.732.566 1.106 1.22 1.138 5.171 3.929 5.563 3.929.202 0 .553.224.78.497.227.274 2.296 1.808 4.599 3.41 4.641 3.23 4.843 3.386 4.645 3.573-.076.071-1.939-1.158-4.138-2.732zm-24.77-9.032c-.84-.596-1.358-1.14-1.154-1.207.332-.111-3.498-7.063-4.095-7.432-.123-.076-1.807.07-3.742.324-1.934.254-4.093.42-4.797.37-.797-.056.352-.301 3.04-.648 2.376-.307 4.716-.647 5.2-.757.659-.15.88-.08.88.282 0 .842 3.456 6.412 4.956 7.988 1.22 1.28 1.766 2.164 1.34 2.164-.057 0-.79-.488-1.629-1.084zm8.37-4.602c-1.478-.957-2.219-1.779-3.747-4.15l-1.905-2.958.867-.217c.476-.12 1.918-.697 3.204-1.283 1.425-.65 2.799-1.052 3.52-1.03l1.182.036-1.28.258c-1.738.35-6.24 2.527-6.24 3.017 0 .57 2.496 4.391 3.31 5.067.38.315 1.41.998 2.29 1.517s1.384.942 1.12.94c-.264 0-1.309-.54-2.322-1.196zM10.82 39.167c.23-.092.507-.08.613.025.106.106-.083.182-.42.168-.373-.015-.449-.09-.193-.193zm-5.06-.46c-.871-.153-.693-.198.8-.202 1.056 0 2.352.11 2.88.25.763.203.6.244-.8.203-.968-.03-2.264-.142-2.88-.25zm-5.43-.27c-.64-.403-.303-.668.56-.442.387.1.624.31.527.467-.22.358-.493.352-1.088-.024zm13.603-.31c-.292-.472.166-.593 2.358-.621 1.857-.025 1.994.016 1.44.436-.68.514-3.51.653-3.798.186zm39.53-3.728c.015-.373.09-.449.193-.193.092.23.081.507-.025.613-.107.106-.182-.083-.168-.42zm-2.744-.771c-.32-.354-.432-.642-.25-.642.402 0 1.2.914.985 1.13-.084.085-.415-.135-.735-.488zM7.333 31.68c.592-.493.83-.548 1.023-.238.295.478-.248.895-1.156.887-.597 0-.588-.048.133-.649zm4.827.26c.44-.199.848-.392.906-.43.058-.04-.064-.389-.272-.777-.334-.624-.243-.599.774.212.633.506 1.152 1.028 1.152 1.16 0 .132-.756.23-1.68.218-1.515-.02-1.601-.057-.88-.383zM.32 31.706c.265-.17 1.071-.313 1.793-.315 1.76-.013 3.297-.556 4.388-1.568.594-.552.83-.652.693-.296-.3.78-1.624 1.562-3.489 2.058-1.947.519-4.12.596-3.384.12zm15.907-.1c-.117-.303.095-.382.766-.284.51.076.926.264.926.42 0 .45-1.514.329-1.692-.136zm2.738-.123c.312-.081.744-.075.96.013s-.038.154-.566.148c-.528-.013-.705-.078-.394-.16zm2.154-.22c0-.272 1.627-.413 1.787-.155.094.153-.27.277-.808.277s-.979-.055-.979-.122zm3.44-.556c.808-.233 1.04-.474 1.04-1.084 0-1.267-1.558-5.037-2.495-6.037-.779-.832-.793-.886-.144-.55.86.445 2.143 2.865 2.668 5.03.208.858.503 1.696.655 1.863.684.753.254 1.136-1.244 1.107-1.487-.028-1.497-.035-.48-.329zm22.01-.905c-.087-.14.523-.505 1.355-.812.833-.306 2.522-1.143 3.754-1.86 2.436-1.417 11.381-7.766 11.742-8.335.122-.193.302-.272.399-.175.097.097-.148.474-.543.838-1.467 1.35-10.38 7.544-12.135 8.433-1.916.97-2.482 1.512-1.933 1.851.182.112-.301.23-1.075.26s-1.478-.06-1.565-.2zm-32.615-2.42c-.194-1.89.178-3.73.657-3.251.088.088.015.43-.162.76-.178.334-.241 1.487-.142 2.588.1 1.092.108 1.986.02 1.986s-.256-.937-.373-2.083zm20.603 1.19c0-.301-.361-1.255-.8-2.12-.44-.867-.784-2.019-.766-2.56l.032-.987.326 1.12c.565 1.949 1.527 3.86 2.04 4.057.796.305 6.269-2.59 7-3.702.822-1.252 1.045-1.017.28.296-.585 1.002-4.006 2.993-6.902 4.014-1.093.386-1.21.374-1.21-.118zm-23.225-3.115c.416-1.658 2.184-3.973 4.382-5.736 1.247-1 2.337-1.749 2.423-1.663.086.086-.153.321-.531.523-.378.203-.632.533-.565.734.067.202-.582.924-1.444 1.605-1.645 1.3-3.439 3.788-3.439 4.768 0 .318-.231.577-.514.577-.391 0-.466-.194-.312-.808zm33.144-1.37c0-.143.194-.525.432-.849.296-.405.502-.475.656-.224.39.63 3.165-1.027 10.592-6.324 8.139-5.804 7.84-5.607 7.84-5.155 0 .19-.324.485-.72.655-.396.17-1.584.95-2.64 1.737-1.056.786-2.64 1.934-3.52 2.552-.88.618-2.824 2.02-4.32 3.114-2.525 1.848-7.448 4.752-8.055 4.752a.262.262 0 0 1-.265-.258zm-21.568-2.908c-.42-.464-.451-.64-.132-.746.332-.11.29-.645-.203-2.626-.34-1.369-.807-2.56-1.037-2.649-.49-.188-.565-1.883-.096-2.173.177-.11.371-.013.43.221.06.231.484 1.932.943 3.78.46 1.848.93 3.684 1.047 4.08.26.879-.209.934-.952.114zm9.73.268c0-.186.143-.25.32-.141.175.109.32.261.32.339 0 .078-.145.141-.32.141-.177 0-.32-.152-.32-.339zm.37-1.26c0-.44.073-.62.161-.4.09.22.09.58 0 .8-.088.22-.161.039-.161-.4zm-20.21-.287c0-.157.237-.376.525-.487.44-.168.46-.121.121.286-.46.555-.646.613-.646.201zm18.441-1.003c-.083-.259-.235-.975-.338-1.59-.166-1.002-3.965-15.21-4.492-16.8-.131-.394-.04-.333.238.16.248.44 1.358 4.184 2.466 8.32s2.211 7.68 2.45 7.875c.5.41.559 1.352.126 2.036-.262.414-.316.414-.45 0zm2.317-.87c.166-.309.7-.92 1.188-1.36.777-.703.754-.634-.184.56-1.127 1.431-1.508 1.735-1.004.8zm-18.519-.023c0-.386.608-.837.83-.615.08.08-.074.328-.342.551-.304.252-.488.277-.488.064zm4.807-1.825c.222-.269.47-.422.55-.342.223.222-.228.83-.615.83-.212 0-.188-.184.065-.488zm21.071-.045c-.398-.483-.372-.497.281-.149.745.397.928.681.44.681-.155 0-.479-.24-.72-.532zm-23.318-.393c0-.157.237-.377.526-.488.439-.168.459-.12.12.286-.46.555-.646.613-.646.202zm15.852-.488c.278-.425.75-.866 1.047-.98.317-.121.152.198-.4.773-1.131 1.181-1.326 1.244-.647.207zm9.908.454c-.11-.177-.046-.32.14-.32.187 0 .34.143.34.32 0 .175-.064.32-.142.32-.077 0-.23-.145-.338-.32zM20.208 9.605c-.028-.628-.275-1.898-.55-2.823-.274-.924-.443-1.847-.375-2.051.232-.697 1.247 3.774 1.112 4.897l-.135 1.119zM18.866 4c-.006-.161-.21-1.121-.451-2.133-.242-1.012-.342-1.84-.222-1.84.256 0 1.042 3.909.829 4.122-.08.08-.15.013-.156-.149z" fill="#1a1a1a"/></svg>