<?xml version="1.0" encoding="UTF-8"?>
<svg version="1.1" viewBox="0 0 64 64" xmlns="http://www.w3.org/2000/svg" xmlns:cc="http://creativecommons.org/ns#" xmlns:dc="http://purl.org/dc/elements/1.1/" xmlns:rdf="http://www.w3.org/1999/02/22-rdf-syntax-ns#">
<metadata>
<rdf:RDF>
<cc:Work rdf:about="">
<dc:format>image/svg+xml</dc:format>
<dc:type rdf:resource="http://purl.org/dc/dcmitype/StillImage"/>
<dc:title/>
</cc:Work>
</rdf:RDF>
</metadata>
<g transform="translate(0 -988.36)">
<g transform="translate(-.85721 .17178)">
<g stroke-width=".32">
<path transform="translate(.85721 988.19)" d="m0 0v28.543c-0.016306 0.36192-0.015546 0.71118 0 1.0469v2.0078 0.40234 1.6113 0.32031 14.875c-7.7169e-4 0.05138 8.4205e-4 0.10292 0 0.1543v0.005859 15.033h62.914c0.278 0.06937 0.49159 0.060356 0.66211 0h0.095703 0.32812v-0.36133c0.018928-0.066625 0.029522-0.14153 0.035156-0.2207 0.065316-0.25952 0.068821-0.5762 0.029297-0.91797-0.005356-0.191-0.030035-0.38593-0.064453-0.58203v-29.295-0.45703c6.76e-4 -0.97718 0.005886-1.9544 0.005859-2.9316 1.58e-4 -0.35938 8.59e-4 -0.71875 0.001953-1.0781-4.9e-5 -0.21812 0.002036-0.43618 0.001954-0.6543-6e-6 -0.046877 0-0.09375 0-0.14062-6e-6 -0.013021 5e-6 -0.026041 0-0.039062-0.004141-9.1074-0.032821-18.215-0.009766-27.322h-64z" fill="#ff7f2a"/>
<path d="m0.85721 1037.1v-15.089c10.186 0.3222 20.561 0.8736 30.48-1.9582 1.8316-0.6127 4.4208 2.078 4.9401-1.0527 3.2654-0.175 2.1834-4.0445-0.71828-2.5039-2.767-1.4731-0.35521-4.8102-1.195-7.3013-0.2131-3.6983 3.9661-6.7001 7.2614-4.6702 3.2066 1.7207 3.1812 6.5147 0.42994 8.6688-0.74785 0.7674-2.4462 2.134-0.42259 1.0708 4.2229-1.3066 4.8753-7.4655 1.5258-10.085-3.1285-3.0475-8.8617-1.1288-9.7261 3.097-0.27137 1.4196-0.3139 4.8671-1.1152 1.5134-1.8131-5.7479-2.9737-11.7-4.9627-17.384-3.3877-0.95809-0.72562 4.3787-0.52949 6.2227 1.5811 6.421 3.4697 12.768 5.2989 19.113-1.7111 1.9895-5.4325 1.7109-8.0209 2.4435-7.7176 0.8045-15.497 0.5447-23.245 0.7435v-31.74h64c-0.05577 18.407 0.14723 36.817-0.18236 55.221 0.08101 3.372-3.6818-1.5146-5.2472-1.9331-5.6609-3.8797-11.19-7.9813-16.019-12.882-2.8078-1.4121-4.1357-4.3739-6.465-6.1604-3.4647 0.9253 1.3713 4.6422 2.2379 6.482 5.0173 6.9455 12.7 11.114 19.52 16.016 2.051 1.3982 4.1036 2.7939 6.1554 4.1909-0.12999 0.9525 0.2514 2.4164-0.18108 3.0664h-63.819v-15.089z" fill="#558872"/>
<path d="m0.85721 1037.2v-15.006c9.4955-0.081 19.114 0.6331 28.466-1.3586 1.9369-0.6721 4.0242-1.4308 5.4473 0.2488 1.9499-0.3947 1.1706-3.0187 3.7057-3.0126 1.7561-3.7012-4.9314 0.2972-4.4037-3.6843 1.0622-2.5378-0.55052-5.648 1.1312-8.1646 1.753-3.4318 7.2562-2.795 8.519 0.7194 1.6097 3.2476-1.4964 6.1614-3.4349 8.15 3.1877-0.3859 5.5531-3.6335 5.2208-6.7534-0.23648-3.3545-3.2754-6.0916-6.6721-5.6846-3.6636-0.4587-5.1432 4.1129-6.3993 5.8384-1.6474-5.7273-2.7734-11.628-4.8824-17.208-3.9137-1.8928-1.141 4.2501-0.83211 6.2859 1.6053 6.4744 3.4997 12.881 5.3738 19.272-1.5618 1.4428-4.9836 1.2963-7.254 2.1653-7.9372 1.2057-15.989 0.692-23.985 0.7205v-31.523h64c-0.05577 18.407 0.14723 36.817-0.18236 55.221 0.07217 3.3722-3.7102-1.5344-5.2841-1.959-5.6775-3.8854-11.207-8.0224-15.966-13.02-2.9238-1.2985-4.3652-4.3581-6.4217-6.3332-4.2016 0.322 1.0387 4.4819 1.652 6.3071 5.5131 7.4423 13.708 12.128 21.158 17.368 1.6785 1.1274 3.3597 2.2508 5.0396 3.3762-0.13023 0.9421 0.2566 2.4006-0.17678 3.04h-63.819v-15.006z" fill="#496782"/>
<path transform="translate(.85721 988.19)" d="m24.816-0.076172c-1.3463-0.11588-0.87156 2.9576-1.6914 4.3516-0.21794-0.041965-0.44988-0.52995-0.66602-1.1172-0.33436-1.0321-0.5336-2.1176-0.83984-3.1562h-3.457c-2.14e-4 -5.7229e-4 2.15e-4 -0.0013808 0-0.0019531h-18.162v0.0019531 15.854 15.678 0.17774c0.48781-0.07693 0.97601-0.12917 1.4648-0.18164 2.836-0.014974 5.673-0.008189 8.5098-0.019531 1.5813 0.15932 3.4003 0.44505 4.1582-0.058594 0.73369-0.013729 1.4678-0.020533 2.2012-0.042969 0.024842 0.014314 0.047151 0.033112 0.072266 0.046875 1.6896 0.37765 3.4212-0.003103 5.127-0.30078 0.28459-0.01992 0.56901-0.03445 0.85352-0.056641 0.25398-0.035696 0.51055-0.09265 0.76562-0.13476 0.94051 0.056961 1.5918-0.093334 2.0117-0.39453 1.5482-0.35677 3.0698-0.83145 4.5195-1.4141 0.5188 0.19044 1.2293-0.009034 1.3105-0.54883 0.014392-0.006711 0.030551-0.010844 0.044921-0.017578-0.011791-0.037723-0.023379-0.075554-0.035156-0.11328-0.002909-0.073725-0.014386-0.15069-0.041015-0.23438-0.1929-0.5713-0.3657-1.1488-0.55078-1.7227-1.274-4.1754-2.4675-8.378-3.6016-12.598-0.23525-0.90169-0.47224-1.8032-0.70508-2.7051-0.44487-2.3892-1.4162-4.7704-1.6367-7.1895 0.24464-1.4467 1.1786-2.4034 2.4316-0.4668 1.6898 4.6062 2.7462 9.4123 4.043 14.145 0.1343 0.67786 0.28025 1.2651 0.45312 1.6094 0.1209 0.41641 0.2263 0.8375 0.35352 1.252 0.146-0.53868 0.32994-1.084 0.54102-1.6211 0.008201-0.018689 0.015151-0.027348 0.023437-0.046875 0.008908-0.036402 0.025516-0.069377 0.035156-0.10547 0.4086-1.0021 0.94483-1.9539 1.6641-2.7148 0.74146-0.69553 1.6449-1.2217 2.6152-1.5332 0.028477-0.0066 0.055208-0.015322 0.083985-0.021485 0.15735-0.058146 0.31587-0.094561 0.47461-0.13672 0.66513-0.15318 1.3478-0.20336 2.0176-0.14062 0.17735 0.021489 0.35482 0.042204 0.5293 0.080078 0.007743 0.001681 0.015701 0.002194 0.023437 0.003906 0.003261 6.31e-4 0.006506 0.001316 0.009766 0.001953 0.69841 0.1558 1.3672 0.44442 1.9785 0.82812 0.13103 0.090453 0.26399 0.17477 0.38867 0.2793 0.12786 0.08257 0.24516 0.17492 0.36328 0.26562 0.58065 0.48662 1.0834 1.0679 1.4668 1.7168 0.071987 0.12184 0.12986 0.25071 0.19336 0.37695 0.8353 1.8198 0.74921 4.0576-0.13672 5.9043-0.95808 1.625-2.7558 2.7562-4.541 3.4082 0.1169-0.34373 0.43154-0.74707 0.81445-1.1855 0.56698-0.5635 1.1155-1.1625 1.5957-1.8008 0.92566-1.1284 1.681-2.4194 1.3965-3.8223-0.023516-0.32814-0.093323-0.66329-0.20312-1.002-0.13454-0.5604-0.3845-1.0652-0.71289-1.5137-0.040064-0.062201-0.086098-0.1165-0.12891-0.17578-0.042572-0.052659-0.082115-0.10744-0.12695-0.1582-0.65296-0.81592-1.5641-1.3328-2.5566-1.5527-1.3953-0.37413-2.9223-0.17803-4.0801 0.7832-0.3073 0.22041-0.58005 0.48418-0.82031 0.7832-0.068603 0.078017-0.12318 0.1598-0.18359 0.24023-0.028817 0.041982-0.064434 0.07777-0.091797 0.12109-0.75574 1.0922-0.82869 2.384-0.80469 3.6973-0.083197 1.0673-0.11427 2.1306-0.097656 3.1699-0.057936 0.30672-0.13373 0.60772-0.25195 0.89453-0.054423 0.91342 0.15016 1.5426 0.52148 1.9629 0.37647 0.73018 1.3474 0.83146 2.375 0.66797 0.37818-0.034404 0.76528-0.093468 1.1543-0.19336 1.4181 0.98675 0.68835 1.6702-0.25 2.3594-0.006635 0.005053-0.012906 0.01056-0.019531 0.015625-0.57801 0.42322-1.2183 0.84748-1.5098 1.3516-0.003174 0.003361-0.006595 0.0064-0.009766 0.009766-0.001299 0.004245-6.64e-4 0.005559-0.001953 0.009765-0.053169 0.095364-0.095245 0.1916-0.11914 0.29297-1.4658 2.1937-2.5077-0.48474-3.8086-0.11914-0.038187 0.011621-0.077031 0.019736-0.11524 0.03125-0.23086-0.021179-0.42644 0.013299-0.51953 0.14648-0.31026 0.089489-0.62034 0.17893-0.93164 0.26172 0.051144-0.09062-0.15756-0.076615-1.0332 0.25586-0.001721 0.001851-2.62e-4 0.002074-0.001954 0.003906-5.163 1.2503-10.458 1.6373-15.771 1.6914-0.011071 5.6e-5 -0.022132-5.5e-5 -0.033203 0-1.873 0.009154-3.7451-0.01756-5.6172-0.042969-1.646-0.035722-3.2873-0.081168-4.9258-0.12891-1.1489-0.16178-2.237-0.28435-2.3809 0.21484-0.11228 0.095182-0.097775 0.19602 0.0039062 0.29688 0.028073 0.10432 0.075781 0.22116 0.15234 0.35742 0.41046 0.075751 0.82389 0.1306 1.2363 0.18359 1.0669 0.25437 2.3914 0.39649 2.9551 0.23438 0.13671 0.005153 0.27335 0.013509 0.41016 0.017578 0.92783 0.077883 1.9538 0.065877 2.9922 0.041016 1.3289 0.006376 2.6576 0.020578 3.9805 0.10156 0.37275 0.053069 0.71726 0.13088 1.0312 0.23438-0.017243 0.05835-0.10867 0.10558-0.20898 0.15039-3.3688 0.47499-6.7967 0.33092-10.211 0.30078 0.018036-0.076318-0.37191-0.14461-1.373-0.042969l-0.14062 0.046875c-0.3526 0.002693-0.70668-0.006878-1.0586 0.001953v2.1094 11.738 1.0566 12.793 0.001953c18.9-0.021 37.8 0.055228 56.699-0.076172 1.9962-0.4569 7.1472 0.90628 6.875-1.1074-0.38818-0.29745-0.56898-0.48116-0.6543-0.62109 0.12754-0.33615 0.80468-0.50937 0.88281-1.084 0.013103-0.076089 0.018661-0.16 0.011719-0.25586-0.001288-6.71e-4 -0.002618-0.001282-0.003906-0.001953-0.75871-0.39524-1.5008-0.8238-2.2324-1.2715-0.42945-0.26346-0.85076-0.54216-1.2734-0.81836-0.27702-0.18039-0.55718-0.35476-0.83203-0.53906-0.70335-0.47296-1.3991-0.95459-2.0957-1.4375-0.69347-0.48241-1.3892-0.9622-2.084-1.4375-0.2535-0.20091-0.51414-0.387-0.77148-0.58008-0.8409-0.66688-1.72-1.267-2.6094-1.8496-0.023561-0.015433-0.046736-0.031465-0.070312-0.046875-0.13359-0.089152-0.26845-0.17887-0.40234-0.26758-0.91687-0.60745-1.8374-1.2131-2.7539-1.834-0.28326-0.19765-0.57171-0.38574-0.84961-0.59375-0.58504-0.41089-1.1556-0.83965-1.7188-1.2773-0.5772-0.4521-1.1459-0.91492-1.7012-1.3926-0.024513-0.021088-0.04975-0.041364-0.074219-0.0625-0.61406-0.53044-1.2148-1.0762-1.8008-1.6367-0.57861-0.55354-1.1413-1.1215-1.6914-1.7031-0.005063-0.005355-0.010563-0.010268-0.015625-0.015625-0.003775-0.004016-0.007944-0.007701-0.011718-0.011719-2.066-2.1991-3.9198-4.5981-5.5566-7.1445-0.12705-0.19923-0.26257-0.39256-0.38672-0.59375 0.049607-0.56698-0.2045-1.0583-0.54297-1.4102 0.38291-0.89878 1.8091-1.4091 2.6133-0.57227 0.03192 0.45222 0.29193 0.9565 0.76367 1.4727 0.25805 0.47733 0.56503 0.89863 0.91016 1.2754 0.67849 0.87735 1.5912 1.4748 2.5352 2.0508 0.98113 0.67756 1.9724 1.3592 2.7871 2.2949 1.0436 1.1135 2.1376 2.1707 3.2656 3.1875 1.7701 1.6692 3.6889 3.176 5.666 4.6133 0.023909 0.017829 0.048342 0.034925 0.072266 0.052735 0.086333 0.062657 0.1713 0.12702 0.25781 0.18945 1.812 1.3409 3.6628 2.6313 5.5215 3.9043 0.008281 0.002573 0.01898 0.010901 0.027343 0.013671 0.028399 0.020335 0.057561 0.040196 0.085938 0.060547l1.8809 1.3047c0.80284 0.67466 1.6154 1.3658 2.2305 1.5469l0.88672 0.61523c0.004532-1.3015 0.011881-2.6028 0.017578-3.9043 0.21917-10.134 0.13009-20.274 0.125-30.412 0.018487-0.42917 0.024387-0.84304 0.001953-1.2266 5.91e-4 -1.2864-0.005687-2.5731 0-3.8594 0.45385-2.115-0.96449-0.46857-1.8672 0.14063-0.20182 0.1577-0.41028 0.30669-0.61328 0.46289-1.385 0.956-2.7345 1.9631-4.0781 2.9785-3.5411 2.4435-7.247 4.6393-11.117 6.5098-0.13578 0.008482-0.49454 0.15085-1.1895 0.5293-0.068865 0.044077-0.14242 0.084119-0.21484 0.125-0.47014 0.21537-0.94117 0.42925-1.416 0.63477-0.053963-0.054254-0.40819 0.062146-1.248 0.51953-0.007503 0.004802-0.015869 0.008934-0.023437 0.013672-0.75745 0.31076-1.516 0.61969-2.2852 0.9043-0.45705 0.13567-0.77656 0.19838-0.99414 0.20898-0.11746-0.28773-0.049559-0.56713 0.1582-0.83789 0.37758-0.33968 0.90288-0.72088 1.4199-1.041 0.41608-0.22534 0.8617-0.43694 1.3262-0.65039 0.001885-8.66e-4 0.003974-0.001086 0.005859-0.001953 0.003391-0.001688 0.006375-0.004171 0.009766-0.005859 1.0528-0.48346 2.1154-0.94814 2.6953-1.377 0.058528-0.031432 0.075108-0.043112 0.12891-0.072266 1.4848-0.78458 2.9486-1.6083 4.3984-2.4551-0.45769 0.39264 0.57598-0.21428 1-0.45898 0.56286-0.36535 0.83609-0.57906 0.93945-0.69336 0.14627-0.089553 0.28972-0.18318 0.43555-0.27344 0.070024 0.020301 0.84645-0.43712 1.1855-0.63281 0.62791-0.40757 0.89575-0.62788 0.96289-0.72656 1.2891-0.84327 2.5511-1.7255 3.7969-2.6309-0.1402 0.12721-0.3114 0.2795-0.43945 0.39648 1.3397-0.887 2.5998-1.9273 3.8418-2.9941 1.0855-0.87441 2.157-1.7673 3.1973-2.6992v-6.541c0.018712-0.84823 0.010533-1.6996 0-2.5508v-4.3184c2.1e-5 -6.4883e-4 -2.1e-5 -0.0013043 0-0.0019531h-37.076c0.013962 0.12702 0.037163 0.25218 0.052734 0.37891-0.27835 0.074736-0.55475 0.15291-0.81445 0.26172-0.58576-0.47362-1.0193-0.6887-1.3457-0.7168zm-0.001953 11.758c0.35224-0.10614 1.5117 5.023 1.9473 6.3223 0.34826 1.3782 0.75179 2.7502 1.0566 4.1406 0.10162 0.46348 0.19163 0.92996 0.26562 1.3984-1.6988-3.6835-2.4758-7.7963-3.3301-11.768 0.015855-0.056298 0.037064-0.086674 0.060547-0.09375zm-3.9512 0.92578c0.28282 0.38151 0.19805 0.88766-0.11523 1.4512-0.92936 1.2679-2.0698 2.3829-3.2637 3.4492-0.2392 0.20584-0.52516 0.45386-0.70508 0.61133-0.64618 0.47568-1.2431 0.99924-1.8145 1.5469-1.1522 0.86768-1.9986 2.0226-2.7617 3.2344-0.65003 0.92103-1.2463 1.8809-1.791 2.873-0.37021 0.5523-0.75555 1.0835-1.1934 1.5488-0.19616 1.1337-0.59371 1.8559-1.2461 2.3691 1.7289-3.5422 2.9691-7.5787 6.1152-10.176 2.5414-1.9008 5.159-3.8685 6.5605-6.7969 0.071562-0.038181 0.15597-0.073254 0.21484-0.11133zm-1.959 7.8594c0.32561-0.005491 0.654 0.016105 0.98047 0.054687 0.15412 0.020645 0.30801 0.039581 0.45898 0.06836 0.11151 0.020071 0.22322 0.041476 0.33398 0.066406 1.389 0.32529 2.5332 0.97345 2.5801 1.709-2.718-1.9846-6.8417-1.9935-8.8711 1.0117-1.1957 0.77823-1.3601 3.951-1.4902 4.2109-0.017925-0.11223-0.037172-0.22431-0.048828-0.33789-0.005002-0.053389-0.008177-0.10688-0.011718-0.16016-0.017094-0.22367-0.020719-0.44847-0.013672-0.67383 0.064853-1.3721 0.60061-2.6653 1.4746-3.709 0.05539-0.057391 0.10555-0.11927 0.16406-0.17383 0.1185-0.14636 0.2445-0.28038 0.37305-0.41016 0.46632-0.43693 0.99645-0.81364 1.584-1.1035 0.024828-0.016552 0.054435-0.02913 0.080078-0.044922 0.75405-0.33205 1.573-0.49376 2.4062-0.50781zm-5.7773 7.834c0.043865-0.006852 0.1439 0.16753 0.33008 0.64258 0.026633 0.2097 0.027088 0.287 0.041016 0.43164-0.15738-0.28275-0.28376-0.58501-0.38672-0.89844-0.004522-0.087838-0.007612-0.17215 0.015625-0.17578zm33.471 1.834c0.19128 0.16883 0.60148 0.31795 1.3496 0.43555 0.64974 0.030013 1.2515 0.17391 1.8008 0.4082 0.25135 0.10722 0.48826 0.23769 0.7168 0.38086 0.050773 0.032428 0.10083 0.065576 0.15039 0.099609 0.17997 0.12141 0.35128 0.25486 0.51562 0.39648 0.082929 0.072594 0.16352 0.14737 0.24219 0.22461 0.12041 0.11644 0.23702 0.23668 0.34766 0.36328 0.12169 0.14145 0.23663 0.28906 0.3457 0.44141 0.052795 0.072547 0.10635 0.14389 0.15625 0.21875 0.1552 0.23686 0.30037 0.48015 0.42578 0.73633 1.0731 2.192 1.0272 4.9975-0.41016 6.9453-0.21914 0.28675-0.45984 0.55986-0.74414 0.80469-0.069812 0.07099-0.13761 0.11669-0.20703 0.18164-0.19769 0.15798-0.39765 0.31377-0.625 0.44727-0.44002 0.23996-0.91121 0.52006-1.4023 0.7168-0.00109 4.36e-4 -0.002817-4.36e-4 -0.003907 0-0.47716 0.10479-0.95354 0.10439-1.4355 0.033203 1.2332-0.89121 4.0226-1.2333 4.2871-3.582 1.9039-3.5307-0.76735-8.032-4.5723-8.6543-0.60312-0.32997-0.86406-0.50701-0.9375-0.59766zm-32.438 8.2012c0.092606 0.004594 0.19245 0.030635 0.29102 0.050781 0.14158 0.28242 0.28824 0.57349 0.058594 0.75-5.86e-4 -1.87e-4 -0.003335 1.85e-4 -0.003907 0-1.5264-0.41288-1.082-0.83732-0.3457-0.80078zm0.44336 0.81836c0.43208 0.018426 0.88973 0.054609 1.3613 0.10938-0.12872 0.077298-1.0549-0.03745-1.3613-0.10938zm2.4473 0.31641c0.074675 0.001817 0.15903 0.014871 0.23633 0.019531 0.38756 0.092219 0.77982 0.20491 1.1777 0.35742 0.74567 0.049663 1.523 0.19097 2.2949 0.38672 0.95872 0.29931 1.904 0.64211 2.7773 0.97656 0.4594 0.20993 0.89174 0.43288 1.2871 0.66602-1.0701 0.026887-5.6303-1.7595-7.7734-2.4062zm9.8301 3.3164c1.2528 0.43188 2.2031 0.97533 4.2207 1.6602 0.5567 0.37134 1.7727 0.84672 2.9102 1.3457 0.8697 0.46871 1.6774 1.0046 2.3887 1.6426 0.010072 0.11704-0.014911 0.2329-0.11524 0.3457-1.2138-0.19581-2.6133-1.5795-3.8516-2.0117-0.91758-0.55215-4.5731-2.3557-5.5527-2.9824z" fill="#0f8684"/>
<path d="m0.85721 1039.4v-12.84c9.3733 0.1273 18.691 2.2507 27.303 5.9202 6.3695 3.0888 12.558 6.6367 18.051 11.127 4.0295 2.8968 8.1713 5.6333 12.219 8.5038-19.189 0.2214-38.382 0.094-57.573 0.1278v-12.839zm57.728 7.3067c-5.6788-3.9245-11.72-7.435-16.548-12.451-3.1075-3.2067-6.3192-6.6768-7.8883-10.906 2.0925 0.8528 3.4212 4.7079 5.3834 6.5378 3.7088 4.5883 8.3651 8.3511 13.45 11.3 3.6594 2.9057 7.5544 5.5561 11.604 7.8865 0.72923 2.3338-2.7472-0.2138-6.0013-2.3679zm1.0717-5.0167c-4.3629-3.1684-9.0146-6.0552-12.823-9.8986 0.33611-1.3417 4.4283 0.3448 5.4939-1.9335 3.7402-3.2434 1.7827-10.457-3.2302-11.065-3.739-0.8395 2.508-2.238 3.5277-3.351 4.1875-2.3643 8.0206-5.2884 11.967-8.0025 0.45361 12.446 0.22672 24.916 0.20129 37.372-1.033 0.2243-3.6438-2.3414-5.1363-3.1212zm-25.04-7.6921c-5.0254-2.6069-10.349-4.751-15.822-6.2118-1.2962-0.1121-5.4701-1.2587-1.8702-1.5284 4.0967-0.3018 8.0992-1.2725 12.155-1.8583 2.5839 2.6423 4.0541 6.1984 6.5367 8.9589 1.3427 1.6425 0.02953 1.484-0.99985 0.6396zm10.56-4.6578c-2.8985-1.8659-6.2364-3.2535-7.2861-6.9023 2.2472-1.7023 5.9209-2.8043 8.965-2.7341 3.7928-0.075 7.2116 4.0558 5.1154 7.6276-1.0549 2.802-4.3918 2.9178-6.7942 2.0088zm-36.64-5.5964c-2.2114-0.7574-6.717 1.0757-7.6502-1.2764 2.5347-0.2499 5.5898 0.1864 8.3252 0.085 5.7872 0.081 11.606 0.1209 17.316-0.9611 3.7684 0.3853-3.4143 1.5711-4.7315 1.722-4.3817 0.7743-8.8359 0.5471-13.259 0.4305zm23.712-2.9852c-0.39034-1.7639 2.7073 0.5531 0.39193 0.3181l-0.39193-0.3178zm4.1276-1.0091c0.55062-1.2703 4.8455-2.3858 2.0722-0.2596-0.43443 0.028-2.1391 1.3896-2.0722 0.2596zm-35.52-15.634v-15.886c6.0267 0.0567 12.053 0.11333 18.08 0.17 0.87258 3.6257 2.196 7.3026 1.8748 11.057-0.8813 4.385-5.4706 6.0444-8.1675 9.0725-2.6352 3.039-3.2076 7.5666-6.5071 10.042-1.2813 0.4164-4.9865 2.3718-5.2801 0.706v-15.162zm6.4108 15.498c1.5643-1.2763 3.5788-4.3389 4.708-6.7826 2.0019-4.3513 6.5712-6.5047 9.3612-10.186 1.4288-2.947 1.6799 3.0387 2.2624 4.07 0.60073 1.6471 1.0663 4.4867-1.3733 2.3688-2.6715-1.0253-5.7551-0.1164-7.3734 2.2633-2.5384 2.3568-0.40386 6.6891 0.38946 8.4575-2.6417 0.1443-5.3561 0.2226-7.9743-0.1908zm9.9748-0.12c-3.157-2.2255-2.8991-7.2368 0.68669-8.9032 2.6016-1.4018 6.1774 0.5062 7.0544 3.2155 1.2745 2.0595 2.8708 5.9929-1.1866 5.4057-2.1479 0.1974-4.4398 0.9331-6.5544 0.282zm12.794-4.3012c-1.7674-6.3341-3.4427-12.699-5.3049-19.011-0.50519-1.346-1.0941-4.5432 0.04779-4.9017 2.1602 8.5509 4.5479 17.058 7.0737 25.499-0.41488 1.8447-1.789-1.0223-1.8166-1.5868zm4.4377 0.2075c-0.27001-2.457-0.17294-5.2799 0.20777-7.9354 0.76957-3.7144 6.0489-4.7041 8.2767-1.7722 2.1573 2.4837 0.9982 6.1851-1.4039 8.0427-1.4401 1.4703-5.8961 4.4422-7.0806 1.6649zm10.883-4.746c1.766-4.2782-3.0528-9.4903-7.4845-7.9912-2.6294 0.057-3.7798 3.5824-5.306 4.211-1.5813-6.0279-3.1509-12.074-4.5099-18.158 2.9267-0.74846 6.1697-0.30452 9.2259-0.46096 9.1913-0.0244 18.383-0.01 27.574-0.0138v10.472c-5.7432 5.5522-12.358 10.2-19.492 13.777-0.89703 0.3493-4e-3 -1.498-0.0081-1.836z" fill="#436c62"/>
<path d="m1.8605 1050.9c0.85888-0.9113 0.69419-1.9641 0.29831-3.0487-1.242-4.0994-1.4228-8.3836-1.2972-12.64 0.005651-2.863 0.011876-5.7261 0.017761-8.5891 8.478 0.1064 16.94 1.8598 24.822 4.9569 7.124 3.0144 13.964 6.7786 19.982 11.666 3.0993 2.3076 6.3021 4.4825 9.4381 6.7307 0.45 3.3439-5.3903 1.6882-7.6901 2.1571-15.432 0.075-30.864 0.037-46.295 0.056 0.24143-0.4297 0.48285-0.8594 0.72428-1.2891zm54.517 0.9687c0.71541-1.1393 2.768 0.8649 0.37468 0.226zm2.2081-5.2127c-5.6788-3.9245-11.72-7.435-16.548-12.451-3.1075-3.2067-6.3192-6.6768-7.8883-10.906 2.0925 0.8528 3.4212 4.7079 5.3834 6.5378 3.7088 4.5883 8.3651 8.3511 13.45 11.3 3.6594 2.9057 7.5544 5.5561 11.604 7.8865 0.72923 2.3338-2.7472-0.2138-6.0013-2.3679zm1.0717-5.0221c-4.3641-3.1637-9.0141-6.0496-12.822-9.8915 0.32452-1.3468 4.4139 0.344 5.4811-1.9227 3.7476-3.2112 1.8172-10.19-3.0278-11.071-3.5193-1.1239 3.2795-2.457 4.2922-3.7969 3.804-2.2277 7.3474-4.8564 10.917-7.4246 0.61924 2.4382 0.13959 6.1771 0.30334 9.1107-0.0041 9.4977-0.06789 18.995-0.10378 28.493-1.6801-1.1656-3.3601-2.3312-5.0402-3.4968zm-25.105-7.7126c-5.7032-2.9124-11.702-5.3932-17.987-6.7247-3.1082-1.0235 2.7071-1.1806 3.6445-1.3236 3.233 0.2343 6.7186-2.1232 9.6596-1.0056 1.6602 3.3293 4.0957 6.1889 6.1619 9.2459 0.2826 1.0128-1.2021-0.047-1.4793-0.192zm10.676-4.6106c-2.6758-1.8931-6.0396-2.9083-7.0696-6.4027 0.61162-2.4968 5.3436-2.6962 7.7882-3.2231 3.2065-0.2731 7.2553 2.4134 6.3979 5.974-0.24441 3.5703-4.1076 4.993-7.1165 3.6518zm-36.691-5.6177c-2.2114-0.7574-6.717 1.0757-7.6502-1.2764 2.5347-0.2499 5.5898 0.1864 8.3252 0.085 5.7872 0.081 11.606 0.1209 17.316-0.9611 3.7684 0.3853-3.4143 1.5711-4.7315 1.722-4.3817 0.7743-8.8359 0.5471-13.259 0.4305zm23.712-2.9852c-0.39034-1.7639 2.7073 0.5531 0.39193 0.3181l-0.39193-0.3178zm4.1276-1.0091c0.55062-1.2703 4.8455-2.3858 2.0722-0.2596-0.43443 0.028-2.1391 1.3896-2.0722 0.2596zm-35.52-15.67v-15.84h17.902c1.0632 4.0077 2.5739 8.2328 1.5999 12.389-1.9833 4.4271-7.3617 5.9289-9.4641 10.312-1.76 2.9205-2.2944 7.4272-6.2933 8.1901-2.1784 0.8457-4.6636 1.3564-3.6999-1.9256-0.037427-4.3749-0.043316-8.7501-0.044732-13.125zm6.4108 15.534c1.5643-1.2763 3.5788-4.3389 4.708-6.7826 1.994-4.3642 6.6019-6.4975 9.3612-10.206 1.4662-2.359 1.5396 3.126 2.1548 4.2469 0.70794 1.6276 1.0895 4.198-1.2658 2.2122-2.6717-1.0254-5.7554-0.1162-7.3737 2.2638-2.8142 2.3351 0.03871 6.753 0.09495 8.4598-2.5418 0.1402-5.1651 0.2333-7.6795-0.1936zm9.9748-0.12c-2.4934-1.7791-3.1408-6.1463-0.37906-8.0397 2.6072-2.6417 7.0749-0.6024 8.1453 2.5718 1.693 2.2503 2.4371 5.8984-1.615 5.2459-2.0106 0.1733-4.1769 0.8644-6.1513 0.222zm12.794-4.3012c-1.7674-6.3341-3.4427-12.699-5.3049-19.011-0.50519-1.346-1.0941-4.5432 0.04779-4.9017 2.1602 8.5509 4.5479 17.058 7.0737 25.499-0.41488 1.8447-1.789-1.0223-1.8166-1.5868zm4.4327 0.1964c-0.2582-2.4555-0.17182-5.2774 0.21254-7.9308 0.81412-3.9201 6.5459-4.7084 8.5522-1.3547 2.3549 3.1702-0.34936 7.0348-3.1281 8.8257-1.4386 0.6908-4.9004 3.0251-5.6366 0.4598zm10.727-4.0287c1.9744-4.1722-1.9574-9.8596-6.6487-8.8094-2.9479-0.4453-4.5936 3.5099-5.8807 4.3259-1.6678-6.0264-3.2486-12.084-4.6104-18.186 0.79981-0.61145 3.5859-1.0599 2.8399 0.81694-0.24781 3.1705 2.609 6.1828 5.6368 6.6362 2.2237-0.60296 5.4228-0.168 7.0175-1.2828 0.75832-1.7317 0.63217-6.1775 2.3921-6.2841-0.20768 3.724-2.022 7.1779-2.3133 10.871 3.5782 1.1822 7.2915 2.0762 11.018 2.6202 1.2845-4.5547 1.9392-9.2652 3.1987-13.827h7.0099v10.506c-3.8364 3.2848-7.446 6.8844-11.918 9.3259-2.6361 1.3661-5.1891 3.8544-8.0129 4.2971l0.04002-0.3913 0.23084-0.6176z" fill="#115385"/>
<path d="m1.8605 1050.9c0.85888-0.9113 0.69419-1.9641 0.29831-3.0487-1.2445-4.1057-1.4222-8.3969-1.2972-12.659 0.005664-2.8711 0.011897-5.7421 0.017793-8.6132 10.556 0.3786 21.153 2.7096 30.546 7.6372 5.2546 2.5195 10.124 5.7333 14.687 9.3431 2.9589 2.1996 6.02 4.2679 9.0093 6.4169 0.45 3.3439-5.3903 1.6882-7.6901 2.1571-15.432 0.075-30.864 0.037-46.295 0.056 0.24143-0.4297 0.48285-0.8594 0.72428-1.2891zm54.517 0.9687c0.71541-1.1393 2.768 0.8649 0.37468 0.226zm3.3221-10.205c-4.4234-3.2516-9.2014-6.1518-13.039-10.115 3.0362 0.2346 6.4076-1.2269 7.3139-4.3548 1.27-3.6889-1.3126-8.1014-5.2395-8.5944-2.1167-1.1958 3.1333-2.0266 4.0084-3.1487 4.1033-2.3596 7.9297-5.1543 11.755-7.9233 0.61924 2.4382 0.13959 6.1771 0.30334 9.1107-0.0041 9.4977-0.06789 18.995-0.10378 28.493-1.666-1.1559-3.3319-2.3118-4.9979-3.4677zm-7.8546 0.1039c-0.16223-2.5556 2.7318 0.8786 0.26842 0.3571l-0.26842-0.3572zm-17.293-7.8459c-5.6741-2.8946-11.638-5.3725-17.889-6.7003-3.2723-1.3121 3.9824-1.0223 5.2861-1.5446 2.566 0.044 5.7672-1.9889 7.9363-0.7677 1.6645 3.3102 4.0887 6.1588 6.146 9.2046 0.2826 1.0128-1.2021-0.047-1.4793-0.192zm11.678-4.4489c-2.6167-1.7198-6.1289-2.2178-7.4567-5.3662-2.1383-3.1054 4.1666-3.575 6.23-4.3523 3.0597-0.5445 6.8688 1.1854 7.4406 4.4398 0.43088 3.47-2.7113 6.6957-6.2139 5.2787zm-45.373-25.444v-15.84h17.87c1.198 3.9941 2.5278 8.2925 1.5605 12.46-1.945 4.4089-7.3182 5.8748-9.3918 10.238-1.63 2.7226-2.1704 6.7085-5.6905 7.716-2.1432 0.8435-5.2761 2.3461-4.2426-1.4504-0.088735-4.3739-0.1027-8.749-0.10605-13.124zm7.1753 15.339c2.9842-3.894 4.3489-9.0256 8.4307-12.047 2.2426-1.3186 4.1763-4.5576 5.8359-5.3686 0.20023 2.3924 2.3121 6.2475 1.3664 7.8149-2.5118-1.6627-6.3039-1.6047-8.258 0.914-2.5399 2.1213-2.0449 6.1177-0.34366 8.5912-0.57511 1.0088-6.1585 0.8221-7.0314 0.096zm9.0586-0.3145c-2.6017-2.0107-2.8316-6.2946 0.23538-8.0266 3.592-2.5997 7.6655 1.1927 8.5031 4.7592 1.4031 2.0926 0.51436 3.7916-2.0595 3.3792-2.1393-0.052-5.0012 1.5921-6.679-0.1118zm17.379-3.7158c-0.25926-2.4535-0.17035-5.2728 0.21275-7.9243 0.86242-4.2349 7.257-4.6802 8.8949-0.7872 1.8419 3.4601-1.1477 6.9565-4.0923 8.5112-1.4309 0.3841-4.4118 2.7302-5.0154 0.2003zm10.787-3.5486c1.4619-2.8742 0.65232-6.5596-2.16-8.3009-2.1966-1.9358-6.3046-1.4248-8.238 0.6839-0.99095 1.7777-2.7176 3.1518-2.6959 0.1766-1.276-5.3131-2.7207-10.594-4.0479-15.888 0.8455-0.22537 3.4296-0.96527 2.7859 0.81439-0.35752 3.0693 2.201 5.8028 4.9396 6.7315 2.4708-0.15589 5.8784-0.22149 7.7106-1.1971 0.75832-1.7317 0.63217-6.1775 2.3921-6.2841-0.20768 3.724-2.022 7.1779-2.3133 10.871 3.5782 1.1822 7.2915 2.0762 11.018 2.6202 1.2845-4.5547 1.9392-9.2652 3.1987-13.827h7.0099v10.534c-5.8357 5.1587-12.066 9.9888-19.09 13.411l-0.33439-0.043-0.17536-0.3029z" fill="#424c5b"/>
<path transform="translate(.85721 988.19)" d="m27.318 0.12109c0.004092 0.017559 0.009575 0.035174 0.013672 0.052734-0.14504-0.08355-0.21008 0.039778 0.06836 0.61328l0.14453 0.25586c0.25899 1.0895 0.53113 2.1837 0.80469 3.2773 0.27103 1.3415 0.6356 2.6763 1.0059 4.0098 0.37503 1.4625 0.75165 2.9258 1.1191 4.3828 0.19176 0.2609 0.30894 0.7244 0.4043 1.2539 0.15668 0.95 0.24858 2.0859 0.47266 2.8867 0.023077 0.086524 0.049807 0.16404 0.076172 0.24219 0.008354 0.023674 0.014741 0.05142 0.023438 0.074219 0.21246 0.58178 0.53438 0.88388 1.0879 0.58008 0.80342-1.899 2.5404-3.1046 4.4668-3.5273 0.42808-0.093942 0.86619-0.15041 1.3047-0.16602 1.0963-0.039031 2.1994 0.17039 3.1816 0.64258 1.5405 0.8586 2.6943 2.27 3.2598 3.8691 2.01e-4 5.68e-4 -2.01e-4 0.001386 0 0.001953 0.56481 1.5987 0.54279 3.3849-0.27148 4.9902-0.059003 0.30155 0.13921 0.40302 0.36914 0.40234l0.046875 0.013671c0.01455-0.00965 0.030365-0.017701 0.044922-0.027343 0.18181-0.021996 0.36469-0.087861 0.44336-0.18945 0.19142-0.12704 0.35659-0.26658 0.50391-0.41211 2.7379-1.7638 5.5719-3.4236 8.2891-5.25 1.3995-0.4955 2.5846-1.7245 3.7402-2.7441 0.63104-0.51248 1.2505-1.0411 1.8477-1.5977 0.84056-0.9748 6.3262-4.7609 2.7148-3.4316-4.4411 3.3732-8.7744 6.9144-13.533 9.8535-1.2013 0.93521-1.8477 0.68036-2.3047-0.076172-0.16943-0.83091-0.51534-1.6775-0.91797-2.4668-0.37605-1.1551-0.85641-2.2744-1.7754-2.7305-0.64587-0.69197-1.4168-1.1971-2.2598-1.5391-1.4096-0.61996-3.0308-0.71066-4.6055-0.4375-0.83062 0.13113-1.6451 0.35296-2.3984 0.66992-0.026999 0.025764-0.049664 0.041893-0.076172 0.066406-0.44851 0.19365-0.87918 0.40988-1.2812 0.65234-0.5272 0.018403-0.90254-0.20371-1.1855-0.56641-0.42127-0.76882-0.62673-1.9808-0.86719-2.957-0.17202-1.2259-0.31691-2.4805-0.75391-3.2402-1.0998-2.1934-0.40862-6.9853-3.2031-7.4316zm-9.7344 0.12695c-1.4747 1.3179 1.1102 6.0121 0.86524 8.6348 0.5475 3.4278-1.9875 6.189-4.666 7.9023-3.5484 2.3551-5.2512 6.3222-7.1113 9.9688-0.58736 2.0399-2.5359 2.2466-4.252 2.6328-0.23394 0.049509-0.45241 0.11048-0.67188 0.17578-0.12943 0.037575-0.2599 0.074804-0.38281 0.11914-0.096507 0.035137-0.19308 0.068607-0.2832 0.10742-0.0032098 0.001403-0.0065622 0.002497-0.0097656 0.003907-0.4902 0.21244-0.88203 0.47776-1.0723 0.80664 3.9293e-4 8.79e-4 0.001559 0.001076 0.0019531 0.001953-5.5724e-4 7.54e-4 -0.0013967 0.001199-0.0019531 0.001954 0.066406 0.69015 0.55054 0.81915 1.1328 0.75586 0.67175 0.055581 1.516-0.22204 2.3379-0.5918 0.83007-0.24725 1.525-0.64423 2.1152-1.1562 0.15046-0.094853 0.36736-0.22015 0.48242-0.29492-0.022599-0.017838-0.090692-0.027532-0.12695-0.042968 1.9022-1.9187 2.7241-5.0021 4.1426-7.2754 1.965-4.3584 7.8224-5.3662 9.1992-10.074 0.5325-3.9289-0.46372-7.9637-1.6992-11.676zm3.4023 13.885c-2.1631 3.3068-5.985 5.1393-8.3262 8.3223-1.4294 2.3672-2.7659 4.8061-4.2168 7.1582-0.032106 0.043156-0.05931 0.089945-0.091797 0.13281-0.73518 0.62526-0.91862 1.0144-0.78906 1.2598-0.069067 0.1057-0.13334 0.21516-0.20312 0.32031 1.5007 0.5937 3.284 0.26698 4.8867 0.33398 0.97686 0.13903 1.5028 0.054806 1.709-0.18164 0.080097-0.03481 0.16251-0.066855 0.22461-0.12109-0.046025-0.055977-0.080515-0.12385-0.125-0.18164-0.001701-0.39342-0.38627-0.96604-0.93555-1.6055-0.22773-0.52766-0.39948-1.0788-0.50781-1.6465-0.36281-2.4161 0.4542-4.8301 2.5586-6.3379 0.48708-0.50505 1.0558-0.86208 1.666-1.0996 0.2793-0.09746 0.5617-0.18911 0.85352-0.24805 0.20653-0.041713 0.41844-0.05323 0.62891-0.076172 1.6086-0.14437 3.3177 0.332 4.625 1.1621-0.0486-0.17662-0.083085-0.37967-0.12695-0.56445 0.22872-0.07846 0.12266-0.33723-0.14062-0.625-0.32626-1.5587-0.57918-3.2605-1.0703-4.6621 0.076191-0.27071 0.071414-0.57251-0.054688-0.92383-0.084477 0.028405-0.18107 0.091487-0.27148 0.13672-0.092315-0.19108-0.18446-0.38332-0.29297-0.55274zm17.182 1.7344c-2.2195 0.13948-4.3325 1.8146-4.5039 4.2441 0.47004 2.3179-0.56981 4.6977 0.10156 6.8184 0.001406 0.025345 5.1e-4 0.052843 0.001953 0.078124 0.064999 0.38424 0.20593 0.63544 0.39453 0.79883 0.049739 0.083336 0.093187 0.1677 0.15039 0.25 0.99282 0.15538 1.993-0.10282 2.959-0.54688 0.018433-0.003666 0.044528-0.014392 0.0625-0.017578 0.043546-0.023974 0.089008-0.053648 0.13281-0.078126 1.3333-0.65177 2.5939-1.6417 3.6543-2.4434 2.4313-2.076 2.9356-6.4209-0.033203-8.2695-0.88038-0.64438-1.911-0.89738-2.9199-0.83398zm-17.695 1.334c0.53195 0.013253 0.81334 0.49729 0.26562 1.7246-0.69637 0.2996-1.6693 0.44361-2.3262-0.02539 0.27834-0.95676 1.3766-1.7163 2.0605-1.6992zm17.938 0.44336c0.22381 0.003837 0.46291 0.027394 0.7168 0.074219 0.46786 0.15426 0.84579 0.36556 1.1465 0.61914 1.2028 1.0143 1.1477 2.7136 0.46289 4.2324-2.5e-4 5.57e-4 2.51e-4 0.001398 0 0.001954-0.51369 1.1385-1.381 2.1757-2.3359 2.7441-0.84591 0.64279-2.6783 1.3997-2.9023 0.10547-1e-4 -5.8e-4 9.9e-5 -0.001372 0-0.001953-0.03179-0.18529-0.029778-0.41196 0.011719-0.6875-0.069169-0.34436-0.12781-0.72435-0.16992-1.123-6.6e-5 -6.26e-4 6.6e-5 -0.001327 0-0.001953-0.18951-1.7969-0.039856-3.9865 1.0352-5.1484 0.11955-0.12907 0.25133-0.24595 0.39453-0.34766 0.42962-0.30511 0.9692-0.47831 1.6406-0.4668zm25.59 1.4355c-0.065181 0.061298-0.13359 0.11893-0.19922 0.17969-3.4317 3.1771-7.4642 5.6287-11.432 8.0703-0.78449 1.0104-3.6799 1.4028-4.4746 2.1523-0.12213 0.020615-0.24515 0.039924-0.36719 0.074219 0.06024 0.040179 0.14482 0.07924 0.21484 0.11914-0.069011 0.13414-0.074936 0.27923 0.007812 0.44141 4.4128 0.4042 7.4968 6.023 5.1309 9.9062-0.69596 1.8312-2.3644 2.7003-4.1113 3.2305-1.0874 0.16248-2.0974 0.21931-2.2207 0.54297-1.71e-4 4.5e-4 1.68e-4 0.001502 0 0.001953-0.047648 0.00993-0.10131 0.0234-0.14844 0.033203 3.676 3.5347 8.038 6.3102 12.139 9.3359 1.6421 1.1539 3.2835 2.3099 4.9316 3.4551 0.01539-0.012252 0.020612-0.026676 0.035156-0.039063 1.4261 0.84087-6.49e-4 -2.9867-1.1797-2.9473-0.051915-0.042173-0.10487-0.082945-0.1582-0.125-0.46741-0.42108-1.0336-0.80178-1.6426-1.1699-0.91018-0.60445-1.7918-1.1529-2.3301-1.5566-0.14146-0.064997-0.25549-0.13878-0.37891-0.20898-0.68722-0.55486-1.2421-1.1829-1.4766-1.9766-0.213-1.7953 1.4825-3.969 2.6465-5.4219 1.0852-1.7664 3.0077-3.9578 4.0469-5.7441 0.037818-0.052373 0.077575-0.10379 0.11524-0.15625 0.76985-0.90303 0.75979-1.17 0.46484-1.0996 0.017969-0.057405 0.052312-0.12214 0.066407-0.17773 0.085843-0.35083 0.12286-0.58906 0.12109-0.73828 0.2993-0.27265 0.02383-1.2452-0.44141-0.023438 0.027933 0.017336 0.044652 0.011137 0.070313 0.023438-0.61548 0.63991-1.8459 2.7297-2.498 3.6035-2.231 2.9842-4.052 6.4014-6.8477 8.9004-0.061324 0.050114-0.11541 0.10708-0.17773 0.15625-0.12249-0.11166-0.2938-0.24155-0.49414-0.38477-6.62e-4 -4.73e-4 -0.001289-0.001479-0.001953-0.001953-0.20336-0.14531-0.43861-0.30432-0.68555-0.47461-0.97396-0.67166-2.1434-1.5084-2.3906-2.2812-5.92e-4 -0.001854-0.001371-0.004007-0.001953-0.005859-0.01617-0.05146-0.015819-0.10153-0.023437-0.15234-0.006779-0.052202-0.020895-0.10494-0.017578-0.15625 2.51e-4 -0.003896 0.00164-0.007829 0.001953-0.011719 0.022404-0.27906 0.20057-0.54177 0.5957-0.7793 0.10156-0.051232 0.19054-0.12154 0.28906-0.17773 0.20702-0.11094 0.4014-0.23253 0.58594-0.36328 0.042807-0.030558 0.086837-0.058333 0.12891-0.089843 0.22416-0.16871 0.43606-0.34922 0.62695-0.54492 1.6935-1.6149 2.5877-4.0452 2.0664-6.3828-0.002361-2.7037-1.8713-4.7445-3.8105-6.377 2.6008-1.7057 5.2092-3.3994 7.8008-5.1191 1.8341-1.6623 5.5495-2.6083 5.4238-5.5391zm-44.818 3.2012c-0.64492-0.022107-1.3265 0.10542-2.0391 0.42383-1.4818 0.70801-2.3015 1.9937-2.5293 3.4023-0.007207-0.41461-0.039028-0.66734-0.13281 0.29297 0.024249 0.42967 0.046103 0.57925 0.066406 0.63476 0.024705 1.2318 0.47327 2.4823 1.3184 3.4707 0.13948 0.17184 0.28318 0.33188 0.42383 0.46289 0.093712 0.039112 0.18988 0.061786 0.28516 0.091797 0.071705 0.025492 0.14376 0.049771 0.2168 0.070312 0.02209 0.005429 0.044247 0.010613 0.066406 0.015625 0.89497 0.23355 1.8774 0.13477 2.791 0.13477 1.6436-0.20983 5.367-0.033278 5.7324-1.5918 0.20934-0.42562 0.11161-1.0078-0.51367-1.8281-0.021194 0.017547-0.045046 0.029645-0.066407 0.046875-0.78418-2.6554-2.8522-5.5321-5.6191-5.627zm0.070312 1.0547c2.3953 0.13998 5.8104 4.6729 3.2773 5.7637-0.16916 0.054119-0.3369 0.1129-0.50977 0.15625-0.90488 0.12871-1.8119 0.2383-2.7246 0.29102-0.8226-0.010159-1.6398-0.0948-2.4297-0.23047-2.0913-1.2774-1.1812-5.7873 1.9043-5.9434 0.15424-0.035581 0.31574-0.04685 0.48242-0.037109zm-7.8477 4.4531c0.23138 0.014355 0.39217 0.34955 0.31836 1.252l0.046875 0.25c-1.136 0.88541-1.4027 0.3694-1.2969-0.36719 0.16643-0.55443 0.60942-1.1548 0.93164-1.1348zm33.846 4.0508c-2.1968 0.0206-4.3681 0.77665-6.4121 1.6523-0.33281-0.083003-0.76968 0.019875-1.3809 0.41016 0.003115 0.063767 0.015632 0.12455 0.021485 0.1875-0.071298 0.03253-0.1479 0.06323-0.21875 0.095703 0.25858 1.5502 1.2838 2.7653 2.5469 3.7617 0.85463 0.71591 1.8324 1.3064 2.7832 1.7617 0.1162 0.062272 0.23723 0.13727 0.35156 0.19727 0.13185 0.10683 0.26425 0.21239 0.40039 0.30859 0.00263 0.001858 0.005181 0.004005 0.007812 0.005859 0.30707 0.22933 0.65155 0.42657 1.0215 0.58789 0.44905 0.20529 0.91845 0.3439 1.4062 0.41406 0.090617 0.01571 0.18024 0.025371 0.27148 0.03711 0.038167 0.003278 0.076842 0.003488 0.11523 0.005859 1.7364 0.1909 3.5356-0.32804 4.3613-1.8594 2.206-3.229-0.4001-7.3285-4.0879-7.5039-0.39577-0.0472-0.79188-0.06621-1.1875-0.0625zm0.34766 1.1035c0.4183 0.01342 0.79274 0.06026 1.0918 0.13867 3.5217-0.0937 4.9914 5.5825 1.5918 6.8828-1.2155 0.52764-2.2784 0.19618-3.2871-0.4043-0.21791-0.13706-0.43063-0.27753-0.65039-0.41797-1.0539-0.74478-2.0661-1.6677-3.1445-2.1113-0.35817-0.26898-0.60342-0.52132-0.80078-0.76562-0.16768-0.34214-0.29456-0.70958-0.41992-1.0664 0.10636-1.5236 3.4438-2.3256 5.6191-2.2559zm-18.057 3.5938c-0.09269 0.001261-0.22249 0.01556-0.40039 0.044922-0.01755 0.056477-0.007672 0.08867 0.003906 0.12109-3.0125 0.42274-5.9751 1.3825-9.0449 1.3984-0.86735-0.10312-1.7761-0.046503-2.0078 0.16797-1.0906 0.37824 1.8914 1.2518 3.1641 1.3398 4.8737 1.4225 9.6018 3.4262 14.145 5.6875 0.49997 0.53293 1.864 0.7762 1.0391-0.35156-4.14e-4 -5.65e-4 4.15e-4 -0.001386 0-0.001953-0.17485-0.30028-0.47581-0.63669-0.84961-0.90234-2.0064-2.2854-3.4609-5.108-5.1465-7.4844-0.247 0.018938-0.49219 0.053652-0.73828 0.082031 0.052888-0.055862 0.030829-0.10421-0.16406-0.10156zm-1.5664 1.5586c1.9397 0.046006 3.72 1.0888 4.2246 3.4238l0.20117 0.4043 0.15234 0.32812c-1.9754-0.0689-5.5924-2.0603-8.002-3.2246 1.0383-0.62692 2.26-0.95924 3.4238-0.93164zm-24.707 0.41406c-0.7865-0.03886-1.3081 0.21243-1.1875 1.1914 10.373 0.497 20.873 2.471 30.078 7.4688 5.4566 2.7094 10.308 6.4052 15.197 9.9922 3.176 1.0088 0.50759 5.11-1.1953 6.5566 0.16366 0.086013 0.57832 0.045389 0.98242-0.099609 0.032761 0.7049 0.30318 0.21867 0.55469-0.28906 0.16956-0.124 0.30368-0.26944 0.36523-0.43945 1.353-3.8901 4.5626-2.5859 6.877-0.375 3.268 0.7494-0.94388-2.2166-1.9805-2.7363-0.51586-0.33331-1.0211-0.68203-1.5273-1.0293 0.27109-0.094011-0.73021-0.68999-1.2305-0.85742-4.6876-3.335-9.1002-7.068-14.244-9.709-8.5825-5.1433-18.367-8.0892-28.295-9.082-1.0367 0.34381-3.0837-0.52703-4.3945-0.5918zm50.082 14.322c-0.13473-0.019776-0.25394 0.078794-0.31641 0.38086-1.55e-4 7.42e-4 1.54e-4 0.001208 0 0.001953-0.020648 0.1004-0.036458 0.22328-0.042969 0.37109 0.13979 0.11024 0.26192 0.19848 0.36914 0.26562 0.21445 0.13429 0.36779 0.18727 0.4707 0.18555 0.25681-0.004287 0.20489-0.35664 0.039063-0.67969-2.52e-4 -4.89e-4 2.52e-4 -0.001465 0-0.001953-0.066369-0.12892-0.15186-0.25224-0.24219-0.34766-0.045676-0.048252-0.093577-0.088692-0.14062-0.11914-0.046695-0.03022-0.091808-0.050049-0.13672-0.056641zm5.3359 10.719c-0.065276 0.016589-0.13393 0.057225-0.20312 0.13281 0.94548 0.85286 0.66006-0.24893 0.20312-0.13281z" fill="#1a1a1a"/>
<path d="m64.374 1044.8c-4.7419-3.9037-10.029-7.1113-14.797-10.997-1.2015-0.6084-3.1077-2.5352-0.3871-1.9575 2.2535 1.5208-1.1934-0.029 2.9941 2.2528 2.3861 2.0112 5.1321 3.4626 7.5858 5.4078 1.6376 1.6077 6.1017 2.7014 4.7711 5.5211zm-12.527-2.9917c0.10472-2.3773 2.2366 1.7639-4e-5 0zm-19.634-9.548c-4.5947-2.1878-9.2725-4.3627-14.329-5.2016-0.93032-1.0274 3.5616 0 4.412 0.5239 3.8849 1.5825 7.7648 3.2033 11.674 4.7023 2.976 2.0707-0.72575 0.6008-1.7562-0.025zm11.943-3.871c-2.345-1.655-5.1055-3.0795-5.8721-6.1307 2.3107 0.17 4.173 3.9523 6.4589 5.3569 1.3427 0.9008 2.1369 2.8128 0.04386 1.1886l-0.30155-0.1956zm-32.819-8.7257c-1.6922 0.039-4.3645 0.018-1.8454-1.7315 2.529-3.3278 3.5511-7.8103 7.2524-10.198 1.9409-1.1505 4.0796-4.1718 5.5462-4.6251-0.4415 1.7576-6.4477 4.6222-2.0754 4.6266 1.2199-0.9295 4.8448 1.6871 2.5192 0.9896-2.5791-1.5359-6.0462-0.4794-7.7738 1.8818-1.4331 2.4077-2.7232 4.3121-4.2002 6.598-0.02794 2.3127 3.0754 0.4768 2.3567-1.3265-0.7338 1.6348 3.8743 4.3112 0.48901 3.8783-0.75583-0.038-1.5121-0.068-2.2685-0.093zm-10.48-0.838c-0.37808-1.508 1.6525-0.5839 2.5351-0.8191 0.84235 0.062 2.6414-0.081 2.9004 0.1053-1.5769 0.5936-4.5811 2.4494-5.4355 0.7139zm16.08 0.1263c-1.7173-1.6849 3.3733-0.6271 4.4649-1.2585 1.1936 0.01 6.2642-1.4471 4.4791 0.7853-2.8662 0.1803-6.296 1.7029-8.944 0.4732zm18.188-3.0165c-0.50319-2.917-0.6881-6.6065 0.42939-9.5351 1.6158-2.901 6.2703-2.6931 7.6165 0.3547 1.5108 2.7165-0.48335 6.3905-3.1644 7.2829 1.4848-2.467 4.1098-7.5853-0.66396-8.1951-3.4337-0.01-3.4358 4.2585-2.9849 6.7335-0.09635 1.2277 0.28491 2.0705 1.6125 2.1508 3.1704 0.657-2.4377 1.7207-2.8451 1.2083zm10.212-4.153c1.6291-3.2119 0.09332-7.1439-2.9878-8.8611-3.1433-1.511-7.5252-0.3256-8.9535 3.0504-1.7284 0.8606-1.2553-4.0181-2.1159-5.2268-0.79023-3.2796-1.6902-6.5456-2.4822-9.8164 1.874 3.9091 2.3702 8.3838 4.0097 12.412 2.2756-0.8281 4.5766-2.7217 7.2941-2.1534 4.0858 0.2609 7.1157 4.1404 6.9605 8.1376 0.2081 0.8221-0.55535 4.0276-1.7248 2.4581zm19.04-4.0403c0.96627-1.0681 0.08764 1.1151 0 0z" fill="#0a2f55"/>
</g>
</g>
</g>
</svg>
