<svg viewBox="0 0 64 64" xmlns="http://www.w3.org/2000/svg"><path transform="translate(0 .002)" d="M0 0v64h64V0z" fill="#685300" style="paint-order:stroke markers fill"/><path d="M17.518-.026 0 .002c0 10 0 21-.002 31.375 2.24.01 4.467-.009 6.295-1.543 1.896-2.957 3.337-6.263 5.557-9.03 1.738-2.166 4.153-3.693 6.144-5.63 1.816-1.767 1.846-5.055 2.084-6.084-.238-.971-1.096-3.842-1.637-6.211zM45.27.012c-6.239 0-12.031-.066-18.27-.01 1.794 5.511 3.275 13.602 4.548 17.103.54-.303 2.008-2.622 3.149-3.295 1.417-.55 3.04-.655 4.551-.82 2.724-.13 4.092 1.848 5.708 3.294.556 1.907 2.157 3.73 1.044 5.717-1.01 2.328 2.221-.289 2.922-.44 5.223-3.455 10.08-7.442 15.059-11.24L63.985.016C57.746.023 51.509.01 45.27.01zM18.586.015c.471 2.969 1.646 5.924 2.338 8.854.051 1.743-.714 3.757-.96 5.498-1.9 2.332-4.705 3.99-6.896 6.115-2.167 2.34-3.16 5.598-4.888 8.274C6.988 31.963 3 32.167-.002 32.134c.04 1.874-.097 3.76.102 5.623 2.61.497 5.678.051 8.384.249 4.189.71 8.378 1.798 12.545 2.664 3.251 1.12 6.387 3.032 9.584 4.312 3.63 1.683 8.225 3.752 11.223 6.424 5.255 4.643 11.407 8.94 16.803 12.494 1.721.239 3.578.03 5.35.101-.023-2.002-.093-3.795-.116-5.797-.02.005-.131-.056-.305-.162-.922-.563-3.614-2.407-3.923-2.565-5.063-4.046-10.97-7.334-15.592-12.058.739-.607 3.857.174 5.04-.605 1.232-.872 2.935-.566 3.46-2.146.699-1.028.974-1.988.82-3.245.03-1.673-.062-3.603-1.325-4.809-1.464-1.942-4.882-2.564-7.023-2.89 6.51-2.626 13.192-7.22 18.898-11.194l.05-5.537c-.269-2.772-16.161 12.746-19.972 12.008 1-2 2-4.412.03-6.254-.304-1.787-1.368-3.002-2.53-4.193-1.327-.52-2.667-.917-4.075-.413-2.943.155-5.025 3.044-5.425 5.86 0 3-4.11-13.516-6-20zM64 57.001c.016-.595.016-36.867 0-37.484-4.676 3.225-9.098 6.772-14.178 9.352-2.982 1.054.473.161 1.932 1.959 2.541 2.202 2.955 4.449 2.731 7.03-.485 5.144-5.688 6.972-8.024 6.64 2.335 2.17 4.891 3.718 7.48 5.586 3.388 2.445 6.612 4.353 10.06 6.918zM21.523 11.222c.946 2.571 1.864 6.931 2.648 9.618 1.38 2.883-1.614.346-2.776-.422-1.214-.46-2.398-.075-3.712-.202-1.697.27-2.9 1.846-3.877 3.225-1.703 2.283-1.338 6.923 1.549 8.881 1.022 1.248-14.467.57-7.725-1.324 1.73-2.4 2.92-5.088 4.432-7.643.812-2.07 2.557-2.994 4.104-4.463 2.078-1.903 5.343-4.489 5.357-7.67zm19.347 3.923c4.517 2.766 6.13 4.857 2.18 11.035-1.723 1.087-4.421 1.8-6.24 2.777-5.233 1.312-11.716 2.998-17.74 3.564-2.195 1.015-3.727-1.513-5.084-2.848-.418-1.322-.505-2.98-.742-4.388.726-1.67 2.64-3.33 4.26-4.256 1.271.157 3.057-.142 4.193.463 2.358 1.201 4.387 3.06 4.92 5.67 2.383-2.16 5.157-2.946 5.392-4.61-.307-2.583.756-5.456 2.891-7.034 1.958-.892 4.108-.9 5.97-.373zm-19.167.158c-.703.699-2.52 2.562-4.215 3.593-2.287 2.117-.773.401.545.514 1.308.189 3.967-.408 5.083 1.239-.415-3.024-1.365-4.012-1.413-5.346zm17.295.358c-1.986-.016-3.694 1.066-4.887 2.406-1.842 3.173-.11 6.935.82 9.984 2.529-.346 4.416-1.924 6.712-3.128 1.532-2.001 2.364-4.895 1.098-7.155-.993-1.203-2.162-1.985-3.743-2.107zm-21.011 6.292c-1.663.363-2.604 2.149-3.59 3.467-.1 2.627.568 6.26 3.977 5.83 2.068-.81 6.478.364 6.832-1.813-.729-2.524-.695-5.366-3.445-6.56-1.046-1.105-2.423-.817-3.774-.924zm-6.371 4.516c-.83 1.829-2.889 5.1-2.889 5.1s1.419.106.375 0c1.686.098 2.71.04 4.399.06-1.5-.626-2.071-1.494-1.885-5.16zm32.898 4.163c.45.018 1.25-.041 1.709.073 1.4.35 3.525.06 4.465 1.392 2.749 1.942 2.795 6.215.994 8.817-1.334 1.068-2.424 1.614-3.63 1.749-2.661.406-5.058-1.224-7.112-2.667-1.36-1.14-2.613-2.912-3.72-4.297-2.313-1.462-5.196.285-7.665.467a36.835 36.835 0 0 0 5.49 8.445c.56.677 1.889 2.156 2.381 2.885-3.95-2.294-9.191-4.356-13.38-6.154-3.36-1.708-8.151-2.328-11.739-3.32 6.919-2.22 14.266-3.583 23.422-4.788 3.038-.49 5.637-2.724 8.785-2.602zm-.329.83c-2.177 1.06-3.907 1.43-5.946 2.722.705 1.629 1.775 3.005 2.706 4.545 2.076 1.824 2.746 3.202 7.192 3.084 3.554-.882 4.804-5.363 2.677-8.011-1.495-2.212-4.317-1.905-6.629-2.34zM28.691 36.83c-3.521.096-7.08.822-10.609 1.107-3.232.078.063.671 1.582.899 3.04.427 5.281 1.852 8.108 2.947 2.014.858 3.951 2.007 5.967 2.861-1.947-2.476-3.18-5.287-5.047-7.814zM.148 38.666c-.29 4.19-.085 8.415-.15 12.619v12.717c19.932.04 39.76 0 57.002 0 0 0-.656-.967-1.48-1.444-5.477-3.786-11.395-7-16.393-11.625-4.355-3.647-9.817-5.547-14.973-7.787-3.126-1.608-6.712-2.027-10.08-2.875-4.462-1.297-9.366-1.169-13.926-1.605z" fill="#404b5a"/><path d="M57.058.012 54.48.026c-.853-.008-1.935-.011-3.375-.011h-5.952l-.017.063h-.04l-1.301 5.185c-.715 2.851-1.302 5.332-1.304 5.512a.49.49 0 0 0 .004.053l-.007.04a.43.43 0 0 0 .163.361.7.7 0 0 0 .097.115c.097.09.683.284 1.76.587.008 0 .016 0 .024.01.898.252 2.128.578 3.748.99 5.744 1.464 5.547 1.42 5.635 1.277l.008-.028h.014l.118-.544c.246-1.066.786-3.5 1.392-6.289.81-3.718 1.503-6.89 1.541-7.046zm-34.677 0h-.45c-.401 0-.792 0-1.146.005-.287.005-.57.005-.791.009-.838.012-1.407.029-1.407.05 0 .011.008.036.02.065-.012.009-.02.017-.02.027 0 .087.512 2.093 1.138 4.458.626 2.364 1.138 4.413 1.138 4.552 0 .314-.99 5.112-1.087 5.268-.039.063-1.737 1.56-3.773 3.327l-3.702 3.213-2.593 4.592-2.592 4.592-.935.634c-.824.56-1.116.676-2.453.98-1.032.236-1.871.346-2.624.346H-.002v2.954l.002.403c.002 1.099.012 1.74.05 2.036l.006.046.011.07c.033.16.081.206.152.226.122.035 2.042.133 4.268.219l4.047.154 6.386 1.421 6.386 1.421 5.682 2.415c5.489 2.334 5.791 2.48 8.915 4.325 2.194 1.295 3.456 2.124 3.929 2.578 1.992 1.92 5.909 4.877 9.383 7.085.11.07 2.183 1.466 4.607 3.103 2.425 1.637 4.551 3.07 4.725 3.186.102.068.232.115.472.147.311.067.936.077 2.441.077h2.525v-2.922L64 58.001s-.954-.862-1.235-.93c-.188-.149-1.77-1.296-4.381-3.113-10.762-7.49-9.99-6.694-12.005-8.67-1.025-1.004-1.842-1.846-1.817-1.872.026-.025.516.05 1.09.165a7.934 7.934 0 0 0 2.07.15c.989-.06 1.086-.095 2.73-.995l1.706-.933.726-1.328.726-1.328.003-1.833c.002-1.717-.022-1.908-.39-3.012-.216-.648-.515-1.309-.664-1.47-.462-.496-2.724-2.474-2.828-2.472-.152 0-2.97-.387-3.292-.453-.156-.033-.284-.106-.284-.163 0-.057 1.01-.552 2.243-1.1 1.235-.55 2.9-1.397 3.7-1.884 1.181-.719 10.255-7.099 11.546-8.118l.346-.273-.014-1.391c.007-.498.01-1.152.01-2.066V11.47l-.062.058-.002-.117-6.78 5.143c-6.016 4.564-6.984 5.252-8.598 6.112-1.982 1.057-4.043 2.034-4.123 1.954-.027-.027.24-.979.596-2.114l.646-2.064-.65-1.79c-.71-1.96-.703-1.95-2.687-3.654-.8-.687-.94-.757-2.077-1.025l-1.219-.287-1.97.387-1.97.386-1.46 1.47-1.461 1.468-.232 1.17c-.128.643-.278 1.17-.333 1.17-.055 0-.186-.3-.29-.665C30.981 17.92 26 .073 26 .002c0-.017-.186.045-.71.034a70.718 70.718 0 0 0-2.268-.024c-.217 0-.414-.005-.642-.005zm7.725 0-.133.474c-.13.462-.202.848-.217 1.23-.041.336-.018.598.082.986.036.189.079.384.137.6l.288 1.073 1.591 1.61 1.592 1.612 1.138.308c.626.17 1.201.312 1.278.317.077.005 1.158-.22 2.403-.502 2.255-.51 2.265-.51 3.047-.316.534.133.888.194 1.117.185.213.02.311-.005.311-.068 0-.005.014-.062.017-.075a.29.29 0 0 0 .03-.068C42.952 6.803 44.51.266 44.51.147c0-.005-.005-.008-.012-.011L44.51.08c0-.025-1.473-.046-3.558-.059-.18 0-.366-.005-.561-.005-.943-.005-1.967-.007-3.08-.007h-7.197zM21.593 11.92c.03 0 .057.038.085.117.163.459 2.6 9.758 2.6 9.92 0 .1-.027.183-.06.183-.034 0-.75-.455-1.592-1.011l-1.531-1.012h-3.98l-.777.474c-1.512.923-1.86 1.246-2.905 2.69-1.212 1.68-1.165 1.404-.8 4.657l.23 2.068c.769.739 1.137.994 2.183 2.348 0 .167-.736.172-5.901.036-2.562-.067-3.112-.146-2.697-.389 1.354-.791 1.292-.706 4.102-5.651l2.663-4.687 3.54-3.06c1.948-1.683 3.668-3.184 3.823-3.334.21-.205.359-.652.585-1.765.23-1.131.342-1.57.432-1.584zm17.325 2.978c.315-.013.56.035 1.008.132.866.189 1.01.27 2.165 1.247l1.238 1.044.529 1.43c.29.786.527 1.572.526 1.745 0 .174-.25 1.094-.552 2.044-.44 1.383-.668 1.89-1.144 2.538l-.594.81-2.87 1.415-2.87 1.415-4.868 1.147c-4.649 1.095-5.089 1.175-9.737 1.767-2.678.341-4.92.621-4.981.622-.138 0-2.584-2.38-2.742-2.672-.118-.218-.497-3.35-.497-4.114 0-.348.19-.702.888-1.66.752-1.03 1.047-1.321 1.915-1.886l1.025-.667h3.445l1.58 1.056 1.58 1.057.791 1.567c.614 1.216.894 1.965 1.245 3.338.248.974.518 1.838.6 1.92.112.116.874-.022 3.307-.602 1.739-.413 3.436-.814 3.77-.889.336-.076.642-.22.68-.32.04-.102-.276-.937-.7-1.856-.754-1.634-.775-1.71-.961-3.439l-.191-1.769.358-1.672.357-1.671 1.107-1.206c.609-.663 1.23-1.235 1.379-1.27.149-.035.951-.2 1.783-.367.73-.146 1.116-.22 1.43-.234zm5.336 15.892c.447 0 1.142.088 2.52.28l2.578.358 1.237 1.114 1.238 1.113.454 1.361c.453 1.361.453 1.361.324 2.607-.113 1.09-.196 1.372-.666 2.256-.585 1.103-.673 1.178-2.551 2.157-1.06.553-1.19.59-2.087.585a10.2 10.2 0 0 1-1.941-.237c-.846-.2-1.23-.397-2.733-1.393-.962-.638-1.89-1.314-2.064-1.502-.36-.39-2.806-4.16-3.105-4.785-.108-.227-.267-.44-.353-.473-.143-.055-7.156 1.738-7.408 1.893a.263.263 0 0 0-.108.203c0 .075.803 1.52 1.785 3.214 1.607 2.768 1.953 3.272 3.446 5.018a369.458 369.458 0 0 1 1.834 2.153c.343.42-.153.202-1.823-.805-1.318-.794-2.825-1.492-7.478-3.462l-5.827-2.467-4.346-.96c-4.947-1.091-4.823-1.058-4.473-1.201.14-.057 3.497-.483 7.461-.948 7.92-.928 6.96-.746 14.732-2.792 2.742-.722 3.39-.945 5.627-1.94 1.391-.62 2.786-1.193 3.099-1.276.182-.048.36-.074.628-.07zM.051 54.904c-.029-.029-.053 2.01-.053 4.531 0 2.17.03 3.753.077 4.31.01.152.023.253.036.253.187 0 1.798-2.562 1.727-2.747a31.479 31.479 0 0 1-.377-1.344 279.46 279.46 0 0 0-1.23-4.416c-.083-.319-.157-.564-.18-.587z" fill="#cfac22"/><path d="M-.002 59.412c0-2.522.024-4.56.053-4.531.03.029.142.423.251.875.109.451.483 1.845.831 3.097s.633 2.374.634 2.494c.001.234-1.46 2.536-1.653 2.607-.07.025-.116-1.808-.116-4.542zm48.097-46.575c-5.138-1.295-5.608-1.463-5.608-1.996 0-.184 1.924-8.047 2.54-10.38l.125-.473h5.952c4.708 0 5.94.033 5.894.158-.032.087-.734 3.273-1.56 7.081l-1.502 6.924-.382-.018c-.21-.01-2.667-.593-5.46-1.297zM34.71 7.88l-1.138-.314-1.617-1.608c-1.613-1.605-1.617-1.61-1.928-2.627-.368-1.2-.373-1.318-.113-2.466l.2-.878h7.198c3.959 0 7.198.03 7.198.069s-.398 1.71-.885 3.715c-.487 2.006-.885 3.682-.885 3.725 0 .13-.396.092-1.328-.126l-.885-.207-2.087.465c-1.147.256-2.2.488-2.34.515-.138.027-.764-.091-1.39-.263z" fill="#516b45"/><path d="M58.032 61.112c-2.325-1.603-4.397-3.076-4.606-3.272-.209-.196-.91-.71-1.559-1.141-.823-.548-1.158-.842-1.108-.972.095-.246 2.335-3.73 2.537-3.944.129-.137 1.118.493 5.423 3.454l5.266 3.622v5.168h-1.727zm-7.931-5.77c.093-.357 2.61-4.088 2.758-4.088.273 0 .068.397-1.173 2.272-1.2 1.813-1.749 2.44-1.585 1.816zm-2.46-1.464c-1.144-.777-3.06-2.334-5.714-4.643l-3.993-3.473-3.243-4.742c-1.784-2.608-3.498-5-3.527-5.112-.044-.168.393-.322 2.435-.863 1.825-.482 2.532-.622 2.652-.522.09.075.795 1.006 1.285 1.865 1.123 1.97 4.297 6.025 6.323 8.076 1.302 1.32 1.882 1.775 4.983 3.916 1.93 1.332 3.509 2.491 3.509 2.576 0 .314-2.564 4.092-2.777 4.092-.117 0-.987-.526-1.934-1.17zM28.454 29.75c-.055-.087-.52-1.049-.924-1.953-.771-1.722-.657-1.317-5.267-18.788-.56-2.126-1.02-4.06-1.02-4.3.002-.821.816-1.63 1.644-1.634.243 0 .613-.114.822-.253.723-.479 1.906-.215 2.386.532.102.16 1.444 5.013 2.982 10.786 2.075 7.788 2.977 10.964 3.495 12.31.384.998.768 2.056.747 2.166-.029.15-.623.34-2.315.74-2.647.628-2.424.594-2.55.394z" fill="#cf6722"/></svg>