<svg viewBox="0 0 64 64" xmlns="http://www.w3.org/2000/svg"><g stroke-width=".32"><path d="M0 32.012v-32h64v64H0z" fill="#b3b3b3"/><path d="M26 .002h38c-4 17-26 17-38 0z" fill="#ffc1ae"/><path d="M-.037 37.512S29.23 43.448 39.36 49.556c1.35.741 6.373 3.793 2.982 1.124-7.152-4.56-14.855-8.415-23.016-10.824-3.975-1.025-8.01-1.781-11.96-2.905-1.415-.642-4.759.07-6.403-.49-.873-.297-1.267-.952-.64-2.36.131-.095.267-.184.406-.268 2.589-1.565 6.284-1.257 7.763-4.45 2.307-3.697 3.895-8.076 7.657-10.614 2.15-2.102 5.332-3.593 5.188-7.046.838-3.31.317-6.942-1.052-9.965.366 4.457 1.86 9.596-1.145 13.51-3.151 3.134-7.09 5.705-8.943 9.909-1.581 3.23-3.162 6.545-7.197 6.832-2.534 1.387-3 0-3-2.451V.008C6.94.027 14 .01 21 .01c3 0 5.257 1.322 5.462 4.43 2.305 7.937 4.055 16.053 7.036 23.78 1.557.728-1.135-3.301-1.065-4.325-.907-3.914 1.288-9.15 5.844-9.167 4.018-.45 7.585 4.363 5.77 8.04-.049 2.851-5.28 5.496-5.121 6.233 3.587-1.063 5.482-4.507 6.293-7.91.12-3.4-3.092-7.26-6.735-6.93-3.693-.908-5.836 4.177-7.18 5.15-1.545-3.725-2.11-7.78-3.32-11.623C27.722 5.137 24 .01 29 .01c2.436 1.562 1.839 6.17 5.638 6.925 2.466.61 4.66-1.412 7.392-.675 1.478-.113 1.603-2.22 1.844-3.839.18-1.212.426-2.15 1.352-1.775-.257 2.444-2.556 7.133-1.17 8.322 3.338-.874 6.516 1.905 9.685 2.17 1.001-2.495 2.04-5.074 2.821-7.732C57.052 1.589 58 .01 59.691.01H64c-.082 19.017.206 38.042-.25 57.053-2.482.806-5.22-3.3-7.824-4.308-4.067-2.742-8.352-5.381-11.447-9.27 3.296.261 7.572-.526 8.634-4.18 1.354-3.89-1.444-9.157-5.883-8.954-2.274-.702-8.245.035-8.006 1.203 3.841-.94 8.797-2.009 11.913 1.158 2.769 2.76 2.276 8.349-1.768 9.653-4.343 1.782-8.573-1.808-10.775-5.27-.893-1.42-2.876-5.127-1.613-1.51 1.675 2.779 3.715 5.285 5.983 7.583 3.124 3.165 6.68 5.935 10.306 8.475 3.398 2.415 6.87 4.729 10.17 7.28.909 2.202.56 5.087-2.023 5.07C54.102 64.005 0 64.01 0 64.01zm24.666 15.152c.582-3.075-2.183 1.159 0 0zM14.88 42.89c-1.827-1.387-1.737 1.424 0 0zm5.6-5.795c-2.244-1.486-1.645 1.842 0 0zm-1.76-3.805c-3.464-1.099-6.56-4.767-5.073-8.524 1.247-3.442 5.932-5.203 8.884-2.738 2.387 1.278 3.973 6.728 5.008 6.838-.93-3.894-3.845-8.25-8.211-8.452-3.938-.286-7.449 3.667-6.423 7.553.406 2.383 2.953 6.441 5.815 5.323zm-9.9-19.334c1.317-2.285-2.281 1.594 0 0zm3.191-3.643c-1.646.293-.716 1.854 0 0zm-7.404-3.45c1.594-2.22-3.205-3.667-1.197-.56.138.508.84 1.691 1.197.56zm36.707-2.986c.209-1.694 2.305-3.314 1.077-.609.034.604-.584 1.244-1.077.609zM35.32 2.739c.218-2.413 2.117 1.673 0 0zM43.04.33c.941-1.12.116 1.133 0 0zm3.84 0c.941-1.12.116 1.133 0 0z" fill="#cec5b4"/><path d="M20 .002s2.484 7.935 1.676 10.807c.004.152-.008.297-.014.445-1.074 2.005-2.433 4.24-3.976 6.51-.849.725-1.727 1.408-2.538 2.068-2.472 2.09-3.769 5.047-5.363 7.78-2.5 2.591-5.07 4.755-7.486 6.033l.055.006c-.35.136-.69.281-.987.459-.692.01-1.027.465-.992.933A2.52 2.52 0 0 0 0 36.414c3.824.136 7.633.607 11.381 1.373.36.061.715.144 1.074.211 2.019.462 4.048.889 6.055 1.403 4.096 1.15 8.084 2.668 11.938 4.478 1.372.661 2.732 1.352 4.088 2.049.913.49 1.82.992 2.715 1.514 1.043.688 2.28 1.314 3.416 2.027 1.189.746 2.265 1.587 2.894 2.693.092.07.423.307.547.399-6.317-3.87-12.829-7.405-19.699-10.195-6.975-2.556-14.408-4.364-21.732-4.801-6.699-.179 35.609 13.89 46.254 18.46 4.96 3.523 11.398 7.978 12.07 7.978h3v-4c-.243-.182-.306-.24-.51-.395-.252-.645-.729-1.204-1.603-1.574-.544-.404-1.1-.798-1.65-1.196-.18-.16-.327-.3-.67-.574a727.368 727.368 0 0 1-4.54-3.111c-2.022-1.417-4.027-2.858-5.974-4.365-2.765-2.156-5.402-4.453-7.729-7.037l-.25-.286a37.864 37.864 0 0 1-1.764-2.152c-.308-.629-1.081-1.563-1.787-2.496-.302-.467-.6-.937-.882-1.422a8.523 8.523 0 0 1-.43-1.031.686.686 0 0 1 .217-.541c.25.148.613.498.998.95.574.965 1.161 1.93 1.814 2.85a10.734 10.734 0 0 0 3.348 3.509c1.157.857 2.618 1.342 4.07 1.402.063.003.125.008.188.01a7.29 7.29 0 0 0 .678-.024c.034-.003.07 0 .105-.004l.008-.002a6.029 6.029 0 0 0 2.435-.761l.008-.004.016-.01c.135-.079.27-.159.398-.25 1.069-.698 1.72-1.726 2.002-2.877.529-1.628.176-3.297-.709-4.666-.562-.981-1.37-1.81-2.404-2.297a8.374 8.374 0 0 0-.649-.264c-.002 0-.005 0-.007-.002a6.003 6.003 0 0 0-1.713-.418c-1.056-.153-2.126-.13-3.2-.013-1.7.16-3.386.547-5.076.904.23-.896 2.867-1.78 5.385-2.002.693.203 1.722.284 2.309.182a5.79 5.79 0 0 1 .738-.026c.088.024.181.043.264.07.754.013 1.46.19 2.115.47 1.663.757 2.983 2.23 3.674 3.953.033.084.073.164.103.25.036.1.06.204.092.306.062.202.126.404.17.61l.002.01c.003.014.003.03.006.044a6.99 6.99 0 0 1 .146 1.727 6.323 6.323 0 0 1-.095.84c-.018.097-.048.192-.07.289-.044.186-.086.372-.147.554-.043.125-.101.247-.153.37a5.548 5.548 0 0 1-.718 1.269c-.078.15-.165.289-.256.422-.703.838-1.624 1.4-2.647 1.775-1.038.328-2.151.483-3.15.637-.632.051-1.262.078-1.865.076.087.087.179.17.267.256h-.004l.053.047c2.742 2.67 5.85 4.908 8.961 7.127.152.11.306.218.459.328.555.396 1.11.791 1.662 1.19l.086.058c.095.052.185.115.28.17.74.519 1.476 1.046 2.222 1.557 1.226.958 2.438 1.941 3.82 2.58.46.308.92.622 1.38.93.04-3.004.058-5.276.081-7.749.014-1.087.023-2.174.033-3.261.006-.729.014-1.553.018-2.25.032-4.205.047-8.409.035-12.613-.001-4.336-.003-9.28.004-15.031l.002-.018h-.002c.002-1.531-.002-2.28.002-4-2.466 1.761-5.582 4.031-8.87 6.313 1.433-5.803-25.364-9.899-29.13-19.312.428 1.778 4.495 20.64 6.664 17.398 1.588-3.793 6.974-4.565 10.004-2.096 3.16 2.313 3.251 6.858 1.127 9.896-.201.517-.655.998-.584 1.584-1.316.688-2.567 1.275-3.709 1.71.233-.213.41-.484.54-.801 1.79-1.396 3.277-3.144 3.985-5.31 1.466-4.07-2.779-8.636-6.941-7.282-4.22.942-5.145 6.037-4.076 9.635.002.007.003.016.006.023.018.704 1.172 2.743 1.464 3.793.084.357.056.595-.156.627-.145-.008-.37-.107-.699-.326a67.514 67.514 0 0 1-1.768-4.643c-1.066-3.173-1.982-6.403-2.86-9.642-.623-2.33-1.237-4.661-1.89-6.979l-.084-.312c-.008-.02-.016-.047-.025-.067-.236-.832-.475-1.663-.727-2.49a29.72 29.72 0 0 0-.814-2.685c-.218-.956-.457-2.033-.457-2.033h-5zm-1.316 20.48c1.57.11 3.632.974 6.326 2.908 1.357 1.788 2.245 4.05 2.69 6.133-.486.429-1.865-2.716-2.84-4.39a6.745 6.745 0 0 0-.778-1.302c-2.125-3.206-7.145-3.638-9.449-.507.69-1.766 1.92-2.991 4.05-2.842zm-4.006 1.424A78.19 78.19 0 0 1 13.33 23.6a7.172 7.172 0 0 1 1.348-1.695zm-.844 6.597c.783 2.084 2.739 3.847 4.818 4.617-1.835.977-3.611-.397-4.771-2.164a35.09 35.09 0 0 1-.047-2.453zm25.3 5.242c.048 0 .133.025.267.09.916 1.248-.593-.085-.266-.09zm9.45 2.434a.29.29 0 0 1 .111.037.85.85 0 0 1 .266.266 1.539 1.539 0 0 1-.334.314c-.183.115-.29.06-.332-.054a.455.455 0 0 1-.017-.206c.017-.147.092-.297.21-.343a.203.203 0 0 1 .096-.014zM19.66 36.3a.646.646 0 0 1 .227.108c.16.113.34.314.533.63-.136.149-.26.269-.375.364s-.219.166-.313.215c-.188.098-.336.11-.447.066-.111-.043-.186-.142-.228-.27-.106-.318-.007-.809.24-1.021a.398.398 0 0 1 .363-.092zm4.672 8.951a1.4 1.4 0 0 1 .451.162c.015 1.49-1.2-.245-.451-.162zm-1.107 2.828c-.994.744.635 3.657 0 0zm18.115 8.489c-.348.071-.04 1.205.58.394-.275-.323-.464-.418-.58-.394zm10.092.662c1.07.551 3.758 1.983 6.158 3.316 1.052.687 2.104 1.375 3.154 2.063-.477-.15-1.53-.581-3.435-1.438a463.088 463.088 0 0 0-5.877-3.941z" fill="#b3b3b3"/><path d="M2 49.012c-2-10 17.924-8.391 25.749-5.144C39.289 48.941 50.523 57.113 61 64.011c-2 0-5.008-.698-6.317 0-2.683 0-4.526-2.52-6.683 0-3.778-.65-6 0-11.985-1.063-1.76-.627-3.701.344-1.015 1.063-2.193-.34-6.62-.019-8 0h-9c-2.715-.538-9 0-9.092-1.65.265-3.157.492-6.322 1.075-9.436.715-1.347-.263-6.112-.822-2.572.144 2.634-1.148 5.393-1.573 7.56 2.144 2.271-.552 6.561-3.579 4.547C-2.415 68.182.754 49.804 2 49.011zM18.88 62.91c-.617-1.167-.876.593 0 0zm-2.021-1.347c-1.081-.791-3.776-4.237-3.089-.8.796.693 2.053 1.2 3.089.8zm14.117-.672c-1.791 0-4.02-3.115-4.773-.988 1.026.716 4.15 1.84 4.773.988zm7.5.353c.345-2.918-6.814-1.424-2.684.023.887.118 1.81.234 2.685-.023zm-15.755-1.202c.086-1.826-2.992-1.11-.838-.131-.055.657.868 1.145.838.13zM5.28 59.83c-1.544-2.246-1.047 2.145 0 0zm14.88-.852c-1.279-.738-.532 1.904 0 0zm-2.24.092c-.617-1.166-.876.593 0 0zm21.579-.785c-.973-2.087-1.643 1.141 0 0zm-33.8-.913c-1.585-2.065-1.085 2.191 0 0zm25.34-.4c-.82-1.358-.79 1.308 0 0zm11.2.044c-.93-.73-5.949-1.953-2.684-.545.83.162 1.862 1.261 2.685.545zM14.96 55.458c-1.895-2.724-1.874 1.725 0 0zm5.821.233c1.904-2.603-2.64-5.008-2.15-1.006.268.869 1.306 1.374 2.15 1.006zm16.165-.598c-1.104-1.206-5.424-1.42-1.837-.248.418.024 1.735.962 1.837.248zm-7.024-.682c-.157-1.299-.947 1.257 0 0zm-22.674-.714c-.781-2.493-3.848 1.184-.559.379.248-.013.373-.252.559-.379zm7.154.11c-2.437-1.917-2.066 1.218 0 0zm10.721-.676c1.58-3.58-4.46-1.236-.997.61l.57-.21zm14.239.31c-.604-1.823-3.163.938-.614.18zM3.94 52.835c-1.927-2.95-1.07 2.151 0 0zm27.901.298c-1.306-1.215-.75.768 0 0zm4-.979c-2.063-1.56-1.025 1.86 0 0zm-7.15-.246c-1.68-1.918 1.093-1.577 1.72-1.412-.627-2.605-5.886-1.717-3.377 1.074.109.355 3.012 1.598 1.657.338zm4.27-.708c-2.152-2.393-1.852 1.753 0 0zm-24.96-.928c-1.41-3.442-2.417 2.668 0 0zm11.361.299c-.881-2.212-1.747 1.306 0 0zm4.256-1.502c-.294-3.28-1.843 2.163-.073.445l.073-.445zm-8.257-1.102c-1.132-1.937-.33 2.598 0 0zm2.913-.194c-.682-2.616-2.458 2.923 0 0zm-4.888-.833c-.97-1.773-1.682 2.405 0 0zm-2.715-1.887c-2.609-1.346.172 3.906-.007.268l.005-.182zm14.29.56c-1.23-2.037-1.185 1.962 0 0zm-8.057-1.96c-.39-2.287-6.36-1.253-2.798.257.842.086 2.267.768 2.798-.256zM7.87 42.409c.569-3.095-3.718-.457-.824.712.433.174.908-.266.824-.712zm-3.246-.13c.506-4.02-3.401.285 0 0zm4.977-.666c-.489-1.016-.487 1.124 0 0zm-6.08 22.07c1.145-.688 5.59.283 2.403.283-.764-.073-1.712.152-2.403-.282zm51.014-5.39c-5.882-4.053-12.174-7.827-16.517-13.65-2.43-2.907-4.46-6.12-6.406-9.362-2.472-1.167.745 3.527 1.297 4.445 1.849 3.028 4.407 5.537 6.34 8.506-6.841-3.5-13.678-7.23-21.222-9.008-2.084-.913-7.078-.867-7.49-2.348 9.211-1.15 18.491-2.153 27.444-4.72 4.112-1.022 9.147-2.38 12.806.522 2.965 2.688 2.176 8.538-1.978 9.56-4.35 1.296-8.35-2.306-10.303-5.87-.203-1.39-3.458-4.443-2.008-1.253 4.203 7.58 11.273 13.03 18.248 17.922 3.052 2.102 6.15 4.15 9.053 6.457-2.485.074-5.1-3.339-7.65-4.53-5.871-4.152-12.495-7.69-16.679-13.737-1.747-2.288-3.338-4.69-4.882-7.119-1.472-.083.612 3.07-1.506.831-1.712.327 1.778 3.702 2.38 4.963 5.175 8.373 13.914 13.468 21.743 19.038 1.817 1.403 6.141 4.053 6.259 4.792-3.317-1.16-5.921-3.694-8.931-5.439zM20.64 37.132c-1.216-2.25-3.005 1.612-.546.332zm22.56-.8c-.847-1.668-.562 1.552 0 0zm5.76.16c-1.119-1.389-1.255 1.357 0 0zm-8-.622c.293-1.725-3.153-3.34-1.464-.74.296.252 1.128 1.593 1.464.74zm4.16-1.317c-.968-1.048-.466 1.542 0 0zm13.6 24.119c-3.945-2.91-8.14-5.465-12.028-8.455 3.226.991 5.523 3.7 8.416 5.336 2.992 2.07 6.074 4.017 8.935 6.27-2.081-.414-3.536-2.145-5.323-3.151zM56 52.484c-3.647-2.657-7.521-5.068-10.698-8.308 2.542-.823 5.87-.41 7.358-3.29 2.905-4.16-.259-11.149-5.582-10.845-1.307.237-3.936-1.048-1.201-1.543 6.536-2.882 12.175-7.342 17.963-11.449.498 3.007-.757 5.706.146 8.577-.099 5.61.154 11.241-.236 16.834.47 4.338.128 8.68.002 13.018.542 1.885-.178 3.064-1.693 1.174-2.062-1.317-4.033-2.79-6.059-4.169zM39.776 44.09c-1.212-.934-1.406-2.992-.083-.864.71.412 1.09 2.284.083.864zM5.51 34.57c1.978.414 4.748-.392 6.227.87-3.685 1.83-17.721-1.803-6.227-.87zm-2.127-1.242c3.387-.914 5.832-3.599 7.06-6.796 1.76-3.444 4.207-6.5 7.324-8.804 2.724-1.598 3.554-4.772 4.426-7.308 1.538 3.079 1.987 6.691 3.013 10 .267 1.45 1.554 5.773-.294 2.558-2.578-3.477-8.322-3.932-11.043-.401-2.451 2.802-1.527 7.07.917 9.558 2.392 2.378-3.562 1.104-5.2 1.5a68.634 68.634 0 0 1-6.204-.307zm14.545-.684c-3.745-1.227-6.131-6.693-2.862-9.643 2.974-3.343 8.303-1.552 9.87 2.267 1.201 1.383 1.908 5.856 3.805 5.177.195-1.334-.714-4.337.638-1.634.451 2.963 4.626.446 2.197-1.474-2.783-8.74-5.054-17.652-7.209-26.554.734-.997 1.668 3.49 2.06 4.644 2.294 7.791 4.005 15.773 7.006 23.341 2.214 2.272.227-2.974-.29-3.838-1.37-3.83-.021-9.59 4.773-9.867 4.033-.705 7.438 3.837 5.939 7.548-1.514 4.302-5.985 6.803-10.123 8.058-5.202.999-10.443 2.792-15.804 1.974zm18.55-5.353c-.386-2.018-2.343-2.514-.928-.173.08.593.93 1.15.928.173zM21.92 24.416c.615-2.852-7.493-2.037-3.141.27.918.818 2.201.123 3.14-.27zM0 .012c6.553.127 13.445-.028 20 0 .635 4.645 1.546 9.706-.247 14.243-3.263 3.502-7.713 6.146-9.728 10.697-1.677 3.229-3.715 6.957-7.778 7.284C.001 30.012.031 2.171.001.012zm3.36 20.107c1.574-3.497 5.45-5.11 7.67-8.123 1.425-.483 3.308-4.53.735-2.282-3.202 2.849-5.97 6.188-9.47 8.696-4.129-.582.2 4.487 1.065 1.709zm-.668-6.943c-.43-1.849-1.773 1.385 0 0zM1.92 9.772c-1.673-1.707-1.844 2.019 0 0zm2.61-2.3c2.64-1.963-2.119-5.91-2.087-1.994-.537 1.69.075 4.029 2.086 1.994zm8.91.398c-.617-1.166-.876.593 0 0zM7.52 2.865c-1.46-2.046-1.446 1.594 0 0zm22.152 23.93c-2.831-8.3-4.724-16.888-6.885-25.37-.161-3.097 1.156 2.675 1.486 3.663 2.146 7.752 4.172 15.538 6.384 23.272-.528-.375-.66-1.043-.985-1.564zm13.848-.8c2.038-3.064 2.78-7.488-.247-10.212-2.448-2.54-7.333-2.695-9.658.018-.77 1.279-2.673 4.591-2.845 1.133C29.273 11.388 27.41 5.581 26 .011c3 0 4.258.4 4.204 2.893 1.033 2.847 4.433 5.917 7.536 4.082 2.428-1.247 5.294.067 5.45 2.704 3.284-1.019 7.102.744 10.14 2.005 2.137 1.344 1.31-3.703 2.569-4.871C57.488 4.454 57.284.01 61 .01h3l-.027 12.96c-6.449 4.665-12.532 10.114-19.93 13.235-.18.088-.496.023-.523-.212zm6.135-1.15c4.938-3.114 9.458-6.823 14.129-10.31-.776 3.11-4.628 3.77-6.706 5.848-3.07 2.114-5.986 4.593-9.555 5.833.6-.615 1.429-.903 2.132-1.372zM20.858.566c.157-1.298.947 1.257 0 0z" fill="#767462"/><path d="M.64 63.712c-.75-2.34-.317-5.52-.318-8.577C0 54.05 0 49.05 1.28 51.303c1.773 3.005 1.51 6.548 1.96 9.81.231 1.508-.24 2.938-2.6 2.599zm6.644-.115c1.425-.455-.054.672 0 0zm1.89.245c-1.457-1.694 1.957-4.288 2.84-2.072-2.232-.376 1.849 1.825-1.014 1.28-.397.029-1.48 1.023-1.827.792zm3.59-.388c-.265-1.927 2.897-2.266 1.083-.329-.114 1.487 2.354.482-.264.883-.45.034-1.583.042-.82-.554zm3.987.238c2.166-.719-1.126.526-.751-.641zm1.729.151c1.247-.319.932.545 0 0zm6.853-.183c-1.453-2.785 3.07-.124 0 0zm1.747.14c0-2.332 1.893.716 0 0zm1.56.01c1.616-1.56-4.51-3.247-.862-2.833 2.804.032 3.821 2.786.862 2.833zm4.36-.76c.698-.925 2.645 1.147 0 0zm4.514.365c-3.053-2.048 2.677-.845 3.407-.546.053-1.15-.842-2.414 1.105-2.587 1.645-1.663-3.951-3.12-.066-2.773.476-2.083-4.566-1.997-6.159-3.423-3.14-1.205.611-1.263 1.541-.062 1.694 1.277 3.923-.628 1.184-1.383-3.423-.406-6.028-2.935-9.264-3.733-1.437-.742-4.286-.213-2.797 1.903-3.082.593-2.456-5.247-6.19-3.936-1.481.049-4.735-1.648-1.327-1.205.885.355 4.552 1.435 2.539-.407 3.11-1.143-4.071-.639-4.904-2.367-1.51-1.63-5.754-1.436-4.521 1.25-1.541.842-1.927-.206-1.016-.905-.915-3.977-5.245-1.753-7.155-2.965-1.88.765-4.717.618-2.89-2.225 3.177-.802 6.03.818 9.308.956 8.267 1.371 16.284 4.066 23.63 8.108C43.059 51.996 52.314 58.51 61 64.05c-3 0-6.624-.279-9.347-.517-1.555-1.161-2.715-1.631-3.653.517-4 0 2.459-4.934-.215-4.336-1.934 2.55-6.003 3.425-8.785 4.336-1 0-1 0-1.486-.636zm7.39-2.131c-1.184-2.65-2.665.727 0 0zm1.496-2.528c-.978-1.447-.341 2.026 0 0zm-3.04-3.34c-.68-1.168-1.018 1.11 0 0zM25.45 46.12c.016-2.87-3.527.706-.376.236l.375-.236zM62.496 63.6c-6.983-5.39-14.922-9.51-21.39-15.567-1.182-2.377 2.47 1.36 3.184 1.853 5.94 4.765 12.27 9.01 18.565 13.283 1.655.306.146.88-.358.43zm-39.616-.094c-2.167-.638.903-3.143.824-.745 1.605.914.151 1.049-.824.745zm-3.6-1.311c-3.245-1.972 4.627-2.653 1.659.364-.527.456-1.152-.237-1.659-.364zm-13.52-.199c2.005-2.458 1.867 1.947 0 0zm57.787.181c-.463-1.602 1.067.438 0 0zm-40.335-1.702c.894-2.48 3.344 1.9.327.678-.43.181-.532-.446-.327-.678zm8.789.068c.485-1.604 1.458.713 0 0zm7.18-.04c.65-3.725 2.715 1.131 0 0zm24.18-.769c.847-1.667.562 1.553 0 0zm-51.371-.178c.41-1.62-.474-2.179-1.432-1.055-1.792-.355.853-2.45-.008-3.183 3.188-.701 4.867 3.648 1.712 4.506zm20.483-.649c-1.833-.474-1.739-1.188-.716-2.576-.974.21-4.399.9-2.078-.654 1.816-.686.207-2.843 2.559-1.394 1.988.675 6.504 2.24 6.742 2.765-2.01-.482-1.502 1.525-1.453 2.162-1.623-2.125-3.64 1.205-5.054-.303zm3.988-1.553c1.045-2.096-5.616-1.926-2.047-1.144.567.549 1.036 2.021 2.047 1.144zM24.71 58.92c-1.972-1.36 3.409-3.058.44-3.858.691-1.188 4.235-3.68 3.738-1.279-1.801 1.23-1.404 5.578-4.178 5.137zm-6.803-.652c-1.264-.282-3.726.712-2.974-1.862.914-3.963 7.244 1.145 3.526 2.443l-.34-.237zm.59-1.319c-2.923-2.952-1.367 2.428 0 0zm3.584.865c-1.006-1.502-.613-5.387.377-5.855 1.745.956.992 3.31.112 3.914.227.59.775 4.346-.489 1.941zm-15.68.142c.814-.684.618 1.146 0 0zm56.32-.94c-5.647-4.275-11.859-7.823-17.042-12.693 1.963-.477 5.71-.522 7.051-3.216 1.876-2.545 1.672-6.137-.195-8.614-.822-2.732-6.944-2.054-6.463-3.776 6.359-3.186 12.499-7.138 17.929-11.668 0 3-1.689 5.394-.178 7.82.178 2.18-.822 6.18-2.338 5.676 1.222 1.225 3.318 4.666 1.516 5.504-.54-2.216-1.66-3.573-2.63-.947-2.833.976 2.6.815 2.172 2.597 3.116-2.264-.409 5.167-1.168 1.42-2.383 1.758.389-2.37-2.266-1.587-2.718-.082-3.648 2.79-2.797 4.58-.837 1.107-3.14 5.304-.548 2.718 1.582-2.103 5.476-5.083 7.619-2.451.863 2.328.194 4.497.495 6.445-1.153 1.194-.957 2.145.041 2.662-.358 1.867.209 5.28-.386 6.213l-.426-.41zm0-3.682c-1.278-1.78-.968 1.29 0 0zm.063-4.255c.166-3.576-3.87 1.866-.39.185zm-4.353-.58c2.395-2.725-4.41.378-.684.19l.684-.19zm-1.543-1.665c-1.023-1.381-.893 1.602 0 0zm4.184-.843c-.89-1.352-.933 2.116 0 0zm-1.737-1.622c1.3-3.109-3.89-.068-1.35.499a4.937 4.937 0 0 0 1.35-.499zm3.417-.064c2.575-2.036-3.836-.142-.532.307zm-3.898-9.89c-1.74-.35-1.602 1.212 0 0zm-1.273-2.544c-2.495-1.414-1.73 3.623 0 0zm2.26-1.097c1.922-1.478-3.105-4.959-2.627-1.304.829 1.994 1.984-1.878 1.468 1.124-.027 1.101.726 1.199 1.159.18zm-4.16-.133c.196-1.33-2.719-4.398-1.41-1.364.266.498.554 1.921 1.41 1.364zm4.82-3.398c2.552-3.188-4.938-.863 0 0zm3.157-.709c-.219-3.901-2.17 1.528 0 0zm-1.897-2.3c-.617-1.167-.876.592 0 0zM5.93 55.428c.41-2.307 4.24-.137 1.254.302l-.652-.054zm49.175-1.436c-2.519-1.57.74-.432 1.182.732l-.609-.33zm-37.778-.467c1.103-2.943-3.929-3.605-5.097-2.113.187.927 5.625 1.51 2.178 1.58-2.48-.115-3.654-1.253-3.437-3.745-1.302-1.43 1.157-5.285 1.198-2.246-.051 1.642 1.787.839 1.71 2.588 2.002 1.408 2.292-1.503 2.49-2.248.498 2.32 1.062 4.74 4.168 3.351-.16 1.103-2.547 2.798-3.21 2.833zm14.993-.656c.506-1.62 2.16 1.608 0 0zM6.8 52.645c-.677-2.06 4.302-.82.927.089-.322.087-.614-.018-.927-.09zm44.4-1.423c-1.21-1.477 2.007 1.59 0 0zm-48.79.045c.395-1.796 3.648-3.354 2.158-.344-.255.95-1.528.726-2.158.344zm26.07-.176c.793-1.564.878 1.657 0 0zm18.56-2.697c-5.05-3.575-8.873-8.61-11.863-13.97-1.834-1.724 1.495-1.551.864.391 2.828 5.698 7.875 9.82 12.373 14.15 3.043 2.456-.324.13-1.373-.57zm-45.01.443c.09-2.325 1.512 1.695 0 0zm4.653-.086c-.143-1.191-1.773-2.44.689-2.375 3.255.692 1.983 3.019-.69 2.375zm13.557-.19c-3.78-1.474 4.406.245.146.03zM0 47.731c.82-1.358.79 1.308 0 0zm2.032 0c-3.364-2.248 4.819-2.04.489.1zm33.807-1.439c-7.49-3.968-15.44-7.283-23.863-8.572-1.884-1.23 4.49-1.25 5.797-1.33.95.987 2.882 3.02 3.17.31-1.127-1.713 3.443-.774 4.776-1.462 2.666-.765 4.921-.81 5.62 2.283 1.999 3.6 4.533 6.863 7.227 9.961-.297.664-2.077-1.03-2.726-1.19zm-6.4-10.204c-1.19-2.232-1.342 1.328 0 0zM14.146 46.83c1.55-2.086 1.269 1.775 0 0zM1 44.051c-.942-3.086.89-2.772 1.033-.293.024 1.883-2.364 3.19-1.033.293zM4.633 45.3c-2.142-2.514 5.873.386 1.324.589-.495-.03-.96-.262-1.324-.59zm8.107-.667c1.425-.456-.054.672 0 0zm23.362-2.582c-1.275-1.01-3.373-5.715-.936-2.213.359.47 2.95 4.275.936 2.213zm7.952-.372c-3.714-1.663-5.45-5.573-7.47-8.839 4.304-.944 9.08-2.765 13.3-.569 3.483 2.181 3.338 8.696-1.054 9.714-1.556.477-3.301.407-4.776-.306zm3.626-2.089c-.617-1.166-.876.593 0 0zm2.097-2.339c-.11-2.789-3.933-.73-1.111.392.48.433 1.664.654 1.111-.392zm-3.057.29c-1.319-1.107-1.51-5.808-3.432-2.624-2.145 1.669-.004 2.898.964 1.057.704.354 1.6 2.963 2.468 1.567zm-5.314-.876c1.67-2.449-4.683-5.351-2.315-1.42.453.626 1.422 2.739 2.315 1.42zm9.62.208c-.503-1.966-1.651 1.22 0 0zm12.328 3.97c-.39-1.529 1.446 1.603 0 0zm-5.747-.32c1.398-1.225-.552 1.448 0 0zM0 34.98c3.215-.272 6.5-.015 9.694.126-1.578.925-5.747.291-8.239.249A8.088 8.088 0 0 1 0 34.98zm31.04-.689c1.119-1.388 1.255 1.358 0 0zm1.462-.283c1.036-1.951 1.764 1.29 0 0zM9.281 33.41l-4.96-.099c2.341-.886 4.355-2.526 5.308-4.883 2.096-3.819 4.391-7.691 8.04-10.231 2.712-1.305 3.7-5.325 4.803-6.78 1.208 2.909 1.37 6.192 2.557 9.15 1.136 4.228-2.937-1.052-4.805-.617-4.46-.921-9.17 3.864-7.881 8.301-.458 1.995 5.303 5.685.682 5.254a311.491 311.491 0 0 0-3.744-.095zm-8.28-4.359c-.985-3.16.626-4.285 2.453-6.23.081-4.104 3.594-6.485 6.371-8.975 2.037-2.184 6.305-3.84 3.827-7.422.032-2.367-5.906-4.63-1.068-4.333C14.488.922 7.485-.016 11.74.301c2.457.225 5.15-.326 7.26-.25.98 2.095.908 5.02 1.363 7.422.293 3.09-.113 6.655-2.837 8.602-2.99 2.79-6.32 5.455-7.992 9.303-1.46 3.506-4.05 6.537-8.047 6.87-2.3.788-.337-1.99-.487-3.197zm1.24-.84c-.82-1.358-.79 1.308 0 0zm1.28-.96c-.488-1.016-.486 1.125 0 0zm3.2-2.72c.381-1.733-1.52 1.51 0 0zm3.52-6.88c-.82-1.358-.79 1.308 0 0zm6.56-7.68c-.68-1.167-1.017 1.112 0 0zm-1.76-5.28c-1.14-1.837-.669 1.555 0 0zm1.74-1.407c.115-2.701-4.925-2.253-1.806.086.56.278 1.285.296 1.806-.086zm1.112 29.183c-3.784-1.298-5.802-7.157-2.16-9.731 3.58-2.976 8.3.058 9.65 3.845.34 1.707 3.233 4.376 2.327 5.197a31.22 31.22 0 0 1-9.817.689zm2.268-1.056c-.82-1.358-.79 1.308 0 0zm6.25-.654c-.064-3.075-2.155 1.142 0 0zm-4.196-6.087c.955-3.798-7.597-2.652-5.673-.508 2.58-.633 2.054 3.083 5.673.508zm6.914 5.7c.203-2.993 1.46 3.318 0 0zm1.913.39c1.023-1.221 1.307.734 0 0zm1.462-.733c-2.073-7.434-4.33-14.822-6.153-22.329-.417-2.432-1.846-5.25-1.745-7.429 1.3 2.86 1.595 6.06 2.595 9.037 1.777 6.358 3.47 12.769 5.806 18.946.535.89 1.608 3.349-.503 1.775zm2.474-.327c-.87-3.196-2.65-6.309-1.912-9.738.333-3.94 5.487-6.136 8.58-3.755 3.704 2.518 2.49 8.011-.726 10.378-1.635.963-4.141 3.793-5.942 3.115zm2.295-1.796c.366-1.77-3.67-5.993-2.707-2.031.32 1.123 1.222 3.204 2.707 2.031zm-3.001-6.511c-1.317.722 1.217 1.647 0 0zm3.456-1.155c1.348-2.712-2.147.125-.424.193zm6.942 3.893c2.809-4.423-1.133-11.04-6.383-10.483-2.906.152-5.658 2.038-6.699 4.78-1.111-2.347-1.56-5.593-2.445-8.272-.905-3.288-2.173-6.835-3.141-10.105 3 0 3.012 4.453 5.88 6.16 2.013 2.674 5.125 1.89 7.602.733 1.51.865.29 2.873 2.876 2.28.803 2.37 4.119-1.176 5.028 1.509 2.65-.627 4.388 1.398 5.948 1.415 3.387 2.578.902-3.29 2.65-4.7 1.89-2.104.264-7.069 3.822-7.27 1.807.486-1.42 5.678 1.061 3.017 1.266-1.412-1.867-3.144 1.815-3.05.123.784-1.879 2.53.361 2.205 2.105 1.361-.48 3.99-.462 4.087 2.498 1.223.418 5.614.49 7.23-6.324 4.028-11.903 9.47-18.986 12.305.059-.65.358-1.239.583-1.84zm5.28-4.754c1.589-1.062 2.95-3.394 3.785-4.602-2.768.844-4.97-2.657-8.396-2.048-3.128 1.163 2.698 2.53 3.699 3.7 1.73 1.015-2.091 1.826-.037 3.304l.434.016zm7.012-4.606c-.49-1.016-.487 1.124 0 0zm4.16-2.24c-1.12-1.389-1.256 1.357 0 0zm-22.88-.32c-1.828-1.387-1.738 1.425 0 0zm19.976-1.732c-.162-2.353-2.193 1.69 0 0zm1.936-2.028c-1.355-3.6-2.392.772 0 0zm1.8-4.065c-1.563-2.462.052 2.801 0 0zM1.04 22.39c-2.417-.83.77-3.798 1.96-1.34 1.463.979-.862 1.94-1.96 1.34zm-.055-4.929c-2.557-1.24 1.057-2.545.926-2.708-2.763-1.279-1.028-.877.666-1.096 1.677-1.73-.029-2.874-1.277-1.042-2.333.822-.51-6.073-.3-2.566 2.743-.898 4.487-2.871 4.825-5.699-.513-.553-3.986-1.66-1.141-1.393 1.454.663 4.182 1.314 2.302-1.154-1.434-3.155 3.086-.743 2.575 1.36.178 3.168 3.901 6.993-.739 8.636-2.779 1.477-3.925 4.971-6.763 6.23-.429.019-.811-.255-1.074-.568zm3.317-7.342c2.516.16 2.09-3.316-.146-1.067-1.082.733-2.16 2.238.146 1.067zM8.33 6.467c-3.487-3.992.97 4.523 0 0zm52.951 10.397c.762-1.438 4.123-2.664 1.586-.79-.159-.048-2.26 1.665-1.586.79zM.56 7.862c-.038-2.12-.492-3.27.442-5.812C.638 3.585 3.591 7.581.56 7.862zm10.962-1.75c.814-.684.618 1.146 0 0zM1.211 1.894c-2.596-2.593 3.583-1.36.798.285-.322.036-.541-.122-.799-.285zm3.32-.101c.98-2.157.802 1.5.001.021zM4 1.05c.157-1.299.947 1.257 0 0z" fill="#385b3d"/><path d="M.64 63.712c2.71-.798-1.715-2.497 1.193-3.488C4.247 59.024 4 64.994.64 63.712zm6.958-.563c1.425-.455-.054.673 0 0zm1.7.544c-1.418-2.921 2.309-2.872 2.076-.207-.374.508-1.374.508-2.076.207zM14 62.994c1.442-1.226 1.62 1.439 0 0zm.34.782c1.425-.455-.054.673 0 0zm2.66-.782c.96-.712 1.067 1.082 0 0zm1.48.79c1.247-.32.932.543 0 0zm8.766-.079c-.673-1.428 1.559.214 0 0zm1.474.094c2.132-1.521-4.455-3.445-.187-2.622 1.863.352 2.504 2.345.187 2.622zm5.84-.124c.698-.925 2.44.32 0 0zm3.2-.19c-3.575-3.185 5.192 1.556 3.223-1.973.627-.987 3.116-3.129.457-3.312 1.374-1.018 4.483-3.896 1.007-3.352.055 2.894-4.379-.26-6.29-.632-2.077-.682-1.422-1.956.405-.774 1.165 1.715 5.39 1.248 2.512-.682-2.98-1.11-5.993-2.04-8.586-3.888-2.205-.655-5.392-1.4-4.27 1.986-1.657.275-3.765-4.122-3.188-4.177 1.102.136 5.096 1.57 2.997-.285 2.735-1.914-2.656-1.398-3.972-2.18-3.285-.047-5.98-1.91-8.967-2.956-1.243-.406-1.565-.147-.752.661-2.265 1.05-1.734-2.178-4.268-1.51C5.584 39.144.884 41.945 0 38.993c1.198-3.066 5.723-.015 8.353-.37 7.342 1.21 14.655 2.988 21.312 6.406C40.718 50.072 50.605 57.814 61 63.995c-4 0-6-1-8.613-.135-.455-.24 2.185-3.128-.164-1.558-2.107 2.283-1.475-3.044-3.194-.332-.48 1.18.97 2.025-2.523 1.67 1.494-.645-.04-2.186 1.717-3.16 1.834-2.51-1.182-.314-1.966-.217 1.564-2.469-1.649-3.074-2.325-.7-.497 2.565-1.932 4.432-5.797 4.164l-.375-.242zm.16-12.93c-.157-1.299-.947 1.257 0 0zm-1.76-.32c-.986-1.386-.269 1.142 0 0zm-4.567-2.753c-1.273-.408-.533.6 0 0zm-3.433-.927c.38-1.733-1.52 1.51 0 0zM63 62.995c.325-1.29 1.828 1.325 0 0zm-40.2.454c-1.952-.57 1.188-2.688.764-.496 1.702.628.086.799-.764.496zm2.48-.196c.568-2.092 1.003.919 0 0zM6.236 62.069c-.052-1.938 2.047.815 0 0zm6.884.01c1.36-1.316 1.208 1.162 0 0zm6.16-.11c-3.043-1.862 4.679-2.047 1.391.353-.496.02-.916-.272-1.391-.354zm44.267.153c-.463-1.602 1.066.438 0 0zm-52.445-.567c-.095-2.36 1.754.869 0 0zM.005 59.74C1.326 56.997.21 53.712 0 50.994c.727-2.937 1.519 2.948 2.245 3.693 1.192 2.243.125 4.333-1.951 5.24-.25 1.43-.28.131-.29-.187zm23.435.66c1.77-1.719 1.895 1.969 0 0zm15.92-.202c.56-2.138 1.593.802 0 0zm24-.519c.847-1.667.562 1.552 0 0zm-50.995-.062c.302-1.43.081-2.332-1.142-2.852.838-1.94 3.884.547 1.91 1.85-.006.358-.135 1.447-.768 1.002zM51.68 55.95c-3.775-2.714-7.963-4.997-11.017-8.581 2.22.451 4.2 3.47 6.455 4.736 3.363 2.547 6.924 4.82 10.267 7.394-2.093-.802-3.78-2.426-5.706-3.549zm-19.057 2.58c-3.82-.67 2.78-3.766.706-.812-.854 1.311 3.096-1.42 2.32.769-1.145-.925-2.213 1.787-3.026.043zm-14.327-.042c-.219-3.586 2.992.485 0 0zm6.426.18c-.216-2.303 2.634.887 0 0zm12.557-.108c.941-1.122.116 1.132 0 0zm-21.746-.933c-1.267-2.431 2.819 1.867.159.293l-.087-.16zm6.916.293c.307-1.983.165 1.794 0 0zm-12.677.022c.57-1.858 1.752 1.319 0 0zm53.426-.618c-5.65-4.44-12.03-7.928-17.28-12.874 3.366-.687 7.513-1.973 7.997-5.964 1.027-4.489-3.008-9.178-7.602-8.88-3.32-.77 2.749-1.84 3.573-2.88 4.981-2.684 9.538-6.075 13.914-9.644.199 2.913.175 5.469-2.96 5.41-.22 1.624-.498 2.888-2.418 3.395-1.132 1.694-1.086 3.894-1.797 5.864-2 .031-1.746 4.09-.208 1.632 2.174-1.212 1.683.764.32 1.676 3.54-.862 1.6 3.01-.472 3.395-.34 2.732-.98 5.115-3.109 7.147-.341 3.892 2.907-1.323 3.925-2.438 1.677-.98 4.857-3.033 6.017-.564-1.677.967-3.79.505-5.117.495-1.692 2.275 1.025 2.153 2.34 1.272-.589 1.172-.677 3.97 1.025 1.845.638-1.398 3.704-4.391 2.07-.921-.388 1.485 1.461 4.23-1.2 2.406-1.3.021-2.604 2.376-2.898-.51-.65-1.36-4.056-1.44-2.995.833-1.758.032-1.927 3.194-.377 1.033 3.245-.65 7.212 1.182 7.989 4.315-.966.753-4.024-3.378-5.17-1.301 1.854 1.358 6.627 2.402 4.805 5.591-.124-.11-.25-.226-.37-.333zM51.66 45.56c.129-3.168-1.376 2.536 0 0zm3.653-16.701c-.621-1.595 1.303-4.003-1.15-2.08-2.036 1.09 2.482 7.142 1.15 2.08zM28.8 56.33c1.997-2.897 2.01 1.286 0 0zm-13.12-.723c.74-2.483 5.097 1.556 1.142.574-.398.027-1.177.02-1.142-.574zm10.811-.136c-1.429-2.402 4.375-3.902 1.62-1.27-.34.67-1.026 3.447-1.62 1.27zm-16.57.197c1.594-2.208 1.464 1.292 0 0zm21.094.25c-2.17-2.828 4.447-1.694 1.354-.192-.404.073-.926.52-1.354.192zM7.2 55.038c.247-3.308 2.373 1.548 0 0zm14.7-1.774c-.703-4.087 3.212 1.836.401 1.218-.256-.359-.31-.802-.4-1.218zm32.5.146c-1.297-1.55 1.997 1.572 0 0zm-37.042-.992c.591-1.808-5.408-2.212-1.405-2.13 1.32.936 3.529.635 4.315.693-.15.527-3.54 3.514-2.91 1.437zm15.135.403c.448-1.53 1.438 1.449 0 0zm-25.752-.323c.643-2.304 3.463.23.562.243zm-4-1.27c1.056-1.915 2.116 1.496 0 0zm25.898-.034c.157-1.3.947 1.257 0 0zm-17.44-.301c-.517-2.143 3.326-3.348 2.098-.829-.619.317-1.377 1.008-2.098.829zm-7.36-1.31c1.017-2.23 1.014 1.73 0 0zm12.32-.31c.347-1.163 1.09 1.263 0 0zm30.594-1.118c-2.573-1.564-6.127-5.292-6.715-6.971 3.113 2.614 5.957 5.524 8.832 8.391-.718-.455-1.413-.944-2.117-1.42zM7.04 48.02c-1.863-3.225 5.027-.09.823.63-.412.055-.73-.273-.823-.63zm13.44.303c.96-.713 1.068 1.082 0 0zm-9.484-1.29c1.112-3.71.917 2.873.003.589zm8.204.96c.82-1.358.79 1.308 0 0zM0 47.674c.82-1.358.79 1.308 0 0zm16.025-.187c.321-1.167.174 1.44 0 0zm19.815-1.306c-7.208-3.926-14.934-6.998-23.037-8.443-3.393-1.271 2.659-1.02 3.824-1.468 1.975-.608 3.16 3.855 4.24.577 1.05-2.483 4.971-.754 7.142-2.15 3.296-.312 3.233 4.225 5.262 6.025 1.563 2.437 3.572 4.566 5.314 6.845-.903.068-1.867-1.053-2.745-1.386zm-6.144-5.61c.44-1.961-5.105-.042-1.522.15.49.09 1.174.424 1.522-.15zm-.256-4.543c-1.19-2.232-1.342 1.328 0 0zM1.43 47.018c-.232-1.686 1.41.808 0 0zm12.65-.304c1.12-1.388 1.256 1.358 0 0zm-11.2-.498c.878-1.162.115 1.402 0 0zM1 43.994c-.884-2.019 1.451-2.685 1 0-.156 1.561-1.575 2.737-1 0zm16.68 2.07c-1.588-1.655 4.685.873.82.222a5.09 5.09 0 0 1-.82-.222zm5.2-.31c.942-1.121.117 1.132 0 0zm-16.64-.64c.973-1.378 1.626 1.426 0 0zm-1.933-.34c.308-1.825 1.863 1.345 0 0zm6.573-.62c1.85-1.157.241 1.076 0 0zm24.87-2.619c-.929-.773-2.334-4.443-.518-1.59.758.607 2.057 3.702.518 1.59zm9.21.478c-4.012-1.566-6.266-5.53-8.104-9.182 4.3-1.111 9.288-2.83 13.408-.268 3.208 2.365 2.563 8.601-1.667 9.397-1.186.306-2.441.301-3.637.053zm3.04-2.32c-.966-2.03-1.857 1.357 0 0zm1.92-1.809c2.987-1.904-2.135-2.451-3.224-3.722.29 1.377 1.221 4.958 3.224 3.722zm-2.88-.012c-.977-1.289-1.488-6.643-3.5-3.485-1.319 1.22-2.2 3.49.629 2.821.934.215 1.882 1.253 2.871.664zm-5.496-1.82c.71-2.572-4.923-4.269-2.42-.725.42.79 2.162 2.82 2.42.725zm21.977 4.903c.156-1.3.947 1.257 0 0zm-25.236-1.606c-.864-1.747-4.045-5.23-3.038-5.982.823 1.894 3.494 5.542 3.362 6.357l-.324-.375zm23.636.326c-.1-1.488-3.309.948-1.253-1.48.75-2.17 2.185-.046 3.34-1.17.164.713-1.442 4.432-2.088 2.65zM0 35.038c2.798-.44 8.295-.287 9.416.271-3.105.296-6.357.23-9.416-.27zm63.44-.335c.242-2.757.961 1.98 0 0zm-3.826-.388c-3.595-2.773 4.171-5.525 2.324-1.242-1.999-.642-.651 3.18-2.324 1.242zm-28.254-.08c.82-1.358.79 1.308 0 0zm1.28-.32c1.119-1.389 1.255 1.357 0 0zm-23.3-.56c-1.755-.217-6.915.484-3.024-1.09 2.97-1.64 3.885-5.135 5.667-7.79.149 2.911.313 6.121 2.946 7.932.616 2.432-4.383.388-5.59.948zM0 31.035c.073-3.052.226-6.295 3.233-7.902.924-3.76 2.68-6.86 6.18-8.714 1.444-2.614 7.084-3.462 4.702-7.149-1.062-1.151-1.173-4.326.686-2.053 1.271.257 1.196-1.624 2.265-2.12.048-1.984-5.834-3.276-1.832-3.083C18-.006 20.346.068 19.83 3.438c.482 3.424.945 7.018-.182 10.37-3.313 3.87-8.054 6.601-10.125 11.452-1.488 3.962-4.766 6.467-8.78 7.198C0 32.995 0 31.995 0 31.035zm2.676-2.72c1.792.042 2.595-2.49.158-1.3-1.407.409-2.658 2.736-.158 1.3zm4.3-3.744c.62-2.132-4.679.415-1.02.291.353.095.795.019 1.02-.291zm2.177-5.616c2.07-.357.597-3.106-.248-.814-2.745 1.185-2.366 2.485.248.814zm3.567-3.187c1.572-2.797-3.854 1.558-.438.644.232-.143.29-.432.438-.644zm3.28-.413c-1.119-1.389-1.255 1.357 0 0zm-.204-2.4c-.874-1.945-1.283 1.792 0 0zm1.959-2.837c.62-2.013-4.438-.431-1.231.411.446.036.88-.149 1.231-.41zM17.6 4.616c-.881-1.103-.443 1.522 0 0zm.327 27.692c-4.119-1.188-5.775-7.663-1.7-9.948 3.79-2.564 8.01.926 9.256 4.582.643 2.186 4.233 5.203.045 5.177-2.493.347-5.107.66-7.6.189zm2.795-1.193c-1.703-1.986-2.176 2.179 0 0zm5.687-.414c-.423-3.19-2.479 1.235 0 0zm-4.84-1.638c1.144-2.68-4.763-.22-.968.662.422-.01.768-.317.968-.662zm-3.377-.551c1.264-3.65-3.037.72 0 0zm4.022-3.898c.955-3.798-7.597-2.652-5.673-.507 2.58-.633 2.054 3.082 5.673.507zm7.2 6.661c-2.014-4.005 2.317.43 0 0zm1.886-.779c1.425-.455-.054.673 0 0zm1.203-.525c-2.074-7.434-4.33-14.822-6.153-22.329-.4-2.417-1.875-5.257-1.718-7.4 1.348 3.305 1.884 6.899 2.93 10.318 1.748 6.593 3.435 13.264 6.19 19.512.145.94-.983.097-1.25-.1zm29.018-.296c-3.358-2.237 2.479-3.68 2.44-1.414.056 1.573-1.126 3.488-2.44 1.414zm.559-2.019c-.881-1.103-.444 1.523 0 0zm-27.801-.482c-1.6-3.47-2.44-9.058 1.53-11.228 3.506-2.131 8.355.798 8.12 4.865-.213 4.138-4.055 6.657-7.24 8.587-1.491.635-2.24-1.036-2.41-2.224zm3.034.53c-.024-3.685-5.007-4.668-2.081-.348.379.817 1.482 1.195 2.081.347zm-2.583-5.917c-1.53-2.105-.113 3.175 0 0zm4.63-1.331c-.195-2.546-4.007-1.497-2.627.154.858.167 1.8.144 2.627-.154zm.96-.62c-.489-1.017-.487 1.123 0 0zm3.99 5.544c1.687-3.13 2.074-7.379-.948-9.864-2.882-2.975-8.487-2.603-10.61 1.07-2.298 3.02-2.188-3.117-3.07-4.66C28.662 8.081 27.285 3.741 26-.007c3 0 3.298 2.134 4.286 3.91 1.451 2.02 1.548 4.988 4.905 4.347 2.15 1.02 2.61-2.88 4.796-.654 1.13 1.242-3.706 2.552-.539 2.19 1.75-.97 2.579-.447 3.974.479 2.333-2.483 3.772 1.785 6.266.208 1.893.573 2.204 1.954 3.743 1.72 4.009 2.93-.002-4.058 3.118-5.007 1.668-.447 3.197 3.02 4.71 1.11-2.088-.674-1.504-2.79.652-1.556 3.408.014 1.842 2.552.545 4.28.266.88 1.545-1.027 1.505.983-1.24 3.17-5.442 3.834-7.698 6.401-3.664 2.765-7.52 5.521-11.76 7.218l-.194-.079v-.164zm6.09-5.865c2.028-.215 1.614-2.144 2.092-2.787 2.596-1.226 1.203-3.456-1.217-2.942-2.18-.439-6.44-2.433-7.464-.7 2.737 1.59 4.046 3.998 5.038 6.762.445.605 1.257.19 1.551-.333zm6.88-4.621c-.754-2.33-1.799 1.828 0 0zm-19.944-2.117c3.06-.45-3.35-3.566-2.005-.493-.546-1.27-2.204-1.551-1.323.135.944.77 2.235.47 3.328.358zm5.002-.32c-.681-1.992-1.37 2.123 0 0zm19.3-.176c.598-2.384-5.439.345-2.13.622.714.299 1.914.357 2.13-.622zm-3.797-1.288c2.924-3.687-5.421.62 0 0zm-24.32-.838c-1.349-1.532-1.34 1.735 0 0zm28.616 14.19c1.247-2.552 2.988.82.333.49-.78.503-.99.426-.333-.49zm-49.206-1.51c2.167-3.68 7.207-5.14 8.45-9.328.078-1.525 1.358-3.616 1.532-.765.527 2.96 2.606 8.192 2.2 9.714-2.372-2.15-5.987-3.57-9.005-2.108-1.06.408-2.537 2.903-3.177 2.487zm48.83.2c.82-1.358.79 1.308 0 0zM1 22.995c-1.68-1.01-.59-4.25.576-1.894 1.628 1.191.91 2.374-.576 1.894zm-.008-5.63c-2.844-1.886 2.63-2.178 2.145-4.781-.025-2.243 4.457-3.132 2.817-4.704-.786.337-4.32 2.87-2.524 1.008C5.694 7.58 5.46 3.627 8.196 3.276c-1.224-.857-2.243-4.383.166-2.621 1.473 2.672 1.183 6.168 3.284 8.47-2.552 2.383-5.667 4.414-7.787 7.344-.85.989-1.623 2.605-2.866.895zm7.61-10.879c-.407-1.974-3.504-1.463-1.53.282.723 1.75 2.36 2.086 1.53-.282zm53.663 9.576c.886-1.9 2.7-1.455.64-.057.018.038-1.794.924-.64.057zM0 13.995c.82-1.358.79 1.308 0 0zm1-1c.093-2.983-.797-1.28 1-1.877 1.95 1.379-2.466 4.21-1 1.877zM.553 7.48c.819-.739-.977-4.963.396-2.506.315.763 1.573 3.222-.396 2.506zM57.97 6.294c-1.47-1.223-.03-6.128 1.222-3.388-.264.878.505 4.063-1.222 3.388zm4.423-2c-1.146-3.194 3.176 1.072.354.562l-.354-.562zM4.16 3.539c1.264-1.87 2.393 1.058 0 0zm7.326-.225c-.544-2.727 5.423 1.004 1.337.442-.469-.032-.974-.11-1.337-.442zM1 1.994c.881-1.103.443 1.523 0 0zm-.168-.772c-.383-3.401 3.414 2.135.098.092zM58.558.95c.319-2.89 2.837 2.502 0 0zm-47.5-.607c.974-.937 1.213 1.164 0 0zM22.39.679c.82-1.358.79 1.308 0 0zm38.339-.31c1.424-.456-.053.674 0 0z" fill="#393e35"/><path d="M.9 63.812c1.425-.455-.054.672 0 0zm1.18-.102c.68-1.166 1.018 1.112 0 0zm5.894-1.825c1.425-.455-.054.672 0 0zM10 63.802c-2.323-2.223 1.844-1.93 1.17.104l-.552.058zm2-.772c1.188-.964 1.466 1.339 0 0zm2.34.78c1.425-.456-.054.672 0 0zm4.14.01c1.247-.32.932.543 0 0zm8.52-.79c.157-1.299.947 1.257 0 0zm3 0c.157-1.299.947 1.257 0 0zm5 0c-.046-.82 2.074.947 0 0zm2.76.56c.598-2.326 6.24.44 2.24.44-.605.017-1.773 0-2.24-.44zm9.518-.09c3.678-1.325-.106 1.325 0 0zm4.722.21c1.15-1.226.371.955 0 0zm2-.68c2.309-.88-.25 1.46 0 0zm2 .68c-.533-.797-3.84-3.41-.942-2.621 1.508.123 3.212 3.56.942 2.622zm2-.68c.77-1.104 1.05 1.253 0 0zm-35.44-.28c.157-1.298.947 1.258 0 0zm28.32-.32c.82-1.357.79 1.309 0 0zm-30.734-.816c-.797-3.372 2.618 1.435 0 0zm21.616.18c.509-3.885 2.22.895 0 0zm5.918.06c1.706-2.71 1.7.897 0 0zm15.68-.063c.82-1.358.79 1.308 0 0zM1.6 61.19c1.308-2.911 1.928 1.238 0 0zm49.92-.36c.426-1.058.684-2.597 1.763-.899-.375.285-1.312 1.69-1.763.9zm11.84-1.12c.847-1.667.562 1.553 0 0zm-19.99-.493c-1.29-2.206 2.032-.263-.057.236l.042-.178.014-.059zm6.29-.466c-1.209-2.84 2.974 2.617 0 0zM.756 58.43c-.244-3.744 3.694 1.23 0 0zm62.81-.853c-5.37-4.845-12.203-7.895-17.274-13.044 2.881-.534 7.067-1.866 7.712-5.611 1.243-4.31-2.2-9.232-6.728-9.312-3.494-.86 2.618-1.474 3.377-2.597 3.07-.19 4.91 4.578 4.008 6.93.557 2.018 5.762 1.2 2.506 3.182-2.635 2.142-2.195 6.868-4.984 8.35.461-3.525-3.565 2.023-.173 1.702.799.49 3.413 1.145 2.347 2.852 1.338.853 5.551-2.206 4.59.56-1.55-1.744-4.449 1.721-1.168.927 1.038 2.318 7.542 2.016 5.98 6.18l-.082.022-.11-.14zm-51.246-.366c-2.719-2.287 3.865.632 0 0zm31.591.03c-1.807-2.29 4.91-.258 1.161.226l-.593-.05zm2.17-1.87c.813-.684.617 1.146 0 0zm-44.725-.354c-1.758-2.96 2.067.328 0 0zm30.804-.268c.347-1.163 1.09 1.262 0 0zm8.383-1.441c-1.582-.305-4.87-2.483-1.438-2.926 1.442.702 5.53 3.057 4.44 3.32-1.42-1.389-1.93.694-1.919.461a9.153 9.153 0 0 1-1.083-.855zm-18.268.295c-.67-1.633.144-2.673.7-.494.462.784-.238 1.137-.7.494zm41.256.092c-.428-2.425 1.125.98 0 0zM.026 53.283c.346-1.145.14 1.45 0 0zM7.52 52.19c1.15-1.226.372.955 0 0zm53.44-.419c-2.947-2.284 3.578.7 0 0zM0 50.911c.286-2.382.982 1.916.041.3l-.024-.18zm34.198-.22c-.643-.905-3.72-2.417-2.832-2.171 2.486-3.532-4.283 1.156-3.71-1.009 3.917-3.178-6.302-2.141-3.34-4.37 4.153 1.034 7.796 3.417 11.682 5.132 1.633.688 1.683 2.424-.282 1.185-2.44 0 2.36 2.427-.455 1.585l-.478-.128-.585-.225zm-9.078-.52c-2.665-.933.361-4.495.698-1.016.39.778.453 2.06-.698 1.016zm17.181-1.382c-2.844-2.523 1.025.179 1.521 1.289-.56-.361-1.05-.82-1.52-1.289zm-30.14.54c.648-1.724.872 1.068 0 0zm51.342-1.007c-.064-2.304 1.11.943 0 0zm-3.343-.425c1.062-1.864.967 1.355 0 0zM0 47.71c.987-1.386.27 1.142 0 0zm43.096-2.843c-1.278-1-3.178-3.894-.749-1.295 1.253.848 5.183 5.29 2.088 2.644-.454-.442-.884-.908-1.339-1.35zm-7.663.9c-7.103-3.704-14.622-6.741-22.533-8.16-2.75-1.177 2.738-.73 3.77-.903 2-.032 3.37 3.395 4.792.237.313-1.682 5.95-1.683 4.019.243 1.53.601 2.733-2.15 4.13.02 2.729 2.19 3.89 5.752 6.699 7.919 1.443 1.583 1.916 2.497-.877.643zm-3.432-4.137c-.224-2.121-1.727 2.007 0 0zm-2.185-.85c2.056-1.6-2.636-3.2-1.202-.948-1.322.26-3.588-2.64-2.48.326.839.931 2.62 1.478 3.682.622zm-5.646-1.724c-.44-3.66-2.46 1.239 0 0zm37.59 6.905c.846-.703 2.819-4.235 1.972-1.233-.895-.094-1.202 2.743-1.971 1.233zm-3.837-.09c2.014-2.384 2.402.964 0 0zm-37.117-2.474c-3.783.062-6.823-2.759-10.584-2.876-3.097-.229-6.245-1.338-9.288-.28-2.291-.897.144-3.912 2.132-2.238 3.198.546 6.455.777 9.634 1.596 3.4.77 6.826 1.53 10.12 2.674.683.966-1.484 2.256-2.014 1.124zM2 43.03c-1.311-3.607 2.28.171 0 0zm58.17.024c-.01-2.45 4.212-.23.829-.42-.284-.043-.606.803-.829.42zm-15.065-1.218c-3.056-.597-6.031-5.025-6.516-6.456 1.476 2.449 4.293 2.28 6.707 2.583 2.058.032 6.168 1.499 5.856-1.78-2.398-.298-5.35-4.652-7.416-2.127-1.846 2.777-6.02-3.1-1.498-2.328 3.498-.92 8.53-.355 9.688 3.713 1.44 3.897-2.57 7.605-6.368 6.527l-.453-.132zm3.055-.526c-.157-1.299-.947 1.257 0 0zm-3.04-1.28c-.82-1.358-.79 1.308 0 0zm4.245-.22c-.333-2.14-4.815.01-1.576.373a4.103 4.103 0 0 0 1.576-.372zm-3.115-4.033c-.427-2.426 1.125.979 0 0zM0 35.07c.847-1.667.562 1.553 0 0zm2.88.16c1.559-1.181 6.146.579 1.869.299-.63-.017-1.277-.054-1.869-.299zm34.73-1.261c-.83-2.537 1.125.27.504.672l-.204-.239zm18.71.348c.904-2.042 2.564-.177 0 0zM60 34.27c.157-1.299.947 1.257 0 0zM5.762 33.107c2.973-1.269 4.217-5.888 6.029-7.139.423 2.572 1.31 5.401 2.795 7.137-2.66-.24-5.325-.675-8.042.13l-.397-.037zm54.648-.292c-.101-3.663 3.66.664 0 0zM0 31.03c-.039-2.74 7.763-1.326 4.112-4.708-1.397.146-5.402 2.497-3.228-.602 2.14-3.218 6.331 2.044 7.154-2.61 3.436-3.304-4.882-.128-3.228-3.895 1.883-3.096 5.484-4.661 7.714-7.424 2.76-.104 1.347 3.204-.7 2.988-3.113 1.524 2.213 4.649 1.638 1.078.886-2.921 5.956-3.94 4.674-7.965-.574-1.384-2.488-1.392-.554-2.537 1.05-1.787-1.124-3.532-.161-4.712-1 .635-4.949-.369-1.808-.558 2.71-.227 4.266.4 4.024 3.316.676 3.561 1.123 7.442-.39 10.83-3.521 3.39-7.827 6.306-9.835 10.957C8.038 29.12 4.865 31.51.963 32.329c-.99.724-.964-.3-.964-1.3zm9.749-12.018c2.716-.696-.833-4.213-1.161-1.352-2.053.469-3.18 3.53-.188 2.15a5.681 5.681 0 0 0 1.349-.798zm2.09.397c-1.188-2.75-1.114 1.656 0 0zm4.42-4.102c-1.426-2.296-1.939 2.347 0 0zm-.578 15.286c-2.091-1.775-2.312-5.642-.002-7.328-1.776 2.415 1.879.798 1.893 1.367 1.387 3.135 5.045.028 5.995-.587 2.265 1.564 2.532 7.953-1.2 6.755-2.891-1.26-4.722 2.818-6.686-.207zm6.212-1.47c1.601-2.641-3.944-.623-4.282-2.714-2.314 1.185.233 3.29 1.727 2.877.743.798 2.055 1.093 2.555-.162zm10.645-.201c-1.317-3.444 1.932 2.336.276.657zm30.34.942c-2.811-1.33 2.12-2.833.828 0l-.401.077zm-27.498-.615c.332-1.817 3.018.66.279.268-.091-.086-.188-.184-.28-.268zm20.193.01c-2.141-2.136 3.704-3.178 1.049-.615-.152.323-.62 1.178-1.05.615zM38.32 27.856c.137-1.837-2.826-2.587-2.851-4.718-.18-1.586-1.722-4.613-1.839-1.177.286 1.646.662 5.892-.366 1.953-.899-3.61.83-8.473 5.116-8.507 4.209-.196 6.776 5.029 4.56 8.428-1.073 1.73-2.656 3.357-4.62 4.02zm1.692-5.295c2.28-.576 1.053-4.547-1.081-2.733.78-4.388-6.319 1.414-1.502 1.063 3-.063-.099 3.163.044 3.928 1.104.733 1.981-1.646 2.539-2.258zm-3.532.192c-.987-1.386-.269 1.142 0 0zm19.7 2.913c-1.13-3.122 5.158-3.912 2.913-1.621-1.616-1.01-1.09 2.432-2.913 1.62zm-11.546-.593c1.522-2.972 1.816-6.38-.506-9.03-1.593-.681-2.543-4.11-.028-2.215 1.815 1.061 3.534 2.122 3.003 4.456 1.287 1.211 4.606 4.05.95 4.581-.953.396-2.501 3.315-3.42 2.208zm18.726-1.36c.82-1.358.79 1.308 0 0zm-57.6-.64c1.119-1.389 1.255 1.357 0 0zm-1.44-.32c-.144-2.483 1.749 1.278 0 0zm19.994-1.132c-1.564-3.06-7.666-1.048-8.224-1.794 2.826-2.007 5.427-4.884 6.35-7.908.844 2.843.783 5.948 2.349 8.586.354.417.315 2.204-.475 1.116zM1 21.031c-.18-2.541 1.701 2.405-1 1l.023-.506zm62.35.43c-2.366.48-3.139-2.044-.436-1.717.625.093 1.086 1.287.437 1.716zm-12.63-.948c.478-2.834 3.167 1.153 0 0zm2.876-2.246c.067-1.57 2.148-3.619.262-4.764 3.545-1.006 1.128 4.263-.262 4.764zm-22.561-1.954c-1.5-5.3-3.08-11.145-5.035-16.282 2 0 3.739.78 3.26 2.706 2.27 1.997 1.202 6.1 5.091 5.693 3.03-.57 3.655 3.735 6.413 1.278 1.82-.926 2.575 2.664 4.363.352 2.537-.198-.802 2.882-2.366 1.647-2.098-.588-2.49 3.032-4.128 1.137 3.118-.894-2.264-2.243-3.474-2.573-1.333-1.658-5.022-.315-2.272 1.055-.342 1.04-1.896 3.252.54 2.013.628-.172-.626 1.734.866.864-.64.62-2.862 4.977-3.258 2.11zm.325-7c-.986-1.386-.269 1.142 0 0zm24.16 8c1.183-1.233.679 1.18 0 0zm-54.8-.546c-1.961-1.827 3.91-1.034 2.512-3.745.38-1.69 2.347-3.59 2.613-1.507 1.033-1.324.685-4.854 2.622-2.732 1.841-1.532-.661-4.002-1.157-4.6 2.818-1.098 2.482 3.204 3.16 5.104-2.395 2.391-5.23 5.007-8.088 7.143-.545.3-1.05.566-1.662.337zm55.806-.34c1.519-2.161 2.163.888 0 0zm1.501-2.176c-.204-2.149 5.458-.515 1.88.372-.622.213-1.459.23-1.88-.372zm-22.347-.778c2.75-.822 1.754.576-.409.23zm11.6-.986c-1.75-2.475 3.716.63 0 0zm2.098-.614c1.151-2.248.974 1.194.034.827l-.04-.315zM1 13.03c-1.477-2.47 2.8-.436 0 0zm14.043-1.316c-.02-2.379 2.275 1.58 0 0zM63 12.03c-.11-2.255 1.105.091 0 0zm-4.29-1.108c1.451-2.604-3.119-.895-3.228-.917.343-1.739 1.231-3.8 2.772-1.664 1.901 1.768 4.14.68 4.912-1.226 2.771 2.141-2.489 3.399-4.178 4.254-1.135.562-.524-.207-.278-.447zM37.604 8.679c-.754-3.025 4.458-.039.828.123-.304.047-.557.04-.828-.123zM15.127 8.11c-1.073-.681-2.367-4.238-.2-2.06 1.226.559 3.279 3.997.2 2.06zm44.874-1.04c.347-1.164 1.09 1.262 0 0zm-2.205-1.146c-.82-2.99 2.157.733.398.301zm4.815-1.8c-.038-2.537 1.824 2.324 0 0zm-4.796-.467c-.888-3.12 3.57.151 0 0zM2.002 3.03c.82-1.358.79 1.308 0 0zm5.501-1.214c-1.948-2.894 2.568-.881.338.297zM1.002 1.03c-1-2 2.514.708.646.279zM58.565.835c-.005-2.207 2.476 1.619 0 0zM24.177.459c.68-1.167 1.018 1.111 0 0z" fill="#0b0d0b"/></g></svg>